<?xml version="1.0" encoding="UTF-8" standalone="no"?>
<!DOCTYPE svg PUBLIC "-//W3C//DTD SVG 1.1//EN"
 "http://www.w3.org/Graphics/SVG/1.1/DTD/svg11.dtd">
<!-- Generated by graphviz version 2.38.0 (20140413.2041)
 -->
<!-- Title: %3 Pages: 1 -->
<svg width="1875pt" height="1232pt"
 viewBox="0.00 0.00 1874.50 1231.56" xmlns="http://www.w3.org/2000/svg" xmlns:xlink="http://www.w3.org/1999/xlink">
<g id="graph0" class="graph" transform="scale(1 1) rotate(0) translate(1087.23 690.468)">
<title>%3</title>
<polygon fill="#1f1f1f" stroke="none" points="-1087.23,541.095 -1087.23,-690.468 787.277,-690.468 787.277,541.095 -1087.23,541.095"/>
<!-- Оружие возмездия -->
<g id="node1" class="node"><title>Оружие возмездия</title>
<polygon fill="#181818" stroke="#090909" stroke-width="0.8" points="-816.16,491.357 -923.16,491.357 -923.16,527.357 -816.16,527.357 -816.16,491.357"/>
<text text-anchor="middle" x="-869.66" y="511.857" font-family="Helvetica,sans-Serif" font-size="10.00" fill="#fefefe">Оружие возмездия</text>
</g>
<!-- П. Стецюк -->
<g id="node65" class="node"><title>П. Стецюк</title>
<ellipse fill="#2f2f2f" stroke="#ececec" stroke-width="0.6" cx="-788.066" cy="412.078" rx="39.3809" ry="18"/>
<text text-anchor="middle" x="-788.066" y="414.578" font-family="Helvetica,sans-Serif" font-size="10.00" fill="#ececec">П. Стецюк</text>
</g>
<!-- Оружие возмездия&#45;&#45;П. Стецюк -->
<g id="edge1" class="edge"><title>Оружие возмездия&#45;&#45;П. Стецюк</title>
<path fill="none" stroke="#eeeeee" stroke-width="0.6" d="M-854.313,491.059C-839.356,473.227 -816.8,446.335 -802.252,428.991"/>
</g>
<!-- Реконструктор -->
<g id="node2" class="node"><title>Реконструктор</title>
<polygon fill="#181818" stroke="#090909" stroke-width="0.8" points="-666.016,286.64 -754.016,286.64 -754.016,322.64 -666.016,322.64 -666.016,286.64"/>
<text text-anchor="middle" x="-710.016" y="307.14" font-family="Helvetica,sans-Serif" font-size="10.00" fill="#fefefe">Реконструктор</text>
</g>
<!-- Реконструктор&#45;&#45;П. Стецюк -->
<g id="edge2" class="edge"><title>Реконструктор&#45;&#45;П. Стецюк</title>
<path fill="none" stroke="#eeeeee" stroke-width="0.6" d="M-723.256,322.866C-737.869,342.981 -761.214,375.116 -775.536,394.831"/>
</g>
<!-- Сероб Налбандян -->
<g id="node76" class="node"><title>Сероб Налбандян</title>
<ellipse fill="#2f2f2f" stroke="#ececec" stroke-width="0.6" cx="-648.798" cy="176.69" rx="58.0561" ry="18"/>
<text text-anchor="middle" x="-648.798" y="179.19" font-family="Helvetica,sans-Serif" font-size="10.00" fill="#ececec">Сероб Налбандян</text>
</g>
<!-- Реконструктор&#45;&#45;Сероб Налбандян -->
<g id="edge3" class="edge"><title>Реконструктор&#45;&#45;Сероб Налбандян</title>
<path fill="none" stroke="#eeeeee" stroke-width="0.6" d="M-701.375,286.58C-689.708,262.194 -669.04,218.997 -657.396,194.659"/>
</g>
<!-- День бульдозериста -->
<g id="node3" class="node"><title>День бульдозериста</title>
<polygon fill="#181818" stroke="#090909" stroke-width="0.8" points="513.189,365.585 399.189,365.585 399.189,401.585 513.189,401.585 513.189,365.585"/>
<text text-anchor="middle" x="456.189" y="386.085" font-family="Helvetica,sans-Serif" font-size="10.00" fill="#fefefe">День бульдозериста</text>
</g>
<!-- Померанцев (Константин Победоносцев) -->
<g id="node69" class="node"><title>Померанцев (Константин Победоносцев)</title>
<ellipse fill="#2f2f2f" stroke="#ececec" stroke-width="0.6" cx="309.789" cy="324.247" rx="121.707" ry="18"/>
<text text-anchor="middle" x="309.789" y="326.747" font-family="Helvetica,sans-Serif" font-size="10.00" fill="#ececec">Померанцев (Константин Победоносцев)</text>
</g>
<!-- День бульдозериста&#45;&#45;Померанцев (Константин Победоносцев) -->
<g id="edge4" class="edge"><title>День бульдозериста&#45;&#45;Померанцев (Константин Победоносцев)</title>
<path fill="none" stroke="#eeeeee" stroke-width="0.6" d="M411.469,365.46C392.465,357.757 370.426,348.825 351.735,341.249"/>
</g>
<!-- товарищ Бабаясин -->
<g id="node80" class="node"><title>товарищ Бабаясин</title>
<ellipse fill="#2f2f2f" stroke="#ececec" stroke-width="0.6" cx="525.309" cy="267.544" rx="61.4427" ry="18"/>
<text text-anchor="middle" x="525.309" y="270.044" font-family="Helvetica,sans-Serif" font-size="10.00" fill="#ececec">товарищ Бабаясин</text>
</g>
<!-- День бульдозериста&#45;&#45;товарищ Бабаясин -->
<g id="edge5" class="edge"><title>День бульдозериста&#45;&#45;товарищ Бабаясин</title>
<path fill="none" stroke="#eeeeee" stroke-width="0.6" d="M466.989,365.454C479.974,343.653 501.633,307.291 514.584,285.548"/>
</g>
<!-- Миттельшпиль -->
<g id="node4" class="node"><title>Миттельшпиль</title>
<polygon fill="#181818" stroke="#090909" stroke-width="0.8" points="-149.371,414.578 -235.371,414.578 -235.371,450.578 -149.371,450.578 -149.371,414.578"/>
<text text-anchor="middle" x="-192.371" y="435.078" font-family="Helvetica,sans-Serif" font-size="10.00" fill="#fefefe">Миттельшпиль</text>
</g>
<!-- Нелли -->
<g id="node63" class="node"><title>Нелли</title>
<ellipse fill="#2f2f2f" stroke="#ececec" stroke-width="0.6" cx="-67.4652" cy="323.431" rx="27.1572" ry="18"/>
<text text-anchor="middle" x="-67.4652" y="325.931" font-family="Helvetica,sans-Serif" font-size="10.00" fill="#ececec">Нелли</text>
</g>
<!-- Миттельшпиль&#45;&#45;Нелли -->
<g id="edge6" class="edge"><title>Миттельшпиль&#45;&#45;Нелли</title>
<path fill="none" stroke="#eeeeee" stroke-width="0.6" d="M-171.745,414.555C-147.216,393.121 -106.756,357.765 -84.1202,337.985"/>
</g>
<!-- Музыка со столба -->
<g id="node5" class="node"><title>Музыка со столба</title>
<polygon fill="#181818" stroke="#090909" stroke-width="0.8" points="-982.228,16.5927 -1083.23,16.5927 -1083.23,52.5927 -982.228,52.5927 -982.228,16.5927"/>
<text text-anchor="middle" x="-1032.73" y="37.0927" font-family="Helvetica,sans-Serif" font-size="10.00" fill="#fefefe">Музыка со столба</text>
</g>
<!-- Матвей (Гиммлер) -->
<g id="node57" class="node"><title>Матвей (Гиммлер)</title>
<ellipse fill="#2f2f2f" stroke="#ececec" stroke-width="0.6" cx="-907.764" cy="61.8816" rx="59.4099" ry="18"/>
<text text-anchor="middle" x="-907.764" y="64.3816" font-family="Helvetica,sans-Serif" font-size="10.00" fill="#ececec">Матвей (Гиммлер)</text>
</g>
<!-- Музыка со столба&#45;&#45;Матвей (Гиммлер) -->
<g id="edge7" class="edge"><title>Музыка со столба&#45;&#45;Матвей (Гиммлер)</title>
<path fill="none" stroke="#eeeeee" stroke-width="0.6" d="M-981.901,45.6921C-973.387,47.5514 -964.573,49.476 -956.123,51.3212"/>
</g>
<!-- Откровение Крегера -->
<g id="node6" class="node"><title>Откровение Крегера</title>
<polygon fill="#181818" stroke="#090909" stroke-width="0.8" points="-720.96,87.9602 -835.96,87.9602 -835.96,123.96 -720.96,123.96 -720.96,87.9602"/>
<text text-anchor="middle" x="-778.46" y="108.46" font-family="Helvetica,sans-Serif" font-size="10.00" fill="#fefefe">Откровение Крегера</text>
</g>
<!-- Откровение Крегера&#45;&#45;Матвей (Гиммлер) -->
<g id="edge8" class="edge"><title>Откровение Крегера&#45;&#45;Матвей (Гиммлер)</title>
<path fill="none" stroke="#eeeeee" stroke-width="0.6" d="M-831.426,87.9045C-843.701,83.7201 -856.558,79.3375 -868.145,75.3874"/>
</g>
<!-- Откровение Крегера&#45;&#45;Сероб Налбандян -->
<g id="edge9" class="edge"><title>Откровение Крегера&#45;&#45;Сероб Налбандян</title>
<path fill="none" stroke="#eeeeee" stroke-width="0.6" d="M-745.405,123.991C-724.547,135.369 -697.858,149.928 -677.82,160.859"/>
</g>
<!-- Принц Госплана -->
<g id="node7" class="node"><title>Принц Госплана</title>
<polygon fill="#181818" stroke="#090909" stroke-width="0.8" points="-1.27758,501.095 -94.2776,501.095 -94.2776,537.095 -1.27758,537.095 -1.27758,501.095"/>
<text text-anchor="middle" x="-47.7776" y="521.595" font-family="Helvetica,sans-Serif" font-size="10.00" fill="#fefefe">Принц Госплана</text>
</g>
<!-- Саша Лапин -->
<g id="node74" class="node"><title>Саша Лапин</title>
<ellipse fill="#2f2f2f" stroke="#ececec" stroke-width="0.6" cx="-15.1609" cy="373.149" rx="42.9448" ry="18"/>
<text text-anchor="middle" x="-15.1609" y="375.649" font-family="Helvetica,sans-Serif" font-size="10.00" fill="#ececec">Саша Лапин</text>
</g>
<!-- Принц Госплана&#45;&#45;Саша Лапин -->
<g id="edge10" class="edge"><title>Принц Госплана&#45;&#45;Саша Лапин</title>
<path fill="none" stroke="#eeeeee" stroke-width="0.6" d="M-43.7126,500.906C-37.4282,472.786 -25.4278,419.089 -19.1746,391.108"/>
</g>
<!-- Проблема верволка в средней полосе -->
<g id="node8" class="node"><title>Проблема верволка в средней полосе</title>
<polygon fill="#181818" stroke="#090909" stroke-width="0.8" points="190.571,457.052 -2.42922,457.052 -2.42922,493.052 190.571,493.052 190.571,457.052"/>
<text text-anchor="middle" x="94.0708" y="477.552" font-family="Helvetica,sans-Serif" font-size="10.00" fill="#fefefe">Проблема верволка в средней полосе</text>
</g>
<!-- полковник Лебеденко -->
<g id="node68" class="node"><title>полковник Лебеденко</title>
<ellipse fill="#2f2f2f" stroke="#ececec" stroke-width="0.6" cx="52.9275" cy="329.105" rx="68.7474" ry="18"/>
<text text-anchor="middle" x="52.9275" y="331.605" font-family="Helvetica,sans-Serif" font-size="10.00" fill="#ececec">полковник Лебеденко</text>
</g>
<!-- Проблема верволка в средней полосе&#45;&#45;полковник Лебеденко -->
<g id="edge11" class="edge"><title>Проблема верволка в средней полосе&#45;&#45;полковник Лебеденко</title>
<path fill="none" stroke="#eeeeee" stroke-width="0.6" d="M88.9431,456.863C81.0159,428.742 65.8784,375.045 57.9905,347.065"/>
</g>
<!-- Проблема верволка в средней полосе&#45;&#45;Саша Лапин -->
<g id="edge12" class="edge"><title>Проблема верволка в средней полосе&#45;&#45;Саша Лапин</title>
<path fill="none" stroke="#eeeeee" stroke-width="0.6" d="M74.5423,456.833C54.1692,437.827 22.4998,408.283 2.75037,389.858"/>
</g>
<!-- Омон Ра -->
<g id="node9" class="node"><title>Омон Ра</title>
<polygon fill="#181818" stroke="#090909" stroke-width="0.8" points="-473.354,126.278 -529.354,126.278 -529.354,162.278 -473.354,162.278 -473.354,126.278"/>
<text text-anchor="middle" x="-501.354" y="146.778" font-family="Helvetica,sans-Serif" font-size="10.00" fill="#fefefe">Омон Ра</text>
</g>
<!-- Бункер под Лубянкой -->
<g id="node43" class="node"><title>Бункер под Лубянкой</title>
<polygon fill="none" stroke="#e8e8e8" stroke-width="0.6" points="-334.707,123.461 -330.222,123.362 -325.785,123.215 -321.411,123.019 -317.12,122.775 -312.928,122.484 -308.852,122.146 -304.908,121.762 -301.111,121.334 -297.475,120.863 -294.013,120.35 -290.736,119.796 -287.657,119.202 -284.785,118.572 -282.127,117.905 -279.693,117.204 -277.486,116.472 -275.513,115.709 -273.777,114.919 -272.28,114.102 -271.023,113.262 -270.005,112.401 -269.226,111.521 -268.682,110.624 -268.371,109.714 -268.287,108.792 -268.426,107.861 -268.78,106.923 -269.342,105.982 -270.106,105.039 -271.062,104.098 -272.202,103.16 -273.516,102.229 -274.995,101.307 -276.629,100.396 -278.408,99.4998 -280.322,98.6197 -282.361,97.7585 -284.516,96.9185 -286.777,96.1021 -289.134,95.3115 -291.579,94.5489 -294.103,93.8163 -296.697,93.1157 -299.354,92.4491 -302.067,91.8183 -304.829,91.2251 -307.633,90.671 -310.474,90.1576 -313.347,89.6862 -316.247,89.2582 -319.169,88.8748 -322.11,88.537 -325.066,88.2457 -328.035,88.0017 -331.013,87.8057 -333.998,87.6582 -336.989,87.5597 -339.982,87.5103 -342.977,87.5103 -345.97,87.5597 -348.961,87.6582 -351.946,87.8057 -354.925,88.0017 -357.893,88.2457 -360.849,88.537 -363.79,88.8748 -366.713,89.2582 -369.612,89.6862 -372.485,90.1576 -375.326,90.671 -378.13,91.2251 -380.892,91.8183 -383.605,92.4491 -386.262,93.1157 -388.857,93.8163 -391.38,94.5489 -393.825,95.3115 -396.182,96.1021 -398.443,96.9185 -400.598,97.7585 -402.638,98.6197 -404.552,99.4998 -406.331,100.396 -407.965,101.307 -409.443,102.229 -410.758,103.16 -411.897,104.098 -412.853,105.039 -413.617,105.982 -414.18,106.923 -414.534,107.861 -414.672,108.792 -414.588,109.714 -414.277,110.624 -413.733,111.521 -412.954,112.401 -411.936,113.262 -410.679,114.102 -409.182,114.919 -407.446,115.709 -405.473,116.472 -403.267,117.204 -400.832,117.905 -398.175,118.572 -395.302,119.202 -392.223,119.796 -388.947,120.35 -385.484,120.863 -381.848,121.334 -378.051,121.762 -374.107,122.146 -370.031,122.484 -365.839,122.775 -361.548,123.019 -357.175,123.215 -352.737,123.362 -348.253,123.461 -343.74,123.51 -339.219,123.51 -334.707,123.461"/>
<text text-anchor="middle" x="-341.48" y="108.01" font-family="Helvetica,sans-Serif" font-size="10.00" fill="#e8e8e8">Бункер под Лубянкой</text>
</g>
<!-- Омон Ра&#45;&#45;Бункер под Лубянкой -->
<g id="edge13" class="edge"><title>Омон Ра&#45;&#45;Бункер под Лубянкой</title>
<path fill="none" stroke="#eeeeee" stroke-width="0.6" d="M-473.14,137.436C-452.074,132.328 -422.609,125.183 -396.894,118.948"/>
</g>
<!-- Омон Ра&#45;&#45;Сероб Налбандян -->
<g id="edge14" class="edge"><title>Омон Ра&#45;&#45;Сероб Налбандян</title>
<path fill="none" stroke="#eeeeee" stroke-width="0.6" d="M-529.434,150.45C-549.654,154.895 -577.427,161 -601.095,166.203"/>
</g>
<!-- Ultima Тулеев, или Дао выборов -->
<g id="node10" class="node"><title>Ultima Тулеев, или Дао выборов</title>
<polygon fill="#181818" stroke="#090909" stroke-width="0.8" points="324.848,262.212 157.848,262.212 157.848,298.212 324.848,298.212 324.848,262.212"/>
<text text-anchor="middle" x="241.348" y="282.712" font-family="Helvetica,sans-Serif" font-size="10.00" fill="#fefefe">Ultima Тулеев, или Дао выборов</text>
</g>
<!-- Силикон Графикс -->
<g id="node77" class="node"><title>Силикон Графикс</title>
<polygon fill="none" stroke="#e8e8e8" stroke-width="0.6" points="168.229,138.775 172.189,138.676 176.108,138.529 179.97,138.333 183.76,138.089 187.462,137.798 191.062,137.46 194.545,137.076 197.898,136.648 201.11,136.177 204.167,135.664 207.061,135.109 209.78,134.516 212.317,133.885 214.664,133.219 216.814,132.518 218.762,131.786 220.505,131.023 222.038,130.232 223.36,129.416 224.47,128.576 225.369,127.715 226.057,126.835 226.537,125.938 226.812,125.028 226.886,124.106 226.764,123.174 226.451,122.237 225.955,121.296 225.28,120.353 224.436,119.411 223.429,118.474 222.269,117.543 220.963,116.621 219.52,115.71 217.949,114.814 216.258,113.934 214.457,113.072 212.554,112.232 210.557,111.416 208.476,110.625 206.316,109.863 204.088,109.13 201.796,108.43 199.45,107.763 197.054,107.132 194.615,106.539 192.138,105.985 189.629,105.471 187.092,105 184.531,104.572 181.951,104.189 179.353,103.851 176.743,103.56 174.121,103.316 171.491,103.12 168.854,102.972 166.213,102.874 163.569,102.824 160.925,102.824 158.281,102.874 155.64,102.972 153.004,103.12 150.373,103.316 147.752,103.56 145.141,103.851 142.544,104.189 139.963,104.572 137.402,105 134.865,105.471 132.356,105.985 129.879,106.539 127.44,107.132 125.045,107.763 122.698,108.43 120.407,109.13 118.178,109.863 116.019,110.625 113.937,111.416 111.94,112.232 110.037,113.072 108.236,113.934 106.546,114.814 104.974,115.71 103.531,116.621 102.225,117.543 101.065,118.474 100.058,119.411 99.2141,120.353 98.5397,121.296 98.0428,122.237 97.7301,123.174 97.6079,124.106 97.6819,125.028 97.9569,125.938 98.4369,126.835 99.1251,127.715 100.024,128.576 101.134,129.416 102.456,130.232 103.99,131.023 105.732,131.786 107.68,132.518 109.831,133.219 112.177,133.885 114.714,134.516 117.434,135.109 120.327,135.664 123.385,136.177 126.596,136.648 129.95,137.076 133.433,137.46 137.032,137.798 140.734,138.089 144.524,138.333 148.386,138.529 152.305,138.676 156.266,138.775 160.251,138.824 164.244,138.824 168.229,138.775"/>
<text text-anchor="middle" x="162.247" y="123.324" font-family="Helvetica,sans-Serif" font-size="10.00" fill="#e8e8e8">Силикон Графикс</text>
</g>
<!-- Ultima Тулеев, или Дао выборов&#45;&#45;Силикон Графикс -->
<g id="edge15" class="edge"><title>Ultima Тулеев, или Дао выборов&#45;&#45;Силикон Графикс</title>
<path fill="none" stroke="#eeeeee" stroke-width="0.6" d="M232.274,261.928C217.016,231.183 186.402,169.496 171.215,138.895"/>
</g>
<!-- Чапаев и Пустота -->
<g id="node11" class="node"><title>Чапаев и Пустота</title>
<polygon fill="#181818" stroke="#090909" stroke-width="0.8" points="507.968,105.518 406.968,105.518 406.968,141.518 507.968,141.518 507.968,105.518"/>
<text text-anchor="middle" x="457.468" y="126.018" font-family="Helvetica,sans-Serif" font-size="10.00" fill="#fefefe">Чапаев и Пустота</text>
</g>
<!-- Анна -->
<g id="node38" class="node"><title>Анна</title>
<ellipse fill="none" stroke="#ececec" stroke-width="0.1" cx="371.899" cy="154.288" rx="27" ry="18"/>
<text text-anchor="middle" x="371.899" y="156.788" font-family="Helvetica,sans-Serif" font-size="10.00" fill="#ececec">Анна</text>
</g>
<!-- Чапаев и Пустота&#45;&#45;Анна -->
<g id="edge16" class="edge"><title>Чапаев и Пустота&#45;&#45;Анна</title>
<path fill="none" stroke="#555555" stroke-width="0.6" d="M407.197,141.595C403.268,143.008 399.426,144.389 395.81,145.69"/>
</g>
<!-- Вовчик Малой -->
<g id="node45" class="node"><title>Вовчик Малой</title>
<ellipse fill="#2f2f2f" stroke="#ececec" stroke-width="0.6" cx="332.983" cy="41.3256" rx="48.7185" ry="18"/>
<text text-anchor="middle" x="332.983" y="43.8256" font-family="Helvetica,sans-Serif" font-size="10.00" fill="#ececec">Вовчик Малой</text>
</g>
<!-- Чапаев и Пустота&#45;&#45;Вовчик Малой -->
<g id="edge17" class="edge"><title>Чапаев и Пустота&#45;&#45;Вовчик Малой</title>
<path fill="none" stroke="#eeeeee" stroke-width="0.6" d="M430.149,105.481C408.249,91.0205 377.819,70.929 356.878,57.1024"/>
</g>
<!-- граф Т. -->
<g id="node48" class="node"><title>граф Т.</title>
<ellipse fill="#2f2f2f" stroke="#ececec" stroke-width="0.6" cx="364.192" cy="244.759" rx="31.3996" ry="18"/>
<text text-anchor="middle" x="364.192" y="247.259" font-family="Helvetica,sans-Serif" font-size="10.00" fill="#ececec">граф Т.</text>
</g>
<!-- Чапаев и Пустота&#45;&#45;граф Т. -->
<g id="edge18" class="edge"><title>Чапаев и Пустота&#45;&#45;граф Т.</title>
<path fill="none" stroke="#eeeeee" stroke-width="0.6" d="M453.783,141.681C448.768,162.016 437.903,194.71 416.898,214.555 408.772,222.232 398.339,228.73 388.903,233.709"/>
</g>
<!-- лама Джамбон Тулку -->
<g id="node52" class="node"><title>лама Джамбон Тулку</title>
<ellipse fill="#2f2f2f" stroke="#ececec" stroke-width="0.6" cx="302.605" cy="85.3548" rx="67.893" ry="18"/>
<text text-anchor="middle" x="302.605" y="87.8548" font-family="Helvetica,sans-Serif" font-size="10.00" fill="#ececec">лама Джамбон Тулку</text>
</g>
<!-- Чапаев и Пустота&#45;&#45;лама Джамбон Тулку -->
<g id="edge19" class="edge"><title>Чапаев и Пустота&#45;&#45;лама Джамбон Тулку</title>
<path fill="none" stroke="#eeeeee" stroke-width="0.6" d="M406.76,111.022C389.294,106.718 369.76,101.904 352.37,97.6186"/>
</g>
<!-- Петр Пустота -->
<g id="node67" class="node"><title>Петр Пустота</title>
<ellipse fill="#2f2f2f" stroke="#ececec" stroke-width="0.6" cx="592.081" cy="137.466" rx="48.7185" ry="18"/>
<text text-anchor="middle" x="592.081" y="139.966" font-family="Helvetica,sans-Serif" font-size="10.00" fill="#ececec">Петр Пустота</text>
</g>
<!-- Чапаев и Пустота&#45;&#45;Петр Пустота -->
<g id="edge20" class="edge"><title>Чапаев и Пустота&#45;&#45;Петр Пустота</title>
<path fill="none" stroke="#eeeeee" stroke-width="0.6" d="M507.976,128.752C520.062,130.004 532.919,131.336 544.851,132.572"/>
</g>
<!-- Чапаев и Пустота&#45;&#45;товарищ Бабаясин -->
<g id="edge21" class="edge"><title>Чапаев и Пустота&#45;&#45;товарищ Бабаясин</title>
<path fill="none" stroke="#eeeeee" stroke-width="0.6" d="M466.06,141.759C479.11,169.463 503.778,221.835 516.786,249.451"/>
</g>
<!-- Чапаев -->
<g id="node83" class="node"><title>Чапаев</title>
<ellipse fill="#2f2f2f" stroke="#ececec" stroke-width="0.6" cx="394.898" cy="200.731" rx="29.3664" ry="18"/>
<text text-anchor="middle" x="394.898" y="203.231" font-family="Helvetica,sans-Serif" font-size="10.00" fill="#ececec">Чапаев</text>
</g>
<!-- Чапаев и Пустота&#45;&#45;Чапаев -->
<g id="edge22" class="edge"><title>Чапаев и Пустота&#45;&#45;Чапаев</title>
<path fill="none" stroke="#eeeeee" stroke-width="0.6" d="M442.64,141.817C432.16,154.749 418.236,171.932 408.131,184.402"/>
</g>
<!-- Имена олигархов на карте Родины -->
<g id="node12" class="node"><title>Имена олигархов на карте Родины</title>
<polygon fill="#181818" stroke="#090909" stroke-width="0.8" points="-7.54514,83.8274 -186.545,83.8274 -186.545,119.827 -7.54514,119.827 -7.54514,83.8274"/>
<text text-anchor="middle" x="-97.0451" y="104.327" font-family="Helvetica,sans-Serif" font-size="10.00" fill="#fefefe">Имена олигархов на карте Родины</text>
</g>
<!-- Вавилен Татарский -->
<g id="node44" class="node"><title>Вавилен Татарский</title>
<ellipse fill="#2f2f2f" stroke="#ececec" stroke-width="0.6" cx="-36.8978" cy="40.0681" rx="64.3289" ry="18"/>
<text text-anchor="middle" x="-36.8978" y="42.5681" font-family="Helvetica,sans-Serif" font-size="10.00" fill="#ececec">Вавилен Татарский</text>
</g>
<!-- Имена олигархов на карте Родины&#45;&#45;Вавилен Татарский -->
<g id="edge23" class="edge"><title>Имена олигархов на карте Родины&#45;&#45;Вавилен Татарский</title>
<path fill="none" stroke="#eeeeee" stroke-width="0.6" d="M-79.3243,83.6316C-71.285,75.3768 -61.8202,65.6583 -53.8724,57.4976"/>
</g>
<!-- Generation «П» -->
<g id="node13" class="node"><title>Generation «П»</title>
<polygon fill="#181818" stroke="#090909" stroke-width="0.8" points="127.419,-0.896487 42.4186,-0.896487 42.4186,35.1035 127.419,35.1035 127.419,-0.896487"/>
<text text-anchor="middle" x="84.9186" y="19.6035" font-family="Helvetica,sans-Serif" font-size="10.00" fill="#fefefe">Generation «П»</text>
</g>
<!-- Generation «П»&#45;&#45;Вавилен Татарский -->
<g id="edge24" class="edge"><title>Generation «П»&#45;&#45;Вавилен Татарский</title>
<path fill="none" stroke="#eeeeee" stroke-width="0.6" d="M42.3131,25.1354C33.9427,26.7134 25.0639,28.3872 16.3942,30.0216"/>
</g>
<!-- Generation «П»&#45;&#45;Вовчик Малой -->
<g id="edge25" class="edge"><title>Generation «П»&#45;&#45;Вовчик Малой</title>
<path fill="none" stroke="#eeeeee" stroke-width="0.6" d="M127.562,21.2674C171.475,25.5553 239.756,32.2225 285.398,36.6792"/>
</g>
<!-- Generation «П»&#45;&#45;лама Джамбон Тулку -->
<g id="edge26" class="edge"><title>Generation «П»&#45;&#45;лама Джамбон Тулку</title>
<path fill="none" stroke="#eeeeee" stroke-width="0.6" d="M127.667,30.5063C165.432,42.3469 220.282,59.5442 258.461,71.5144"/>
</g>
<!-- Малюта -->
<g id="node56" class="node"><title>Малюта</title>
<ellipse fill="#2f2f2f" stroke="#ececec" stroke-width="0.6" cx="-57.7902" cy="-4.12338" rx="31.3996" ry="18"/>
<text text-anchor="middle" x="-57.7902" y="-1.62338" font-family="Helvetica,sans-Serif" font-size="10.00" fill="#ececec">Малюта</text>
</g>
<!-- Generation «П»&#45;&#45;Малюта -->
<g id="edge27" class="edge"><title>Generation «П»&#45;&#45;Малюта</title>
<path fill="none" stroke="#eeeeee" stroke-width="0.6" d="M42.1013,10.7347C19.7698,7.4131 -7.02655,3.42734 -27.2413,0.420549"/>
</g>
<!-- Михаил Непойман -->
<g id="node59" class="node"><title>Михаил Непойман</title>
<ellipse fill="#2f2f2f" stroke="#ececec" stroke-width="0.6" cx="275.85" cy="-72.9868" rx="59.4099" ry="18"/>
<text text-anchor="middle" x="275.85" y="-70.4868" font-family="Helvetica,sans-Serif" font-size="10.00" fill="#ececec">Михаил Непойман</text>
</g>
<!-- Generation «П»&#45;&#45;Михаил Непойман -->
<g id="edge28" class="edge"><title>Generation «П»&#45;&#45;Михаил Непойман</title>
<path fill="none" stroke="#eeeeee" stroke-width="0.6" d="M100.934,-1.14806C113.01,-13.8309 130.625,-30.1767 149.206,-40.102 171.747,-52.1428 198.934,-59.9516 222.331,-64.9226"/>
</g>
<!-- пёс Пиздец -->
<g id="node66" class="node"><title>пёс Пиздец</title>
<polygon fill="none" stroke="#e8e8e8" stroke-width="0.6" points="49.2,160.358 51.9275,160.26 54.6267,160.112 57.2868,159.916 59.8969,159.672 62.4464,159.381 64.9255,159.043 67.3244,158.66 69.634,158.232 71.8457,157.76 73.9515,157.247 75.9443,156.693 77.8172,156.099 79.5643,155.469 81.1806,154.802 82.6615,154.102 84.0034,153.369 85.2034,152.606 86.2594,151.816 87.1701,150.999 87.9348,150.159 88.5537,149.298 89.0277,148.418 89.3583,147.522 89.5477,146.611 89.5986,145.689 89.5145,144.758 89.2991,143.82 88.9569,142.879 88.4925,141.936 87.9109,140.995 87.2177,140.057 86.4185,139.126 85.519,138.204 84.5252,137.293 83.4431,136.397 82.2789,135.517 81.0384,134.656 79.7277,133.816 78.3526,132.999 76.9188,132.209 75.4318,131.446 73.8968,130.713 72.3188,130.013 70.7025,129.346 69.0524,128.715 67.3727,128.122 65.667,127.568 63.9389,127.055 62.1916,126.583 60.428,126.155 58.6506,125.772 56.8619,125.434 55.0637,125.143 53.2581,124.899 51.4466,124.703 49.6307,124.555 47.8118,124.457 45.9911,124.407 44.1698,124.407 42.349,124.457 40.5301,124.555 38.7142,124.703 36.9027,124.899 35.0971,125.143 33.2989,125.434 31.5102,125.772 29.7328,126.155 27.9692,126.583 26.2219,127.055 24.4938,127.568 22.7882,128.122 21.1084,128.715 19.4583,129.346 17.842,130.013 16.264,130.713 14.729,131.446 13.242,132.209 11.8082,132.999 10.4331,133.816 9.12241,134.656 7.88196,135.517 6.71769,136.397 5.63563,137.293 4.64184,138.204 3.74233,139.126 2.94307,140.057 2.24986,140.995 1.66835,141.936 1.20393,142.879 0.861668,143.82 0.646313,144.758 0.562183,145.689 0.613138,146.611 0.802522,147.522 1.13312,148.418 1.60712,149.298 2.22605,150.159 2.99076,150.999 3.90141,151.816 4.95741,152.606 6.15741,153.369 7.49931,154.102 8.98022,154.802 10.5965,155.469 12.3436,156.099 14.2166,156.693 16.2093,157.247 18.3151,157.76 20.5269,158.232 22.8364,158.66 25.2353,159.043 27.7144,159.381 30.264,159.672 32.874,159.916 35.5341,160.112 38.2334,160.26 40.9608,160.358 43.7053,160.407 46.4555,160.407 49.2,160.358"/>
<text text-anchor="middle" x="45.0804" y="144.907" font-family="Helvetica,sans-Serif" font-size="10.00" fill="#e8e8e8">пёс Пиздец</text>
</g>
<!-- Generation «П»&#45;&#45;пёс Пиздец -->
<g id="edge29" class="edge"><title>Generation «П»&#45;&#45;пёс Пиздец</title>
<path fill="none" stroke="#eeeeee" stroke-width="0.6" d="M79.1258,35.3238C71.5296,59.2163 58.2864,100.87 50.7512,124.571"/>
</g>
<!-- Семён Левитан -->
<g id="node75" class="node"><title>Семён Левитан</title>
<ellipse fill="#2f2f2f" stroke="#ececec" stroke-width="0.6" cx="174.306" cy="-185.891" rx="51.6054" ry="18"/>
<text text-anchor="middle" x="174.306" y="-183.391" font-family="Helvetica,sans-Serif" font-size="10.00" fill="#ececec">Семён Левитан</text>
</g>
<!-- Generation «П»&#45;&#45;Семён Левитан -->
<g id="edge30" class="edge"><title>Generation «П»&#45;&#45;Семён Левитан</title>
<path fill="none" stroke="#eeeeee" stroke-width="0.6" d="M98.5585,-0.910368C111.244,-18.7965 129.379,-47.5321 137.563,-75.6092 145.595,-103.165 132.475,-112.65 140.843,-140.105 144.058,-150.653 150.865,-160.736 157.505,-168.741"/>
</g>
<!-- Generation «П»&#45;&#45;Силикон Графикс -->
<g id="edge31" class="edge"><title>Generation «П»&#45;&#45;Силикон Графикс</title>
<path fill="none" stroke="#eeeeee" stroke-width="0.6" d="M98.3882,35.1703C112.668,54.3236 135.068,84.3695 149.19,103.31"/>
</g>
<!-- халдеи -->
<g id="node82" class="node"><title>халдеи</title>
<polygon fill="none" stroke="#e8e8e8" stroke-width="0.6" points="179.917,-65.3949 181.828,-65.4934 183.719,-65.6409 185.583,-65.8369 187.412,-66.0808 189.198,-66.3722 190.935,-66.71 192.615,-67.0934 194.234,-67.5214 195.783,-67.9927 197.258,-68.5062 198.655,-69.0603 199.967,-69.6535 201.191,-70.2843 202.323,-70.9509 203.361,-71.6514 204.301,-72.3841 205.142,-73.1467 205.881,-73.9373 206.519,-74.7537 207.055,-75.5937 207.489,-76.4549 207.821,-77.3349 208.053,-78.2315 208.185,-79.1421 208.221,-80.0642 208.162,-80.9952 208.011,-81.9328 207.771,-82.8742 207.446,-83.8169 207.038,-84.7583 206.553,-85.6958 205.993,-86.6269 205.363,-87.549 204.666,-88.4595 203.908,-89.3561 203.093,-90.2362 202.224,-91.0974 201.305,-91.9373 200.342,-92.7537 199.337,-93.5443 198.296,-94.307 197.22,-95.0396 196.115,-95.7401 194.982,-96.4067 193.826,-97.0375 192.649,-97.6308 191.454,-98.1849 190.244,-98.6983 189.019,-99.1696 187.784,-99.5976 186.539,-99.981 185.285,-100.319 184.026,-100.61 182.761,-100.854 181.491,-101.05 180.219,-101.198 178.945,-101.296 177.669,-101.346 176.393,-101.346 175.118,-101.296 173.843,-101.198 172.571,-101.05 171.302,-100.854 170.037,-100.61 168.777,-100.319 167.524,-99.981 166.279,-99.5976 165.043,-99.1696 163.819,-98.6983 162.608,-98.1849 161.413,-97.6308 160.236,-97.0375 159.08,-96.4067 157.948,-95.7401 156.842,-95.0396 155.767,-94.307 154.725,-93.5443 153.721,-92.7537 152.757,-91.9373 151.839,-91.0974 150.97,-90.2362 150.154,-89.3561 149.396,-88.4595 148.7,-87.549 148.07,-86.6269 147.51,-85.6958 147.024,-84.7583 146.617,-83.8169 146.291,-82.8742 146.051,-81.9328 145.901,-80.9952 145.842,-80.0642 145.877,-79.1421 146.01,-78.2315 146.242,-77.3349 146.574,-76.4549 147.007,-75.5937 147.543,-74.7537 148.181,-73.9373 148.921,-73.1467 149.762,-72.3841 150.702,-71.6514 151.739,-70.9509 152.872,-70.2843 154.096,-69.6535 155.408,-69.0603 156.804,-68.5062 158.279,-67.9927 159.829,-67.5214 161.447,-67.0934 163.128,-66.71 164.865,-66.3722 166.651,-66.0808 168.479,-65.8369 170.343,-65.6409 172.234,-65.4934 174.145,-65.3949 176.068,-65.3455 177.995,-65.3455 179.917,-65.3949"/>
<text text-anchor="middle" x="177.031" y="-80.8455" font-family="Helvetica,sans-Serif" font-size="10.00" fill="#e8e8e8">халдеи</text>
</g>
<!-- Generation «П»&#45;&#45;халдеи -->
<g id="edge32" class="edge"><title>Generation «П»&#45;&#45;халдеи</title>
<path fill="none" stroke="#eeeeee" stroke-width="0.6" d="M101.813,-1.32039C118.953,-20.011 145.246,-48.6832 161.772,-66.7056"/>
</g>
<!-- Акико -->
<g id="node14" class="node"><title>Акико</title>
<polygon fill="#181818" stroke="#090909" stroke-width="0.8" points="-381.601,-240.949 -435.601,-240.949 -435.601,-204.949 -381.601,-204.949 -381.601,-240.949"/>
<text text-anchor="middle" x="-408.601" y="-220.449" font-family="Helvetica,sans-Serif" font-size="10.00" fill="#fefefe">Акико</text>
</g>
<!-- Лебёдкин -->
<g id="node53" class="node"><title>Лебёдкин</title>
<ellipse fill="#2f2f2f" stroke="#ececec" stroke-width="0.6" cx="-262.365" cy="-159.449" rx="36.4942" ry="18"/>
<text text-anchor="middle" x="-262.365" y="-156.949" font-family="Helvetica,sans-Serif" font-size="10.00" fill="#ececec">Лебёдкин</text>
</g>
<!-- Акико&#45;&#45;Лебёдкин -->
<g id="edge33" class="edge"><title>Акико&#45;&#45;Лебёдкин</title>
<path fill="none" stroke="#eeeeee" stroke-width="0.6" d="M-381.438,-211.154C-355.337,-199.82 -316.097,-182.781 -289.879,-171.396"/>
</g>
<!-- Пятое главное управление -->
<g id="node70" class="node"><title>Пятое главное управление</title>
<polygon fill="none" stroke="#e8e8e8" stroke-width="0.6" points="-252.145,-97.4573 -246.736,-97.5559 -241.383,-97.7034 -236.108,-97.8994 -230.932,-98.1433 -225.876,-98.4346 -220.96,-98.7725 -216.203,-99.1559 -211.622,-99.5839 -207.236,-100.055 -203.06,-100.569 -199.109,-101.123 -195.395,-101.716 -191.93,-102.347 -188.725,-103.013 -185.788,-103.714 -183.127,-104.447 -180.747,-105.209 -178.653,-106 -176.847,-106.816 -175.331,-107.656 -174.103,-108.517 -173.163,-109.397 -172.508,-110.294 -172.132,-111.205 -172.031,-112.127 -172.198,-113.058 -172.625,-113.995 -173.304,-114.937 -174.225,-115.879 -175.378,-116.821 -176.753,-117.758 -178.338,-118.689 -180.121,-119.611 -182.092,-120.522 -184.238,-121.419 -186.547,-122.299 -189.007,-123.16 -191.606,-124 -194.333,-124.816 -197.176,-125.607 -200.125,-126.369 -203.169,-127.102 -206.298,-127.803 -209.503,-128.469 -212.776,-129.1 -216.107,-129.693 -219.489,-130.247 -222.916,-130.761 -226.381,-131.232 -229.879,-131.66 -233.403,-132.044 -236.95,-132.381 -240.516,-132.673 -244.097,-132.917 -247.689,-133.113 -251.29,-133.26 -254.897,-133.359 -258.508,-133.408 -262.12,-133.408 -265.73,-133.359 -269.337,-133.26 -272.939,-133.113 -276.531,-132.917 -280.112,-132.673 -283.677,-132.381 -287.225,-132.044 -290.749,-131.66 -294.247,-131.232 -297.712,-130.761 -301.139,-130.247 -304.521,-129.693 -307.852,-129.1 -311.124,-128.469 -314.33,-127.803 -317.459,-127.102 -320.503,-126.369 -323.452,-125.607 -326.295,-124.816 -329.022,-124 -331.621,-123.16 -334.081,-122.299 -336.39,-121.419 -338.536,-120.522 -340.506,-119.611 -342.29,-118.689 -343.875,-117.758 -345.25,-116.821 -346.403,-115.879 -347.324,-114.937 -348.003,-113.995 -348.43,-113.058 -348.597,-112.127 -348.496,-111.205 -348.12,-110.294 -347.465,-109.397 -346.525,-108.517 -345.297,-107.656 -343.781,-106.816 -341.975,-106 -339.881,-105.209 -337.501,-104.447 -334.84,-103.714 -331.903,-103.013 -328.698,-102.347 -325.233,-101.716 -321.519,-101.123 -317.567,-100.569 -313.391,-100.055 -309.005,-99.5839 -304.425,-99.1559 -299.668,-98.7725 -294.752,-98.4346 -289.696,-98.1433 -284.52,-97.8994 -279.245,-97.7034 -273.892,-97.5559 -268.483,-97.4573 -263.041,-97.408 -257.587,-97.408 -252.145,-97.4573"/>
<text text-anchor="middle" x="-260.314" y="-112.908" font-family="Helvetica,sans-Serif" font-size="10.00" fill="#e8e8e8">Пятое главное управление</text>
</g>
<!-- Акико&#45;&#45;Пятое главное управление -->
<g id="edge34" class="edge"><title>Акико&#45;&#45;Пятое главное управление</title>
<path fill="none" stroke="#eeeeee" stroke-width="0.6" d="M-383.446,-204.706C-355.682,-184.571 -311.33,-152.406 -284.118,-132.671"/>
</g>
<!-- Македонская критика французской мысли -->
<g id="node15" class="node"><title>Македонская критика французской мысли</title>
<polygon fill="#181818" stroke="#090909" stroke-width="0.8" points="-387.19,-128.768 -606.19,-128.768 -606.19,-92.7676 -387.19,-92.7676 -387.19,-128.768"/>
<text text-anchor="middle" x="-496.69" y="-108.268" font-family="Helvetica,sans-Serif" font-size="10.00" fill="#fefefe">Македонская критика французской мысли</text>
</g>
<!-- Мунбанк -->
<g id="node60" class="node"><title>Мунбанк</title>
<polygon fill="none" stroke="#e8e8e8" stroke-width="0.6" points="-313.989,35.3369 -311.832,35.2383 -309.697,35.0908 -307.593,34.8948 -305.528,34.6509 -303.511,34.3596 -301.551,34.0217 -299.653,33.6383 -297.826,33.2103 -296.077,32.739 -294.411,32.2255 -292.835,31.6714 -291.354,31.0782 -289.972,30.4474 -288.694,29.7808 -287.522,29.0803 -286.461,28.3476 -285.512,27.585 -284.677,26.7944 -283.956,25.978 -283.351,25.138 -282.862,24.2768 -282.487,23.3968 -282.225,22.5002 -282.076,21.5896 -282.035,20.6676 -282.102,19.7365 -282.272,18.7989 -282.543,17.8575 -282.91,16.9148 -283.37,15.9734 -283.919,15.0359 -284.551,14.1048 -285.262,13.1827 -286.048,12.2722 -286.904,11.3756 -287.825,10.4955 -288.806,9.63433 -289.843,8.79438 -290.93,7.97799 -292.064,7.18738 -293.241,6.42472 -294.455,5.69211 -295.703,4.99156 -296.981,4.32497 -298.286,3.69419 -299.615,3.10093 -300.964,2.54683 -302.331,2.0334 -303.713,1.56206 -305.108,1.13408 -306.514,0.750655 -307.929,0.412824 -309.351,0.121515 -310.779,-0.122471 -312.212,-0.318468 -313.648,-0.465938 -315.087,-0.564476 -316.527,-0.613813 -317.968,-0.613813 -319.408,-0.564476 -320.846,-0.465938 -322.283,-0.318468 -323.715,-0.122471 -325.144,0.121515 -326.566,0.412824 -327.981,0.750655 -329.386,1.13408 -330.781,1.56206 -332.163,2.0334 -333.53,2.54683 -334.879,3.10093 -336.208,3.69419 -337.513,4.32497 -338.792,4.99156 -340.04,5.69211 -341.254,6.42472 -342.43,7.18738 -343.564,7.97799 -344.652,8.79438 -345.688,9.63433 -346.669,10.4955 -347.59,11.3756 -348.446,12.2722 -349.232,13.1827 -349.944,14.1048 -350.576,15.0359 -351.124,15.9734 -351.584,16.9148 -351.952,17.8575 -352.222,18.7989 -352.393,19.7365 -352.459,20.6676 -352.419,21.5896 -352.269,22.5002 -352.008,23.3968 -351.633,24.2768 -351.143,25.138 -350.538,25.978 -349.818,26.7944 -348.983,27.585 -348.034,28.3476 -346.972,29.0803 -345.801,29.7808 -344.522,30.4474 -343.14,31.0782 -341.659,31.6714 -340.083,32.2255 -338.417,32.739 -336.668,33.2103 -334.841,33.6383 -332.944,34.0217 -330.983,34.3596 -328.966,34.6509 -326.902,34.8948 -324.798,35.0908 -322.663,35.2383 -320.506,35.3369 -318.335,35.3862 -316.16,35.3862 -313.989,35.3369"/>
<text text-anchor="middle" x="-317.247" y="19.8862" font-family="Helvetica,sans-Serif" font-size="10.00" fill="#e8e8e8">Мунбанк</text>
</g>
<!-- Македонская критика французской мысли&#45;&#45;Мунбанк -->
<g id="edge35" class="edge"><title>Македонская критика французской мысли&#45;&#45;Мунбанк</title>
<path fill="none" stroke="#eeeeee" stroke-width="0.6" d="M-471.36,-92.6781C-435.036,-66.7358 -368.949,-19.5379 -336.403,3.70565"/>
</g>
<!-- Насых Нафиков (Кика) -->
<g id="node62" class="node"><title>Насых Нафиков (Кика)</title>
<ellipse fill="#2f2f2f" stroke="#ececec" stroke-width="0.6" cx="-305.433" cy="-71.0053" rx="73.6658" ry="18"/>
<text text-anchor="middle" x="-305.433" y="-68.5053" font-family="Helvetica,sans-Serif" font-size="10.00" fill="#ececec">Насых Нафиков (Кика)</text>
</g>
<!-- Македонская критика французской мысли&#45;&#45;Насых Нафиков (Кика) -->
<g id="edge36" class="edge"><title>Македонская критика французской мысли&#45;&#45;Насых Нафиков (Кика)</title>
<path fill="none" stroke="#eeeeee" stroke-width="0.6" d="M-410.015,-92.7479C-393.608,-89.3369 -376.846,-85.8522 -361.685,-82.7001"/>
</g>
<!-- Санбанк -->
<g id="node73" class="node"><title>Санбанк</title>
<polygon fill="none" stroke="#e8e8e8" stroke-width="0.6" points="-292.763,-8.86912 -290.605,-8.96766 -288.47,-9.11513 -286.366,-9.31112 -284.302,-9.55511 -282.285,-9.84642 -280.324,-10.1842 -278.427,-10.5677 -276.6,-10.9957 -274.851,-11.467 -273.185,-11.9804 -271.609,-12.5345 -270.128,-13.1278 -268.746,-13.7586 -267.467,-14.4252 -266.296,-15.1257 -265.235,-15.8583 -264.286,-16.621 -263.45,-17.4116 -262.73,-18.228 -262.125,-19.0679 -261.636,-19.9291 -261.261,-20.8092 -260.999,-21.7058 -260.849,-22.6163 -260.809,-23.5384 -260.876,-24.4695 -261.046,-25.407 -261.317,-26.3484 -261.684,-27.2911 -262.144,-28.2325 -262.692,-29.1701 -263.324,-30.1011 -264.036,-31.0232 -264.822,-31.9338 -265.678,-32.8304 -266.599,-33.7104 -267.58,-34.5716 -268.617,-35.4116 -269.704,-36.228 -270.838,-37.0186 -272.014,-37.7812 -273.229,-38.5139 -274.477,-39.2144 -275.755,-39.881 -277.06,-40.5118 -278.389,-41.105 -279.738,-41.6591 -281.105,-42.1726 -282.487,-42.6439 -283.882,-43.0719 -285.288,-43.4553 -286.702,-43.7931 -288.125,-44.0845 -289.553,-44.3284 -290.986,-44.5244 -292.422,-44.6719 -293.861,-44.7704 -295.301,-44.8198 -296.741,-44.8198 -298.181,-44.7704 -299.62,-44.6719 -301.056,-44.5244 -302.489,-44.3284 -303.917,-44.0845 -305.34,-43.7931 -306.754,-43.4553 -308.16,-43.0719 -309.555,-42.6439 -310.937,-42.1726 -312.304,-41.6591 -313.653,-41.105 -314.982,-40.5118 -316.287,-39.881 -317.565,-39.2144 -318.813,-38.5139 -320.028,-37.7812 -321.204,-37.0186 -322.338,-36.228 -323.425,-35.4116 -324.462,-34.5716 -325.443,-33.7104 -326.364,-32.8304 -327.22,-31.9338 -328.006,-31.0232 -328.718,-30.1011 -329.35,-29.1701 -329.898,-28.2325 -330.358,-27.2911 -330.725,-26.3484 -330.996,-25.407 -331.166,-24.4695 -331.233,-23.5384 -331.193,-22.6163 -331.043,-21.7058 -330.781,-20.8092 -330.406,-19.9291 -329.917,-19.0679 -329.312,-18.228 -328.592,-17.4116 -327.756,-16.621 -326.807,-15.8583 -325.746,-15.1257 -324.575,-14.4252 -323.296,-13.7586 -321.914,-13.1278 -320.433,-12.5345 -318.857,-11.9804 -317.191,-11.467 -315.442,-10.9957 -313.615,-10.5677 -311.718,-10.1842 -309.757,-9.84642 -307.74,-9.55511 -305.676,-9.31112 -303.572,-9.11513 -301.437,-8.96766 -299.279,-8.86912 -297.109,-8.81978 -294.933,-8.81978 -292.763,-8.86912"/>
<text text-anchor="middle" x="-296.021" y="-24.3198" font-family="Helvetica,sans-Serif" font-size="10.00" fill="#e8e8e8">Санбанк</text>
</g>
<!-- Македонская критика французской мысли&#45;&#45;Санбанк -->
<g id="edge37" class="edge"><title>Македонская критика французской мысли&#45;&#45;Санбанк</title>
<path fill="none" stroke="#eeeeee" stroke-width="0.6" d="M-453.641,-92.7587C-413.219,-75.8486 -354.142,-51.1342 -320.985,-37.2633"/>
</g>
<!-- Один вог -->
<g id="node16" class="node"><title>Один вог</title>
<polygon fill="#181818" stroke="#090909" stroke-width="0.8" points="-467.258,-22.032 -526.258,-22.032 -526.258,13.968 -467.258,13.968 -467.258,-22.032"/>
<text text-anchor="middle" x="-496.758" y="-1.53201" font-family="Helvetica,sans-Serif" font-size="10.00" fill="#fefefe">Один вог</text>
</g>
<!-- Мюс -->
<g id="node61" class="node"><title>Мюс</title>
<ellipse fill="#2f2f2f" stroke="#ececec" stroke-width="0.6" cx="-302.088" cy="61.4929" rx="27" ry="18"/>
<text text-anchor="middle" x="-302.088" y="63.9929" font-family="Helvetica,sans-Serif" font-size="10.00" fill="#ececec">Мюс</text>
</g>
<!-- Один вог&#45;&#45;Мюс -->
<g id="edge38" class="edge"><title>Один вог&#45;&#45;Мюс</title>
<path fill="none" stroke="#eeeeee" stroke-width="0.6" d="M-467.192,5.91981C-428.688,18.88 -362.097,41.2942 -326.384,53.3152"/>
</g>
<!-- Фокус&#45;группа -->
<g id="node17" class="node"><title>Фокус&#45;группа</title>
<polygon fill="#181818" stroke="#090909" stroke-width="0.8" points="-322.232,226.618 -403.232,226.618 -403.232,262.618 -322.232,262.618 -322.232,226.618"/>
<text text-anchor="middle" x="-362.732" y="247.118" font-family="Helvetica,sans-Serif" font-size="10.00" fill="#fefefe">Фокус&#45;группа</text>
</g>
<!-- Сракандаев -->
<g id="node78" class="node"><title>Сракандаев</title>
<ellipse fill="#2f2f2f" stroke="#ececec" stroke-width="0.6" cx="-217.052" cy="148.013" rx="42.9448" ry="18"/>
<text text-anchor="middle" x="-217.052" y="150.513" font-family="Helvetica,sans-Serif" font-size="10.00" fill="#ececec">Сракандаев</text>
</g>
<!-- Фокус&#45;группа&#45;&#45;Сракандаев -->
<g id="edge39" class="edge"><title>Фокус&#45;группа&#45;&#45;Сракандаев</title>
<path fill="none" stroke="#eeeeee" stroke-width="0.6" d="M-335.331,226.447C-307.802,208.192 -265.856,180.376 -240.017,163.242"/>
</g>
<!-- Числа -->
<g id="node18" class="node"><title>Числа</title>
<polygon fill="#181818" stroke="#090909" stroke-width="0.8" points="-162.009,-6.87987 -216.009,-6.87987 -216.009,29.1201 -162.009,29.1201 -162.009,-6.87987"/>
<text text-anchor="middle" x="-189.009" y="13.6201" font-family="Helvetica,sans-Serif" font-size="10.00" fill="#fefefe">Числа</text>
</g>
<!-- Борис Маросеев -->
<g id="node41" class="node"><title>Борис Маросеев</title>
<ellipse fill="#2f2f2f" stroke="#ececec" stroke-width="0.6" cx="-107.924" cy="-77.6037" rx="55.8461" ry="18"/>
<text text-anchor="middle" x="-107.924" y="-75.1037" font-family="Helvetica,sans-Serif" font-size="10.00" fill="#ececec">Борис Маросеев</text>
</g>
<!-- Числа&#45;&#45;Борис Маросеев -->
<g id="edge40" class="edge"><title>Числа&#45;&#45;Борис Маросеев</title>
<path fill="none" stroke="#eeeeee" stroke-width="0.6" d="M-172.208,-7.26351C-158.014,-22.7952 -137.824,-44.8867 -123.876,-60.1492"/>
</g>
<!-- Числа&#45;&#45;Бункер под Лубянкой -->
<g id="edge41" class="edge"><title>Числа&#45;&#45;Бункер под Лубянкой</title>
<path fill="none" stroke="#eeeeee" stroke-width="0.6" d="M-213.219,29.2269C-231.601,42.6364 -257.737,60.9878 -281.81,75.3145 -290.59,80.5395 -300.385,85.7404 -309.459,90.3163"/>
</g>
<!-- Числа&#45;&#45;Вавилен Татарский -->
<g id="edge42" class="edge"><title>Числа&#45;&#45;Вавилен Татарский</title>
<path fill="none" stroke="#eeeeee" stroke-width="0.6" d="M-161.815,16.2954C-141.904,20.0846 -114.245,25.3483 -90.014,29.9597"/>
</g>
<!-- Числа&#45;&#45;Лебёдкин -->
<g id="edge43" class="edge"><title>Числа&#45;&#45;Лебёдкин</title>
<path fill="none" stroke="#eeeeee" stroke-width="0.6" d="M-184.008,-7.28062C-176.313,-36.8354 -163.043,-93.5357 -168.891,-112.973 -176.253,-137.443 -203.861,-149.057 -227.18,-154.553"/>
</g>
<!-- Числа&#45;&#45;Малюта -->
<g id="edge44" class="edge"><title>Числа&#45;&#45;Малюта</title>
<path fill="none" stroke="#eeeeee" stroke-width="0.6" d="M-161.821,7.96166C-140.501,5.48503 -110.825,2.0376 -88.6226,-0.541633"/>
</g>
<!-- Числа&#45;&#45;Мунбанк -->
<g id="edge45" class="edge"><title>Числа&#45;&#45;Мунбанк</title>
<path fill="none" stroke="#eeeeee" stroke-width="0.6" d="M-216.205,12.449C-235.762,13.4046 -262.271,14.6999 -283.229,15.724"/>
</g>
<!-- Числа&#45;&#45;Мюс -->
<g id="edge46" class="edge"><title>Числа&#45;&#45;Мюс</title>
<path fill="none" stroke="#eeeeee" stroke-width="0.6" d="M-216.095,23.1856C-235.435,31.8011 -261.155,43.2583 -279.413,51.3919"/>
</g>
<!-- Числа&#45;&#45;Насых Нафиков (Кика) -->
<g id="edge47" class="edge"><title>Числа&#45;&#45;Насых Нафиков (Кика)</title>
<path fill="none" stroke="#eeeeee" stroke-width="0.6" d="M-214.559,-6.90264C-234.372,-20.8788 -261.649,-40.1199 -281.137,-53.8672"/>
</g>
<!-- Числа&#45;&#45;Пятое главное управление -->
<g id="edge48" class="edge"><title>Числа&#45;&#45;Пятое главное управление</title>
<path fill="none" stroke="#eeeeee" stroke-width="0.6" d="M-197.194,-6.90497C-205.076,-23.8296 -217.63,-49.6935 -230.253,-71.1986 -235.422,-80.0033 -241.699,-89.404 -247.177,-97.2627"/>
</g>
<!-- Числа&#45;&#45;Санбанк -->
<g id="edge49" class="edge"><title>Числа&#45;&#45;Санбанк</title>
<path fill="none" stroke="#eeeeee" stroke-width="0.6" d="M-216.013,1.54628C-230.873,-3.72218 -249.382,-10.2842 -264.853,-15.7695"/>
</g>
<!-- Числа&#45;&#45;Сракандаев -->
<g id="edge50" class="edge"><title>Числа&#45;&#45;Сракандаев</title>
<path fill="none" stroke="#eeeeee" stroke-width="0.6" d="M-192.733,29.2984C-198.097,55.481 -207.941,103.535 -213.313,129.759"/>
</g>
<!-- Священная книга оборотня -->
<g id="node19" class="node"><title>Священная книга оборотня</title>
<polygon fill="#181818" stroke="#090909" stroke-width="0.8" points="47.632,180.401 -95.368,180.401 -95.368,216.401 47.632,216.401 47.632,180.401"/>
<text text-anchor="middle" x="-23.868" y="200.901" font-family="Helvetica,sans-Serif" font-size="10.00" fill="#fefefe">Священная книга оборотня</text>
</g>
<!-- А Хули -->
<g id="node37" class="node"><title>А Хули</title>
<ellipse fill="#2f2f2f" stroke="#ececec" stroke-width="0.6" cx="120.298" cy="273.318" rx="29.3664" ry="18"/>
<text text-anchor="middle" x="120.298" y="275.818" font-family="Helvetica,sans-Serif" font-size="10.00" fill="#ececec">А Хули</text>
</g>
<!-- Священная книга оборотня&#45;&#45;А Хули -->
<g id="edge51" class="edge"><title>Священная книга оборотня&#45;&#45;А Хули</title>
<path fill="none" stroke="#eeeeee" stroke-width="0.6" d="M11.0306,216.536C38.0303,230.567 74.6148,249.579 97.8413,261.649"/>
</g>
<!-- Священная книга оборотня&#45;&#45;Вавилен Татарский -->
<g id="edge52" class="edge"><title>Священная книга оборотня&#45;&#45;Вавилен Татарский</title>
<path fill="none" stroke="#eeeeee" stroke-width="0.6" d="M-15.4595,180.363C-5.69978,156.83 7.61883,114.648 -4.34514,80.6274 -7.34054,72.1097 -12.9629,64.0576 -18.7029,57.4071"/>
</g>
<!-- Лев Толстой -->
<g id="node54" class="node"><title>Лев Толстой</title>
<ellipse fill="#2f2f2f" stroke="#ececec" stroke-width="0.6" cx="99.9281" cy="229.317" rx="44.3" ry="18"/>
<text text-anchor="middle" x="99.9281" y="231.817" font-family="Helvetica,sans-Serif" font-size="10.00" fill="#ececec">Лев Толстой</text>
</g>
<!-- Священная книга оборотня&#45;&#45;Лев Толстой -->
<g id="edge53" class="edge"><title>Священная книга оборотня&#45;&#45;Лев Толстой</title>
<path fill="none" stroke="#eeeeee" stroke-width="0.6" d="M47.7862,216.296C52.7055,217.524 57.5405,218.732 62.1626,219.886"/>
</g>
<!-- Священная книга оборотня&#45;&#45;Нелли -->
<g id="edge54" class="edge"><title>Священная книга оборотня&#45;&#45;Нелли</title>
<path fill="none" stroke="#eeeeee" stroke-width="0.6" d="M-24.0393,216.716C-24.7642,233.546 -27.3107,258.896 -35.5626,279.28 -39.7499,289.623 -46.8552,299.812 -53.2987,307.791"/>
</g>
<!-- Священная книга оборотня&#45;&#45;пёс Пиздец -->
<g id="edge55" class="edge"><title>Священная книга оборотня&#45;&#45;пёс Пиздец</title>
<path fill="none" stroke="#eeeeee" stroke-width="0.6" d="M-1.67274,180.376C6.67302,173.598 16.1232,165.924 24.3323,159.257"/>
</g>
<!-- Священная книга оборотня&#45;&#45;полковник Лебеденко -->
<g id="edge56" class="edge"><title>Священная книга оборотня&#45;&#45;полковник Лебеденко</title>
<path fill="none" stroke="#eeeeee" stroke-width="0.6" d="M-13.1899,216.575C1.48212,241.546 27.716,286.196 42.3401,311.086"/>
</g>
<!-- рецензент Майя Марачкарская -->
<g id="node72" class="node"><title>рецензент Майя Марачкарская</title>
<ellipse fill="#2f2f2f" stroke="#ececec" stroke-width="0.6" cx="-133.702" cy="279.39" rx="96.5815" ry="18"/>
<text text-anchor="middle" x="-133.702" y="281.89" font-family="Helvetica,sans-Serif" font-size="10.00" fill="#ececec">рецензент Майя Марачкарская</text>
</g>
<!-- Священная книга оборотня&#45;&#45;рецензент Майя Марачкарская -->
<g id="edge57" class="edge"><title>Священная книга оборотня&#45;&#45;рецензент Майя Марачкарская</title>
<path fill="none" stroke="#eeeeee" stroke-width="0.6" d="M-48.5168,216.576C-66.8585,230.101 -91.7512,248.456 -109.89,261.831"/>
</g>
<!-- Священная книга оборотня&#45;&#45;Саша Лапин -->
<g id="edge58" class="edge"><title>Священная книга оборотня&#45;&#45;Саша Лапин</title>
<path fill="none" stroke="#eeeeee" stroke-width="0.6" d="M-23.0222,216.601C-21.8401,241.872 -19.6067,289.019 -17.545,329.209 -17.1145,337.602 -16.6138,346.895 -16.1827,354.764"/>
</g>
<!-- Психическая атака (сонет) -->
<g id="node20" class="node"><title>Психическая атака (сонет)</title>
<polygon fill="#181818" stroke="#090909" stroke-width="0.8" points="783.277,172.218 640.277,172.218 640.277,208.218 783.277,208.218 783.277,172.218"/>
<text text-anchor="middle" x="711.777" y="192.718" font-family="Helvetica,sans-Serif" font-size="10.00" fill="#fefefe">Психическая атака (сонет)</text>
</g>
<!-- Психическая атака (сонет)&#45;&#45;Петр Пустота -->
<g id="edge59" class="edge"><title>Психическая атака (сонет)&#45;&#45;Петр Пустота</title>
<path fill="none" stroke="#eeeeee" stroke-width="0.6" d="M670.919,172.211C655.478,165.406 638.155,157.772 623.689,151.396"/>
</g>
<!-- Empire V -->
<g id="node21" class="node"><title>Empire V</title>
<polygon fill="#181818" stroke="#090909" stroke-width="0.8" points="39.6743,-45.0761 -17.3257,-45.0761 -17.3257,-9.07608 39.6743,-9.07608 39.6743,-45.0761"/>
<text text-anchor="middle" x="11.1743" y="-24.5761" font-family="Helvetica,sans-Serif" font-size="10.00" fill="#fefefe">Empire V</text>
</g>
<!-- Empire V&#45;&#45;Вавилен Татарский -->
<g id="edge60" class="edge"><title>Empire V&#45;&#45;Вавилен Татарский</title>
<path fill="none" stroke="#eeeeee" stroke-width="0.6" d="M-1.9616,-8.72865C-8.85584,0.900798 -17.268,12.6504 -24.1101,22.2069"/>
</g>
<!-- Рама -->
<g id="node71" class="node"><title>Рама</title>
<ellipse fill="#2f2f2f" stroke="#ececec" stroke-width="0.6" cx="169.443" cy="-140.149" rx="27" ry="18"/>
<text text-anchor="middle" x="169.443" y="-137.649" font-family="Helvetica,sans-Serif" font-size="10.00" fill="#ececec">Рама</text>
</g>
<!-- Empire V&#45;&#45;Рама -->
<g id="edge61" class="edge"><title>Empire V&#45;&#45;Рама</title>
<path fill="none" stroke="#eeeeee" stroke-width="0.6" d="M39.703,-31.7978C67.6156,-37.7255 109.861,-50.3491 137.563,-75.6092 141.372,-79.0827 153.515,-104.89 161.666,-122.798"/>
</g>
<!-- Empire V&#45;&#45;халдеи -->
<g id="edge62" class="edge"><title>Empire V&#45;&#45;халдеи</title>
<path fill="none" stroke="#eeeeee" stroke-width="0.6" d="M39.6862,-36.7491C70.0652,-47.0557 117.888,-63.2801 148.336,-73.6104"/>
</g>
<!-- Ассасин -->
<g id="node22" class="node"><title>Ассасин</title>
<polygon fill="#181818" stroke="#090909" stroke-width="0.8" points="-85.1996,452.54 -141.2,452.54 -141.2,488.54 -85.1996,488.54 -85.1996,452.54"/>
<text text-anchor="middle" x="-113.2" y="473.04" font-family="Helvetica,sans-Serif" font-size="10.00" fill="#fefefe">Ассасин</text>
</g>
<!-- Ассасин&#45;&#45;рецензент Майя Марачкарская -->
<g id="edge63" class="edge"><title>Ассасин&#45;&#45;рецензент Майя Марачкарская</title>
<path fill="none" stroke="#eeeeee" stroke-width="0.6" d="M-115.165,452.211C-119.084,415.675 -127.828,334.153 -131.742,297.662"/>
</g>
<!-- Зал поющих кариатид -->
<g id="node23" class="node"><title>Зал поющих кариатид</title>
<polygon fill="#181818" stroke="#090909" stroke-width="0.8" points="134.363,-114.809 13.3632,-114.809 13.3632,-78.8092 134.363,-78.8092 134.363,-114.809"/>
<text text-anchor="middle" x="73.8632" y="-94.3092" font-family="Helvetica,sans-Serif" font-size="10.00" fill="#fefefe">Зал поющих кариатид</text>
</g>
<!-- Зал поющих кариатид&#45;&#45;Борис Маросеев -->
<g id="edge64" class="edge"><title>Зал поющих кариатид&#45;&#45;Борис Маросеев</title>
<path fill="none" stroke="#eeeeee" stroke-width="0.6" d="M13.3306,-90.4141C-8.66914,-88.0898 -33.3499,-85.4823 -54.6734,-83.2295"/>
</g>
<!-- генерал Шмыга -->
<g id="node46" class="node"><title>генерал Шмыга</title>
<ellipse fill="#2f2f2f" stroke="#ececec" stroke-width="0.6" cx="186.721" cy="-26.3059" rx="51.4282" ry="18"/>
<text text-anchor="middle" x="186.721" y="-23.8059" font-family="Helvetica,sans-Serif" font-size="10.00" fill="#ececec">генерал Шмыга</text>
</g>
<!-- Зал поющих кариатид&#45;&#45;генерал Шмыга -->
<g id="edge65" class="edge"><title>Зал поющих кариатид&#45;&#45;генерал Шмыга</title>
<path fill="none" stroke="#eeeeee" stroke-width="0.6" d="M102.927,-78.6529C121.083,-67.3105 144.226,-52.8525 161.589,-42.0063"/>
</g>
<!-- клуб «Haute SOS» -->
<g id="node51" class="node"><title>клуб «Haute SOS»</title>
<polygon fill="none" stroke="#e8e8e8" stroke-width="0.6" points="203.696,-211.999 207.564,-212.098 211.392,-212.245 215.164,-212.441 218.865,-212.685 222.481,-212.977 225.997,-213.315 229.398,-213.698 232.674,-214.126 235.81,-214.597 238.797,-215.111 241.622,-215.665 244.278,-216.258 246.756,-216.889 249.048,-217.555 251.148,-218.256 253.051,-218.989 254.753,-219.751 256.251,-220.542 257.542,-221.358 258.626,-222.198 259.504,-223.059 260.176,-223.939 260.645,-224.836 260.914,-225.747 260.986,-226.669 260.867,-227.6 260.561,-228.537 260.076,-229.479 259.417,-230.421 258.593,-231.363 257.61,-232.3 256.476,-233.231 255.201,-234.154 253.791,-235.064 252.257,-235.961 250.606,-236.841 248.847,-237.702 246.988,-238.542 245.038,-239.358 243.005,-240.149 240.896,-240.912 238.719,-241.644 236.481,-242.345 234.189,-243.011 231.849,-243.642 229.467,-244.235 227.048,-244.789 224.597,-245.303 222.12,-245.774 219.619,-246.202 217.098,-246.586 214.561,-246.923 212.011,-247.215 209.451,-247.459 206.882,-247.655 204.307,-247.802 201.727,-247.901 199.145,-247.95 196.562,-247.95 193.98,-247.901 191.401,-247.802 188.826,-247.655 186.257,-247.459 183.696,-247.215 181.146,-246.923 178.61,-246.586 176.089,-246.202 173.588,-245.774 171.11,-245.303 168.66,-244.789 166.241,-244.235 163.859,-243.642 161.519,-243.011 159.227,-242.345 156.989,-241.644 154.812,-240.912 152.703,-240.149 150.67,-239.358 148.72,-238.542 146.861,-237.702 145.102,-236.841 143.451,-235.961 141.917,-235.064 140.507,-234.154 139.232,-233.231 138.098,-232.3 137.115,-231.363 136.29,-230.421 135.632,-229.479 135.147,-228.537 134.841,-227.6 134.722,-226.669 134.794,-225.747 135.063,-224.836 135.531,-223.939 136.204,-223.059 137.081,-222.198 138.166,-221.358 139.457,-220.542 140.955,-219.751 142.656,-218.989 144.559,-218.256 146.66,-217.555 148.952,-216.889 151.429,-216.258 154.085,-215.665 156.911,-215.111 159.898,-214.597 163.034,-214.126 166.309,-213.698 169.711,-213.315 173.227,-212.977 176.842,-212.685 180.544,-212.441 184.316,-212.245 188.144,-212.098 192.012,-211.999 195.904,-211.95 199.804,-211.95 203.696,-211.999"/>
<text text-anchor="middle" x="197.854" y="-227.45" font-family="Helvetica,sans-Serif" font-size="10.00" fill="#e8e8e8">клуб «Haute SOS»</text>
</g>
<!-- Зал поющих кариатид&#45;&#45;клуб «Haute SOS» -->
<g id="edge66" class="edge"><title>Зал поющих кариатид&#45;&#45;клуб «Haute SOS»</title>
<path fill="none" stroke="#eeeeee" stroke-width="0.6" d="M79.5666,-115.002C87.9605,-138.572 106.003,-179.071 136.203,-199.624 144.092,-204.993 153.071,-209.968 161.688,-214.271"/>
</g>
<!-- Михаил Ботвинник -->
<g id="node58" class="node"><title>Михаил Ботвинник</title>
<ellipse fill="#2f2f2f" stroke="#ececec" stroke-width="0.6" cx="109.818" cy="-274.001" rx="62.2967" ry="18"/>
<text text-anchor="middle" x="109.818" y="-271.501" font-family="Helvetica,sans-Serif" font-size="10.00" fill="#ececec">Михаил Ботвинник</text>
</g>
<!-- Зал поющих кариатид&#45;&#45;Михаил Ботвинник -->
<g id="edge67" class="edge"><title>Зал поющих кариатид&#45;&#45;Михаил Ботвинник</title>
<path fill="none" stroke="#eeeeee" stroke-width="0.6" d="M77.5756,-115.105C84.4835,-149.147 99.2337,-221.839 106.126,-255.806"/>
</g>
<!-- Некромент -->
<g id="node24" class="node"><title>Некромент</title>
<polygon fill="#181818" stroke="#090909" stroke-width="0.8" points="9.82911,-442.758 -58.1709,-442.758 -58.1709,-406.758 9.82911,-406.758 9.82911,-442.758"/>
<text text-anchor="middle" x="-24.1709" y="-422.258" font-family="Helvetica,sans-Serif" font-size="10.00" fill="#fefefe">Некромент</text>
</g>
<!-- Дупин -->
<g id="node49" class="node"><title>Дупин</title>
<ellipse fill="#2f2f2f" stroke="#ececec" stroke-width="0.6" cx="11.694" cy="-259.805" rx="27.8353" ry="18"/>
<text text-anchor="middle" x="11.694" y="-257.305" font-family="Helvetica,sans-Serif" font-size="10.00" fill="#ececec">Дупин</text>
</g>
<!-- Некромент&#45;&#45;Дупин -->
<g id="edge68" class="edge"><title>Некромент&#45;&#45;Дупин</title>
<path fill="none" stroke="#eeeeee" stroke-width="0.6" d="M-20.1957,-406.475C-13.2653,-374.6 0.943979,-309.247 7.80997,-277.669"/>
</g>
<!-- Макар Гетман -->
<g id="node55" class="node"><title>Макар Гетман</title>
<ellipse fill="#2f2f2f" stroke="#ececec" stroke-width="0.6" cx="85.5641" cy="-490.372" rx="48.7185" ry="18"/>
<text text-anchor="middle" x="85.5641" y="-487.872" font-family="Helvetica,sans-Serif" font-size="10.00" fill="#ececec">Макар Гетман</text>
</g>
<!-- Некромент&#45;&#45;Макар Гетман -->
<g id="edge69" class="edge"><title>Некромент&#45;&#45;Макар Гетман</title>
<path fill="none" stroke="#eeeeee" stroke-width="0.6" d="M6.10517,-442.861C22.98,-452.951 43.7678,-465.381 59.848,-474.996"/>
</g>
<!-- Пространство Фридмана -->
<g id="node25" class="node"><title>Пространство Фридмана</title>
<polygon fill="#181818" stroke="#090909" stroke-width="0.8" points="478.403,-52.5491 343.403,-52.5491 343.403,-16.5491 478.403,-16.5491 478.403,-52.5491"/>
<text text-anchor="middle" x="410.903" y="-32.0491" font-family="Helvetica,sans-Serif" font-size="10.00" fill="#fefefe">Пространство Фридмана</text>
</g>
<!-- Пространство Фридмана&#45;&#45;генерал Шмыга -->
<g id="edge70" class="edge"><title>Пространство Фридмана&#45;&#45;генерал Шмыга</title>
<path fill="none" stroke="#eeeeee" stroke-width="0.6" d="M343.337,-32.0647C309.43,-30.8179 269.032,-29.3325 237.759,-28.1826"/>
</g>
<!-- t -->
<g id="node26" class="node"><title>t</title>
<polygon fill="#181818" stroke="#090909" stroke-width="0.8" points="269.894,153.892 215.894,153.892 215.894,189.892 269.894,189.892 269.894,153.892"/>
<text text-anchor="middle" x="242.894" y="174.392" font-family="Helvetica,sans-Serif" font-size="10.00" fill="#fefefe">t</text>
</g>
<!-- t&#45;&#45;А Хули -->
<g id="edge71" class="edge"><title>t&#45;&#45;А Хули</title>
<path fill="none" stroke="#eeeeee" stroke-width="0.6" d="M220.976,190.025C197.284,209.626 159.98,240.488 138.051,258.631"/>
</g>
<!-- t&#45;&#45;Анна -->
<g id="edge72" class="edge"><title>t&#45;&#45;Анна</title>
<path fill="none" stroke="#555555" stroke-width="0.6" d="M269.938,168.202C292.103,165.177 323.299,160.92 345.333,157.913"/>
</g>
<!-- t&#45;&#45;генерал Шмыга -->
<g id="edge73" class="edge"><title>t&#45;&#45;генерал Шмыга</title>
<path fill="none" stroke="#eeeeee" stroke-width="0.6" d="M238.162,153.867C235.732,144.7 232.7,133.389 229.893,123.291 216.642,75.631 200.275,19.6656 192.018,-8.3767"/>
</g>
<!-- t&#45;&#45;граф Т. -->
<g id="edge74" class="edge"><title>t&#45;&#45;граф Т.</title>
<path fill="none" stroke="#eeeeee" stroke-width="0.6" d="M270.116,188.245C291.909,201.337 322.075,219.459 342.318,231.619"/>
</g>
<!-- t&#45;&#45;лама Джамбон Тулку -->
<g id="edge75" class="edge"><title>t&#45;&#45;лама Джамбон Тулку</title>
<path fill="none" stroke="#eeeeee" stroke-width="0.6" d="M255.557,153.54C265.827,138.656 280.215,117.804 290.368,103.089"/>
</g>
<!-- t&#45;&#45;Лев Толстой -->
<g id="edge76" class="edge"><title>t&#45;&#45;Лев Толстой</title>
<path fill="none" stroke="#eeeeee" stroke-width="0.6" d="M215.667,182.829C191.686,192.461 156.75,206.494 131.541,216.62"/>
</g>
<!-- t&#45;&#45;Померанцев (Константин Победоносцев) -->
<g id="edge77" class="edge"><title>t&#45;&#45;Померанцев (Константин Победоносцев)</title>
<path fill="none" stroke="#eeeeee" stroke-width="0.6" d="M269.679,190.166C289.978,205.769 316.314,230.221 328.048,259.012 335.16,276.463 334.283,283.629 328.048,301.412 327.477,303.04 326.736,304.639 325.879,306.188"/>
</g>
<!-- t&#45;&#45;Чапаев -->
<g id="edge78" class="edge"><title>t&#45;&#45;Чапаев</title>
<path fill="none" stroke="#eeeeee" stroke-width="0.6" d="M270.069,177.048C297.31,182.216 339.063,190.138 366.671,195.376"/>
</g>
<!-- Зенитные кодексы Аль&#45;Эфесби -->
<g id="node27" class="node"><title>Зенитные кодексы Аль&#45;Эфесби</title>
<polygon fill="#181818" stroke="#090909" stroke-width="0.8" points="205.732,-364.275 39.7316,-364.275 39.7316,-328.275 205.732,-328.275 205.732,-364.275"/>
<text text-anchor="middle" x="122.732" y="-343.775" font-family="Helvetica,sans-Serif" font-size="10.00" fill="#fefefe">Зенитные кодексы Аль&#45;Эфесби</text>
</g>
<!-- БПЛА -->
<g id="node42" class="node"><title>БПЛА</title>
<polygon fill="none" stroke="#e8e8e8" stroke-width="0.6" points="247.104,-434.655 248.88,-434.754 250.638,-434.901 252.37,-435.097 254.07,-435.341 255.73,-435.632 257.344,-435.97 258.906,-436.354 260.41,-436.782 261.851,-437.253 263.222,-437.766 264.519,-438.32 265.739,-438.914 266.877,-439.545 267.929,-440.211 268.894,-440.912 269.767,-441.644 270.549,-442.407 271.236,-443.198 271.829,-444.014 272.327,-444.854 272.73,-445.715 273.039,-446.595 273.254,-447.492 273.378,-448.402 273.411,-449.324 273.356,-450.255 273.216,-451.193 272.993,-452.134 272.69,-453.077 272.312,-454.018 271.86,-454.956 271.34,-455.887 270.754,-456.809 270.107,-457.72 269.402,-458.616 268.644,-459.496 267.837,-460.358 266.983,-461.198 266.088,-462.014 265.154,-462.805 264.186,-463.567 263.186,-464.3 262.159,-465 261.106,-465.667 260.032,-466.298 258.938,-466.891 257.827,-467.445 256.702,-467.959 255.564,-468.43 254.416,-468.858 253.258,-469.241 252.094,-469.579 250.923,-469.87 249.747,-470.114 248.567,-470.31 247.385,-470.458 246.2,-470.556 245.015,-470.606 243.829,-470.606 242.643,-470.556 241.459,-470.458 240.276,-470.31 239.097,-470.114 237.921,-469.87 236.75,-469.579 235.585,-469.241 234.428,-468.858 233.279,-468.43 232.142,-467.959 231.016,-467.445 229.906,-466.891 228.812,-466.298 227.737,-465.667 226.685,-465 225.657,-464.3 224.658,-463.567 223.69,-462.805 222.756,-462.014 221.861,-461.198 221.007,-460.358 220.199,-459.496 219.441,-458.616 218.737,-457.72 218.089,-456.809 217.504,-455.887 216.983,-454.956 216.532,-454.018 216.153,-453.077 215.851,-452.134 215.628,-451.193 215.488,-450.255 215.433,-449.324 215.466,-448.402 215.589,-447.492 215.805,-446.595 216.113,-445.715 216.516,-444.854 217.014,-444.014 217.607,-443.198 218.295,-442.407 219.076,-441.644 219.95,-440.912 220.914,-440.211 221.967,-439.545 223.105,-438.914 224.324,-438.32 225.622,-437.766 226.993,-437.253 228.433,-436.782 229.937,-436.354 231.499,-435.97 233.114,-435.632 234.774,-435.341 236.473,-435.097 238.206,-434.901 239.963,-434.754 241.739,-434.655 243.526,-434.606 245.317,-434.606 247.104,-434.655"/>
<text text-anchor="middle" x="244.422" y="-450.106" font-family="Helvetica,sans-Serif" font-size="10.00" fill="#e8e8e8">БПЛА</text>
</g>
<!-- Зенитные кодексы Аль&#45;Эфесби&#45;&#45;БПЛА -->
<g id="edge79" class="edge"><title>Зенитные кодексы Аль&#45;Эфесби&#45;&#45;БПЛА</title>
<path fill="none" stroke="#eeeeee" stroke-width="0.6" d="M143.375,-364.312C166.837,-384.813 204.735,-417.928 226.843,-437.245"/>
</g>
<!-- Зенитные кодексы Аль&#45;Эфесби&#45;&#45;Макар Гетман -->
<g id="edge80" class="edge"><title>Зенитные кодексы Аль&#45;Эфесби&#45;&#45;Макар Гетман</title>
<path fill="none" stroke="#eeeeee" stroke-width="0.6" d="M118.024,-364.525C110.875,-392.242 97.3598,-444.641 90.2332,-472.27"/>
</g>
<!-- Зенитные кодексы Аль&#45;Эфесби&#45;&#45;Семён Левитан -->
<g id="edge81" class="edge"><title>Зенитные кодексы Аль&#45;Эфесби&#45;&#45;Семён Левитан</title>
<path fill="none" stroke="#eeeeee" stroke-width="0.6" d="M145.899,-328.198C160.082,-314.887 175.267,-295.465 173.814,-274.196 171.858,-245.578 126.351,-253.768 131.418,-225.534 133.173,-215.754 139.869,-207.652 147.466,-201.377"/>
</g>
<!-- Операция «Burning Bush» -->
<g id="node28" class="node"><title>Операция «Burning Bush»</title>
<polygon fill="#181818" stroke="#090909" stroke-width="0.8" points="16.7277,-158.86 -118.272,-158.86 -118.272,-122.86 16.7277,-122.86 16.7277,-158.86"/>
<text text-anchor="middle" x="-50.7723" y="-138.36" font-family="Helvetica,sans-Serif" font-size="10.00" fill="#fefefe">Операция «Burning Bush»</text>
</g>
<!-- Операция «Burning Bush»&#45;&#45;Вавилен Татарский -->
<g id="edge82" class="edge"><title>Операция «Burning Bush»&#45;&#45;Вавилен Татарский</title>
<path fill="none" stroke="#eeeeee" stroke-width="0.6" d="M-44.5915,-122.483C-36.4507,-96.4198 -23.3426,-47.1043 -24.9911,-4.14147 -25.3263,4.59574 -27.5718,13.9869 -30.0241,21.8568"/>
</g>
<!-- Операция «Burning Bush»&#45;&#45;генерал Шмыга -->
<g id="edge83" class="edge"><title>Операция «Burning Bush»&#45;&#45;генерал Шмыга</title>
<path fill="none" stroke="#eeeeee" stroke-width="0.6" d="M-38.3022,-122.772C-27.2123,-108.008 -9.70692,-87.6812 10.1632,-75.6092 49.7375,-51.5662 101.361,-38.9268 138.553,-32.4949"/>
</g>
<!-- Операция «Burning Bush»&#45;&#45;Дупин -->
<g id="edge84" class="edge"><title>Операция «Burning Bush»&#45;&#45;Дупин</title>
<path fill="none" stroke="#eeeeee" stroke-width="0.6" d="M-41.285,-158.925C-29.3394,-181.671 -8.96859,-220.46 2.72641,-242.729"/>
</g>
<!-- Олег -->
<g id="node64" class="node"><title>Олег</title>
<ellipse fill="#2f2f2f" stroke="#ececec" stroke-width="0.6" cx="-50.9746" cy="-249.846" rx="27" ry="18"/>
<text text-anchor="middle" x="-50.9746" y="-247.346" font-family="Helvetica,sans-Serif" font-size="10.00" fill="#ececec">Олег</text>
</g>
<!-- Операция «Burning Bush»&#45;&#45;Олег -->
<g id="edge85" class="edge"><title>Операция «Burning Bush»&#45;&#45;Олег</title>
<path fill="none" stroke="#eeeeee" stroke-width="0.6" d="M-50.8066,-159.348C-50.8441,-179.511 -50.9036,-211.577 -50.9408,-231.631"/>
</g>
<!-- Операция «Burning Bush»&#45;&#45;Семён Левитан -->
<g id="edge86" class="edge"><title>Операция «Burning Bush»&#45;&#45;Семён Левитан</title>
<path fill="none" stroke="#eeeeee" stroke-width="0.6" d="M16.7586,-154.371C53.145,-161.651 97.0468,-170.434 129.255,-176.878"/>
</g>
<!-- треугольное существо -->
<g id="node81" class="node"><title>треугольное существо</title>
<polygon fill="none" stroke="#e8e8e8" stroke-width="0.6" points="-154.906,-230.615 -150.267,-230.714 -145.677,-230.861 -141.153,-231.057 -136.715,-231.301 -132.379,-231.592 -128.163,-231.93 -124.083,-232.314 -120.156,-232.742 -116.394,-233.213 -112.813,-233.726 -109.424,-234.28 -106.239,-234.874 -103.268,-235.504 -100.52,-236.171 -98.0011,-236.872 -95.7191,-237.604 -93.6784,-238.367 -91.8826,-239.157 -90.3339,-239.974 -89.0335,-240.814 -87.9809,-241.675 -87.1748,-242.555 -86.6126,-243.452 -86.2906,-244.362 -86.2039,-245.284 -86.347,-246.215 -86.7132,-247.153 -87.2953,-248.094 -88.0851,-249.037 -89.074,-249.978 -90.2528,-250.916 -91.612,-251.847 -93.1417,-252.769 -94.8318,-253.68 -96.6719,-254.576 -98.6519,-255.456 -100.761,-256.318 -102.99,-257.157 -105.329,-257.974 -107.767,-258.764 -110.296,-259.527 -112.906,-260.26 -115.59,-260.96 -118.338,-261.627 -121.145,-262.258 -124.001,-262.851 -126.902,-263.405 -129.841,-263.918 -132.812,-264.39 -135.811,-264.818 -138.834,-265.201 -141.876,-265.539 -144.934,-265.83 -148.004,-266.074 -151.085,-266.27 -154.173,-266.418 -157.266,-266.516 -160.363,-266.566 -163.46,-266.566 -166.556,-266.516 -169.65,-266.418 -172.738,-266.27 -175.818,-266.074 -178.889,-265.83 -181.947,-265.539 -184.989,-265.201 -188.011,-264.818 -191.011,-264.39 -193.982,-263.918 -196.921,-263.405 -199.821,-262.851 -202.678,-262.258 -205.484,-261.627 -208.233,-260.96 -210.916,-260.26 -213.527,-259.527 -216.056,-258.764 -218.494,-257.974 -220.832,-257.157 -223.061,-256.318 -225.171,-255.456 -227.151,-254.576 -228.991,-253.68 -230.681,-252.769 -232.211,-251.847 -233.57,-250.916 -234.749,-249.978 -235.738,-249.037 -236.527,-248.094 -237.109,-247.153 -237.476,-246.215 -237.619,-245.284 -237.532,-244.362 -237.21,-243.452 -236.648,-242.555 -235.842,-241.675 -234.789,-240.814 -233.489,-239.974 -231.94,-239.157 -230.144,-238.367 -228.103,-237.604 -225.821,-236.872 -223.303,-236.171 -220.554,-235.504 -217.583,-234.874 -214.398,-234.28 -211.009,-233.726 -207.428,-233.213 -203.667,-232.742 -199.739,-232.314 -195.66,-231.93 -191.444,-231.592 -187.108,-231.301 -182.669,-231.057 -178.146,-230.861 -173.555,-230.714 -168.917,-230.615 -164.25,-230.566 -159.573,-230.566 -154.906,-230.615"/>
<text text-anchor="middle" x="-161.911" y="-246.066" font-family="Helvetica,sans-Serif" font-size="10.00" fill="#e8e8e8">треугольное существо</text>
</g>
<!-- Операция «Burning Bush»&#45;&#45;треугольное существо -->
<g id="edge87" class="edge"><title>Операция «Burning Bush»&#45;&#45;треугольное существо</title>
<path fill="none" stroke="#eeeeee" stroke-width="0.6" d="M-69.3745,-158.888C-90.0137,-178.889 -123.104,-210.958 -143.618,-230.838"/>
</g>
<!-- Отель хороших воплощений -->
<g id="node29" class="node"><title>Отель хороших воплощений</title>
<polygon fill="#181818" stroke="#090909" stroke-width="0.8" points="-159.38,-368.409 -305.38,-368.409 -305.38,-332.409 -159.38,-332.409 -159.38,-368.409"/>
<text text-anchor="middle" x="-232.38" y="-347.909" font-family="Helvetica,sans-Serif" font-size="10.00" fill="#fefefe">Отель хороших воплощений</text>
</g>
<!-- Отель хороших воплощений&#45;&#45;треугольное существо -->
<g id="edge88" class="edge"><title>Отель хороших воплощений&#45;&#45;треугольное существо</title>
<path fill="none" stroke="#eeeeee" stroke-width="0.6" d="M-219.781,-332.201C-206.876,-313.549 -186.943,-284.743 -174.165,-266.274"/>
</g>
<!-- Созерцатель тени -->
<g id="node30" class="node"><title>Созерцатель тени</title>
<polygon fill="#181818" stroke="#090909" stroke-width="0.8" points="-101.173,-419.08 -204.173,-419.08 -204.173,-383.08 -101.173,-383.08 -101.173,-419.08"/>
<text text-anchor="middle" x="-152.673" y="-398.58" font-family="Helvetica,sans-Serif" font-size="10.00" fill="#fefefe">Созерцатель тени</text>
</g>
<!-- Борис -->
<g id="node40" class="node"><title>Борис</title>
<ellipse fill="#2f2f2f" stroke="#ececec" stroke-width="0.6" cx="-205.012" cy="-541.152" rx="27.1572" ry="18"/>
<text text-anchor="middle" x="-205.012" y="-538.652" font-family="Helvetica,sans-Serif" font-size="10.00" fill="#ececec">Борис</text>
</g>
<!-- Созерцатель тени&#45;&#45;Борис -->
<g id="edge89" class="edge"><title>Созерцатель тени&#45;&#45;Борис</title>
<path fill="none" stroke="#eeeeee" stroke-width="0.6" d="M-159.408,-419.106C-169.513,-446.149 -188.475,-496.894 -198.467,-523.636"/>
</g>
<!-- Созерцатель тени&#45;&#45;Олег -->
<g id="edge90" class="edge"><title>Созерцатель тени&#45;&#45;Олег</title>
<path fill="none" stroke="#eeeeee" stroke-width="0.6" d="M-140.406,-382.838C-120.436,-353.142 -81.2077,-294.805 -62.0419,-266.304"/>
</g>
<!-- Созерцатель тени&#45;&#45;треугольное существо -->
<g id="edge91" class="edge"><title>Созерцатель тени&#45;&#45;треугольное существо</title>
<path fill="none" stroke="#eeeeee" stroke-width="0.6" d="M-153.441,-383.057C-154.088,-368.517 -155.081,-347.54 -156.18,-329.209 -157.464,-307.772 -159.261,-283.154 -160.498,-266.814"/>
</g>
<!-- Тхаги -->
<g id="node31" class="node"><title>Тхаги</title>
<polygon fill="#181818" stroke="#090909" stroke-width="0.8" points="-219.163,-686.468 -273.163,-686.468 -273.163,-650.468 -219.163,-650.468 -219.163,-686.468"/>
<text text-anchor="middle" x="-246.163" y="-665.968" font-family="Helvetica,sans-Serif" font-size="10.00" fill="#fefefe">Тхаги</text>
</g>
<!-- Тхаги&#45;&#45;Борис -->
<g id="edge92" class="edge"><title>Тхаги&#45;&#45;Борис</title>
<path fill="none" stroke="#eeeeee" stroke-width="0.6" d="M-240.267,-650.227C-232.4,-625.887 -218.558,-583.062 -210.764,-558.949"/>
</g>
<!-- S.N.U.F.F. -->
<g id="node32" class="node"><title>S.N.U.F.F.</title>
<polygon fill="#181818" stroke="#090909" stroke-width="0.8" points="328.447,-314.918 263.447,-314.918 263.447,-278.918 328.447,-278.918 328.447,-314.918"/>
<text text-anchor="middle" x="295.947" y="-294.418" font-family="Helvetica,sans-Serif" font-size="10.00" fill="#fefefe">S.N.U.F.F.</text>
</g>
<!-- Serge Gainsbourg -->
<g id="node36" class="node"><title>Serge Gainsbourg</title>
<polygon fill="none" stroke="#e8e8e8" stroke-width="0.6" points="467.212,-296.685 470.864,-296.783 474.478,-296.931 478.04,-297.127 481.535,-297.37 484.948,-297.662 488.268,-298 491.48,-298.383 494.572,-298.811 497.534,-299.282 500.354,-299.796 503.022,-300.35 505.529,-300.943 507.869,-301.574 510.033,-302.241 512.016,-302.941 513.813,-303.674 515.419,-304.436 516.833,-305.227 518.053,-306.043 519.077,-306.883 519.905,-307.745 520.54,-308.625 520.983,-309.521 521.236,-310.432 521.305,-311.354 521.192,-312.285 520.904,-313.222 520.445,-314.164 519.823,-315.107 519.045,-316.048 518.117,-316.985 517.046,-317.917 515.842,-318.839 514.511,-319.749 513.063,-320.646 511.504,-321.526 509.843,-322.387 508.088,-323.227 506.246,-324.043 504.327,-324.834 502.336,-325.597 500.28,-326.329 498.167,-327.03 496.003,-327.696 493.794,-328.327 491.545,-328.92 489.261,-329.475 486.947,-329.988 484.607,-330.459 482.246,-330.887 479.866,-331.271 477.471,-331.609 475.063,-331.9 472.645,-332.144 470.22,-332.34 467.788,-332.487 465.353,-332.586 462.915,-332.635 460.476,-332.635 458.038,-332.586 455.603,-332.487 453.171,-332.34 450.746,-332.144 448.328,-331.9 445.921,-331.609 443.525,-331.271 441.146,-330.887 438.784,-330.459 436.445,-329.988 434.131,-329.475 431.847,-328.92 429.598,-328.327 427.388,-327.696 425.224,-327.03 423.111,-326.329 421.056,-325.597 419.065,-324.834 417.145,-324.043 415.304,-323.227 413.549,-322.387 411.888,-321.526 410.329,-320.646 408.88,-319.749 407.549,-318.839 406.345,-317.917 405.275,-316.985 404.347,-316.048 403.568,-315.107 402.946,-314.164 402.488,-313.222 402.199,-312.285 402.087,-311.354 402.155,-310.432 402.409,-309.521 402.851,-308.625 403.486,-307.745 404.315,-306.883 405.339,-306.043 406.558,-305.227 407.972,-304.436 409.579,-303.674 411.375,-302.941 413.358,-302.241 415.522,-301.574 417.862,-300.943 420.37,-300.35 423.038,-299.796 425.858,-299.282 428.819,-298.811 431.911,-298.383 435.124,-298 438.443,-297.662 441.857,-297.37 445.352,-297.127 448.913,-296.931 452.528,-296.783 456.18,-296.685 459.854,-296.635 463.537,-296.635 467.212,-296.685"/>
<text text-anchor="middle" x="461.696" y="-312.135" font-family="Helvetica,sans-Serif" font-size="10.00" fill="#e8e8e8">Serge Gainsbourg</text>
</g>
<!-- S.N.U.F.F.&#45;&#45;Serge Gainsbourg -->
<g id="edge93" class="edge"><title>S.N.U.F.F.&#45;&#45;Serge Gainsbourg</title>
<path fill="none" stroke="#eeeeee" stroke-width="0.6" d="M328.694,-300.418C349.827,-302.677 377.926,-305.681 402.851,-308.345"/>
</g>
<!-- Ацтланский календарь -->
<g id="node39" class="node"><title>Ацтланский календарь</title>
<polygon fill="none" stroke="#e8e8e8" stroke-width="0.6" points="302.322,-340.434 307.114,-340.532 311.857,-340.68 316.531,-340.876 321.117,-341.12 325.597,-341.411 329.953,-341.749 334.168,-342.132 338.226,-342.56 342.112,-343.032 345.813,-343.545 349.314,-344.099 352.605,-344.692 355.675,-345.323 358.515,-345.99 361.117,-346.69 363.475,-347.423 365.583,-348.186 367.439,-348.976 369.039,-349.793 370.382,-350.633 371.47,-351.494 372.303,-352.374 372.884,-353.27 373.216,-354.181 373.306,-355.103 373.158,-356.034 372.78,-356.972 372.178,-357.913 371.362,-358.856 370.341,-359.797 369.122,-360.735 367.718,-361.666 366.138,-362.588 364.391,-363.498 362.49,-364.395 360.444,-365.275 358.265,-366.136 355.962,-366.976 353.546,-367.793 351.026,-368.583 348.414,-369.346 345.716,-370.078 342.944,-370.779 340.104,-371.446 337.204,-372.076 334.253,-372.67 331.256,-373.224 328.219,-373.737 325.149,-374.208 322.051,-374.636 318.928,-375.02 315.785,-375.358 312.625,-375.649 309.452,-375.893 306.269,-376.089 303.079,-376.236 299.883,-376.335 296.684,-376.384 293.483,-376.384 290.284,-376.335 287.088,-376.236 283.897,-376.089 280.715,-375.893 277.542,-375.649 274.382,-375.358 271.239,-375.02 268.116,-374.636 265.018,-374.208 261.947,-373.737 258.911,-373.224 255.914,-372.67 252.962,-372.076 250.063,-371.446 247.223,-370.779 244.451,-370.078 241.753,-369.346 239.14,-368.583 236.621,-367.793 234.205,-366.976 231.902,-366.136 229.722,-365.275 227.677,-364.395 225.775,-363.498 224.029,-362.588 222.449,-361.666 221.044,-360.735 219.826,-359.797 218.805,-358.856 217.989,-357.913 217.387,-356.972 217.009,-356.034 216.861,-355.103 216.951,-354.181 217.283,-353.27 217.864,-352.374 218.697,-351.494 219.785,-350.633 221.128,-349.793 222.728,-348.976 224.584,-348.186 226.692,-347.423 229.05,-346.69 231.652,-345.99 234.492,-345.323 237.562,-344.692 240.853,-344.099 244.354,-343.545 248.054,-343.032 251.941,-342.56 255.999,-342.132 260.214,-341.749 264.57,-341.411 269.05,-341.12 273.636,-340.876 278.31,-340.68 283.053,-340.532 287.845,-340.434 292.667,-340.384 297.5,-340.384 302.322,-340.434"/>
<text text-anchor="middle" x="295.083" y="-355.884" font-family="Helvetica,sans-Serif" font-size="10.00" fill="#e8e8e8">Ацтланский календарь</text>
</g>
<!-- S.N.U.F.F.&#45;&#45;Ацтланский календарь -->
<g id="edge94" class="edge"><title>S.N.U.F.F.&#45;&#45;Ацтланский календарь</title>
<path fill="none" stroke="#eeeeee" stroke-width="0.6" d="M295.693,-315.027C295.581,-322.96 295.451,-332.25 295.339,-340.192"/>
</g>
<!-- S.N.U.F.F.&#45;&#45;БПЛА -->
<g id="edge95" class="edge"><title>S.N.U.F.F.&#45;&#45;БПЛА</title>
<path fill="none" stroke="#eeeeee" stroke-width="0.6" d="M263.345,-307C242.659,-315.599 218.835,-330.402 213.617,-354.009 207.191,-383.077 222.051,-415.905 233.294,-435.394"/>
</g>
<!-- гигантская летучая мышь -->
<g id="node47" class="node"><title>гигантская летучая мышь</title>
<polygon fill="none" stroke="#e8e8e8" stroke-width="0.6" points="395.932,-234.926 401.141,-235.024 406.295,-235.172 411.375,-235.368 416.359,-235.612 421.228,-235.903 425.962,-236.241 430.543,-236.624 434.954,-237.052 439.178,-237.523 443.199,-238.037 447.004,-238.591 450.581,-239.184 453.918,-239.815 457.004,-240.482 459.832,-241.182 462.395,-241.915 464.686,-242.677 466.703,-243.468 468.442,-244.284 469.902,-245.124 471.084,-245.986 471.989,-246.866 472.621,-247.762 472.982,-248.673 473.08,-249.595 472.919,-250.526 472.508,-251.463 471.854,-252.405 470.967,-253.348 469.857,-254.289 468.533,-255.227 467.007,-256.158 465.289,-257.08 463.391,-257.99 461.325,-258.887 459.101,-259.767 456.733,-260.628 454.23,-261.468 451.604,-262.284 448.866,-263.075 446.026,-263.838 443.094,-264.57 440.081,-265.271 436.995,-265.937 433.843,-266.568 430.636,-267.161 427.378,-267.716 424.078,-268.229 420.742,-268.7 417.374,-269.128 413.98,-269.512 410.564,-269.85 407.13,-270.141 403.682,-270.385 400.222,-270.581 396.755,-270.728 393.281,-270.827 389.804,-270.876 386.326,-270.876 382.849,-270.827 379.376,-270.728 375.908,-270.581 372.449,-270.385 369,-270.141 365.567,-269.85 362.151,-269.512 358.757,-269.128 355.389,-268.7 352.052,-268.229 348.752,-267.716 345.495,-267.161 342.287,-266.568 339.136,-265.937 336.049,-265.271 333.036,-264.57 330.104,-263.838 327.265,-263.075 324.527,-262.284 321.901,-261.468 319.398,-260.628 317.029,-259.767 314.806,-258.887 312.739,-257.99 310.841,-257.08 309.124,-256.158 307.597,-255.227 306.274,-254.289 305.163,-253.348 304.276,-252.405 303.623,-251.463 303.211,-250.526 303.051,-249.595 303.148,-248.673 303.51,-247.762 304.141,-246.866 305.046,-245.986 306.228,-245.124 307.688,-244.284 309.427,-243.468 311.444,-242.677 313.736,-241.915 316.298,-241.182 319.126,-240.482 322.213,-239.815 325.549,-239.184 329.126,-238.591 332.931,-238.037 336.953,-237.523 341.176,-237.052 345.587,-236.624 350.168,-236.241 354.902,-235.903 359.771,-235.612 364.755,-235.368 369.835,-235.172 374.99,-235.024 380.198,-234.926 385.439,-234.876 390.691,-234.876 395.932,-234.926"/>
<text text-anchor="middle" x="388.065" y="-250.376" font-family="Helvetica,sans-Serif" font-size="10.00" fill="#e8e8e8">гигантская летучая мышь</text>
</g>
<!-- S.N.U.F.F.&#45;&#45;гигантская летучая мышь -->
<g id="edge96" class="edge"><title>S.N.U.F.F.&#45;&#45;гигантская летучая мышь</title>
<path fill="none" stroke="#eeeeee" stroke-width="0.6" d="M328.684,-281.267C337.165,-277.212 346.305,-272.842 354.812,-268.774"/>
</g>
<!-- Еврайх -->
<g id="node50" class="node"><title>Еврайх</title>
<polygon fill="none" stroke="#e8e8e8" stroke-width="0.6" points="385.292,-411.645 387.249,-411.743 389.185,-411.891 391.094,-412.087 392.967,-412.331 394.796,-412.622 396.575,-412.96 398.296,-413.343 399.953,-413.771 401.54,-414.243 403.051,-414.756 404.481,-415.31 405.825,-415.904 407.079,-416.534 408.238,-417.201 409.301,-417.901 410.264,-418.634 411.125,-419.397 411.882,-420.187 412.536,-421.004 413.084,-421.844 413.529,-422.705 413.869,-423.585 414.106,-424.482 414.242,-425.392 414.278,-426.314 414.218,-427.245 414.063,-428.183 413.818,-429.124 413.485,-430.067 413.067,-431.008 412.57,-431.946 411.997,-432.877 411.351,-433.799 410.638,-434.71 409.862,-435.606 409.026,-436.486 408.136,-437.347 407.196,-438.187 406.209,-439.004 405.18,-439.794 404.113,-440.557 403.012,-441.29 401.88,-441.99 400.72,-442.657 399.536,-443.288 398.331,-443.881 397.107,-444.435 395.867,-444.948 394.613,-445.42 393.348,-445.848 392.073,-446.231 390.789,-446.569 389.499,-446.86 388.203,-447.104 386.904,-447.3 385.601,-447.448 384.295,-447.546 382.989,-447.596 381.682,-447.596 380.376,-447.546 379.071,-447.448 377.768,-447.3 376.468,-447.104 375.172,-446.86 373.882,-446.569 372.599,-446.231 371.323,-445.848 370.058,-445.42 368.804,-444.948 367.564,-444.435 366.341,-443.881 365.135,-443.288 363.951,-442.657 362.792,-441.99 361.659,-441.29 360.558,-440.557 359.491,-439.794 358.462,-439.004 357.476,-438.187 356.535,-437.347 355.645,-436.486 354.81,-435.606 354.033,-434.71 353.32,-433.799 352.675,-432.877 352.101,-431.946 351.604,-431.008 351.187,-430.067 350.853,-429.124 350.608,-428.183 350.453,-427.245 350.393,-426.314 350.43,-425.392 350.565,-424.482 350.803,-423.585 351.143,-422.705 351.587,-421.844 352.136,-421.004 352.789,-420.187 353.547,-419.397 354.408,-418.634 355.37,-417.901 356.433,-417.201 357.593,-416.534 358.846,-415.904 360.19,-415.31 361.62,-414.756 363.131,-414.243 364.718,-413.771 366.375,-413.343 368.096,-412.96 369.875,-412.622 371.705,-412.331 373.577,-412.087 375.486,-411.891 377.423,-411.743 379.38,-411.645 381.349,-411.596 383.322,-411.596 385.292,-411.645"/>
<text text-anchor="middle" x="382.336" y="-427.096" font-family="Helvetica,sans-Serif" font-size="10.00" fill="#e8e8e8">Еврайх</text>
</g>
<!-- S.N.U.F.F.&#45;&#45;Еврайх -->
<g id="edge97" class="edge"><title>S.N.U.F.F.&#45;&#45;Еврайх</title>
<path fill="none" stroke="#eeeeee" stroke-width="0.6" d="M328.573,-310.072C346.376,-319.201 366.683,-333.302 376.215,-353.061 385.076,-371.43 385.532,-395.18 384.464,-411.317"/>
</g>
<!-- S.N.U.F.F.&#45;&#45;Семён Левитан -->
<g id="edge98" class="edge"><title>S.N.U.F.F.&#45;&#45;Семён Левитан</title>
<path fill="none" stroke="#eeeeee" stroke-width="0.6" d="M292.074,-278.709C287.577,-261.783 278.557,-236.965 261.978,-221.794 249.237,-210.136 232.198,-202.001 216.531,-196.461"/>
</g>
<!-- суры -->
<g id="node79" class="node"><title>суры</title>
<polygon fill="none" stroke="#e8e8e8" stroke-width="0.6" points="420.833,-367.602 422.61,-367.7 424.367,-367.848 426.099,-368.044 427.799,-368.288 429.459,-368.579 431.073,-368.917 432.636,-369.301 434.139,-369.728 435.58,-370.2 436.951,-370.713 438.249,-371.267 439.468,-371.861 440.606,-372.491 441.658,-373.158 442.623,-373.859 443.496,-374.591 444.278,-375.354 444.965,-376.144 445.558,-376.961 446.056,-377.801 446.459,-378.662 446.768,-379.542 446.983,-380.439 447.107,-381.349 447.14,-382.271 447.085,-383.202 446.945,-384.14 446.722,-385.081 446.42,-386.024 446.041,-386.965 445.59,-387.903 445.069,-388.834 444.483,-389.756 443.836,-390.667 443.132,-391.563 442.373,-392.443 441.566,-393.304 440.712,-394.144 439.817,-394.961 438.883,-395.751 437.915,-396.514 436.915,-397.247 435.888,-397.947 434.835,-398.614 433.761,-399.245 432.667,-399.838 431.556,-400.392 430.431,-400.905 429.293,-401.377 428.145,-401.805 426.987,-402.188 425.823,-402.526 424.652,-402.817 423.476,-403.061 422.296,-403.257 421.114,-403.405 419.93,-403.503 418.744,-403.553 417.558,-403.553 416.372,-403.503 415.188,-403.405 414.005,-403.257 412.826,-403.061 411.65,-402.817 410.479,-402.526 409.314,-402.188 408.157,-401.805 407.009,-401.377 405.871,-400.905 404.746,-400.392 403.635,-399.838 402.541,-399.245 401.467,-398.614 400.414,-397.947 399.387,-397.247 398.387,-396.514 397.419,-395.751 396.485,-394.961 395.59,-394.144 394.736,-393.304 393.928,-392.443 393.17,-391.563 392.466,-390.667 391.819,-389.756 391.233,-388.834 390.712,-387.903 390.261,-386.965 389.882,-386.024 389.58,-385.081 389.357,-384.14 389.217,-383.202 389.162,-382.271 389.195,-381.349 389.318,-380.439 389.534,-379.542 389.842,-378.662 390.245,-377.801 390.743,-376.961 391.336,-376.144 392.024,-375.354 392.805,-374.591 393.679,-373.859 394.644,-373.158 395.696,-372.491 396.834,-371.861 398.053,-371.267 399.351,-370.713 400.722,-370.2 402.162,-369.728 403.666,-369.301 405.228,-368.917 406.843,-368.579 408.503,-368.288 410.202,-368.044 411.935,-367.848 413.692,-367.7 415.468,-367.602 417.256,-367.553 419.046,-367.553 420.833,-367.602"/>
<text text-anchor="middle" x="418.151" y="-383.053" font-family="Helvetica,sans-Serif" font-size="10.00" fill="#e8e8e8">суры</text>
</g>
<!-- S.N.U.F.F.&#45;&#45;суры -->
<g id="edge99" class="edge"><title>S.N.U.F.F.&#45;&#45;суры</title>
<path fill="none" stroke="#eeeeee" stroke-width="0.6" d="M323.255,-314.999C338.31,-325.133 357.234,-338.147 373.699,-350.305 382.414,-356.741 391.847,-364.154 399.772,-370.516"/>
</g>
<!-- Бэтман Аполло -->
<g id="node33" class="node"><title>Бэтман Аполло</title>
<polygon fill="#181818" stroke="#090909" stroke-width="0.8" points="355.283,-205.716 269.283,-205.716 269.283,-169.716 355.283,-169.716 355.283,-205.716"/>
<text text-anchor="middle" x="312.283" y="-185.216" font-family="Helvetica,sans-Serif" font-size="10.00" fill="#fefefe">Бэтман Аполло</text>
</g>
<!-- American Dream -->
<g id="node35" class="node"><title>American Dream</title>
<polygon fill="none" stroke="#e8e8e8" stroke-width="0.1" points="496.456,-190.885 499.908,-190.983 503.324,-191.131 506.69,-191.327 509.994,-191.571 513.22,-191.862 516.358,-192.2 519.394,-192.583 522.316,-193.011 525.115,-193.483 527.781,-193.996 530.302,-194.55 532.673,-195.143 534.884,-195.774 536.929,-196.441 538.803,-197.141 540.502,-197.874 542.02,-198.637 543.357,-199.427 544.509,-200.244 545.477,-201.083 546.26,-201.945 546.86,-202.825 547.279,-203.721 547.518,-204.632 547.583,-205.554 547.476,-206.485 547.204,-207.423 546.771,-208.364 546.183,-209.307 545.447,-210.248 544.57,-211.186 543.558,-212.117 542.42,-213.039 541.162,-213.949 539.793,-214.846 538.319,-215.726 536.749,-216.587 535.091,-217.427 533.35,-218.244 531.536,-219.034 529.654,-219.797 527.711,-220.529 525.714,-221.23 523.669,-221.897 521.58,-222.527 519.455,-223.121 517.296,-223.675 515.109,-224.188 512.898,-224.659 510.666,-225.087 508.416,-225.471 506.153,-225.809 503.877,-226.1 501.592,-226.344 499.299,-226.54 497.001,-226.687 494.699,-226.786 492.395,-226.835 490.09,-226.835 487.786,-226.786 485.484,-226.687 483.186,-226.54 480.893,-226.344 478.608,-226.1 476.333,-225.809 474.069,-225.471 471.819,-225.087 469.587,-224.659 467.376,-224.188 465.189,-223.675 463.031,-223.121 460.905,-222.527 458.816,-221.897 456.771,-221.23 454.774,-220.529 452.831,-219.797 450.949,-219.034 449.135,-218.244 447.395,-217.427 445.736,-216.587 444.166,-215.726 442.693,-214.846 441.323,-213.949 440.066,-213.039 438.927,-212.117 437.916,-211.186 437.038,-210.248 436.302,-209.307 435.715,-208.364 435.282,-207.423 435.009,-206.485 434.903,-205.554 434.967,-204.632 435.207,-203.721 435.625,-202.825 436.225,-201.945 437.008,-201.083 437.976,-200.244 439.128,-199.427 440.465,-198.637 441.984,-197.874 443.682,-197.141 445.556,-196.441 447.601,-195.774 449.813,-195.143 452.183,-194.55 454.705,-193.996 457.37,-193.483 460.169,-193.011 463.092,-192.583 466.128,-192.2 469.265,-191.862 472.492,-191.571 475.795,-191.327 479.161,-191.131 482.577,-190.983 486.029,-190.885 489.502,-190.835 492.983,-190.835 496.456,-190.885"/>
<text text-anchor="middle" x="491.243" y="-206.335" font-family="Helvetica,sans-Serif" font-size="10.00" fill="#e8e8e8">American Dream</text>
</g>
<!-- Бэтман Аполло&#45;&#45;American Dream -->
<g id="edge100" class="edge"><title>Бэтман Аполло&#45;&#45;American Dream</title>
<path fill="none" stroke="#555555" stroke-width="0.6" d="M355.604,-192.828C379.707,-195.673 409.962,-199.243 435.779,-202.29"/>
</g>
<!-- Бэтман Аполло&#45;&#45;Ацтланский календарь -->
<g id="edge101" class="edge"><title>Бэтман Аполло&#45;&#45;Ацтланский календарь</title>
<path fill="none" stroke="#eeeeee" stroke-width="0.6" d="M297.518,-205.938C284.825,-222.862 267.459,-249.353 260.247,-275.718 255.275,-293.895 253.668,-300.459 260.247,-318.118 263.345,-326.434 269.018,-334.175 274.9,-340.604"/>
</g>
<!-- Бэтман Аполло&#45;&#45;гигантская летучая мышь -->
<g id="edge102" class="edge"><title>Бэтман Аполло&#45;&#45;гигантская летучая мышь</title>
<path fill="none" stroke="#eeeeee" stroke-width="0.6" d="M333.393,-205.867C343.991,-214.98 356.785,-225.98 367.331,-235.048"/>
</g>
<!-- Бэтман Аполло&#45;&#45;клуб «Haute SOS» -->
<g id="edge103" class="edge"><title>Бэтман Аполло&#45;&#45;клуб «Haute SOS»</title>
<path fill="none" stroke="#eeeeee" stroke-width="0.6" d="M269.022,-203.683C259.023,-207.374 248.417,-211.288 238.532,-214.936"/>
</g>
<!-- Бэтман Аполло&#45;&#45;Михаил Ботвинник -->
<g id="edge104" class="edge"><title>Бэтман Аполло&#45;&#45;Михаил Ботвинник</title>
<path fill="none" stroke="#eeeeee" stroke-width="0.6" d="M293.087,-205.893C283.14,-214.917 270.583,-225.714 258.559,-234.387 232.551,-253.146 198.243,-263.023 169.131,-268.223"/>
</g>
<!-- Бэтман Аполло&#45;&#45;Михаил Непойман -->
<g id="edge105" class="edge"><title>Бэтман Аполло&#45;&#45;Михаил Непойман</title>
<path fill="none" stroke="#eeeeee" stroke-width="0.6" d="M306.51,-169.537C299.688,-148.054 288.406,-112.526 281.596,-91.0809"/>
</g>
<!-- Бэтман Аполло&#45;&#45;Рама -->
<g id="edge106" class="edge"><title>Бэтман Аполло&#45;&#45;Рама</title>
<path fill="none" stroke="#eeeeee" stroke-width="0.6" d="M269.039,-173.315C244.405,-165.112 214.445,-155.135 193.859,-148.28"/>
</g>
<!-- Бэтман Аполло&#45;&#45;халдеи -->
<g id="edge107" class="edge"><title>Бэтман Аполло&#45;&#45;халдеи</title>
<path fill="none" stroke="#eeeeee" stroke-width="0.6" d="M288.724,-169.536C261.932,-148.861 218.794,-115.573 194.722,-96.9968"/>
</g>
<!-- Любовь к трём цукербринам -->
<g id="node34" class="node"><title>Любовь к трём цукербринам</title>
<polygon fill="#181818" stroke="#090909" stroke-width="0.8" points="607.566,-387.974 457.566,-387.974 457.566,-351.974 607.566,-351.974 607.566,-387.974"/>
<text text-anchor="middle" x="532.566" y="-367.474" font-family="Helvetica,sans-Serif" font-size="10.00" fill="#fefefe">Любовь к трём цукербринам</text>
</g>
<!-- Любовь к трём цукербринам&#45;&#45;American Dream -->
<g id="edge108" class="edge"><title>Любовь к трём цукербринам&#45;&#45;American Dream</title>
<path fill="none" stroke="#555555" stroke-width="0.6" d="M530.679,-351.828C529.294,-339.929 527.169,-324.066 524.374,-310.206 518.335,-280.259 506.317,-246.804 498.536,-226.804"/>
</g>
<!-- Любовь к трём цукербринам&#45;&#45;Serge Gainsbourg -->
<g id="edge109" class="edge"><title>Любовь к трём цукербринам&#45;&#45;Serge Gainsbourg</title>
<path fill="none" stroke="#eeeeee" stroke-width="0.6" d="M509.36,-351.854C500.802,-345.171 491.159,-337.642 482.797,-331.112"/>
</g>
<!-- Любовь к трём цукербринам&#45;&#45;Еврайх -->
<g id="edge110" class="edge"><title>Любовь к трём цукербринам&#45;&#45;Еврайх</title>
<path fill="none" stroke="#eeeeee" stroke-width="0.6" d="M487.084,-388.024C462.04,-397.964 431.761,-409.98 410.212,-418.532"/>
</g>
<!-- Любовь к трём цукербринам&#45;&#45;суры -->
<g id="edge111" class="edge"><title>Любовь к трём цукербринам&#45;&#45;суры</title>
<path fill="none" stroke="#eeeeee" stroke-width="0.6" d="M457.526,-380.191C453.988,-380.673 450.551,-381.141 447.277,-381.587"/>
</g>
</g>
</svg>
