<?xml version="1.0" encoding="UTF-8" standalone="no"?>
<!DOCTYPE svg PUBLIC "-//W3C//DTD SVG 1.1//EN"
 "http://www.w3.org/Graphics/SVG/1.1/DTD/svg11.dtd">
<!-- Generated by graphviz version 2.36.0 (20140111.2315)
 -->
<!-- Title: %3 Pages: 1 -->
<svg width="1768pt" height="1452pt"
 viewBox="0.00 0.00 1767.97 1452.08" xmlns="http://www.w3.org/2000/svg" xmlns:xlink="http://www.w3.org/1999/xlink">
<g id="graph0" class="graph" transform="scale(1 1) rotate(0) translate(4 1448.08)">
<title>%3</title>
<polygon fill="#1f1f1f" stroke="none" points="-4,4 -4,-1448.08 1763.97,-1448.08 1763.97,4 -4,4"/>
<!-- Оружие возмездия -->
<g id="node1" class="node"><title>Оружие возмездия</title>
<polygon fill="#181818" stroke="#090909" stroke-width="0.8" points="107,-752.226 -7.10543e-15,-752.226 -7.10543e-15,-716.226 107,-716.226 107,-752.226"/>
<text text-anchor="middle" x="53.5" y="-731.726" font-family="Helvetica,sans-Serif" font-size="10.00" fill="#fefefe">Оружие возмездия</text>
</g>
<!-- П. Стецюк -->
<g id="node63" class="node"><title>П. Стецюк</title>
<ellipse fill="#2f2f2f" stroke="#ececec" stroke-width="0.6" cx="58.972" cy="-1039.33" rx="39.3809" ry="18"/>
<text text-anchor="middle" x="58.972" y="-1036.83" font-family="Helvetica,sans-Serif" font-size="10.00" fill="#ececec">П. Стецюк</text>
</g>
<!-- Оружие возмездия&#45;&#45;П. Стецюк -->
<g id="edge1" class="edge"><title>Оружие возмездия&#45;&#45;П. Стецюк</title>
<path fill="none" stroke="#eeeeee" stroke-width="0.6" d="M53.8259,-752.398C54.7991,-806.664 57.6767,-967.114 58.6478,-1021.26"/>
</g>
<!-- Реконструктор -->
<g id="node2" class="node"><title>Реконструктор</title>
<polygon fill="#181818" stroke="#090909" stroke-width="0.8" points="334.859,-896.436 246.859,-896.436 246.859,-860.436 334.859,-860.436 334.859,-896.436"/>
<text text-anchor="middle" x="290.859" y="-875.936" font-family="Helvetica,sans-Serif" font-size="10.00" fill="#fefefe">Реконструктор</text>
</g>
<!-- Реконструктор&#45;&#45;П. Стецюк -->
<g id="edge2" class="edge"><title>Реконструктор&#45;&#45;П. Стецюк</title>
<path fill="none" stroke="#eeeeee" stroke-width="0.6" d="M264.71,-896.58C218.634,-928.55 123.811,-994.343 80.9106,-1024.11"/>
</g>
<!-- Сероб Налбандян -->
<g id="node73" class="node"><title>Сероб Налбандян</title>
<ellipse fill="#2f2f2f" stroke="#ececec" stroke-width="0.6" cx="482.899" cy="-981.551" rx="58.0561" ry="18"/>
<text text-anchor="middle" x="482.899" y="-979.051" font-family="Helvetica,sans-Serif" font-size="10.00" fill="#ececec">Сероб Налбандян</text>
</g>
<!-- Реконструктор&#45;&#45;Сероб Налбандян -->
<g id="edge3" class="edge"><title>Реконструктор&#45;&#45;Сероб Налбандян</title>
<path fill="none" stroke="#eeeeee" stroke-width="0.6" d="M324.75,-896.634C361.36,-916.291 419.088,-947.288 453.742,-965.896"/>
</g>
<!-- День бульдозериста -->
<g id="node3" class="node"><title>День бульдозериста</title>
<polygon fill="#181818" stroke="#090909" stroke-width="0.8" points="939.788,-41.3921 825.788,-41.3921 825.788,-5.39209 939.788,-5.39209 939.788,-41.3921"/>
<text text-anchor="middle" x="882.788" y="-20.8921" font-family="Helvetica,sans-Serif" font-size="10.00" fill="#fefefe">День бульдозериста</text>
</g>
<!-- Померанцев (Константин Победоносцев) -->
<g id="node66" class="node"><title>Померанцев (Константин Победоносцев)</title>
<ellipse fill="#2f2f2f" stroke="#ececec" stroke-width="0.6" cx="644.358" cy="-39.9824" rx="121.707" ry="18"/>
<text text-anchor="middle" x="644.358" y="-37.4824" font-family="Helvetica,sans-Serif" font-size="10.00" fill="#ececec">Померанцев (Константин Победоносцев)</text>
</g>
<!-- День бульдозериста&#45;&#45;Померанцев (Константин Победоносцев) -->
<g id="edge4" class="edge"><title>День бульдозериста&#45;&#45;Померанцев (Константин Победоносцев)</title>
<path fill="none" stroke="#eeeeee" stroke-width="0.6" d="M825.678,-27.3659C804.324,-28.8517 779.282,-30.5942 754.741,-32.3018"/>
</g>
<!-- товарищ Бабаясин -->
<g id="node76" class="node"><title>товарищ Бабаясин</title>
<ellipse fill="#2f2f2f" stroke="#ececec" stroke-width="0.6" cx="1130.31" cy="-18" rx="61.4427" ry="18"/>
<text text-anchor="middle" x="1130.31" y="-15.5" font-family="Helvetica,sans-Serif" font-size="10.00" fill="#ececec">товарищ Бабаясин</text>
</g>
<!-- День бульдозериста&#45;&#45;товарищ Бабаясин -->
<g id="edge5" class="edge"><title>День бульдозериста&#45;&#45;товарищ Бабаясин</title>
<path fill="none" stroke="#eeeeee" stroke-width="0.6" d="M939.885,-22.1483C978.575,-21.3054 1029.66,-20.1926 1069.17,-19.3318"/>
</g>
<!-- Миттельшпиль -->
<g id="node4" class="node"><title>Миттельшпиль</title>
<polygon fill="#181818" stroke="#090909" stroke-width="0.8" points="101.421,-447.347 15.4208,-447.347 15.4208,-411.347 101.421,-411.347 101.421,-447.347"/>
<text text-anchor="middle" x="58.4208" y="-426.847" font-family="Helvetica,sans-Serif" font-size="10.00" fill="#fefefe">Миттельшпиль</text>
</g>
<!-- Нелли -->
<g id="node61" class="node"><title>Нелли</title>
<ellipse fill="#2f2f2f" stroke="#ececec" stroke-width="0.6" cx="478.366" cy="-513.379" rx="27.1572" ry="18"/>
<text text-anchor="middle" x="478.366" y="-510.879" font-family="Helvetica,sans-Serif" font-size="10.00" fill="#ececec">Нелли</text>
</g>
<!-- Миттельшпиль&#45;&#45;Нелли -->
<g id="edge6" class="edge"><title>Миттельшпиль&#45;&#45;Нелли</title>
<path fill="none" stroke="#eeeeee" stroke-width="0.6" d="M101.781,-438.024C188.749,-455.426 382.145,-494.125 452.302,-508.164"/>
</g>
<!-- Музыка со столба -->
<g id="node5" class="node"><title>Музыка со столба</title>
<polygon fill="#181818" stroke="#090909" stroke-width="0.8" points="139.5,-1391.49 38.4995,-1391.49 38.4995,-1355.49 139.5,-1355.49 139.5,-1391.49"/>
<text text-anchor="middle" x="88.9995" y="-1370.99" font-family="Helvetica,sans-Serif" font-size="10.00" fill="#fefefe">Музыка со столба</text>
</g>
<!-- Матвей (Гиммлер) -->
<g id="node55" class="node"><title>Матвей (Гиммлер)</title>
<ellipse fill="#2f2f2f" stroke="#ececec" stroke-width="0.6" cx="416.181" cy="-1410.18" rx="59.4099" ry="18"/>
<text text-anchor="middle" x="416.181" y="-1407.68" font-family="Helvetica,sans-Serif" font-size="10.00" fill="#ececec">Матвей (Гиммлер)</text>
</g>
<!-- Музыка со столба&#45;&#45;Матвей (Гиммлер) -->
<g id="edge7" class="edge"><title>Музыка со столба&#45;&#45;Матвей (Гиммлер)</title>
<path fill="none" stroke="#eeeeee" stroke-width="0.6" d="M139.763,-1379.19C199.533,-1385.89 298.483,-1396.98 360.364,-1403.92"/>
</g>
<!-- Откровение Крегера -->
<g id="node6" class="node"><title>Откровение Крегера</title>
<polygon fill="#181818" stroke="#090909" stroke-width="0.8" points="388.706,-1162.06 273.706,-1162.06 273.706,-1126.06 388.706,-1126.06 388.706,-1162.06"/>
<text text-anchor="middle" x="331.206" y="-1141.56" font-family="Helvetica,sans-Serif" font-size="10.00" fill="#fefefe">Откровение Крегера</text>
</g>
<!-- Откровение Крегера&#45;&#45;Матвей (Гиммлер) -->
<g id="edge8" class="edge"><title>Откровение Крегера&#45;&#45;Матвей (Гиммлер)</title>
<path fill="none" stroke="#eeeeee" stroke-width="0.6" d="M337.046,-1162.35C352.608,-1211.08 394.933,-1343.63 410.412,-1392.11"/>
</g>
<!-- Откровение Крегера&#45;&#45;Сероб Налбандян -->
<g id="edge9" class="edge"><title>Откровение Крегера&#45;&#45;Сероб Налбандян</title>
<path fill="none" stroke="#eeeeee" stroke-width="0.6" d="M348.019,-1126.05C377.332,-1094.64 437.431,-1030.26 466.471,-999.15"/>
</g>
<!-- Принц Госплана -->
<g id="node7" class="node"><title>Принц Госплана</title>
<polygon fill="#181818" stroke="#090909" stroke-width="0.8" points="128.3,-106.334 35.2998,-106.334 35.2998,-70.3335 128.3,-70.3335 128.3,-106.334"/>
<text text-anchor="middle" x="81.7998" y="-85.8335" font-family="Helvetica,sans-Serif" font-size="10.00" fill="#fefefe">Принц Госплана</text>
</g>
<!-- Саша Лапин -->
<g id="node71" class="node"><title>Саша Лапин</title>
<ellipse fill="#2f2f2f" stroke="#ececec" stroke-width="0.6" cx="539.503" cy="-285.35" rx="42.9448" ry="18"/>
<text text-anchor="middle" x="539.503" y="-282.85" font-family="Helvetica,sans-Serif" font-size="10.00" fill="#ececec">Саша Лапин</text>
</g>
<!-- Принц Госплана&#45;&#45;Саша Лапин -->
<g id="edge10" class="edge"><title>Принц Госплана&#45;&#45;Саша Лапин</title>
<path fill="none" stroke="#eeeeee" stroke-width="0.6" d="M123.631,-106.34C214.884,-145.619 429.993,-238.211 509.382,-272.384"/>
</g>
<!-- Проблема верволка в средней полосе -->
<g id="node8" class="node"><title>Проблема верволка в средней полосе</title>
<polygon fill="#181818" stroke="#090909" stroke-width="0.8" points="486.248,-70.1453 293.248,-70.1453 293.248,-34.1453 486.248,-34.1453 486.248,-70.1453"/>
<text text-anchor="middle" x="389.748" y="-49.6453" font-family="Helvetica,sans-Serif" font-size="10.00" fill="#fefefe">Проблема верволка в средней полосе</text>
</g>
<!-- Проблема верволка в средней полосе&#45;&#45;Саша Лапин -->
<g id="edge11" class="edge"><title>Проблема верволка в средней полосе&#45;&#45;Саша Лапин</title>
<path fill="none" stroke="#eeeeee" stroke-width="0.6" d="M401.499,-70.4445C429.632,-114.253 500.562,-224.709 528.217,-267.774"/>
</g>
<!-- Омон Ра -->
<g id="node9" class="node"><title>Омон Ра</title>
<polygon fill="#181818" stroke="#090909" stroke-width="0.8" points="482.406,-765.955 426.406,-765.955 426.406,-729.955 482.406,-729.955 482.406,-765.955"/>
<text text-anchor="middle" x="454.406" y="-745.455" font-family="Helvetica,sans-Serif" font-size="10.00" fill="#fefefe">Омон Ра</text>
</g>
<!-- Бункер под Лубянкой -->
<g id="node40" class="node"><title>Бункер под Лубянкой</title>
<polygon fill="none" stroke="#e8e8e8" stroke-width="0.6" points="616.68,-819.278 621.164,-819.377 625.602,-819.524 629.975,-819.72 634.266,-819.964 638.458,-820.256 642.534,-820.594 646.478,-820.977 650.275,-821.405 653.911,-821.876 657.374,-822.39 660.65,-822.944 663.729,-823.537 666.602,-824.168 669.259,-824.835 671.694,-825.535 673.9,-826.268 675.873,-827.03 677.609,-827.821 679.106,-828.637 680.363,-829.477 681.381,-830.338 682.16,-831.219 682.704,-832.115 683.015,-833.026 683.099,-833.948 682.961,-834.879 682.607,-835.816 682.044,-836.758 681.28,-837.7 680.324,-838.642 679.185,-839.579 677.871,-840.511 676.392,-841.433 674.758,-842.343 672.979,-843.24 671.065,-844.12 669.025,-844.981 666.87,-845.821 664.609,-846.637 662.252,-847.428 659.807,-848.191 657.284,-848.923 654.689,-849.624 652.032,-850.29 649.319,-850.921 646.557,-851.514 643.753,-852.069 640.912,-852.582 638.039,-853.053 635.14,-853.481 632.217,-853.865 629.277,-854.203 626.32,-854.494 623.352,-854.738 620.373,-854.934 617.388,-855.081 614.397,-855.18 611.404,-855.229 608.409,-855.229 605.416,-855.18 602.426,-855.081 599.44,-854.934 596.462,-854.738 593.493,-854.494 590.537,-854.203 587.596,-853.865 584.674,-853.481 581.774,-853.053 578.901,-852.582 576.06,-852.069 573.256,-851.514 570.494,-850.921 567.781,-850.29 565.124,-849.624 562.53,-848.923 560.006,-848.191 557.561,-847.428 555.204,-846.637 552.943,-845.821 550.788,-844.981 548.749,-844.12 546.835,-843.24 545.056,-842.343 543.422,-841.433 541.943,-840.511 540.629,-839.579 539.489,-838.642 538.533,-837.7 537.769,-836.758 537.207,-835.816 536.853,-834.879 536.714,-833.948 536.798,-833.026 537.11,-832.115 537.653,-831.219 538.432,-830.338 539.45,-829.477 540.707,-828.637 542.204,-827.821 543.941,-827.03 545.913,-826.268 548.12,-825.535 550.554,-824.835 553.212,-824.168 556.084,-823.537 559.163,-822.944 562.44,-822.39 565.902,-821.876 569.538,-821.405 573.335,-820.977 577.279,-820.594 581.355,-820.256 585.547,-819.964 589.838,-819.72 594.212,-819.524 598.649,-819.377 603.134,-819.278 607.646,-819.229 612.167,-819.229 616.68,-819.278"/>
<text text-anchor="middle" x="609.907" y="-834.729" font-family="Helvetica,sans-Serif" font-size="10.00" fill="#e8e8e8">Бункер под Лубянкой</text>
</g>
<!-- Омон Ра&#45;&#45;Бункер под Лубянкой -->
<g id="edge12" class="edge"><title>Омон Ра&#45;&#45;Бункер под Лубянкой</title>
<path fill="none" stroke="#eeeeee" stroke-width="0.6" d="M482.566,-764.122C510.223,-780 552.247,-804.127 580.37,-820.272"/>
</g>
<!-- Омон Ра&#45;&#45;Сероб Налбандян -->
<g id="edge13" class="edge"><title>Омон Ра&#45;&#45;Сероб Налбандян</title>
<path fill="none" stroke="#eeeeee" stroke-width="0.6" d="M456.642,-766.285C461.968,-809.952 475.357,-919.725 480.673,-963.307"/>
</g>
<!-- Чапаев и Пустота -->
<g id="node10" class="node"><title>Чапаев и Пустота</title>
<polygon fill="#181818" stroke="#090909" stroke-width="0.8" points="1165.6,-369.77 1064.6,-369.77 1064.6,-333.77 1165.6,-333.77 1165.6,-369.77"/>
<text text-anchor="middle" x="1115.1" y="-349.27" font-family="Helvetica,sans-Serif" font-size="10.00" fill="#fefefe">Чапаев и Пустота</text>
</g>
<!-- Анна -->
<g id="node36" class="node"><title>Анна</title>
<ellipse fill="none" stroke="#ececec" stroke-width="0.1" cx="1062.4" cy="-206.591" rx="27" ry="18"/>
<text text-anchor="middle" x="1062.4" y="-204.091" font-family="Helvetica,sans-Serif" font-size="10.00" fill="#ececec">Анна</text>
</g>
<!-- Чапаев и Пустота&#45;&#45;Анна -->
<g id="edge14" class="edge"><title>Чапаев и Пустота&#45;&#45;Анна</title>
<path fill="none" stroke="#555555" stroke-width="0.6" d="M1108.53,-333.677C1098.37,-305.705 1078.98,-252.29 1068.88,-224.457"/>
</g>
<!-- Вовчик Малой -->
<g id="node42" class="node"><title>Вовчик Малой</title>
<ellipse fill="#2f2f2f" stroke="#ececec" stroke-width="0.6" cx="990.097" cy="-482.533" rx="48.7185" ry="18"/>
<text text-anchor="middle" x="990.097" y="-480.033" font-family="Helvetica,sans-Serif" font-size="10.00" fill="#ececec">Вовчик Малой</text>
</g>
<!-- Чапаев и Пустота&#45;&#45;Вовчик Малой -->
<g id="edge15" class="edge"><title>Чапаев и Пустота&#45;&#45;Вовчик Малой</title>
<path fill="none" stroke="#eeeeee" stroke-width="0.6" d="M1097.71,-369.952C1073.57,-395.216 1030.17,-440.611 1006.53,-465.337"/>
</g>
<!-- граф Т. -->
<g id="node45" class="node"><title>граф Т.</title>
<ellipse fill="#2f2f2f" stroke="#ececec" stroke-width="0.6" cx="1252.01" cy="-235.735" rx="31.3996" ry="18"/>
<text text-anchor="middle" x="1252.01" y="-233.235" font-family="Helvetica,sans-Serif" font-size="10.00" fill="#ececec">граф Т.</text>
</g>
<!-- Чапаев и Пустота&#45;&#45;граф Т. -->
<g id="edge16" class="edge"><title>Чапаев и Пустота&#45;&#45;граф Т.</title>
<path fill="none" stroke="#eeeeee" stroke-width="0.6" d="M1136.49,-333.64C1163.41,-310.821 1209.17,-272.047 1234.25,-250.786"/>
</g>
<!-- лама Джамбон Тулку -->
<g id="node50" class="node"><title>лама Джамбон Тулку</title>
<ellipse fill="#2f2f2f" stroke="#ececec" stroke-width="0.6" cx="1142.43" cy="-468.413" rx="67.893" ry="18"/>
<text text-anchor="middle" x="1142.43" y="-465.913" font-family="Helvetica,sans-Serif" font-size="10.00" fill="#ececec">лама Джамбон Тулку</text>
</g>
<!-- Чапаев и Пустота&#45;&#45;лама Джамбон Тулку -->
<g id="edge17" class="edge"><title>Чапаев и Пустота&#45;&#45;лама Джамбон Тулку</title>
<path fill="none" stroke="#eeeeee" stroke-width="0.6" d="M1119.37,-369.996C1124.5,-391.909 1133.07,-428.459 1138.19,-450.315"/>
</g>
<!-- Петр Пустота -->
<g id="node65" class="node"><title>Петр Пустота</title>
<ellipse fill="#2f2f2f" stroke="#ececec" stroke-width="0.6" cx="1372.39" cy="-41.3997" rx="48.7185" ry="18"/>
<text text-anchor="middle" x="1372.39" y="-38.8997" font-family="Helvetica,sans-Serif" font-size="10.00" fill="#ececec">Петр Пустота</text>
</g>
<!-- Чапаев и Пустота&#45;&#45;Петр Пустота -->
<g id="edge18" class="edge"><title>Чапаев и Пустота&#45;&#45;Петр Пустота</title>
<path fill="none" stroke="#eeeeee" stroke-width="0.6" d="M1130.04,-333.742C1175.73,-278.628 1313.16,-112.845 1358.04,-58.708"/>
</g>
<!-- Чапаев и Пустота&#45;&#45;товарищ Бабаясин -->
<g id="edge19" class="edge"><title>Чапаев и Пустота&#45;&#45;товарищ Бабаясин</title>
<path fill="none" stroke="#eeeeee" stroke-width="0.6" d="M1115.93,-333.35C1118.59,-274.995 1126.81,-94.639 1129.47,-36.3634"/>
</g>
<!-- Чапаев -->
<g id="node79" class="node"><title>Чапаев</title>
<ellipse fill="#2f2f2f" stroke="#ececec" stroke-width="0.6" cx="898.559" cy="-227.063" rx="29.3664" ry="18"/>
<text text-anchor="middle" x="898.559" y="-224.563" font-family="Helvetica,sans-Serif" font-size="10.00" fill="#ececec">Чапаев</text>
</g>
<!-- Чапаев и Пустота&#45;&#45;Чапаев -->
<g id="edge20" class="edge"><title>Чапаев и Пустота&#45;&#45;Чапаев</title>
<path fill="none" stroke="#eeeeee" stroke-width="0.6" d="M1083.61,-333.637C1039.04,-307.966 958.693,-261.695 920.228,-239.543"/>
</g>
<!-- Имена олигархов на карте Родины -->
<g id="node11" class="node"><title>Имена олигархов на карте Родины</title>
<polygon fill="#181818" stroke="#090909" stroke-width="0.8" points="832.1,-745.026 653.1,-745.026 653.1,-709.026 832.1,-709.026 832.1,-745.026"/>
<text text-anchor="middle" x="742.6" y="-724.526" font-family="Helvetica,sans-Serif" font-size="10.00" fill="#fefefe">Имена олигархов на карте Родины</text>
</g>
<!-- Вавилен Татарский -->
<g id="node41" class="node"><title>Вавилен Татарский</title>
<ellipse fill="#2f2f2f" stroke="#ececec" stroke-width="0.6" cx="885.654" cy="-688.917" rx="64.3289" ry="18"/>
<text text-anchor="middle" x="885.654" y="-686.417" font-family="Helvetica,sans-Serif" font-size="10.00" fill="#ececec">Вавилен Татарский</text>
</g>
<!-- Имена олигархов на карте Родины&#45;&#45;Вавилен Татарский -->
<g id="edge21" class="edge"><title>Имена олигархов на карте Родины&#45;&#45;Вавилен Татарский</title>
<path fill="none" stroke="#eeeeee" stroke-width="0.6" d="M810.357,-708.976C820.034,-706.398 829.803,-703.795 838.954,-701.358"/>
</g>
<!-- Generation «П» -->
<g id="node12" class="node"><title>Generation «П»</title>
<polygon fill="#181818" stroke="#090909" stroke-width="0.8" points="1030.76,-631.808 945.756,-631.808 945.756,-595.808 1030.76,-595.808 1030.76,-631.808"/>
<text text-anchor="middle" x="988.256" y="-611.308" font-family="Helvetica,sans-Serif" font-size="10.00" fill="#fefefe">Generation «П»</text>
</g>
<!-- Generation «П»&#45;&#45;Вавилен Татарский -->
<g id="edge22" class="edge"><title>Generation «П»&#45;&#45;Вавилен Татарский</title>
<path fill="none" stroke="#eeeeee" stroke-width="0.6" d="M963.419,-631.99C946.813,-644.146 925.112,-660.032 908.856,-671.932"/>
</g>
<!-- Generation «П»&#45;&#45;Вовчик Малой -->
<g id="edge23" class="edge"><title>Generation «П»&#45;&#45;Вовчик Малой</title>
<path fill="none" stroke="#eeeeee" stroke-width="0.6" d="M988.512,-595.555C988.864,-570.475 989.493,-525.63 989.843,-500.631"/>
</g>
<!-- Generation «П»&#45;&#45;лама Джамбон Тулку -->
<g id="edge24" class="edge"><title>Generation «П»&#45;&#45;лама Джамбон Тулку</title>
<path fill="none" stroke="#eeeeee" stroke-width="0.6" d="M1007.47,-595.688C1037.34,-567.522 1094.52,-513.597 1123.94,-485.853"/>
</g>
<!-- Малюта -->
<g id="node54" class="node"><title>Малюта</title>
<ellipse fill="#2f2f2f" stroke="#ececec" stroke-width="0.6" cx="970.772" cy="-822.17" rx="31.3996" ry="18"/>
<text text-anchor="middle" x="970.772" y="-819.67" font-family="Helvetica,sans-Serif" font-size="10.00" fill="#ececec">Малюта</text>
</g>
<!-- Generation «П»&#45;&#45;Малюта -->
<g id="edge25" class="edge"><title>Generation «П»&#45;&#45;Малюта</title>
<path fill="none" stroke="#eeeeee" stroke-width="0.6" d="M986.735,-631.935C983.428,-671.341 975.617,-764.435 972.302,-803.938"/>
</g>
<!-- Михаил Непойман -->
<g id="node57" class="node"><title>Михаил Непойман</title>
<ellipse fill="#2f2f2f" stroke="#ececec" stroke-width="0.6" cx="1219.21" cy="-573.835" rx="59.4099" ry="18"/>
<text text-anchor="middle" x="1219.21" y="-571.335" font-family="Helvetica,sans-Serif" font-size="10.00" fill="#ececec">Михаил Непойман</text>
</g>
<!-- Generation «П»&#45;&#45;Михаил Непойман -->
<g id="edge26" class="edge"><title>Generation «П»&#45;&#45;Михаил Непойман</title>
<path fill="none" stroke="#eeeeee" stroke-width="0.6" d="M1030.89,-606.43C1069.47,-599.753 1126.38,-589.902 1167.54,-582.779"/>
</g>
<!-- пёс Пиздец -->
<g id="node64" class="node"><title>пёс Пиздец</title>
<polygon fill="none" stroke="#e8e8e8" stroke-width="0.6" points="882.156,-542.736 884.884,-542.834 887.583,-542.982 890.243,-543.178 892.853,-543.422 895.403,-543.713 897.882,-544.051 900.281,-544.434 902.59,-544.862 904.802,-545.333 906.908,-545.847 908.9,-546.401 910.773,-546.994 912.521,-547.625 914.137,-548.292 915.618,-548.992 916.96,-549.725 918.16,-550.487 919.216,-551.278 920.126,-552.094 920.891,-552.934 921.51,-553.796 921.984,-554.676 922.314,-555.572 922.504,-556.483 922.555,-557.405 922.471,-558.336 922.255,-559.273 921.913,-560.215 921.449,-561.158 920.867,-562.099 920.174,-563.036 919.375,-563.968 918.475,-564.89 917.481,-565.8 916.399,-566.697 915.235,-567.577 913.995,-568.438 912.684,-569.278 911.309,-570.094 909.875,-570.885 908.388,-571.648 906.853,-572.38 905.275,-573.081 903.659,-573.747 902.009,-574.378 900.329,-574.971 898.623,-575.526 896.895,-576.039 895.148,-576.51 893.384,-576.938 891.607,-577.322 889.818,-577.66 888.02,-577.951 886.214,-578.195 884.403,-578.391 882.587,-578.538 880.768,-578.637 878.947,-578.686 877.126,-578.686 875.305,-578.637 873.486,-578.538 871.67,-578.391 869.859,-578.195 868.053,-577.951 866.255,-577.66 864.466,-577.322 862.689,-576.938 860.925,-576.51 859.178,-576.039 857.45,-575.526 855.744,-574.971 854.065,-574.378 852.414,-573.747 850.798,-573.081 849.22,-572.38 847.685,-571.648 846.198,-570.885 844.764,-570.094 843.389,-569.278 842.079,-568.438 840.838,-567.577 839.674,-566.697 838.592,-565.8 837.598,-564.89 836.698,-563.968 835.899,-563.036 835.206,-562.099 834.625,-561.158 834.16,-560.215 833.818,-559.273 833.602,-558.336 833.518,-557.405 833.569,-556.483 833.759,-555.572 834.089,-554.676 834.563,-553.796 835.182,-552.934 835.947,-552.094 836.858,-551.278 837.914,-550.487 839.114,-549.725 840.455,-548.992 841.936,-548.292 843.553,-547.625 845.3,-546.994 847.173,-546.401 849.165,-545.847 851.271,-545.333 853.483,-544.862 855.793,-544.434 858.191,-544.051 860.671,-543.713 863.22,-543.422 865.83,-543.178 868.49,-542.982 871.19,-542.834 873.917,-542.736 876.661,-542.686 879.412,-542.686 882.156,-542.736"/>
<text text-anchor="middle" x="878.037" y="-558.186" font-family="Helvetica,sans-Serif" font-size="10.00" fill="#e8e8e8">пёс Пиздец</text>
</g>
<!-- Generation «П»&#45;&#45;пёс Пиздец -->
<g id="edge27" class="edge"><title>Generation «П»&#45;&#45;пёс Пиздец</title>
<path fill="none" stroke="#eeeeee" stroke-width="0.6" d="M950.633,-595.675C935.541,-588.402 918.498,-580.187 904.719,-573.546"/>
</g>
<!-- Семён Левитан -->
<g id="node72" class="node"><title>Семён Левитан</title>
<ellipse fill="#2f2f2f" stroke="#ececec" stroke-width="0.6" cx="1226.22" cy="-750.522" rx="51.6054" ry="18"/>
<text text-anchor="middle" x="1226.22" y="-748.022" font-family="Helvetica,sans-Serif" font-size="10.00" fill="#ececec">Семён Левитан</text>
</g>
<!-- Generation «П»&#45;&#45;Семён Левитан -->
<g id="edge28" class="edge"><title>Generation «П»&#45;&#45;Семён Левитан</title>
<path fill="none" stroke="#eeeeee" stroke-width="0.6" d="M1013.82,-631.892C1039.46,-649.551 1080.44,-676.516 1118.2,-695.847 1144.58,-709.352 1174.67,-724.567 1196.38,-735.511"/>
</g>
<!-- халдеи -->
<g id="node78" class="node"><title>халдеи</title>
<polygon fill="none" stroke="#e8e8e8" stroke-width="0.6" points="1137.82,-660.768 1139.73,-660.866 1141.62,-661.014 1143.48,-661.21 1145.31,-661.454 1147.1,-661.745 1148.83,-662.083 1150.52,-662.466 1152.13,-662.894 1153.68,-663.366 1155.16,-663.879 1156.55,-664.433 1157.87,-665.026 1159.09,-665.657 1160.22,-666.324 1161.26,-667.024 1162.2,-667.757 1163.04,-668.52 1163.78,-669.31 1164.42,-670.127 1164.95,-670.967 1165.39,-671.828 1165.72,-672.708 1165.95,-673.604 1166.08,-674.515 1166.12,-675.437 1166.06,-676.368 1165.91,-677.306 1165.67,-678.247 1165.35,-679.19 1164.94,-680.131 1164.45,-681.069 1163.89,-682 1163.26,-682.922 1162.57,-683.832 1161.81,-684.729 1160.99,-685.609 1160.12,-686.47 1159.2,-687.31 1158.24,-688.127 1157.24,-688.917 1156.2,-689.68 1155.12,-690.413 1154.01,-691.113 1152.88,-691.78 1151.73,-692.41 1150.55,-693.004 1149.35,-693.558 1148.14,-694.071 1146.92,-694.543 1145.68,-694.971 1144.44,-695.354 1143.19,-695.692 1141.93,-695.983 1140.66,-696.227 1139.39,-696.423 1138.12,-696.571 1136.84,-696.669 1135.57,-696.718 1134.29,-696.718 1133.02,-696.669 1131.74,-696.571 1130.47,-696.423 1129.2,-696.227 1127.94,-695.983 1126.68,-695.692 1125.42,-695.354 1124.18,-694.971 1122.94,-694.543 1121.72,-694.071 1120.51,-693.558 1119.31,-693.004 1118.14,-692.41 1116.98,-691.78 1115.85,-691.113 1114.74,-690.413 1113.67,-689.68 1112.62,-688.917 1111.62,-688.127 1110.66,-687.31 1109.74,-686.47 1108.87,-685.609 1108.05,-684.729 1107.3,-683.832 1106.6,-682.922 1105.97,-682 1105.41,-681.069 1104.92,-680.131 1104.52,-679.19 1104.19,-678.247 1103.95,-677.306 1103.8,-676.368 1103.74,-675.437 1103.78,-674.515 1103.91,-673.604 1104.14,-672.708 1104.47,-671.828 1104.91,-670.967 1105.44,-670.127 1106.08,-669.31 1106.82,-668.52 1107.66,-667.757 1108.6,-667.024 1109.64,-666.324 1110.77,-665.657 1112,-665.026 1113.31,-664.433 1114.7,-663.879 1116.18,-663.366 1117.73,-662.894 1119.35,-662.466 1121.03,-662.083 1122.76,-661.745 1124.55,-661.454 1126.38,-661.21 1128.24,-661.014 1130.13,-660.866 1132.04,-660.768 1133.97,-660.718 1135.89,-660.718 1137.82,-660.768"/>
<text text-anchor="middle" x="1134.93" y="-676.218" font-family="Helvetica,sans-Serif" font-size="10.00" fill="#e8e8e8">халдеи</text>
</g>
<!-- Generation «П»&#45;&#45;халдеи -->
<g id="edge29" class="edge"><title>Generation «П»&#45;&#45;халдеи</title>
<path fill="none" stroke="#eeeeee" stroke-width="0.6" d="M1029.11,-631.889C1054.37,-643.068 1086.08,-657.098 1108.16,-666.873"/>
</g>
<!-- Акико -->
<g id="node13" class="node"><title>Акико</title>
<polygon fill="#181818" stroke="#090909" stroke-width="0.8" points="1149.86,-1114.78 1095.86,-1114.78 1095.86,-1078.78 1149.86,-1078.78 1149.86,-1114.78"/>
<text text-anchor="middle" x="1122.86" y="-1094.28" font-family="Helvetica,sans-Serif" font-size="10.00" fill="#fefefe">Акико</text>
</g>
<!-- Кая -->
<g id="node48" class="node"><title>Кая</title>
<ellipse fill="none" stroke="#ececec" stroke-width="0.1" cx="1318.93" cy="-1051.11" rx="27" ry="18"/>
<text text-anchor="middle" x="1318.93" y="-1048.61" font-family="Helvetica,sans-Serif" font-size="10.00" fill="#ececec">Кая</text>
</g>
<!-- Акико&#45;&#45;Кая -->
<g id="edge30" class="edge"><title>Акико&#45;&#45;Кая</title>
<path fill="none" stroke="#555555" stroke-width="0.6" d="M1150.12,-1090.43C1188,-1081.6 1256.07,-1065.75 1293.15,-1057.11"/>
</g>
<!-- Лебёдкин -->
<g id="node51" class="node"><title>Лебёдкин</title>
<ellipse fill="#2f2f2f" stroke="#ececec" stroke-width="0.6" cx="899.381" cy="-929.292" rx="36.4942" ry="18"/>
<text text-anchor="middle" x="899.381" y="-926.792" font-family="Helvetica,sans-Serif" font-size="10.00" fill="#ececec">Лебёдкин</text>
</g>
<!-- Акико&#45;&#45;Лебёдкин -->
<g id="edge31" class="edge"><title>Акико&#45;&#45;Лебёдкин</title>
<path fill="none" stroke="#eeeeee" stroke-width="0.6" d="M1098.51,-1078.54C1054.06,-1045.22 960.524,-975.116 919.447,-944.331"/>
</g>
<!-- Пятое главное управление -->
<g id="node67" class="node"><title>Пятое главное управление</title>
<polygon fill="none" stroke="#e8e8e8" stroke-width="0.6" points="965.259,-1054.46 970.668,-1054.56 976.021,-1054.71 981.296,-1054.9 986.472,-1055.15 991.528,-1055.44 996.444,-1055.78 1001.2,-1056.16 1005.78,-1056.59 1010.17,-1057.06 1014.34,-1057.57 1018.3,-1058.13 1022.01,-1058.72 1025.47,-1059.35 1028.68,-1060.02 1031.62,-1060.72 1034.28,-1061.45 1036.66,-1062.21 1038.75,-1063.01 1040.56,-1063.82 1042.07,-1064.66 1043.3,-1065.52 1044.24,-1066.4 1044.9,-1067.3 1045.27,-1068.21 1045.37,-1069.13 1045.21,-1070.06 1044.78,-1071 1044.1,-1071.94 1043.18,-1072.88 1042.03,-1073.83 1040.65,-1074.76 1039.07,-1075.69 1037.28,-1076.62 1035.31,-1077.53 1033.17,-1078.42 1030.86,-1079.3 1028.4,-1080.17 1025.8,-1081.01 1023.07,-1081.82 1020.23,-1082.61 1017.28,-1083.38 1014.23,-1084.11 1011.11,-1084.81 1007.9,-1085.47 1004.63,-1086.11 1001.3,-1086.7 997.915,-1087.25 994.488,-1087.77 991.023,-1088.24 987.525,-1088.67 984.001,-1089.05 980.453,-1089.39 976.888,-1089.68 973.307,-1089.92 969.715,-1090.12 966.113,-1090.27 962.506,-1090.36 958.896,-1090.41 955.284,-1090.41 951.673,-1090.36 948.066,-1090.27 944.465,-1090.12 940.873,-1089.92 937.292,-1089.68 933.726,-1089.39 930.179,-1089.05 926.655,-1088.67 923.157,-1088.24 919.692,-1087.77 916.265,-1087.25 912.883,-1086.7 909.552,-1086.11 906.279,-1085.47 903.074,-1084.81 899.945,-1084.11 896.901,-1083.38 893.952,-1082.61 891.109,-1081.82 888.382,-1081.01 885.783,-1080.17 883.323,-1079.3 881.014,-1078.42 878.868,-1077.53 876.897,-1076.62 875.114,-1075.69 873.529,-1074.76 872.154,-1073.83 871.001,-1072.88 870.08,-1071.94 869.401,-1071 868.974,-1070.06 868.807,-1069.13 868.908,-1068.21 869.284,-1067.3 869.939,-1066.4 870.879,-1065.52 872.107,-1064.66 873.623,-1063.82 875.429,-1063.01 877.523,-1062.21 879.903,-1061.45 882.564,-1060.72 885.501,-1060.02 888.706,-1059.35 892.171,-1058.72 895.885,-1058.13 899.836,-1057.57 904.012,-1057.06 908.398,-1056.59 912.979,-1056.16 917.736,-1055.78 922.652,-1055.44 927.708,-1055.15 932.884,-1054.9 938.159,-1054.71 943.512,-1054.56 948.921,-1054.46 954.363,-1054.41 959.817,-1054.41 965.259,-1054.46"/>
<text text-anchor="middle" x="957.09" y="-1069.91" font-family="Helvetica,sans-Serif" font-size="10.00" fill="#e8e8e8">Пятое главное управление</text>
</g>
<!-- Акико&#45;&#45;Пятое главное управление -->
<g id="edge32" class="edge"><title>Акико&#45;&#45;Пятое главное управление</title>
<path fill="none" stroke="#eeeeee" stroke-width="0.6" d="M1095.85,-1092.81C1076.04,-1089.9 1048.24,-1085.81 1022.73,-1082.06"/>
</g>
<!-- Македонская критика французской мысли -->
<g id="node14" class="node"><title>Македонская критика французской мысли</title>
<polygon fill="#181818" stroke="#090909" stroke-width="0.8" points="687.517,-1213.09 468.517,-1213.09 468.517,-1177.09 687.517,-1177.09 687.517,-1213.09"/>
<text text-anchor="middle" x="578.017" y="-1192.59" font-family="Helvetica,sans-Serif" font-size="10.00" fill="#fefefe">Македонская критика французской мысли</text>
</g>
<!-- Мунбанк -->
<g id="node58" class="node"><title>Мунбанк</title>
<polygon fill="none" stroke="#e8e8e8" stroke-width="0.6" points="813.531,-1025.56 815.689,-1025.65 817.824,-1025.8 819.928,-1026 821.992,-1026.24 824.009,-1026.53 825.97,-1026.87 827.867,-1027.25 829.694,-1027.68 831.443,-1028.15 833.109,-1028.67 834.685,-1029.22 836.166,-1029.81 837.548,-1030.44 838.827,-1031.11 839.998,-1031.81 841.059,-1032.54 842.009,-1033.31 842.844,-1034.1 843.564,-1034.91 844.169,-1035.75 844.658,-1036.62 845.033,-1037.5 845.295,-1038.39 845.445,-1039.3 845.485,-1040.22 845.418,-1041.16 845.248,-1042.09 844.977,-1043.03 844.61,-1043.98 844.15,-1044.92 843.602,-1045.86 842.97,-1046.79 842.258,-1047.71 841.472,-1048.62 840.616,-1049.52 839.695,-1050.4 838.714,-1051.26 837.677,-1052.1 836.59,-1052.91 835.456,-1053.7 834.28,-1054.47 833.065,-1055.2 831.817,-1055.9 830.539,-1056.57 829.234,-1057.2 827.905,-1057.79 826.556,-1058.35 825.189,-1058.86 823.807,-1059.33 822.412,-1059.76 821.006,-1060.14 819.592,-1060.48 818.169,-1060.77 816.741,-1061.01 815.308,-1061.21 813.872,-1061.36 812.433,-1061.46 810.993,-1061.51 809.553,-1061.51 808.113,-1061.46 806.674,-1061.36 805.238,-1061.21 803.805,-1061.01 802.377,-1060.77 800.954,-1060.48 799.54,-1060.14 798.134,-1059.76 796.739,-1059.33 795.357,-1058.86 793.99,-1058.35 792.641,-1057.79 791.312,-1057.2 790.007,-1056.57 788.729,-1055.9 787.481,-1055.2 786.266,-1054.47 785.09,-1053.7 783.956,-1052.91 782.869,-1052.1 781.832,-1051.26 780.851,-1050.4 779.93,-1049.52 779.074,-1048.62 778.288,-1047.71 777.577,-1046.79 776.944,-1045.86 776.396,-1044.92 775.936,-1043.98 775.569,-1043.03 775.298,-1042.09 775.128,-1041.16 775.061,-1040.22 775.101,-1039.3 775.251,-1038.39 775.513,-1037.5 775.888,-1036.62 776.377,-1035.75 776.982,-1034.91 777.702,-1034.1 778.538,-1033.31 779.487,-1032.54 780.548,-1031.81 781.719,-1031.11 782.998,-1030.44 784.38,-1029.81 785.861,-1029.22 787.437,-1028.67 789.103,-1028.15 790.852,-1027.68 792.679,-1027.25 794.577,-1026.87 796.537,-1026.53 798.554,-1026.24 800.618,-1026 802.722,-1025.8 804.857,-1025.65 807.015,-1025.56 809.185,-1025.51 811.361,-1025.51 813.531,-1025.56"/>
<text text-anchor="middle" x="810.273" y="-1041.01" font-family="Helvetica,sans-Serif" font-size="10.00" fill="#e8e8e8">Мунбанк</text>
</g>
<!-- Македонская критика французской мысли&#45;&#45;Мунбанк -->
<g id="edge33" class="edge"><title>Македонская критика французской мысли&#45;&#45;Мунбанк</title>
<path fill="none" stroke="#eeeeee" stroke-width="0.6" d="M606.033,-1176.81C653.448,-1145.86 748.407,-1083.88 789.987,-1056.75"/>
</g>
<!-- Насых Нафиков (Кика) -->
<g id="node60" class="node"><title>Насых Нафиков (Кика)</title>
<ellipse fill="#2f2f2f" stroke="#ececec" stroke-width="0.6" cx="661.489" cy="-1027.77" rx="73.6658" ry="18"/>
<text text-anchor="middle" x="661.489" y="-1025.27" font-family="Helvetica,sans-Serif" font-size="10.00" fill="#ececec">Насых Нафиков (Кика)</text>
</g>
<!-- Македонская критика французской мысли&#45;&#45;Насых Нафиков (Кика) -->
<g id="edge34" class="edge"><title>Македонская критика французской мысли&#45;&#45;Насых Нафиков (Кика)</title>
<path fill="none" stroke="#eeeeee" stroke-width="0.6" d="M587.109,-1176.87C603.208,-1144.6 636.535,-1077.79 652.535,-1045.72"/>
</g>
<!-- Санбанк -->
<g id="node70" class="node"><title>Санбанк</title>
<polygon fill="none" stroke="#e8e8e8" stroke-width="0.6" points="755.643,-870.036 757.8,-870.135 759.935,-870.282 762.039,-870.478 764.104,-870.722 766.12,-871.014 768.081,-871.352 769.979,-871.735 771.805,-872.163 773.555,-872.634 775.22,-873.148 776.797,-873.702 778.278,-874.295 779.66,-874.926 780.938,-875.593 782.11,-876.293 783.171,-877.026 784.12,-877.788 784.955,-878.579 785.676,-879.395 786.281,-880.235 786.77,-881.096 787.145,-881.977 787.406,-882.873 787.556,-883.784 787.597,-884.706 787.53,-885.637 787.36,-886.574 787.089,-887.516 786.722,-888.458 786.262,-889.4 785.713,-890.337 785.081,-891.269 784.37,-892.191 783.584,-893.101 782.728,-893.998 781.807,-894.878 780.826,-895.739 779.789,-896.579 778.702,-897.395 777.567,-898.186 776.391,-898.949 775.177,-899.681 773.929,-900.382 772.651,-901.048 771.345,-901.679 770.017,-902.272 768.668,-902.826 767.301,-903.34 765.919,-903.811 764.524,-904.239 763.118,-904.623 761.703,-904.961 760.281,-905.252 758.853,-905.496 757.42,-905.692 755.984,-905.839 754.545,-905.938 753.105,-905.987 751.664,-905.987 750.224,-905.938 748.786,-905.839 747.349,-905.692 745.917,-905.496 744.488,-905.252 743.066,-904.961 741.651,-904.623 740.245,-904.239 738.851,-903.811 737.468,-903.34 736.102,-902.826 734.753,-902.272 733.424,-901.679 732.119,-901.048 730.84,-900.382 729.592,-899.681 728.378,-898.949 727.202,-898.186 726.068,-897.395 724.98,-896.579 723.944,-895.739 722.962,-894.878 722.042,-893.998 721.186,-893.101 720.4,-892.191 719.688,-891.269 719.056,-890.337 718.508,-889.4 718.048,-888.458 717.68,-887.516 717.41,-886.574 717.239,-885.637 717.173,-884.706 717.213,-883.784 717.363,-882.873 717.624,-881.977 717.999,-881.096 718.489,-880.235 719.094,-879.395 719.814,-878.579 720.649,-877.788 721.598,-877.026 722.66,-876.293 723.831,-875.593 725.109,-874.926 726.491,-874.295 727.973,-873.702 729.549,-873.148 731.215,-872.634 732.964,-872.163 734.791,-871.735 736.688,-871.352 738.649,-871.014 740.666,-870.722 742.73,-870.478 744.834,-870.282 746.969,-870.135 749.126,-870.036 751.297,-869.987 753.472,-869.987 755.643,-870.036"/>
<text text-anchor="middle" x="752.385" y="-885.487" font-family="Helvetica,sans-Serif" font-size="10.00" fill="#e8e8e8">Санбанк</text>
</g>
<!-- Македонская критика французской мысли&#45;&#45;Санбанк -->
<g id="edge35" class="edge"><title>Македонская критика французской мысли&#45;&#45;Санбанк</title>
<path fill="none" stroke="#eeeeee" stroke-width="0.6" d="M603.629,-1176.89C640.192,-1149.31 706.283,-1093.16 736.672,-1027.85 755.43,-987.527 755.458,-933.847 753.907,-906.183"/>
</g>
<!-- Один вог -->
<g id="node15" class="node"><title>Один вог</title>
<polygon fill="#181818" stroke="#090909" stroke-width="0.8" points="714.676,-1439.09 655.676,-1439.09 655.676,-1403.09 714.676,-1403.09 714.676,-1439.09"/>
<text text-anchor="middle" x="685.176" y="-1418.59" font-family="Helvetica,sans-Serif" font-size="10.00" fill="#fefefe">Один вог</text>
</g>
<!-- Мюс -->
<g id="node59" class="node"><title>Мюс</title>
<ellipse fill="#2f2f2f" stroke="#ececec" stroke-width="0.6" cx="806.434" cy="-1211.45" rx="27" ry="18"/>
<text text-anchor="middle" x="806.434" y="-1208.95" font-family="Helvetica,sans-Serif" font-size="10.00" fill="#ececec">Мюс</text>
</g>
<!-- Один вог&#45;&#45;Мюс -->
<g id="edge36" class="edge"><title>Один вог&#45;&#45;Мюс</title>
<path fill="none" stroke="#eeeeee" stroke-width="0.6" d="M695.725,-1402.85C718.946,-1362.71 774.201,-1267.18 796.675,-1228.32"/>
</g>
<!-- Фокус&#45;группа -->
<g id="node16" class="node"><title>Фокус&#45;группа</title>
<polygon fill="#181818" stroke="#090909" stroke-width="0.8" points="331.71,-623.004 250.71,-623.004 250.71,-587.004 331.71,-587.004 331.71,-623.004"/>
<text text-anchor="middle" x="291.21" y="-602.504" font-family="Helvetica,sans-Serif" font-size="10.00" fill="#fefefe">Фокус&#45;группа</text>
</g>
<!-- Сракандаев -->
<g id="node74" class="node"><title>Сракандаев</title>
<ellipse fill="#2f2f2f" stroke="#ececec" stroke-width="0.6" cx="606.773" cy="-648.836" rx="42.9448" ry="18"/>
<text text-anchor="middle" x="606.773" y="-646.336" font-family="Helvetica,sans-Serif" font-size="10.00" fill="#ececec">Сракандаев</text>
</g>
<!-- Фокус&#45;группа&#45;&#45;Сракандаев -->
<g id="edge37" class="edge"><title>Фокус&#45;группа&#45;&#45;Сракандаев</title>
<path fill="none" stroke="#eeeeee" stroke-width="0.6" d="M331.819,-610.644C392.244,-619.037 505.197,-634.727 565.821,-643.147"/>
</g>
<!-- Числа -->
<g id="node17" class="node"><title>Числа</title>
<polygon fill="#181818" stroke="#090909" stroke-width="0.8" points="879.968,-820.608 825.968,-820.608 825.968,-784.608 879.968,-784.608 879.968,-820.608"/>
<text text-anchor="middle" x="852.968" y="-800.108" font-family="Helvetica,sans-Serif" font-size="10.00" fill="#fefefe">Числа</text>
</g>
<!-- Числа&#45;&#45;Бункер под Лубянкой -->
<g id="edge38" class="edge"><title>Числа&#45;&#45;Бункер под Лубянкой</title>
<path fill="none" stroke="#eeeeee" stroke-width="0.6" d="M825.558,-806.512C789.864,-811.596 726.259,-820.656 677.343,-827.623"/>
</g>
<!-- Числа&#45;&#45;Вавилен Татарский -->
<g id="edge39" class="edge"><title>Числа&#45;&#45;Вавилен Татарский</title>
<path fill="none" stroke="#eeeeee" stroke-width="0.6" d="M858.147,-784.593C864.231,-763.43 874.27,-728.512 880.391,-707.224"/>
</g>
<!-- Числа&#45;&#45;Лебёдкин -->
<g id="edge40" class="edge"><title>Числа&#45;&#45;Лебёдкин</title>
<path fill="none" stroke="#eeeeee" stroke-width="0.6" d="M859.618,-820.758C868.441,-844.841 883.926,-887.109 892.743,-911.175"/>
</g>
<!-- Числа&#45;&#45;Малюта -->
<g id="edge41" class="edge"><title>Числа&#45;&#45;Малюта</title>
<path fill="none" stroke="#eeeeee" stroke-width="0.6" d="M879.994,-807.096C898.064,-810.096 921.86,-814.048 940.555,-817.152"/>
</g>
<!-- Числа&#45;&#45;Мунбанк -->
<g id="edge42" class="edge"><title>Числа&#45;&#45;Мунбанк</title>
<path fill="none" stroke="#eeeeee" stroke-width="0.6" d="M849.759,-820.714C841.827,-865.467 821.371,-980.889 813.461,-1025.52"/>
</g>
<!-- Числа&#45;&#45;Мюс -->
<g id="edge43" class="edge"><title>Числа&#45;&#45;Мюс</title>
<path fill="none" stroke="#eeeeee" stroke-width="0.6" d="M854.842,-820.87C858.502,-861.242 864.881,-960.925 848.34,-1041.96 836.944,-1097.8 819.685,-1163.03 811.321,-1193.75"/>
</g>
<!-- Числа&#45;&#45;Насых Нафиков (Кика) -->
<g id="edge44" class="edge"><title>Числа&#45;&#45;Насых Нафиков (Кика)</title>
<path fill="none" stroke="#eeeeee" stroke-width="0.6" d="M840.119,-820.689C827.054,-838.972 806.131,-867.969 787.446,-892.609 753.141,-937.847 706.061,-985.144 680.27,-1010.03"/>
</g>
<!-- Числа&#45;&#45;Пятое главное управление -->
<g id="edge45" class="edge"><title>Числа&#45;&#45;Пятое главное управление</title>
<path fill="none" stroke="#eeeeee" stroke-width="0.6" d="M869.087,-820.854C888.752,-844.228 921.361,-886.826 937.478,-929.369 953.64,-972.031 956.734,-1026.33 957.173,-1054.16"/>
</g>
<!-- Числа&#45;&#45;Санбанк -->
<g id="edge46" class="edge"><title>Числа&#45;&#45;Санбанк</title>
<path fill="none" stroke="#eeeeee" stroke-width="0.6" d="M831.637,-820.714C813.76,-835.889 788.478,-857.35 771.311,-871.922"/>
</g>
<!-- Числа&#45;&#45;Сракандаев -->
<g id="edge47" class="edge"><title>Числа&#45;&#45;Сракандаев</title>
<path fill="none" stroke="#eeeeee" stroke-width="0.6" d="M825.884,-802.529C783.414,-800.986 700.76,-792.078 649.9,-748.226 625.397,-727.1 614.352,-689.496 609.742,-667.092"/>
</g>
<!-- Священная книга оборотня -->
<g id="node18" class="node"><title>Священная книга оборотня</title>
<polygon fill="#181818" stroke="#090909" stroke-width="0.8" points="820.367,-597.704 677.367,-597.704 677.367,-561.704 820.367,-561.704 820.367,-597.704"/>
<text text-anchor="middle" x="748.867" y="-577.204" font-family="Helvetica,sans-Serif" font-size="10.00" fill="#fefefe">Священная книга оборотня</text>
</g>
<!-- А Хули -->
<g id="node35" class="node"><title>А Хули</title>
<ellipse fill="#2f2f2f" stroke="#ececec" stroke-width="0.6" cx="737.975" cy="-263.587" rx="29.3664" ry="18"/>
<text text-anchor="middle" x="737.975" y="-261.087" font-family="Helvetica,sans-Serif" font-size="10.00" fill="#ececec">А Хули</text>
</g>
<!-- Священная книга оборотня&#45;&#45;А Хули -->
<g id="edge48" class="edge"><title>Священная книга оборотня&#45;&#45;А Хули</title>
<path fill="none" stroke="#eeeeee" stroke-width="0.6" d="M749.354,-561.601C749.942,-536.465 750.719,-489.572 749.584,-449.611 747.833,-387.993 742.26,-315.07 739.522,-281.788"/>
</g>
<!-- Священная книга оборотня&#45;&#45;Вавилен Татарский -->
<g id="edge49" class="edge"><title>Священная книга оборотня&#45;&#45;Вавилен Татарский</title>
<path fill="none" stroke="#eeeeee" stroke-width="0.6" d="M771.454,-597.739C797.103,-618.216 838.656,-651.393 863.937,-671.578"/>
</g>
<!-- Лев Толстой -->
<g id="node52" class="node"><title>Лев Толстой</title>
<ellipse fill="#2f2f2f" stroke="#ececec" stroke-width="0.6" cx="817.182" cy="-425.998" rx="44.3" ry="18"/>
<text text-anchor="middle" x="817.182" y="-423.498" font-family="Helvetica,sans-Serif" font-size="10.00" fill="#ececec">Лев Толстой</text>
</g>
<!-- Священная книга оборотня&#45;&#45;Лев Толстой -->
<g id="edge50" class="edge"><title>Священная книга оборотня&#45;&#45;Лев Толстой</title>
<path fill="none" stroke="#eeeeee" stroke-width="0.6" d="M756.972,-561.469C770.19,-531.728 796.225,-473.152 809.299,-443.736"/>
</g>
<!-- Священная книга оборотня&#45;&#45;Нелли -->
<g id="edge51" class="edge"><title>Священная книга оборотня&#45;&#45;Нелли</title>
<path fill="none" stroke="#eeeeee" stroke-width="0.6" d="M677.088,-562.105C619.959,-548.097 543.29,-529.298 503.975,-519.658"/>
</g>
<!-- Священная книга оборотня&#45;&#45;пёс Пиздец -->
<g id="edge52" class="edge"><title>Священная книга оборотня&#45;&#45;пёс Пиздец</title>
<path fill="none" stroke="#eeeeee" stroke-width="0.6" d="M820.629,-569.139C827.016,-568.198 833.309,-567.272 839.253,-566.396"/>
</g>
<!-- рецензент Майя Марачкарская -->
<g id="node69" class="node"><title>рецензент Майя Марачкарская</title>
<ellipse fill="#2f2f2f" stroke="#ececec" stroke-width="0.6" cx="651.444" cy="-449.558" rx="96.5815" ry="18"/>
<text text-anchor="middle" x="651.444" y="-447.058" font-family="Helvetica,sans-Serif" font-size="10.00" fill="#ececec">рецензент Майя Марачкарская</text>
</g>
<!-- Священная книга оборотня&#45;&#45;рецензент Майя Марачкарская -->
<g id="edge53" class="edge"><title>Священная книга оборотня&#45;&#45;рецензент Майя Марачкарская</title>
<path fill="none" stroke="#eeeeee" stroke-width="0.6" d="M735.321,-561.608C716.708,-536.743 683.427,-492.284 664.875,-467.501"/>
</g>
<!-- Священная книга оборотня&#45;&#45;Саша Лапин -->
<g id="edge54" class="edge"><title>Священная книга оборотня&#45;&#45;Саша Лапин</title>
<path fill="none" stroke="#eeeeee" stroke-width="0.6" d="M753.804,-561.352C759.83,-535.105 767.2,-486.001 749.584,-449.611 712.163,-372.31 618.669,-320.788 570.012,-298.274"/>
</g>
<!-- Психическая атака (сонет) -->
<g id="node19" class="node"><title>Психическая атака (сонет)</title>
<polygon fill="#181818" stroke="#090909" stroke-width="0.8" points="1728.12,-55.8805 1585.12,-55.8805 1585.12,-19.8805 1728.12,-19.8805 1728.12,-55.8805"/>
<text text-anchor="middle" x="1656.62" y="-35.3805" font-family="Helvetica,sans-Serif" font-size="10.00" fill="#fefefe">Психическая атака (сонет)</text>
</g>
<!-- Психическая атака (сонет)&#45;&#45;Петр Пустота -->
<g id="edge55" class="edge"><title>Психическая атака (сонет)&#45;&#45;Петр Пустота</title>
<path fill="none" stroke="#eeeeee" stroke-width="0.6" d="M1584.9,-38.7685C1533.75,-39.4018 1466.33,-40.2366 1421.28,-40.7944"/>
</g>
<!-- Empire V -->
<g id="node20" class="node"><title>Empire V</title>
<polygon fill="#181818" stroke="#090909" stroke-width="0.8" points="1047.31,-734.124 990.307,-734.124 990.307,-698.124 1047.31,-698.124 1047.31,-734.124"/>
<text text-anchor="middle" x="1018.81" y="-713.624" font-family="Helvetica,sans-Serif" font-size="10.00" fill="#fefefe">Empire V</text>
</g>
<!-- Empire V&#45;&#45;Вавилен Татарский -->
<g id="edge56" class="edge"><title>Empire V&#45;&#45;Вавилен Татарский</title>
<path fill="none" stroke="#eeeeee" stroke-width="0.6" d="M990.242,-710.287C974.883,-707.149 955.464,-703.181 937.54,-699.519"/>
</g>
<!-- Рама -->
<g id="node68" class="node"><title>Рама</title>
<ellipse fill="#2f2f2f" stroke="#ececec" stroke-width="0.6" cx="1324.31" cy="-675.606" rx="27" ry="18"/>
<text text-anchor="middle" x="1324.31" y="-673.106" font-family="Helvetica,sans-Serif" font-size="10.00" fill="#ececec">Рама</text>
</g>
<!-- Empire V&#45;&#45;Рама -->
<g id="edge57" class="edge"><title>Empire V&#45;&#45;Рама</title>
<path fill="none" stroke="#eeeeee" stroke-width="0.6" d="M1047.55,-712.312C1106.52,-704.491 1240.44,-686.73 1297.62,-679.146"/>
</g>
<!-- Empire V&#45;&#45;халдеи -->
<g id="edge58" class="edge"><title>Empire V&#45;&#45;халдеи</title>
<path fill="none" stroke="#eeeeee" stroke-width="0.6" d="M1047.51,-706.878C1066.59,-700.733 1091.4,-692.741 1109.71,-686.842"/>
</g>
<!-- Ассасин -->
<g id="node21" class="node"><title>Ассасин</title>
<polygon fill="#181818" stroke="#090909" stroke-width="0.8" points="349.249,-355.808 293.249,-355.808 293.249,-319.808 349.249,-319.808 349.249,-355.808"/>
<text text-anchor="middle" x="321.249" y="-335.308" font-family="Helvetica,sans-Serif" font-size="10.00" fill="#fefefe">Ассасин</text>
</g>
<!-- Ассасин&#45;&#45;рецензент Майя Марачкарская -->
<g id="edge59" class="edge"><title>Ассасин&#45;&#45;рецензент Майя Марачкарская</title>
<path fill="none" stroke="#eeeeee" stroke-width="0.6" d="M349.402,-347.335C406.248,-366.574 535.236,-410.229 604.838,-433.785"/>
</g>
<!-- Зал поющих кариатид -->
<g id="node22" class="node"><title>Зал поющих кариатид</title>
<polygon fill="#181818" stroke="#090909" stroke-width="0.8" points="1506.81,-316.927 1385.81,-316.927 1385.81,-280.927 1506.81,-280.927 1506.81,-316.927"/>
<text text-anchor="middle" x="1446.31" y="-296.427" font-family="Helvetica,sans-Serif" font-size="10.00" fill="#fefefe">Зал поющих кариатид</text>
</g>
<!-- генерал Шмыга -->
<g id="node43" class="node"><title>генерал Шмыга</title>
<ellipse fill="#2f2f2f" stroke="#ececec" stroke-width="0.6" cx="1088.41" cy="-572.399" rx="51.4282" ry="18"/>
<text text-anchor="middle" x="1088.41" y="-569.899" font-family="Helvetica,sans-Serif" font-size="10.00" fill="#ececec">генерал Шмыга</text>
</g>
<!-- Зал поющих кариатид&#45;&#45;генерал Шмыга -->
<g id="edge60" class="edge"><title>Зал поющих кариатид&#45;&#45;генерал Шмыга</title>
<path fill="none" stroke="#eeeeee" stroke-width="0.6" d="M1439.04,-317.302C1427.09,-345.546 1400.86,-399.925 1363.89,-433.975 1292.62,-499.602 1184.42,-541.625 1127.14,-560.616"/>
</g>
<!-- клуб «Haute SOS» -->
<g id="node49" class="node"><title>клуб «Haute SOS»</title>
<polygon fill="none" stroke="#e8e8e8" stroke-width="0.6" points="1702.5,-449.235 1706.37,-449.333 1710.19,-449.481 1713.97,-449.677 1717.67,-449.921 1721.28,-450.212 1724.8,-450.55 1728.2,-450.933 1731.47,-451.361 1734.61,-451.833 1737.6,-452.346 1740.42,-452.9 1743.08,-453.494 1745.56,-454.124 1747.85,-454.791 1749.95,-455.491 1751.85,-456.224 1753.55,-456.987 1755.05,-457.777 1756.34,-458.594 1757.43,-459.434 1758.31,-460.295 1758.98,-461.175 1759.45,-462.071 1759.71,-462.982 1759.79,-463.904 1759.67,-464.835 1759.36,-465.773 1758.88,-466.714 1758.22,-467.657 1757.39,-468.598 1756.41,-469.536 1755.28,-470.467 1754,-471.389 1752.59,-472.3 1751.06,-473.196 1749.41,-474.076 1747.65,-474.937 1745.79,-475.777 1743.84,-476.594 1741.81,-477.384 1739.7,-478.147 1737.52,-478.88 1735.28,-479.58 1732.99,-480.247 1730.65,-480.878 1728.27,-481.471 1725.85,-482.025 1723.4,-482.538 1720.92,-483.01 1718.42,-483.438 1715.9,-483.821 1713.36,-484.159 1710.81,-484.45 1708.25,-484.694 1705.68,-484.89 1703.11,-485.038 1700.53,-485.136 1697.95,-485.186 1695.36,-485.186 1692.78,-485.136 1690.2,-485.038 1687.63,-484.89 1685.06,-484.694 1682.5,-484.45 1679.95,-484.159 1677.41,-483.821 1674.89,-483.438 1672.39,-483.01 1669.91,-482.538 1667.46,-482.025 1665.04,-481.471 1662.66,-480.878 1660.32,-480.247 1658.03,-479.58 1655.79,-478.88 1653.61,-478.147 1651.5,-477.384 1649.47,-476.594 1647.52,-475.777 1645.66,-474.937 1643.9,-474.076 1642.25,-473.196 1640.72,-472.3 1639.31,-471.389 1638.03,-470.467 1636.9,-469.536 1635.92,-468.598 1635.09,-467.657 1634.43,-466.714 1633.95,-465.773 1633.64,-464.835 1633.52,-463.904 1633.6,-462.982 1633.86,-462.071 1634.33,-461.175 1635,-460.295 1635.88,-459.434 1636.97,-458.594 1638.26,-457.777 1639.76,-456.987 1641.46,-456.224 1643.36,-455.491 1645.46,-454.791 1647.75,-454.124 1650.23,-453.494 1652.89,-452.9 1655.71,-452.346 1658.7,-451.833 1661.84,-451.361 1665.11,-450.933 1668.51,-450.55 1672.03,-450.212 1675.64,-449.921 1679.35,-449.677 1683.12,-449.481 1686.95,-449.333 1690.81,-449.235 1694.71,-449.186 1698.61,-449.186 1702.5,-449.235"/>
<text text-anchor="middle" x="1696.66" y="-464.686" font-family="Helvetica,sans-Serif" font-size="10.00" fill="#e8e8e8">клуб «Haute SOS»</text>
</g>
<!-- Зал поющих кариатид&#45;&#45;клуб «Haute SOS» -->
<g id="edge61" class="edge"><title>Зал поющих кариатид&#45;&#45;клуб «Haute SOS»</title>
<path fill="none" stroke="#eeeeee" stroke-width="0.6" d="M1473.1,-316.934C1521.66,-349.573 1623.6,-418.083 1671.18,-450.063"/>
</g>
<!-- Михаил Ботвинник -->
<g id="node56" class="node"><title>Михаил Ботвинник</title>
<ellipse fill="#2f2f2f" stroke="#ececec" stroke-width="0.6" cx="1688.78" cy="-270.856" rx="62.2967" ry="18"/>
<text text-anchor="middle" x="1688.78" y="-268.356" font-family="Helvetica,sans-Serif" font-size="10.00" fill="#ececec">Михаил Ботвинник</text>
</g>
<!-- Зал поющих кариатид&#45;&#45;Михаил Ботвинник -->
<g id="edge62" class="edge"><title>Зал поющих кариатид&#45;&#45;Михаил Ботвинник</title>
<path fill="none" stroke="#eeeeee" stroke-width="0.6" d="M1506.87,-291.916C1544.74,-287.531 1593.26,-281.914 1630.66,-277.584"/>
</g>
<!-- Некромент -->
<g id="node23" class="node"><title>Некромент</title>
<polygon fill="#181818" stroke="#090909" stroke-width="0.8" points="1279.57,-1233.3 1211.57,-1233.3 1211.57,-1197.3 1279.57,-1197.3 1279.57,-1233.3"/>
<text text-anchor="middle" x="1245.57" y="-1212.8" font-family="Helvetica,sans-Serif" font-size="10.00" fill="#fefefe">Некромент</text>
</g>
<!-- Дупин -->
<g id="node46" class="node"><title>Дупин</title>
<ellipse fill="#2f2f2f" stroke="#ececec" stroke-width="0.6" cx="1181.08" cy="-855.191" rx="27.8353" ry="18"/>
<text text-anchor="middle" x="1181.08" y="-852.691" font-family="Helvetica,sans-Serif" font-size="10.00" fill="#ececec">Дупин</text>
</g>
<!-- Некромент&#45;&#45;Дупин -->
<g id="edge63" class="edge"><title>Некромент&#45;&#45;Дупин</title>
<path fill="none" stroke="#eeeeee" stroke-width="0.6" d="M1242.72,-1197.13C1236.37,-1156.94 1220.4,-1057.44 1205.08,-974.475 1198.45,-938.538 1189.82,-896.697 1184.92,-873.344"/>
</g>
<!-- Макар Гетман -->
<g id="node53" class="node"><title>Макар Гетман</title>
<ellipse fill="#2f2f2f" stroke="#ececec" stroke-width="0.6" cx="1669.5" cy="-1394.14" rx="48.7185" ry="18"/>
<text text-anchor="middle" x="1669.5" y="-1391.64" font-family="Helvetica,sans-Serif" font-size="10.00" fill="#ececec">Макар Гетман</text>
</g>
<!-- Некромент&#45;&#45;Макар Гетман -->
<g id="edge64" class="edge"><title>Некромент&#45;&#45;Макар Гетман</title>
<path fill="none" stroke="#eeeeee" stroke-width="0.6" d="M1279.9,-1229.78C1360.13,-1263.62 1559,-1347.52 1637.19,-1380.51"/>
</g>
<!-- Пространство Фридмана -->
<g id="node24" class="node"><title>Пространство Фридмана</title>
<polygon fill="#181818" stroke="#090909" stroke-width="0.8" points="1360.69,-430.775 1225.69,-430.775 1225.69,-394.775 1360.69,-394.775 1360.69,-430.775"/>
<text text-anchor="middle" x="1293.19" y="-410.275" font-family="Helvetica,sans-Serif" font-size="10.00" fill="#fefefe">Пространство Фридмана</text>
</g>
<!-- Пространство Фридмана&#45;&#45;генерал Шмыга -->
<g id="edge65" class="edge"><title>Пространство Фридмана&#45;&#45;генерал Шмыга</title>
<path fill="none" stroke="#eeeeee" stroke-width="0.6" d="M1270.1,-430.775C1230.04,-462.003 1148.24,-525.76 1109.57,-555.905"/>
</g>
<!-- t -->
<g id="node25" class="node"><title>t</title>
<polygon fill="#181818" stroke="#090909" stroke-width="0.8" points="980.977,-379.364 926.977,-379.364 926.977,-343.364 980.977,-343.364 980.977,-379.364"/>
<text text-anchor="middle" x="953.977" y="-358.864" font-family="Helvetica,sans-Serif" font-size="10.00" fill="#fefefe">t</text>
</g>
<!-- t&#45;&#45;А Хули -->
<g id="edge66" class="edge"><title>t&#45;&#45;А Хули</title>
<path fill="none" stroke="#eeeeee" stroke-width="0.6" d="M926.62,-348.98C883.936,-329.659 802.207,-292.663 761.8,-274.372"/>
</g>
<!-- t&#45;&#45;Анна -->
<g id="edge67" class="edge"><title>t&#45;&#45;Анна</title>
<path fill="none" stroke="#555555" stroke-width="0.6" d="M966.626,-343.307C987.852,-313.005 1030.32,-252.374 1050.81,-223.125"/>
</g>
<!-- t&#45;&#45;генерал Шмыга -->
<g id="edge68" class="edge"><title>t&#45;&#45;генерал Шмыга</title>
<path fill="none" stroke="#eeeeee" stroke-width="0.6" d="M968.256,-379.736C986.096,-403.04 1017.12,-444.754 1040.56,-482.557 1055.55,-506.74 1070.61,-536.04 1079.72,-554.456"/>
</g>
<!-- t&#45;&#45;граф Т. -->
<g id="edge69" class="edge"><title>t&#45;&#45;граф Т.</title>
<path fill="none" stroke="#eeeeee" stroke-width="0.6" d="M981.215,-349.882C1038.55,-325.714 1170.98,-269.892 1226.64,-246.43"/>
</g>
<!-- t&#45;&#45;лама Джамбон Тулку -->
<g id="edge70" class="edge"><title>t&#45;&#45;лама Джамбон Тулку</title>
<path fill="none" stroke="#eeeeee" stroke-width="0.6" d="M980.978,-376.701C1016.19,-396.704 1077.55,-431.555 1113.63,-452.051"/>
</g>
<!-- t&#45;&#45;Лев Толстой -->
<g id="edge71" class="edge"><title>t&#45;&#45;Лев Толстой</title>
<path fill="none" stroke="#eeeeee" stroke-width="0.6" d="M926.95,-374.134C903.591,-385.171 869.92,-401.08 846.041,-412.363"/>
</g>
<!-- t&#45;&#45;Померанцев (Константин Победоносцев) -->
<g id="edge72" class="edge"><title>t&#45;&#45;Померанцев (Константин Победоносцев)</title>
<path fill="none" stroke="#eeeeee" stroke-width="0.6" d="M936.443,-343.164C881.947,-286.597 715.932,-114.276 661.699,-57.9825"/>
</g>
<!-- t&#45;&#45;Чапаев -->
<g id="edge73" class="edge"><title>t&#45;&#45;Чапаев</title>
<path fill="none" stroke="#eeeeee" stroke-width="0.6" d="M946.503,-343.251C935.867,-317.476 916.485,-270.505 905.914,-244.888"/>
</g>
<!-- Зенитные кодексы Аль&#45;Эфесби -->
<g id="node26" class="node"><title>Зенитные кодексы Аль&#45;Эфесби</title>
<polygon fill="#181818" stroke="#090909" stroke-width="0.8" points="1388.03,-922.575 1222.03,-922.575 1222.03,-886.575 1388.03,-886.575 1388.03,-922.575"/>
<text text-anchor="middle" x="1305.03" y="-902.075" font-family="Helvetica,sans-Serif" font-size="10.00" fill="#fefefe">Зенитные кодексы Аль&#45;Эфесби</text>
</g>
<!-- БПЛА -->
<g id="node39" class="node"><title>БПЛА</title>
<polygon fill="none" stroke="#e8e8e8" stroke-width="0.6" points="1461.42,-1162.47 1463.2,-1162.57 1464.95,-1162.71 1466.69,-1162.91 1468.39,-1163.15 1470.05,-1163.44 1471.66,-1163.78 1473.22,-1164.17 1474.73,-1164.59 1476.17,-1165.07 1477.54,-1165.58 1478.84,-1166.13 1480.05,-1166.73 1481.19,-1167.36 1482.24,-1168.02 1483.21,-1168.72 1484.08,-1169.46 1484.86,-1170.22 1485.55,-1171.01 1486.15,-1171.83 1486.64,-1172.67 1487.05,-1173.53 1487.35,-1174.41 1487.57,-1175.3 1487.69,-1176.21 1487.73,-1177.14 1487.67,-1178.07 1487.53,-1179.01 1487.31,-1179.95 1487.01,-1180.89 1486.63,-1181.83 1486.18,-1182.77 1485.66,-1183.7 1485.07,-1184.62 1484.42,-1185.53 1483.72,-1186.43 1482.96,-1187.31 1482.15,-1188.17 1481.3,-1189.01 1480.4,-1189.83 1479.47,-1190.62 1478.5,-1191.38 1477.5,-1192.11 1476.47,-1192.81 1475.42,-1193.48 1474.35,-1194.11 1473.25,-1194.7 1472.14,-1195.26 1471.02,-1195.77 1469.88,-1196.24 1468.73,-1196.67 1467.57,-1197.05 1466.41,-1197.39 1465.24,-1197.68 1464.06,-1197.93 1462.88,-1198.12 1461.7,-1198.27 1460.52,-1198.37 1459.33,-1198.42 1458.14,-1198.42 1456.96,-1198.37 1455.77,-1198.27 1454.59,-1198.12 1453.41,-1197.93 1452.24,-1197.68 1451.07,-1197.39 1449.9,-1197.05 1448.74,-1196.67 1447.6,-1196.24 1446.46,-1195.77 1445.33,-1195.26 1444.22,-1194.7 1443.13,-1194.11 1442.05,-1193.48 1441,-1192.81 1439.97,-1192.11 1438.97,-1191.38 1438.01,-1190.62 1437.07,-1189.83 1436.18,-1189.01 1435.32,-1188.17 1434.52,-1187.31 1433.76,-1186.43 1433.05,-1185.53 1432.41,-1184.62 1431.82,-1183.7 1431.3,-1182.77 1430.85,-1181.83 1430.47,-1180.89 1430.17,-1179.95 1429.94,-1179.01 1429.8,-1178.07 1429.75,-1177.14 1429.78,-1176.21 1429.91,-1175.3 1430.12,-1174.41 1430.43,-1173.53 1430.83,-1172.67 1431.33,-1171.83 1431.92,-1171.01 1432.61,-1170.22 1433.39,-1169.46 1434.27,-1168.72 1435.23,-1168.02 1436.28,-1167.36 1437.42,-1166.73 1438.64,-1166.13 1439.94,-1165.58 1441.31,-1165.07 1442.75,-1164.59 1444.25,-1164.17 1445.82,-1163.78 1447.43,-1163.44 1449.09,-1163.15 1450.79,-1162.91 1452.52,-1162.71 1454.28,-1162.57 1456.06,-1162.47 1457.84,-1162.42 1459.63,-1162.42 1461.42,-1162.47"/>
<text text-anchor="middle" x="1458.74" y="-1177.92" font-family="Helvetica,sans-Serif" font-size="10.00" fill="#e8e8e8">БПЛА</text>
</g>
<!-- Зенитные кодексы Аль&#45;Эфесби&#45;&#45;БПЛА -->
<g id="edge74" class="edge"><title>Зенитные кодексы Аль&#45;Эфесби&#45;&#45;БПЛА</title>
<path fill="none" stroke="#eeeeee" stroke-width="0.6" d="M1315.11,-922.674C1343.1,-972.895 1421.47,-1113.53 1449.01,-1162.97"/>
</g>
<!-- Зенитные кодексы Аль&#45;Эфесби&#45;&#45;Макар Гетман -->
<g id="edge75" class="edge"><title>Зенитные кодексы Аль&#45;Эфесби&#45;&#45;Макар Гетман</title>
<path fill="none" stroke="#eeeeee" stroke-width="0.6" d="M1318.43,-922.58C1375.78,-999.604 1600.09,-1300.91 1656.55,-1376.74"/>
</g>
<!-- Зенитные кодексы Аль&#45;Эфесби&#45;&#45;Семён Левитан -->
<g id="edge76" class="edge"><title>Зенитные кодексы Аль&#45;Эфесби&#45;&#45;Семён Левитан</title>
<path fill="none" stroke="#eeeeee" stroke-width="0.6" d="M1295.68,-886.298C1280.43,-856.49 1250.4,-797.782 1235.31,-768.3"/>
</g>
<!-- Операция «Burning Bush» -->
<g id="node27" class="node"><title>Операция «Burning Bush»</title>
<polygon fill="#181818" stroke="#090909" stroke-width="0.8" points="1154.59,-826.865 1019.59,-826.865 1019.59,-790.865 1154.59,-790.865 1154.59,-826.865"/>
<text text-anchor="middle" x="1087.09" y="-806.365" font-family="Helvetica,sans-Serif" font-size="10.00" fill="#fefefe">Операция «Burning Bush»</text>
</g>
<!-- Операция «Burning Bush»&#45;&#45;Вавилен Татарский -->
<g id="edge77" class="edge"><title>Операция «Burning Bush»&#45;&#45;Вавилен Татарский</title>
<path fill="none" stroke="#eeeeee" stroke-width="0.6" d="M1056.5,-790.647C1017.54,-767.447 950.78,-727.697 913.29,-705.373"/>
</g>
<!-- Операция «Burning Bush»&#45;&#45;генерал Шмыга -->
<g id="edge78" class="edge"><title>Операция «Burning Bush»&#45;&#45;генерал Шмыга</title>
<path fill="none" stroke="#eeeeee" stroke-width="0.6" d="M1087.19,-790.703C1087.44,-746.687 1088.06,-634.703 1088.31,-590.623"/>
</g>
<!-- Операция «Burning Bush»&#45;&#45;Дупин -->
<g id="edge79" class="edge"><title>Операция «Burning Bush»&#45;&#45;Дупин</title>
<path fill="none" stroke="#eeeeee" stroke-width="0.6" d="M1123.7,-826.908C1135.55,-832.752 1148.34,-839.052 1158.82,-844.221"/>
</g>
<!-- Олег -->
<g id="node62" class="node"><title>Олег</title>
<ellipse fill="#2f2f2f" stroke="#ececec" stroke-width="0.6" cx="1176.48" cy="-974.405" rx="27" ry="18"/>
<text text-anchor="middle" x="1176.48" y="-971.905" font-family="Helvetica,sans-Serif" font-size="10.00" fill="#ececec">Олег</text>
</g>
<!-- Операция «Burning Bush»&#45;&#45;Олег -->
<g id="edge80" class="edge"><title>Операция «Burning Bush»&#45;&#45;Олег</title>
<path fill="none" stroke="#eeeeee" stroke-width="0.6" d="M1096.83,-826.896C1114.2,-859.074 1150.32,-925.959 1167.29,-957.39"/>
</g>
<!-- Операция «Burning Bush»&#45;&#45;Семён Левитан -->
<g id="edge81" class="edge"><title>Операция «Burning Bush»&#45;&#45;Семён Левитан</title>
<path fill="none" stroke="#eeeeee" stroke-width="0.6" d="M1130.35,-790.725C1150.61,-782.228 1174.36,-772.268 1193.16,-764.387"/>
</g>
<!-- треугольное существо -->
<g id="node77" class="node"><title>треугольное существо</title>
<polygon fill="none" stroke="#e8e8e8" stroke-width="0.6" points="1049.16,-927.024 1053.8,-927.123 1058.39,-927.27 1062.92,-927.466 1067.35,-927.71 1071.69,-928.002 1075.91,-928.339 1079.99,-928.723 1083.91,-929.151 1087.67,-929.622 1091.26,-930.136 1094.64,-930.69 1097.83,-931.283 1100.8,-931.914 1103.55,-932.58 1106.07,-933.281 1108.35,-934.014 1110.39,-934.776 1112.19,-935.567 1113.73,-936.383 1115.03,-937.223 1116.09,-938.084 1116.89,-938.964 1117.46,-939.861 1117.78,-940.772 1117.86,-941.694 1117.72,-942.625 1117.36,-943.562 1116.77,-944.504 1115.98,-945.446 1114.99,-946.388 1113.82,-947.325 1112.46,-948.256 1110.93,-949.178 1109.24,-950.089 1107.4,-950.986 1105.42,-951.866 1103.31,-952.727 1101.08,-953.567 1098.74,-954.383 1096.3,-955.174 1093.77,-955.936 1091.16,-956.669 1088.48,-957.37 1085.73,-958.036 1082.92,-958.667 1080.07,-959.26 1077.17,-959.814 1074.23,-960.328 1071.26,-960.799 1068.26,-961.227 1065.23,-961.611 1062.19,-961.948 1059.13,-962.24 1056.06,-962.484 1052.98,-962.68 1049.9,-962.827 1046.8,-962.926 1043.71,-962.975 1040.61,-962.975 1037.51,-962.926 1034.42,-962.827 1031.33,-962.68 1028.25,-962.484 1025.18,-962.24 1022.12,-961.948 1019.08,-961.611 1016.06,-961.227 1013.06,-960.799 1010.09,-960.328 1007.15,-959.814 1004.25,-959.26 1001.39,-958.667 998.584,-958.036 995.836,-957.37 993.152,-956.669 990.542,-955.936 988.013,-955.174 985.575,-954.383 983.236,-953.567 981.007,-952.727 978.898,-951.866 976.918,-950.986 975.078,-950.089 973.387,-949.178 971.858,-948.256 970.499,-947.325 969.32,-946.388 968.331,-945.446 967.541,-944.504 966.959,-943.562 966.593,-942.625 966.45,-941.694 966.536,-940.772 966.858,-939.861 967.421,-938.964 968.227,-938.084 969.279,-937.223 970.58,-936.383 972.128,-935.567 973.924,-934.776 975.965,-934.014 978.247,-933.281 980.765,-932.58 983.514,-931.914 986.485,-931.283 989.67,-930.69 993.059,-930.136 996.64,-929.622 1000.4,-929.151 1004.33,-928.723 1008.41,-928.339 1012.62,-928.002 1016.96,-927.71 1021.4,-927.466 1025.92,-927.27 1030.51,-927.123 1035.15,-927.024 1039.82,-926.975 1044.5,-926.975 1049.16,-927.024"/>
<text text-anchor="middle" x="1042.16" y="-942.475" font-family="Helvetica,sans-Serif" font-size="10.00" fill="#e8e8e8">треугольное существо</text>
</g>
<!-- Операция «Burning Bush»&#45;&#45;треугольное существо -->
<g id="edge82" class="edge"><title>Операция «Burning Bush»&#45;&#45;треугольное существо</title>
<path fill="none" stroke="#eeeeee" stroke-width="0.6" d="M1081.12,-826.939C1072.53,-852.972 1056.76,-900.751 1048.15,-926.826"/>
</g>
<!-- Отель хороших воплощений -->
<g id="node28" class="node"><title>Отель хороших воплощений</title>
<polygon fill="#181818" stroke="#090909" stroke-width="0.8" points="995.2,-1444.08 849.2,-1444.08 849.2,-1408.08 995.2,-1408.08 995.2,-1444.08"/>
<text text-anchor="middle" x="922.2" y="-1423.58" font-family="Helvetica,sans-Serif" font-size="10.00" fill="#fefefe">Отель хороших воплощений</text>
</g>
<!-- Отель хороших воплощений&#45;&#45;треугольное существо -->
<g id="edge83" class="edge"><title>Отель хороших воплощений&#45;&#45;треугольное существо</title>
<path fill="none" stroke="#eeeeee" stroke-width="0.6" d="M923.172,-1407.92C925.744,-1369.24 934.602,-1276.4 962.872,-1204.52 988.962,-1138.18 1044.48,-1140.17 1048.68,-1069.01 1050.9,-1031.34 1047.04,-987.211 1044.37,-963.056"/>
</g>
<!-- Созерцатель тени -->
<g id="node29" class="node"><title>Созерцатель тени</title>
<polygon fill="#181818" stroke="#090909" stroke-width="0.8" points="1069.07,-1243.72 966.072,-1243.72 966.072,-1207.72 1069.07,-1207.72 1069.07,-1243.72"/>
<text text-anchor="middle" x="1017.57" y="-1223.22" font-family="Helvetica,sans-Serif" font-size="10.00" fill="#fefefe">Созерцатель тени</text>
</g>
<!-- Борис -->
<g id="node38" class="node"><title>Борис</title>
<ellipse fill="#2f2f2f" stroke="#ececec" stroke-width="0.6" cx="1145.8" cy="-1421.01" rx="27.1572" ry="18"/>
<text text-anchor="middle" x="1145.8" y="-1418.51" font-family="Helvetica,sans-Serif" font-size="10.00" fill="#ececec">Борис</text>
</g>
<!-- Созерцатель тени&#45;&#45;Борис -->
<g id="edge84" class="edge"><title>Созерцатель тени&#45;&#45;Борис</title>
<path fill="none" stroke="#eeeeee" stroke-width="0.6" d="M1029.41,-1243.74C1054.14,-1281.42 1111.01,-1368.03 1134.91,-1404.43"/>
</g>
<!-- Созерцатель тени&#45;&#45;Олег -->
<g id="edge85" class="edge"><title>Созерцатель тени&#45;&#45;Олег</title>
<path fill="none" stroke="#eeeeee" stroke-width="0.6" d="M1025.1,-1207.43C1037.39,-1178.41 1063.37,-1120.5 1092.66,-1075.58 1113.96,-1042.9 1144.2,-1008.74 1161.94,-989.653"/>
</g>
<!-- Созерцатель тени&#45;&#45;треугольное существо -->
<g id="edge86" class="edge"><title>Созерцатель тени&#45;&#45;треугольное существо</title>
<path fill="none" stroke="#eeeeee" stroke-width="0.6" d="M1022.86,-1207.59C1030.92,-1178.62 1045.67,-1119.96 1048.68,-1069.01 1050.9,-1031.34 1047.04,-987.211 1044.37,-963.056"/>
</g>
<!-- Тхаги -->
<g id="node30" class="node"><title>Тхаги</title>
<polygon fill="#181818" stroke="#090909" stroke-width="0.8" points="1407.31,-1438.3 1353.31,-1438.3 1353.31,-1402.3 1407.31,-1402.3 1407.31,-1438.3"/>
<text text-anchor="middle" x="1380.31" y="-1417.8" font-family="Helvetica,sans-Serif" font-size="10.00" fill="#fefefe">Тхаги</text>
</g>
<!-- Тхаги&#45;&#45;Борис -->
<g id="edge87" class="edge"><title>Тхаги&#45;&#45;Борис</title>
<path fill="none" stroke="#eeeeee" stroke-width="0.6" d="M1352.95,-1420.38C1307.76,-1420.52 1218.06,-1420.79 1172.99,-1420.93"/>
</g>
<!-- S.N.U.F.F. -->
<g id="node31" class="node"><title>S.N.U.F.F.</title>
<polygon fill="#181818" stroke="#090909" stroke-width="0.8" points="1410.01,-823.632 1345.01,-823.632 1345.01,-787.632 1410.01,-787.632 1410.01,-823.632"/>
<text text-anchor="middle" x="1377.51" y="-803.132" font-family="Helvetica,sans-Serif" font-size="10.00" fill="#fefefe">S.N.U.F.F.</text>
</g>
<!-- Ацтланский календарь -->
<g id="node37" class="node"><title>Ацтланский календарь</title>
<polygon fill="none" stroke="#e8e8e8" stroke-width="0.6" points="1494.37,-495.795 1499.16,-495.894 1503.91,-496.041 1508.58,-496.237 1513.17,-496.481 1517.65,-496.773 1522,-497.11 1526.22,-497.494 1530.28,-497.922 1534.16,-498.393 1537.86,-498.907 1541.36,-499.461 1544.65,-500.054 1547.72,-500.685 1550.56,-501.351 1553.17,-502.052 1555.52,-502.785 1557.63,-503.547 1559.49,-504.338 1561.09,-505.154 1562.43,-505.994 1563.52,-506.855 1564.35,-507.735 1564.93,-508.632 1565.27,-509.543 1565.36,-510.465 1565.21,-511.396 1564.83,-512.333 1564.23,-513.275 1563.41,-514.217 1562.39,-515.159 1561.17,-516.096 1559.77,-517.027 1558.19,-517.949 1556.44,-518.86 1554.54,-519.757 1552.49,-520.637 1550.31,-521.498 1548.01,-522.338 1545.6,-523.154 1543.08,-523.945 1540.46,-524.707 1537.77,-525.44 1534.99,-526.141 1532.15,-526.807 1529.25,-527.438 1526.3,-528.031 1523.31,-528.585 1520.27,-529.099 1517.2,-529.57 1514.1,-529.998 1510.98,-530.382 1507.83,-530.719 1504.67,-531.011 1501.5,-531.255 1498.32,-531.451 1495.13,-531.598 1491.93,-531.697 1488.73,-531.746 1485.53,-531.746 1482.33,-531.697 1479.14,-531.598 1475.95,-531.451 1472.76,-531.255 1469.59,-531.011 1466.43,-530.719 1463.29,-530.382 1460.17,-529.998 1457.07,-529.57 1454,-529.099 1450.96,-528.585 1447.96,-528.031 1445.01,-527.438 1442.11,-526.807 1439.27,-526.141 1436.5,-525.44 1433.8,-524.707 1431.19,-523.945 1428.67,-523.154 1426.25,-522.338 1423.95,-521.498 1421.77,-520.637 1419.73,-519.757 1417.83,-518.86 1416.08,-517.949 1414.5,-517.027 1413.09,-516.096 1411.88,-515.159 1410.85,-514.217 1410.04,-513.275 1409.44,-512.333 1409.06,-511.396 1408.91,-510.465 1409,-509.543 1409.33,-508.632 1409.91,-507.735 1410.75,-506.855 1411.83,-505.994 1413.18,-505.154 1414.78,-504.338 1416.63,-503.547 1418.74,-502.785 1421.1,-502.052 1423.7,-501.351 1426.54,-500.685 1429.61,-500.054 1432.9,-499.461 1436.4,-498.907 1440.1,-498.393 1443.99,-497.922 1448.05,-497.494 1452.26,-497.11 1456.62,-496.773 1461.1,-496.481 1465.69,-496.237 1470.36,-496.041 1475.1,-495.894 1479.89,-495.795 1484.72,-495.746 1489.55,-495.746 1494.37,-495.795"/>
<text text-anchor="middle" x="1487.13" y="-511.246" font-family="Helvetica,sans-Serif" font-size="10.00" fill="#e8e8e8">Ацтланский календарь</text>
</g>
<!-- S.N.U.F.F.&#45;&#45;Ацтланский календарь -->
<g id="edge88" class="edge"><title>S.N.U.F.F.&#45;&#45;Ацтланский календарь</title>
<path fill="none" stroke="#eeeeee" stroke-width="0.6" d="M1383.47,-787.495C1389.35,-769.781 1398.68,-742.09 1407.32,-718.299 1432.58,-648.791 1465.39,-567.161 1479.8,-531.698"/>
</g>
<!-- S.N.U.F.F.&#45;&#45;БПЛА -->
<g id="edge89" class="edge"><title>S.N.U.F.F.&#45;&#45;БПЛА</title>
<path fill="none" stroke="#eeeeee" stroke-width="0.6" d="M1380.81,-823.839C1383.64,-839.586 1387.8,-862.966 1391.23,-883.375 1398.19,-924.768 1397.58,-935.541 1406.15,-976.631 1420.62,-1046.02 1443.36,-1127.27 1453.52,-1162.56"/>
</g>
<!-- гигантская летучая мышь -->
<g id="node44" class="node"><title>гигантская летучая мышь</title>
<polygon fill="none" stroke="#e8e8e8" stroke-width="0.6" points="1503.54,-704.709 1508.75,-704.808 1513.91,-704.955 1518.99,-705.151 1523.97,-705.395 1528.84,-705.686 1533.57,-706.024 1538.15,-706.408 1542.57,-706.836 1546.79,-707.307 1550.81,-707.82 1554.62,-708.375 1558.19,-708.968 1561.53,-709.599 1564.62,-710.265 1567.44,-710.966 1570.01,-711.698 1572.3,-712.461 1574.31,-713.252 1576.05,-714.068 1577.51,-714.908 1578.7,-715.769 1579.6,-716.649 1580.23,-717.546 1580.59,-718.456 1580.69,-719.378 1580.53,-720.31 1580.12,-721.247 1579.47,-722.188 1578.58,-723.131 1577.47,-724.073 1576.14,-725.01 1574.62,-725.941 1572.9,-726.863 1571,-727.774 1568.94,-728.67 1566.71,-729.55 1564.34,-730.412 1561.84,-731.252 1559.22,-732.068 1556.48,-732.859 1553.64,-733.621 1550.71,-734.354 1547.69,-735.054 1544.61,-735.721 1541.45,-736.352 1538.25,-736.945 1534.99,-737.499 1531.69,-738.013 1528.35,-738.484 1524.99,-738.912 1521.59,-739.295 1518.18,-739.633 1514.74,-739.924 1511.29,-740.168 1507.83,-740.364 1504.37,-740.512 1500.89,-740.61 1497.42,-740.66 1493.94,-740.66 1490.46,-740.61 1486.99,-740.512 1483.52,-740.364 1480.06,-740.168 1476.61,-739.924 1473.18,-739.633 1469.76,-739.295 1466.37,-738.912 1463,-738.484 1459.66,-738.013 1456.36,-737.499 1453.11,-736.945 1449.9,-736.352 1446.75,-735.721 1443.66,-735.054 1440.65,-734.354 1437.72,-733.621 1434.88,-732.859 1432.14,-732.068 1429.51,-731.252 1427.01,-730.412 1424.64,-729.55 1422.42,-728.67 1420.35,-727.774 1418.45,-726.863 1416.74,-725.941 1415.21,-725.01 1413.88,-724.073 1412.77,-723.131 1411.89,-722.188 1411.23,-721.247 1410.82,-720.31 1410.66,-719.378 1410.76,-718.456 1411.12,-717.546 1411.75,-716.649 1412.66,-715.769 1413.84,-714.908 1415.3,-714.068 1417.04,-713.252 1419.06,-712.461 1421.35,-711.698 1423.91,-710.966 1426.74,-710.265 1429.82,-709.599 1433.16,-708.968 1436.74,-708.375 1440.54,-707.82 1444.56,-707.307 1448.79,-706.836 1453.2,-706.408 1457.78,-706.024 1462.51,-705.686 1467.38,-705.395 1472.37,-705.151 1477.45,-704.955 1482.6,-704.808 1487.81,-704.709 1493.05,-704.66 1498.3,-704.66 1503.54,-704.709"/>
<text text-anchor="middle" x="1495.68" y="-720.16" font-family="Helvetica,sans-Serif" font-size="10.00" fill="#e8e8e8">гигантская летучая мышь</text>
</g>
<!-- S.N.U.F.F.&#45;&#45;гигантская летучая мышь -->
<g id="edge90" class="edge"><title>S.N.U.F.F.&#45;&#45;гигантская летучая мышь</title>
<path fill="none" stroke="#eeeeee" stroke-width="0.6" d="M1403.15,-787.628C1423.51,-773.33 1451.78,-753.482 1471.7,-739.497"/>
</g>
<!-- Еврайх -->
<g id="node47" class="node"><title>Еврайх</title>
<polygon fill="none" stroke="#e8e8e8" stroke-width="0.6" points="1699.25,-1090.9 1701.21,-1091 1703.14,-1091.15 1705.05,-1091.34 1706.93,-1091.59 1708.76,-1091.88 1710.53,-1092.21 1712.26,-1092.6 1713.91,-1093.03 1715.5,-1093.5 1717.01,-1094.01 1718.44,-1094.56 1719.78,-1095.16 1721.04,-1095.79 1722.2,-1096.46 1723.26,-1097.16 1724.22,-1097.89 1725.08,-1098.65 1725.84,-1099.44 1726.5,-1100.26 1727.04,-1101.1 1727.49,-1101.96 1727.83,-1102.84 1728.07,-1103.74 1728.2,-1104.65 1728.24,-1105.57 1728.18,-1106.5 1728.02,-1107.44 1727.78,-1108.38 1727.44,-1109.32 1727.03,-1110.26 1726.53,-1111.2 1725.96,-1112.13 1725.31,-1113.05 1724.6,-1113.96 1723.82,-1114.86 1722.99,-1115.74 1722.1,-1116.6 1721.16,-1117.44 1720.17,-1118.26 1719.14,-1119.05 1718.07,-1119.81 1716.97,-1120.54 1715.84,-1121.24 1714.68,-1121.91 1713.5,-1122.54 1712.29,-1123.14 1711.07,-1123.69 1709.83,-1124.2 1708.57,-1124.67 1707.31,-1125.1 1706.03,-1125.49 1704.75,-1125.82 1703.46,-1126.11 1702.16,-1126.36 1700.86,-1126.55 1699.56,-1126.7 1698.25,-1126.8 1696.95,-1126.85 1695.64,-1126.85 1694.34,-1126.8 1693.03,-1126.7 1691.73,-1126.55 1690.43,-1126.36 1689.13,-1126.11 1687.84,-1125.82 1686.56,-1125.49 1685.28,-1125.1 1684.02,-1124.67 1682.76,-1124.2 1681.52,-1123.69 1680.3,-1123.14 1679.09,-1122.54 1677.91,-1121.91 1676.75,-1121.24 1675.62,-1120.54 1674.52,-1119.81 1673.45,-1119.05 1672.42,-1118.26 1671.43,-1117.44 1670.49,-1116.6 1669.6,-1115.74 1668.77,-1114.86 1667.99,-1113.96 1667.28,-1113.05 1666.63,-1112.13 1666.06,-1111.2 1665.56,-1110.26 1665.15,-1109.32 1664.81,-1108.38 1664.57,-1107.44 1664.41,-1106.5 1664.35,-1105.57 1664.39,-1104.65 1664.52,-1103.74 1664.76,-1102.84 1665.1,-1101.96 1665.55,-1101.1 1666.09,-1100.26 1666.75,-1099.44 1667.51,-1098.65 1668.37,-1097.89 1669.33,-1097.16 1670.39,-1096.46 1671.55,-1095.79 1672.81,-1095.16 1674.15,-1094.56 1675.58,-1094.01 1677.09,-1093.5 1678.68,-1093.03 1680.33,-1092.6 1682.06,-1092.21 1683.83,-1091.88 1685.66,-1091.59 1687.54,-1091.34 1689.45,-1091.15 1691.38,-1091 1693.34,-1090.9 1695.31,-1090.85 1697.28,-1090.85 1699.25,-1090.9"/>
<text text-anchor="middle" x="1696.29" y="-1106.35" font-family="Helvetica,sans-Serif" font-size="10.00" fill="#e8e8e8">Еврайх</text>
</g>
<!-- S.N.U.F.F.&#45;&#45;Еврайх -->
<g id="edge91" class="edge"><title>S.N.U.F.F.&#45;&#45;Еврайх</title>
<path fill="none" stroke="#eeeeee" stroke-width="0.6" d="M1409.5,-823.67C1448.24,-846.42 1514.3,-888.17 1562.55,-934.231 1615.85,-985.125 1664.8,-1058.53 1685.67,-1091.58"/>
</g>
<!-- S.N.U.F.F.&#45;&#45;Кая -->
<g id="edge92" class="edge"><title>S.N.U.F.F.&#45;&#45;Кая</title>
<path fill="none" stroke="#555555" stroke-width="0.6" d="M1383.74,-823.854C1390.94,-847.667 1400.68,-890.489 1391.23,-925.775 1379.73,-968.725 1349.57,-1012.2 1332.05,-1034.94"/>
</g>
<!-- S.N.U.F.F.&#45;&#45;Семён Левитан -->
<g id="edge93" class="edge"><title>S.N.U.F.F.&#45;&#45;Семён Левитан</title>
<path fill="none" stroke="#eeeeee" stroke-width="0.6" d="M1344.68,-793.674C1320.35,-784.81 1287.2,-772.736 1262.16,-763.613"/>
</g>
<!-- суры -->
<g id="node75" class="node"><title>суры</title>
<polygon fill="none" stroke="#e8e8e8" stroke-width="0.6" points="1700.23,-856.975 1702.01,-857.074 1703.77,-857.221 1705.5,-857.417 1707.2,-857.661 1708.86,-857.952 1710.47,-858.29 1712.03,-858.674 1713.54,-859.102 1714.98,-859.573 1716.35,-860.086 1717.65,-860.641 1718.87,-861.234 1720,-861.865 1721.06,-862.531 1722.02,-863.232 1722.9,-863.964 1723.68,-864.727 1724.36,-865.518 1724.96,-866.334 1725.46,-867.174 1725.86,-868.035 1726.17,-868.915 1726.38,-869.812 1726.51,-870.722 1726.54,-871.644 1726.48,-872.576 1726.34,-873.513 1726.12,-874.454 1725.82,-875.397 1725.44,-876.339 1724.99,-877.276 1724.47,-878.207 1723.88,-879.129 1723.23,-880.04 1722.53,-880.936 1721.77,-881.816 1720.96,-882.678 1720.11,-883.518 1719.22,-884.334 1718.28,-885.125 1717.31,-885.887 1716.31,-886.62 1715.29,-887.32 1714.23,-887.987 1713.16,-888.618 1712.07,-889.211 1710.96,-889.765 1709.83,-890.279 1708.69,-890.75 1707.54,-891.178 1706.39,-891.561 1705.22,-891.899 1704.05,-892.19 1702.87,-892.434 1701.7,-892.63 1700.51,-892.778 1699.33,-892.876 1698.14,-892.926 1696.96,-892.926 1695.77,-892.876 1694.59,-892.778 1693.4,-892.63 1692.22,-892.434 1691.05,-892.19 1689.88,-891.899 1688.71,-891.561 1687.56,-891.178 1686.41,-890.75 1685.27,-890.279 1684.14,-889.765 1683.03,-889.211 1681.94,-888.618 1680.87,-887.987 1679.81,-887.32 1678.79,-886.62 1677.79,-885.887 1676.82,-885.125 1675.88,-884.334 1674.99,-883.518 1674.13,-882.678 1673.33,-881.816 1672.57,-880.936 1671.86,-880.04 1671.22,-879.129 1670.63,-878.207 1670.11,-877.276 1669.66,-876.339 1669.28,-875.397 1668.98,-874.454 1668.76,-873.513 1668.62,-872.576 1668.56,-871.644 1668.59,-870.722 1668.72,-869.812 1668.93,-868.915 1669.24,-868.035 1669.64,-867.174 1670.14,-866.334 1670.74,-865.518 1671.42,-864.727 1672.2,-863.964 1673.08,-863.232 1674.04,-862.531 1675.09,-861.865 1676.23,-861.234 1677.45,-860.641 1678.75,-860.086 1680.12,-859.573 1681.56,-859.102 1683.07,-858.674 1684.63,-858.29 1686.24,-857.952 1687.9,-857.661 1689.6,-857.417 1691.33,-857.221 1693.09,-857.074 1694.87,-856.975 1696.65,-856.926 1698.45,-856.926 1700.23,-856.975"/>
<text text-anchor="middle" x="1697.55" y="-872.426" font-family="Helvetica,sans-Serif" font-size="10.00" fill="#e8e8e8">суры</text>
</g>
<!-- S.N.U.F.F.&#45;&#45;суры -->
<g id="edge94" class="edge"><title>S.N.U.F.F.&#45;&#45;суры</title>
<path fill="none" stroke="#eeeeee" stroke-width="0.6" d="M1410.26,-812.722C1473.03,-826.312 1609.32,-855.822 1668.81,-868.702"/>
</g>
<!-- Бэтман Аполло -->
<g id="node32" class="node"><title>Бэтман Аполло</title>
<polygon fill="#181818" stroke="#090909" stroke-width="0.8" points="1397.73,-572.797 1311.73,-572.797 1311.73,-536.797 1397.73,-536.797 1397.73,-572.797"/>
<text text-anchor="middle" x="1354.73" y="-552.297" font-family="Helvetica,sans-Serif" font-size="10.00" fill="#fefefe">Бэтман Аполло</text>
</g>
<!-- American Dream -->
<g id="node34" class="node"><title>American Dream</title>
<polygon fill="none" stroke="#e8e8e8" stroke-width="0.1" points="1706.99,-647.622 1710.44,-647.72 1713.86,-647.868 1717.22,-648.064 1720.53,-648.308 1723.75,-648.599 1726.89,-648.937 1729.93,-649.32 1732.85,-649.748 1735.65,-650.219 1738.31,-650.733 1740.84,-651.287 1743.21,-651.88 1745.42,-652.511 1747.46,-653.178 1749.34,-653.878 1751.04,-654.611 1752.55,-655.373 1753.89,-656.164 1755.04,-656.98 1756.01,-657.82 1756.79,-658.682 1757.39,-659.562 1757.81,-660.458 1758.05,-661.369 1758.12,-662.291 1758.01,-663.222 1757.74,-664.159 1757.3,-665.101 1756.72,-666.044 1755.98,-666.985 1755.1,-667.922 1754.09,-668.854 1752.95,-669.776 1751.7,-670.686 1750.33,-671.583 1748.85,-672.463 1747.28,-673.324 1745.62,-674.164 1743.88,-674.98 1742.07,-675.771 1740.19,-676.534 1738.24,-677.266 1736.25,-677.967 1734.2,-678.633 1732.11,-679.264 1729.99,-679.857 1727.83,-680.412 1725.64,-680.925 1723.43,-681.396 1721.2,-681.824 1718.95,-682.208 1716.69,-682.546 1714.41,-682.837 1712.13,-683.081 1709.83,-683.277 1707.53,-683.424 1705.23,-683.523 1702.93,-683.572 1700.62,-683.572 1698.32,-683.523 1696.02,-683.424 1693.72,-683.277 1691.43,-683.081 1689.14,-682.837 1686.87,-682.546 1684.6,-682.208 1682.35,-681.824 1680.12,-681.396 1677.91,-680.925 1675.72,-680.412 1673.56,-679.857 1671.44,-679.264 1669.35,-678.633 1667.3,-677.967 1665.31,-677.266 1663.36,-676.534 1661.48,-675.771 1659.67,-674.98 1657.93,-674.164 1656.27,-673.324 1654.7,-672.463 1653.23,-671.583 1651.86,-670.686 1650.6,-669.776 1649.46,-668.854 1648.45,-667.922 1647.57,-666.985 1646.84,-666.044 1646.25,-665.101 1645.82,-664.159 1645.54,-663.222 1645.44,-662.291 1645.5,-661.369 1645.74,-660.458 1646.16,-659.562 1646.76,-658.682 1647.54,-657.82 1648.51,-656.98 1649.66,-656.164 1651,-655.373 1652.52,-654.611 1654.22,-653.878 1656.09,-653.178 1658.14,-652.511 1660.35,-651.88 1662.72,-651.287 1665.24,-650.733 1667.9,-650.219 1670.7,-649.748 1673.63,-649.32 1676.66,-648.937 1679.8,-648.599 1683.03,-648.308 1686.33,-648.064 1689.69,-647.868 1693.11,-647.72 1696.56,-647.622 1700.04,-647.572 1703.52,-647.572 1706.99,-647.622"/>
<text text-anchor="middle" x="1701.78" y="-663.072" font-family="Helvetica,sans-Serif" font-size="10.00" fill="#e8e8e8">American Dream</text>
</g>
<!-- Бэтман Аполло&#45;&#45;American Dream -->
<g id="edge95" class="edge"><title>Бэтман Аполло&#45;&#45;American Dream</title>
<path fill="none" stroke="#555555" stroke-width="0.6" d="M1397.98,-568.603C1464.94,-589.975 1592.88,-630.814 1659.34,-652.027"/>
</g>
<!-- Бэтман Аполло&#45;&#45;Ацтланский календарь -->
<g id="edge96" class="edge"><title>Бэтман Аполло&#45;&#45;Ацтланский календарь</title>
<path fill="none" stroke="#eeeeee" stroke-width="0.6" d="M1398.08,-541.355C1412.71,-536.819 1429.04,-531.756 1443.68,-527.218"/>
</g>
<!-- Бэтман Аполло&#45;&#45;гигантская летучая мышь -->
<g id="edge97" class="edge"><title>Бэтман Аполло&#45;&#45;гигантская летучая мышь</title>
<path fill="none" stroke="#eeeeee" stroke-width="0.6" d="M1370.08,-573.081C1397.26,-605.455 1453.54,-672.476 1480.56,-704.653"/>
</g>
<!-- Бэтман Аполло&#45;&#45;клуб «Haute SOS» -->
<g id="edge98" class="edge"><title>Бэтман Аполло&#45;&#45;клуб «Haute SOS»</title>
<path fill="none" stroke="#eeeeee" stroke-width="0.6" d="M1397.74,-552.594C1438.41,-549.406 1500.57,-541.64 1551.29,-522.784 1589.15,-508.707 1632.37,-492.11 1661.77,-480.738"/>
</g>
<!-- Бэтман Аполло&#45;&#45;Михаил Ботвинник -->
<g id="edge99" class="edge"><title>Бэтман Аполло&#45;&#45;Михаил Ботвинник</title>
<path fill="none" stroke="#eeeeee" stroke-width="0.6" d="M1374.06,-536.726C1383.95,-527.583 1396.23,-516.373 1407.42,-506.568 1503.06,-422.814 1620.51,-326.449 1667.69,-287.993"/>
</g>
<!-- Бэтман Аполло&#45;&#45;Михаил Непойман -->
<g id="edge100" class="edge"><title>Бэтман Аполло&#45;&#45;Михаил Непойман</title>
<path fill="none" stroke="#eeeeee" stroke-width="0.6" d="M1311.48,-560.873C1299.39,-562.57 1286.11,-564.437 1273.47,-566.212"/>
</g>
<!-- Бэтман Аполло&#45;&#45;Рама -->
<g id="edge101" class="edge"><title>Бэтман Аполло&#45;&#45;Рама</title>
<path fill="none" stroke="#eeeeee" stroke-width="0.6" d="M1350.17,-572.883C1344.41,-595.79 1334.53,-635.013 1328.8,-657.79"/>
</g>
<!-- Бэтман Аполло&#45;&#45;халдеи -->
<g id="edge102" class="edge"><title>Бэтман Аполло&#45;&#45;халдеи</title>
<path fill="none" stroke="#eeeeee" stroke-width="0.6" d="M1322.77,-572.816C1278.24,-597.922 1198.54,-642.857 1158.81,-665.257"/>
</g>
<!-- Любовь к трём цукербринам -->
<g id="node33" class="node"><title>Любовь к трём цукербринам</title>
<polygon fill="#181818" stroke="#090909" stroke-width="0.8" points="1559.35,-973.431 1409.35,-973.431 1409.35,-937.431 1559.35,-937.431 1559.35,-973.431"/>
<text text-anchor="middle" x="1484.35" y="-952.931" font-family="Helvetica,sans-Serif" font-size="10.00" fill="#fefefe">Любовь к трём цукербринам</text>
</g>
<!-- Любовь к трём цукербринам&#45;&#45;American Dream -->
<g id="edge103" class="edge"><title>Любовь к трём цукербринам&#45;&#45;American Dream</title>
<path fill="none" stroke="#555555" stroke-width="0.6" d="M1497.95,-937.299C1537.18,-884.996 1650.21,-734.317 1688.73,-682.96"/>
</g>
<!-- Любовь к трём цукербринам&#45;&#45;Еврайх -->
<g id="edge104" class="edge"><title>Любовь к трём цукербринам&#45;&#45;Еврайх</title>
<path fill="none" stroke="#eeeeee" stroke-width="0.6" d="M1509.49,-973.632C1551.82,-1004.27 1636.5,-1065.57 1675.61,-1093.88"/>
</g>
<!-- Любовь к трём цукербринам&#45;&#45;Кая -->
<g id="edge105" class="edge"><title>Любовь к трём цукербринам&#45;&#45;Кая</title>
<path fill="none" stroke="#555555" stroke-width="0.6" d="M1452.84,-973.652C1419.47,-992.954 1367.77,-1022.86 1339.36,-1039.29"/>
</g>
<!-- Любовь к трём цукербринам&#45;&#45;суры -->
<g id="edge106" class="edge"><title>Любовь к трём цукербринам&#45;&#45;суры</title>
<path fill="none" stroke="#eeeeee" stroke-width="0.6" d="M1532.19,-937.364C1576.64,-920.582 1640.9,-896.318 1674.73,-883.542"/>
</g>
</g>
</svg>
