<?xml version="1.0" encoding="UTF-8" standalone="no"?>
<!DOCTYPE svg PUBLIC "-//W3C//DTD SVG 1.1//EN"
 "http://www.w3.org/Graphics/SVG/1.1/DTD/svg11.dtd">
<!-- Generated by graphviz version 2.38.0 (20140413.2041)
 -->
<!-- Title: %3 Pages: 1 -->
<svg width="5559pt" height="3186pt"
 viewBox="0.00 0.00 5559.08 3186.29" xmlns="http://www.w3.org/2000/svg" xmlns:xlink="http://www.w3.org/1999/xlink">
<g id="graph0" class="graph" transform="scale(1 1) rotate(0) translate(4 3182.29)">
<title>%3</title>
<polygon fill="#1f1f1f" stroke="none" points="-4,4 -4,-3182.29 5555.08,-3182.29 5555.08,4 -4,4"/>
<!-- Оружие возмездия -->
<g id="node1" class="node"><title>Оружие возмездия</title>
<polygon fill="#181818" stroke="#090909" stroke-width="0.8" points="158.431,-182.371 51.4309,-182.371 51.4309,-146.371 158.431,-146.371 158.431,-182.371"/>
<text text-anchor="middle" x="104.931" y="-161.871" font-family="Helvetica,sans-Serif" font-size="10.00" fill="#fefefe">Оружие возмездия</text>
</g>
<!-- П. Стецюк -->
<g id="node65" class="node"><title>П. Стецюк</title>
<ellipse fill="#2f2f2f" stroke="#ececec" stroke-width="0.6" cx="49.4371" cy="-1134.52" rx="39.3809" ry="18"/>
<text text-anchor="middle" x="49.4371" y="-1132.02" font-family="Helvetica,sans-Serif" font-size="10.00" fill="#ececec">П. Стецюк</text>
</g>
<!-- Оружие возмездия&#45;&#45;П. Стецюк -->
<g id="edge1" class="edge"><title>Оружие возмездия&#45;&#45;П. Стецюк</title>
<path fill="none" stroke="#eeeeee" stroke-width="0.6" d="M103.896,-182.459C96.9746,-303.466 57.4561,-994.333 50.4869,-1116.17"/>
</g>
<!-- Реконструктор -->
<g id="node2" class="node"><title>Реконструктор</title>
<polygon fill="#181818" stroke="#090909" stroke-width="0.8" points="1202.93,-932.009 1114.93,-932.009 1114.93,-896.009 1202.93,-896.009 1202.93,-932.009"/>
<text text-anchor="middle" x="1158.93" y="-911.509" font-family="Helvetica,sans-Serif" font-size="10.00" fill="#fefefe">Реконструктор</text>
</g>
<!-- Реконструктор&#45;&#45;П. Стецюк -->
<g id="edge2" class="edge"><title>Реконструктор&#45;&#45;П. Стецюк</title>
<path fill="none" stroke="#eeeeee" stroke-width="0.6" d="M1114.75,-922.789C933.792,-958.755 250.942,-1094.47 85.6366,-1127.33"/>
</g>
<!-- Сероб Налбандян -->
<g id="node76" class="node"><title>Сероб Налбандян</title>
<ellipse fill="#2f2f2f" stroke="#ececec" stroke-width="0.6" cx="1142.4" cy="-2176.98" rx="58.0561" ry="18"/>
<text text-anchor="middle" x="1142.4" y="-2174.48" font-family="Helvetica,sans-Serif" font-size="10.00" fill="#ececec">Сероб Налбандян</text>
</g>
<!-- Реконструктор&#45;&#45;Сероб Налбандян -->
<g id="edge3" class="edge"><title>Реконструктор&#45;&#45;Сероб Налбандян</title>
<path fill="none" stroke="#eeeeee" stroke-width="0.6" d="M1159.09,-932.118C1159.74,-1008.73 1161.95,-1313.81 1158.58,-1564.5 1155.41,-1799.56 1145.65,-2085.22 1143.05,-2158.94"/>
</g>
<!-- День бульдозериста -->
<g id="node3" class="node"><title>День бульдозериста</title>
<polygon fill="#181818" stroke="#090909" stroke-width="0.8" points="4203.24,-3083.69 4089.24,-3083.69 4089.24,-3047.69 4203.24,-3047.69 4203.24,-3083.69"/>
<text text-anchor="middle" x="4146.24" y="-3063.19" font-family="Helvetica,sans-Serif" font-size="10.00" fill="#fefefe">День бульдозериста</text>
</g>
<!-- Померанцев (Константин Победоносцев) -->
<g id="node69" class="node"><title>Померанцев (Константин Победоносцев)</title>
<ellipse fill="#2f2f2f" stroke="#ececec" stroke-width="0.6" cx="3486.9" cy="-3095.56" rx="121.707" ry="18"/>
<text text-anchor="middle" x="3486.9" y="-3093.06" font-family="Helvetica,sans-Serif" font-size="10.00" fill="#ececec">Померанцев (Константин Победоносцев)</text>
</g>
<!-- День бульдозериста&#45;&#45;Померанцев (Константин Победоносцев) -->
<g id="edge4" class="edge"><title>День бульдозериста&#45;&#45;Померанцев (Константин Победоносцев)</title>
<path fill="none" stroke="#eeeeee" stroke-width="0.6" d="M4089.17,-3068.27C3981.4,-3073.16 3745.99,-3083.82 3603.5,-3090.27"/>
</g>
<!-- товарищ Бабаясин -->
<g id="node80" class="node"><title>товарищ Бабаясин</title>
<ellipse fill="#2f2f2f" stroke="#ececec" stroke-width="0.6" cx="4283.41" cy="-2345.21" rx="61.4427" ry="18"/>
<text text-anchor="middle" x="4283.41" y="-2342.71" font-family="Helvetica,sans-Serif" font-size="10.00" fill="#ececec">товарищ Бабаясин</text>
</g>
<!-- День бульдозериста&#45;&#45;товарищ Бабаясин -->
<g id="edge5" class="edge"><title>День бульдозериста&#45;&#45;товарищ Бабаясин</title>
<path fill="none" stroke="#eeeeee" stroke-width="0.6" d="M4149.7,-3047.52C4168.77,-2947.35 4260.91,-2463.38 4279.96,-2363.33"/>
</g>
<!-- Миттельшпиль -->
<g id="node4" class="node"><title>Миттельшпиль</title>
<polygon fill="#181818" stroke="#090909" stroke-width="0.8" points="3198.01,-2583.11 3112.01,-2583.11 3112.01,-2547.11 3198.01,-2547.11 3198.01,-2583.11"/>
<text text-anchor="middle" x="3155.01" y="-2562.61" font-family="Helvetica,sans-Serif" font-size="10.00" fill="#fefefe">Миттельшпиль</text>
</g>
<!-- Нелли -->
<g id="node63" class="node"><title>Нелли</title>
<ellipse fill="#2f2f2f" stroke="#ececec" stroke-width="0.6" cx="2963.57" cy="-3144.97" rx="27.1572" ry="18"/>
<text text-anchor="middle" x="2963.57" y="-3142.47" font-family="Helvetica,sans-Serif" font-size="10.00" fill="#ececec">Нелли</text>
</g>
<!-- Миттельшпиль&#45;&#45;Нелли -->
<g id="edge6" class="edge"><title>Миттельшпиль&#45;&#45;Нелли</title>
<path fill="none" stroke="#eeeeee" stroke-width="0.6" d="M3148.97,-2583.42C3120.24,-2670.44 2997.75,-3041.47 2969.43,-3127.23"/>
</g>
<!-- Музыка со столба -->
<g id="node5" class="node"><title>Музыка со столба</title>
<polygon fill="#181818" stroke="#090909" stroke-width="0.8" points="101,-1986.84 -2.27374e-13,-1986.84 -2.27374e-13,-1950.84 101,-1950.84 101,-1986.84"/>
<text text-anchor="middle" x="50.5" y="-1966.34" font-family="Helvetica,sans-Serif" font-size="10.00" fill="#fefefe">Музыка со столба</text>
</g>
<!-- Матвей (Гиммлер) -->
<g id="node57" class="node"><title>Матвей (Гиммлер)</title>
<ellipse fill="#2f2f2f" stroke="#ececec" stroke-width="0.6" cx="91.6364" cy="-2949.29" rx="59.4099" ry="18"/>
<text text-anchor="middle" x="91.6364" y="-2946.79" font-family="Helvetica,sans-Serif" font-size="10.00" fill="#ececec">Матвей (Гиммлер)</text>
</g>
<!-- Музыка со столба&#45;&#45;Матвей (Гиммлер) -->
<g id="edge7" class="edge"><title>Музыка со столба&#45;&#45;Матвей (Гиммлер)</title>
<path fill="none" stroke="#eeeeee" stroke-width="0.6" d="M51.267,-1987.12C56.4034,-2109.54 85.755,-2809.11 90.8747,-2931.14"/>
</g>
<!-- Откровение Крегера -->
<g id="node6" class="node"><title>Откровение Крегера</title>
<polygon fill="#181818" stroke="#090909" stroke-width="0.8" points="1280.04,-3030.84 1165.04,-3030.84 1165.04,-2994.84 1280.04,-2994.84 1280.04,-3030.84"/>
<text text-anchor="middle" x="1222.54" y="-3010.34" font-family="Helvetica,sans-Serif" font-size="10.00" fill="#fefefe">Откровение Крегера</text>
</g>
<!-- Откровение Крегера&#45;&#45;Матвей (Гиммлер) -->
<g id="edge8" class="edge"><title>Откровение Крегера&#45;&#45;Матвей (Гиммлер)</title>
<path fill="none" stroke="#eeeeee" stroke-width="0.6" d="M1164.91,-3009.6C971.246,-2998.72 345.166,-2963.54 150.173,-2952.58"/>
</g>
<!-- Откровение Крегера&#45;&#45;Сероб Налбандян -->
<g id="edge9" class="edge"><title>Откровение Крегера&#45;&#45;Сероб Налбандян</title>
<path fill="none" stroke="#eeeeee" stroke-width="0.6" d="M1220.79,-2994.61C1210.2,-2884.07 1154.66,-2304.83 1144.12,-2194.97"/>
</g>
<!-- Принц Госплана -->
<g id="node7" class="node"><title>Принц Госплана</title>
<polygon fill="#181818" stroke="#090909" stroke-width="0.8" points="1937.34,-3107.08 1844.34,-3107.08 1844.34,-3071.08 1937.34,-3071.08 1937.34,-3107.08"/>
<text text-anchor="middle" x="1890.84" y="-3086.58" font-family="Helvetica,sans-Serif" font-size="10.00" fill="#fefefe">Принц Госплана</text>
</g>
<!-- Саша Лапин -->
<g id="node74" class="node"><title>Саша Лапин</title>
<ellipse fill="#2f2f2f" stroke="#ececec" stroke-width="0.6" cx="2452.49" cy="-2253.97" rx="42.9448" ry="18"/>
<text text-anchor="middle" x="2452.49" y="-2251.47" font-family="Helvetica,sans-Serif" font-size="10.00" fill="#ececec">Саша Лапин</text>
</g>
<!-- Принц Госплана&#45;&#45;Саша Лапин -->
<g id="edge10" class="edge"><title>Принц Госплана&#45;&#45;Саша Лапин</title>
<path fill="none" stroke="#eeeeee" stroke-width="0.6" d="M1896.82,-3071.03C1920.51,-3001.13 2012.78,-2743.03 2141.63,-2561.5 2232.15,-2433.97 2378.28,-2312.55 2431.91,-2269.99"/>
</g>
<!-- Проблема верволка в средней полосе -->
<g id="node8" class="node"><title>Проблема верволка в средней полосе</title>
<polygon fill="#181818" stroke="#090909" stroke-width="0.8" points="2337.83,-2600.7 2144.83,-2600.7 2144.83,-2564.7 2337.83,-2564.7 2337.83,-2600.7"/>
<text text-anchor="middle" x="2241.33" y="-2580.2" font-family="Helvetica,sans-Serif" font-size="10.00" fill="#fefefe">Проблема верволка в средней полосе</text>
</g>
<!-- полковник Лебеденко -->
<g id="node68" class="node"><title>полковник Лебеденко</title>
<ellipse fill="#2f2f2f" stroke="#ececec" stroke-width="0.6" cx="2677.6" cy="-2182.9" rx="68.7474" ry="18"/>
<text text-anchor="middle" x="2677.6" y="-2180.4" font-family="Helvetica,sans-Serif" font-size="10.00" fill="#ececec">полковник Лебеденко</text>
</g>
<!-- Проблема верволка в средней полосе&#45;&#45;полковник Лебеденко -->
<g id="edge11" class="edge"><title>Проблема верволка в средней полосе&#45;&#45;полковник Лебеденко</title>
<path fill="none" stroke="#eeeeee" stroke-width="0.6" d="M2261.21,-2564.49C2334.22,-2497.58 2587.04,-2265.89 2658.59,-2200.31"/>
</g>
<!-- Проблема верволка в средней полосе&#45;&#45;Саша Лапин -->
<g id="edge12" class="edge"><title>Проблема верволка в средней полосе&#45;&#45;Саша Лапин</title>
<path fill="none" stroke="#eeeeee" stroke-width="0.6" d="M2252.98,-2564.56C2289.99,-2506.95 2404.54,-2328.62 2441.13,-2271.65"/>
</g>
<!-- Омон Ра -->
<g id="node9" class="node"><title>Омон Ра</title>
<polygon fill="#181818" stroke="#090909" stroke-width="0.8" points="1155.38,-1561.3 1099.38,-1561.3 1099.38,-1525.3 1155.38,-1525.3 1155.38,-1561.3"/>
<text text-anchor="middle" x="1127.38" y="-1540.8" font-family="Helvetica,sans-Serif" font-size="10.00" fill="#fefefe">Омон Ра</text>
</g>
<!-- Бункер под Лубянкой -->
<g id="node43" class="node"><title>Бункер под Лубянкой</title>
<polygon fill="none" stroke="#e8e8e8" stroke-width="0.6" points="1743.18,-1297.41 1747.66,-1297.51 1752.1,-1297.66 1756.47,-1297.86 1760.76,-1298.1 1764.95,-1298.39 1769.03,-1298.73 1772.97,-1299.11 1776.77,-1299.54 1780.41,-1300.01 1783.87,-1300.53 1787.15,-1301.08 1790.22,-1301.67 1793.1,-1302.3 1795.75,-1302.97 1798.19,-1303.67 1800.4,-1304.4 1802.37,-1305.17 1804.1,-1305.96 1805.6,-1306.77 1806.86,-1307.61 1807.88,-1308.47 1808.66,-1309.35 1809.2,-1310.25 1809.51,-1311.16 1809.59,-1312.08 1809.46,-1313.01 1809.1,-1313.95 1808.54,-1314.89 1807.78,-1315.84 1806.82,-1316.78 1805.68,-1317.71 1804.37,-1318.65 1802.89,-1319.57 1801.25,-1320.48 1799.47,-1321.38 1797.56,-1322.26 1795.52,-1323.12 1793.37,-1323.96 1791.11,-1324.77 1788.75,-1325.56 1786.3,-1326.33 1783.78,-1327.06 1781.18,-1327.76 1778.53,-1328.43 1775.81,-1329.06 1773.05,-1329.65 1770.25,-1330.2 1767.41,-1330.72 1764.53,-1331.19 1761.64,-1331.62 1758.71,-1332 1755.77,-1332.34 1752.82,-1332.63 1749.85,-1332.87 1746.87,-1333.07 1743.88,-1333.22 1740.89,-1333.32 1737.9,-1333.36 1734.91,-1333.36 1731.91,-1333.32 1728.92,-1333.22 1725.94,-1333.07 1722.96,-1332.87 1719.99,-1332.63 1717.03,-1332.34 1714.09,-1332 1711.17,-1331.62 1708.27,-1331.19 1705.4,-1330.72 1702.56,-1330.2 1699.75,-1329.65 1696.99,-1329.06 1694.28,-1328.43 1691.62,-1327.76 1689.03,-1327.06 1686.5,-1326.33 1684.06,-1325.56 1681.7,-1324.77 1679.44,-1323.96 1677.28,-1323.12 1675.24,-1322.26 1673.33,-1321.38 1671.55,-1320.48 1669.92,-1319.57 1668.44,-1318.65 1667.12,-1317.71 1665.98,-1316.78 1665.03,-1315.84 1664.27,-1314.89 1663.7,-1313.95 1663.35,-1313.01 1663.21,-1312.08 1663.29,-1311.16 1663.61,-1310.25 1664.15,-1309.35 1664.93,-1308.47 1665.95,-1307.61 1667.2,-1306.77 1668.7,-1305.96 1670.44,-1305.17 1672.41,-1304.4 1674.62,-1303.67 1677.05,-1302.97 1679.71,-1302.3 1682.58,-1301.67 1685.66,-1301.08 1688.94,-1300.53 1692.4,-1300.01 1696.03,-1299.54 1699.83,-1299.11 1703.78,-1298.73 1707.85,-1298.39 1712.04,-1298.1 1716.33,-1297.86 1720.71,-1297.66 1725.15,-1297.51 1729.63,-1297.41 1734.14,-1297.36 1738.66,-1297.36 1743.18,-1297.41"/>
<text text-anchor="middle" x="1736.4" y="-1312.86" font-family="Helvetica,sans-Serif" font-size="10.00" fill="#e8e8e8">Бункер под Лубянкой</text>
</g>
<!-- Омон Ра&#45;&#45;Бункер под Лубянкой -->
<g id="edge13" class="edge"><title>Омон Ра&#45;&#45;Бункер под Лубянкой</title>
<path fill="none" stroke="#eeeeee" stroke-width="0.6" d="M1155.53,-1532.76C1254.37,-1495.77 1585.63,-1371.79 1698.42,-1329.58"/>
</g>
<!-- Омон Ра&#45;&#45;Сероб Налбандян -->
<g id="edge14" class="edge"><title>Омон Ра&#45;&#45;Сероб Налбандян</title>
<path fill="none" stroke="#eeeeee" stroke-width="0.6" d="M1127.81,-1561.58C1130,-1653.81 1139.8,-2067.23 1141.97,-2158.92"/>
</g>
<!-- Ultima Тулеев, или Дао выборов -->
<g id="node10" class="node"><title>Ultima Тулеев, или Дао выборов</title>
<polygon fill="#181818" stroke="#090909" stroke-width="0.8" points="2650.57,-1351.02 2483.57,-1351.02 2483.57,-1315.02 2650.57,-1315.02 2650.57,-1351.02"/>
<text text-anchor="middle" x="2567.07" y="-1330.52" font-family="Helvetica,sans-Serif" font-size="10.00" fill="#fefefe">Ultima Тулеев, или Дао выборов</text>
</g>
<!-- Силикон Графикс -->
<g id="node77" class="node"><title>Силикон Графикс</title>
<polygon fill="none" stroke="#e8e8e8" stroke-width="0.6" points="2697.13,-1464.14 2701.09,-1464.23 2705.01,-1464.38 2708.87,-1464.58 2712.66,-1464.82 2716.36,-1465.11 2719.96,-1465.45 2723.45,-1465.83 2726.8,-1466.26 2730.01,-1466.73 2733.07,-1467.25 2735.96,-1467.8 2738.68,-1468.39 2741.22,-1469.03 2743.57,-1469.69 2745.72,-1470.39 2747.66,-1471.13 2749.41,-1471.89 2750.94,-1472.68 2752.26,-1473.49 2753.37,-1474.33 2754.27,-1475.2 2754.96,-1476.08 2755.44,-1476.97 2755.71,-1477.88 2755.79,-1478.81 2755.67,-1479.74 2755.35,-1480.67 2754.86,-1481.62 2754.18,-1482.56 2753.34,-1483.5 2752.33,-1484.44 2751.17,-1485.37 2749.86,-1486.29 2748.42,-1487.2 2746.85,-1488.1 2745.16,-1488.98 2743.36,-1489.84 2741.46,-1490.68 2739.46,-1491.49 2737.38,-1492.29 2735.22,-1493.05 2732.99,-1493.78 2730.7,-1494.48 2728.35,-1495.15 2725.96,-1495.78 2723.52,-1496.37 2721.04,-1496.93 2718.53,-1497.44 2715.99,-1497.91 2713.43,-1498.34 2710.85,-1498.72 2708.26,-1499.06 2705.64,-1499.35 2703.02,-1499.6 2700.39,-1499.79 2697.76,-1499.94 2695.11,-1500.04 2692.47,-1500.09 2689.83,-1500.09 2687.18,-1500.04 2684.54,-1499.94 2681.91,-1499.79 2679.28,-1499.6 2676.65,-1499.35 2674.04,-1499.06 2671.45,-1498.72 2668.86,-1498.34 2666.3,-1497.91 2663.77,-1497.44 2661.26,-1496.93 2658.78,-1496.37 2656.34,-1495.78 2653.95,-1495.15 2651.6,-1494.48 2649.31,-1493.78 2647.08,-1493.05 2644.92,-1492.29 2642.84,-1491.49 2640.84,-1490.68 2638.94,-1489.84 2637.14,-1488.98 2635.45,-1488.1 2633.88,-1487.2 2632.43,-1486.29 2631.13,-1485.37 2629.97,-1484.44 2628.96,-1483.5 2628.12,-1482.56 2627.44,-1481.62 2626.94,-1480.67 2626.63,-1479.74 2626.51,-1478.81 2626.58,-1477.88 2626.86,-1476.97 2627.34,-1476.08 2628.03,-1475.2 2628.93,-1474.33 2630.04,-1473.49 2631.36,-1472.68 2632.89,-1471.89 2634.63,-1471.13 2636.58,-1470.39 2638.73,-1469.69 2641.08,-1469.03 2643.62,-1468.39 2646.34,-1467.8 2649.23,-1467.25 2652.29,-1466.73 2655.5,-1466.26 2658.85,-1465.83 2662.33,-1465.45 2665.93,-1465.11 2669.64,-1464.82 2673.43,-1464.58 2677.29,-1464.38 2681.21,-1464.23 2685.17,-1464.14 2689.15,-1464.09 2693.15,-1464.09 2697.13,-1464.14"/>
<text text-anchor="middle" x="2691.15" y="-1479.59" font-family="Helvetica,sans-Serif" font-size="10.00" fill="#e8e8e8">Силикон Графикс</text>
</g>
<!-- Ultima Тулеев, или Дао выборов&#45;&#45;Силикон Графикс -->
<g id="edge15" class="edge"><title>Ultima Тулеев, или Дао выборов&#45;&#45;Силикон Графикс</title>
<path fill="none" stroke="#eeeeee" stroke-width="0.6" d="M2582.28,-1351.3C2606.23,-1380.06 2652.42,-1435.56 2676.2,-1464.12"/>
</g>
<!-- Чапаев и Пустота -->
<g id="node11" class="node"><title>Чапаев и Пустота</title>
<polygon fill="#181818" stroke="#090909" stroke-width="0.8" points="3940.66,-1926.94 3839.66,-1926.94 3839.66,-1890.94 3940.66,-1890.94 3940.66,-1926.94"/>
<text text-anchor="middle" x="3890.16" y="-1906.44" font-family="Helvetica,sans-Serif" font-size="10.00" fill="#fefefe">Чапаев и Пустота</text>
</g>
<!-- Анна -->
<g id="node38" class="node"><title>Анна</title>
<ellipse fill="none" stroke="#ececec" stroke-width="0.1" cx="3622.92" cy="-2390.76" rx="27" ry="18"/>
<text text-anchor="middle" x="3622.92" y="-2388.26" font-family="Helvetica,sans-Serif" font-size="10.00" fill="#ececec">Анна</text>
</g>
<!-- Чапаев и Пустота&#45;&#45;Анна -->
<g id="edge16" class="edge"><title>Чапаев и Пустота&#45;&#45;Анна</title>
<path fill="none" stroke="#555555" stroke-width="0.6" d="M3880.17,-1926.95C3837.86,-2003.23 3673.7,-2299.2 3632.39,-2373.67"/>
</g>
<!-- Чапаев и Пустота&#45;&#45;Анна -->
<g id="edge23" class="edge"><title>Чапаев и Пустота&#45;&#45;Анна</title>
<path fill="none" stroke="#555555" stroke-width="0.6" d="M3880.17,-1926.95C3837.86,-2003.23 3673.7,-2299.2 3632.39,-2373.67"/>
</g>
<!-- Вовчик Малой -->
<g id="node45" class="node"><title>Вовчик Малой</title>
<ellipse fill="#2f2f2f" stroke="#ececec" stroke-width="0.6" cx="3527.75" cy="-1965.76" rx="48.7185" ry="18"/>
<text text-anchor="middle" x="3527.75" y="-1963.26" font-family="Helvetica,sans-Serif" font-size="10.00" fill="#ececec">Вовчик Малой</text>
</g>
<!-- Чапаев и Пустота&#45;&#45;Вовчик Малой -->
<g id="edge17" class="edge"><title>Чапаев и Пустота&#45;&#45;Вовчик Малой</title>
<path fill="none" stroke="#eeeeee" stroke-width="0.6" d="M3839.39,-1916.9C3768.38,-1928.03 3640.53,-1948.08 3572.76,-1958.71"/>
</g>
<!-- Чапаев и Пустота&#45;&#45;Вовчик Малой -->
<g id="edge24" class="edge"><title>Чапаев и Пустота&#45;&#45;Вовчик Малой</title>
<path fill="none" stroke="#eeeeee" stroke-width="0.6" d="M3839.39,-1916.9C3768.38,-1928.03 3640.53,-1948.08 3572.76,-1958.71"/>
</g>
<!-- граф Т. -->
<g id="node48" class="node"><title>граф Т.</title>
<ellipse fill="#2f2f2f" stroke="#ececec" stroke-width="0.6" cx="3228.21" cy="-2205.23" rx="31.3996" ry="18"/>
<text text-anchor="middle" x="3228.21" y="-2202.73" font-family="Helvetica,sans-Serif" font-size="10.00" fill="#ececec">граф Т.</text>
</g>
<!-- Чапаев и Пустота&#45;&#45;граф Т. -->
<g id="edge18" class="edge"><title>Чапаев и Пустота&#45;&#45;граф Т.</title>
<path fill="none" stroke="#eeeeee" stroke-width="0.6" d="M3849.75,-1927.03C3725.68,-1982.56 3352.62,-2149.55 3252.93,-2194.17"/>
</g>
<!-- Чапаев и Пустота&#45;&#45;граф Т. -->
<g id="edge25" class="edge"><title>Чапаев и Пустота&#45;&#45;граф Т.</title>
<path fill="none" stroke="#eeeeee" stroke-width="0.6" d="M3849.75,-1927.03C3725.68,-1982.56 3352.62,-2149.55 3252.93,-2194.17"/>
</g>
<!-- лама Джамбон Тулку -->
<g id="node52" class="node"><title>лама Джамбон Тулку</title>
<ellipse fill="#2f2f2f" stroke="#ececec" stroke-width="0.6" cx="3054.35" cy="-1765.72" rx="67.893" ry="18"/>
<text text-anchor="middle" x="3054.35" y="-1763.22" font-family="Helvetica,sans-Serif" font-size="10.00" fill="#ececec">лама Джамбон Тулку</text>
</g>
<!-- Чапаев и Пустота&#45;&#45;лама Джамбон Тулку -->
<g id="edge19" class="edge"><title>Чапаев и Пустота&#45;&#45;лама Джамбон Тулку</title>
<path fill="none" stroke="#eeeeee" stroke-width="0.6" d="M3839.45,-1900.25C3692.32,-1875.04 3265.99,-1801.99 3111.29,-1775.48"/>
</g>
<!-- Чапаев и Пустота&#45;&#45;лама Джамбон Тулку -->
<g id="edge26" class="edge"><title>Чапаев и Пустота&#45;&#45;лама Джамбон Тулку</title>
<path fill="none" stroke="#eeeeee" stroke-width="0.6" d="M3839.45,-1900.25C3692.32,-1875.04 3265.99,-1801.99 3111.29,-1775.48"/>
</g>
<!-- Петр Пустота -->
<g id="node67" class="node"><title>Петр Пустота</title>
<ellipse fill="#2f2f2f" stroke="#ececec" stroke-width="0.6" cx="5502.22" cy="-2199.7" rx="48.7185" ry="18"/>
<text text-anchor="middle" x="5502.22" y="-2197.2" font-family="Helvetica,sans-Serif" font-size="10.00" fill="#ececec">Петр Пустота</text>
</g>
<!-- Чапаев и Пустота&#45;&#45;Петр Пустота -->
<g id="edge20" class="edge"><title>Чапаев и Пустота&#45;&#45;Петр Пустота</title>
<path fill="none" stroke="#eeeeee" stroke-width="0.6" d="M3941.07,-1918.12C4184.85,-1962.09 5230.49,-2150.69 5458.29,-2191.78"/>
</g>
<!-- Чапаев и Пустота&#45;&#45;Петр Пустота -->
<g id="edge27" class="edge"><title>Чапаев и Пустота&#45;&#45;Петр Пустота</title>
<path fill="none" stroke="#eeeeee" stroke-width="0.6" d="M3941.07,-1918.12C4184.85,-1962.09 5230.49,-2150.69 5458.29,-2191.78"/>
</g>
<!-- Чапаев и Пустота&#45;&#45;товарищ Бабаясин -->
<g id="edge21" class="edge"><title>Чапаев и Пустота&#45;&#45;товарищ Бабаясин</title>
<path fill="none" stroke="#eeeeee" stroke-width="0.6" d="M3906.56,-1927.13C3970.66,-1998.25 4203.92,-2257.02 4267.38,-2327.43"/>
</g>
<!-- Чапаев и Пустота&#45;&#45;товарищ Бабаясин -->
<g id="edge28" class="edge"><title>Чапаев и Пустота&#45;&#45;товарищ Бабаясин</title>
<path fill="none" stroke="#eeeeee" stroke-width="0.6" d="M3906.56,-1927.13C3970.66,-1998.25 4203.92,-2257.02 4267.38,-2327.43"/>
</g>
<!-- Чапаев -->
<g id="node83" class="node"><title>Чапаев</title>
<ellipse fill="#2f2f2f" stroke="#ececec" stroke-width="0.6" cx="3248.13" cy="-1949.48" rx="29.3664" ry="18"/>
<text text-anchor="middle" x="3248.13" y="-1946.98" font-family="Helvetica,sans-Serif" font-size="10.00" fill="#ececec">Чапаев</text>
</g>
<!-- Чапаев и Пустота&#45;&#45;Чапаев -->
<g id="edge22" class="edge"><title>Чапаев и Пустота&#45;&#45;Чапаев</title>
<path fill="none" stroke="#eeeeee" stroke-width="0.6" d="M3839.52,-1912.14C3711.6,-1920.21 3378.53,-1941.24 3277.57,-1947.62"/>
</g>
<!-- Чапаев и Пустота&#45;&#45;Чапаев -->
<g id="edge29" class="edge"><title>Чапаев и Пустота&#45;&#45;Чапаев</title>
<path fill="none" stroke="#eeeeee" stroke-width="0.6" d="M3839.52,-1912.14C3711.6,-1920.21 3378.53,-1941.24 3277.57,-1947.62"/>
</g>
<!-- Имена олигархов на карте Родины -->
<g id="node12" class="node"><title>Имена олигархов на карте Родины</title>
<polygon fill="#181818" stroke="#090909" stroke-width="0.8" points="2583.61,-1776.92 2404.61,-1776.92 2404.61,-1740.92 2583.61,-1740.92 2583.61,-1776.92"/>
<text text-anchor="middle" x="2494.11" y="-1756.42" font-family="Helvetica,sans-Serif" font-size="10.00" fill="#fefefe">Имена олигархов на карте Родины</text>
</g>
<!-- Вавилен Татарский -->
<g id="node44" class="node"><title>Вавилен Татарский</title>
<ellipse fill="#2f2f2f" stroke="#ececec" stroke-width="0.6" cx="2662.31" cy="-1734.35" rx="64.3289" ry="18"/>
<text text-anchor="middle" x="2662.31" y="-1731.85" font-family="Helvetica,sans-Serif" font-size="10.00" fill="#ececec">Вавилен Татарский</text>
</g>
<!-- Имена олигархов на карте Родины&#45;&#45;Вавилен Татарский -->
<g id="edge30" class="edge"><title>Имена олигархов на карте Родины&#45;&#45;Вавилен Татарский</title>
<path fill="none" stroke="#eeeeee" stroke-width="0.6" d="M2583.63,-1745.84C2591,-1744.77 2598.32,-1743.7 2605.36,-1742.67"/>
</g>
<!-- Generation «П» -->
<g id="node13" class="node"><title>Generation «П»</title>
<polygon fill="#181818" stroke="#090909" stroke-width="0.8" points="2810.2,-1636.65 2725.2,-1636.65 2725.2,-1600.65 2810.2,-1600.65 2810.2,-1636.65"/>
<text text-anchor="middle" x="2767.7" y="-1616.15" font-family="Helvetica,sans-Serif" font-size="10.00" fill="#fefefe">Generation «П»</text>
</g>
<!-- Generation «П»&#45;&#45;Вавилен Татарский -->
<g id="edge31" class="edge"><title>Generation «П»&#45;&#45;Вавилен Татарский</title>
<path fill="none" stroke="#eeeeee" stroke-width="0.6" d="M2751.24,-1636.73C2731.32,-1658.59 2698.03,-1695.15 2678.32,-1716.78"/>
</g>
<!-- Generation «П»&#45;&#45;Вовчик Малой -->
<g id="edge32" class="edge"><title>Generation «П»&#45;&#45;Вовчик Малой</title>
<path fill="none" stroke="#eeeeee" stroke-width="0.6" d="M2810.36,-1634.18C2874.64,-1657.9 2999.86,-1705.32 3103.57,-1751.93 3255.9,-1820.38 3432.65,-1914.34 3499.88,-1950.62"/>
</g>
<!-- Generation «П»&#45;&#45;лама Джамбон Тулку -->
<g id="edge33" class="edge"><title>Generation «П»&#45;&#45;лама Джамбон Тулку</title>
<path fill="none" stroke="#eeeeee" stroke-width="0.6" d="M2802.85,-1636.68C2859.21,-1665.6 2968.93,-1721.9 3022.87,-1749.57"/>
</g>
<!-- Малюта -->
<g id="node56" class="node"><title>Малюта</title>
<ellipse fill="#2f2f2f" stroke="#ececec" stroke-width="0.6" cx="2525.53" cy="-1556.85" rx="31.3996" ry="18"/>
<text text-anchor="middle" x="2525.53" y="-1554.35" font-family="Helvetica,sans-Serif" font-size="10.00" fill="#ececec">Малюта</text>
</g>
<!-- Generation «П»&#45;&#45;Малюта -->
<g id="edge34" class="edge"><title>Generation «П»&#45;&#45;Малюта</title>
<path fill="none" stroke="#eeeeee" stroke-width="0.6" d="M2724.97,-1607.74C2675.81,-1595.2 2596.47,-1574.95 2554.19,-1564.16"/>
</g>
<!-- Михаил Непойман -->
<g id="node59" class="node"><title>Михаил Непойман</title>
<ellipse fill="#2f2f2f" stroke="#ececec" stroke-width="0.6" cx="3558.22" cy="-1660.3" rx="59.4099" ry="18"/>
<text text-anchor="middle" x="3558.22" y="-1657.8" font-family="Helvetica,sans-Serif" font-size="10.00" fill="#ececec">Михаил Непойман</text>
</g>
<!-- Generation «П»&#45;&#45;Михаил Непойман -->
<g id="edge35" class="edge"><title>Generation «П»&#45;&#45;Михаил Непойман</title>
<path fill="none" stroke="#eeeeee" stroke-width="0.6" d="M2810.26,-1619.17C2842.3,-1619.66 2887.31,-1620.58 2926.78,-1622.22 3138.29,-1630.96 3389.26,-1648.13 3500.36,-1656.07"/>
</g>
<!-- пёс Пиздец -->
<g id="node66" class="node"><title>пёс Пиздец</title>
<polygon fill="none" stroke="#e8e8e8" stroke-width="0.6" points="2836.51,-1791.41 2839.24,-1791.51 2841.94,-1791.66 2844.6,-1791.85 2847.21,-1792.1 2849.76,-1792.39 2852.24,-1792.73 2854.64,-1793.11 2856.95,-1793.54 2859.16,-1794.01 2861.26,-1794.52 2863.26,-1795.08 2865.13,-1795.67 2866.88,-1796.3 2868.49,-1796.97 2869.97,-1797.67 2871.32,-1798.4 2872.52,-1799.16 2873.57,-1799.95 2874.48,-1800.77 2875.25,-1801.61 2875.87,-1802.47 2876.34,-1803.35 2876.67,-1804.25 2876.86,-1805.16 2876.91,-1806.08 2876.83,-1807.01 2876.61,-1807.95 2876.27,-1808.89 2875.81,-1809.83 2875.22,-1810.77 2874.53,-1811.71 2873.73,-1812.64 2872.83,-1813.57 2871.84,-1814.48 2870.76,-1815.37 2869.59,-1816.25 2868.35,-1817.11 2867.04,-1817.95 2865.67,-1818.77 2864.23,-1819.56 2862.74,-1820.32 2861.21,-1821.06 2859.63,-1821.76 2858.02,-1822.42 2856.37,-1823.05 2854.69,-1823.65 2852.98,-1824.2 2851.25,-1824.71 2849.5,-1825.19 2847.74,-1825.61 2845.96,-1826 2844.17,-1826.34 2842.38,-1826.63 2840.57,-1826.87 2838.76,-1827.07 2836.94,-1827.21 2835.12,-1827.31 2833.3,-1827.36 2831.48,-1827.36 2829.66,-1827.31 2827.84,-1827.21 2826.03,-1827.07 2824.22,-1826.87 2822.41,-1826.63 2820.61,-1826.34 2818.82,-1826 2817.05,-1825.61 2815.28,-1825.19 2813.53,-1824.71 2811.81,-1824.2 2810.1,-1823.65 2808.42,-1823.05 2806.77,-1822.42 2805.15,-1821.76 2803.58,-1821.06 2802.04,-1820.32 2800.55,-1819.56 2799.12,-1818.77 2797.75,-1817.95 2796.44,-1817.11 2795.19,-1816.25 2794.03,-1815.37 2792.95,-1814.48 2791.95,-1813.57 2791.05,-1812.64 2790.26,-1811.71 2789.56,-1810.77 2788.98,-1809.83 2788.52,-1808.89 2788.17,-1807.95 2787.96,-1807.01 2787.87,-1806.08 2787.93,-1805.16 2788.12,-1804.25 2788.45,-1803.35 2788.92,-1802.47 2789.54,-1801.61 2790.3,-1800.77 2791.21,-1799.95 2792.27,-1799.16 2793.47,-1798.4 2794.81,-1797.67 2796.29,-1796.97 2797.91,-1796.3 2799.66,-1795.67 2801.53,-1795.08 2803.52,-1794.52 2805.63,-1794.01 2807.84,-1793.54 2810.15,-1793.11 2812.55,-1792.73 2815.03,-1792.39 2817.58,-1792.1 2820.19,-1791.85 2822.85,-1791.66 2825.55,-1791.51 2828.27,-1791.41 2831.02,-1791.36 2833.77,-1791.36 2836.51,-1791.41"/>
<text text-anchor="middle" x="2832.39" y="-1806.86" font-family="Helvetica,sans-Serif" font-size="10.00" fill="#e8e8e8">пёс Пиздец</text>
</g>
<!-- Generation «П»&#45;&#45;пёс Пиздец -->
<g id="edge36" class="edge"><title>Generation «П»&#45;&#45;пёс Пиздец</title>
<path fill="none" stroke="#eeeeee" stroke-width="0.6" d="M2773.91,-1636.94C2786.3,-1673.48 2814,-1755.14 2826.3,-1791.41"/>
</g>
<!-- Семён Левитан -->
<g id="node75" class="node"><title>Семён Левитан</title>
<ellipse fill="#2f2f2f" stroke="#ececec" stroke-width="0.6" cx="3212.45" cy="-1057.42" rx="51.6054" ry="18"/>
<text text-anchor="middle" x="3212.45" y="-1054.92" font-family="Helvetica,sans-Serif" font-size="10.00" fill="#ececec">Семён Левитан</text>
</g>
<!-- Generation «П»&#45;&#45;Семён Левитан -->
<g id="edge37" class="edge"><title>Generation «П»&#45;&#45;Семён Левитан</title>
<path fill="none" stroke="#eeeeee" stroke-width="0.6" d="M2775.27,-1600.51C2788.89,-1568.51 2819.2,-1500.36 2851.92,-1446.74 2952.91,-1281.2 3131.58,-1124.67 3191.9,-1074.26"/>
</g>
<!-- Generation «П»&#45;&#45;Силикон Графикс -->
<g id="edge38" class="edge"><title>Generation «П»&#45;&#45;Силикон Графикс</title>
<path fill="none" stroke="#eeeeee" stroke-width="0.6" d="M2757.54,-1600.52C2742.81,-1574.25 2715.72,-1525.92 2701.11,-1499.86"/>
</g>
<!-- халдеи -->
<g id="node82" class="node"><title>халдеи</title>
<polygon fill="none" stroke="#e8e8e8" stroke-width="0.6" points="3089.3,-1509.68 3091.21,-1509.78 3093.1,-1509.93 3094.96,-1510.12 3096.79,-1510.37 3098.58,-1510.66 3100.32,-1511 3102,-1511.38 3103.61,-1511.81 3105.16,-1512.28 3106.64,-1512.79 3108.04,-1513.35 3109.35,-1513.94 3110.57,-1514.57 3111.7,-1515.24 3112.74,-1515.94 3113.68,-1516.67 3114.52,-1517.43 3115.26,-1518.22 3115.9,-1519.04 3116.44,-1519.88 3116.87,-1520.74 3117.2,-1521.62 3117.43,-1522.52 3117.57,-1523.43 3117.6,-1524.35 3117.54,-1525.28 3117.39,-1526.22 3117.15,-1527.16 3116.83,-1528.1 3116.42,-1529.04 3115.93,-1529.98 3115.37,-1530.91 3114.74,-1531.83 3114.05,-1532.74 3113.29,-1533.64 3112.47,-1534.52 3111.6,-1535.38 3110.69,-1536.22 3109.72,-1537.04 3108.72,-1537.83 3107.68,-1538.59 3106.6,-1539.32 3105.5,-1540.03 3104.36,-1540.69 3103.21,-1541.32 3102.03,-1541.92 3100.84,-1542.47 3099.62,-1542.98 3098.4,-1543.45 3097.16,-1543.88 3095.92,-1544.27 3094.67,-1544.6 3093.41,-1544.9 3092.14,-1545.14 3090.87,-1545.34 3089.6,-1545.48 3088.33,-1545.58 3087.05,-1545.63 3085.77,-1545.63 3084.5,-1545.58 3083.22,-1545.48 3081.95,-1545.34 3080.68,-1545.14 3079.42,-1544.9 3078.16,-1544.6 3076.9,-1544.27 3075.66,-1543.88 3074.42,-1543.45 3073.2,-1542.98 3071.99,-1542.47 3070.79,-1541.92 3069.62,-1541.32 3068.46,-1540.69 3067.33,-1540.03 3066.22,-1539.32 3065.15,-1538.59 3064.11,-1537.83 3063.1,-1537.04 3062.14,-1536.22 3061.22,-1535.38 3060.35,-1534.52 3059.53,-1533.64 3058.78,-1532.74 3058.08,-1531.83 3057.45,-1530.91 3056.89,-1529.98 3056.4,-1529.04 3056,-1528.1 3055.67,-1527.16 3055.43,-1526.22 3055.28,-1525.28 3055.22,-1524.35 3055.26,-1523.43 3055.39,-1522.52 3055.62,-1521.62 3055.95,-1520.74 3056.39,-1519.88 3056.92,-1519.04 3057.56,-1518.22 3058.3,-1517.43 3059.14,-1516.67 3060.08,-1515.94 3061.12,-1515.24 3062.25,-1514.57 3063.48,-1513.94 3064.79,-1513.35 3066.18,-1512.79 3067.66,-1512.28 3069.21,-1511.81 3070.83,-1511.38 3072.51,-1511 3074.25,-1510.66 3076.03,-1510.37 3077.86,-1510.12 3079.72,-1509.93 3081.61,-1509.78 3083.53,-1509.68 3085.45,-1509.63 3087.38,-1509.63 3089.3,-1509.68"/>
<text text-anchor="middle" x="3086.41" y="-1525.13" font-family="Helvetica,sans-Serif" font-size="10.00" fill="#e8e8e8">халдеи</text>
</g>
<!-- Generation «П»&#45;&#45;халдеи -->
<g id="edge39" class="edge"><title>Generation «П»&#45;&#45;халдеи</title>
<path fill="none" stroke="#eeeeee" stroke-width="0.6" d="M2810.36,-1606.47C2877.53,-1587.29 3005.93,-1550.62 3060.67,-1534.98"/>
</g>
<!-- Акико -->
<g id="node14" class="node"><title>Акико</title>
<polygon fill="#181818" stroke="#090909" stroke-width="0.8" points="1824.18,-825.242 1770.18,-825.242 1770.18,-789.242 1824.18,-789.242 1824.18,-825.242"/>
<text text-anchor="middle" x="1797.18" y="-804.742" font-family="Helvetica,sans-Serif" font-size="10.00" fill="#fefefe">Акико</text>
</g>
<!-- Лебёдкин -->
<g id="node53" class="node"><title>Лебёдкин</title>
<ellipse fill="#2f2f2f" stroke="#ececec" stroke-width="0.6" cx="2347.34" cy="-1408.87" rx="36.4942" ry="18"/>
<text text-anchor="middle" x="2347.34" y="-1406.37" font-family="Helvetica,sans-Serif" font-size="10.00" fill="#ececec">Лебёдкин</text>
</g>
<!-- Акико&#45;&#45;Лебёдкин -->
<g id="edge40" class="edge"><title>Акико&#45;&#45;Лебёдкин</title>
<path fill="none" stroke="#eeeeee" stroke-width="0.6" d="M1824.44,-824.147C1898.54,-871.496 2105.5,-1013.18 2215.53,-1183.78 2264.25,-1259.33 2316.67,-1353.05 2337.76,-1391.34"/>
</g>
<!-- Пятое главное управление -->
<g id="node70" class="node"><title>Пятое главное управление</title>
<polygon fill="none" stroke="#e8e8e8" stroke-width="0.6" points="2132.59,-1171.13 2138,-1171.23 2143.35,-1171.38 2148.62,-1171.57 2153.8,-1171.82 2158.86,-1172.11 2163.77,-1172.45 2168.53,-1172.83 2173.11,-1173.26 2177.5,-1173.73 2181.67,-1174.24 2185.62,-1174.8 2189.34,-1175.39 2192.8,-1176.02 2196.01,-1176.69 2198.94,-1177.39 2201.6,-1178.12 2203.98,-1178.88 2206.08,-1179.67 2207.88,-1180.49 2209.4,-1181.33 2210.63,-1182.19 2211.57,-1183.07 2212.22,-1183.97 2212.6,-1184.88 2212.7,-1185.8 2212.53,-1186.73 2212.11,-1187.67 2211.43,-1188.61 2210.51,-1189.55 2209.35,-1190.5 2207.98,-1191.43 2206.39,-1192.36 2204.61,-1193.29 2202.64,-1194.2 2200.49,-1195.09 2198.19,-1195.97 2195.73,-1196.83 2193.13,-1197.67 2190.4,-1198.49 2187.56,-1199.28 2184.61,-1200.04 2181.56,-1200.78 2178.43,-1201.48 2175.23,-1202.14 2171.96,-1202.77 2168.63,-1203.37 2165.24,-1203.92 2161.82,-1204.44 2158.35,-1204.91 2154.85,-1205.34 2151.33,-1205.72 2147.78,-1206.06 2144.22,-1206.35 2140.63,-1206.59 2137.04,-1206.79 2133.44,-1206.94 2129.83,-1207.03 2126.22,-1207.08 2122.61,-1207.08 2119,-1207.03 2115.39,-1206.94 2111.79,-1206.79 2108.2,-1206.59 2104.62,-1206.35 2101.05,-1206.06 2097.51,-1205.72 2093.98,-1205.34 2090.49,-1204.91 2087.02,-1204.44 2083.59,-1203.92 2080.21,-1203.37 2076.88,-1202.77 2073.61,-1202.14 2070.4,-1201.48 2067.27,-1200.78 2064.23,-1200.04 2061.28,-1199.28 2058.44,-1198.49 2055.71,-1197.67 2053.11,-1196.83 2050.65,-1195.97 2048.34,-1195.09 2046.2,-1194.2 2044.23,-1193.29 2042.44,-1192.36 2040.86,-1191.43 2039.48,-1190.5 2038.33,-1189.55 2037.41,-1188.61 2036.73,-1187.67 2036.3,-1186.73 2036.14,-1185.8 2036.24,-1184.88 2036.61,-1183.97 2037.27,-1183.07 2038.21,-1182.19 2039.43,-1181.33 2040.95,-1180.49 2042.76,-1179.67 2044.85,-1178.88 2047.23,-1178.12 2049.89,-1177.39 2052.83,-1176.69 2056.03,-1176.02 2059.5,-1175.39 2063.21,-1174.8 2067.16,-1174.24 2071.34,-1173.73 2075.73,-1173.26 2080.31,-1172.83 2085.06,-1172.45 2089.98,-1172.11 2095.04,-1171.82 2100.21,-1171.57 2105.49,-1171.38 2110.84,-1171.23 2116.25,-1171.13 2121.69,-1171.08 2127.14,-1171.08 2132.59,-1171.13"/>
<text text-anchor="middle" x="2124.42" y="-1186.58" font-family="Helvetica,sans-Serif" font-size="10.00" fill="#e8e8e8">Пятое главное управление</text>
</g>
<!-- Акико&#45;&#45;Пятое главное управление -->
<g id="edge41" class="edge"><title>Акико&#45;&#45;Пятое главное управление</title>
<path fill="none" stroke="#eeeeee" stroke-width="0.6" d="M1812.75,-825.402C1868,-889.874 2054.34,-1107.31 2109.14,-1171.26"/>
</g>
<!-- Македонская критика французской мысли -->
<g id="node15" class="node"><title>Македонская критика французской мысли</title>
<polygon fill="#181818" stroke="#090909" stroke-width="0.8" points="2261.65,-2224.2 2042.65,-2224.2 2042.65,-2188.2 2261.65,-2188.2 2261.65,-2224.2"/>
<text text-anchor="middle" x="2152.15" y="-2203.7" font-family="Helvetica,sans-Serif" font-size="10.00" fill="#fefefe">Македонская критика французской мысли</text>
</g>
<!-- Мунбанк -->
<g id="node60" class="node"><title>Мунбанк</title>
<polygon fill="none" stroke="#e8e8e8" stroke-width="0.6" points="2088.68,-1859.32 2090.84,-1859.42 2092.97,-1859.57 2095.08,-1859.76 2097.14,-1860.01 2099.16,-1860.3 2101.12,-1860.63 2103.02,-1861.02 2104.84,-1861.45 2106.59,-1861.92 2108.26,-1862.43 2109.83,-1862.99 2111.31,-1863.58 2112.7,-1864.21 2113.97,-1864.88 2115.15,-1865.58 2116.21,-1866.31 2117.16,-1867.07 2117.99,-1867.86 2118.71,-1868.68 2119.32,-1869.52 2119.81,-1870.38 2120.18,-1871.26 2120.44,-1872.16 2120.59,-1873.07 2120.63,-1873.99 2120.57,-1874.92 2120.4,-1875.86 2120.13,-1876.8 2119.76,-1877.74 2119.3,-1878.68 2118.75,-1879.62 2118.12,-1880.55 2117.41,-1881.47 2116.62,-1882.38 2115.76,-1883.28 2114.84,-1884.16 2113.86,-1885.02 2112.83,-1885.86 2111.74,-1886.68 2110.6,-1887.47 2109.43,-1888.23 2108.21,-1888.96 2106.97,-1889.67 2105.69,-1890.33 2104.38,-1890.96 2103.05,-1891.56 2101.7,-1892.11 2100.34,-1892.62 2098.96,-1893.09 2097.56,-1893.52 2096.15,-1893.91 2094.74,-1894.24 2093.32,-1894.54 2091.89,-1894.78 2090.46,-1894.98 2089.02,-1895.12 2087.58,-1895.22 2086.14,-1895.27 2084.7,-1895.27 2083.26,-1895.22 2081.82,-1895.12 2080.39,-1894.98 2078.95,-1894.78 2077.52,-1894.54 2076.1,-1894.24 2074.69,-1893.91 2073.28,-1893.52 2071.89,-1893.09 2070.51,-1892.62 2069.14,-1892.11 2067.79,-1891.56 2066.46,-1890.96 2065.16,-1890.33 2063.88,-1889.67 2062.63,-1888.96 2061.41,-1888.23 2060.24,-1887.47 2059.1,-1886.68 2058.02,-1885.86 2056.98,-1885.02 2056,-1884.16 2055.08,-1883.28 2054.22,-1882.38 2053.44,-1881.47 2052.72,-1880.55 2052.09,-1879.62 2051.54,-1878.68 2051.08,-1877.74 2050.72,-1876.8 2050.45,-1875.86 2050.28,-1874.92 2050.21,-1873.99 2050.25,-1873.07 2050.4,-1872.16 2050.66,-1871.26 2051.04,-1870.38 2051.53,-1869.52 2052.13,-1868.68 2052.85,-1867.86 2053.69,-1867.07 2054.64,-1866.31 2055.7,-1865.58 2056.87,-1864.88 2058.15,-1864.21 2059.53,-1863.58 2061.01,-1862.99 2062.59,-1862.43 2064.25,-1861.92 2066,-1861.45 2067.83,-1861.02 2069.72,-1860.63 2071.69,-1860.3 2073.7,-1860.01 2075.77,-1859.76 2077.87,-1859.57 2080.01,-1859.42 2082.16,-1859.32 2084.33,-1859.27 2086.51,-1859.27 2088.68,-1859.32"/>
<text text-anchor="middle" x="2085.42" y="-1874.77" font-family="Helvetica,sans-Serif" font-size="10.00" fill="#e8e8e8">Мунбанк</text>
</g>
<!-- Македонская критика французской мысли&#45;&#45;Мунбанк -->
<g id="edge42" class="edge"><title>Македонская критика французской мысли&#45;&#45;Мунбанк</title>
<path fill="none" stroke="#eeeeee" stroke-width="0.6" d="M2148.47,-2188.05C2136.8,-2130.54 2100.74,-1952.8 2089.09,-1895.37"/>
</g>
<!-- Насых Нафиков (Кика) -->
<g id="node62" class="node"><title>Насых Нафиков (Кика)</title>
<ellipse fill="#2f2f2f" stroke="#ececec" stroke-width="0.6" cx="2080.22" cy="-1535.12" rx="73.6658" ry="18"/>
<text text-anchor="middle" x="2080.22" y="-1532.62" font-family="Helvetica,sans-Serif" font-size="10.00" fill="#ececec">Насых Нафиков (Кика)</text>
</g>
<!-- Македонская критика французской мысли&#45;&#45;Насых Нафиков (Кика) -->
<g id="edge43" class="edge"><title>Македонская критика французской мысли&#45;&#45;Насых Нафиков (Кика)</title>
<path fill="none" stroke="#eeeeee" stroke-width="0.6" d="M2150.88,-2188.1C2147.29,-2137.93 2136.52,-1992.87 2123.66,-1872.69 2110.59,-1750.48 2090.08,-1604.01 2082.85,-1553.38"/>
</g>
<!-- Санбанк -->
<g id="node73" class="node"><title>Санбанк</title>
<polygon fill="none" stroke="#e8e8e8" stroke-width="0.6" points="2362.14,-1937.73 2364.3,-1937.83 2366.43,-1937.98 2368.54,-1938.17 2370.6,-1938.42 2372.62,-1938.71 2374.58,-1939.05 2376.47,-1939.43 2378.3,-1939.86 2380.05,-1940.33 2381.72,-1940.84 2383.29,-1941.4 2384.77,-1941.99 2386.16,-1942.62 2387.43,-1943.29 2388.61,-1943.99 2389.67,-1944.72 2390.62,-1945.48 2391.45,-1946.27 2392.17,-1947.09 2392.78,-1947.93 2393.27,-1948.79 2393.64,-1949.67 2393.9,-1950.57 2394.05,-1951.48 2394.09,-1952.4 2394.03,-1953.33 2393.86,-1954.27 2393.59,-1955.21 2393.22,-1956.15 2392.76,-1957.09 2392.21,-1958.03 2391.58,-1958.96 2390.87,-1959.88 2390.08,-1960.79 2389.22,-1961.69 2388.3,-1962.57 2387.32,-1963.43 2386.29,-1964.27 2385.2,-1965.09 2384.06,-1965.88 2382.89,-1966.64 2381.67,-1967.37 2380.43,-1968.08 2379.15,-1968.74 2377.84,-1969.37 2376.51,-1969.97 2375.16,-1970.52 2373.8,-1971.03 2372.41,-1971.5 2371.02,-1971.93 2369.61,-1972.32 2368.2,-1972.65 2366.78,-1972.95 2365.35,-1973.19 2363.92,-1973.39 2362.48,-1973.53 2361.04,-1973.63 2359.6,-1973.68 2358.16,-1973.68 2356.72,-1973.63 2355.28,-1973.53 2353.85,-1973.39 2352.41,-1973.19 2350.98,-1972.95 2349.56,-1972.65 2348.15,-1972.32 2346.74,-1971.93 2345.35,-1971.5 2343.96,-1971.03 2342.6,-1970.52 2341.25,-1969.97 2339.92,-1969.37 2338.61,-1968.74 2337.34,-1968.08 2336.09,-1967.37 2334.87,-1966.64 2333.7,-1965.88 2332.56,-1965.09 2331.48,-1964.27 2330.44,-1963.43 2329.46,-1962.57 2328.54,-1961.69 2327.68,-1960.79 2326.9,-1959.88 2326.18,-1958.96 2325.55,-1958.03 2325,-1957.09 2324.54,-1956.15 2324.18,-1955.21 2323.91,-1954.27 2323.74,-1953.33 2323.67,-1952.4 2323.71,-1951.48 2323.86,-1950.57 2324.12,-1949.67 2324.5,-1948.79 2324.98,-1947.93 2325.59,-1947.09 2326.31,-1946.27 2327.15,-1945.48 2328.09,-1944.72 2329.16,-1943.99 2330.33,-1943.29 2331.61,-1942.62 2332.99,-1941.99 2334.47,-1941.4 2336.05,-1940.84 2337.71,-1940.33 2339.46,-1939.86 2341.29,-1939.43 2343.18,-1939.05 2345.15,-1938.71 2347.16,-1938.42 2349.23,-1938.17 2351.33,-1937.98 2353.47,-1937.83 2355.62,-1937.73 2357.79,-1937.68 2359.97,-1937.68 2362.14,-1937.73"/>
<text text-anchor="middle" x="2358.88" y="-1953.18" font-family="Helvetica,sans-Serif" font-size="10.00" fill="#e8e8e8">Санбанк</text>
</g>
<!-- Македонская критика французской мысли&#45;&#45;Санбанк -->
<g id="edge44" class="edge"><title>Македонская критика французской мысли&#45;&#45;Санбанк</title>
<path fill="none" stroke="#eeeeee" stroke-width="0.6" d="M2167.02,-2188.18C2205.63,-2141.4 2308.61,-2016.59 2345.5,-1971.89"/>
</g>
<!-- Один вог -->
<g id="node16" class="node"><title>Один вог</title>
<polygon fill="#181818" stroke="#090909" stroke-width="0.8" points="1792.26,-2326.25 1733.26,-2326.25 1733.26,-2290.25 1792.26,-2290.25 1792.26,-2326.25"/>
<text text-anchor="middle" x="1762.76" y="-2305.75" font-family="Helvetica,sans-Serif" font-size="10.00" fill="#fefefe">Один вог</text>
</g>
<!-- Мюс -->
<g id="node61" class="node"><title>Мюс</title>
<ellipse fill="#2f2f2f" stroke="#ececec" stroke-width="0.6" cx="1722.83" cy="-1770.53" rx="27" ry="18"/>
<text text-anchor="middle" x="1722.83" y="-1768.03" font-family="Helvetica,sans-Serif" font-size="10.00" fill="#ececec">Мюс</text>
</g>
<!-- Один вог&#45;&#45;Мюс -->
<g id="edge45" class="edge"><title>Один вог&#45;&#45;Мюс</title>
<path fill="none" stroke="#eeeeee" stroke-width="0.6" d="M1761.41,-2290.05C1755.3,-2207.77 1730.29,-1871 1724.18,-1788.73"/>
</g>
<!-- Фокус&#45;группа -->
<g id="node17" class="node"><title>Фокус&#45;группа</title>
<polygon fill="#181818" stroke="#090909" stroke-width="0.8" points="1296.43,-108.84 1215.43,-108.84 1215.43,-72.8396 1296.43,-72.8396 1296.43,-108.84"/>
<text text-anchor="middle" x="1255.93" y="-88.3396" font-family="Helvetica,sans-Serif" font-size="10.00" fill="#fefefe">Фокус&#45;группа</text>
</g>
<!-- Сракандаев -->
<g id="node78" class="node"><title>Сракандаев</title>
<ellipse fill="#2f2f2f" stroke="#ececec" stroke-width="0.6" cx="2205.42" cy="-745.575" rx="42.9448" ry="18"/>
<text text-anchor="middle" x="2205.42" y="-743.075" font-family="Helvetica,sans-Serif" font-size="10.00" fill="#ececec">Сракандаев</text>
</g>
<!-- Фокус&#45;группа&#45;&#45;Сракандаев -->
<g id="edge46" class="edge"><title>Фокус&#45;группа&#45;&#45;Сракандаев</title>
<path fill="none" stroke="#eeeeee" stroke-width="0.6" d="M1282.32,-109.034C1420.09,-204.039 2055.42,-642.141 2183.05,-730.151"/>
</g>
<!-- Числа -->
<g id="node18" class="node"><title>Числа</title>
<polygon fill="#181818" stroke="#090909" stroke-width="0.8" points="2341.63,-1686.46 2287.63,-1686.46 2287.63,-1650.46 2341.63,-1650.46 2341.63,-1686.46"/>
<text text-anchor="middle" x="2314.63" y="-1665.96" font-family="Helvetica,sans-Serif" font-size="10.00" fill="#fefefe">Числа</text>
</g>
<!-- Борис Маросеев -->
<g id="node41" class="node"><title>Борис Маросеев</title>
<ellipse fill="#2f2f2f" stroke="#ececec" stroke-width="0.6" cx="2410.94" cy="-1116.45" rx="55.8461" ry="18"/>
<text text-anchor="middle" x="2410.94" y="-1113.95" font-family="Helvetica,sans-Serif" font-size="10.00" fill="#ececec">Борис Маросеев</text>
</g>
<!-- Числа&#45;&#45;Борис Маросеев -->
<g id="edge47" class="edge"><title>Числа&#45;&#45;Борис Маросеев</title>
<path fill="none" stroke="#eeeeee" stroke-width="0.6" d="M2320.86,-1650.15C2334.87,-1608.09 2368.98,-1501.11 2385.44,-1408.92 2403.76,-1306.31 2409.08,-1181.01 2410.49,-1134.74"/>
</g>
<!-- Числа&#45;&#45;Бункер под Лубянкой -->
<g id="edge48" class="edge"><title>Числа&#45;&#45;Бункер под Лубянкой</title>
<path fill="none" stroke="#eeeeee" stroke-width="0.6" d="M2294.72,-1650.31C2265.24,-1623.79 2207.8,-1573.45 2155.41,-1535.17 2024.9,-1439.82 1847.5,-1361.2 1772.38,-1329.91"/>
</g>
<!-- Числа&#45;&#45;Вавилен Татарский -->
<g id="edge49" class="edge"><title>Числа&#45;&#45;Вавилен Татарский</title>
<path fill="none" stroke="#eeeeee" stroke-width="0.6" d="M2341.92,-1673.63C2399.39,-1684.52 2533.78,-1709.99 2608.98,-1724.24"/>
</g>
<!-- Числа&#45;&#45;Лебёдкин -->
<g id="edge50" class="edge"><title>Числа&#45;&#45;Лебёдкин</title>
<path fill="none" stroke="#eeeeee" stroke-width="0.6" d="M2316.93,-1650.2C2322.94,-1602.54 2339.04,-1474.75 2345.05,-1427.11"/>
</g>
<!-- Числа&#45;&#45;Малюта -->
<g id="edge51" class="edge"><title>Числа&#45;&#45;Малюта</title>
<path fill="none" stroke="#eeeeee" stroke-width="0.6" d="M2341.77,-1654.1C2383.6,-1631.96 2463.09,-1589.89 2502.37,-1569.1"/>
</g>
<!-- Числа&#45;&#45;Мунбанк -->
<g id="edge52" class="edge"><title>Числа&#45;&#45;Мунбанк</title>
<path fill="none" stroke="#eeeeee" stroke-width="0.6" d="M2294.69,-1686.62C2250.58,-1726.81 2145.31,-1822.71 2103.24,-1861.04"/>
</g>
<!-- Числа&#45;&#45;Мюс -->
<g id="edge53" class="edge"><title>Числа&#45;&#45;Мюс</title>
<path fill="none" stroke="#eeeeee" stroke-width="0.6" d="M2287.28,-1673.18C2187.94,-1690.31 1846.98,-1749.12 1749.22,-1765.98"/>
</g>
<!-- Числа&#45;&#45;Насых Нафиков (Кика) -->
<g id="edge54" class="edge"><title>Числа&#45;&#45;Насых Нафиков (Кика)</title>
<path fill="none" stroke="#eeeeee" stroke-width="0.6" d="M2287.29,-1652.9C2242.84,-1627.62 2155.32,-1577.83 2109.6,-1551.83"/>
</g>
<!-- Числа&#45;&#45;Пятое главное управление -->
<g id="edge55" class="edge"><title>Числа&#45;&#45;Пятое главное управление</title>
<path fill="none" stroke="#eeeeee" stroke-width="0.6" d="M2307.41,-1650.25C2277.25,-1574.23 2161.53,-1282.62 2131.55,-1207.05"/>
</g>
<!-- Числа&#45;&#45;Санбанк -->
<g id="edge56" class="edge"><title>Числа&#45;&#45;Санбанк</title>
<path fill="none" stroke="#eeeeee" stroke-width="0.6" d="M2317.47,-1686.86C2325.46,-1738.74 2348.11,-1885.74 2356.07,-1937.43"/>
</g>
<!-- Числа&#45;&#45;Сракандаев -->
<g id="edge57" class="edge"><title>Числа&#45;&#45;Сракандаев</title>
<path fill="none" stroke="#eeeeee" stroke-width="0.6" d="M2312.5,-1650.44C2298.64,-1533.3 2221.47,-881.195 2207.57,-763.711"/>
</g>
<!-- Священная книга оборотня -->
<g id="node19" class="node"><title>Священная книга оборотня</title>
<polygon fill="#181818" stroke="#090909" stroke-width="0.8" points="2661.54,-1967.55 2518.54,-1967.55 2518.54,-1931.55 2661.54,-1931.55 2661.54,-1967.55"/>
<text text-anchor="middle" x="2590.04" y="-1947.05" font-family="Helvetica,sans-Serif" font-size="10.00" fill="#fefefe">Священная книга оборотня</text>
</g>
<!-- А Хули -->
<g id="node37" class="node"><title>А Хули</title>
<ellipse fill="#2f2f2f" stroke="#ececec" stroke-width="0.6" cx="2800.03" cy="-1996.2" rx="29.3664" ry="18"/>
<text text-anchor="middle" x="2800.03" y="-1993.7" font-family="Helvetica,sans-Serif" font-size="10.00" fill="#ececec">А Хули</text>
</g>
<!-- Священная книга оборотня&#45;&#45;А Хули -->
<g id="edge58" class="edge"><title>Священная книга оборотня&#45;&#45;А Хули</title>
<path fill="none" stroke="#eeeeee" stroke-width="0.6" d="M2661.72,-1965.47C2699.74,-1973.92 2744.27,-1983.81 2772.31,-1990.04"/>
</g>
<!-- Священная книга оборотня&#45;&#45;Вавилен Татарский -->
<g id="edge59" class="edge"><title>Священная книга оборотня&#45;&#45;Вавилен Татарский</title>
<path fill="none" stroke="#eeeeee" stroke-width="0.6" d="M2596.2,-1931.2C2609.89,-1890.44 2642.69,-1792.78 2656.27,-1752.35"/>
</g>
<!-- Лев Толстой -->
<g id="node54" class="node"><title>Лев Толстой</title>
<ellipse fill="#2f2f2f" stroke="#ececec" stroke-width="0.6" cx="2924.35" cy="-2258.87" rx="44.3" ry="18"/>
<text text-anchor="middle" x="2924.35" y="-2256.37" font-family="Helvetica,sans-Serif" font-size="10.00" fill="#ececec">Лев Толстой</text>
</g>
<!-- Священная книга оборотня&#45;&#45;Лев Толстой -->
<g id="edge60" class="edge"><title>Священная книга оборотня&#45;&#45;Лев Толстой</title>
<path fill="none" stroke="#eeeeee" stroke-width="0.6" d="M2609.95,-1967.97C2669.98,-2023.51 2848.56,-2188.74 2906.2,-2242.07"/>
</g>
<!-- Священная книга оборотня&#45;&#45;Нелли -->
<g id="edge61" class="edge"><title>Священная книга оборотня&#45;&#45;Нелли</title>
<path fill="none" stroke="#eeeeee" stroke-width="0.6" d="M2588.97,-1967.81C2587.13,-2007.68 2585.48,-2105.16 2607.12,-2182.8 2658.49,-2367.05 2732.88,-2388.14 2802.28,-2566.39 2885.69,-2780.66 2945.08,-3055.06 2959.94,-3127.04"/>
</g>
<!-- Священная книга оборотня&#45;&#45;пёс Пиздец -->
<g id="edge62" class="edge"><title>Священная книга оборотня&#45;&#45;пёс Пиздец</title>
<path fill="none" stroke="#eeeeee" stroke-width="0.6" d="M2621.23,-1931.51C2670.32,-1903.11 2764.55,-1848.6 2808.6,-1823.12"/>
</g>
<!-- Священная книга оборотня&#45;&#45;полковник Лебеденко -->
<g id="edge63" class="edge"><title>Священная книга оборотня&#45;&#45;полковник Лебеденко</title>
<path fill="none" stroke="#eeeeee" stroke-width="0.6" d="M2596.91,-1967.86C2613.28,-2011.48 2654.42,-2121.14 2670.76,-2164.67"/>
</g>
<!-- рецензент Майя Марачкарская -->
<g id="node72" class="node"><title>рецензент Майя Марачкарская</title>
<ellipse fill="#2f2f2f" stroke="#ececec" stroke-width="0.6" cx="2704.14" cy="-2566.22" rx="96.5815" ry="18"/>
<text text-anchor="middle" x="2704.14" y="-2563.72" font-family="Helvetica,sans-Serif" font-size="10.00" fill="#ececec">рецензент Майя Марачкарская</text>
</g>
<!-- Священная книга оборотня&#45;&#45;рецензент Майя Марачкарская -->
<g id="edge64" class="edge"><title>Священная книга оборотня&#45;&#45;рецензент Майя Марачкарская</title>
<path fill="none" stroke="#eeeeee" stroke-width="0.6" d="M2590.3,-1967.82C2591.09,-2007.3 2594.28,-2103.43 2607.12,-2182.8 2630.27,-2325.82 2681.17,-2493.55 2698.35,-2548.1"/>
</g>
<!-- Священная книга оборотня&#45;&#45;Саша Лапин -->
<g id="edge65" class="edge"><title>Священная книга оборотня&#45;&#45;Саша Лапин</title>
<path fill="none" stroke="#eeeeee" stroke-width="0.6" d="M2581.85,-1967.68C2557.39,-2021.82 2485.05,-2181.91 2460.64,-2235.93"/>
</g>
<!-- Психическая атака (сонет) -->
<g id="node20" class="node"><title>Психическая атака (сонет)</title>
<polygon fill="#181818" stroke="#090909" stroke-width="0.8" points="5362.84,-3063.85 5219.84,-3063.85 5219.84,-3027.85 5362.84,-3027.85 5362.84,-3063.85"/>
<text text-anchor="middle" x="5291.34" y="-3043.35" font-family="Helvetica,sans-Serif" font-size="10.00" fill="#fefefe">Психическая атака (сонет)</text>
</g>
<!-- Психическая атака (сонет)&#45;&#45;Петр Пустота -->
<g id="edge66" class="edge"><title>Психическая атака (сонет)&#45;&#45;Петр Пустота</title>
<path fill="none" stroke="#eeeeee" stroke-width="0.6" d="M5295.84,-3027.79C5323.48,-2916.89 5469.9,-2329.39 5497.67,-2217.96"/>
</g>
<!-- Empire V -->
<g id="node21" class="node"><title>Empire V</title>
<polygon fill="#181818" stroke="#090909" stroke-width="0.8" points="2912.12,-1485.94 2855.12,-1485.94 2855.12,-1449.94 2912.12,-1449.94 2912.12,-1485.94"/>
<text text-anchor="middle" x="2883.62" y="-1465.44" font-family="Helvetica,sans-Serif" font-size="10.00" fill="#fefefe">Empire V</text>
</g>
<!-- Empire V&#45;&#45;Вавилен Татарский -->
<g id="edge67" class="edge"><title>Empire V&#45;&#45;Вавилен Татарский</title>
<path fill="none" stroke="#eeeeee" stroke-width="0.6" d="M2854.97,-1484.76C2819.62,-1506.76 2759.59,-1548.34 2722,-1597.45 2693.33,-1634.93 2675.25,-1688.31 2667.2,-1716.04"/>
</g>
<!-- Рама -->
<g id="node71" class="node"><title>Рама</title>
<ellipse fill="#2f2f2f" stroke="#ececec" stroke-width="0.6" cx="3278.94" cy="-1300.45" rx="27" ry="18"/>
<text text-anchor="middle" x="3278.94" y="-1297.95" font-family="Helvetica,sans-Serif" font-size="10.00" fill="#ececec">Рама</text>
</g>
<!-- Empire V&#45;&#45;Рама -->
<g id="edge68" class="edge"><title>Empire V&#45;&#45;Рама</title>
<path fill="none" stroke="#eeeeee" stroke-width="0.6" d="M2912.37,-1455.76C2987.35,-1424 3187.75,-1339.09 3255.89,-1310.22"/>
</g>
<!-- Empire V&#45;&#45;халдеи -->
<g id="edge69" class="edge"><title>Empire V&#45;&#45;халдеи</title>
<path fill="none" stroke="#eeeeee" stroke-width="0.6" d="M2912.24,-1476.37C2950.56,-1487.65 3018.2,-1507.55 3056.95,-1518.96"/>
</g>
<!-- Ассасин -->
<g id="node22" class="node"><title>Ассасин</title>
<polygon fill="#181818" stroke="#090909" stroke-width="0.8" points="2476.82,-3178.29 2420.82,-3178.29 2420.82,-3142.29 2476.82,-3142.29 2476.82,-3178.29"/>
<text text-anchor="middle" x="2448.82" y="-3157.79" font-family="Helvetica,sans-Serif" font-size="10.00" fill="#fefefe">Ассасин</text>
</g>
<!-- Ассасин&#45;&#45;рецензент Майя Марачкарская -->
<g id="edge70" class="edge"><title>Ассасин&#45;&#45;рецензент Майя Марачкарская</title>
<path fill="none" stroke="#eeeeee" stroke-width="0.6" d="M2456.6,-3142.19C2494.42,-3054.2 2658.74,-2671.86 2696.42,-2584.18"/>
</g>
<!-- Зал поющих кариатид -->
<g id="node23" class="node"><title>Зал поющих кариатид</title>
<polygon fill="#181818" stroke="#090909" stroke-width="0.8" points="2845.5,-1317.98 2724.5,-1317.98 2724.5,-1281.98 2845.5,-1281.98 2845.5,-1317.98"/>
<text text-anchor="middle" x="2785" y="-1297.48" font-family="Helvetica,sans-Serif" font-size="10.00" fill="#fefefe">Зал поющих кариатид</text>
</g>
<!-- Зал поющих кариатид&#45;&#45;Борис Маросеев -->
<g id="edge71" class="edge"><title>Зал поющих кариатид&#45;&#45;Борис Маросеев</title>
<path fill="none" stroke="#eeeeee" stroke-width="0.6" d="M2748.11,-1281.88C2674.38,-1245.71 2510.06,-1165.09 2441.7,-1131.55"/>
</g>
<!-- генерал Шмыга -->
<g id="node46" class="node"><title>генерал Шмыга</title>
<ellipse fill="#2f2f2f" stroke="#ececec" stroke-width="0.6" cx="2926.73" cy="-1641.82" rx="51.4282" ry="18"/>
<text text-anchor="middle" x="2926.73" y="-1639.32" font-family="Helvetica,sans-Serif" font-size="10.00" fill="#ececec">генерал Шмыга</text>
</g>
<!-- Зал поющих кариатид&#45;&#45;генерал Шмыга -->
<g id="edge72" class="edge"><title>Зал поющих кариатид&#45;&#45;генерал Шмыга</title>
<path fill="none" stroke="#eeeeee" stroke-width="0.6" d="M2790.68,-1318.24C2801.45,-1352.3 2826.07,-1427.64 2851.92,-1489.14 2872.84,-1538.94 2902.08,-1595.56 2917.06,-1623.8"/>
</g>
<!-- клуб «Haute SOS» -->
<g id="node51" class="node"><title>клуб «Haute SOS»</title>
<polygon fill="none" stroke="#e8e8e8" stroke-width="0.6" points="2921.85,-1051.52 2925.72,-1051.62 2929.55,-1051.77 2933.32,-1051.96 2937.02,-1052.21 2940.64,-1052.5 2944.15,-1052.84 2947.56,-1053.22 2950.83,-1053.65 2953.97,-1054.12 2956.95,-1054.63 2959.78,-1055.19 2962.44,-1055.78 2964.91,-1056.41 2967.21,-1057.08 2969.31,-1057.78 2971.21,-1058.51 2972.91,-1059.27 2974.41,-1060.06 2975.7,-1060.88 2976.78,-1061.72 2977.66,-1062.58 2978.33,-1063.46 2978.8,-1064.36 2979.07,-1065.27 2979.14,-1066.19 2979.02,-1067.12 2978.72,-1068.06 2978.23,-1069 2977.58,-1069.94 2976.75,-1070.88 2975.77,-1071.82 2974.63,-1072.75 2973.36,-1073.67 2971.95,-1074.59 2970.41,-1075.48 2968.76,-1076.36 2967,-1077.22 2965.15,-1078.06 2963.2,-1078.88 2961.16,-1079.67 2959.05,-1080.43 2956.88,-1081.17 2954.64,-1081.87 2952.35,-1082.53 2950.01,-1083.16 2947.63,-1083.76 2945.21,-1084.31 2942.76,-1084.82 2940.28,-1085.3 2937.78,-1085.72 2935.26,-1086.11 2932.72,-1086.44 2930.17,-1086.74 2927.61,-1086.98 2925.04,-1087.18 2922.46,-1087.32 2919.89,-1087.42 2917.3,-1087.47 2914.72,-1087.47 2912.14,-1087.42 2909.56,-1087.32 2906.98,-1087.18 2904.42,-1086.98 2901.85,-1086.74 2899.3,-1086.44 2896.77,-1086.11 2894.25,-1085.72 2891.75,-1085.3 2889.27,-1084.82 2886.82,-1084.31 2884.4,-1083.76 2882.02,-1083.16 2879.68,-1082.53 2877.38,-1081.87 2875.15,-1081.17 2872.97,-1080.43 2870.86,-1079.67 2868.83,-1078.88 2866.88,-1078.06 2865.02,-1077.22 2863.26,-1076.36 2861.61,-1075.48 2860.07,-1074.59 2858.67,-1073.67 2857.39,-1072.75 2856.26,-1071.82 2855.27,-1070.88 2854.45,-1069.94 2853.79,-1069 2853.3,-1068.06 2853,-1067.12 2852.88,-1066.19 2852.95,-1065.27 2853.22,-1064.36 2853.69,-1063.46 2854.36,-1062.58 2855.24,-1061.72 2856.32,-1060.88 2857.62,-1060.06 2859.11,-1059.27 2860.81,-1058.51 2862.72,-1057.78 2864.82,-1057.08 2867.11,-1056.41 2869.59,-1055.78 2872.24,-1055.19 2875.07,-1054.63 2878.06,-1054.12 2881.19,-1053.65 2884.47,-1053.22 2887.87,-1052.84 2891.39,-1052.5 2895,-1052.21 2898.7,-1051.96 2902.47,-1051.77 2906.3,-1051.62 2910.17,-1051.52 2914.06,-1051.47 2917.96,-1051.47 2921.85,-1051.52"/>
<text text-anchor="middle" x="2916.01" y="-1066.97" font-family="Helvetica,sans-Serif" font-size="10.00" fill="#e8e8e8">клуб «Haute SOS»</text>
</g>
<!-- Зал поющих кариатид&#45;&#45;клуб «Haute SOS» -->
<g id="edge73" class="edge"><title>Зал поющих кариатид&#45;&#45;клуб «Haute SOS»</title>
<path fill="none" stroke="#eeeeee" stroke-width="0.6" d="M2795.28,-1281.9C2819.83,-1238.7 2881.64,-1129.95 2905.96,-1087.16"/>
</g>
<!-- Михаил Ботвинник -->
<g id="node58" class="node"><title>Михаил Ботвинник</title>
<ellipse fill="#2f2f2f" stroke="#ececec" stroke-width="0.6" cx="3018.81" cy="-1308.59" rx="62.2967" ry="18"/>
<text text-anchor="middle" x="3018.81" y="-1306.09" font-family="Helvetica,sans-Serif" font-size="10.00" fill="#ececec">Михаил Ботвинник</text>
</g>
<!-- Зал поющих кариатид&#45;&#45;Михаил Ботвинник -->
<g id="edge74" class="edge"><title>Зал поющих кариатид&#45;&#45;Михаил Ботвинник</title>
<path fill="none" stroke="#eeeeee" stroke-width="0.6" d="M2845.51,-1302.21C2879.61,-1303.46 2922.12,-1305.03 2956.51,-1306.29"/>
</g>
<!-- Некромент -->
<g id="node24" class="node"><title>Некромент</title>
<polygon fill="#181818" stroke="#090909" stroke-width="0.8" points="3449.7,-55.2808 3381.7,-55.2808 3381.7,-19.2808 3449.7,-19.2808 3449.7,-55.2808"/>
<text text-anchor="middle" x="3415.7" y="-34.7808" font-family="Helvetica,sans-Serif" font-size="10.00" fill="#fefefe">Некромент</text>
</g>
<!-- Дупин -->
<g id="node49" class="node"><title>Дупин</title>
<ellipse fill="#2f2f2f" stroke="#ececec" stroke-width="0.6" cx="3106.97" cy="-687.993" rx="27.8353" ry="18"/>
<text text-anchor="middle" x="3106.97" y="-685.493" font-family="Helvetica,sans-Serif" font-size="10.00" fill="#ececec">Дупин</text>
</g>
<!-- Некромент&#45;&#45;Дупин -->
<g id="edge75" class="edge"><title>Некромент&#45;&#45;Дупин</title>
<path fill="none" stroke="#eeeeee" stroke-width="0.6" d="M3407.12,-55.3637C3362.66,-149.066 3158.88,-578.589 3115.22,-670.607"/>
</g>
<!-- Макар Гетман -->
<g id="node55" class="node"><title>Макар Гетман</title>
<ellipse fill="#2f2f2f" stroke="#ececec" stroke-width="0.6" cx="4062.9" cy="-31.2441" rx="48.7185" ry="18"/>
<text text-anchor="middle" x="4062.9" y="-28.7441" font-family="Helvetica,sans-Serif" font-size="10.00" fill="#ececec">Макар Гетман</text>
</g>
<!-- Некромент&#45;&#45;Макар Гетман -->
<g id="edge76" class="edge"><title>Некромент&#45;&#45;Макар Гетман</title>
<path fill="none" stroke="#eeeeee" stroke-width="0.6" d="M3450.04,-36.9605C3557.57,-35.9575 3888.14,-32.8742 4013.76,-31.7024"/>
</g>
<!-- Пространство Фридмана -->
<g id="node25" class="node"><title>Пространство Фридмана</title>
<polygon fill="#181818" stroke="#090909" stroke-width="0.8" points="3341.12,-1744.27 3206.12,-1744.27 3206.12,-1708.27 3341.12,-1708.27 3341.12,-1744.27"/>
<text text-anchor="middle" x="3273.62" y="-1723.77" font-family="Helvetica,sans-Serif" font-size="10.00" fill="#fefefe">Пространство Фридмана</text>
</g>
<!-- Пространство Фридмана&#45;&#45;генерал Шмыга -->
<g id="edge77" class="edge"><title>Пространство Фридмана&#45;&#45;генерал Шмыга</title>
<path fill="none" stroke="#eeeeee" stroke-width="0.6" d="M3205.91,-1709.79C3135.72,-1692.7 3028.17,-1666.51 2969.14,-1652.14"/>
</g>
<!-- t -->
<g id="node26" class="node"><title>t</title>
<polygon fill="#181818" stroke="#090909" stroke-width="0.8" points="3033.87,-2001.97 2979.87,-2001.97 2979.87,-1965.97 3033.87,-1965.97 3033.87,-2001.97"/>
<text text-anchor="middle" x="3006.87" y="-1981.47" font-family="Helvetica,sans-Serif" font-size="10.00" fill="#fefefe">t</text>
</g>
<!-- t&#45;&#45;А Хули -->
<g id="edge78" class="edge"><title>t&#45;&#45;А Хули</title>
<path fill="none" stroke="#eeeeee" stroke-width="0.6" d="M2979.83,-1985.57C2940.96,-1987.87 2869.55,-1992.09 2829.42,-1994.47"/>
</g>
<!-- t&#45;&#45;Анна -->
<g id="edge79" class="edge"><title>t&#45;&#45;Анна</title>
<path fill="none" stroke="#555555" stroke-width="0.6" d="M3034.14,-2001.98C3138.93,-2071.17 3514.33,-2319.06 3603.72,-2378.08"/>
</g>
<!-- t&#45;&#45;генерал Шмыга -->
<g id="edge80" class="edge"><title>t&#45;&#45;генерал Шмыга</title>
<path fill="none" stroke="#eeeeee" stroke-width="0.6" d="M3002.57,-1965.58C2988.62,-1906.03 2944.8,-1718.97 2930.97,-1659.89"/>
</g>
<!-- t&#45;&#45;граф Т. -->
<g id="edge81" class="edge"><title>t&#45;&#45;граф Т.</title>
<path fill="none" stroke="#eeeeee" stroke-width="0.6" d="M3024.99,-2002.08C3067.42,-2044.5 3172.68,-2149.72 3212.56,-2189.59"/>
</g>
<!-- t&#45;&#45;лама Джамбон Тулку -->
<g id="edge82" class="edge"><title>t&#45;&#45;лама Джамбон Тулку</title>
<path fill="none" stroke="#eeeeee" stroke-width="0.6" d="M3010.84,-1965.74C3019.8,-1924.56 3041.51,-1824.74 3050.43,-1783.75"/>
</g>
<!-- t&#45;&#45;Лев Толстой -->
<g id="edge83" class="edge"><title>t&#45;&#45;Лев Толстой</title>
<path fill="none" stroke="#eeeeee" stroke-width="0.6" d="M3001.46,-2002.01C2986.51,-2051.82 2944.76,-2190.88 2929.79,-2240.76"/>
</g>
<!-- t&#45;&#45;Померанцев (Константин Победоносцев) -->
<g id="edge84" class="edge"><title>t&#45;&#45;Померанцев (Константин Победоносцев)</title>
<path fill="none" stroke="#eeeeee" stroke-width="0.6" d="M3014.81,-2002.34C3072.1,-2135.01 3422.02,-2945.32 3479.05,-3077.37"/>
</g>
<!-- t&#45;&#45;Чапаев -->
<g id="edge85" class="edge"><title>t&#45;&#45;Чапаев</title>
<path fill="none" stroke="#eeeeee" stroke-width="0.6" d="M3034.08,-1980.08C3079.92,-1973.53 3172.15,-1960.34 3219.16,-1953.62"/>
</g>
<!-- Зенитные кодексы Аль&#45;Эфесби -->
<g id="node27" class="node"><title>Зенитные кодексы Аль&#45;Эфесби</title>
<polygon fill="#181818" stroke="#090909" stroke-width="0.8" points="3611.32,-710.734 3445.32,-710.734 3445.32,-674.734 3611.32,-674.734 3611.32,-710.734"/>
<text text-anchor="middle" x="3528.32" y="-690.234" font-family="Helvetica,sans-Serif" font-size="10.00" fill="#fefefe">Зенитные кодексы Аль&#45;Эфесби</text>
</g>
<!-- БПЛА -->
<g id="node42" class="node"><title>БПЛА</title>
<polygon fill="none" stroke="#e8e8e8" stroke-width="0.6" points="4206.98,-690.046 4208.75,-690.145 4210.51,-690.292 4212.24,-690.488 4213.94,-690.732 4215.6,-691.024 4217.22,-691.361 4218.78,-691.745 4220.28,-692.173 4221.72,-692.644 4223.09,-693.158 4224.39,-693.712 4225.61,-694.305 4226.75,-694.936 4227.8,-695.602 4228.77,-696.303 4229.64,-697.035 4230.42,-697.798 4231.11,-698.589 4231.7,-699.405 4232.2,-700.245 4232.6,-701.106 4232.91,-701.986 4233.13,-702.883 4233.25,-703.793 4233.28,-704.716 4233.23,-705.647 4233.09,-706.584 4232.87,-707.526 4232.56,-708.468 4232.18,-709.41 4231.73,-710.347 4231.21,-711.278 4230.63,-712.2 4229.98,-713.111 4229.28,-714.007 4228.52,-714.888 4227.71,-715.749 4226.86,-716.589 4225.96,-717.405 4225.03,-718.196 4224.06,-718.958 4223.06,-719.691 4222.03,-720.392 4220.98,-721.058 4219.9,-721.689 4218.81,-722.282 4217.7,-722.836 4216.57,-723.35 4215.44,-723.821 4214.29,-724.249 4213.13,-724.632 4211.97,-724.97 4210.8,-725.262 4209.62,-725.506 4208.44,-725.702 4207.26,-725.849 4206.07,-725.948 4204.89,-725.997 4203.7,-725.997 4202.52,-725.948 4201.33,-725.849 4200.15,-725.702 4198.97,-725.506 4197.79,-725.262 4196.62,-724.97 4195.46,-724.632 4194.3,-724.249 4193.15,-723.821 4192.01,-723.35 4190.89,-722.836 4189.78,-722.282 4188.68,-721.689 4187.61,-721.058 4186.56,-720.392 4185.53,-719.691 4184.53,-718.958 4183.56,-718.196 4182.63,-717.405 4181.73,-716.589 4180.88,-715.749 4180.07,-714.888 4179.31,-714.007 4178.61,-713.111 4177.96,-712.2 4177.38,-711.278 4176.86,-710.347 4176.4,-709.41 4176.03,-708.468 4175.72,-707.526 4175.5,-706.584 4175.36,-705.647 4175.31,-704.716 4175.34,-703.793 4175.46,-702.883 4175.68,-701.986 4175.99,-701.106 4176.39,-700.245 4176.89,-699.405 4177.48,-698.589 4178.17,-697.798 4178.95,-697.035 4179.82,-696.303 4180.79,-695.602 4181.84,-694.936 4182.98,-694.305 4184.2,-693.712 4185.49,-693.158 4186.87,-692.644 4188.31,-692.173 4189.81,-691.745 4191.37,-691.361 4192.99,-691.024 4194.65,-690.732 4196.35,-690.488 4198.08,-690.292 4199.84,-690.145 4201.61,-690.046 4203.4,-689.997 4205.19,-689.997 4206.98,-690.046"/>
<text text-anchor="middle" x="4204.29" y="-705.497" font-family="Helvetica,sans-Serif" font-size="10.00" fill="#e8e8e8">БПЛА</text>
</g>
<!-- Зенитные кодексы Аль&#45;Эфесби&#45;&#45;БПЛА -->
<g id="edge86" class="edge"><title>Зенитные кодексы Аль&#45;Эфесби&#45;&#45;БПЛА</title>
<path fill="none" stroke="#eeeeee" stroke-width="0.6" d="M3611.55,-694.614C3763.47,-698.044 4078.97,-705.167 4175.57,-707.348"/>
</g>
<!-- Зенитные кодексы Аль&#45;Эфесби&#45;&#45;Макар Гетман -->
<g id="edge87" class="edge"><title>Зенитные кодексы Аль&#45;Эфесби&#45;&#45;Макар Гетман</title>
<path fill="none" stroke="#eeeeee" stroke-width="0.6" d="M3542.9,-674.698C3619.37,-580.069 3973.61,-141.731 4048.84,-48.6483"/>
</g>
<!-- Зенитные кодексы Аль&#45;Эфесби&#45;&#45;Семён Левитан -->
<g id="edge88" class="edge"><title>Зенитные кодексы Аль&#45;Эфесби&#45;&#45;Семён Левитан</title>
<path fill="none" stroke="#eeeeee" stroke-width="0.6" d="M3512.66,-710.819C3458.63,-773.196 3280.49,-978.867 3227.46,-1040.08"/>
</g>
<!-- Операция «Burning Bush» -->
<g id="node28" class="node"><title>Операция «Burning Bush»</title>
<polygon fill="#181818" stroke="#090909" stroke-width="0.8" points="2729.75,-1097.08 2594.75,-1097.08 2594.75,-1061.08 2729.75,-1061.08 2729.75,-1097.08"/>
<text text-anchor="middle" x="2662.25" y="-1076.58" font-family="Helvetica,sans-Serif" font-size="10.00" fill="#fefefe">Операция «Burning Bush»</text>
</g>
<!-- Операция «Burning Bush»&#45;&#45;Вавилен Татарский -->
<g id="edge89" class="edge"><title>Операция «Burning Bush»&#45;&#45;Вавилен Татарский</title>
<path fill="none" stroke="#eeeeee" stroke-width="0.6" d="M2663,-1097.21C2664.54,-1141.41 2666.9,-1258.1 2653.77,-1354.22 2646.01,-1411.03 2615.69,-1422.82 2623.5,-1479.62 2635.73,-1568.48 2652.61,-1674.4 2659.36,-1716.15"/>
</g>
<!-- Операция «Burning Bush»&#45;&#45;генерал Шмыга -->
<g id="edge90" class="edge"><title>Операция «Burning Bush»&#45;&#45;генерал Шмыга</title>
<path fill="none" stroke="#eeeeee" stroke-width="0.6" d="M2664.6,-1097.35C2670.36,-1138.61 2687.24,-1241.64 2721.3,-1321.18 2774.9,-1446.38 2875.26,-1577.7 2912.42,-1624.23"/>
</g>
<!-- Операция «Burning Bush»&#45;&#45;Дупин -->
<g id="edge91" class="edge"><title>Операция «Burning Bush»&#45;&#45;Дупин</title>
<path fill="none" stroke="#eeeeee" stroke-width="0.6" d="M2682.81,-1061C2758.48,-994.451 3020.75,-763.819 3090.06,-702.865"/>
</g>
<!-- Олег -->
<g id="node64" class="node"><title>Олег</title>
<ellipse fill="#2f2f2f" stroke="#ececec" stroke-width="0.6" cx="2798.34" cy="-706.236" rx="27" ry="18"/>
<text text-anchor="middle" x="2798.34" y="-703.736" font-family="Helvetica,sans-Serif" font-size="10.00" fill="#ececec">Олег</text>
</g>
<!-- Операция «Burning Bush»&#45;&#45;Олег -->
<g id="edge92" class="edge"><title>Операция «Burning Bush»&#45;&#45;Олег</title>
<path fill="none" stroke="#eeeeee" stroke-width="0.6" d="M2668.9,-1060.84C2692.07,-997.392 2768.97,-786.718 2791.86,-724.001"/>
</g>
<!-- Операция «Burning Bush»&#45;&#45;Семён Левитан -->
<g id="edge93" class="edge"><title>Операция «Burning Bush»&#45;&#45;Семён Левитан</title>
<path fill="none" stroke="#eeeeee" stroke-width="0.6" d="M2729.99,-1070.55C2775.85,-1064.78 2837.8,-1057 2892.46,-1050.18 2903.89,-1048.75 2906.8,-1048.11 2918.31,-1048.29 3003.37,-1049.61 3102.2,-1053.08 3160.92,-1055.34"/>
</g>
<!-- треугольное существо -->
<g id="node81" class="node"><title>треугольное существо</title>
<polygon fill="none" stroke="#e8e8e8" stroke-width="0.6" points="2521.22,-694.38 2525.86,-694.478 2530.45,-694.626 2534.97,-694.822 2539.41,-695.066 2543.75,-695.357 2547.96,-695.695 2552.04,-696.078 2555.97,-696.506 2559.73,-696.978 2563.31,-697.491 2566.7,-698.045 2569.89,-698.638 2572.86,-699.269 2575.61,-699.936 2578.13,-700.636 2580.41,-701.369 2582.45,-702.132 2584.24,-702.922 2585.79,-703.739 2587.09,-704.578 2588.15,-705.44 2588.95,-706.32 2589.51,-707.216 2589.84,-708.127 2589.92,-709.049 2589.78,-709.98 2589.41,-710.918 2588.83,-711.859 2588.04,-712.802 2587.05,-713.743 2585.87,-714.681 2584.52,-715.612 2582.99,-716.534 2581.3,-717.444 2579.46,-718.341 2577.48,-719.221 2575.37,-720.082 2573.14,-720.922 2570.8,-721.739 2568.36,-722.529 2565.83,-723.292 2563.22,-724.024 2560.54,-724.725 2557.79,-725.392 2554.98,-726.022 2552.13,-726.616 2549.23,-727.17 2546.29,-727.683 2543.32,-728.154 2540.32,-728.582 2537.29,-728.966 2534.25,-729.304 2531.19,-729.595 2528.12,-729.839 2525.04,-730.035 2521.95,-730.182 2518.86,-730.281 2515.76,-730.33 2512.67,-730.33 2509.57,-730.281 2506.48,-730.182 2503.39,-730.035 2500.31,-729.839 2497.24,-729.595 2494.18,-729.304 2491.14,-728.966 2488.12,-728.582 2485.12,-728.154 2482.15,-727.683 2479.21,-727.17 2476.31,-726.616 2473.45,-726.022 2470.64,-725.392 2467.89,-724.725 2465.21,-724.024 2462.6,-723.292 2460.07,-722.529 2457.63,-721.739 2455.3,-720.922 2453.07,-720.082 2450.96,-719.221 2448.98,-718.341 2447.14,-717.444 2445.45,-716.534 2443.92,-715.612 2442.56,-714.681 2441.38,-713.743 2440.39,-712.802 2439.6,-711.859 2439.02,-710.918 2438.65,-709.98 2438.51,-709.049 2438.6,-708.127 2438.92,-707.216 2439.48,-706.32 2440.29,-705.44 2441.34,-704.578 2442.64,-703.739 2444.19,-702.922 2445.98,-702.132 2448.02,-701.369 2450.31,-700.636 2452.82,-699.936 2455.57,-699.269 2458.54,-698.638 2461.73,-698.045 2465.12,-697.491 2468.7,-696.978 2472.46,-696.506 2476.39,-696.078 2480.47,-695.695 2484.68,-695.357 2489.02,-695.066 2493.46,-694.822 2497.98,-694.626 2502.57,-694.478 2507.21,-694.38 2511.88,-694.33 2516.55,-694.33 2521.22,-694.38"/>
<text text-anchor="middle" x="2514.22" y="-709.83" font-family="Helvetica,sans-Serif" font-size="10.00" fill="#e8e8e8">треугольное существо</text>
</g>
<!-- Операция «Burning Bush»&#45;&#45;треугольное существо -->
<g id="edge94" class="edge"><title>Операция «Burning Bush»&#45;&#45;треугольное существо</title>
<path fill="none" stroke="#eeeeee" stroke-width="0.6" d="M2654.91,-1060.89C2629.7,-998.452 2546.87,-793.234 2521.6,-730.627"/>
</g>
<!-- Отель хороших воплощений -->
<g id="node29" class="node"><title>Отель хороших воплощений</title>
<polygon fill="#181818" stroke="#090909" stroke-width="0.8" points="1981.03,-87.2677 1835.03,-87.2677 1835.03,-51.2677 1981.03,-51.2677 1981.03,-87.2677"/>
<text text-anchor="middle" x="1908.03" y="-66.7677" font-family="Helvetica,sans-Serif" font-size="10.00" fill="#fefefe">Отель хороших воплощений</text>
</g>
<!-- Отель хороших воплощений&#45;&#45;треугольное существо -->
<g id="edge95" class="edge"><title>Отель хороших воплощений&#45;&#45;треугольное существо</title>
<path fill="none" stroke="#eeeeee" stroke-width="0.6" d="M1925.19,-87.4775C2012.95,-180.579 2410.76,-602.58 2497.49,-694.584"/>
</g>
<!-- Созерцатель тени -->
<g id="node30" class="node"><title>Созерцатель тени</title>
<polygon fill="#181818" stroke="#090909" stroke-width="0.8" points="2718.45,-92.3117 2615.45,-92.3117 2615.45,-56.3117 2718.45,-56.3117 2718.45,-92.3117"/>
<text text-anchor="middle" x="2666.95" y="-71.8117" font-family="Helvetica,sans-Serif" font-size="10.00" fill="#fefefe">Созерцатель тени</text>
</g>
<!-- Борис -->
<g id="node40" class="node"><title>Борис</title>
<ellipse fill="#2f2f2f" stroke="#ececec" stroke-width="0.6" cx="2991.76" cy="-18" rx="27.1572" ry="18"/>
<text text-anchor="middle" x="2991.76" y="-15.5" font-family="Helvetica,sans-Serif" font-size="10.00" fill="#ececec">Борис</text>
</g>
<!-- Созерцатель тени&#45;&#45;Борис -->
<g id="edge96" class="edge"><title>Созерцатель тени&#45;&#45;Борис</title>
<path fill="none" stroke="#eeeeee" stroke-width="0.6" d="M2718.78,-65.3267C2788.99,-53.1545 2911.71,-31.879 2965.37,-22.5747"/>
</g>
<!-- Созерцатель тени&#45;&#45;Олег -->
<g id="edge97" class="edge"><title>Созерцатель тени&#45;&#45;Олег</title>
<path fill="none" stroke="#eeeeee" stroke-width="0.6" d="M2670.74,-92.5425C2689.86,-184.517 2775.59,-596.793 2794.6,-688.234"/>
</g>
<!-- Созерцатель тени&#45;&#45;треугольное существо -->
<g id="edge98" class="edge"><title>Созерцатель тени&#45;&#45;треугольное существо</title>
<path fill="none" stroke="#eeeeee" stroke-width="0.6" d="M2662.62,-92.3787C2640.56,-184.547 2540.72,-601.604 2518.58,-694.117"/>
</g>
<!-- Тхаги -->
<g id="node31" class="node"><title>Тхаги</title>
<polygon fill="#181818" stroke="#090909" stroke-width="0.8" points="2362.94,-41.9239 2308.94,-41.9239 2308.94,-5.92389 2362.94,-5.92389 2362.94,-41.9239"/>
<text text-anchor="middle" x="2335.94" y="-21.4239" font-family="Helvetica,sans-Serif" font-size="10.00" fill="#fefefe">Тхаги</text>
</g>
<!-- Тхаги&#45;&#45;Борис -->
<g id="edge99" class="edge"><title>Тхаги&#45;&#45;Борис</title>
<path fill="none" stroke="#eeeeee" stroke-width="0.6" d="M2363.29,-23.6769C2470.07,-22.7123 2858.31,-19.2054 2964.66,-18.2448"/>
</g>
<!-- S.N.U.F.F. -->
<g id="node32" class="node"><title>S.N.U.F.F.</title>
<polygon fill="#181818" stroke="#090909" stroke-width="0.8" points="4400.24,-1198.33 4335.24,-1198.33 4335.24,-1162.33 4400.24,-1162.33 4400.24,-1198.33"/>
<text text-anchor="middle" x="4367.74" y="-1177.83" font-family="Helvetica,sans-Serif" font-size="10.00" fill="#fefefe">S.N.U.F.F.</text>
</g>
<!-- Serge Gainsbourg -->
<g id="node36" class="node"><title>Serge Gainsbourg</title>
<polygon fill="none" stroke="#e8e8e8" stroke-width="0.6" points="5233.78,-13.6557 5237.43,-13.7542 5241.04,-13.9017 5244.6,-14.0977 5248.1,-14.3417 5251.51,-14.633 5254.83,-14.9708 5258.04,-15.3542 5261.14,-15.7822 5264.1,-16.2536 5266.92,-16.767 5269.59,-17.3211 5272.09,-17.9144 5274.43,-18.5451 5276.6,-19.2117 5278.58,-19.9123 5280.38,-20.6449 5281.98,-21.4075 5283.4,-22.1982 5284.62,-23.0145 5285.64,-23.8545 5286.47,-24.7157 5287.11,-25.5958 5287.55,-26.4923 5287.8,-27.4029 5287.87,-28.325 5287.76,-29.2561 5287.47,-30.1936 5287.01,-31.135 5286.39,-32.0777 5285.61,-33.0191 5284.68,-33.9566 5283.61,-34.8877 5282.41,-35.8098 5281.08,-36.7204 5279.63,-37.6169 5278.07,-38.497 5276.41,-39.3582 5274.65,-40.1982 5272.81,-41.0145 5270.89,-41.8052 5268.9,-42.5678 5266.85,-43.3004 5264.73,-44.001 5262.57,-44.6676 5260.36,-45.2984 5258.11,-45.8916 5255.83,-46.4457 5253.51,-46.9591 5251.17,-47.4305 5248.81,-47.8585 5246.43,-48.2419 5244.04,-48.5797 5241.63,-48.871 5239.21,-49.115 5236.78,-49.311 5234.35,-49.4585 5231.92,-49.557 5229.48,-49.6064 5227.04,-49.6064 5224.6,-49.557 5222.17,-49.4585 5219.74,-49.311 5217.31,-49.115 5214.89,-48.871 5212.49,-48.5797 5210.09,-48.2419 5207.71,-47.8585 5205.35,-47.4305 5203.01,-46.9591 5200.7,-46.4457 5198.41,-45.8916 5196.16,-45.2984 5193.95,-44.6676 5191.79,-44.001 5189.68,-43.3004 5187.62,-42.5678 5185.63,-41.8052 5183.71,-41.0145 5181.87,-40.1982 5180.11,-39.3582 5178.45,-38.497 5176.89,-37.6169 5175.45,-36.7204 5174.11,-35.8098 5172.91,-34.8877 5171.84,-33.9566 5170.91,-33.0191 5170.13,-32.0777 5169.51,-31.135 5169.05,-30.1936 5168.76,-29.2561 5168.65,-28.325 5168.72,-27.4029 5168.97,-26.4923 5169.42,-25.5958 5170.05,-24.7157 5170.88,-23.8545 5171.9,-23.0145 5173.12,-22.1982 5174.54,-21.4075 5176.14,-20.6449 5177.94,-19.9123 5179.92,-19.2117 5182.09,-18.5451 5184.43,-17.9144 5186.93,-17.3211 5189.6,-16.767 5192.42,-16.2536 5195.38,-15.7822 5198.48,-15.3542 5201.69,-14.9708 5205.01,-14.633 5208.42,-14.3417 5211.92,-14.0977 5215.48,-13.9017 5219.09,-13.7542 5222.74,-13.6557 5226.42,-13.6064 5230.1,-13.6064 5233.78,-13.6557"/>
<text text-anchor="middle" x="5228.26" y="-29.1064" font-family="Helvetica,sans-Serif" font-size="10.00" fill="#e8e8e8">Serge Gainsbourg</text>
</g>
<!-- S.N.U.F.F.&#45;&#45;Serge Gainsbourg -->
<g id="edge100" class="edge"><title>S.N.U.F.F.&#45;&#45;Serge Gainsbourg</title>
<path fill="none" stroke="#eeeeee" stroke-width="0.6" d="M4381.26,-1162.28C4482.08,-1027.7 5115.51,-182.117 5215.09,-49.185"/>
</g>
<!-- Ацтланский календарь -->
<g id="node39" class="node"><title>Ацтланский календарь</title>
<polygon fill="none" stroke="#e8e8e8" stroke-width="0.6" points="3587.64,-1362.33 3592.43,-1362.43 3597.18,-1362.57 3601.85,-1362.77 3606.44,-1363.01 3610.92,-1363.3 3615.27,-1363.64 3619.49,-1364.03 3623.55,-1364.45 3627.43,-1364.93 3631.13,-1365.44 3634.63,-1365.99 3637.92,-1366.59 3640.99,-1367.22 3643.83,-1367.88 3646.44,-1368.58 3648.79,-1369.32 3650.9,-1370.08 3652.76,-1370.87 3654.36,-1371.69 3655.7,-1372.53 3656.79,-1373.39 3657.62,-1374.27 3658.2,-1375.16 3658.54,-1376.07 3658.63,-1377 3658.48,-1377.93 3658.1,-1378.87 3657.5,-1379.81 3656.68,-1380.75 3655.66,-1381.69 3654.44,-1382.63 3653.04,-1383.56 3651.46,-1384.48 3649.71,-1385.39 3647.81,-1386.29 3645.76,-1387.17 3643.58,-1388.03 3641.28,-1388.87 3638.87,-1389.69 3636.35,-1390.48 3633.73,-1391.24 3631.04,-1391.97 3628.26,-1392.67 3625.42,-1393.34 3622.52,-1393.97 3619.57,-1394.56 3616.58,-1395.12 3613.54,-1395.63 3610.47,-1396.1 3607.37,-1396.53 3604.25,-1396.91 3601.1,-1397.25 3597.94,-1397.54 3594.77,-1397.79 3591.59,-1397.98 3588.4,-1398.13 3585.2,-1398.23 3582,-1398.28 3578.8,-1398.28 3575.6,-1398.23 3572.41,-1398.13 3569.22,-1397.98 3566.03,-1397.79 3562.86,-1397.54 3559.7,-1397.25 3556.56,-1396.91 3553.44,-1396.53 3550.34,-1396.1 3547.27,-1395.63 3544.23,-1395.12 3541.23,-1394.56 3538.28,-1393.97 3535.38,-1393.34 3532.54,-1392.67 3529.77,-1391.97 3527.07,-1391.24 3524.46,-1390.48 3521.94,-1389.69 3519.52,-1388.87 3517.22,-1388.03 3515.04,-1387.17 3513,-1386.29 3511.09,-1385.39 3509.35,-1384.48 3507.77,-1383.56 3506.36,-1382.63 3505.15,-1381.69 3504.12,-1380.75 3503.31,-1379.81 3502.71,-1378.87 3502.33,-1377.93 3502.18,-1377 3502.27,-1376.07 3502.6,-1375.16 3503.18,-1374.27 3504.02,-1373.39 3505.1,-1372.53 3506.45,-1371.69 3508.05,-1370.87 3509.9,-1370.08 3512.01,-1369.32 3514.37,-1368.58 3516.97,-1367.88 3519.81,-1367.22 3522.88,-1366.59 3526.17,-1365.99 3529.67,-1365.44 3533.37,-1364.93 3537.26,-1364.45 3541.32,-1364.03 3545.53,-1363.64 3549.89,-1363.3 3554.37,-1363.01 3558.96,-1362.77 3563.63,-1362.57 3568.37,-1362.43 3573.16,-1362.33 3577.99,-1362.28 3582.82,-1362.28 3587.64,-1362.33"/>
<text text-anchor="middle" x="3580.4" y="-1377.78" font-family="Helvetica,sans-Serif" font-size="10.00" fill="#e8e8e8">Ацтланский календарь</text>
</g>
<!-- S.N.U.F.F.&#45;&#45;Ацтланский календарь -->
<g id="edge101" class="edge"><title>S.N.U.F.F.&#45;&#45;Ацтланский календарь</title>
<path fill="none" stroke="#eeeeee" stroke-width="0.6" d="M4334.92,-1188.66C4213.48,-1219.5 3788.88,-1327.33 3635.88,-1366.19"/>
</g>
<!-- S.N.U.F.F.&#45;&#45;БПЛА -->
<g id="edge102" class="edge"><title>S.N.U.F.F.&#45;&#45;БПЛА</title>
<path fill="none" stroke="#eeeeee" stroke-width="0.6" d="M4361.44,-1162.1C4335.33,-1086.66 4235.9,-799.323 4210.32,-725.414"/>
</g>
<!-- гигантская летучая мышь -->
<g id="node47" class="node"><title>гигантская летучая мышь</title>
<polygon fill="none" stroke="#e8e8e8" stroke-width="0.6" points="3662.29,-1067.41 3667.5,-1067.5 3672.65,-1067.65 3677.73,-1067.85 3682.72,-1068.09 3687.59,-1068.38 3692.32,-1068.72 3696.9,-1069.1 3701.31,-1069.53 3705.54,-1070 3709.56,-1070.52 3713.36,-1071.07 3716.94,-1071.66 3720.28,-1072.3 3723.36,-1072.96 3726.19,-1073.66 3728.75,-1074.39 3731.04,-1075.16 3733.06,-1075.95 3734.8,-1076.76 3736.26,-1077.6 3737.44,-1078.47 3738.35,-1079.35 3738.98,-1080.24 3739.34,-1081.15 3739.44,-1082.08 3739.28,-1083.01 3738.87,-1083.94 3738.21,-1084.89 3737.33,-1085.83 3736.21,-1086.77 3734.89,-1087.71 3733.36,-1088.64 3731.65,-1089.56 3729.75,-1090.47 3727.68,-1091.37 3725.46,-1092.25 3723.09,-1093.11 3720.59,-1093.95 3717.96,-1094.76 3715.22,-1095.56 3712.38,-1096.32 3709.45,-1097.05 3706.44,-1097.75 3703.35,-1098.42 3700.2,-1099.05 3696.99,-1099.64 3693.74,-1100.2 3690.44,-1100.71 3687.1,-1101.18 3683.73,-1101.61 3680.34,-1101.99 3676.92,-1102.33 3673.49,-1102.62 3670.04,-1102.87 3666.58,-1103.06 3663.11,-1103.21 3659.64,-1103.31 3656.16,-1103.36 3652.68,-1103.36 3649.21,-1103.31 3645.73,-1103.21 3642.27,-1103.06 3638.81,-1102.87 3635.36,-1102.62 3631.92,-1102.33 3628.51,-1101.99 3625.11,-1101.61 3621.75,-1101.18 3618.41,-1100.71 3615.11,-1100.2 3611.85,-1099.64 3608.64,-1099.05 3605.49,-1098.42 3602.41,-1097.75 3599.39,-1097.05 3596.46,-1096.32 3593.62,-1095.56 3590.88,-1094.76 3588.26,-1093.95 3585.76,-1093.11 3583.39,-1092.25 3581.16,-1091.37 3579.1,-1090.47 3577.2,-1089.56 3575.48,-1088.64 3573.96,-1087.71 3572.63,-1086.77 3571.52,-1085.83 3570.63,-1084.89 3569.98,-1083.94 3569.57,-1083.01 3569.41,-1082.08 3569.51,-1081.15 3569.87,-1080.24 3570.5,-1079.35 3571.4,-1078.47 3572.59,-1077.6 3574.05,-1076.76 3575.79,-1075.95 3577.8,-1075.16 3580.09,-1074.39 3582.66,-1073.66 3585.48,-1072.96 3588.57,-1072.3 3591.91,-1071.66 3595.48,-1071.07 3599.29,-1070.52 3603.31,-1070 3607.53,-1069.53 3611.94,-1069.1 3616.53,-1068.72 3621.26,-1068.38 3626.13,-1068.09 3631.11,-1067.85 3636.19,-1067.65 3641.35,-1067.5 3646.56,-1067.41 3651.8,-1067.36 3657.05,-1067.36 3662.29,-1067.41"/>
<text text-anchor="middle" x="3654.42" y="-1082.86" font-family="Helvetica,sans-Serif" font-size="10.00" fill="#e8e8e8">гигантская летучая мышь</text>
</g>
<!-- S.N.U.F.F.&#45;&#45;гигантская летучая мышь -->
<g id="edge103" class="edge"><title>S.N.U.F.F.&#45;&#45;гигантская летучая мышь</title>
<path fill="none" stroke="#eeeeee" stroke-width="0.6" d="M4335.24,-1176C4225.74,-1161.42 3868.9,-1113.91 3720.3,-1094.13"/>
</g>
<!-- Еврайх -->
<g id="node50" class="node"><title>Еврайх</title>
<polygon fill="none" stroke="#e8e8e8" stroke-width="0.6" points="5387.25,-1458.71 5389.21,-1458.81 5391.14,-1458.96 5393.05,-1459.15 5394.93,-1459.4 5396.76,-1459.69 5398.53,-1460.03 5400.26,-1460.41 5401.91,-1460.84 5403.5,-1461.31 5405.01,-1461.82 5406.44,-1462.38 5407.78,-1462.97 5409.04,-1463.6 5410.2,-1464.27 5411.26,-1464.97 5412.22,-1465.7 5413.08,-1466.46 5413.84,-1467.25 5414.5,-1468.07 5415.04,-1468.91 5415.49,-1469.77 5415.83,-1470.65 5416.07,-1471.55 5416.2,-1472.46 5416.24,-1473.38 5416.18,-1474.31 5416.02,-1475.25 5415.78,-1476.19 5415.44,-1477.13 5415.03,-1478.08 5414.53,-1479.01 5413.96,-1479.94 5413.31,-1480.87 5412.6,-1481.78 5411.82,-1482.67 5410.99,-1483.55 5410.1,-1484.41 5409.16,-1485.25 5408.17,-1486.07 5407.14,-1486.86 5406.07,-1487.62 5404.97,-1488.36 5403.84,-1489.06 5402.68,-1489.72 5401.5,-1490.36 5400.29,-1490.95 5399.07,-1491.5 5397.83,-1492.02 5396.57,-1492.49 5395.31,-1492.92 5394.03,-1493.3 5392.75,-1493.64 5391.46,-1493.93 5390.16,-1494.17 5388.86,-1494.37 5387.56,-1494.52 5386.25,-1494.61 5384.95,-1494.66 5383.64,-1494.66 5382.34,-1494.61 5381.03,-1494.52 5379.73,-1494.37 5378.43,-1494.17 5377.13,-1493.93 5375.84,-1493.64 5374.56,-1493.3 5373.28,-1492.92 5372.02,-1492.49 5370.76,-1492.02 5369.52,-1491.5 5368.3,-1490.95 5367.09,-1490.36 5365.91,-1489.72 5364.75,-1489.06 5363.62,-1488.36 5362.52,-1487.62 5361.45,-1486.86 5360.42,-1486.07 5359.43,-1485.25 5358.49,-1484.41 5357.6,-1483.55 5356.77,-1482.67 5355.99,-1481.78 5355.28,-1480.87 5354.63,-1479.94 5354.06,-1479.01 5353.56,-1478.08 5353.15,-1477.13 5352.81,-1476.19 5352.57,-1475.25 5352.41,-1474.31 5352.35,-1473.38 5352.39,-1472.46 5352.52,-1471.55 5352.76,-1470.65 5353.1,-1469.77 5353.55,-1468.91 5354.09,-1468.07 5354.75,-1467.25 5355.51,-1466.46 5356.37,-1465.7 5357.33,-1464.97 5358.39,-1464.27 5359.55,-1463.6 5360.81,-1462.97 5362.15,-1462.38 5363.58,-1461.82 5365.09,-1461.31 5366.68,-1460.84 5368.33,-1460.41 5370.06,-1460.03 5371.83,-1459.69 5373.66,-1459.4 5375.54,-1459.15 5377.45,-1458.96 5379.38,-1458.81 5381.34,-1458.71 5383.31,-1458.66 5385.28,-1458.66 5387.25,-1458.71"/>
<text text-anchor="middle" x="5384.3" y="-1474.16" font-family="Helvetica,sans-Serif" font-size="10.00" fill="#e8e8e8">Еврайх</text>
</g>
<!-- S.N.U.F.F.&#45;&#45;Еврайх -->
<g id="edge104" class="edge"><title>S.N.U.F.F.&#45;&#45;Еврайх</title>
<path fill="none" stroke="#eeeeee" stroke-width="0.6" d="M4400.42,-1189.85C4554.19,-1234.68 5204.65,-1424.29 5353.75,-1467.76"/>
</g>
<!-- S.N.U.F.F.&#45;&#45;Семён Левитан -->
<g id="edge105" class="edge"><title>S.N.U.F.F.&#45;&#45;Семён Левитан</title>
<path fill="none" stroke="#eeeeee" stroke-width="0.6" d="M4335.11,-1177.1C4232.71,-1166.94 3908.6,-1134.58 3640.42,-1105.7 3503.26,-1090.92 3341.51,-1072.37 3261.85,-1063.16"/>
</g>
<!-- суры -->
<g id="node79" class="node"><title>суры</title>
<polygon fill="none" stroke="#e8e8e8" stroke-width="0.6" points="5494.08,-767.884 5495.85,-767.982 5497.61,-768.13 5499.34,-768.326 5501.04,-768.57 5502.7,-768.861 5504.32,-769.199 5505.88,-769.582 5507.38,-770.01 5508.82,-770.481 5510.2,-770.995 5511.49,-771.549 5512.71,-772.142 5513.85,-772.773 5514.9,-773.44 5515.87,-774.14 5516.74,-774.873 5517.52,-775.635 5518.21,-776.426 5518.8,-777.242 5519.3,-778.082 5519.7,-778.944 5520.01,-779.824 5520.23,-780.72 5520.35,-781.631 5520.38,-782.553 5520.33,-783.484 5520.19,-784.421 5519.97,-785.363 5519.66,-786.306 5519.29,-787.247 5518.83,-788.184 5518.31,-789.116 5517.73,-790.038 5517.08,-790.948 5516.38,-791.845 5515.62,-792.725 5514.81,-793.586 5513.96,-794.426 5513.06,-795.242 5512.13,-796.033 5511.16,-796.796 5510.16,-797.528 5509.13,-798.229 5508.08,-798.895 5507.01,-799.526 5505.91,-800.119 5504.8,-800.674 5503.68,-801.187 5502.54,-801.658 5501.39,-802.086 5500.23,-802.47 5499.07,-802.808 5497.9,-803.099 5496.72,-803.343 5495.54,-803.539 5494.36,-803.686 5493.17,-803.785 5491.99,-803.834 5490.8,-803.834 5489.62,-803.785 5488.43,-803.686 5487.25,-803.539 5486.07,-803.343 5484.89,-803.099 5483.72,-802.808 5482.56,-802.47 5481.4,-802.086 5480.25,-801.658 5479.12,-801.187 5477.99,-800.674 5476.88,-800.119 5475.79,-799.526 5474.71,-798.895 5473.66,-798.229 5472.63,-797.528 5471.63,-796.796 5470.66,-796.033 5469.73,-795.242 5468.83,-794.426 5467.98,-793.586 5467.17,-792.725 5466.42,-791.845 5465.71,-790.948 5465.06,-790.038 5464.48,-789.116 5463.96,-788.184 5463.51,-787.247 5463.13,-786.306 5462.82,-785.363 5462.6,-784.421 5462.46,-783.484 5462.41,-782.553 5462.44,-781.631 5462.56,-780.72 5462.78,-779.824 5463.09,-778.944 5463.49,-778.082 5463.99,-777.242 5464.58,-776.426 5465.27,-775.635 5466.05,-774.873 5466.92,-774.14 5467.89,-773.44 5468.94,-772.773 5470.08,-772.142 5471.3,-771.549 5472.6,-770.995 5473.97,-770.481 5475.41,-770.01 5476.91,-769.582 5478.47,-769.199 5480.09,-768.861 5481.75,-768.57 5483.45,-768.326 5485.18,-768.13 5486.94,-767.982 5488.71,-767.884 5490.5,-767.834 5492.29,-767.834 5494.08,-767.884"/>
<text text-anchor="middle" x="5491.4" y="-783.334" font-family="Helvetica,sans-Serif" font-size="10.00" fill="#e8e8e8">суры</text>
</g>
<!-- S.N.U.F.F.&#45;&#45;суры -->
<g id="edge106" class="edge"><title>S.N.U.F.F.&#45;&#45;суры</title>
<path fill="none" stroke="#eeeeee" stroke-width="0.6" d="M4400.46,-1168.84C4567.68,-1110.13 5324.58,-844.399 5467.93,-794.074"/>
</g>
<!-- Бэтман Аполло -->
<g id="node33" class="node"><title>Бэтман Аполло</title>
<polygon fill="#181818" stroke="#090909" stroke-width="0.8" points="3353.69,-1533.35 3267.69,-1533.35 3267.69,-1497.35 3353.69,-1497.35 3353.69,-1533.35"/>
<text text-anchor="middle" x="3310.69" y="-1512.85" font-family="Helvetica,sans-Serif" font-size="10.00" fill="#fefefe">Бэтман Аполло</text>
</g>
<!-- American Dream -->
<g id="node35" class="node"><title>American Dream</title>
<polygon fill="none" stroke="#e8e8e8" stroke-width="0.1" points="3927.82,-1471.16 3931.27,-1471.26 3934.69,-1471.4 3938.06,-1471.6 3941.36,-1471.84 3944.59,-1472.14 3947.72,-1472.47 3950.76,-1472.86 3953.68,-1473.28 3956.48,-1473.76 3959.15,-1474.27 3961.67,-1474.82 3964.04,-1475.42 3966.25,-1476.05 3968.29,-1476.71 3970.17,-1477.41 3971.87,-1478.15 3973.39,-1478.91 3974.72,-1479.7 3975.87,-1480.52 3976.84,-1481.36 3977.63,-1482.22 3978.23,-1483.1 3978.64,-1483.99 3978.88,-1484.91 3978.95,-1485.83 3978.84,-1486.76 3978.57,-1487.7 3978.14,-1488.64 3977.55,-1489.58 3976.81,-1490.52 3975.93,-1491.46 3974.92,-1492.39 3973.78,-1493.31 3972.53,-1494.22 3971.16,-1495.12 3969.68,-1496 3968.11,-1496.86 3966.46,-1497.7 3964.72,-1498.52 3962.9,-1499.31 3961.02,-1500.07 3959.08,-1500.8 3957.08,-1501.5 3955.03,-1502.17 3952.95,-1502.8 3950.82,-1503.39 3948.66,-1503.95 3946.47,-1504.46 3944.26,-1504.93 3942.03,-1505.36 3939.78,-1505.74 3937.52,-1506.08 3935.24,-1506.37 3932.96,-1506.62 3930.66,-1506.81 3928.37,-1506.96 3926.06,-1507.06 3923.76,-1507.11 3921.46,-1507.11 3919.15,-1507.06 3916.85,-1506.96 3914.55,-1506.81 3912.26,-1506.62 3909.97,-1506.37 3907.7,-1506.08 3905.43,-1505.74 3903.18,-1505.36 3900.95,-1504.93 3898.74,-1504.46 3896.55,-1503.95 3894.4,-1503.39 3892.27,-1502.8 3890.18,-1502.17 3888.14,-1501.5 3886.14,-1500.8 3884.2,-1500.07 3882.31,-1499.31 3880.5,-1498.52 3878.76,-1497.7 3877.1,-1496.86 3875.53,-1496 3874.06,-1495.12 3872.69,-1494.22 3871.43,-1493.31 3870.29,-1492.39 3869.28,-1491.46 3868.4,-1490.52 3867.67,-1489.58 3867.08,-1488.64 3866.65,-1487.7 3866.37,-1486.76 3866.27,-1485.83 3866.33,-1484.91 3866.57,-1483.99 3866.99,-1483.1 3867.59,-1482.22 3868.37,-1481.36 3869.34,-1480.52 3870.49,-1479.7 3871.83,-1478.91 3873.35,-1478.15 3875.05,-1477.41 3876.92,-1476.71 3878.97,-1476.05 3881.18,-1475.42 3883.55,-1474.82 3886.07,-1474.27 3888.73,-1473.76 3891.53,-1473.28 3894.46,-1472.86 3897.49,-1472.47 3900.63,-1472.14 3903.86,-1471.84 3907.16,-1471.6 3910.53,-1471.4 3913.94,-1471.26 3917.39,-1471.16 3920.87,-1471.11 3924.35,-1471.11 3927.82,-1471.16"/>
<text text-anchor="middle" x="3922.61" y="-1486.61" font-family="Helvetica,sans-Serif" font-size="10.00" fill="#e8e8e8">American Dream</text>
</g>
<!-- Бэтман Аполло&#45;&#45;American Dream -->
<g id="edge107" class="edge"><title>Бэтман Аполло&#45;&#45;American Dream</title>
<path fill="none" stroke="#555555" stroke-width="0.6" d="M3353.72,-1513.51C3462.67,-1508.83 3749.26,-1496.54 3868.92,-1491.41"/>
</g>
<!-- Бэтман Аполло&#45;&#45;Ацтланский календарь -->
<g id="edge108" class="edge"><title>Бэтман Аполло&#45;&#45;Ацтланский календарь</title>
<path fill="none" stroke="#eeeeee" stroke-width="0.6" d="M3346.78,-1497.28C3400.04,-1470.61 3498.78,-1421.16 3549.12,-1395.94"/>
</g>
<!-- Бэтман Аполло&#45;&#45;гигантская летучая мышь -->
<g id="edge109" class="edge"><title>Бэтман Аполло&#45;&#45;гигантская летучая мышь</title>
<path fill="none" stroke="#eeeeee" stroke-width="0.6" d="M3325.24,-1497.15C3381.46,-1426.82 3584.16,-1173.25 3640.06,-1103.32"/>
</g>
<!-- Бэтман Аполло&#45;&#45;клуб «Haute SOS» -->
<g id="edge110" class="edge"><title>Бэтман Аполло&#45;&#45;клуб «Haute SOS»</title>
<path fill="none" stroke="#eeeeee" stroke-width="0.6" d="M3294.73,-1497.32C3230.84,-1425.15 2993.99,-1157.57 2931.31,-1086.76"/>
</g>
<!-- Бэтман Аполло&#45;&#45;Михаил Ботвинник -->
<g id="edge111" class="edge"><title>Бэтман Аполло&#45;&#45;Михаил Ботвинник</title>
<path fill="none" stroke="#eeeeee" stroke-width="0.6" d="M3285.04,-1497.18C3229.12,-1457.57 3096.89,-1363.9 3042.65,-1325.48"/>
</g>
<!-- Бэтман Аполло&#45;&#45;Михаил Непойман -->
<g id="edge112" class="edge"><title>Бэтман Аполло&#45;&#45;Михаил Непойман</title>
<path fill="none" stroke="#eeeeee" stroke-width="0.6" d="M3341.54,-1533.42C3390.27,-1561.95 3484.28,-1617 3530.79,-1644.24"/>
</g>
<!-- Бэтман Аполло&#45;&#45;Рама -->
<g id="edge113" class="edge"><title>Бэтман Аполло&#45;&#45;Рама</title>
<path fill="none" stroke="#eeeeee" stroke-width="0.6" d="M3307.98,-1497.03C3301.97,-1456.33 3287.56,-1358.8 3281.6,-1318.43"/>
</g>
<!-- Бэтман Аполло&#45;&#45;халдеи -->
<g id="edge114" class="edge"><title>Бэтман Аполло&#45;&#45;халдеи</title>
<path fill="none" stroke="#eeeeee" stroke-width="0.6" d="M3267.44,-1517.72C3223.53,-1520.12 3156.6,-1523.79 3117.61,-1525.92"/>
</g>
<!-- Любовь к трём цукербринам -->
<g id="node34" class="node"><title>Любовь к трём цукербринам</title>
<polygon fill="#181818" stroke="#090909" stroke-width="0.8" points="4569.7,-1793.88 4419.7,-1793.88 4419.7,-1757.88 4569.7,-1757.88 4569.7,-1793.88"/>
<text text-anchor="middle" x="4494.7" y="-1773.38" font-family="Helvetica,sans-Serif" font-size="10.00" fill="#fefefe">Любовь к трём цукербринам</text>
</g>
<!-- Любовь к трём цукербринам&#45;&#45;American Dream -->
<g id="edge115" class="edge"><title>Любовь к трём цукербринам&#45;&#45;American Dream</title>
<path fill="none" stroke="#555555" stroke-width="0.6" d="M4458.48,-1757.73C4352.87,-1704.78 4046.68,-1551.3 3951.31,-1503.5"/>
</g>
<!-- Любовь к трём цукербринам&#45;&#45;Serge Gainsbourg -->
<g id="edge116" class="edge"><title>Любовь к трём цукербринам&#45;&#45;Serge Gainsbourg</title>
<path fill="none" stroke="#eeeeee" stroke-width="0.6" d="M4502.32,-1757.76C4575.23,-1584.41 5148.28,-221.784 5220.74,-49.4934"/>
</g>
<!-- Любовь к трём цукербринам&#45;&#45;Еврайх -->
<g id="edge117" class="edge"><title>Любовь к трём цукербринам&#45;&#45;Еврайх</title>
<path fill="none" stroke="#eeeeee" stroke-width="0.6" d="M4548.35,-1757.84C4717.95,-1700.79 5238.49,-1525.71 5359.14,-1485.12"/>
</g>
<!-- Любовь к трём цукербринам&#45;&#45;суры -->
<g id="edge118" class="edge"><title>Любовь к трём цукербринам&#45;&#45;суры</title>
<path fill="none" stroke="#eeeeee" stroke-width="0.6" d="M4512.85,-1757.85C4637.39,-1634.15 5363.93,-912.451 5476.69,-800.44"/>
</g>
</g>
</svg>
