<?xml version="1.0" encoding="UTF-8" standalone="no"?>
<!DOCTYPE svg PUBLIC "-//W3C//DTD SVG 1.1//EN"
 "http://www.w3.org/Graphics/SVG/1.1/DTD/svg11.dtd">
<!-- Generated by graphviz version 2.36.0 (20140111.2315)
 -->
<!-- Title: %3 Pages: 1 -->
<svg width="1722pt" height="1980pt"
 viewBox="0.00 0.00 1721.98 1980.16" xmlns="http://www.w3.org/2000/svg" xmlns:xlink="http://www.w3.org/1999/xlink">
<g id="graph0" class="graph" transform="scale(1 1) rotate(0) translate(4 1976.16)">
<title>%3</title>
<polygon fill="#1f1f1f" stroke="none" points="-4,4 -4,-1976.16 1717.98,-1976.16 1717.98,4 -4,4"/>
<!-- Оружие возмездия -->
<g id="node1" class="node"><title>Оружие возмездия</title>
<polygon fill="#181818" stroke="#090909" stroke-width="0.8" points="541.64,-53.7642 434.64,-53.7642 434.64,-17.7642 541.64,-17.7642 541.64,-53.7642"/>
<text text-anchor="middle" x="488.14" y="-33.2642" font-family="Helvetica,sans-Serif" font-size="10.00" fill="#fefefe">Оружие возмездия</text>
</g>
<!-- П. Стецюк -->
<g id="node61" class="node"><title>П. Стецюк</title>
<ellipse fill="#2f2f2f" stroke="#ececec" stroke-width="0.6" cx="817.271" cy="-21.0515" rx="39.3809" ry="18"/>
<text text-anchor="middle" x="817.271" y="-18.5515" font-family="Helvetica,sans-Serif" font-size="10.00" fill="#ececec">П. Стецюк</text>
</g>
<!-- Оружие возмездия&#45;&#45;П. Стецюк -->
<g id="edge1" class="edge"><title>Оружие возмездия&#45;&#45;П. Стецюк</title>
<path fill="none" stroke="#eeeeee" stroke-width="0.6" d="M541.753,-33.3676C607.875,-30.4118 718.73,-25.4565 777.65,-22.8226"/>
</g>
<!-- Реконструктор -->
<g id="node2" class="node"><title>Реконструктор</title>
<polygon fill="#181818" stroke="#090909" stroke-width="0.8" points="992.018,-327.095 904.018,-327.095 904.018,-291.095 992.018,-291.095 992.018,-327.095"/>
<text text-anchor="middle" x="948.018" y="-306.595" font-family="Helvetica,sans-Serif" font-size="10.00" fill="#fefefe">Реконструктор</text>
</g>
<!-- Реконструктор&#45;&#45;П. Стецюк -->
<g id="edge2" class="edge"><title>Реконструктор&#45;&#45;П. Стецюк</title>
<path fill="none" stroke="#eeeeee" stroke-width="0.6" d="M939.839,-291.077C916.303,-239.225 848.602,-90.0753 825.279,-38.6953"/>
</g>
<!-- Сероб Налбандян -->
<g id="node71" class="node"><title>Сероб Налбандян</title>
<ellipse fill="#2f2f2f" stroke="#ececec" stroke-width="0.6" cx="1257.17" cy="-325.406" rx="58.0561" ry="18"/>
<text text-anchor="middle" x="1257.17" y="-322.906" font-family="Helvetica,sans-Serif" font-size="10.00" fill="#ececec">Сероб Налбандян</text>
</g>
<!-- Реконструктор&#45;&#45;Сероб Налбандян -->
<g id="edge3" class="edge"><title>Реконструктор&#45;&#45;Сероб Налбандян</title>
<path fill="none" stroke="#eeeeee" stroke-width="0.6" d="M992.311,-311.432C1046.82,-314.308 1139.52,-319.199 1199.53,-322.365"/>
</g>
<!-- День бульдозериста -->
<g id="node3" class="node"><title>День бульдозериста</title>
<polygon fill="#181818" stroke="#090909" stroke-width="0.8" points="1638.8,-1941.88 1524.8,-1941.88 1524.8,-1905.88 1638.8,-1905.88 1638.8,-1941.88"/>
<text text-anchor="middle" x="1581.8" y="-1921.38" font-family="Helvetica,sans-Serif" font-size="10.00" fill="#fefefe">День бульдозериста</text>
</g>
<!-- Померанцев (Константин Победоносцев) -->
<g id="node64" class="node"><title>Померанцев (Константин Победоносцев)</title>
<ellipse fill="#2f2f2f" stroke="#ececec" stroke-width="0.6" cx="1327.29" cy="-1642.35" rx="121.707" ry="18"/>
<text text-anchor="middle" x="1327.29" y="-1639.85" font-family="Helvetica,sans-Serif" font-size="10.00" fill="#ececec">Померанцев (Константин Победоносцев)</text>
</g>
<!-- День бульдозериста&#45;&#45;Померанцев (Константин Победоносцев) -->
<g id="edge4" class="edge"><title>День бульдозериста&#45;&#45;Померанцев (Константин Победоносцев)</title>
<path fill="none" stroke="#eeeeee" stroke-width="0.6" d="M1565.49,-1905.84C1519.52,-1854.99 1389.26,-1710.9 1343.46,-1660.24"/>
</g>
<!-- товарищ Бабаясин -->
<g id="node74" class="node"><title>товарищ Бабаясин</title>
<ellipse fill="#2f2f2f" stroke="#ececec" stroke-width="0.6" cx="1248.1" cy="-1948.08" rx="61.4427" ry="18"/>
<text text-anchor="middle" x="1248.1" y="-1945.58" font-family="Helvetica,sans-Serif" font-size="10.00" fill="#ececec">товарищ Бабаясин</text>
</g>
<!-- День бульдозериста&#45;&#45;товарищ Бабаясин -->
<g id="edge5" class="edge"><title>День бульдозериста&#45;&#45;товарищ Бабаясин</title>
<path fill="none" stroke="#eeeeee" stroke-width="0.6" d="M1524.43,-1928.04C1463.96,-1932.42 1369.14,-1939.3 1307.8,-1943.75"/>
</g>
<!-- Миттельшпиль -->
<g id="node4" class="node"><title>Миттельшпиль</title>
<polygon fill="#181818" stroke="#090909" stroke-width="0.8" points="1654.83,-1598.86 1568.83,-1598.86 1568.83,-1562.86 1654.83,-1562.86 1654.83,-1598.86"/>
<text text-anchor="middle" x="1611.83" y="-1578.36" font-family="Helvetica,sans-Serif" font-size="10.00" fill="#fefefe">Миттельшпиль</text>
</g>
<!-- Нелли -->
<g id="node59" class="node"><title>Нелли</title>
<ellipse fill="#2f2f2f" stroke="#ececec" stroke-width="0.6" cx="1360.39" cy="-1393.1" rx="27.1572" ry="18"/>
<text text-anchor="middle" x="1360.39" y="-1390.6" font-family="Helvetica,sans-Serif" font-size="10.00" fill="#ececec">Нелли</text>
</g>
<!-- Миттельшпиль&#45;&#45;Нелли -->
<g id="edge6" class="edge"><title>Миттельшпиль&#45;&#45;Нелли</title>
<path fill="none" stroke="#eeeeee" stroke-width="0.6" d="M1587.72,-1562.86C1537.57,-1525.41 1422.99,-1439.84 1378.52,-1406.63"/>
</g>
<!-- Музыка со столба -->
<g id="node5" class="node"><title>Музыка со столба</title>
<polygon fill="#181818" stroke="#090909" stroke-width="0.8" points="1605.99,-60.7134 1504.99,-60.7134 1504.99,-24.7134 1605.99,-24.7134 1605.99,-60.7134"/>
<text text-anchor="middle" x="1555.49" y="-40.2134" font-family="Helvetica,sans-Serif" font-size="10.00" fill="#fefefe">Музыка со столба</text>
</g>
<!-- Матвей (Гиммлер) -->
<g id="node53" class="node"><title>Матвей (Гиммлер)</title>
<ellipse fill="#2f2f2f" stroke="#ececec" stroke-width="0.6" cx="1161.32" cy="-18" rx="59.4099" ry="18"/>
<text text-anchor="middle" x="1161.32" y="-15.5" font-family="Helvetica,sans-Serif" font-size="10.00" fill="#ececec">Матвей (Гиммлер)</text>
</g>
<!-- Музыка со столба&#45;&#45;Матвей (Гиммлер) -->
<g id="edge7" class="edge"><title>Музыка со столба&#45;&#45;Матвей (Гиммлер)</title>
<path fill="none" stroke="#eeeeee" stroke-width="0.6" d="M1504.77,-39.5331C1431.68,-34.9508 1297.07,-26.5114 1219.86,-21.6705"/>
</g>
<!-- Откровение Крегера -->
<g id="node6" class="node"><title>Откровение Крегера</title>
<polygon fill="#181818" stroke="#090909" stroke-width="0.8" points="1640.06,-411.493 1525.06,-411.493 1525.06,-375.493 1640.06,-375.493 1640.06,-411.493"/>
<text text-anchor="middle" x="1582.56" y="-390.993" font-family="Helvetica,sans-Serif" font-size="10.00" fill="#fefefe">Откровение Крегера</text>
</g>
<!-- Откровение Крегера&#45;&#45;Матвей (Гиммлер) -->
<g id="edge8" class="edge"><title>Откровение Крегера&#45;&#45;Матвей (Гиммлер)</title>
<path fill="none" stroke="#eeeeee" stroke-width="0.6" d="M1562.24,-375.382C1490.59,-311.509 1250.23,-97.2612 1180.46,-35.0636"/>
</g>
<!-- Откровение Крегера&#45;&#45;Сероб Налбандян -->
<g id="edge9" class="edge"><title>Откровение Крегера&#45;&#45;Сероб Налбандян</title>
<path fill="none" stroke="#eeeeee" stroke-width="0.6" d="M1524.76,-381.399C1462.3,-368.33 1363.89,-347.737 1305.42,-335.503"/>
</g>
<!-- Принц Госплана -->
<g id="node7" class="node"><title>Принц Госплана</title>
<polygon fill="#181818" stroke="#090909" stroke-width="0.8" points="1671.89,-1112.35 1578.89,-1112.35 1578.89,-1076.35 1671.89,-1076.35 1671.89,-1112.35"/>
<text text-anchor="middle" x="1625.39" y="-1091.85" font-family="Helvetica,sans-Serif" font-size="10.00" fill="#fefefe">Принц Госплана</text>
</g>
<!-- Саша Лапин -->
<g id="node69" class="node"><title>Саша Лапин</title>
<ellipse fill="#2f2f2f" stroke="#ececec" stroke-width="0.6" cx="1367.08" cy="-1198.99" rx="42.9448" ry="18"/>
<text text-anchor="middle" x="1367.08" y="-1196.49" font-family="Helvetica,sans-Serif" font-size="10.00" fill="#ececec">Саша Лапин</text>
</g>
<!-- Принц Госплана&#45;&#45;Саша Лапин -->
<g id="edge10" class="edge"><title>Принц Госплана&#45;&#45;Саша Лапин</title>
<path fill="none" stroke="#eeeeee" stroke-width="0.6" d="M1580.69,-1112.45C1528.57,-1133.57 1443.75,-1167.93 1398.26,-1186.36"/>
</g>
<!-- Проблема верволка в средней полосе -->
<g id="node8" class="node"><title>Проблема верволка в средней полосе</title>
<polygon fill="#181818" stroke="#090909" stroke-width="0.8" points="1713.98,-1332.26 1520.98,-1332.26 1520.98,-1296.26 1713.98,-1296.26 1713.98,-1332.26"/>
<text text-anchor="middle" x="1617.48" y="-1311.76" font-family="Helvetica,sans-Serif" font-size="10.00" fill="#fefefe">Проблема верволка в средней полосе</text>
</g>
<!-- Проблема верволка в средней полосе&#45;&#45;Саша Лапин -->
<g id="edge11" class="edge"><title>Проблема верволка в средней полосе&#45;&#45;Саша Лапин</title>
<path fill="none" stroke="#eeeeee" stroke-width="0.6" d="M1578.35,-1296.25C1527.88,-1273.01 1441.21,-1233.12 1396.18,-1212.39"/>
</g>
<!-- Омон Ра -->
<g id="node9" class="node"><title>Омон Ра</title>
<polygon fill="#181818" stroke="#090909" stroke-width="0.8" points="1040.11,-537.484 984.113,-537.484 984.113,-501.484 1040.11,-501.484 1040.11,-537.484"/>
<text text-anchor="middle" x="1012.11" y="-516.984" font-family="Helvetica,sans-Serif" font-size="10.00" fill="#fefefe">Омон Ра</text>
</g>
<!-- Бункер под Лубянкой -->
<g id="node39" class="node"><title>Бункер под Лубянкой</title>
<polygon fill="none" stroke="#e8e8e8" stroke-width="0.6" points="819.421,-549.404 823.905,-549.503 828.343,-549.65 832.716,-549.846 837.007,-550.09 841.199,-550.381 845.275,-550.719 849.219,-551.103 853.016,-551.531 856.652,-552.002 860.115,-552.515 863.391,-553.069 866.47,-553.663 869.343,-554.293 872,-554.96 874.435,-555.661 876.641,-556.393 878.614,-557.156 880.35,-557.946 881.847,-558.763 883.104,-559.603 884.122,-560.464 884.901,-561.344 885.445,-562.241 885.756,-563.151 885.84,-564.073 885.702,-565.004 885.348,-565.942 884.785,-566.883 884.021,-567.826 883.065,-568.767 881.926,-569.705 880.611,-570.636 879.133,-571.558 877.499,-572.469 875.72,-573.365 873.806,-574.245 871.766,-575.107 869.611,-575.946 867.35,-576.763 864.993,-577.553 862.548,-578.316 860.025,-579.049 857.43,-579.749 854.773,-580.416 852.06,-581.047 849.298,-581.64 846.494,-582.194 843.653,-582.707 840.78,-583.179 837.881,-583.607 834.958,-583.99 832.018,-584.328 829.061,-584.619 826.093,-584.863 823.114,-585.059 820.129,-585.207 817.138,-585.305 814.145,-585.355 811.15,-585.355 808.157,-585.305 805.166,-585.207 802.181,-585.059 799.203,-584.863 796.234,-584.619 793.278,-584.328 790.337,-583.99 787.415,-583.607 784.515,-583.179 781.642,-582.707 778.801,-582.194 775.997,-581.64 773.235,-581.047 770.522,-580.416 767.865,-579.749 765.271,-579.049 762.747,-578.316 760.302,-577.553 757.945,-576.763 755.684,-575.946 753.529,-575.107 751.49,-574.245 749.576,-573.365 747.797,-572.469 746.163,-571.558 744.684,-570.636 743.37,-569.705 742.23,-568.767 741.274,-567.826 740.51,-566.883 739.948,-565.942 739.594,-565.004 739.455,-564.073 739.539,-563.151 739.85,-562.241 740.394,-561.344 741.173,-560.464 742.191,-559.603 743.448,-558.763 744.945,-557.946 746.681,-557.156 748.654,-556.393 750.861,-555.661 753.295,-554.96 755.953,-554.293 758.825,-553.663 761.904,-553.069 765.181,-552.515 768.643,-552.002 772.279,-551.531 776.076,-551.103 780.02,-550.719 784.096,-550.381 788.288,-550.09 792.579,-549.846 796.953,-549.65 801.39,-549.503 805.875,-549.404 810.387,-549.355 814.908,-549.355 819.421,-549.404"/>
<text text-anchor="middle" x="812.648" y="-564.855" font-family="Helvetica,sans-Serif" font-size="10.00" fill="#e8e8e8">Бункер под Лубянкой</text>
</g>
<!-- Омон Ра&#45;&#45;Бункер под Лубянкой -->
<g id="edge12" class="edge"><title>Омон Ра&#45;&#45;Бункер под Лубянкой</title>
<path fill="none" stroke="#eeeeee" stroke-width="0.6" d="M983.957,-526.241C953.996,-533.432 905.819,-544.994 868.176,-554.028"/>
</g>
<!-- Омон Ра&#45;&#45;Сероб Налбандян -->
<g id="edge13" class="edge"><title>Омон Ра&#45;&#45;Сероб Налбандян</title>
<path fill="none" stroke="#eeeeee" stroke-width="0.6" d="M1035.17,-501.226C1082.47,-463.764 1189.89,-378.689 1235.76,-342.362"/>
</g>
<!-- Чапаев и Пустота -->
<g id="node10" class="node"><title>Чапаев и Пустота</title>
<polygon fill="#181818" stroke="#090909" stroke-width="0.8" points="892.43,-1699.5 791.43,-1699.5 791.43,-1663.5 892.43,-1663.5 892.43,-1699.5"/>
<text text-anchor="middle" x="841.93" y="-1679" font-family="Helvetica,sans-Serif" font-size="10.00" fill="#fefefe">Чапаев и Пустота</text>
</g>
<!-- Анна -->
<g id="node35" class="node"><title>Анна</title>
<ellipse fill="none" stroke="#ececec" stroke-width="0.6" stroke-dasharray="1,5" cx="969.688" cy="-1950.75" rx="27" ry="18"/>
<text text-anchor="middle" x="969.688" y="-1948.25" font-family="Helvetica,sans-Serif" font-size="10.00" fill="#ececec">Анна</text>
</g>
<!-- Чапаев и Пустота&#45;&#45;Анна -->
<g id="edge14" class="edge"><title>Чапаев и Пустота&#45;&#45;Анна</title>
<path fill="none" stroke="#555555" stroke-width="0.6" d="M850.511,-1699.59C873.897,-1748.87 938.532,-1885.09 961.477,-1933.45"/>
</g>
<!-- Вовчик Малой -->
<g id="node41" class="node"><title>Вовчик Малой</title>
<ellipse fill="#2f2f2f" stroke="#ececec" stroke-width="0.6" cx="863.782" cy="-1361.62" rx="48.7185" ry="18"/>
<text text-anchor="middle" x="863.782" y="-1359.12" font-family="Helvetica,sans-Serif" font-size="10.00" fill="#ececec">Вовчик Малой</text>
</g>
<!-- Чапаев и Пустота&#45;&#45;Вовчик Малой -->
<g id="edge15" class="edge"><title>Чапаев и Пустота&#45;&#45;Вовчик Малой</title>
<path fill="none" stroke="#eeeeee" stroke-width="0.6" d="M843.167,-1663.39C847.004,-1607.22 858.676,-1436.37 862.531,-1379.94"/>
</g>
<!-- граф Т. -->
<g id="node44" class="node"><title>граф Т.</title>
<ellipse fill="#2f2f2f" stroke="#ececec" stroke-width="0.6" cx="1077.19" cy="-1670.92" rx="31.3996" ry="18"/>
<text text-anchor="middle" x="1077.19" y="-1668.42" font-family="Helvetica,sans-Serif" font-size="10.00" fill="#ececec">граф Т.</text>
</g>
<!-- Чапаев и Пустота&#45;&#45;граф Т. -->
<g id="edge16" class="edge"><title>Чапаев и Пустота&#45;&#45;граф Т.</title>
<path fill="none" stroke="#eeeeee" stroke-width="0.6" d="M892.688,-1679.22C939.29,-1677.12 1006.86,-1674.08 1045.98,-1672.32"/>
</g>
<!-- лама Джамбон Тулку -->
<g id="node48" class="node"><title>лама Джамбон Тулку</title>
<ellipse fill="#2f2f2f" stroke="#ececec" stroke-width="0.6" cx="956.926" cy="-1249.97" rx="67.893" ry="18"/>
<text text-anchor="middle" x="956.926" y="-1247.47" font-family="Helvetica,sans-Serif" font-size="10.00" fill="#ececec">лама Джамбон Тулку</text>
</g>
<!-- Чапаев и Пустота&#45;&#45;лама Джамбон Тулку -->
<g id="edge17" class="edge"><title>Чапаев и Пустота&#45;&#45;лама Джамбон Тулку</title>
<path fill="none" stroke="#eeeeee" stroke-width="0.6" d="M846.797,-1663.24C865.607,-1592.65 933.421,-1338.18 952.121,-1268"/>
</g>
<!-- Петр Пустота -->
<g id="node63" class="node"><title>Петр Пустота</title>
<ellipse fill="#2f2f2f" stroke="#ececec" stroke-width="0.6" cx="612.919" cy="-1665.83" rx="48.7185" ry="18"/>
<text text-anchor="middle" x="612.919" y="-1663.33" font-family="Helvetica,sans-Serif" font-size="10.00" fill="#ececec">Петр Пустота</text>
</g>
<!-- Чапаев и Пустота&#45;&#45;Петр Пустота -->
<g id="edge18" class="edge"><title>Чапаев и Пустота&#45;&#45;Петр Пустота</title>
<path fill="none" stroke="#eeeeee" stroke-width="0.6" d="M791.389,-1678.05C752.531,-1675.39 699.203,-1671.74 660.98,-1669.12"/>
</g>
<!-- Чапаев и Пустота&#45;&#45;товарищ Бабаясин -->
<g id="edge19" class="edge"><title>Чапаев и Пустота&#45;&#45;товарищ Бабаясин</title>
<path fill="none" stroke="#eeeeee" stroke-width="0.6" d="M869.528,-1699.62C944.43,-1748.78 1150.73,-1884.17 1222.83,-1931.49"/>
</g>
<!-- Чапаев -->
<g id="node77" class="node"><title>Чапаев</title>
<ellipse fill="#2f2f2f" stroke="#ececec" stroke-width="0.6" cx="948.284" cy="-1498.23" rx="29.3664" ry="18"/>
<text text-anchor="middle" x="948.284" y="-1495.73" font-family="Helvetica,sans-Serif" font-size="10.00" fill="#ececec">Чапаев</text>
</g>
<!-- Чапаев и Пустота&#45;&#45;Чапаев -->
<g id="edge20" class="edge"><title>Чапаев и Пустота&#45;&#45;Чапаев</title>
<path fill="none" stroke="#eeeeee" stroke-width="0.6" d="M852.516,-1663.26C873.112,-1627.77 918.308,-1549.89 938.362,-1515.33"/>
</g>
<!-- Имена олигархов на карте Родины -->
<g id="node11" class="node"><title>Имена олигархов на карте Родины</title>
<polygon fill="#181818" stroke="#090909" stroke-width="0.8" points="932.685,-890.288 753.685,-890.288 753.685,-854.288 932.685,-854.288 932.685,-890.288"/>
<text text-anchor="middle" x="843.185" y="-869.788" font-family="Helvetica,sans-Serif" font-size="10.00" fill="#fefefe">Имена олигархов на карте Родины</text>
</g>
<!-- Вавилен Татарский -->
<g id="node40" class="node"><title>Вавилен Татарский</title>
<ellipse fill="#2f2f2f" stroke="#ececec" stroke-width="0.6" cx="1041.92" cy="-1036.82" rx="64.3289" ry="18"/>
<text text-anchor="middle" x="1041.92" y="-1034.32" font-family="Helvetica,sans-Serif" font-size="10.00" fill="#ececec">Вавилен Татарский</text>
</g>
<!-- Имена олигархов на карте Родины&#45;&#45;Вавилен Татарский -->
<g id="edge21" class="edge"><title>Имена олигархов на карте Родины&#45;&#45;Вавилен Татарский</title>
<path fill="none" stroke="#eeeeee" stroke-width="0.6" d="M865.213,-890.525C903.92,-922.57 983.6,-988.536 1021.29,-1019.74"/>
</g>
<!-- Generation «П» -->
<g id="node12" class="node"><title>Generation «П»</title>
<polygon fill="#181818" stroke="#090909" stroke-width="0.8" points="968.124,-1146.47 883.124,-1146.47 883.124,-1110.47 968.124,-1110.47 968.124,-1146.47"/>
<text text-anchor="middle" x="925.624" y="-1125.97" font-family="Helvetica,sans-Serif" font-size="10.00" fill="#fefefe">Generation «П»</text>
</g>
<!-- Generation «П»&#45;&#45;Вавилен Татарский -->
<g id="edge22" class="edge"><title>Generation «П»&#45;&#45;Вавилен Татарский</title>
<path fill="none" stroke="#eeeeee" stroke-width="0.6" d="M948.601,-1110.37C969.387,-1093.98 999.778,-1070.03 1020.17,-1053.96"/>
</g>
<!-- Generation «П»&#45;&#45;Вовчик Малой -->
<g id="edge23" class="edge"><title>Generation «П»&#45;&#45;Вовчик Малой</title>
<path fill="none" stroke="#eeeeee" stroke-width="0.6" d="M919.294,-1146.84C911.276,-1170.5 897.338,-1212.97 887.63,-1249.95 879.072,-1282.55 871.363,-1321.1 867.15,-1343.32"/>
</g>
<!-- Generation «П»&#45;&#45;лама Джамбон Тулку -->
<g id="edge24" class="edge"><title>Generation «П»&#45;&#45;лама Джамбон Тулку</title>
<path fill="none" stroke="#eeeeee" stroke-width="0.6" d="M930.311,-1146.66C936.212,-1169.57 946.292,-1208.7 952.208,-1231.66"/>
</g>
<!-- Малюта -->
<g id="node52" class="node"><title>Малюта</title>
<ellipse fill="#2f2f2f" stroke="#ececec" stroke-width="0.6" cx="916.289" cy="-1015.06" rx="31.3996" ry="18"/>
<text text-anchor="middle" x="916.289" y="-1012.56" font-family="Helvetica,sans-Serif" font-size="10.00" fill="#ececec">Малюта</text>
</g>
<!-- Generation «П»&#45;&#45;Малюта -->
<g id="edge25" class="edge"><title>Generation «П»&#45;&#45;Малюта</title>
<path fill="none" stroke="#eeeeee" stroke-width="0.6" d="M924.124,-1110.25C922.382,-1089.09 919.526,-1054.38 917.785,-1033.24"/>
</g>
<!-- Михаил Непойман -->
<g id="node55" class="node"><title>Михаил Непойман</title>
<ellipse fill="#2f2f2f" stroke="#ececec" stroke-width="0.6" cx="712.68" cy="-1322.2" rx="59.4099" ry="18"/>
<text text-anchor="middle" x="712.68" y="-1319.7" font-family="Helvetica,sans-Serif" font-size="10.00" fill="#ececec">Михаил Непойман</text>
</g>
<!-- Generation «П»&#45;&#45;Михаил Непойман -->
<g id="edge26" class="edge"><title>Generation «П»&#45;&#45;Михаил Непойман</title>
<path fill="none" stroke="#eeeeee" stroke-width="0.6" d="M891.911,-1146.5C860.817,-1164.33 814.754,-1193.94 782.694,-1228.69 760.001,-1253.28 737.475,-1285.02 724.329,-1304.48"/>
</g>
<!-- пёс Пиздец -->
<g id="node62" class="node"><title>пёс Пиздец</title>
<polygon fill="none" stroke="#e8e8e8" stroke-width="0.6" points="1054.5,-1154.15 1057.22,-1154.24 1059.92,-1154.39 1062.58,-1154.59 1065.19,-1154.83 1067.74,-1155.12 1070.22,-1155.46 1072.62,-1155.84 1074.93,-1156.27 1077.14,-1156.74 1079.25,-1157.26 1081.24,-1157.81 1083.11,-1158.4 1084.86,-1159.04 1086.48,-1159.7 1087.96,-1160.4 1089.3,-1161.14 1090.5,-1161.9 1091.56,-1162.69 1092.47,-1163.5 1093.23,-1164.34 1093.85,-1165.21 1094.32,-1166.09 1094.65,-1166.98 1094.84,-1167.89 1094.89,-1168.82 1094.81,-1169.75 1094.59,-1170.68 1094.25,-1171.63 1093.79,-1172.57 1093.21,-1173.51 1092.51,-1174.45 1091.71,-1175.38 1090.81,-1176.3 1089.82,-1177.21 1088.74,-1178.11 1087.57,-1178.99 1086.33,-1179.85 1085.02,-1180.69 1083.65,-1181.5 1082.21,-1182.3 1080.73,-1183.06 1079.19,-1183.79 1077.61,-1184.49 1076,-1185.16 1074.35,-1185.79 1072.67,-1186.38 1070.96,-1186.94 1069.23,-1187.45 1067.49,-1187.92 1065.72,-1188.35 1063.95,-1188.73 1062.16,-1189.07 1060.36,-1189.36 1058.55,-1189.61 1056.74,-1189.8 1054.93,-1189.95 1053.11,-1190.05 1051.29,-1190.1 1049.47,-1190.1 1047.64,-1190.05 1045.83,-1189.95 1044.01,-1189.8 1042.2,-1189.61 1040.39,-1189.36 1038.59,-1189.07 1036.81,-1188.73 1035.03,-1188.35 1033.26,-1187.92 1031.52,-1187.45 1029.79,-1186.94 1028.08,-1186.38 1026.4,-1185.79 1024.75,-1185.16 1023.14,-1184.49 1021.56,-1183.79 1020.02,-1183.06 1018.54,-1182.3 1017.1,-1181.5 1015.73,-1180.69 1014.42,-1179.85 1013.18,-1178.99 1012.01,-1178.11 1010.93,-1177.21 1009.94,-1176.3 1009.04,-1175.38 1008.24,-1174.45 1007.55,-1173.51 1006.96,-1172.57 1006.5,-1171.63 1006.16,-1170.68 1005.94,-1169.75 1005.86,-1168.82 1005.91,-1167.89 1006.1,-1166.98 1006.43,-1166.09 1006.9,-1165.21 1007.52,-1164.34 1008.29,-1163.5 1009.2,-1162.69 1010.25,-1161.9 1011.45,-1161.14 1012.8,-1160.4 1014.28,-1159.7 1015.89,-1159.04 1017.64,-1158.4 1019.51,-1157.81 1021.51,-1157.26 1023.61,-1156.74 1025.82,-1156.27 1028.13,-1155.84 1030.53,-1155.46 1033.01,-1155.12 1035.56,-1154.83 1038.17,-1154.59 1040.83,-1154.39 1043.53,-1154.24 1046.26,-1154.15 1049,-1154.1 1051.75,-1154.1 1054.5,-1154.15"/>
<text text-anchor="middle" x="1050.38" y="-1169.6" font-family="Helvetica,sans-Serif" font-size="10.00" fill="#e8e8e8">пёс Пиздец</text>
</g>
<!-- Generation «П»&#45;&#45;пёс Пиздец -->
<g id="edge27" class="edge"><title>Generation «П»&#45;&#45;пёс Пиздец</title>
<path fill="none" stroke="#eeeeee" stroke-width="0.6" d="M968.208,-1143.36C983.172,-1148.6 999.832,-1154.42 1014.22,-1159.45"/>
</g>
<!-- Семён Левитан -->
<g id="node70" class="node"><title>Семён Левитан</title>
<ellipse fill="#2f2f2f" stroke="#ececec" stroke-width="0.6" cx="627.387" cy="-1111.68" rx="51.6054" ry="18"/>
<text text-anchor="middle" x="627.387" y="-1109.18" font-family="Helvetica,sans-Serif" font-size="10.00" fill="#ececec">Семён Левитан</text>
</g>
<!-- Generation «П»&#45;&#45;Семён Левитан -->
<g id="edge28" class="edge"><title>Generation «П»&#45;&#45;Семён Левитан</title>
<path fill="none" stroke="#eeeeee" stroke-width="0.6" d="M882.926,-1126.77C860.054,-1125.86 831.397,-1124.69 805.813,-1123.62 762.697,-1121.81 713.8,-1118.45 678.11,-1115.75"/>
</g>
<!-- халдеи -->
<g id="node76" class="node"><title>халдеи</title>
<polygon fill="none" stroke="#e8e8e8" stroke-width="0.6" points="809.455,-1084.47 811.366,-1084.57 813.257,-1084.72 815.12,-1084.91 816.949,-1085.16 818.735,-1085.45 820.472,-1085.79 822.153,-1086.17 823.771,-1086.6 825.32,-1087.07 826.796,-1087.58 828.192,-1088.14 829.504,-1088.73 830.728,-1089.36 831.861,-1090.03 832.898,-1090.73 833.838,-1091.46 834.679,-1092.22 835.419,-1093.01 836.057,-1093.83 836.593,-1094.67 837.026,-1095.53 837.358,-1096.41 837.59,-1097.31 837.723,-1098.22 837.758,-1099.14 837.699,-1100.07 837.548,-1101.01 837.309,-1101.95 836.983,-1102.89 836.576,-1103.83 836.09,-1104.77 835.53,-1105.7 834.9,-1106.63 834.204,-1107.54 833.446,-1108.43 832.63,-1109.31 831.761,-1110.17 830.843,-1111.01 829.879,-1111.83 828.875,-1112.62 827.833,-1113.38 826.757,-1114.12 825.652,-1114.82 824.52,-1115.48 823.363,-1116.11 822.187,-1116.71 820.992,-1117.26 819.781,-1117.77 818.557,-1118.25 817.321,-1118.67 816.076,-1119.06 814.823,-1119.4 813.563,-1119.69 812.298,-1119.93 811.029,-1120.13 809.757,-1120.27 808.482,-1120.37 807.207,-1120.42 805.931,-1120.42 804.655,-1120.37 803.381,-1120.27 802.108,-1120.13 800.839,-1119.93 799.574,-1119.69 798.314,-1119.4 797.061,-1119.06 795.816,-1118.67 794.58,-1118.25 793.356,-1117.77 792.146,-1117.26 790.951,-1116.71 789.774,-1116.11 788.618,-1115.48 787.485,-1114.82 786.38,-1114.12 785.304,-1113.38 784.262,-1112.62 783.258,-1111.83 782.295,-1111.01 781.376,-1110.17 780.507,-1109.31 779.691,-1108.43 778.933,-1107.54 778.237,-1106.63 777.607,-1105.7 777.047,-1104.77 776.561,-1103.83 776.154,-1102.89 775.829,-1101.95 775.589,-1101.01 775.438,-1100.07 775.379,-1099.14 775.415,-1098.22 775.547,-1097.31 775.779,-1096.41 776.111,-1095.53 776.545,-1094.67 777.08,-1093.83 777.718,-1093.01 778.458,-1092.22 779.299,-1091.46 780.239,-1090.73 781.277,-1090.03 782.409,-1089.36 783.633,-1088.73 784.945,-1088.14 786.341,-1087.58 787.817,-1087.07 789.366,-1086.6 790.984,-1086.17 792.665,-1085.79 794.402,-1085.45 796.188,-1085.16 798.017,-1084.91 799.88,-1084.72 801.772,-1084.57 803.682,-1084.47 805.605,-1084.42 807.532,-1084.42 809.455,-1084.47"/>
<text text-anchor="middle" x="806.569" y="-1099.92" font-family="Helvetica,sans-Serif" font-size="10.00" fill="#e8e8e8">халдеи</text>
</g>
<!-- Generation «П»&#45;&#45;халдеи -->
<g id="edge29" class="edge"><title>Generation «П»&#45;&#45;халдеи</title>
<path fill="none" stroke="#eeeeee" stroke-width="0.6" d="M882.979,-1119.14C866.565,-1115.55 848.285,-1111.55 833.72,-1108.36"/>
</g>
<!-- Акико -->
<g id="node13" class="node"><title>Акико</title>
<polygon fill="#181818" stroke="#090909" stroke-width="0.8" points="1245.32,-576.028 1191.32,-576.028 1191.32,-540.028 1245.32,-540.028 1245.32,-576.028"/>
<text text-anchor="middle" x="1218.32" y="-555.528" font-family="Helvetica,sans-Serif" font-size="10.00" fill="#fefefe">Акико</text>
</g>
<!-- Лебёдкин -->
<g id="node49" class="node"><title>Лебёдкин</title>
<ellipse fill="#2f2f2f" stroke="#ececec" stroke-width="0.6" cx="1026.73" cy="-690.069" rx="36.4942" ry="18"/>
<text text-anchor="middle" x="1026.73" y="-687.569" font-family="Helvetica,sans-Serif" font-size="10.00" fill="#ececec">Лебёдкин</text>
</g>
<!-- Акико&#45;&#45;Лебёдкин -->
<g id="edge30" class="edge"><title>Акико&#45;&#45;Лебёдкин</title>
<path fill="none" stroke="#eeeeee" stroke-width="0.6" d="M1192.09,-576.111C1153.86,-602.456 1083.57,-650.897 1048.22,-675.258"/>
</g>
<!-- Пятое главное управление -->
<g id="node65" class="node"><title>Пятое главное управление</title>
<polygon fill="none" stroke="#e8e8e8" stroke-width="0.6" points="908.182,-734.39 913.59,-734.489 918.943,-734.636 924.218,-734.832 929.394,-735.076 934.45,-735.367 939.366,-735.705 944.124,-736.089 948.704,-736.517 953.09,-736.988 957.266,-737.501 961.217,-738.056 964.932,-738.649 968.396,-739.28 971.601,-739.946 974.538,-740.647 977.199,-741.379 979.579,-742.142 981.673,-742.933 983.479,-743.749 984.995,-744.589 986.223,-745.45 987.163,-746.33 987.818,-747.227 988.194,-748.137 988.295,-749.059 988.128,-749.99 987.701,-750.928 987.022,-751.869 986.101,-752.812 984.948,-753.754 983.574,-754.691 981.989,-755.622 980.205,-756.544 978.234,-757.455 976.088,-758.351 973.779,-759.231 971.319,-760.093 968.72,-760.933 965.993,-761.749 963.15,-762.54 960.201,-763.302 957.157,-764.035 954.028,-764.735 950.823,-765.402 947.551,-766.033 944.219,-766.626 940.837,-767.18 937.41,-767.694 933.945,-768.165 930.448,-768.593 926.923,-768.976 923.376,-769.314 919.81,-769.605 916.229,-769.849 912.637,-770.045 909.036,-770.193 905.429,-770.291 901.818,-770.341 898.206,-770.341 894.596,-770.291 890.989,-770.193 887.388,-770.045 883.795,-769.849 880.215,-769.605 876.649,-769.314 873.101,-768.976 869.577,-768.593 866.079,-768.165 862.614,-767.694 859.188,-767.18 855.805,-766.626 852.474,-766.033 849.202,-765.402 845.997,-764.735 842.867,-764.035 839.823,-763.302 836.874,-762.54 834.031,-761.749 831.304,-760.933 828.705,-760.093 826.245,-759.231 823.936,-758.351 821.79,-757.455 819.82,-756.544 818.036,-755.622 816.451,-754.691 815.076,-753.754 813.923,-752.812 813.002,-751.869 812.323,-750.928 811.896,-749.99 811.729,-749.059 811.83,-748.137 812.206,-747.227 812.862,-746.33 813.802,-745.45 815.029,-744.589 816.545,-743.749 818.351,-742.933 820.445,-742.142 822.825,-741.379 825.486,-740.647 828.423,-739.946 831.628,-739.28 835.093,-738.649 838.807,-738.056 842.759,-737.501 846.935,-736.988 851.321,-736.517 855.901,-736.089 860.658,-735.705 865.574,-735.367 870.63,-735.076 875.806,-734.832 881.081,-734.636 886.434,-734.489 891.843,-734.39 897.285,-734.341 902.739,-734.341 908.182,-734.39"/>
<text text-anchor="middle" x="900.012" y="-749.841" font-family="Helvetica,sans-Serif" font-size="10.00" fill="#e8e8e8">Пятое главное управление</text>
</g>
<!-- Акико&#45;&#45;Пятое главное управление -->
<g id="edge31" class="edge"><title>Акико&#45;&#45;Пятое главное управление</title>
<path fill="none" stroke="#eeeeee" stroke-width="0.6" d="M1190.98,-571.092C1148.83,-591.609 1065.94,-633.471 999.839,-676.186 971.461,-694.525 940.852,-718.574 921.116,-734.696"/>
</g>
<!-- Македонская критика французской мысли -->
<g id="node14" class="node"><title>Македонская критика французской мысли</title>
<polygon fill="#181818" stroke="#090909" stroke-width="0.8" points="1496.52,-682.64 1277.52,-682.64 1277.52,-646.64 1496.52,-646.64 1496.52,-682.64"/>
<text text-anchor="middle" x="1387.02" y="-662.14" font-family="Helvetica,sans-Serif" font-size="10.00" fill="#fefefe">Македонская критика французской мысли</text>
</g>
<!-- Мунбанк -->
<g id="node56" class="node"><title>Мунбанк</title>
<polygon fill="none" stroke="#e8e8e8" stroke-width="0.6" points="1184.05,-739.759 1186.21,-739.858 1188.34,-740.005 1190.45,-740.201 1192.51,-740.445 1194.53,-740.736 1196.49,-741.074 1198.39,-741.458 1200.21,-741.886 1201.96,-742.357 1203.63,-742.87 1205.2,-743.424 1206.68,-744.018 1208.07,-744.649 1209.35,-745.315 1210.52,-746.016 1211.58,-746.748 1212.53,-747.511 1213.36,-748.302 1214.08,-749.118 1214.69,-749.958 1215.18,-750.819 1215.55,-751.699 1215.81,-752.596 1215.96,-753.506 1216,-754.428 1215.94,-755.359 1215.77,-756.297 1215.5,-757.238 1215.13,-758.181 1214.67,-759.122 1214.12,-760.06 1213.49,-760.991 1212.78,-761.913 1211.99,-762.824 1211.13,-763.72 1210.21,-764.6 1209.23,-765.462 1208.2,-766.302 1207.11,-767.118 1205.97,-767.909 1204.8,-768.671 1203.58,-769.404 1202.34,-770.104 1201.06,-770.771 1199.75,-771.402 1198.42,-771.995 1197.07,-772.549 1195.71,-773.063 1194.33,-773.534 1192.93,-773.962 1191.53,-774.345 1190.11,-774.683 1188.69,-774.974 1187.26,-775.218 1185.83,-775.414 1184.39,-775.562 1182.95,-775.66 1181.51,-775.71 1180.07,-775.71 1178.63,-775.66 1177.19,-775.562 1175.76,-775.414 1174.32,-775.218 1172.9,-774.974 1171.47,-774.683 1170.06,-774.345 1168.65,-773.962 1167.26,-773.534 1165.88,-773.063 1164.51,-772.549 1163.16,-771.995 1161.83,-771.402 1160.53,-770.771 1159.25,-770.104 1158,-769.404 1156.79,-768.671 1155.61,-767.909 1154.47,-767.118 1153.39,-766.302 1152.35,-765.462 1151.37,-764.6 1150.45,-763.72 1149.59,-762.824 1148.81,-761.913 1148.1,-760.991 1147.46,-760.06 1146.91,-759.122 1146.45,-758.181 1146.09,-757.238 1145.82,-756.297 1145.65,-755.359 1145.58,-754.428 1145.62,-753.506 1145.77,-752.596 1146.03,-751.699 1146.41,-750.819 1146.9,-749.958 1147.5,-749.118 1148.22,-748.302 1149.06,-747.511 1150.01,-746.748 1151.07,-746.016 1152.24,-745.315 1153.52,-744.649 1154.9,-744.018 1156.38,-743.424 1157.96,-742.87 1159.62,-742.357 1161.37,-741.886 1163.2,-741.458 1165.1,-741.074 1167.06,-740.736 1169.07,-740.445 1171.14,-740.201 1173.24,-740.005 1175.38,-739.858 1177.53,-739.759 1179.7,-739.71 1181.88,-739.71 1184.05,-739.759"/>
<text text-anchor="middle" x="1180.79" y="-755.21" font-family="Helvetica,sans-Serif" font-size="10.00" fill="#e8e8e8">Мунбанк</text>
</g>
<!-- Македонская критика французской мысли&#45;&#45;Мунбанк -->
<g id="edge32" class="edge"><title>Македонская критика французской мысли&#45;&#45;Мунбанк</title>
<path fill="none" stroke="#eeeeee" stroke-width="0.6" d="M1346.77,-682.806C1306.21,-701.109 1244.67,-728.882 1209.03,-744.966"/>
</g>
<!-- Насых Нафиков (Кика) -->
<g id="node58" class="node"><title>Насых Нафиков (Кика)</title>
<ellipse fill="#2f2f2f" stroke="#ececec" stroke-width="0.6" cx="1068.46" cy="-854.183" rx="73.6658" ry="18"/>
<text text-anchor="middle" x="1068.46" y="-851.683" font-family="Helvetica,sans-Serif" font-size="10.00" fill="#ececec">Насых Нафиков (Кика)</text>
</g>
<!-- Македонская критика французской мысли&#45;&#45;Насых Нафиков (Кика) -->
<g id="edge33" class="edge"><title>Македонская критика французской мысли&#45;&#45;Насых Нафиков (Кика)</title>
<path fill="none" stroke="#eeeeee" stroke-width="0.6" d="M1356.76,-682.643C1295.26,-719.236 1156.43,-801.84 1096.68,-837.392"/>
</g>
<!-- Санбанк -->
<g id="node68" class="node"><title>Санбанк</title>
<polygon fill="none" stroke="#e8e8e8" stroke-width="0.6" points="1173.29,-945.658 1175.45,-945.757 1177.59,-945.904 1179.69,-946.1 1181.76,-946.344 1183.77,-946.635 1185.73,-946.973 1187.63,-947.357 1189.46,-947.785 1191.21,-948.256 1192.87,-948.769 1194.45,-949.323 1195.93,-949.917 1197.31,-950.547 1198.59,-951.214 1199.76,-951.915 1200.82,-952.647 1201.77,-953.41 1202.61,-954.201 1203.33,-955.017 1203.93,-955.857 1204.42,-956.718 1204.8,-957.598 1205.06,-958.495 1205.21,-959.405 1205.25,-960.327 1205.18,-961.258 1205.01,-962.196 1204.74,-963.137 1204.37,-964.08 1203.91,-965.021 1203.37,-965.959 1202.73,-966.89 1202.02,-967.812 1201.24,-968.723 1200.38,-969.619 1199.46,-970.499 1198.48,-971.361 1197.44,-972.201 1196.35,-973.017 1195.22,-973.808 1194.04,-974.57 1192.83,-975.303 1191.58,-976.003 1190.3,-976.67 1189,-977.301 1187.67,-977.894 1186.32,-978.448 1184.95,-978.961 1183.57,-979.433 1182.18,-979.861 1180.77,-980.244 1179.36,-980.582 1177.93,-980.873 1176.5,-981.117 1175.07,-981.313 1173.64,-981.461 1172.2,-981.559 1170.76,-981.609 1169.32,-981.609 1167.88,-981.559 1166.44,-981.461 1165,-981.313 1163.57,-981.117 1162.14,-980.873 1160.72,-980.582 1159.3,-980.244 1157.9,-979.861 1156.5,-979.433 1155.12,-978.961 1153.75,-978.448 1152.4,-977.894 1151.08,-977.301 1149.77,-976.67 1148.49,-976.003 1147.24,-975.303 1146.03,-974.57 1144.85,-973.808 1143.72,-973.017 1142.63,-972.201 1141.6,-971.361 1140.61,-970.499 1139.69,-969.619 1138.84,-968.723 1138.05,-967.812 1137.34,-966.89 1136.71,-965.959 1136.16,-965.021 1135.7,-964.08 1135.33,-963.137 1135.06,-962.196 1134.89,-961.258 1134.82,-960.327 1134.86,-959.405 1135.01,-958.495 1135.28,-957.598 1135.65,-956.718 1136.14,-955.857 1136.75,-955.017 1137.47,-954.201 1138.3,-953.41 1139.25,-952.647 1140.31,-951.915 1141.48,-951.214 1142.76,-950.547 1144.14,-949.917 1145.62,-949.323 1147.2,-948.769 1148.87,-948.256 1150.62,-947.785 1152.44,-947.357 1154.34,-946.973 1156.3,-946.635 1158.32,-946.344 1160.38,-946.1 1162.49,-945.904 1164.62,-945.757 1166.78,-945.658 1168.95,-945.609 1171.12,-945.609 1173.29,-945.658"/>
<text text-anchor="middle" x="1170.04" y="-961.109" font-family="Helvetica,sans-Serif" font-size="10.00" fill="#e8e8e8">Санбанк</text>
</g>
<!-- Македонская критика французской мысли&#45;&#45;Санбанк -->
<g id="edge34" class="edge"><title>Македонская критика французской мысли&#45;&#45;Санбанк</title>
<path fill="none" stroke="#eeeeee" stroke-width="0.6" d="M1373.77,-682.892C1334.76,-736.646 1220.64,-893.883 1182.57,-946.345"/>
</g>
<!-- Один вог -->
<g id="node15" class="node"><title>Один вог</title>
<polygon fill="#181818" stroke="#090909" stroke-width="0.8" points="1664.83,-685.47 1605.83,-685.47 1605.83,-649.47 1664.83,-649.47 1664.83,-685.47"/>
<text text-anchor="middle" x="1635.33" y="-664.97" font-family="Helvetica,sans-Serif" font-size="10.00" fill="#fefefe">Один вог</text>
</g>
<!-- Мюс -->
<g id="node57" class="node"><title>Мюс</title>
<ellipse fill="#2f2f2f" stroke="#ececec" stroke-width="0.6" cx="1328.99" cy="-865.061" rx="27" ry="18"/>
<text text-anchor="middle" x="1328.99" y="-862.561" font-family="Helvetica,sans-Serif" font-size="10.00" fill="#ececec">Мюс</text>
</g>
<!-- Один вог&#45;&#45;Мюс -->
<g id="edge35" class="edge"><title>Один вог&#45;&#45;Мюс</title>
<path fill="none" stroke="#eeeeee" stroke-width="0.6" d="M1607.33,-685.528C1546.04,-725.065 1401.24,-818.46 1348.58,-852.428"/>
</g>
<!-- Фокус&#45;группа -->
<g id="node16" class="node"><title>Фокус&#45;группа</title>
<polygon fill="#181818" stroke="#090909" stroke-width="0.8" points="720.239,-363.634 639.239,-363.634 639.239,-327.634 720.239,-327.634 720.239,-363.634"/>
<text text-anchor="middle" x="679.739" y="-343.134" font-family="Helvetica,sans-Serif" font-size="10.00" fill="#fefefe">Фокус&#45;группа</text>
</g>
<!-- Сракандаев -->
<g id="node72" class="node"><title>Сракандаев</title>
<ellipse fill="#2f2f2f" stroke="#ececec" stroke-width="0.6" cx="733.43" cy="-741.557" rx="42.9448" ry="18"/>
<text text-anchor="middle" x="733.43" y="-739.057" font-family="Helvetica,sans-Serif" font-size="10.00" fill="#ececec">Сракандаев</text>
</g>
<!-- Фокус&#45;группа&#45;&#45;Сракандаев -->
<g id="edge36" class="edge"><title>Фокус&#45;группа&#45;&#45;Сракандаев</title>
<path fill="none" stroke="#eeeeee" stroke-width="0.6" d="M682.185,-363.675C691.13,-429.632 722.001,-657.28 730.969,-723.41"/>
</g>
<!-- Числа -->
<g id="node17" class="node"><title>Числа</title>
<polygon fill="#181818" stroke="#090909" stroke-width="0.8" points="997.624,-928.636 943.624,-928.636 943.624,-892.636 997.624,-892.636 997.624,-928.636"/>
<text text-anchor="middle" x="970.624" y="-908.136" font-family="Helvetica,sans-Serif" font-size="10.00" fill="#fefefe">Числа</text>
</g>
<!-- Числа&#45;&#45;Бункер под Лубянкой -->
<g id="edge37" class="edge"><title>Числа&#45;&#45;Бункер под Лубянкой</title>
<path fill="none" stroke="#eeeeee" stroke-width="0.6" d="M962.339,-892.549C956.12,-880.106 946.818,-863.628 935.885,-851.088 888.391,-796.614 829.411,-819.112 808.589,-749.905 791.145,-691.924 801.99,-618.844 808.622,-585.471"/>
</g>
<!-- Числа&#45;&#45;Вавилен Татарский -->
<g id="edge38" class="edge"><title>Числа&#45;&#45;Вавилен Татарский</title>
<path fill="none" stroke="#eeeeee" stroke-width="0.6" d="M980.839,-928.715C994.393,-952.703 1018.18,-994.804 1031.73,-1018.78"/>
</g>
<!-- Числа&#45;&#45;Лебёдкин -->
<g id="edge39" class="edge"><title>Числа&#45;&#45;Лебёдкин</title>
<path fill="none" stroke="#eeeeee" stroke-width="0.6" d="M975.215,-892.586C985.763,-851.123 1011.62,-749.464 1022.16,-708.059"/>
</g>
<!-- Числа&#45;&#45;Малюта -->
<g id="edge40" class="edge"><title>Числа&#45;&#45;Малюта</title>
<path fill="none" stroke="#eeeeee" stroke-width="0.6" d="M961.159,-928.825C951.065,-948.225 935.195,-978.725 925.284,-997.772"/>
</g>
<!-- Числа&#45;&#45;Мунбанк -->
<g id="edge41" class="edge"><title>Числа&#45;&#45;Мунбанк</title>
<path fill="none" stroke="#eeeeee" stroke-width="0.6" d="M974.704,-892.502C978.107,-880.552 983.939,-865.119 993.282,-854.025 1035.48,-803.919 1110.34,-776.794 1151.56,-765.009"/>
</g>
<!-- Числа&#45;&#45;Мюс -->
<g id="edge42" class="edge"><title>Числа&#45;&#45;Мюс</title>
<path fill="none" stroke="#eeeeee" stroke-width="0.6" d="M997.854,-907.173C1064.66,-898.677 1236.04,-876.882 1302.29,-868.457"/>
</g>
<!-- Числа&#45;&#45;Насых Нафиков (Кика) -->
<g id="edge43" class="edge"><title>Числа&#45;&#45;Насых Нафиков (Кика)</title>
<path fill="none" stroke="#eeeeee" stroke-width="0.6" d="M997.877,-894.911C1010.88,-887.407 1026.45,-878.426 1039.65,-870.809"/>
</g>
<!-- Числа&#45;&#45;Пятое главное управление -->
<g id="edge44" class="edge"><title>Числа&#45;&#45;Пятое главное управление</title>
<path fill="none" stroke="#eeeeee" stroke-width="0.6" d="M962.524,-892.478C948.903,-861.943 921.575,-800.679 908.018,-770.287"/>
</g>
<!-- Числа&#45;&#45;Санбанк -->
<g id="edge45" class="edge"><title>Числа&#45;&#45;Санбанк</title>
<path fill="none" stroke="#eeeeee" stroke-width="0.6" d="M997.933,-917.891C1034.09,-927.496 1097.82,-944.424 1136.75,-954.767"/>
</g>
<!-- Числа&#45;&#45;Сракандаев -->
<g id="edge46" class="edge"><title>Числа&#45;&#45;Сракандаев</title>
<path fill="none" stroke="#eeeeee" stroke-width="0.6" d="M963.231,-892.49C957.316,-879.7 948.009,-862.828 935.885,-851.088 885.788,-802.578 809.92,-769.309 766.691,-753.043"/>
</g>
<!-- Священная книга оборотня -->
<g id="node18" class="node"><title>Священная книга оборотня</title>
<polygon fill="#181818" stroke="#090909" stroke-width="0.8" points="1258.91,-1131.26 1115.91,-1131.26 1115.91,-1095.26 1258.91,-1095.26 1258.91,-1131.26"/>
<text text-anchor="middle" x="1187.41" y="-1110.76" font-family="Helvetica,sans-Serif" font-size="10.00" fill="#fefefe">Священная книга оборотня</text>
</g>
<!-- А Хули -->
<g id="node34" class="node"><title>А Хули</title>
<ellipse fill="#2f2f2f" stroke="#ececec" stroke-width="0.6" cx="1170.49" cy="-1271.32" rx="29.3664" ry="18"/>
<text text-anchor="middle" x="1170.49" y="-1268.82" font-family="Helvetica,sans-Serif" font-size="10.00" fill="#ececec">А Хули</text>
</g>
<!-- Священная книга оборотня&#45;&#45;А Хули -->
<g id="edge47" class="edge"><title>Священная книга оборотня&#45;&#45;А Хули</title>
<path fill="none" stroke="#eeeeee" stroke-width="0.6" d="M1185.46,-1131.39C1182.22,-1161.72 1175.72,-1222.41 1172.46,-1252.92"/>
</g>
<!-- Священная книга оборотня&#45;&#45;Вавилен Татарский -->
<g id="edge48" class="edge"><title>Священная книга оборотня&#45;&#45;Вавилен Татарский</title>
<path fill="none" stroke="#eeeeee" stroke-width="0.6" d="M1152.93,-1095.15C1128.39,-1082.25 1095.74,-1065.1 1072.21,-1052.73"/>
</g>
<!-- Лев Толстой -->
<g id="node50" class="node"><title>Лев Толстой</title>
<ellipse fill="#2f2f2f" stroke="#ececec" stroke-width="0.6" cx="1155.17" cy="-1454.86" rx="44.3" ry="18"/>
<text text-anchor="middle" x="1155.17" y="-1452.36" font-family="Helvetica,sans-Serif" font-size="10.00" fill="#ececec">Лев Толстой</text>
</g>
<!-- Священная книга оборотня&#45;&#45;Лев Толстой -->
<g id="edge49" class="edge"><title>Священная книга оборотня&#45;&#45;Лев Толстой</title>
<path fill="none" stroke="#eeeeee" stroke-width="0.6" d="M1190.99,-1131.27C1196.39,-1160.61 1205.56,-1220.56 1201.52,-1271.39 1196.58,-1333.61 1173.45,-1404.54 1161.84,-1436.97"/>
</g>
<!-- Священная книга оборотня&#45;&#45;Нелли -->
<g id="edge50" class="edge"><title>Священная книга оборотня&#45;&#45;Нелли</title>
<path fill="none" stroke="#eeeeee" stroke-width="0.6" d="M1198.76,-1131.62C1230.4,-1182.81 1319.29,-1326.61 1349.89,-1376.1"/>
</g>
<!-- Священная книга оборотня&#45;&#45;пёс Пиздец -->
<g id="edge51" class="edge"><title>Священная книга оборотня&#45;&#45;пёс Пиздец</title>
<path fill="none" stroke="#eeeeee" stroke-width="0.6" d="M1145.17,-1131.39C1125.04,-1140.04 1101.34,-1150.21 1082.68,-1158.23"/>
</g>
<!-- рецензент Майя Марачкарская -->
<g id="node67" class="node"><title>рецензент Майя Марачкарская</title>
<ellipse fill="#2f2f2f" stroke="#ececec" stroke-width="0.6" cx="1370.01" cy="-1026.08" rx="96.5815" ry="18"/>
<text text-anchor="middle" x="1370.01" y="-1023.58" font-family="Helvetica,sans-Serif" font-size="10.00" fill="#ececec">рецензент Майя Марачкарская</text>
</g>
<!-- Священная книга оборотня&#45;&#45;рецензент Майя Марачкарская -->
<g id="edge52" class="edge"><title>Священная книга оборотня&#45;&#45;рецензент Майя Марачкарская</title>
<path fill="none" stroke="#eeeeee" stroke-width="0.6" d="M1225.24,-1095.2C1257.42,-1079.83 1303.27,-1057.94 1334.7,-1042.93"/>
</g>
<!-- Священная книга оборотня&#45;&#45;Саша Лапин -->
<g id="edge53" class="edge"><title>Священная книга оборотня&#45;&#45;Саша Лапин</title>
<path fill="none" stroke="#eeeeee" stroke-width="0.6" d="M1225.51,-1131.44C1259.3,-1147.56 1307.9,-1170.75 1338.46,-1185.34"/>
</g>
<!-- Психическая атака (сонет) -->
<g id="node19" class="node"><title>Психическая атака (сонет)</title>
<polygon fill="#181818" stroke="#090909" stroke-width="0.8" points="784.007,-1972.16 641.007,-1972.16 641.007,-1936.16 784.007,-1936.16 784.007,-1972.16"/>
<text text-anchor="middle" x="712.507" y="-1951.66" font-family="Helvetica,sans-Serif" font-size="10.00" fill="#fefefe">Психическая атака (сонет)</text>
</g>
<!-- Психическая атака (сонет)&#45;&#45;Петр Пустота -->
<g id="edge54" class="edge"><title>Психическая атака (сонет)&#45;&#45;Петр Пустота</title>
<path fill="none" stroke="#eeeeee" stroke-width="0.6" d="M706.277,-1936.12C688.393,-1884.34 637.028,-1735.63 619.146,-1683.86"/>
</g>
<!-- Empire V -->
<g id="node20" class="node"><title>Empire V</title>
<polygon fill="#181818" stroke="#090909" stroke-width="0.8" points="839.717,-1000.73 782.717,-1000.73 782.717,-964.735 839.717,-964.735 839.717,-1000.73"/>
<text text-anchor="middle" x="811.217" y="-980.235" font-family="Helvetica,sans-Serif" font-size="10.00" fill="#fefefe">Empire V</text>
</g>
<!-- Empire V&#45;&#45;Вавилен Татарский -->
<g id="edge55" class="edge"><title>Empire V&#45;&#45;Вавилен Татарский</title>
<path fill="none" stroke="#eeeeee" stroke-width="0.6" d="M839.961,-985.22C861.207,-987.297 890.786,-990.69 916.488,-995.46 947.262,-1001.17 980.881,-1012.55 1005.56,-1021.93"/>
</g>
<!-- Рама -->
<g id="node66" class="node"><title>Рама</title>
<ellipse fill="#2f2f2f" stroke="#ececec" stroke-width="0.6" cx="551.92" cy="-966.939" rx="27" ry="18"/>
<text text-anchor="middle" x="551.92" y="-964.439" font-family="Helvetica,sans-Serif" font-size="10.00" fill="#ececec">Рама</text>
</g>
<!-- Empire V&#45;&#45;Рама -->
<g id="edge56" class="edge"><title>Empire V&#45;&#45;Рама</title>
<path fill="none" stroke="#eeeeee" stroke-width="0.6" d="M782.477,-980.984C731.976,-977.908 628.015,-971.575 578.835,-968.579"/>
</g>
<!-- Empire V&#45;&#45;халдеи -->
<g id="edge57" class="edge"><title>Empire V&#45;&#45;халдеи</title>
<path fill="none" stroke="#eeeeee" stroke-width="0.6" d="M810.511,-1000.91C809.638,-1023.41 808.158,-1061.5 807.281,-1084.07"/>
</g>
<!-- Ассасин -->
<g id="node21" class="node"><title>Ассасин</title>
<polygon fill="#181818" stroke="#090909" stroke-width="0.8" points="1625.58,-908 1569.58,-908 1569.58,-872 1625.58,-872 1625.58,-908"/>
<text text-anchor="middle" x="1597.58" y="-887.5" font-family="Helvetica,sans-Serif" font-size="10.00" fill="#fefefe">Ассасин</text>
</g>
<!-- Ассасин&#45;&#45;рецензент Майя Марачкарская -->
<g id="edge58" class="edge"><title>Ассасин&#45;&#45;рецензент Майя Марачкарская</title>
<path fill="none" stroke="#eeeeee" stroke-width="0.6" d="M1569.22,-906.959C1525.73,-932.964 1443.01,-982.429 1399.09,-1008.69"/>
</g>
<!-- Зал поющих кариатид -->
<g id="node22" class="node"><title>Зал поющих кариатид</title>
<polygon fill="#181818" stroke="#090909" stroke-width="0.8" points="621.118,-1455.04 500.118,-1455.04 500.118,-1419.04 621.118,-1419.04 621.118,-1455.04"/>
<text text-anchor="middle" x="560.618" y="-1434.54" font-family="Helvetica,sans-Serif" font-size="10.00" fill="#fefefe">Зал поющих кариатид</text>
</g>
<!-- генерал Шмыга -->
<g id="node42" class="node"><title>генерал Шмыга</title>
<ellipse fill="#2f2f2f" stroke="#ececec" stroke-width="0.6" cx="835.507" cy="-1228.79" rx="51.4282" ry="18"/>
<text text-anchor="middle" x="835.507" y="-1226.29" font-family="Helvetica,sans-Serif" font-size="10.00" fill="#ececec">генерал Шмыга</text>
</g>
<!-- Зал поющих кариатид&#45;&#45;генерал Шмыга -->
<g id="edge59" class="edge"><title>Зал поющих кариатид&#45;&#45;генерал Шмыга</title>
<path fill="none" stroke="#eeeeee" stroke-width="0.6" d="M572.906,-1418.75C589.306,-1395.03 619.975,-1353.04 651.627,-1322.05 693.314,-1281.23 756.462,-1254.58 796.841,-1240.61"/>
</g>
<!-- клуб «Haute SOS» -->
<g id="node47" class="node"><title>клуб «Haute SOS»</title>
<polygon fill="none" stroke="#e8e8e8" stroke-width="0.6" points="373.205,-1598.67 377.073,-1598.77 380.901,-1598.92 384.673,-1599.12 388.375,-1599.36 391.99,-1599.65 395.506,-1599.99 398.908,-1600.37 402.183,-1600.8 405.32,-1601.27 408.306,-1601.79 411.132,-1602.34 413.788,-1602.93 416.266,-1603.56 418.558,-1604.23 420.658,-1604.93 422.561,-1605.66 424.262,-1606.43 425.76,-1607.22 427.051,-1608.03 428.136,-1608.87 429.014,-1609.73 429.686,-1610.61 430.155,-1611.51 430.423,-1612.42 430.495,-1613.34 430.376,-1614.27 430.071,-1615.21 429.585,-1616.15 428.927,-1617.1 428.102,-1618.04 427.119,-1618.98 425.986,-1619.91 424.71,-1620.83 423.301,-1621.74 421.766,-1622.64 420.115,-1623.52 418.356,-1624.38 416.497,-1625.22 414.547,-1626.03 412.514,-1626.82 410.405,-1627.59 408.228,-1628.32 405.99,-1629.02 403.698,-1629.69 401.358,-1630.32 398.976,-1630.91 396.557,-1631.46 394.107,-1631.98 391.629,-1632.45 389.128,-1632.88 386.607,-1633.26 384.071,-1633.6 381.521,-1633.89 378.96,-1634.13 376.391,-1634.33 373.816,-1634.48 371.237,-1634.58 368.655,-1634.62 366.072,-1634.62 363.49,-1634.58 360.91,-1634.48 358.335,-1634.33 355.766,-1634.13 353.206,-1633.89 350.656,-1633.6 348.119,-1633.26 345.599,-1632.88 343.098,-1632.45 340.62,-1631.98 338.169,-1631.46 335.75,-1630.91 333.368,-1630.32 331.028,-1629.69 328.736,-1629.02 326.498,-1628.32 324.321,-1627.59 322.213,-1626.82 320.179,-1626.03 318.229,-1625.22 316.371,-1624.38 314.611,-1623.52 312.96,-1622.64 311.426,-1621.74 310.017,-1620.83 308.741,-1619.91 307.608,-1618.98 306.624,-1618.04 305.8,-1617.1 305.141,-1616.15 304.656,-1615.21 304.35,-1614.27 304.231,-1613.34 304.303,-1612.42 304.572,-1611.51 305.041,-1610.61 305.713,-1609.73 306.591,-1608.87 307.675,-1608.03 308.967,-1607.22 310.464,-1606.43 312.166,-1605.66 314.069,-1604.93 316.169,-1604.23 318.461,-1603.56 320.939,-1602.93 323.595,-1602.34 326.421,-1601.79 329.407,-1601.27 332.543,-1600.8 335.819,-1600.37 339.221,-1599.99 342.736,-1599.65 346.352,-1599.36 350.053,-1599.12 353.825,-1598.92 357.653,-1598.77 361.521,-1598.67 365.413,-1598.62 369.313,-1598.62 373.205,-1598.67"/>
<text text-anchor="middle" x="367.363" y="-1614.12" font-family="Helvetica,sans-Serif" font-size="10.00" fill="#e8e8e8">клуб «Haute SOS»</text>
</g>
<!-- Зал поющих кариатид&#45;&#45;клуб «Haute SOS» -->
<g id="edge60" class="edge"><title>Зал поющих кариатид&#45;&#45;клуб «Haute SOS»</title>
<path fill="none" stroke="#eeeeee" stroke-width="0.6" d="M541.024,-1455.25C503.696,-1489.94 422.844,-1565.07 386.152,-1599.17"/>
</g>
<!-- Михаил Ботвинник -->
<g id="node54" class="node"><title>Михаил Ботвинник</title>
<ellipse fill="#2f2f2f" stroke="#ececec" stroke-width="0.6" cx="432.248" cy="-1941.09" rx="62.2967" ry="18"/>
<text text-anchor="middle" x="432.248" y="-1938.59" font-family="Helvetica,sans-Serif" font-size="10.00" fill="#ececec">Михаил Ботвинник</text>
</g>
<!-- Зал поющих кариатид&#45;&#45;Михаил Ботвинник -->
<g id="edge61" class="edge"><title>Зал поющих кариатид&#45;&#45;Михаил Ботвинник</title>
<path fill="none" stroke="#eeeeee" stroke-width="0.6" d="M555.973,-1455.28C535.926,-1534 456.922,-1844.21 436.886,-1922.87"/>
</g>
<!-- Некромент -->
<g id="node23" class="node"><title>Некромент</title>
<polygon fill="#181818" stroke="#090909" stroke-width="0.8" points="386.23,-1371.53 318.23,-1371.53 318.23,-1335.53 386.23,-1335.53 386.23,-1371.53"/>
<text text-anchor="middle" x="352.23" y="-1351.03" font-family="Helvetica,sans-Serif" font-size="10.00" fill="#fefefe">Некромент</text>
</g>
<!-- Дупин -->
<g id="node45" class="node"><title>Дупин</title>
<ellipse fill="#2f2f2f" stroke="#ececec" stroke-width="0.6" cx="716.286" cy="-1189.51" rx="27.8353" ry="18"/>
<text text-anchor="middle" x="716.286" y="-1187.01" font-family="Helvetica,sans-Serif" font-size="10.00" fill="#ececec">Дупин</text>
</g>
<!-- Некромент&#45;&#45;Дупин -->
<g id="edge62" class="edge"><title>Некромент&#45;&#45;Дупин</title>
<path fill="none" stroke="#eeeeee" stroke-width="0.6" d="M386.57,-1347.86C436.284,-1338.7 530.234,-1317.78 602.3,-1280.37 641.607,-1259.97 680.44,-1225 701.079,-1204.91"/>
</g>
<!-- Макар Гетман -->
<g id="node51" class="node"><title>Макар Гетман</title>
<ellipse fill="#2f2f2f" stroke="#ececec" stroke-width="0.6" cx="106.174" cy="-1912.06" rx="48.7185" ry="18"/>
<text text-anchor="middle" x="106.174" y="-1909.56" font-family="Helvetica,sans-Serif" font-size="10.00" fill="#ececec">Макар Гетман</text>
</g>
<!-- Некромент&#45;&#45;Макар Гетман -->
<g id="edge63" class="edge"><title>Некромент&#45;&#45;Макар Гетман</title>
<path fill="none" stroke="#eeeeee" stroke-width="0.6" d="M344.183,-1371.8C306.871,-1456.5 150.954,-1810.41 114.036,-1894.21"/>
</g>
<!-- Пространство Фридмана -->
<g id="node24" class="node"><title>Пространство Фридмана</title>
<polygon fill="#181818" stroke="#090909" stroke-width="0.8" points="817.072,-1500.44 682.072,-1500.44 682.072,-1464.44 817.072,-1464.44 817.072,-1500.44"/>
<text text-anchor="middle" x="749.572" y="-1479.94" font-family="Helvetica,sans-Serif" font-size="10.00" fill="#fefefe">Пространство Фридмана</text>
</g>
<!-- Пространство Фридмана&#45;&#45;генерал Шмыга -->
<g id="edge64" class="edge"><title>Пространство Фридмана&#45;&#45;генерал Шмыга</title>
<path fill="none" stroke="#eeeeee" stroke-width="0.6" d="M755.752,-1464.2C771.608,-1417.4 813.589,-1293.49 829.383,-1246.87"/>
</g>
<!-- t -->
<g id="node25" class="node"><title>t</title>
<polygon fill="#181818" stroke="#090909" stroke-width="0.8" points="1052.32,-1371.3 998.323,-1371.3 998.323,-1335.3 1052.32,-1335.3 1052.32,-1371.3"/>
<text text-anchor="middle" x="1025.32" y="-1350.8" font-family="Helvetica,sans-Serif" font-size="10.00" fill="#fefefe">t</text>
</g>
<!-- t&#45;&#45;А Хули -->
<g id="edge65" class="edge"><title>t&#45;&#45;А Хули</title>
<path fill="none" stroke="#eeeeee" stroke-width="0.6" d="M1052.63,-1337.88C1080.39,-1322.21 1122.86,-1298.22 1148.52,-1283.73"/>
</g>
<!-- t&#45;&#45;Анна -->
<g id="edge66" class="edge"><title>t&#45;&#45;Анна</title>
<path fill="none" stroke="#555555" stroke-width="0.6" d="M1023.63,-1371.51C1015.39,-1460 979.581,-1844.51 971.37,-1932.69"/>
</g>
<!-- t&#45;&#45;генерал Шмыга -->
<g id="edge67" class="edge"><title>t&#45;&#45;генерал Шмыга</title>
<path fill="none" stroke="#eeeeee" stroke-width="0.6" d="M998.127,-1335.46C961.12,-1311.19 895.455,-1268.12 859.941,-1244.82"/>
</g>
<!-- t&#45;&#45;граф Т. -->
<g id="edge68" class="edge"><title>t&#45;&#45;граф Т.</title>
<path fill="none" stroke="#eeeeee" stroke-width="0.6" d="M1028.34,-1371.75C1037.52,-1428.02 1065.12,-1597.01 1074.23,-1652.81"/>
</g>
<!-- t&#45;&#45;лама Джамбон Тулку -->
<g id="edge69" class="edge"><title>t&#45;&#45;лама Джамбон Тулку</title>
<path fill="none" stroke="#eeeeee" stroke-width="0.6" d="M1013.1,-1334.83C1000.57,-1315.9 981.223,-1286.68 968.819,-1267.94"/>
</g>
<!-- t&#45;&#45;Лев Толстой -->
<g id="edge70" class="edge"><title>t&#45;&#45;Лев Толстой</title>
<path fill="none" stroke="#eeeeee" stroke-width="0.6" d="M1048.54,-1371.46C1073.05,-1390.63 1111.31,-1420.56 1134.72,-1438.87"/>
</g>
<!-- t&#45;&#45;Померанцев (Константин Победоносцев) -->
<g id="edge71" class="edge"><title>t&#45;&#45;Померанцев (Константин Победоносцев)</title>
<path fill="none" stroke="#eeeeee" stroke-width="0.6" d="M1039.85,-1371.57C1056.34,-1392.12 1084.21,-1426.34 1109.43,-1454.74 1171.73,-1524.92 1260.02,-1593.2 1302.53,-1624.53"/>
</g>
<!-- t&#45;&#45;Чапаев -->
<g id="edge72" class="edge"><title>t&#45;&#45;Чапаев</title>
<path fill="none" stroke="#eeeeee" stroke-width="0.6" d="M1015.72,-1371.36C1000.8,-1399.44 972.225,-1453.19 957.524,-1480.85"/>
</g>
<!-- Зенитные кодексы Аль&#45;Эфесби -->
<g id="node26" class="node"><title>Зенитные кодексы Аль&#45;Эфесби</title>
<polygon fill="#181818" stroke="#090909" stroke-width="0.8" points="565.988,-1130.96 399.988,-1130.96 399.988,-1094.96 565.988,-1094.96 565.988,-1130.96"/>
<text text-anchor="middle" x="482.988" y="-1110.46" font-family="Helvetica,sans-Serif" font-size="10.00" fill="#fefefe">Зенитные кодексы Аль&#45;Эфесби</text>
</g>
<!-- БПЛА -->
<g id="node38" class="node"><title>БПЛА</title>
<polygon fill="none" stroke="#e8e8e8" stroke-width="0.6" points="78.6177,-1252.49 80.3937,-1252.58 82.1514,-1252.73 83.8836,-1252.93 85.5832,-1253.17 87.2434,-1253.46 88.8577,-1253.8 90.4197,-1254.18 91.9237,-1254.61 93.3639,-1255.08 94.7352,-1255.6 96.0328,-1256.15 97.2523,-1256.75 98.39,-1257.38 99.4425,-1258.04 100.407,-1258.74 101.281,-1259.48 102.062,-1260.24 102.75,-1261.03 103.343,-1261.85 103.841,-1262.69 104.244,-1263.55 104.552,-1264.43 104.768,-1265.32 104.891,-1266.23 104.924,-1267.16 104.869,-1268.09 104.729,-1269.02 104.506,-1269.97 104.204,-1270.91 103.825,-1271.85 103.374,-1272.79 102.853,-1273.72 102.268,-1274.64 101.62,-1275.55 100.916,-1276.45 100.158,-1277.33 99.3499,-1278.19 98.4964,-1279.03 97.601,-1279.85 96.6674,-1280.64 95.6991,-1281.4 94.6995,-1282.13 93.672,-1282.83 92.6195,-1283.5 91.545,-1284.13 90.4512,-1284.72 89.3405,-1285.28 88.2152,-1285.79 87.0774,-1286.26 85.929,-1286.69 84.7717,-1287.07 83.6069,-1287.41 82.436,-1287.7 81.2602,-1287.95 80.0806,-1288.14 78.8981,-1288.29 77.7137,-1288.39 76.5281,-1288.44 75.3421,-1288.44 74.1565,-1288.39 72.9721,-1288.29 71.7896,-1288.14 70.61,-1287.95 69.4343,-1287.7 68.2634,-1287.41 67.0986,-1287.07 65.9412,-1286.69 64.7928,-1286.26 63.655,-1285.79 62.5297,-1285.28 61.4191,-1284.72 60.3252,-1284.13 59.2507,-1283.5 58.1983,-1282.83 57.1707,-1282.13 56.1712,-1281.4 55.2029,-1280.64 54.2692,-1279.85 53.3738,-1279.03 52.5203,-1278.19 51.7126,-1277.33 50.9544,-1276.45 50.2498,-1275.55 49.6027,-1274.64 49.017,-1273.72 48.4965,-1272.79 48.0451,-1271.85 47.6665,-1270.91 47.364,-1269.97 47.1412,-1269.02 47.0009,-1268.09 46.9462,-1267.16 46.9793,-1266.23 47.1027,-1265.32 47.3179,-1264.43 47.6266,-1263.55 48.0296,-1262.69 48.5276,-1261.85 49.1206,-1261.03 49.8082,-1260.24 50.5896,-1259.48 51.4634,-1258.74 52.4277,-1258.04 53.4802,-1257.38 54.6179,-1256.75 55.8375,-1256.15 57.1351,-1255.6 58.5064,-1255.08 59.9466,-1254.61 61.4505,-1254.18 63.0126,-1253.8 64.6269,-1253.46 66.2871,-1253.17 67.9867,-1252.93 69.7188,-1252.73 71.4765,-1252.58 73.2526,-1252.49 75.0397,-1252.44 76.8305,-1252.44 78.6177,-1252.49"/>
<text text-anchor="middle" x="75.9351" y="-1267.94" font-family="Helvetica,sans-Serif" font-size="10.00" fill="#e8e8e8">БПЛА</text>
</g>
<!-- Зенитные кодексы Аль&#45;Эфесби&#45;&#45;БПЛА -->
<g id="edge73" class="edge"><title>Зенитные кодексы Аль&#45;Эфесби&#45;&#45;БПЛА</title>
<path fill="none" stroke="#eeeeee" stroke-width="0.6" d="M436.294,-1131.03C350.466,-1164.23 170.223,-1233.96 102.452,-1260.18"/>
</g>
<!-- Зенитные кодексы Аль&#45;Эфесби&#45;&#45;Макар Гетман -->
<g id="edge74" class="edge"><title>Зенитные кодексы Аль&#45;Эфесби&#45;&#45;Макар Гетман</title>
<path fill="none" stroke="#eeeeee" stroke-width="0.6" d="M477.493,-1131.08C464.234,-1174.1 428.665,-1285.49 389.43,-1374.73 296.698,-1585.67 155.913,-1827.96 116.658,-1894.42"/>
</g>
<!-- Зенитные кодексы Аль&#45;Эфесби&#45;&#45;Семён Левитан -->
<g id="edge75" class="edge"><title>Зенитные кодексы Аль&#45;Эфесби&#45;&#45;Семён Левитан</title>
<path fill="none" stroke="#eeeeee" stroke-width="0.6" d="M566.149,-1112.23C569.284,-1112.2 572.39,-1112.17 575.444,-1112.14"/>
</g>
<!-- Операция «Burning Bush» -->
<g id="node27" class="node"><title>Операция «Burning Bush»</title>
<polygon fill="#181818" stroke="#090909" stroke-width="0.8" points="770.285,-1039.31 635.285,-1039.31 635.285,-1003.31 770.285,-1003.31 770.285,-1039.31"/>
<text text-anchor="middle" x="702.785" y="-1018.81" font-family="Helvetica,sans-Serif" font-size="10.00" fill="#fefefe">Операция «Burning Bush»</text>
</g>
<!-- Операция «Burning Bush»&#45;&#45;Вавилен Татарский -->
<g id="edge76" class="edge"><title>Операция «Burning Bush»&#45;&#45;Вавилен Татарский</title>
<path fill="none" stroke="#eeeeee" stroke-width="0.6" d="M770.471,-1026.33C812.387,-1029.25 867.336,-1032.72 916.09,-1034.66 936.066,-1035.46 957.838,-1035.96 977.569,-1036.28"/>
</g>
<!-- Операция «Burning Bush»&#45;&#45;генерал Шмыга -->
<g id="edge77" class="edge"><title>Операция «Burning Bush»&#45;&#45;генерал Шмыга</title>
<path fill="none" stroke="#eeeeee" stroke-width="0.6" d="M714.331,-1039.36C739.558,-1078.8 799.328,-1172.24 824.27,-1211.23"/>
</g>
<!-- Операция «Burning Bush»&#45;&#45;Дупин -->
<g id="edge78" class="edge"><title>Операция «Burning Bush»&#45;&#45;Дупин</title>
<path fill="none" stroke="#eeeeee" stroke-width="0.6" d="M704.23,-1039.31C706.822,-1071.6 712.232,-1139.01 714.832,-1171.38"/>
</g>
<!-- Олег -->
<g id="node60" class="node"><title>Олег</title>
<ellipse fill="#2f2f2f" stroke="#ececec" stroke-width="0.6" cx="698.001" cy="-888.629" rx="27" ry="18"/>
<text text-anchor="middle" x="698.001" y="-886.129" font-family="Helvetica,sans-Serif" font-size="10.00" fill="#ececec">Олег</text>
</g>
<!-- Операция «Burning Bush»&#45;&#45;Олег -->
<g id="edge79" class="edge"><title>Операция «Burning Bush»&#45;&#45;Олег</title>
<path fill="none" stroke="#eeeeee" stroke-width="0.6" d="M702.13,-1003.14C701.219,-977.874 699.579,-932.382 698.664,-907.006"/>
</g>
<!-- Операция «Burning Bush»&#45;&#45;Семён Левитан -->
<g id="edge80" class="edge"><title>Операция «Burning Bush»&#45;&#45;Семён Левитан</title>
<path fill="none" stroke="#eeeeee" stroke-width="0.6" d="M687.527,-1039.6C674.188,-1055.59 654.955,-1078.64 641.855,-1094.34"/>
</g>
<!-- треугольное существо -->
<g id="node75" class="node"><title>треугольное существо</title>
<polygon fill="none" stroke="#e8e8e8" stroke-width="0.6" points="554.221,-782.736 558.859,-782.834 563.45,-782.982 567.973,-783.178 572.412,-783.422 576.748,-783.713 580.964,-784.051 585.043,-784.434 588.971,-784.862 592.732,-785.334 596.313,-785.847 599.702,-786.401 602.887,-786.995 605.858,-787.625 608.607,-788.292 611.125,-788.993 613.407,-789.725 615.448,-790.488 617.244,-791.278 618.793,-792.095 620.093,-792.935 621.146,-793.796 621.952,-794.676 622.514,-795.573 622.836,-796.483 622.923,-797.405 622.78,-798.336 622.413,-799.274 621.831,-800.215 621.042,-801.158 620.053,-802.099 618.874,-803.037 617.515,-803.968 615.985,-804.89 614.295,-805.801 612.455,-806.697 610.475,-807.577 608.365,-808.438 606.136,-809.278 603.798,-810.095 601.36,-810.885 598.831,-811.648 596.22,-812.381 593.537,-813.081 590.788,-813.748 587.982,-814.379 585.125,-814.972 582.225,-815.526 579.286,-816.039 576.315,-816.511 573.315,-816.939 570.293,-817.322 567.251,-817.66 564.193,-817.951 561.122,-818.195 558.042,-818.391 554.954,-818.539 551.86,-818.637 548.764,-818.687 545.667,-818.687 542.57,-818.637 539.477,-818.539 536.389,-818.391 533.308,-818.195 530.238,-817.951 527.18,-817.66 524.138,-817.322 521.115,-816.939 518.116,-816.511 515.145,-816.039 512.206,-815.526 509.305,-814.972 506.449,-814.379 503.643,-813.748 500.894,-813.081 498.21,-812.381 495.6,-811.648 493.071,-810.885 490.633,-810.095 488.294,-809.278 486.065,-808.438 483.956,-807.577 481.976,-806.697 480.136,-805.801 478.446,-804.89 476.916,-803.968 475.557,-803.037 474.378,-802.099 473.389,-801.158 472.599,-800.215 472.017,-799.274 471.651,-798.336 471.508,-797.405 471.595,-796.483 471.917,-795.573 472.479,-794.676 473.285,-793.796 474.337,-792.935 475.638,-792.095 477.187,-791.278 478.982,-790.488 481.023,-789.725 483.305,-788.993 485.824,-788.292 488.572,-787.625 491.543,-786.995 494.728,-786.401 498.117,-785.847 501.698,-785.334 505.46,-784.862 509.387,-784.434 513.467,-784.051 517.683,-783.713 522.019,-783.422 526.457,-783.178 530.981,-782.982 535.571,-782.834 540.21,-782.736 544.877,-782.687 549.554,-782.687 554.221,-782.736"/>
<text text-anchor="middle" x="547.215" y="-798.187" font-family="Helvetica,sans-Serif" font-size="10.00" fill="#e8e8e8">треугольное существо</text>
</g>
<!-- Операция «Burning Bush»&#45;&#45;треугольное существо -->
<g id="edge81" class="edge"><title>Операция «Burning Bush»&#45;&#45;треугольное существо</title>
<path fill="none" stroke="#eeeeee" stroke-width="0.6" d="M690.054,-1003.26C660.737,-961.68 588.752,-859.592 559.687,-818.374"/>
</g>
<!-- Отель хороших воплощений -->
<g id="node28" class="node"><title>Отель хороших воплощений</title>
<polygon fill="#181818" stroke="#090909" stroke-width="0.8" points="429.219,-692.607 283.219,-692.607 283.219,-656.607 429.219,-656.607 429.219,-692.607"/>
<text text-anchor="middle" x="356.219" y="-672.107" font-family="Helvetica,sans-Serif" font-size="10.00" fill="#fefefe">Отель хороших воплощений</text>
</g>
<!-- Отель хороших воплощений&#45;&#45;треугольное существо -->
<g id="edge82" class="edge"><title>Отель хороших воплощений&#45;&#45;треугольное существо</title>
<path fill="none" stroke="#eeeeee" stroke-width="0.6" d="M383.584,-692.671C420.305,-716.911 485.07,-759.664 521.127,-783.465"/>
</g>
<!-- Созерцатель тени -->
<g id="node29" class="node"><title>Созерцатель тени</title>
<polygon fill="#181818" stroke="#090909" stroke-width="0.8" points="642.99,-614.61 539.99,-614.61 539.99,-578.61 642.99,-578.61 642.99,-614.61"/>
<text text-anchor="middle" x="591.49" y="-594.11" font-family="Helvetica,sans-Serif" font-size="10.00" fill="#fefefe">Созерцатель тени</text>
</g>
<!-- Борис -->
<g id="node37" class="node"><title>Борис</title>
<ellipse fill="#2f2f2f" stroke="#ececec" stroke-width="0.6" cx="398.791" cy="-383.724" rx="27.1572" ry="18"/>
<text text-anchor="middle" x="398.791" y="-381.224" font-family="Helvetica,sans-Serif" font-size="10.00" fill="#ececec">Борис</text>
</g>
<!-- Созерцатель тени&#45;&#45;Борис -->
<g id="edge83" class="edge"><title>Созерцатель тени&#45;&#45;Борис</title>
<path fill="none" stroke="#eeeeee" stroke-width="0.6" d="M575.061,-578.459C537.835,-537.334 447.601,-437.647 412.802,-399.203"/>
</g>
<!-- Созерцатель тени&#45;&#45;Олег -->
<g id="edge84" class="edge"><title>Созерцатель тени&#45;&#45;Олег</title>
<path fill="none" stroke="#eeeeee" stroke-width="0.6" d="M598.153,-614.877C617.372,-667.569 672.74,-819.371 691.612,-871.111"/>
</g>
<!-- Созерцатель тени&#45;&#45;треугольное существо -->
<g id="edge85" class="edge"><title>Созерцатель тени&#45;&#45;треугольное существо</title>
<path fill="none" stroke="#eeeeee" stroke-width="0.6" d="M587.561,-614.72C579.159,-653.447 559.53,-743.926 551.136,-782.617"/>
</g>
<!-- Тхаги -->
<g id="node30" class="node"><title>Тхаги</title>
<polygon fill="#181818" stroke="#090909" stroke-width="0.8" points="149.995,-83.4901 95.9954,-83.4901 95.9954,-47.4901 149.995,-47.4901 149.995,-83.4901"/>
<text text-anchor="middle" x="122.995" y="-62.9901" font-family="Helvetica,sans-Serif" font-size="10.00" fill="#fefefe">Тхаги</text>
</g>
<!-- Тхаги&#45;&#45;Борис -->
<g id="edge86" class="edge"><title>Тхаги&#45;&#45;Борис</title>
<path fill="none" stroke="#eeeeee" stroke-width="0.6" d="M138.614,-83.5116C187.726,-140.182 338.52,-314.179 385.003,-367.815"/>
</g>
<!-- S.N.U.F.F. -->
<g id="node31" class="node"><title>S.N.U.F.F.</title>
<polygon fill="#181818" stroke="#090909" stroke-width="0.8" points="377.712,-934.811 312.712,-934.811 312.712,-898.811 377.712,-898.811 377.712,-934.811"/>
<text text-anchor="middle" x="345.212" y="-914.311" font-family="Helvetica,sans-Serif" font-size="10.00" fill="#fefefe">S.N.U.F.F.</text>
</g>
<!-- Ацтланский календарь -->
<g id="node36" class="node"><title>Ацтланский календарь</title>
<polygon fill="none" stroke="#e8e8e8" stroke-width="0.6" points="316.917,-1119.82 321.71,-1119.92 326.453,-1120.07 331.127,-1120.26 335.713,-1120.51 340.193,-1120.8 344.548,-1121.14 348.763,-1121.52 352.822,-1121.95 356.708,-1122.42 360.408,-1122.93 363.909,-1123.49 367.2,-1124.08 370.27,-1124.71 373.11,-1125.38 375.712,-1126.08 378.07,-1126.81 380.179,-1127.57 382.034,-1128.37 383.634,-1129.18 384.978,-1130.02 386.065,-1130.88 386.898,-1131.76 387.479,-1132.66 387.812,-1133.57 387.901,-1134.49 387.754,-1135.42 387.375,-1136.36 386.774,-1137.3 385.958,-1138.24 384.936,-1139.19 383.718,-1140.12 382.314,-1141.05 380.733,-1141.98 378.987,-1142.89 377.086,-1143.78 375.04,-1144.66 372.86,-1145.53 370.557,-1146.37 368.141,-1147.18 365.622,-1147.97 363.009,-1148.74 360.312,-1149.47 357.539,-1150.17 354.699,-1150.83 351.8,-1151.47 348.848,-1152.06 345.851,-1152.61 342.815,-1153.13 339.745,-1153.6 336.646,-1154.03 333.523,-1154.41 330.38,-1154.75 327.22,-1155.04 324.048,-1155.28 320.865,-1155.48 317.674,-1155.63 314.478,-1155.72 311.279,-1155.77 308.079,-1155.77 304.88,-1155.72 301.684,-1155.63 298.493,-1155.48 295.31,-1155.28 292.137,-1155.04 288.978,-1154.75 285.835,-1154.41 282.712,-1154.03 279.613,-1153.6 276.543,-1153.13 273.506,-1152.61 270.509,-1152.06 267.558,-1151.47 264.659,-1150.83 261.819,-1150.17 259.046,-1149.47 256.349,-1148.74 253.736,-1147.97 251.217,-1147.18 248.8,-1146.37 246.497,-1145.53 244.318,-1144.66 242.272,-1143.78 240.371,-1142.89 238.625,-1141.98 237.044,-1141.05 235.64,-1140.12 234.422,-1139.19 233.4,-1138.24 232.584,-1137.3 231.983,-1136.36 231.604,-1135.42 231.456,-1134.49 231.546,-1133.57 231.879,-1132.66 232.46,-1131.76 233.292,-1130.88 234.38,-1130.02 235.724,-1129.18 237.324,-1128.37 239.179,-1127.57 241.288,-1126.81 243.646,-1126.08 246.248,-1125.38 249.088,-1124.71 252.157,-1124.08 255.448,-1123.49 258.95,-1122.93 262.65,-1122.42 266.536,-1121.95 270.594,-1121.52 274.809,-1121.14 279.165,-1120.8 283.645,-1120.51 288.231,-1120.26 292.905,-1120.07 297.648,-1119.92 302.44,-1119.82 307.263,-1119.77 312.095,-1119.77 316.917,-1119.82"/>
<text text-anchor="middle" x="309.679" y="-1135.27" font-family="Helvetica,sans-Serif" font-size="10.00" fill="#e8e8e8">Ацтланский календарь</text>
</g>
<!-- S.N.U.F.F.&#45;&#45;Ацтланский календарь -->
<g id="edge87" class="edge"><title>S.N.U.F.F.&#45;&#45;Ацтланский календарь</title>
<path fill="none" stroke="#eeeeee" stroke-width="0.6" d="M342.304,-934.893C335.625,-976.431 319.247,-1078.27 312.577,-1119.75"/>
</g>
<!-- S.N.U.F.F.&#45;&#45;БПЛА -->
<g id="edge88" class="edge"><title>S.N.U.F.F.&#45;&#45;БПЛА</title>
<path fill="none" stroke="#eeeeee" stroke-width="0.6" d="M331.489,-934.834C284.975,-995.918 133.696,-1194.58 88.6826,-1253.7"/>
</g>
<!-- гигантская летучая мышь -->
<g id="node43" class="node"><title>гигантская летучая мышь</title>
<polygon fill="none" stroke="#e8e8e8" stroke-width="0.6" points="93.1238,-1533.24 98.3324,-1533.33 103.487,-1533.48 108.567,-1533.68 113.551,-1533.92 118.42,-1534.21 123.154,-1534.55 127.735,-1534.93 132.146,-1535.36 136.369,-1535.83 140.391,-1536.35 144.196,-1536.9 147.773,-1537.49 151.109,-1538.12 154.196,-1538.79 157.024,-1539.49 159.586,-1540.22 161.878,-1540.99 163.895,-1541.78 165.634,-1542.59 167.094,-1543.43 168.276,-1544.3 169.181,-1545.18 169.812,-1546.07 170.174,-1546.98 170.271,-1547.9 170.111,-1548.84 169.699,-1549.77 169.046,-1550.71 168.159,-1551.66 167.048,-1552.6 165.725,-1553.54 164.198,-1554.47 162.481,-1555.39 160.583,-1556.3 158.516,-1557.2 156.293,-1558.08 153.924,-1558.94 151.421,-1559.78 148.795,-1560.59 146.057,-1561.38 143.218,-1562.15 140.286,-1562.88 137.273,-1563.58 134.186,-1564.25 131.035,-1564.88 127.827,-1565.47 124.57,-1566.03 121.27,-1566.54 117.933,-1567.01 114.566,-1567.44 111.171,-1567.82 107.755,-1568.16 104.322,-1568.45 100.873,-1568.69 97.4141,-1568.89 93.9464,-1569.04 90.4729,-1569.14 86.9959,-1569.19 83.5179,-1569.19 80.0409,-1569.14 76.5674,-1569.04 73.0997,-1568.89 69.6403,-1568.69 66.1922,-1568.45 62.7583,-1568.16 59.3424,-1567.82 55.9483,-1567.44 52.5804,-1567.01 49.2436,-1566.54 45.9436,-1566.03 42.6864,-1565.47 39.4785,-1564.88 36.3275,-1564.25 33.241,-1563.58 30.2275,-1562.88 27.2962,-1562.15 24.4565,-1561.38 21.7184,-1560.59 19.0925,-1559.78 16.5895,-1558.94 14.2207,-1558.08 11.9973,-1557.2 9.93096,-1556.3 8.03315,-1555.39 6.3154,-1554.47 4.78909,-1553.54 3.46531,-1552.6 2.35482,-1551.66 1.46793,-1550.71 0.814334,-1549.77 0.40308,-1548.84 0.242421,-1547.9 0.339726,-1546.98 0.701385,-1546.07 1.33272,-1545.18 2.23789,-1544.3 3.41982,-1543.43 4.88017,-1542.59 6.6192,-1541.78 8.63579,-1540.99 10.9274,-1540.22 13.4899,-1539.49 16.318,-1538.79 19.4045,-1538.12 22.741,-1537.49 26.3176,-1536.9 30.123,-1536.35 34.1445,-1535.83 38.3681,-1535.36 42.7786,-1534.93 47.3596,-1534.55 52.0937,-1534.21 56.9626,-1533.92 61.9469,-1533.68 67.0267,-1533.48 72.1814,-1533.33 77.3899,-1533.24 82.631,-1533.19 87.8828,-1533.19 93.1238,-1533.24"/>
<text text-anchor="middle" x="85.2569" y="-1548.69" font-family="Helvetica,sans-Serif" font-size="10.00" fill="#e8e8e8">гигантская летучая мышь</text>
</g>
<!-- S.N.U.F.F.&#45;&#45;гигантская летучая мышь -->
<g id="edge89" class="edge"><title>S.N.U.F.F.&#45;&#45;гигантская летучая мышь</title>
<path fill="none" stroke="#eeeeee" stroke-width="0.6" d="M334.067,-935.067C312.039,-971.621 262.155,-1056.79 228.548,-1132.45 161.799,-1282.72 106.515,-1474.37 90.1721,-1533.21"/>
</g>
<!-- Еврайх -->
<g id="node46" class="node"><title>Еврайх</title>
<polygon fill="none" stroke="#e8e8e8" stroke-width="0.6" points="94.3597,-440.494 96.3167,-440.593 98.2535,-440.74 100.162,-440.936 102.035,-441.18 103.864,-441.471 105.643,-441.809 107.364,-442.193 109.021,-442.621 110.608,-443.092 112.119,-443.605 113.549,-444.159 114.893,-444.753 116.147,-445.383 117.306,-446.05 118.369,-446.751 119.332,-447.483 120.193,-448.246 120.951,-449.036 121.604,-449.853 122.153,-450.693 122.597,-451.554 122.937,-452.434 123.174,-453.331 123.31,-454.241 123.347,-455.163 123.286,-456.094 123.132,-457.032 122.886,-457.973 122.553,-458.916 122.136,-459.857 121.638,-460.795 121.065,-461.726 120.419,-462.648 119.706,-463.559 118.93,-464.455 118.094,-465.335 117.204,-466.196 116.264,-467.036 115.277,-467.853 114.249,-468.643 113.182,-469.406 112.08,-470.139 110.948,-470.839 109.788,-471.506 108.604,-472.137 107.399,-472.73 106.175,-473.284 104.935,-473.797 103.681,-474.269 102.416,-474.697 101.141,-475.08 99.8573,-475.418 98.5671,-475.709 97.2715,-475.953 95.9717,-476.149 94.6688,-476.297 93.3636,-476.395 92.0572,-476.445 90.7504,-476.445 89.444,-476.395 88.1389,-476.297 86.836,-476.149 85.5362,-475.953 84.2406,-475.709 82.9504,-475.418 81.6669,-475.08 80.3916,-474.697 79.1262,-474.269 77.8725,-473.797 76.6326,-473.284 75.4087,-472.73 74.2034,-472.137 73.0195,-471.506 71.8598,-470.839 70.7275,-470.139 69.6261,-469.406 68.5591,-468.643 67.5304,-467.853 66.5437,-467.036 65.6033,-466.196 64.7132,-465.335 63.8778,-464.455 63.1014,-463.559 62.3884,-462.648 61.743,-461.726 61.1695,-460.795 60.6721,-459.857 60.2548,-458.916 59.9216,-457.973 59.676,-457.032 59.5215,-456.094 59.4611,-455.163 59.4977,-454.241 59.6336,-453.331 59.8708,-452.434 60.2109,-451.554 60.655,-450.693 61.2037,-449.853 61.8571,-449.036 62.6148,-448.246 63.4758,-447.483 64.4387,-446.751 65.5012,-446.05 66.6609,-445.383 67.9146,-444.753 69.2584,-444.159 70.6882,-443.605 72.1992,-443.092 73.7862,-442.621 75.4434,-442.193 77.1646,-441.809 78.9434,-441.471 80.7727,-441.18 82.6455,-440.936 84.5542,-440.74 86.4909,-440.593 88.448,-440.494 90.4172,-440.445 92.3905,-440.445 94.3597,-440.494"/>
<text text-anchor="middle" x="91.4038" y="-455.945" font-family="Helvetica,sans-Serif" font-size="10.00" fill="#e8e8e8">Еврайх</text>
</g>
<!-- S.N.U.F.F.&#45;&#45;Еврайх -->
<g id="edge90" class="edge"><title>S.N.U.F.F.&#45;&#45;Еврайх</title>
<path fill="none" stroke="#eeeeee" stroke-width="0.6" d="M335.106,-898.56C294.078,-824.465 140.274,-546.702 100.724,-475.276"/>
</g>
<!-- S.N.U.F.F.&#45;&#45;Семён Левитан -->
<g id="edge91" class="edge"><title>S.N.U.F.F.&#45;&#45;Семён Левитан</title>
<path fill="none" stroke="#eeeeee" stroke-width="0.6" d="M371.505,-934.969C426.232,-972.764 551.626,-1059.36 603.867,-1095.44"/>
</g>
<!-- суры -->
<g id="node73" class="node"><title>суры</title>
<polygon fill="none" stroke="#e8e8e8" stroke-width="0.6" points="76.9077,-1000.21 78.6837,-1000.31 80.4414,-1000.46 82.1736,-1000.65 83.8732,-1000.9 85.5334,-1001.19 87.1477,-1001.53 88.7097,-1001.91 90.2137,-1002.34 91.6539,-1002.81 93.0252,-1003.32 94.3228,-1003.88 95.5423,-1004.47 96.6801,-1005.1 97.7325,-1005.77 98.6968,-1006.47 99.5706,-1007.2 100.352,-1007.96 101.04,-1008.75 101.633,-1009.57 102.131,-1010.41 102.534,-1011.27 102.842,-1012.15 103.058,-1013.05 103.181,-1013.96 103.214,-1014.88 103.159,-1015.81 103.019,-1016.75 102.796,-1017.69 102.494,-1018.63 102.115,-1019.57 101.664,-1020.51 101.143,-1021.44 100.558,-1022.36 99.9104,-1023.28 99.2058,-1024.17 98.4477,-1025.05 97.6399,-1025.91 96.7864,-1026.75 95.891,-1027.57 94.9574,-1028.36 93.9891,-1029.12 92.9895,-1029.86 91.962,-1030.56 90.9095,-1031.22 89.835,-1031.85 88.7412,-1032.45 87.6305,-1033 86.5052,-1033.51 85.3675,-1033.99 84.219,-1034.41 83.0617,-1034.8 81.8969,-1035.13 80.726,-1035.43 79.5502,-1035.67 78.3706,-1035.87 77.1881,-1036.01 76.0037,-1036.11 74.8181,-1036.16 73.6321,-1036.16 72.4465,-1036.11 71.2621,-1036.01 70.0797,-1035.87 68.9001,-1035.67 67.7243,-1035.43 66.5534,-1035.13 65.3886,-1034.8 64.2312,-1034.41 63.0828,-1033.99 61.945,-1033.51 60.8198,-1033 59.7091,-1032.45 58.6152,-1031.85 57.5407,-1031.22 56.4883,-1030.56 55.4607,-1029.86 54.4612,-1029.12 53.4929,-1028.36 52.5592,-1027.57 51.6638,-1026.75 50.8103,-1025.91 50.0026,-1025.05 49.2445,-1024.17 48.5398,-1023.28 47.8927,-1022.36 47.307,-1021.44 46.7865,-1020.51 46.3351,-1019.57 45.9565,-1018.63 45.654,-1017.69 45.4312,-1016.75 45.2909,-1015.81 45.2362,-1014.88 45.2693,-1013.96 45.3927,-1013.05 45.6079,-1012.15 45.9166,-1011.27 46.3196,-1010.41 46.8176,-1009.57 47.4106,-1008.75 48.0982,-1007.96 48.8796,-1007.2 49.7534,-1006.47 50.7177,-1005.77 51.7702,-1005.1 52.9079,-1004.47 54.1275,-1003.88 55.4251,-1003.32 56.7964,-1002.81 58.2366,-1002.34 59.7405,-1001.91 61.3026,-1001.53 62.9169,-1001.19 64.5771,-1000.9 66.2767,-1000.65 68.0088,-1000.46 69.7665,-1000.31 71.5426,-1000.21 73.3297,-1000.16 75.1205,-1000.16 76.9077,-1000.21"/>
<text text-anchor="middle" x="74.2251" y="-1015.66" font-family="Helvetica,sans-Serif" font-size="10.00" fill="#e8e8e8">суры</text>
</g>
<!-- S.N.U.F.F.&#45;&#45;суры -->
<g id="edge92" class="edge"><title>S.N.U.F.F.&#45;&#45;суры</title>
<path fill="none" stroke="#eeeeee" stroke-width="0.6" d="M312.525,-929.036C258.328,-949.306 150.896,-989.486 100.934,-1008.17"/>
</g>
<!-- Бэтман Аполло -->
<g id="node32" class="node"><title>Бэтман Аполло</title>
<polygon fill="#181818" stroke="#090909" stroke-width="0.8" points="599.1,-1277.17 513.1,-1277.17 513.1,-1241.17 599.1,-1241.17 599.1,-1277.17"/>
<text text-anchor="middle" x="556.1" y="-1256.67" font-family="Helvetica,sans-Serif" font-size="10.00" fill="#fefefe">Бэтман Аполло</text>
</g>
<!-- Бэтман Аполло&#45;&#45;Ацтланский календарь -->
<g id="edge93" class="edge"><title>Бэтман Аполло&#45;&#45;Ацтланский календарь</title>
<path fill="none" stroke="#eeeeee" stroke-width="0.6" d="M519.474,-1241.13C471.208,-1217.35 387.096,-1175.91 341.409,-1153.41"/>
</g>
<!-- Бэтман Аполло&#45;&#45;гигантская летучая мышь -->
<g id="edge94" class="edge"><title>Бэтман Аполло&#45;&#45;гигантская летучая мышь</title>
<path fill="none" stroke="#eeeeee" stroke-width="0.6" d="M531.394,-1277.23C499.221,-1300.54 440.995,-1341.98 389.43,-1374.73 292.037,-1436.61 172.659,-1503.3 116.842,-1533.97"/>
</g>
<!-- Бэтман Аполло&#45;&#45;клуб «Haute SOS» -->
<g id="edge95" class="edge"><title>Бэтман Аполло&#45;&#45;клуб «Haute SOS»</title>
<path fill="none" stroke="#eeeeee" stroke-width="0.6" d="M546.481,-1277.39C514.104,-1338.71 409.31,-1537.18 376.963,-1598.44"/>
</g>
<!-- Бэтман Аполло&#45;&#45;Михаил Ботвинник -->
<g id="edge96" class="edge"><title>Бэтман Аполло&#45;&#45;Михаил Ботвинник</title>
<path fill="none" stroke="#eeeeee" stroke-width="0.6" d="M547.516,-1277.52C534.427,-1306.32 509.661,-1364.18 496.918,-1415.84 448.95,-1610.31 435.782,-1854.46 432.929,-1922.66"/>
</g>
<!-- Бэтман Аполло&#45;&#45;Михаил Непойман -->
<g id="edge97" class="edge"><title>Бэтман Аполло&#45;&#45;Михаил Непойман</title>
<path fill="none" stroke="#eeeeee" stroke-width="0.6" d="M599.3,-1276.56C623.651,-1286.36 653.711,-1298.47 676.76,-1307.74"/>
</g>
<!-- Бэтман Аполло&#45;&#45;Рама -->
<g id="edge98" class="edge"><title>Бэтман Аполло&#45;&#45;Рама</title>
<path fill="none" stroke="#eeeeee" stroke-width="0.6" d="M559.256,-1241.09C564.223,-1210.41 572.932,-1146.15 569.188,-1091.76 566.559,-1053.57 559.455,-1009.26 555.223,-985.049"/>
</g>
<!-- Бэтман Аполло&#45;&#45;халдеи -->
<g id="edge99" class="edge"><title>Бэтман Аполло&#45;&#45;халдеи</title>
<path fill="none" stroke="#eeeeee" stroke-width="0.6" d="M585.322,-1240.88C636.94,-1208.58 742.943,-1142.24 786.849,-1114.76"/>
</g>
<!-- Любовь к трём цукербринам -->
<g id="node33" class="node"><title>Любовь к трём цукербринам</title>
<polygon fill="#181818" stroke="#090909" stroke-width="0.8" points="158.724,-783.647 8.72417,-783.647 8.72417,-747.647 158.724,-747.647 158.724,-783.647"/>
<text text-anchor="middle" x="83.7242" y="-763.147" font-family="Helvetica,sans-Serif" font-size="10.00" fill="#fefefe">Любовь к трём цукербринам</text>
</g>
<!-- Любовь к трём цукербринам&#45;&#45;Еврайх -->
<g id="edge100" class="edge"><title>Любовь к трём цукербринам&#45;&#45;Еврайх</title>
<path fill="none" stroke="#eeeeee" stroke-width="0.6" d="M84.1816,-747.35C85.5475,-692.711 89.5861,-531.159 90.9488,-476.646"/>
</g>
<!-- Любовь к трём цукербринам&#45;&#45;суры -->
<g id="edge101" class="edge"><title>Любовь к трём цукербринам&#45;&#45;суры</title>
<path fill="none" stroke="#eeeeee" stroke-width="0.6" d="M83.041,-783.807C81.2926,-830.285 76.6704,-953.158 74.9148,-999.826"/>
</g>
</g>
</svg>
