<?xml version="1.0" encoding="UTF-8" standalone="no"?>
<!DOCTYPE svg PUBLIC "-//W3C//DTD SVG 1.1//EN"
 "http://www.w3.org/Graphics/SVG/1.1/DTD/svg11.dtd">
<!-- Generated by graphviz version 2.36.0 (20140111.2315)
 -->
<!-- Title: %3 Pages: 1 -->
<svg width="3147pt" height="2899pt"
 viewBox="0.00 0.00 3147.00 2899.00" xmlns="http://www.w3.org/2000/svg" xmlns:xlink="http://www.w3.org/1999/xlink">
<g id="graph0" class="graph" transform="scale(1 1) rotate(0) translate(4 2895)">
<title>%3</title>
<polygon fill="#1f1f1f" stroke="none" points="-4,4 -4,-2895 3143,-2895 3143,4 -4,4"/>
<!-- Оружие возмездия -->
<g id="node1" class="node"><title>Оружие возмездия</title>
<polygon fill="#181818" stroke="#090909" stroke-width="0.8" points="2407.87,-2819.8 2300.87,-2819.8 2300.87,-2783.8 2407.87,-2783.8 2407.87,-2819.8"/>
<text text-anchor="middle" x="2354.37" y="-2799.3" font-family="Helvetica,sans-Serif" font-size="10.00" fill="#fefefe">Оружие возмездия</text>
</g>
<!-- П. Стецюк -->
<g id="node62" class="node"><title>П. Стецюк</title>
<ellipse fill="#2f2f2f" stroke="#ececec" stroke-width="0.6" cx="1871.33" cy="-2801.53" rx="39.3809" ry="18"/>
<text text-anchor="middle" x="1871.33" y="-2799.03" font-family="Helvetica,sans-Serif" font-size="10.00" fill="#ececec">П. Стецюк</text>
</g>
<!-- Оружие возмездия&#45;&#45;П. Стецюк -->
<g id="edge1" class="edge"><title>Оружие возмездия&#45;&#45;П. Стецюк</title>
<path fill="none" stroke="#eeeeee" stroke-width="0.6" d="M2300.83,-2801.77C2202.95,-2801.72 1997.25,-2801.6 1910.86,-2801.55"/>
</g>
<!-- Реконструктор -->
<g id="node2" class="node"><title>Реконструктор</title>
<polygon fill="#181818" stroke="#090909" stroke-width="0.8" points="2034.83,-2321.51 1946.83,-2321.51 1946.83,-2285.51 2034.83,-2285.51 2034.83,-2321.51"/>
<text text-anchor="middle" x="1990.83" y="-2301.01" font-family="Helvetica,sans-Serif" font-size="10.00" fill="#fefefe">Реконструктор</text>
</g>
<!-- Реконструктор&#45;&#45;П. Стецюк -->
<g id="edge2" class="edge"><title>Реконструктор&#45;&#45;П. Стецюк</title>
<path fill="none" stroke="#eeeeee" stroke-width="0.6" d="M1986.51,-2321.53C1967.84,-2399.31 1894.3,-2705.81 1875.65,-2783.54"/>
</g>
<!-- Сероб Налбандян -->
<g id="node73" class="node"><title>Сероб Налбандян</title>
<ellipse fill="#2f2f2f" stroke="#ececec" stroke-width="0.6" cx="1588.74" cy="-2336.24" rx="58.0561" ry="18"/>
<text text-anchor="middle" x="1588.74" y="-2333.74" font-family="Helvetica,sans-Serif" font-size="10.00" fill="#ececec">Сероб Налбандян</text>
</g>
<!-- Реконструктор&#45;&#45;Сероб Налбандян -->
<g id="edge3" class="edge"><title>Реконструктор&#45;&#45;Сероб Налбандян</title>
<path fill="none" stroke="#eeeeee" stroke-width="0.6" d="M1946.65,-2307.11C1873.21,-2313.09 1726.1,-2325.06 1645.23,-2331.64"/>
</g>
<!-- День бульдозериста -->
<g id="node3" class="node"><title>День бульдозериста</title>
<polygon fill="#181818" stroke="#090909" stroke-width="0.8" points="171.094,-2172.83 57.0937,-2172.83 57.0937,-2136.83 171.094,-2136.83 171.094,-2172.83"/>
<text text-anchor="middle" x="114.094" y="-2152.33" font-family="Helvetica,sans-Serif" font-size="10.00" fill="#fefefe">День бульдозериста</text>
</g>
<!-- Померанцев (Константин Победоносцев) -->
<g id="node66" class="node"><title>Померанцев (Константин Победоносцев)</title>
<ellipse fill="#2f2f2f" stroke="#ececec" stroke-width="0.6" cx="572.552" cy="-1489.43" rx="121.707" ry="18"/>
<text text-anchor="middle" x="572.552" y="-1486.93" font-family="Helvetica,sans-Serif" font-size="10.00" fill="#ececec">Померанцев (Константин Победоносцев)</text>
</g>
<!-- День бульдозериста&#45;&#45;Померанцев (Константин Победоносцев) -->
<g id="edge4" class="edge"><title>День бульдозериста&#45;&#45;Померанцев (Константин Победоносцев)</title>
<path fill="none" stroke="#eeeeee" stroke-width="0.6" d="M126.594,-2136.69C192.035,-2041.71 494.649,-1602.5 560.063,-1507.56"/>
</g>
<!-- товарищ Бабаясин -->
<g id="node76" class="node"><title>товарищ Бабаясин</title>
<ellipse fill="#2f2f2f" stroke="#ececec" stroke-width="0.6" cx="738.611" cy="-2260.01" rx="61.4427" ry="18"/>
<text text-anchor="middle" x="738.611" y="-2257.51" font-family="Helvetica,sans-Serif" font-size="10.00" fill="#ececec">товарищ Бабаясин</text>
</g>
<!-- День бульдозериста&#45;&#45;товарищ Бабаясин -->
<g id="edge5" class="edge"><title>День бульдозериста&#45;&#45;товарищ Бабаясин</title>
<path fill="none" stroke="#eeeeee" stroke-width="0.6" d="M171.171,-2164.45C291.315,-2184.68 568.812,-2231.41 685.449,-2251.06"/>
</g>
<!-- Миттельшпиль -->
<g id="node4" class="node"><title>Миттельшпиль</title>
<polygon fill="#181818" stroke="#090909" stroke-width="0.8" points="86.2211,-1711.61 0.221081,-1711.61 0.221081,-1675.61 86.2211,-1675.61 86.2211,-1711.61"/>
<text text-anchor="middle" x="43.2211" y="-1691.11" font-family="Helvetica,sans-Serif" font-size="10.00" fill="#fefefe">Миттельшпиль</text>
</g>
<!-- Нелли -->
<g id="node60" class="node"><title>Нелли</title>
<ellipse fill="#2f2f2f" stroke="#ececec" stroke-width="0.6" cx="67.9842" cy="-1244.62" rx="27.1572" ry="18"/>
<text text-anchor="middle" x="67.9842" y="-1242.12" font-family="Helvetica,sans-Serif" font-size="10.00" fill="#ececec">Нелли</text>
</g>
<!-- Миттельшпиль&#45;&#45;Нелли -->
<g id="edge6" class="edge"><title>Миттельшпиль&#45;&#45;Нелли</title>
<path fill="none" stroke="#eeeeee" stroke-width="0.6" d="M44.2225,-1675.45C48.2128,-1603.1 62.9577,-1335.76 66.9703,-1263"/>
</g>
<!-- Музыка со столба -->
<g id="node5" class="node"><title>Музыка со столба</title>
<polygon fill="#181818" stroke="#090909" stroke-width="0.8" points="1452.14,-2890.76 1351.14,-2890.76 1351.14,-2854.76 1452.14,-2854.76 1452.14,-2890.76"/>
<text text-anchor="middle" x="1401.64" y="-2870.26" font-family="Helvetica,sans-Serif" font-size="10.00" fill="#fefefe">Музыка со столба</text>
</g>
<!-- Матвей (Гиммлер) -->
<g id="node54" class="node"><title>Матвей (Гиммлер)</title>
<ellipse fill="#2f2f2f" stroke="#ececec" stroke-width="0.6" cx="789.711" cy="-2826.47" rx="59.4099" ry="18"/>
<text text-anchor="middle" x="789.711" y="-2823.97" font-family="Helvetica,sans-Serif" font-size="10.00" fill="#ececec">Матвей (Гиммлер)</text>
</g>
<!-- Музыка со столба&#45;&#45;Матвей (Гиммлер) -->
<g id="edge7" class="edge"><title>Музыка со столба&#45;&#45;Матвей (Гиммлер)</title>
<path fill="none" stroke="#eeeeee" stroke-width="0.6" d="M1351.04,-2868.93C1238.22,-2860.4 966.632,-2839.85 847.438,-2830.84"/>
</g>
<!-- Откровение Крегера -->
<g id="node6" class="node"><title>Откровение Крегера</title>
<polygon fill="#181818" stroke="#090909" stroke-width="0.8" points="1231.59,-2501.53 1116.59,-2501.53 1116.59,-2465.53 1231.59,-2465.53 1231.59,-2501.53"/>
<text text-anchor="middle" x="1174.09" y="-2481.03" font-family="Helvetica,sans-Serif" font-size="10.00" fill="#fefefe">Откровение Крегера</text>
</g>
<!-- Откровение Крегера&#45;&#45;Матвей (Гиммлер) -->
<g id="edge8" class="edge"><title>Откровение Крегера&#45;&#45;Матвей (Гиммлер)</title>
<path fill="none" stroke="#eeeeee" stroke-width="0.6" d="M1153.7,-2501.73C1086.8,-2561.41 874.604,-2750.73 809.136,-2809.14"/>
</g>
<!-- Откровение Крегера&#45;&#45;Сероб Налбандян -->
<g id="edge9" class="edge"><title>Откровение Крегера&#45;&#45;Сероб Налбандян</title>
<path fill="none" stroke="#eeeeee" stroke-width="0.6" d="M1224.94,-2465.47C1309.06,-2435.59 1475.36,-2376.52 1550.41,-2349.86"/>
</g>
<!-- Принц Госплана -->
<g id="node7" class="node"><title>Принц Госплана</title>
<polygon fill="#181818" stroke="#090909" stroke-width="0.8" points="770.821,-88.7699 677.821,-88.7699 677.821,-52.7699 770.821,-52.7699 770.821,-88.7699"/>
<text text-anchor="middle" x="724.321" y="-68.2699" font-family="Helvetica,sans-Serif" font-size="10.00" fill="#fefefe">Принц Госплана</text>
</g>
<!-- Саша Лапин -->
<g id="node71" class="node"><title>Саша Лапин</title>
<ellipse fill="#2f2f2f" stroke="#ececec" stroke-width="0.6" cx="964.093" cy="-918.715" rx="42.9448" ry="18"/>
<text text-anchor="middle" x="964.093" y="-916.215" font-family="Helvetica,sans-Serif" font-size="10.00" fill="#ececec">Саша Лапин</text>
</g>
<!-- Принц Госплана&#45;&#45;Саша Лапин -->
<g id="edge10" class="edge"><title>Принц Госплана&#45;&#45;Саша Лапин</title>
<path fill="none" stroke="#eeeeee" stroke-width="0.6" d="M729.44,-88.8727C760.897,-200.12 927.703,-790.021 959.022,-900.781"/>
</g>
<!-- Проблема верволка в средней полосе -->
<g id="node8" class="node"><title>Проблема верволка в средней полосе</title>
<polygon fill="#181818" stroke="#090909" stroke-width="0.8" points="196.27,-133.062 3.26969,-133.062 3.26969,-97.0621 196.27,-97.0621 196.27,-133.062"/>
<text text-anchor="middle" x="99.7697" y="-112.562" font-family="Helvetica,sans-Serif" font-size="10.00" fill="#fefefe">Проблема верволка в средней полосе</text>
</g>
<!-- полковник Лебеденко -->
<g id="node65" class="node"><title>полковник Лебеденко</title>
<ellipse fill="#2f2f2f" stroke="#ececec" stroke-width="0.6" cx="630.855" cy="-648.834" rx="68.7474" ry="18"/>
<text text-anchor="middle" x="630.855" y="-646.334" font-family="Helvetica,sans-Serif" font-size="10.00" fill="#ececec">полковник Лебеденко</text>
</g>
<!-- Проблема верволка в средней полосе&#45;&#45;полковник Лебеденко -->
<g id="edge11" class="edge"><title>Проблема верволка в средней полосе&#45;&#45;полковник Лебеденко</title>
<path fill="none" stroke="#eeeeee" stroke-width="0.6" d="M117.744,-133.127C199.19,-214.985 533.114,-550.598 613.425,-631.315"/>
</g>
<!-- Проблема верволка в средней полосе&#45;&#45;Саша Лапин -->
<g id="edge12" class="edge"><title>Проблема верволка в средней полосе&#45;&#45;Саша Лапин</title>
<path fill="none" stroke="#eeeeee" stroke-width="0.6" d="M121.316,-133.195C200.382,-199.942 481.398,-438.99 701.328,-648.948 798.273,-741.498 908.453,-858.811 948.505,-901.88"/>
</g>
<!-- Омон Ра -->
<g id="node9" class="node"><title>Омон Ра</title>
<polygon fill="#181818" stroke="#090909" stroke-width="0.8" points="1536.68,-2014.69 1480.68,-2014.69 1480.68,-1978.69 1536.68,-1978.69 1536.68,-2014.69"/>
<text text-anchor="middle" x="1508.68" y="-1994.19" font-family="Helvetica,sans-Serif" font-size="10.00" fill="#fefefe">Омон Ра</text>
</g>
<!-- Бункер под Лубянкой -->
<g id="node40" class="node"><title>Бункер под Лубянкой</title>
<polygon fill="none" stroke="#e8e8e8" stroke-width="0.6" points="1732.4,-1584.23 1736.89,-1584.33 1741.33,-1584.47 1745.7,-1584.67 1749.99,-1584.91 1754.18,-1585.21 1758.26,-1585.54 1762.2,-1585.93 1766,-1586.36 1769.64,-1586.83 1773.1,-1587.34 1776.38,-1587.89 1779.45,-1588.49 1782.33,-1589.12 1784.98,-1589.78 1787.42,-1590.49 1789.63,-1591.22 1791.6,-1591.98 1793.33,-1592.77 1794.83,-1593.59 1796.09,-1594.43 1797.11,-1595.29 1797.89,-1596.17 1798.43,-1597.07 1798.74,-1597.98 1798.82,-1598.9 1798.69,-1599.83 1798.33,-1600.77 1797.77,-1601.71 1797.01,-1602.65 1796.05,-1603.59 1794.91,-1604.53 1793.6,-1605.46 1792.12,-1606.38 1790.48,-1607.29 1788.7,-1608.19 1786.79,-1609.07 1784.75,-1609.93 1782.6,-1610.77 1780.33,-1611.59 1777.98,-1612.38 1775.53,-1613.14 1773.01,-1613.87 1770.41,-1614.57 1767.76,-1615.24 1765.04,-1615.87 1762.28,-1616.46 1759.48,-1617.02 1756.64,-1617.53 1753.76,-1618 1750.86,-1618.43 1747.94,-1618.82 1745,-1619.15 1742.05,-1619.44 1739.08,-1619.69 1736.1,-1619.88 1733.11,-1620.03 1730.12,-1620.13 1727.13,-1620.18 1724.13,-1620.18 1721.14,-1620.13 1718.15,-1620.03 1715.17,-1619.88 1712.19,-1619.69 1709.22,-1619.44 1706.26,-1619.15 1703.32,-1618.82 1700.4,-1618.43 1697.5,-1618 1694.63,-1617.53 1691.79,-1617.02 1688.98,-1616.46 1686.22,-1615.87 1683.51,-1615.24 1680.85,-1614.57 1678.25,-1613.87 1675.73,-1613.14 1673.29,-1612.38 1670.93,-1611.59 1668.67,-1610.77 1666.51,-1609.93 1664.47,-1609.07 1662.56,-1608.19 1660.78,-1607.29 1659.15,-1606.38 1657.67,-1605.46 1656.35,-1604.53 1655.21,-1603.59 1654.26,-1602.65 1653.49,-1601.71 1652.93,-1600.77 1652.58,-1599.83 1652.44,-1598.9 1652.52,-1597.98 1652.83,-1597.07 1653.38,-1596.17 1654.16,-1595.29 1655.18,-1594.43 1656.43,-1593.59 1657.93,-1592.77 1659.67,-1591.98 1661.64,-1591.22 1663.84,-1590.49 1666.28,-1589.78 1668.94,-1589.12 1671.81,-1588.49 1674.89,-1587.89 1678.16,-1587.34 1681.63,-1586.83 1685.26,-1586.36 1689.06,-1585.93 1693,-1585.54 1697.08,-1585.21 1701.27,-1584.91 1705.56,-1584.67 1709.94,-1584.47 1714.37,-1584.33 1718.86,-1584.23 1723.37,-1584.18 1727.89,-1584.18 1732.4,-1584.23"/>
<text text-anchor="middle" x="1725.63" y="-1599.68" font-family="Helvetica,sans-Serif" font-size="10.00" fill="#e8e8e8">Бункер под Лубянкой</text>
</g>
<!-- Омон Ра&#45;&#45;Бункер под Лубянкой -->
<g id="edge13" class="edge"><title>Омон Ра&#45;&#45;Бункер под Лубянкой</title>
<path fill="none" stroke="#eeeeee" stroke-width="0.6" d="M1513.58,-1978.4C1525.22,-1936.64 1557,-1831.8 1602.59,-1753.25 1633.49,-1700 1682.64,-1646.11 1708.48,-1619.4"/>
</g>
<!-- Омон Ра&#45;&#45;Сероб Налбандян -->
<g id="edge14" class="edge"><title>Омон Ра&#45;&#45;Сероб Налбандян</title>
<path fill="none" stroke="#eeeeee" stroke-width="0.6" d="M1512.99,-2014.95C1526.89,-2073.91 1570.48,-2258.81 1584.42,-2317.89"/>
</g>
<!-- Чапаев и Пустота -->
<g id="node10" class="node"><title>Чапаев и Пустота</title>
<polygon fill="#181818" stroke="#090909" stroke-width="0.8" points="1073.37,-1936.27 972.374,-1936.27 972.374,-1900.27 1073.37,-1900.27 1073.37,-1936.27"/>
<text text-anchor="middle" x="1022.87" y="-1915.77" font-family="Helvetica,sans-Serif" font-size="10.00" fill="#fefefe">Чапаев и Пустота</text>
</g>
<!-- Анна -->
<g id="node36" class="node"><title>Анна</title>
<ellipse fill="none" stroke="#ececec" stroke-width="0.1" cx="634.946" cy="-1853.98" rx="27" ry="18"/>
<text text-anchor="middle" x="634.946" y="-1851.48" font-family="Helvetica,sans-Serif" font-size="10.00" fill="#ececec">Анна</text>
</g>
<!-- Чапаев и Пустота&#45;&#45;Анна -->
<g id="edge15" class="edge"><title>Чапаев и Пустота&#45;&#45;Анна</title>
<path fill="none" stroke="#555555" stroke-width="0.6" d="M972.159,-1909.86C888.777,-1896.04 725.594,-1869 661.601,-1858.39"/>
</g>
<!-- Вовчик Малой -->
<g id="node42" class="node"><title>Вовчик Малой</title>
<ellipse fill="#2f2f2f" stroke="#ececec" stroke-width="0.6" cx="1404.85" cy="-1578.58" rx="48.7185" ry="18"/>
<text text-anchor="middle" x="1404.85" y="-1576.08" font-family="Helvetica,sans-Serif" font-size="10.00" fill="#ececec">Вовчик Малой</text>
</g>
<!-- Чапаев и Пустота&#45;&#45;Вовчик Малой -->
<g id="edge16" class="edge"><title>Чапаев и Пустота&#45;&#45;Вовчик Малой</title>
<path fill="none" stroke="#eeeeee" stroke-width="0.6" d="M1043.14,-1900.24C1109.77,-1840.99 1321.47,-1652.73 1386,-1595.34"/>
</g>
<!-- граф Т. -->
<g id="node45" class="node"><title>граф Т.</title>
<ellipse fill="#2f2f2f" stroke="#ececec" stroke-width="0.6" cx="1217.22" cy="-1657.65" rx="31.3996" ry="18"/>
<text text-anchor="middle" x="1217.22" y="-1655.15" font-family="Helvetica,sans-Serif" font-size="10.00" fill="#ececec">граф Т.</text>
</g>
<!-- Чапаев и Пустота&#45;&#45;граф Т. -->
<g id="edge17" class="edge"><title>Чапаев и Пустота&#45;&#45;граф Т.</title>
<path fill="none" stroke="#eeeeee" stroke-width="0.6" d="M1036.54,-1899.94C1072.66,-1851.51 1170.23,-1720.67 1204.84,-1674.26"/>
</g>
<!-- лама Джамбон Тулку -->
<g id="node49" class="node"><title>лама Джамбон Тулку</title>
<ellipse fill="#2f2f2f" stroke="#ececec" stroke-width="0.6" cx="1305.37" cy="-1457.46" rx="67.893" ry="18"/>
<text text-anchor="middle" x="1305.37" y="-1454.96" font-family="Helvetica,sans-Serif" font-size="10.00" fill="#ececec">лама Джамбон Тулку</text>
</g>
<!-- Чапаев и Пустота&#45;&#45;лама Джамбон Тулку -->
<g id="edge18" class="edge"><title>Чапаев и Пустота&#45;&#45;лама Джамбон Тулку</title>
<path fill="none" stroke="#eeeeee" stroke-width="0.6" d="M1033.95,-1900.2C1079.14,-1826.49 1249.33,-1548.88 1294.38,-1475.4"/>
</g>
<!-- Петр Пустота -->
<g id="node64" class="node"><title>Петр Пустота</title>
<ellipse fill="#2f2f2f" stroke="#ececec" stroke-width="0.6" cx="1225.26" cy="-2157.95" rx="48.7185" ry="18"/>
<text text-anchor="middle" x="1225.26" y="-2155.45" font-family="Helvetica,sans-Serif" font-size="10.00" fill="#ececec">Петр Пустота</text>
</g>
<!-- Чапаев и Пустота&#45;&#45;Петр Пустота -->
<g id="edge19" class="edge"><title>Чапаев и Пустота&#45;&#45;Петр Пустота</title>
<path fill="none" stroke="#eeeeee" stroke-width="0.6" d="M1038.09,-1936.28C1075.87,-1981.03 1173.61,-2096.77 1210.69,-2140.7"/>
</g>
<!-- Чапаев и Пустота&#45;&#45;товарищ Бабаясин -->
<g id="edge20" class="edge"><title>Чапаев и Пустота&#45;&#45;товарищ Бабаясин</title>
<path fill="none" stroke="#eeeeee" stroke-width="0.6" d="M1007.59,-1936.64C958.003,-1996.25 801.986,-2183.82 753.284,-2242.37"/>
</g>
<!-- Чапаев -->
<g id="node79" class="node"><title>Чапаев</title>
<ellipse fill="#2f2f2f" stroke="#ececec" stroke-width="0.6" cx="1303.01" cy="-1868.99" rx="29.3664" ry="18"/>
<text text-anchor="middle" x="1303.01" y="-1866.49" font-family="Helvetica,sans-Serif" font-size="10.00" fill="#ececec">Чапаев</text>
</g>
<!-- Чапаев и Пустота&#45;&#45;Чапаев -->
<g id="edge21" class="edge"><title>Чапаев и Пустота&#45;&#45;Чапаев</title>
<path fill="none" stroke="#eeeeee" stroke-width="0.6" d="M1073.6,-1909.34C1132.41,-1899 1227.29,-1882.31 1274.47,-1874.01"/>
</g>
<!-- Имена олигархов на карте Родины -->
<g id="node11" class="node"><title>Имена олигархов на карте Родины</title>
<polygon fill="#181818" stroke="#090909" stroke-width="0.8" points="2001.82,-1176.53 1822.82,-1176.53 1822.82,-1140.53 2001.82,-1140.53 2001.82,-1176.53"/>
<text text-anchor="middle" x="1912.32" y="-1156.03" font-family="Helvetica,sans-Serif" font-size="10.00" fill="#fefefe">Имена олигархов на карте Родины</text>
</g>
<!-- Вавилен Татарский -->
<g id="node41" class="node"><title>Вавилен Татарский</title>
<ellipse fill="#2f2f2f" stroke="#ececec" stroke-width="0.6" cx="1694.95" cy="-1137.78" rx="64.3289" ry="18"/>
<text text-anchor="middle" x="1694.95" y="-1135.28" font-family="Helvetica,sans-Serif" font-size="10.00" fill="#ececec">Вавилен Татарский</text>
</g>
<!-- Имена олигархов на карте Родины&#45;&#45;Вавилен Татарский -->
<g id="edge22" class="edge"><title>Имена олигархов на карте Родины&#45;&#45;Вавилен Татарский</title>
<path fill="none" stroke="#eeeeee" stroke-width="0.6" d="M1822.65,-1149.97C1800.2,-1147.83 1776.63,-1145.58 1755.93,-1143.61"/>
</g>
<!-- Generation «П» -->
<g id="node12" class="node"><title>Generation «П»</title>
<polygon fill="#181818" stroke="#090909" stroke-width="0.8" points="1594.85,-1259.1 1509.85,-1259.1 1509.85,-1223.1 1594.85,-1223.1 1594.85,-1259.1"/>
<text text-anchor="middle" x="1552.35" y="-1238.6" font-family="Helvetica,sans-Serif" font-size="10.00" fill="#fefefe">Generation «П»</text>
</g>
<!-- Generation «П»&#45;&#45;Вавилен Татарский -->
<g id="edge23" class="edge"><title>Generation «П»&#45;&#45;Вавилен Татарский</title>
<path fill="none" stroke="#eeeeee" stroke-width="0.6" d="M1577.52,-1222.87C1604.06,-1203.63 1645.56,-1173.57 1671.46,-1154.81"/>
</g>
<!-- Generation «П»&#45;&#45;Вовчик Малой -->
<g id="edge24" class="edge"><title>Generation «П»&#45;&#45;Вовчик Малой</title>
<path fill="none" stroke="#eeeeee" stroke-width="0.6" d="M1535.34,-1259.29C1506,-1291.9 1446.47,-1363.72 1419.86,-1436.46 1404.36,-1478.87 1403.31,-1532.81 1404,-1560.45"/>
</g>
<!-- Generation «П»&#45;&#45;лама Джамбон Тулку -->
<g id="edge25" class="edge"><title>Generation «П»&#45;&#45;лама Джамбон Тулку</title>
<path fill="none" stroke="#eeeeee" stroke-width="0.6" d="M1531.72,-1259.17C1484.88,-1300.2 1371.03,-1399.94 1325.09,-1440.19"/>
</g>
<!-- Малюта -->
<g id="node53" class="node"><title>Малюта</title>
<ellipse fill="#2f2f2f" stroke="#ececec" stroke-width="0.6" cx="1929.35" cy="-1363.48" rx="31.3996" ry="18"/>
<text text-anchor="middle" x="1929.35" y="-1360.98" font-family="Helvetica,sans-Serif" font-size="10.00" fill="#ececec">Малюта</text>
</g>
<!-- Generation «П»&#45;&#45;Малюта -->
<g id="edge26" class="edge"><title>Generation «П»&#45;&#45;Малюта</title>
<path fill="none" stroke="#eeeeee" stroke-width="0.6" d="M1586.08,-1259.12C1614.69,-1273.83 1657.15,-1294.31 1695.97,-1307.81 1767.19,-1332.56 1854.36,-1350.14 1899.33,-1358.32"/>
</g>
<!-- Михаил Непойман -->
<g id="node56" class="node"><title>Михаил Непойман</title>
<ellipse fill="#2f2f2f" stroke="#ececec" stroke-width="0.6" cx="1506.18" cy="-1018.97" rx="59.4099" ry="18"/>
<text text-anchor="middle" x="1506.18" y="-1016.47" font-family="Helvetica,sans-Serif" font-size="10.00" fill="#ececec">Михаил Непойман</text>
</g>
<!-- Generation «П»&#45;&#45;Михаил Непойман -->
<g id="edge27" class="edge"><title>Generation «П»&#45;&#45;Михаил Непойман</title>
<path fill="none" stroke="#eeeeee" stroke-width="0.6" d="M1548.57,-1222.92C1539.89,-1181.17 1518.61,-1078.79 1509.95,-1037.09"/>
</g>
<!-- пёс Пиздец -->
<g id="node63" class="node"><title>пёс Пиздец</title>
<polygon fill="none" stroke="#e8e8e8" stroke-width="0.6" points="1253.13,-1230.54 1255.86,-1230.63 1258.56,-1230.78 1261.22,-1230.98 1263.83,-1231.22 1266.37,-1231.51 1268.85,-1231.85 1271.25,-1232.23 1273.56,-1232.66 1275.77,-1233.13 1277.88,-1233.65 1279.87,-1234.2 1281.75,-1234.79 1283.49,-1235.43 1285.11,-1236.09 1286.59,-1236.79 1287.93,-1237.53 1289.13,-1238.29 1290.19,-1239.08 1291.1,-1239.89 1291.86,-1240.73 1292.48,-1241.6 1292.96,-1242.48 1293.29,-1243.37 1293.48,-1244.28 1293.53,-1245.21 1293.44,-1246.14 1293.23,-1247.07 1292.89,-1248.02 1292.42,-1248.96 1291.84,-1249.9 1291.15,-1250.84 1290.35,-1251.77 1289.45,-1252.69 1288.45,-1253.6 1287.37,-1254.5 1286.21,-1255.38 1284.97,-1256.24 1283.66,-1257.08 1282.28,-1257.89 1280.85,-1258.69 1279.36,-1259.45 1277.83,-1260.18 1276.25,-1260.88 1274.63,-1261.55 1272.98,-1262.18 1271.3,-1262.77 1269.6,-1263.33 1267.87,-1263.84 1266.12,-1264.31 1264.36,-1264.74 1262.58,-1265.12 1260.79,-1265.46 1258.99,-1265.75 1257.19,-1266 1255.37,-1266.19 1253.56,-1266.34 1251.74,-1266.44 1249.92,-1266.49 1248.1,-1266.49 1246.28,-1266.44 1244.46,-1266.34 1242.64,-1266.19 1240.83,-1266 1239.03,-1265.75 1237.23,-1265.46 1235.44,-1265.12 1233.66,-1264.74 1231.9,-1264.31 1230.15,-1263.84 1228.42,-1263.33 1226.72,-1262.77 1225.04,-1262.18 1223.39,-1261.55 1221.77,-1260.88 1220.19,-1260.18 1218.66,-1259.45 1217.17,-1258.69 1215.74,-1257.89 1214.36,-1257.08 1213.05,-1256.24 1211.81,-1255.38 1210.65,-1254.5 1209.56,-1253.6 1208.57,-1252.69 1207.67,-1251.77 1206.87,-1250.84 1206.18,-1249.9 1205.6,-1248.96 1205.13,-1248.02 1204.79,-1247.07 1204.57,-1246.14 1204.49,-1245.21 1204.54,-1244.28 1204.73,-1243.37 1205.06,-1242.48 1205.54,-1241.6 1206.15,-1240.73 1206.92,-1239.89 1207.83,-1239.08 1208.89,-1238.29 1210.09,-1237.53 1211.43,-1236.79 1212.91,-1236.09 1214.52,-1235.43 1216.27,-1234.79 1218.14,-1234.2 1220.14,-1233.65 1222.24,-1233.13 1224.46,-1232.66 1226.76,-1232.23 1229.16,-1231.85 1231.64,-1231.51 1234.19,-1231.22 1236.8,-1230.98 1239.46,-1230.78 1242.16,-1230.63 1244.89,-1230.54 1247.63,-1230.49 1250.38,-1230.49 1253.13,-1230.54"/>
<text text-anchor="middle" x="1249.01" y="-1245.99" font-family="Helvetica,sans-Serif" font-size="10.00" fill="#e8e8e8">пёс Пиздец</text>
</g>
<!-- Generation «П»&#45;&#45;пёс Пиздец -->
<g id="edge28" class="edge"><title>Generation «П»&#45;&#45;пёс Пиздец</title>
<path fill="none" stroke="#eeeeee" stroke-width="0.6" d="M1509.53,-1242.14C1452.37,-1243.53 1351.62,-1245.99 1293.58,-1247.4"/>
</g>
<!-- Семён Левитан -->
<g id="node72" class="node"><title>Семён Левитан</title>
<ellipse fill="#2f2f2f" stroke="#ececec" stroke-width="0.6" cx="1473.26" cy="-1436.63" rx="51.6054" ry="18"/>
<text text-anchor="middle" x="1473.26" y="-1434.13" font-family="Helvetica,sans-Serif" font-size="10.00" fill="#ececec">Семён Левитан</text>
</g>
<!-- Generation «П»&#45;&#45;Семён Левитан -->
<g id="edge29" class="edge"><title>Generation «П»&#45;&#45;Семён Левитан</title>
<path fill="none" stroke="#eeeeee" stroke-width="0.6" d="M1545.05,-1259.14C1529.99,-1296.39 1495.6,-1381.42 1480.55,-1418.63"/>
</g>
<!-- халдеи -->
<g id="node78" class="node"><title>халдеи</title>
<polygon fill="none" stroke="#e8e8e8" stroke-width="0.6" points="1710.55,-937.088 1712.46,-937.187 1714.35,-937.334 1716.22,-937.53 1718.04,-937.774 1719.83,-938.066 1721.57,-938.403 1723.25,-938.787 1724.87,-939.215 1726.42,-939.686 1727.89,-940.2 1729.29,-940.754 1730.6,-941.347 1731.82,-941.978 1732.96,-942.644 1733.99,-943.345 1734.93,-944.078 1735.77,-944.84 1736.51,-945.631 1737.15,-946.447 1737.69,-947.287 1738.12,-948.148 1738.45,-949.028 1738.68,-949.925 1738.82,-950.836 1738.85,-951.758 1738.79,-952.689 1738.64,-953.626 1738.4,-954.568 1738.08,-955.51 1737.67,-956.452 1737.18,-957.389 1736.62,-958.32 1735.99,-959.242 1735.3,-960.153 1734.54,-961.05 1733.72,-961.93 1732.86,-962.791 1731.94,-963.631 1730.97,-964.447 1729.97,-965.238 1728.93,-966 1727.85,-966.733 1726.75,-967.434 1725.61,-968.1 1724.46,-968.731 1723.28,-969.324 1722.09,-969.878 1720.88,-970.392 1719.65,-970.863 1718.42,-971.291 1717.17,-971.675 1715.92,-972.012 1714.66,-972.304 1713.39,-972.548 1712.12,-972.744 1710.85,-972.891 1709.58,-972.99 1708.3,-973.039 1707.03,-973.039 1705.75,-972.99 1704.48,-972.891 1703.2,-972.744 1701.93,-972.548 1700.67,-972.304 1699.41,-972.012 1698.16,-971.675 1696.91,-971.291 1695.67,-970.863 1694.45,-970.392 1693.24,-969.878 1692.05,-969.324 1690.87,-968.731 1689.71,-968.1 1688.58,-967.434 1687.47,-966.733 1686.4,-966 1685.36,-965.238 1684.35,-964.447 1683.39,-963.631 1682.47,-962.791 1681.6,-961.93 1680.79,-961.05 1680.03,-960.153 1679.33,-959.242 1678.7,-958.32 1678.14,-957.389 1677.66,-956.452 1677.25,-955.51 1676.92,-954.568 1676.68,-953.626 1676.53,-952.689 1676.47,-951.758 1676.51,-950.836 1676.64,-949.925 1676.87,-949.028 1677.21,-948.148 1677.64,-947.287 1678.17,-946.447 1678.81,-945.631 1679.55,-944.84 1680.39,-944.078 1681.33,-943.345 1682.37,-942.644 1683.5,-941.978 1684.73,-941.347 1686.04,-940.754 1687.44,-940.2 1688.91,-939.686 1690.46,-939.215 1692.08,-938.787 1693.76,-938.403 1695.5,-938.066 1697.28,-937.774 1699.11,-937.53 1700.97,-937.334 1702.87,-937.187 1704.78,-937.088 1706.7,-937.039 1708.63,-937.039 1710.55,-937.088"/>
<text text-anchor="middle" x="1707.66" y="-952.539" font-family="Helvetica,sans-Serif" font-size="10.00" fill="#e8e8e8">халдеи</text>
</g>
<!-- Generation «П»&#45;&#45;халдеи -->
<g id="edge30" class="edge"><title>Generation «П»&#45;&#45;халдеи</title>
<path fill="none" stroke="#eeeeee" stroke-width="0.6" d="M1562.3,-1222.77C1590.56,-1170.73 1670.98,-1022.6 1698.39,-972.125"/>
</g>
<!-- Акико -->
<g id="node13" class="node"><title>Акико</title>
<polygon fill="#181818" stroke="#090909" stroke-width="0.8" points="3086.3,-1687.53 3032.3,-1687.53 3032.3,-1651.53 3086.3,-1651.53 3086.3,-1687.53"/>
<text text-anchor="middle" x="3059.3" y="-1667.03" font-family="Helvetica,sans-Serif" font-size="10.00" fill="#fefefe">Акико</text>
</g>
<!-- Лебёдкин -->
<g id="node50" class="node"><title>Лебёдкин</title>
<ellipse fill="#2f2f2f" stroke="#ececec" stroke-width="0.6" cx="2532.99" cy="-1454.99" rx="36.4942" ry="18"/>
<text text-anchor="middle" x="2532.99" y="-1452.49" font-family="Helvetica,sans-Serif" font-size="10.00" fill="#ececec">Лебёдкин</text>
</g>
<!-- Акико&#45;&#45;Лебёдкин -->
<g id="edge31" class="edge"><title>Акико&#45;&#45;Лебёдкин</title>
<path fill="none" stroke="#eeeeee" stroke-width="0.6" d="M3032.11,-1658.45C2941.91,-1621.68 2653.09,-1503.95 2561.29,-1466.53"/>
</g>
<!-- Пятое главное управление -->
<g id="node67" class="node"><title>Пятое главное управление</title>
<polygon fill="none" stroke="#e8e8e8" stroke-width="0.6" points="2497.74,-1800.91 2503.15,-1801.01 2508.5,-1801.16 2513.77,-1801.35 2518.95,-1801.6 2524.01,-1801.89 2528.92,-1802.23 2533.68,-1802.61 2538.26,-1803.04 2542.64,-1803.51 2546.82,-1804.02 2550.77,-1804.58 2554.49,-1805.17 2557.95,-1805.8 2561.16,-1806.47 2564.09,-1807.17 2566.75,-1807.9 2569.13,-1808.66 2571.23,-1809.45 2573.03,-1810.27 2574.55,-1811.11 2575.78,-1811.97 2576.72,-1812.85 2577.37,-1813.75 2577.75,-1814.66 2577.85,-1815.58 2577.68,-1816.51 2577.26,-1817.45 2576.58,-1818.39 2575.66,-1819.33 2574.5,-1820.28 2573.13,-1821.21 2571.54,-1822.14 2569.76,-1823.07 2567.79,-1823.98 2565.64,-1824.87 2563.33,-1825.75 2560.87,-1826.61 2558.28,-1827.45 2555.55,-1828.27 2552.71,-1829.06 2549.76,-1829.82 2546.71,-1830.56 2543.58,-1831.26 2540.38,-1831.92 2537.11,-1832.55 2533.77,-1833.15 2530.39,-1833.7 2526.96,-1834.22 2523.5,-1834.69 2520,-1835.11 2516.48,-1835.5 2512.93,-1835.84 2509.36,-1836.13 2505.78,-1836.37 2502.19,-1836.57 2498.59,-1836.71 2494.98,-1836.81 2491.37,-1836.86 2487.76,-1836.86 2484.15,-1836.81 2480.54,-1836.71 2476.94,-1836.57 2473.35,-1836.37 2469.77,-1836.13 2466.2,-1835.84 2462.66,-1835.5 2459.13,-1835.11 2455.63,-1834.69 2452.17,-1834.22 2448.74,-1833.7 2445.36,-1833.15 2442.03,-1832.55 2438.76,-1831.92 2435.55,-1831.26 2432.42,-1830.56 2429.38,-1829.82 2426.43,-1829.06 2423.59,-1828.27 2420.86,-1827.45 2418.26,-1826.61 2415.8,-1825.75 2413.49,-1824.87 2411.35,-1823.98 2409.37,-1823.07 2407.59,-1822.14 2406.01,-1821.21 2404.63,-1820.28 2403.48,-1819.33 2402.56,-1818.39 2401.88,-1817.45 2401.45,-1816.51 2401.28,-1815.58 2401.39,-1814.66 2401.76,-1813.75 2402.42,-1812.85 2403.36,-1811.97 2404.58,-1811.11 2406.1,-1810.27 2407.91,-1809.45 2410,-1808.66 2412.38,-1807.9 2415.04,-1807.17 2417.98,-1806.47 2421.18,-1805.8 2424.65,-1805.17 2428.36,-1804.58 2432.31,-1804.02 2436.49,-1803.51 2440.88,-1803.04 2445.46,-1802.61 2450.21,-1802.23 2455.13,-1801.89 2460.19,-1801.6 2465.36,-1801.35 2470.64,-1801.16 2475.99,-1801.01 2481.4,-1800.91 2486.84,-1800.86 2492.29,-1800.86 2497.74,-1800.91"/>
<text text-anchor="middle" x="2489.57" y="-1816.36" font-family="Helvetica,sans-Serif" font-size="10.00" fill="#e8e8e8">Пятое главное управление</text>
</g>
<!-- Акико&#45;&#45;Пятое главное управление -->
<g id="edge32" class="edge"><title>Акико&#45;&#45;Пятое главное управление</title>
<path fill="none" stroke="#eeeeee" stroke-width="0.6" d="M3032.2,-1676.64C2944.52,-1699.62 2667.21,-1772.3 2546.56,-1803.92"/>
</g>
<!-- Македонская критика французской мысли -->
<g id="node14" class="node"><title>Македонская критика французской мысли</title>
<polygon fill="#181818" stroke="#090909" stroke-width="0.8" points="3139.47,-131.424 2920.47,-131.424 2920.47,-95.4241 3139.47,-95.4241 3139.47,-131.424"/>
<text text-anchor="middle" x="3029.97" y="-110.924" font-family="Helvetica,sans-Serif" font-size="10.00" fill="#fefefe">Македонская критика французской мысли</text>
</g>
<!-- Мунбанк -->
<g id="node57" class="node"><title>Мунбанк</title>
<polygon fill="none" stroke="#e8e8e8" stroke-width="0.6" points="2175.5,-961.137 2177.65,-961.236 2179.79,-961.383 2181.89,-961.579 2183.96,-961.823 2185.97,-962.114 2187.93,-962.452 2189.83,-962.836 2191.66,-963.264 2193.41,-963.735 2195.07,-964.248 2196.65,-964.803 2198.13,-965.396 2199.51,-966.027 2200.79,-966.693 2201.96,-967.394 2203.02,-968.126 2203.97,-968.889 2204.81,-969.68 2205.53,-970.496 2206.13,-971.336 2206.62,-972.197 2207,-973.077 2207.26,-973.974 2207.41,-974.884 2207.45,-975.806 2207.38,-976.738 2207.21,-977.675 2206.94,-978.616 2206.57,-979.559 2206.11,-980.501 2205.57,-981.438 2204.93,-982.369 2204.22,-983.291 2203.44,-984.202 2202.58,-985.098 2201.66,-985.978 2200.68,-986.84 2199.64,-987.68 2198.55,-988.496 2197.42,-989.287 2196.24,-990.049 2195.03,-990.782 2193.78,-991.482 2192.5,-992.149 2191.2,-992.78 2189.87,-993.373 2188.52,-993.927 2187.15,-994.441 2185.77,-994.912 2184.38,-995.34 2182.97,-995.723 2181.56,-996.061 2180.13,-996.352 2178.71,-996.596 2177.27,-996.792 2175.84,-996.94 2174.4,-997.038 2172.96,-997.088 2171.52,-997.088 2170.08,-997.038 2168.64,-996.94 2167.2,-996.792 2165.77,-996.596 2164.34,-996.352 2162.92,-996.061 2161.5,-995.723 2160.1,-995.34 2158.7,-994.912 2157.32,-994.441 2155.95,-993.927 2154.61,-993.373 2153.28,-992.78 2151.97,-992.149 2150.69,-991.482 2149.45,-990.782 2148.23,-990.049 2147.06,-989.287 2145.92,-988.496 2144.83,-987.68 2143.8,-986.84 2142.82,-985.978 2141.89,-985.098 2141.04,-984.202 2140.25,-983.291 2139.54,-982.369 2138.91,-981.438 2138.36,-980.501 2137.9,-979.559 2137.53,-978.616 2137.26,-977.675 2137.09,-976.738 2137.03,-975.806 2137.07,-974.884 2137.22,-973.974 2137.48,-973.077 2137.85,-972.197 2138.34,-971.336 2138.95,-970.496 2139.67,-969.68 2140.5,-968.889 2141.45,-968.126 2142.51,-967.394 2143.68,-966.693 2144.96,-966.027 2146.34,-965.396 2147.83,-964.803 2149.4,-964.248 2151.07,-963.735 2152.82,-963.264 2154.64,-962.836 2156.54,-962.452 2158.5,-962.114 2160.52,-961.823 2162.58,-961.579 2164.69,-961.383 2166.82,-961.236 2168.98,-961.137 2171.15,-961.088 2173.33,-961.088 2175.5,-961.137"/>
<text text-anchor="middle" x="2172.24" y="-976.588" font-family="Helvetica,sans-Serif" font-size="10.00" fill="#e8e8e8">Мунбанк</text>
</g>
<!-- Македонская критика французской мысли&#45;&#45;Мунбанк -->
<g id="edge33" class="edge"><title>Македонская критика французской мысли&#45;&#45;Мунбанк</title>
<path fill="none" stroke="#eeeeee" stroke-width="0.6" d="M3006.57,-131.613C2922.86,-197.193 2632.27,-429.47 2423.77,-653.141 2321.67,-762.68 2218.22,-911.225 2184.01,-961.574"/>
</g>
<!-- Насых Нафиков (Кика) -->
<g id="node59" class="node"><title>Насых Нафиков (Кика)</title>
<ellipse fill="#2f2f2f" stroke="#ececec" stroke-width="0.6" cx="2498.95" cy="-653.29" rx="73.6658" ry="18"/>
<text text-anchor="middle" x="2498.95" y="-650.79" font-family="Helvetica,sans-Serif" font-size="10.00" fill="#ececec">Насых Нафиков (Кика)</text>
</g>
<!-- Македонская критика французской мысли&#45;&#45;Насых Нафиков (Кика) -->
<g id="edge34" class="edge"><title>Македонская критика французской мысли&#45;&#45;Насых Нафиков (Кика)</title>
<path fill="none" stroke="#eeeeee" stroke-width="0.6" d="M3012,-131.696C2930.56,-214.488 2596.68,-553.933 2516.38,-635.572"/>
</g>
<!-- Санбанк -->
<g id="node70" class="node"><title>Санбанк</title>
<polygon fill="none" stroke="#e8e8e8" stroke-width="0.6" points="2530.6,-1070.35 2532.76,-1070.45 2534.89,-1070.6 2536.99,-1070.79 2539.06,-1071.04 2541.08,-1071.33 2543.04,-1071.67 2544.93,-1072.05 2546.76,-1072.48 2548.51,-1072.95 2550.18,-1073.46 2551.75,-1074.02 2553.23,-1074.61 2554.62,-1075.24 2555.89,-1075.91 2557.06,-1076.61 2558.13,-1077.34 2559.08,-1078.1 2559.91,-1078.89 2560.63,-1079.71 2561.24,-1080.55 2561.73,-1081.41 2562.1,-1082.29 2562.36,-1083.19 2562.51,-1084.1 2562.55,-1085.02 2562.49,-1085.95 2562.31,-1086.89 2562.04,-1087.83 2561.68,-1088.77 2561.22,-1089.71 2560.67,-1090.65 2560.04,-1091.58 2559.32,-1092.5 2558.54,-1093.41 2557.68,-1094.31 2556.76,-1095.19 2555.78,-1096.05 2554.74,-1096.89 2553.66,-1097.71 2552.52,-1098.5 2551.35,-1099.26 2550.13,-1099.99 2548.88,-1100.7 2547.61,-1101.36 2546.3,-1101.99 2544.97,-1102.59 2543.62,-1103.14 2542.26,-1103.65 2540.87,-1104.13 2539.48,-1104.55 2538.07,-1104.94 2536.66,-1105.27 2535.24,-1105.57 2533.81,-1105.81 2532.38,-1106.01 2530.94,-1106.15 2529.5,-1106.25 2528.06,-1106.3 2526.62,-1106.3 2525.18,-1106.25 2523.74,-1106.15 2522.3,-1106.01 2520.87,-1105.81 2519.44,-1105.57 2518.02,-1105.27 2516.61,-1104.94 2515.2,-1104.55 2513.81,-1104.13 2512.42,-1103.65 2511.06,-1103.14 2509.71,-1102.59 2508.38,-1101.99 2507.07,-1101.36 2505.8,-1100.7 2504.55,-1099.99 2503.33,-1099.26 2502.16,-1098.5 2501.02,-1097.71 2499.94,-1096.89 2498.9,-1096.05 2497.92,-1095.19 2497,-1094.31 2496.14,-1093.41 2495.35,-1092.5 2494.64,-1091.58 2494.01,-1090.65 2493.46,-1089.71 2493,-1088.77 2492.64,-1087.83 2492.36,-1086.89 2492.19,-1085.95 2492.13,-1085.02 2492.17,-1084.1 2492.32,-1083.19 2492.58,-1082.29 2492.95,-1081.41 2493.44,-1080.55 2494.05,-1079.71 2494.77,-1078.89 2495.6,-1078.1 2496.55,-1077.34 2497.61,-1076.61 2498.79,-1075.91 2500.06,-1075.24 2501.45,-1074.61 2502.93,-1074.02 2504.5,-1073.46 2506.17,-1072.95 2507.92,-1072.48 2509.75,-1072.05 2511.64,-1071.67 2513.6,-1071.33 2515.62,-1071.04 2517.69,-1070.79 2519.79,-1070.6 2521.92,-1070.45 2524.08,-1070.35 2526.25,-1070.3 2528.43,-1070.3 2530.6,-1070.35"/>
<text text-anchor="middle" x="2527.34" y="-1085.8" font-family="Helvetica,sans-Serif" font-size="10.00" fill="#e8e8e8">Санбанк</text>
</g>
<!-- Македонская критика французской мысли&#45;&#45;Санбанк -->
<g id="edge35" class="edge"><title>Македонская критика французской мысли&#45;&#45;Санбанк</title>
<path fill="none" stroke="#eeeeee" stroke-width="0.6" d="M3020.6,-131.6C2957.77,-253.457 2598.43,-950.409 2536.45,-1070.64"/>
</g>
<!-- Один вог -->
<g id="node15" class="node"><title>Один вог</title>
<polygon fill="#181818" stroke="#090909" stroke-width="0.8" points="1945.39,-1564.44 1886.39,-1564.44 1886.39,-1528.44 1945.39,-1528.44 1945.39,-1564.44"/>
<text text-anchor="middle" x="1915.89" y="-1543.94" font-family="Helvetica,sans-Serif" font-size="10.00" fill="#fefefe">Один вог</text>
</g>
<!-- Мюс -->
<g id="node58" class="node"><title>Мюс</title>
<ellipse fill="#2f2f2f" stroke="#ececec" stroke-width="0.6" cx="2191" cy="-1512.04" rx="27" ry="18"/>
<text text-anchor="middle" x="2191" y="-1509.54" font-family="Helvetica,sans-Serif" font-size="10.00" fill="#ececec">Мюс</text>
</g>
<!-- Один вог&#45;&#45;Мюс -->
<g id="edge36" class="edge"><title>Один вог&#45;&#45;Мюс</title>
<path fill="none" stroke="#eeeeee" stroke-width="0.6" d="M1945.59,-1542.72C1999.5,-1535.98 2112.64,-1521.84 2164.27,-1515.38"/>
</g>
<!-- Фокус&#45;группа -->
<g id="node16" class="node"><title>Фокус&#45;группа</title>
<polygon fill="#181818" stroke="#090909" stroke-width="0.8" points="3103.19,-772.267 3022.19,-772.267 3022.19,-736.267 3103.19,-736.267 3103.19,-772.267"/>
<text text-anchor="middle" x="3062.69" y="-751.767" font-family="Helvetica,sans-Serif" font-size="10.00" fill="#fefefe">Фокус&#45;группа</text>
</g>
<!-- Сракандаев -->
<g id="node74" class="node"><title>Сракандаев</title>
<ellipse fill="#2f2f2f" stroke="#ececec" stroke-width="0.6" cx="3069.96" cy="-1235.35" rx="42.9448" ry="18"/>
<text text-anchor="middle" x="3069.96" y="-1232.85" font-family="Helvetica,sans-Serif" font-size="10.00" fill="#ececec">Сракандаев</text>
</g>
<!-- Фокус&#45;группа&#45;&#45;Сракандаев -->
<g id="edge37" class="edge"><title>Фокус&#45;группа&#45;&#45;Сракандаев</title>
<path fill="none" stroke="#eeeeee" stroke-width="0.6" d="M3062.96,-772.539C3064.12,-848.829 3068.54,-1141.48 3069.69,-1217.32"/>
</g>
<!-- Числа -->
<g id="node17" class="node"><title>Числа</title>
<polygon fill="#181818" stroke="#090909" stroke-width="0.8" points="2203.32,-1285.59 2149.32,-1285.59 2149.32,-1249.59 2203.32,-1249.59 2203.32,-1285.59"/>
<text text-anchor="middle" x="2176.32" y="-1265.09" font-family="Helvetica,sans-Serif" font-size="10.00" fill="#fefefe">Числа</text>
</g>
<!-- Числа&#45;&#45;Бункер под Лубянкой -->
<g id="edge38" class="edge"><title>Числа&#45;&#45;Бункер под Лубянкой</title>
<path fill="none" stroke="#eeeeee" stroke-width="0.6" d="M2151.77,-1285.82C2072.87,-1344.39 1826.47,-1527.32 1749.11,-1584.75"/>
</g>
<!-- Числа&#45;&#45;Вавилен Татарский -->
<g id="edge39" class="edge"><title>Числа&#45;&#45;Вавилен Татарский</title>
<path fill="none" stroke="#eeeeee" stroke-width="0.6" d="M2149.27,-1261.74C2089.43,-1248.61 1941.49,-1215.18 1819.62,-1179.73 1790.9,-1171.38 1758.92,-1160.59 1734.55,-1152.05"/>
</g>
<!-- Числа&#45;&#45;Лебёдкин -->
<g id="edge40" class="edge"><title>Числа&#45;&#45;Лебёдкин</title>
<path fill="none" stroke="#eeeeee" stroke-width="0.6" d="M2203.42,-1281.83C2270.4,-1317.02 2442.99,-1407.7 2507.85,-1441.78"/>
</g>
<!-- Числа&#45;&#45;Малюта -->
<g id="edge41" class="edge"><title>Числа&#45;&#45;Малюта</title>
<path fill="none" stroke="#eeeeee" stroke-width="0.6" d="M2148.94,-1278.22C2100.97,-1296.85 2002.34,-1335.14 1955.35,-1353.38"/>
</g>
<!-- Числа&#45;&#45;Мунбанк -->
<g id="edge42" class="edge"><title>Числа&#45;&#45;Мунбанк</title>
<path fill="none" stroke="#eeeeee" stroke-width="0.6" d="M2176.06,-1249.54C2175.33,-1197.73 2173.23,-1048.93 2172.49,-997.128"/>
</g>
<!-- Числа&#45;&#45;Мюс -->
<g id="edge43" class="edge"><title>Числа&#45;&#45;Мюс</title>
<path fill="none" stroke="#eeeeee" stroke-width="0.6" d="M2177.42,-1285.96C2180.15,-1331.38 2187.18,-1448.5 2189.9,-1493.79"/>
</g>
<!-- Числа&#45;&#45;Насых Нафиков (Кика) -->
<g id="edge44" class="edge"><title>Числа&#45;&#45;Насых Нафиков (Кика)</title>
<path fill="none" stroke="#eeeeee" stroke-width="0.6" d="M2185.8,-1249.54C2233,-1159.66 2442.27,-761.22 2489.47,-671.343"/>
</g>
<!-- Числа&#45;&#45;Пятое главное управление -->
<g id="edge45" class="edge"><title>Числа&#45;&#45;Пятое главное управление</title>
<path fill="none" stroke="#eeeeee" stroke-width="0.6" d="M2186.56,-1285.62C2233.96,-1369.03 2431.68,-1716.99 2479.24,-1800.69"/>
</g>
<!-- Числа&#45;&#45;Санбанк -->
<g id="edge46" class="edge"><title>Числа&#45;&#45;Санбанк</title>
<path fill="none" stroke="#eeeeee" stroke-width="0.6" d="M2203.57,-1253.67C2270.42,-1219.53 2441.61,-1132.09 2504.08,-1100.18"/>
</g>
<!-- Числа&#45;&#45;Сракандаев -->
<g id="edge47" class="edge"><title>Числа&#45;&#45;Сракандаев</title>
<path fill="none" stroke="#eeeeee" stroke-width="0.6" d="M2203.55,-1266.61C2331.16,-1262 2870.31,-1242.55 3027.06,-1236.9"/>
</g>
<!-- Священная книга оборотня -->
<g id="node18" class="node"><title>Священная книга оборотня</title>
<polygon fill="#181818" stroke="#090909" stroke-width="0.8" points="1104.07,-1194.35 961.072,-1194.35 961.072,-1158.35 1104.07,-1158.35 1104.07,-1194.35"/>
<text text-anchor="middle" x="1032.57" y="-1173.85" font-family="Helvetica,sans-Serif" font-size="10.00" fill="#fefefe">Священная книга оборотня</text>
</g>
<!-- А Хули -->
<g id="node35" class="node"><title>А Хули</title>
<ellipse fill="#2f2f2f" stroke="#ececec" stroke-width="0.6" cx="1135.4" cy="-1424.85" rx="29.3664" ry="18"/>
<text text-anchor="middle" x="1135.4" y="-1422.35" font-family="Helvetica,sans-Serif" font-size="10.00" fill="#ececec">А Хули</text>
</g>
<!-- Священная книга оборотня&#45;&#45;А Хули -->
<g id="edge48" class="edge"><title>Священная книга оборотня&#45;&#45;А Хули</title>
<path fill="none" stroke="#eeeeee" stroke-width="0.6" d="M1040.13,-1194.62C1059.24,-1240.8 1109.28,-1361.74 1128.1,-1407.22"/>
</g>
<!-- Священная книга оборотня&#45;&#45;Вавилен Татарский -->
<g id="edge49" class="edge"><title>Священная книга оборотня&#45;&#45;Вавилен Татарский</title>
<path fill="none" stroke="#eeeeee" stroke-width="0.6" d="M1104.13,-1177.59C1185.64,-1178.46 1322.76,-1178.24 1440.36,-1169.92 1509.02,-1165.06 1587.53,-1154.36 1639,-1146.64"/>
</g>
<!-- Лев Толстой -->
<g id="node51" class="node"><title>Лев Толстой</title>
<ellipse fill="#2f2f2f" stroke="#ececec" stroke-width="0.6" cx="885.2" cy="-1356.75" rx="44.3" ry="18"/>
<text text-anchor="middle" x="885.2" y="-1354.25" font-family="Helvetica,sans-Serif" font-size="10.00" fill="#ececec">Лев Толстой</text>
</g>
<!-- Священная книга оборотня&#45;&#45;Лев Толстой -->
<g id="edge50" class="edge"><title>Священная книга оборотня&#45;&#45;Лев Толстой</title>
<path fill="none" stroke="#eeeeee" stroke-width="0.6" d="M1017.63,-1194.64C989.092,-1229.57 927.192,-1305.34 899.313,-1339.47"/>
</g>
<!-- Священная книга оборотня&#45;&#45;Нелли -->
<g id="edge51" class="edge"><title>Священная книга оборотня&#45;&#45;Нелли</title>
<path fill="none" stroke="#eeeeee" stroke-width="0.6" d="M960.86,-1181.42C764.166,-1195.34 222.348,-1233.69 95.0232,-1242.71"/>
</g>
<!-- Священная книга оборотня&#45;&#45;пёс Пиздец -->
<g id="edge52" class="edge"><title>Священная книга оборотня&#45;&#45;пёс Пиздец</title>
<path fill="none" stroke="#eeeeee" stroke-width="0.6" d="M1086.63,-1194.36C1125.82,-1207.43 1177.78,-1224.74 1212.25,-1236.23"/>
</g>
<!-- Священная книга оборотня&#45;&#45;полковник Лебеденко -->
<g id="edge53" class="edge"><title>Священная книга оборотня&#45;&#45;полковник Лебеденко</title>
<path fill="none" stroke="#eeeeee" stroke-width="0.6" d="M1018.74,-1158.19C956.867,-1076.93 705.755,-747.188 644.419,-666.645"/>
</g>
<!-- рецензент Майя Марачкарская -->
<g id="node69" class="node"><title>рецензент Майя Марачкарская</title>
<ellipse fill="#2f2f2f" stroke="#ececec" stroke-width="0.6" cx="609.066" cy="-1093.53" rx="96.5815" ry="18"/>
<text text-anchor="middle" x="609.066" y="-1091.03" font-family="Helvetica,sans-Serif" font-size="10.00" fill="#ececec">рецензент Майя Марачкарская</text>
</g>
<!-- Священная книга оборотня&#45;&#45;рецензент Майя Марачкарская -->
<g id="edge54" class="edge"><title>Священная книга оборотня&#45;&#45;рецензент Майя Марачкарская</title>
<path fill="none" stroke="#eeeeee" stroke-width="0.6" d="M960.73,-1162.3C881.083,-1146.72 753.635,-1121.8 676.013,-1106.62"/>
</g>
<!-- Священная книга оборотня&#45;&#45;Саша Лапин -->
<g id="edge55" class="edge"><title>Священная книга оборотня&#45;&#45;Саша Лапин</title>
<path fill="none" stroke="#eeeeee" stroke-width="0.6" d="M1027.76,-1158.23C1015.18,-1110.93 981.471,-984.091 968.903,-936.811"/>
</g>
<!-- Психическая атака (сонет) -->
<g id="node19" class="node"><title>Психическая атака (сонет)</title>
<polygon fill="#181818" stroke="#090909" stroke-width="0.8" points="184.986,-2774.18 41.9864,-2774.18 41.9864,-2738.18 184.986,-2738.18 184.986,-2774.18"/>
<text text-anchor="middle" x="113.486" y="-2753.68" font-family="Helvetica,sans-Serif" font-size="10.00" fill="#fefefe">Психическая атака (сонет)</text>
</g>
<!-- Психическая атака (сонет)&#45;&#45;Петр Пустота -->
<g id="edge56" class="edge"><title>Психическая атака (сонет)&#45;&#45;Петр Пустота</title>
<path fill="none" stroke="#eeeeee" stroke-width="0.6" d="M147.062,-2738.11C313.138,-2648.75 1044.85,-2255.02 1197.35,-2172.97"/>
</g>
<!-- Empire V -->
<g id="node20" class="node"><title>Empire V</title>
<polygon fill="#181818" stroke="#090909" stroke-width="0.8" points="1930.18,-910.972 1873.18,-910.972 1873.18,-874.972 1930.18,-874.972 1930.18,-910.972"/>
<text text-anchor="middle" x="1901.68" y="-890.472" font-family="Helvetica,sans-Serif" font-size="10.00" fill="#fefefe">Empire V</text>
</g>
<!-- Empire V&#45;&#45;Вавилен Татарский -->
<g id="edge57" class="edge"><title>Empire V&#45;&#45;Вавилен Татарский</title>
<path fill="none" stroke="#eeeeee" stroke-width="0.6" d="M1886.48,-910.974C1848.16,-956.357 1747.94,-1075.03 1709.9,-1120.09"/>
</g>
<!-- Рама -->
<g id="node68" class="node"><title>Рама</title>
<ellipse fill="#2f2f2f" stroke="#ececec" stroke-width="0.6" cx="2103.99" cy="-599.665" rx="27" ry="18"/>
<text text-anchor="middle" x="2103.99" y="-597.165" font-family="Helvetica,sans-Serif" font-size="10.00" fill="#ececec">Рама</text>
</g>
<!-- Empire V&#45;&#45;Рама -->
<g id="edge58" class="edge"><title>Empire V&#45;&#45;Рама</title>
<path fill="none" stroke="#eeeeee" stroke-width="0.6" d="M1914.34,-874.625C1951.1,-821.324 2057.51,-667.055 2092.61,-616.167"/>
</g>
<!-- Empire V&#45;&#45;халдеи -->
<g id="edge59" class="edge"><title>Empire V&#45;&#45;халдеи</title>
<path fill="none" stroke="#eeeeee" stroke-width="0.6" d="M1873.05,-902.13C1836.48,-913.831 1773.51,-933.974 1736.73,-945.742"/>
</g>
<!-- Ассасин -->
<g id="node21" class="node"><title>Ассасин</title>
<polygon fill="#181818" stroke="#090909" stroke-width="0.8" points="91.0028,-781.529 35.0028,-781.529 35.0028,-745.529 91.0028,-745.529 91.0028,-781.529"/>
<text text-anchor="middle" x="63.0028" y="-761.029" font-family="Helvetica,sans-Serif" font-size="10.00" fill="#fefefe">Ассасин</text>
</g>
<!-- Ассасин&#45;&#45;рецензент Майя Марачкарская -->
<g id="edge60" class="edge"><title>Ассасин&#45;&#45;рецензент Майя Марачкарская</title>
<path fill="none" stroke="#eeeeee" stroke-width="0.6" d="M91.2117,-780.576C185.013,-837.263 485.854,-1019.07 580.369,-1076.19"/>
</g>
<!-- Зал поющих кариатид -->
<g id="node22" class="node"><title>Зал поющих кариатид</title>
<polygon fill="#181818" stroke="#090909" stroke-width="0.8" points="1831.71,-562.648 1710.71,-562.648 1710.71,-526.648 1831.71,-526.648 1831.71,-562.648"/>
<text text-anchor="middle" x="1771.21" y="-542.148" font-family="Helvetica,sans-Serif" font-size="10.00" fill="#fefefe">Зал поющих кариатид</text>
</g>
<!-- генерал Шмыга -->
<g id="node43" class="node"><title>генерал Шмыга</title>
<ellipse fill="#2f2f2f" stroke="#ececec" stroke-width="0.6" cx="1733.38" cy="-1293.97" rx="51.4282" ry="18"/>
<text text-anchor="middle" x="1733.38" y="-1291.47" font-family="Helvetica,sans-Serif" font-size="10.00" fill="#ececec">генерал Шмыга</text>
</g>
<!-- Зал поющих кариатид&#45;&#45;генерал Шмыга -->
<g id="edge61" class="edge"><title>Зал поющих кариатид&#45;&#45;генерал Шмыга</title>
<path fill="none" stroke="#eeeeee" stroke-width="0.6" d="M1771.91,-562.665C1774.51,-635.068 1782.38,-911.803 1760.71,-1137.91 1755.89,-1188.29 1743.88,-1246.87 1737.51,-1275.84"/>
</g>
<!-- клуб «Haute SOS» -->
<g id="node48" class="node"><title>клуб «Haute SOS»</title>
<polygon fill="none" stroke="#e8e8e8" stroke-width="0.6" points="2416.7,-49.8839 2420.57,-49.9824 2424.4,-50.1299 2428.17,-50.3259 2431.87,-50.5699 2435.48,-50.8612 2439,-51.199 2442.4,-51.5824 2445.68,-52.0104 2448.81,-52.4818 2451.8,-52.9952 2454.63,-53.5493 2457.28,-54.1425 2459.76,-54.7733 2462.05,-55.4399 2464.15,-56.1405 2466.05,-56.8731 2467.76,-57.6357 2469.25,-58.4263 2470.55,-59.2427 2471.63,-60.0827 2472.51,-60.9439 2473.18,-61.824 2473.65,-62.7205 2473.92,-63.6311 2473.99,-64.5532 2473.87,-65.4843 2473.56,-66.4218 2473.08,-67.3632 2472.42,-68.3059 2471.6,-69.2473 2470.61,-70.1848 2469.48,-71.1159 2468.2,-72.038 2466.79,-72.9486 2465.26,-73.8451 2463.61,-74.7252 2461.85,-75.5864 2459.99,-76.4263 2458.04,-77.2427 2456.01,-78.0334 2453.9,-78.796 2451.72,-79.5286 2449.48,-80.2292 2447.19,-80.8958 2444.85,-81.5265 2442.47,-82.1198 2440.05,-82.6739 2437.6,-83.1873 2435.12,-83.6587 2432.62,-84.0866 2430.1,-84.4701 2427.56,-84.8079 2425.01,-85.0992 2422.45,-85.3432 2419.89,-85.5392 2417.31,-85.6867 2414.73,-85.7852 2412.15,-85.8345 2409.57,-85.8345 2406.98,-85.7852 2404.4,-85.6867 2401.83,-85.5392 2399.26,-85.3432 2396.7,-85.0992 2394.15,-84.8079 2391.61,-84.4701 2389.09,-84.0866 2386.59,-83.6587 2384.11,-83.1873 2381.66,-82.6739 2379.24,-82.1198 2376.86,-81.5265 2374.52,-80.8958 2372.23,-80.2292 2369.99,-79.5286 2367.82,-78.796 2365.71,-78.0334 2363.67,-77.2427 2361.72,-76.4263 2359.86,-75.5864 2358.11,-74.7252 2356.45,-73.8451 2354.92,-72.9486 2353.51,-72.038 2352.23,-71.1159 2351.1,-70.1848 2350.12,-69.2473 2349.29,-68.3059 2348.64,-67.3632 2348.15,-66.4218 2347.84,-65.4843 2347.73,-64.5532 2347.8,-63.6311 2348.07,-62.7205 2348.53,-61.824 2349.21,-60.9439 2350.08,-60.0827 2351.17,-59.2427 2352.46,-58.4263 2353.96,-57.6357 2355.66,-56.8731 2357.56,-56.1405 2359.66,-55.4399 2361.95,-54.7733 2364.43,-54.1425 2367.09,-53.5493 2369.91,-52.9952 2372.9,-52.4818 2376.04,-52.0104 2379.31,-51.5824 2382.71,-51.199 2386.23,-50.8612 2389.85,-50.5699 2393.55,-50.3259 2397.32,-50.1299 2401.15,-49.9824 2405.02,-49.8839 2408.91,-49.8345 2412.81,-49.8345 2416.7,-49.8839"/>
<text text-anchor="middle" x="2410.86" y="-65.3345" font-family="Helvetica,sans-Serif" font-size="10.00" fill="#e8e8e8">клуб «Haute SOS»</text>
</g>
<!-- Зал поющих кариатид&#45;&#45;клуб «Haute SOS» -->
<g id="edge62" class="edge"><title>Зал поющих кариатид&#45;&#45;клуб «Haute SOS»</title>
<path fill="none" stroke="#eeeeee" stroke-width="0.6" d="M1795.5,-526.539C1897.62,-450.415 2291.31,-156.947 2388.88,-84.2152"/>
</g>
<!-- Михаил Ботвинник -->
<g id="node55" class="node"><title>Михаил Ботвинник</title>
<ellipse fill="#2f2f2f" stroke="#ececec" stroke-width="0.6" cx="1976.99" cy="-72.0994" rx="62.2967" ry="18"/>
<text text-anchor="middle" x="1976.99" y="-69.5994" font-family="Helvetica,sans-Serif" font-size="10.00" fill="#ececec">Михаил Ботвинник</text>
</g>
<!-- Зал поющих кариатид&#45;&#45;Михаил Ботвинник -->
<g id="edge63" class="edge"><title>Зал поющих кариатид&#45;&#45;Михаил Ботвинник</title>
<path fill="none" stroke="#eeeeee" stroke-width="0.6" d="M1779.15,-526.413C1811.94,-451.103 1936.64,-164.759 1969.18,-90.0267"/>
</g>
<!-- Некромент -->
<g id="node23" class="node"><title>Некромент</title>
<polygon fill="#181818" stroke="#090909" stroke-width="0.8" points="1673.79,-1792.45 1605.79,-1792.45 1605.79,-1756.45 1673.79,-1756.45 1673.79,-1792.45"/>
<text text-anchor="middle" x="1639.79" y="-1771.95" font-family="Helvetica,sans-Serif" font-size="10.00" fill="#fefefe">Некромент</text>
</g>
<!-- Дупин -->
<g id="node46" class="node"><title>Дупин</title>
<ellipse fill="#2f2f2f" stroke="#ececec" stroke-width="0.6" cx="1773.11" cy="-2008.02" rx="27.8353" ry="18"/>
<text text-anchor="middle" x="1773.11" y="-2005.52" font-family="Helvetica,sans-Serif" font-size="10.00" fill="#ececec">Дупин</text>
</g>
<!-- Некромент&#45;&#45;Дупин -->
<g id="edge64" class="edge"><title>Некромент&#45;&#45;Дупин</title>
<path fill="none" stroke="#eeeeee" stroke-width="0.6" d="M1650.25,-1792.78C1675.42,-1836.87 1739.06,-1948.37 1763.42,-1991.04"/>
</g>
<!-- Макар Гетман -->
<g id="node52" class="node"><title>Макар Гетман</title>
<ellipse fill="#2f2f2f" stroke="#ececec" stroke-width="0.6" cx="1461.41" cy="-1730.5" rx="48.7185" ry="18"/>
<text text-anchor="middle" x="1461.41" y="-1728" font-family="Helvetica,sans-Serif" font-size="10.00" fill="#ececec">Макар Гетман</text>
</g>
<!-- Некромент&#45;&#45;Макар Гетман -->
<g id="edge65" class="edge"><title>Некромент&#45;&#45;Макар Гетман</title>
<path fill="none" stroke="#eeeeee" stroke-width="0.6" d="M1605.39,-1765.97C1575.93,-1758.71 1533.45,-1748.25 1502.26,-1740.56"/>
</g>
<!-- Пространство Фридмана -->
<g id="node24" class="node"><title>Пространство Фридмана</title>
<polygon fill="#181818" stroke="#090909" stroke-width="0.8" points="1667.58,-1413.88 1532.58,-1413.88 1532.58,-1377.88 1667.58,-1377.88 1667.58,-1413.88"/>
<text text-anchor="middle" x="1600.08" y="-1393.38" font-family="Helvetica,sans-Serif" font-size="10.00" fill="#fefefe">Пространство Фридмана</text>
</g>
<!-- Пространство Фридмана&#45;&#45;генерал Шмыга -->
<g id="edge66" class="edge"><title>Пространство Фридмана&#45;&#45;генерал Шмыга</title>
<path fill="none" stroke="#eeeeee" stroke-width="0.6" d="M1623.91,-1377.66C1648.93,-1358.54 1687.89,-1328.75 1711.96,-1310.35"/>
</g>
<!-- t -->
<g id="node25" class="node"><title>t</title>
<polygon fill="#181818" stroke="#090909" stroke-width="0.8" points="980.169,-1647.75 926.169,-1647.75 926.169,-1611.75 980.169,-1611.75 980.169,-1647.75"/>
<text text-anchor="middle" x="953.169" y="-1627.25" font-family="Helvetica,sans-Serif" font-size="10.00" fill="#fefefe">t</text>
</g>
<!-- t&#45;&#45;А Хули -->
<g id="edge67" class="edge"><title>t&#45;&#45;А Хули</title>
<path fill="none" stroke="#eeeeee" stroke-width="0.6" d="M969.34,-1611.57C1004.62,-1571.9 1087.99,-1478.16 1121.29,-1440.71"/>
</g>
<!-- t&#45;&#45;Анна -->
<g id="edge68" class="edge"><title>t&#45;&#45;Анна</title>
<path fill="none" stroke="#555555" stroke-width="0.6" d="M927.397,-1647.91C865.252,-1691.7 708.27,-1802.31 653.861,-1840.65"/>
</g>
<!-- t&#45;&#45;генерал Шмыга -->
<g id="edge69" class="edge"><title>t&#45;&#45;генерал Шмыга</title>
<path fill="none" stroke="#eeeeee" stroke-width="0.6" d="M980.56,-1620.65C1046.39,-1598.42 1218.08,-1538.26 1354.08,-1471.4 1392.04,-1452.74 1398.82,-1443.15 1435.83,-1422.65 1476.71,-1400.01 1486.82,-1393.96 1529.38,-1374.68 1587.32,-1348.43 1656.48,-1322.08 1697.57,-1306.94"/>
</g>
<!-- t&#45;&#45;граф Т. -->
<g id="edge70" class="edge"><title>t&#45;&#45;граф Т.</title>
<path fill="none" stroke="#eeeeee" stroke-width="0.6" d="M980.432,-1632.63C1029.98,-1637.86 1134.45,-1648.91 1186.46,-1654.4"/>
</g>
<!-- t&#45;&#45;лама Джамбон Тулку -->
<g id="edge71" class="edge"><title>t&#45;&#45;лама Джамбон Тулку</title>
<path fill="none" stroke="#eeeeee" stroke-width="0.6" d="M980.221,-1616.52C1044.09,-1585.27 1204.04,-1507.03 1272.95,-1473.32"/>
</g>
<!-- t&#45;&#45;Лев Толстой -->
<g id="edge72" class="edge"><title>t&#45;&#45;Лев Толстой</title>
<path fill="none" stroke="#eeeeee" stroke-width="0.6" d="M948.604,-1611.41C936.221,-1561.68 902.104,-1424.64 889.745,-1375"/>
</g>
<!-- t&#45;&#45;Померанцев (Константин Победоносцев) -->
<g id="edge73" class="edge"><title>t&#45;&#45;Померанцев (Константин Победоносцев)</title>
<path fill="none" stroke="#eeeeee" stroke-width="0.6" d="M926.101,-1619.77C861.564,-1595.98 698.074,-1535.71 618.064,-1506.21"/>
</g>
<!-- t&#45;&#45;Чапаев -->
<g id="edge74" class="edge"><title>t&#45;&#45;Чапаев</title>
<path fill="none" stroke="#eeeeee" stroke-width="0.6" d="M979.751,-1647.93C1047.2,-1694.05 1223.84,-1814.85 1283.21,-1855.45"/>
</g>
<!-- Зенитные кодексы Аль&#45;Эфесби -->
<g id="node26" class="node"><title>Зенитные кодексы Аль&#45;Эфесби</title>
<polygon fill="#181818" stroke="#090909" stroke-width="0.8" points="1656.43,-1584.35 1490.43,-1584.35 1490.43,-1548.35 1656.43,-1548.35 1656.43,-1584.35"/>
<text text-anchor="middle" x="1573.43" y="-1563.85" font-family="Helvetica,sans-Serif" font-size="10.00" fill="#fefefe">Зенитные кодексы Аль&#45;Эфесби</text>
</g>
<!-- БПЛА -->
<g id="node39" class="node"><title>БПЛА</title>
<polygon fill="none" stroke="#e8e8e8" stroke-width="0.6" points="1406.16,-1299.05 1407.94,-1299.15 1409.7,-1299.3 1411.43,-1299.49 1413.13,-1299.74 1414.79,-1300.03 1416.4,-1300.37 1417.96,-1300.75 1419.47,-1301.18 1420.91,-1301.65 1422.28,-1302.16 1423.58,-1302.72 1424.8,-1303.31 1425.93,-1303.94 1426.99,-1304.61 1427.95,-1305.31 1428.82,-1306.04 1429.61,-1306.8 1430.29,-1307.59 1430.89,-1308.41 1431.38,-1309.25 1431.79,-1310.11 1432.1,-1310.99 1432.31,-1311.89 1432.43,-1312.8 1432.47,-1313.72 1432.41,-1314.65 1432.27,-1315.59 1432.05,-1316.53 1431.75,-1317.47 1431.37,-1318.41 1430.92,-1319.35 1430.4,-1320.28 1429.81,-1321.21 1429.16,-1322.12 1428.46,-1323.01 1427.7,-1323.89 1426.89,-1324.75 1426.04,-1325.59 1425.15,-1326.41 1424.21,-1327.2 1423.24,-1327.96 1422.24,-1328.7 1421.22,-1329.4 1420.16,-1330.06 1419.09,-1330.69 1418,-1331.29 1416.88,-1331.84 1415.76,-1332.35 1414.62,-1332.83 1413.47,-1333.25 1412.32,-1333.64 1411.15,-1333.98 1409.98,-1334.27 1408.8,-1334.51 1407.62,-1334.71 1406.44,-1334.85 1405.26,-1334.95 1404.07,-1335 1402.89,-1335 1401.7,-1334.95 1400.52,-1334.85 1399.33,-1334.71 1398.15,-1334.51 1396.98,-1334.27 1395.81,-1333.98 1394.64,-1333.64 1393.49,-1333.25 1392.34,-1332.83 1391.2,-1332.35 1390.07,-1331.84 1388.96,-1331.29 1387.87,-1330.69 1386.79,-1330.06 1385.74,-1329.4 1384.71,-1328.7 1383.72,-1327.96 1382.75,-1327.2 1381.81,-1326.41 1380.92,-1325.59 1380.06,-1324.75 1379.26,-1323.89 1378.5,-1323.01 1377.79,-1322.12 1377.15,-1321.21 1376.56,-1320.28 1376.04,-1319.35 1375.59,-1318.41 1375.21,-1317.47 1374.91,-1316.53 1374.69,-1315.59 1374.55,-1314.65 1374.49,-1313.72 1374.52,-1312.8 1374.65,-1311.89 1374.86,-1310.99 1375.17,-1310.11 1375.57,-1309.25 1376.07,-1308.41 1376.66,-1307.59 1377.35,-1306.8 1378.13,-1306.04 1379.01,-1305.31 1379.97,-1304.61 1381.02,-1303.94 1382.16,-1303.31 1383.38,-1302.72 1384.68,-1302.16 1386.05,-1301.65 1387.49,-1301.18 1388.99,-1300.75 1390.56,-1300.37 1392.17,-1300.03 1393.83,-1299.74 1395.53,-1299.49 1397.26,-1299.3 1399.02,-1299.15 1400.8,-1299.05 1402.58,-1299 1404.37,-1299 1406.16,-1299.05"/>
<text text-anchor="middle" x="1403.48" y="-1314.5" font-family="Helvetica,sans-Serif" font-size="10.00" fill="#e8e8e8">БПЛА</text>
</g>
<!-- Зенитные кодексы Аль&#45;Эфесби&#45;&#45;БПЛА -->
<g id="edge75" class="edge"><title>Зенитные кодексы Аль&#45;Эфесби&#45;&#45;БПЛА</title>
<path fill="none" stroke="#eeeeee" stroke-width="0.6" d="M1569.58,-1548C1563.48,-1521.77 1549.87,-1472.77 1526.67,-1436.8 1497.24,-1391.17 1447.39,-1349.87 1421.03,-1329.81"/>
</g>
<!-- Зенитные кодексы Аль&#45;Эфесби&#45;&#45;Макар Гетман -->
<g id="edge76" class="edge"><title>Зенитные кодексы Аль&#45;Эфесби&#45;&#45;Макар Гетман</title>
<path fill="none" stroke="#eeeeee" stroke-width="0.6" d="M1561.01,-1584.54C1539.36,-1616.26 1494.98,-1681.3 1473.54,-1712.72"/>
</g>
<!-- Зенитные кодексы Аль&#45;Эфесби&#45;&#45;Семён Левитан -->
<g id="edge77" class="edge"><title>Зенитные кодексы Аль&#45;Эфесби&#45;&#45;Семён Левитан</title>
<path fill="none" stroke="#eeeeee" stroke-width="0.6" d="M1559.5,-1548.31C1540.26,-1523.39 1505.76,-1478.72 1486.75,-1454.1"/>
</g>
<!-- Операция «Burning Bush» -->
<g id="node27" class="node"><title>Операция «Burning Bush»</title>
<polygon fill="#181818" stroke="#090909" stroke-width="0.8" points="1810.65,-1466.12 1675.65,-1466.12 1675.65,-1430.12 1810.65,-1430.12 1810.65,-1466.12"/>
<text text-anchor="middle" x="1743.15" y="-1445.62" font-family="Helvetica,sans-Serif" font-size="10.00" fill="#fefefe">Операция «Burning Bush»</text>
</g>
<!-- Операция «Burning Bush»&#45;&#45;Вавилен Татарский -->
<g id="edge78" class="edge"><title>Операция «Burning Bush»&#45;&#45;Вавилен Татарский</title>
<path fill="none" stroke="#eeeeee" stroke-width="0.6" d="M1732.41,-1429.95C1716.65,-1401.93 1688.26,-1345.95 1680.57,-1293.94 1673.24,-1244.38 1683.87,-1185.39 1690.44,-1156.13"/>
</g>
<!-- Операция «Burning Bush»&#45;&#45;генерал Шмыга -->
<g id="edge79" class="edge"><title>Операция «Burning Bush»&#45;&#45;генерал Шмыга</title>
<path fill="none" stroke="#eeeeee" stroke-width="0.6" d="M1741.99,-1429.83C1740.11,-1400.16 1736.42,-1341.89 1734.54,-1312.23"/>
</g>
<!-- Операция «Burning Bush»&#45;&#45;Дупин -->
<g id="edge80" class="edge"><title>Операция «Burning Bush»&#45;&#45;Дупин</title>
<path fill="none" stroke="#eeeeee" stroke-width="0.6" d="M1752.72,-1466.39C1766.62,-1493.97 1791.83,-1548.3 1802.09,-1597.79 1833.01,-1747.06 1792.2,-1932.68 1777.8,-1990.2"/>
</g>
<!-- Олег -->
<g id="node61" class="node"><title>Олег</title>
<ellipse fill="#2f2f2f" stroke="#ececec" stroke-width="0.6" cx="1856.08" cy="-1761.57" rx="27" ry="18"/>
<text text-anchor="middle" x="1856.08" y="-1759.07" font-family="Helvetica,sans-Serif" font-size="10.00" fill="#ececec">Олег</text>
</g>
<!-- Операция «Burning Bush»&#45;&#45;Олег -->
<g id="edge81" class="edge"><title>Операция «Burning Bush»&#45;&#45;Олег</title>
<path fill="none" stroke="#eeeeee" stroke-width="0.6" d="M1750.7,-1466.31C1762.2,-1494.22 1784.57,-1549.35 1801.77,-1596.84 1820.95,-1649.79 1841.09,-1713.28 1850.55,-1743.66"/>
</g>
<!-- Операция «Burning Bush»&#45;&#45;Семён Левитан -->
<g id="edge82" class="edge"><title>Операция «Burning Bush»&#45;&#45;Семён Левитан</title>
<path fill="none" stroke="#eeeeee" stroke-width="0.6" d="M1675.39,-1445.23C1628.71,-1443.25 1567.62,-1440.65 1524.87,-1438.83"/>
</g>
<!-- треугольное существо -->
<g id="node77" class="node"><title>треугольное существо</title>
<polygon fill="none" stroke="#e8e8e8" stroke-width="0.6" points="2113.08,-1692.45 2117.71,-1692.55 2122.3,-1692.7 2126.83,-1692.89 2131.27,-1693.14 2135.6,-1693.43 2139.82,-1693.77 2143.9,-1694.15 2147.83,-1694.58 2151.59,-1695.05 2155.17,-1695.56 2158.56,-1696.12 2161.74,-1696.71 2164.71,-1697.34 2167.46,-1698.01 2169.98,-1698.71 2172.26,-1699.44 2174.3,-1700.2 2176.1,-1700.99 2177.65,-1701.81 2178.95,-1702.65 2180,-1703.51 2180.81,-1704.39 2181.37,-1705.29 2181.69,-1706.2 2181.78,-1707.12 2181.63,-1708.05 2181.27,-1708.99 2180.69,-1709.93 2179.9,-1710.87 2178.91,-1711.82 2177.73,-1712.75 2176.37,-1713.68 2174.84,-1714.61 2173.15,-1715.52 2171.31,-1716.41 2169.33,-1717.29 2167.22,-1718.15 2164.99,-1718.99 2162.65,-1719.81 2160.21,-1720.6 2157.68,-1721.36 2155.07,-1722.1 2152.39,-1722.8 2149.64,-1723.46 2146.84,-1724.09 2143.98,-1724.69 2141.08,-1725.24 2138.14,-1725.76 2135.17,-1726.23 2132.17,-1726.65 2129.15,-1727.04 2126.11,-1727.38 2123.05,-1727.67 2119.98,-1727.91 2116.9,-1728.11 2113.81,-1728.25 2110.71,-1728.35 2107.62,-1728.4 2104.52,-1728.4 2101.42,-1728.35 2098.33,-1728.25 2095.24,-1728.11 2092.16,-1727.91 2089.09,-1727.67 2086.03,-1727.38 2082.99,-1727.04 2079.97,-1726.65 2076.97,-1726.23 2074,-1725.76 2071.06,-1725.24 2068.16,-1724.69 2065.3,-1724.09 2062.5,-1723.46 2059.75,-1722.8 2057.06,-1722.1 2054.45,-1721.36 2051.93,-1720.6 2049.49,-1719.81 2047.15,-1718.99 2044.92,-1718.15 2042.81,-1717.29 2040.83,-1716.41 2038.99,-1715.52 2037.3,-1714.61 2035.77,-1713.68 2034.41,-1712.75 2033.23,-1711.82 2032.24,-1710.87 2031.45,-1709.93 2030.87,-1708.99 2030.51,-1708.05 2030.36,-1707.12 2030.45,-1706.2 2030.77,-1705.29 2031.33,-1704.39 2032.14,-1703.51 2033.19,-1702.65 2034.49,-1701.81 2036.04,-1700.99 2037.84,-1700.2 2039.88,-1699.44 2042.16,-1698.71 2044.68,-1698.01 2047.43,-1697.34 2050.4,-1696.71 2053.58,-1696.12 2056.97,-1695.56 2060.55,-1695.05 2064.31,-1694.58 2068.24,-1694.15 2072.32,-1693.77 2076.54,-1693.43 2080.87,-1693.14 2085.31,-1692.89 2089.84,-1692.7 2094.43,-1692.55 2099.06,-1692.45 2103.73,-1692.4 2108.41,-1692.4 2113.08,-1692.45"/>
<text text-anchor="middle" x="2106.07" y="-1707.9" font-family="Helvetica,sans-Serif" font-size="10.00" fill="#e8e8e8">треугольное существо</text>
</g>
<!-- Операция «Burning Bush»&#45;&#45;треугольное существо -->
<g id="edge83" class="edge"><title>Операция «Burning Bush»&#45;&#45;треугольное существо</title>
<path fill="none" stroke="#eeeeee" stroke-width="0.6" d="M1762.84,-1466.44C1789.32,-1490.7 1838.26,-1534.32 1883.19,-1567.64 1949.81,-1617.04 2033.29,-1667.75 2076.73,-1693.37"/>
</g>
<!-- Отель хороших воплощений -->
<g id="node28" class="node"><title>Отель хороших воплощений</title>
<polygon fill="#181818" stroke="#090909" stroke-width="0.8" points="3120.56,-2155.21 2974.56,-2155.21 2974.56,-2119.21 3120.56,-2119.21 3120.56,-2155.21"/>
<text text-anchor="middle" x="3047.56" y="-2134.71" font-family="Helvetica,sans-Serif" font-size="10.00" fill="#fefefe">Отель хороших воплощений</text>
</g>
<!-- Отель хороших воплощений&#45;&#45;треугольное существо -->
<g id="edge84" class="edge"><title>Отель хороших воплощений&#45;&#45;треугольное существо</title>
<path fill="none" stroke="#eeeeee" stroke-width="0.6" d="M3007.7,-2119.14C2851.78,-2048.46 2284.57,-1791.32 2139.86,-1725.72"/>
</g>
<!-- Созерцатель тени -->
<g id="node29" class="node"><title>Созерцатель тени</title>
<polygon fill="#181818" stroke="#090909" stroke-width="0.8" points="2152.72,-1982.68 2049.72,-1982.68 2049.72,-1946.68 2152.72,-1946.68 2152.72,-1982.68"/>
<text text-anchor="middle" x="2101.22" y="-1962.18" font-family="Helvetica,sans-Serif" font-size="10.00" fill="#fefefe">Созерцатель тени</text>
</g>
<!-- Борис -->
<g id="node38" class="node"><title>Борис</title>
<ellipse fill="#2f2f2f" stroke="#ececec" stroke-width="0.6" cx="2446.63" cy="-2240.69" rx="27.1572" ry="18"/>
<text text-anchor="middle" x="2446.63" y="-2238.19" font-family="Helvetica,sans-Serif" font-size="10.00" fill="#ececec">Борис</text>
</g>
<!-- Созерцатель тени&#45;&#45;Борис -->
<g id="edge85" class="edge"><title>Созерцатель тени&#45;&#45;Борис</title>
<path fill="none" stroke="#eeeeee" stroke-width="0.6" d="M2123.89,-1982.79C2188.27,-2034.24 2371.35,-2180.53 2429.01,-2226.61"/>
</g>
<!-- Созерцатель тени&#45;&#45;Олег -->
<g id="edge86" class="edge"><title>Созерцатель тени&#45;&#45;Олег</title>
<path fill="none" stroke="#eeeeee" stroke-width="0.6" d="M2079.47,-1946.66C2031.31,-1906.75 1916.52,-1811.64 1873.11,-1775.67"/>
</g>
<!-- Созерцатель тени&#45;&#45;треугольное существо -->
<g id="edge87" class="edge"><title>Созерцатель тени&#45;&#45;треугольное существо</title>
<path fill="none" stroke="#eeeeee" stroke-width="0.6" d="M2101.57,-1946.39C2102.47,-1899.48 2104.83,-1775.26 2105.72,-1728.52"/>
</g>
<!-- Тхаги -->
<g id="node30" class="node"><title>Тхаги</title>
<polygon fill="#181818" stroke="#090909" stroke-width="0.8" points="3038.01,-2778.29 2984.01,-2778.29 2984.01,-2742.29 3038.01,-2742.29 3038.01,-2778.29"/>
<text text-anchor="middle" x="3011.01" y="-2757.79" font-family="Helvetica,sans-Serif" font-size="10.00" fill="#fefefe">Тхаги</text>
</g>
<!-- Тхаги&#45;&#45;Борис -->
<g id="edge88" class="edge"><title>Тхаги&#45;&#45;Борис</title>
<path fill="none" stroke="#eeeeee" stroke-width="0.6" d="M2991.25,-2742.11C2902.68,-2660.56 2542.96,-2329.38 2462.6,-2255.4"/>
</g>
<!-- S.N.U.F.F. -->
<g id="node31" class="node"><title>S.N.U.F.F.</title>
<polygon fill="#181818" stroke="#090909" stroke-width="0.8" points="1437.16,-1166.72 1372.16,-1166.72 1372.16,-1130.72 1437.16,-1130.72 1437.16,-1166.72"/>
<text text-anchor="middle" x="1404.66" y="-1146.22" font-family="Helvetica,sans-Serif" font-size="10.00" fill="#fefefe">S.N.U.F.F.</text>
</g>
<!-- Ацтланский календарь -->
<g id="node37" class="node"><title>Ацтланский календарь</title>
<polygon fill="none" stroke="#e8e8e8" stroke-width="0.6" points="1316.83,-796.989 1321.62,-797.088 1326.36,-797.235 1331.04,-797.431 1335.62,-797.675 1340.1,-797.966 1344.46,-798.304 1348.67,-798.688 1352.73,-799.116 1356.62,-799.587 1360.32,-800.1 1363.82,-800.654 1367.11,-801.248 1370.18,-801.879 1373.02,-802.545 1375.62,-803.246 1377.98,-803.978 1380.09,-804.741 1381.94,-805.532 1383.54,-806.348 1384.89,-807.188 1385.97,-808.049 1386.81,-808.929 1387.39,-809.826 1387.72,-810.736 1387.81,-811.658 1387.66,-812.589 1387.28,-813.527 1386.68,-814.468 1385.87,-815.411 1384.84,-816.352 1383.63,-817.29 1382.22,-818.221 1380.64,-819.143 1378.9,-820.054 1376.99,-820.95 1374.95,-821.83 1372.77,-822.692 1370.47,-823.532 1368.05,-824.348 1365.53,-825.139 1362.92,-825.901 1360.22,-826.634 1357.45,-827.334 1354.61,-828.001 1351.71,-828.632 1348.76,-829.225 1345.76,-829.779 1342.72,-830.293 1339.65,-830.764 1336.55,-831.192 1333.43,-831.575 1330.29,-831.913 1327.13,-832.204 1323.96,-832.448 1320.77,-832.644 1317.58,-832.792 1314.39,-832.89 1311.19,-832.94 1307.99,-832.94 1304.79,-832.89 1301.59,-832.792 1298.4,-832.644 1295.22,-832.448 1292.05,-832.204 1288.89,-831.913 1285.74,-831.575 1282.62,-831.192 1279.52,-830.764 1276.45,-830.293 1273.42,-829.779 1270.42,-829.225 1267.47,-828.632 1264.57,-828.001 1261.73,-827.334 1258.95,-826.634 1256.26,-825.901 1253.64,-825.139 1251.13,-824.348 1248.71,-823.532 1246.41,-822.692 1244.23,-821.83 1242.18,-820.95 1240.28,-820.054 1238.53,-819.143 1236.95,-818.221 1235.55,-817.29 1234.33,-816.352 1233.31,-815.411 1232.49,-814.468 1231.89,-813.527 1231.51,-812.589 1231.37,-811.658 1231.45,-810.736 1231.79,-809.826 1232.37,-808.929 1233.2,-808.049 1234.29,-807.188 1235.63,-806.348 1237.23,-805.532 1239.09,-804.741 1241.2,-803.978 1243.55,-803.246 1246.16,-802.545 1249,-801.879 1252.07,-801.248 1255.36,-800.654 1258.86,-800.1 1262.56,-799.587 1266.45,-799.116 1270.5,-798.688 1274.72,-798.304 1279.07,-797.966 1283.55,-797.675 1288.14,-797.431 1292.81,-797.235 1297.56,-797.088 1302.35,-796.989 1307.17,-796.94 1312,-796.94 1316.83,-796.989"/>
<text text-anchor="middle" x="1309.59" y="-812.44" font-family="Helvetica,sans-Serif" font-size="10.00" fill="#e8e8e8">Ацтланский календарь</text>
</g>
<!-- S.N.U.F.F.&#45;&#45;Ацтланский календарь -->
<g id="edge89" class="edge"><title>S.N.U.F.F.&#45;&#45;Ацтланский календарь</title>
<path fill="none" stroke="#eeeeee" stroke-width="0.6" d="M1399.41,-1130.3C1382.75,-1071.81 1331.18,-890.736 1314.7,-832.896"/>
</g>
<!-- S.N.U.F.F.&#45;&#45;БПЛА -->
<g id="edge90" class="edge"><title>S.N.U.F.F.&#45;&#45;БПЛА</title>
<path fill="none" stroke="#eeeeee" stroke-width="0.6" d="M1404.54,-1166.73C1404.31,-1199.03 1403.83,-1266.47 1403.61,-1298.87"/>
</g>
<!-- гигантская летучая мышь -->
<g id="node44" class="node"><title>гигантская летучая мышь</title>
<polygon fill="none" stroke="#e8e8e8" stroke-width="0.6" points="1436.76,-469.659 1441.97,-469.758 1447.12,-469.905 1452.2,-470.101 1457.19,-470.345 1462.05,-470.636 1466.79,-470.974 1471.37,-471.358 1475.78,-471.786 1480,-472.257 1484.02,-472.77 1487.83,-473.324 1491.41,-473.918 1494.74,-474.548 1497.83,-475.215 1500.66,-475.916 1503.22,-476.648 1505.51,-477.411 1507.53,-478.201 1509.27,-479.018 1510.73,-479.858 1511.91,-480.719 1512.81,-481.599 1513.45,-482.496 1513.81,-483.406 1513.91,-484.328 1513.74,-485.259 1513.33,-486.197 1512.68,-487.138 1511.79,-488.081 1510.68,-489.022 1509.36,-489.96 1507.83,-490.891 1506.11,-491.813 1504.22,-492.724 1502.15,-493.62 1499.93,-494.5 1497.56,-495.361 1495.06,-496.201 1492.43,-497.018 1489.69,-497.808 1486.85,-498.571 1483.92,-499.304 1480.91,-500.004 1477.82,-500.671 1474.67,-501.302 1471.46,-501.895 1468.2,-502.449 1464.9,-502.962 1461.57,-503.434 1458.2,-503.862 1454.81,-504.245 1451.39,-504.583 1447.96,-504.874 1444.51,-505.118 1441.05,-505.314 1437.58,-505.462 1434.11,-505.56 1430.63,-505.61 1427.15,-505.61 1423.67,-505.56 1420.2,-505.462 1416.73,-505.314 1413.27,-505.118 1409.83,-504.874 1406.39,-504.583 1402.98,-504.245 1399.58,-503.862 1396.21,-503.434 1392.88,-502.962 1389.58,-502.449 1386.32,-501.895 1383.11,-501.302 1379.96,-500.671 1376.87,-500.004 1373.86,-499.304 1370.93,-498.571 1368.09,-497.808 1365.35,-497.018 1362.73,-496.201 1360.22,-495.361 1357.85,-494.5 1355.63,-493.62 1353.56,-492.724 1351.67,-491.813 1349.95,-490.891 1348.42,-489.96 1347.1,-489.022 1345.99,-488.081 1345.1,-487.138 1344.45,-486.197 1344.04,-485.259 1343.88,-484.328 1343.97,-483.406 1344.34,-482.496 1344.97,-481.599 1345.87,-480.719 1347.05,-479.858 1348.51,-479.018 1350.25,-478.201 1352.27,-477.411 1354.56,-476.648 1357.12,-475.916 1359.95,-475.215 1363.04,-474.548 1366.37,-473.918 1369.95,-473.324 1373.76,-472.77 1377.78,-472.257 1382,-471.786 1386.41,-471.358 1390.99,-470.974 1395.73,-470.636 1400.6,-470.345 1405.58,-470.101 1410.66,-469.905 1415.82,-469.758 1421.02,-469.659 1426.26,-469.61 1431.52,-469.61 1436.76,-469.659"/>
<text text-anchor="middle" x="1428.89" y="-485.11" font-family="Helvetica,sans-Serif" font-size="10.00" fill="#e8e8e8">гигантская летучая мышь</text>
</g>
<!-- S.N.U.F.F.&#45;&#45;гигантская летучая мышь -->
<g id="edge91" class="edge"><title>S.N.U.F.F.&#45;&#45;гигантская летучая мышь</title>
<path fill="none" stroke="#eeeeee" stroke-width="0.6" d="M1405.32,-1130.69C1408.78,-1036.33 1424.77,-599.948 1428.23,-505.619"/>
</g>
<!-- Еврайх -->
<g id="node47" class="node"><title>Еврайх</title>
<polygon fill="none" stroke="#e8e8e8" stroke-width="0.6" points="1240.41,-1012.65 1242.36,-1012.75 1244.3,-1012.9 1246.21,-1013.09 1248.08,-1013.34 1249.91,-1013.63 1251.69,-1013.97 1253.41,-1014.35 1255.07,-1014.78 1256.65,-1015.25 1258.17,-1015.76 1259.6,-1016.32 1260.94,-1016.91 1262.19,-1017.54 1263.35,-1018.21 1264.42,-1018.91 1265.38,-1019.64 1266.24,-1020.4 1267,-1021.19 1267.65,-1022.01 1268.2,-1022.85 1268.64,-1023.71 1268.98,-1024.59 1269.22,-1025.49 1269.36,-1026.4 1269.39,-1027.32 1269.33,-1028.25 1269.18,-1029.19 1268.93,-1030.13 1268.6,-1031.07 1268.18,-1032.02 1267.68,-1032.95 1267.11,-1033.88 1266.47,-1034.81 1265.75,-1035.72 1264.98,-1036.61 1264.14,-1037.49 1263.25,-1038.35 1262.31,-1039.19 1261.32,-1040.01 1260.29,-1040.8 1259.23,-1041.56 1258.13,-1042.3 1256.99,-1043 1255.83,-1043.66 1254.65,-1044.29 1253.45,-1044.89 1252.22,-1045.44 1250.98,-1045.96 1249.73,-1046.43 1248.46,-1046.85 1247.19,-1047.24 1245.9,-1047.58 1244.61,-1047.87 1243.32,-1048.11 1242.02,-1048.31 1240.71,-1048.45 1239.41,-1048.55 1238.1,-1048.6 1236.8,-1048.6 1235.49,-1048.55 1234.18,-1048.45 1232.88,-1048.31 1231.58,-1048.11 1230.29,-1047.87 1229,-1047.58 1227.71,-1047.24 1226.44,-1046.85 1225.17,-1046.43 1223.92,-1045.96 1222.68,-1045.44 1221.45,-1044.89 1220.25,-1044.29 1219.07,-1043.66 1217.91,-1043 1216.77,-1042.3 1215.67,-1041.56 1214.61,-1040.8 1213.58,-1040.01 1212.59,-1039.19 1211.65,-1038.35 1210.76,-1037.49 1209.92,-1036.61 1209.15,-1035.72 1208.43,-1034.81 1207.79,-1033.88 1207.22,-1032.95 1206.72,-1032.02 1206.3,-1031.07 1205.97,-1030.13 1205.72,-1029.19 1205.57,-1028.25 1205.51,-1027.32 1205.54,-1026.4 1205.68,-1025.49 1205.92,-1024.59 1206.26,-1023.71 1206.7,-1022.85 1207.25,-1022.01 1207.9,-1021.19 1208.66,-1020.4 1209.52,-1019.64 1210.48,-1018.91 1211.55,-1018.21 1212.71,-1017.54 1213.96,-1016.91 1215.3,-1016.32 1216.73,-1015.76 1218.25,-1015.25 1219.83,-1014.78 1221.49,-1014.35 1223.21,-1013.97 1224.99,-1013.63 1226.82,-1013.34 1228.69,-1013.09 1230.6,-1012.9 1232.54,-1012.75 1234.49,-1012.65 1236.46,-1012.6 1238.44,-1012.6 1240.41,-1012.65"/>
<text text-anchor="middle" x="1237.45" y="-1028.1" font-family="Helvetica,sans-Serif" font-size="10.00" fill="#e8e8e8">Еврайх</text>
</g>
<!-- S.N.U.F.F.&#45;&#45;Еврайх -->
<g id="edge92" class="edge"><title>S.N.U.F.F.&#45;&#45;Еврайх</title>
<path fill="none" stroke="#eeeeee" stroke-width="0.6" d="M1378.9,-1130.52C1345.01,-1106.58 1286.23,-1065.06 1256.23,-1043.87"/>
</g>
<!-- S.N.U.F.F.&#45;&#45;Семён Левитан -->
<g id="edge93" class="edge"><title>S.N.U.F.F.&#45;&#45;Семён Левитан</title>
<path fill="none" stroke="#eeeeee" stroke-width="0.6" d="M1408.95,-1166.73C1421.27,-1218.44 1456.66,-1366.93 1468.97,-1418.63"/>
</g>
<!-- суры -->
<g id="node75" class="node"><title>суры</title>
<polygon fill="none" stroke="#e8e8e8" stroke-width="0.6" points="1061.04,-541.339 1062.82,-541.437 1064.57,-541.585 1066.31,-541.781 1068.01,-542.025 1069.67,-542.316 1071.28,-542.654 1072.84,-543.037 1074.35,-543.465 1075.79,-543.937 1077.16,-544.45 1078.46,-545.004 1079.67,-545.597 1080.81,-546.228 1081.87,-546.895 1082.83,-547.595 1083.7,-548.328 1084.48,-549.091 1085.17,-549.881 1085.77,-550.698 1086.26,-551.538 1086.67,-552.399 1086.97,-553.279 1087.19,-554.175 1087.31,-555.086 1087.35,-556.008 1087.29,-556.939 1087.15,-557.877 1086.93,-558.818 1086.63,-559.761 1086.25,-560.702 1085.8,-561.64 1085.28,-562.571 1084.69,-563.493 1084.04,-564.404 1083.34,-565.3 1082.58,-566.18 1081.77,-567.041 1080.92,-567.881 1080.02,-568.698 1079.09,-569.488 1078.12,-570.251 1077.12,-570.984 1076.09,-571.684 1075.04,-572.351 1073.97,-572.981 1072.87,-573.575 1071.76,-574.129 1070.64,-574.642 1069.5,-575.114 1068.35,-575.542 1067.19,-575.925 1066.03,-576.263 1064.86,-576.554 1063.68,-576.798 1062.5,-576.994 1061.32,-577.142 1060.14,-577.24 1058.95,-577.289 1057.76,-577.289 1056.58,-577.24 1055.39,-577.142 1054.21,-576.994 1053.03,-576.798 1051.86,-576.554 1050.69,-576.263 1049.52,-575.925 1048.36,-575.542 1047.22,-575.114 1046.08,-574.642 1044.95,-574.129 1043.84,-573.575 1042.75,-572.981 1041.67,-572.351 1040.62,-571.684 1039.59,-570.984 1038.59,-570.251 1037.63,-569.488 1036.69,-568.698 1035.8,-567.881 1034.94,-567.041 1034.14,-566.18 1033.38,-565.3 1032.67,-564.404 1032.03,-563.493 1031.44,-562.571 1030.92,-561.64 1030.47,-560.702 1030.09,-559.761 1029.79,-558.818 1029.56,-557.877 1029.42,-556.939 1029.37,-556.008 1029.4,-555.086 1029.53,-554.175 1029.74,-553.279 1030.05,-552.399 1030.45,-551.538 1030.95,-550.698 1031.54,-549.881 1032.23,-549.091 1033.01,-548.328 1033.89,-547.595 1034.85,-546.895 1035.9,-546.228 1037.04,-545.597 1038.26,-545.004 1039.56,-544.45 1040.93,-543.937 1042.37,-543.465 1043.87,-543.037 1045.44,-542.654 1047.05,-542.316 1048.71,-542.025 1050.41,-541.781 1052.14,-541.585 1053.9,-541.437 1055.68,-541.339 1057.46,-541.289 1059.25,-541.289 1061.04,-541.339"/>
<text text-anchor="middle" x="1058.36" y="-556.789" font-family="Helvetica,sans-Serif" font-size="10.00" fill="#e8e8e8">суры</text>
</g>
<!-- S.N.U.F.F.&#45;&#45;суры -->
<g id="edge94" class="edge"><title>S.N.U.F.F.&#45;&#45;суры</title>
<path fill="none" stroke="#eeeeee" stroke-width="0.6" d="M1393.92,-1130.43C1342.03,-1042.12 1117.84,-660.534 1068.14,-575.94"/>
</g>
<!-- Бэтман Аполло -->
<g id="node32" class="node"><title>Бэтман Аполло</title>
<polygon fill="#181818" stroke="#090909" stroke-width="0.8" points="1620.02,-800.871 1534.02,-800.871 1534.02,-764.871 1620.02,-764.871 1620.02,-800.871"/>
<text text-anchor="middle" x="1577.02" y="-780.371" font-family="Helvetica,sans-Serif" font-size="10.00" fill="#fefefe">Бэтман Аполло</text>
</g>
<!-- American Dream -->
<g id="node34" class="node"><title>American Dream</title>
<polygon fill="none" stroke="#e8e8e8" stroke-width="0.1" points="1603.03,-0.522828 1606.48,-0.621367 1609.9,-0.768836 1613.26,-0.964833 1616.57,-1.20882 1619.79,-1.50013 1622.93,-1.83796 1625.97,-2.22139 1628.89,-2.64936 1631.69,-3.12071 1634.35,-3.63414 1636.88,-4.18824 1639.25,-4.78149 1641.46,-5.41228 1643.5,-6.07886 1645.38,-6.77942 1647.08,-7.51203 1648.59,-8.27468 1649.93,-9.06529 1651.08,-9.88169 1652.05,-10.7216 1652.83,-11.5828 1653.43,-12.4629 1653.85,-13.3595 1654.09,-14.27 1654.16,-15.1921 1654.05,-16.1232 1653.78,-17.0607 1653.34,-18.0021 1652.76,-18.9448 1652.02,-19.8862 1651.14,-20.8238 1650.13,-21.7549 1648.99,-22.6769 1647.74,-23.5875 1646.37,-24.4841 1644.89,-25.3642 1643.32,-26.2253 1641.66,-27.0653 1639.92,-27.8817 1638.11,-28.6723 1636.23,-29.435 1634.28,-30.1676 1632.29,-30.8681 1630.24,-31.5347 1628.15,-32.1655 1626.03,-32.7587 1623.87,-33.3128 1621.68,-33.8263 1619.47,-34.2976 1617.24,-34.7256 1614.99,-35.109 1612.73,-35.4469 1610.45,-35.7382 1608.17,-35.9821 1605.87,-36.1781 1603.58,-36.3256 1601.27,-36.4242 1598.97,-36.4735 1596.66,-36.4735 1594.36,-36.4242 1592.06,-36.3256 1589.76,-36.1781 1587.47,-35.9821 1585.18,-35.7382 1582.91,-35.4469 1580.64,-35.109 1578.39,-34.7256 1576.16,-34.2976 1573.95,-33.8263 1571.76,-33.3128 1569.6,-32.7587 1567.48,-32.1655 1565.39,-31.5347 1563.34,-30.8681 1561.35,-30.1676 1559.41,-29.435 1557.52,-28.6723 1555.71,-27.8817 1553.97,-27.0653 1552.31,-26.2253 1550.74,-25.3642 1549.27,-24.4841 1547.9,-23.5875 1546.64,-22.6769 1545.5,-21.7549 1544.49,-20.8238 1543.61,-19.8862 1542.88,-18.9448 1542.29,-18.0021 1541.86,-17.0607 1541.58,-16.1232 1541.48,-15.1921 1541.54,-14.27 1541.78,-13.3595 1542.2,-12.4629 1542.8,-11.5828 1543.58,-10.7216 1544.55,-9.88169 1545.7,-9.06529 1547.04,-8.27468 1548.56,-7.51203 1550.26,-6.77942 1552.13,-6.07886 1554.18,-5.41228 1556.39,-4.78149 1558.76,-4.18824 1561.28,-3.63414 1563.94,-3.12071 1566.74,-2.64936 1569.67,-2.22139 1572.7,-1.83796 1575.84,-1.50013 1579.07,-1.20882 1582.37,-0.964833 1585.73,-0.768836 1589.15,-0.621367 1592.6,-0.522828 1596.08,-0.473492 1599.56,-0.473492 1603.03,-0.522828"/>
<text text-anchor="middle" x="1597.82" y="-15.9735" font-family="Helvetica,sans-Serif" font-size="10.00" fill="#e8e8e8">American Dream</text>
</g>
<!-- Бэтман Аполло&#45;&#45;American Dream -->
<g id="edge95" class="edge"><title>Бэтман Аполло&#45;&#45;American Dream</title>
<path fill="none" stroke="#555555" stroke-width="0.6" d="M1577.52,-764.729C1580.35,-660.73 1594.48,-141.234 1597.32,-36.7844"/>
</g>
<!-- Бэтман Аполло&#45;&#45;Ацтланский календарь -->
<g id="edge96" class="edge"><title>Бэтман Аполло&#45;&#45;Ацтланский календарь</title>
<path fill="none" stroke="#eeeeee" stroke-width="0.6" d="M1533.76,-788.059C1493.18,-792.925 1431.68,-800.3 1383.35,-806.095"/>
</g>
<!-- Бэтман Аполло&#45;&#45;гигантская летучая мышь -->
<g id="edge97" class="edge"><title>Бэтман Аполло&#45;&#45;гигантская летучая мышь</title>
<path fill="none" stroke="#eeeeee" stroke-width="0.6" d="M1567.98,-764.845C1541.53,-712.133 1464.54,-558.663 1438,-505.774"/>
</g>
<!-- Бэтман Аполло&#45;&#45;клуб «Haute SOS» -->
<g id="edge98" class="edge"><title>Бэтман Аполло&#45;&#45;клуб «Haute SOS»</title>
<path fill="none" stroke="#eeeeee" stroke-width="0.6" d="M1598.84,-764.677C1643.37,-727.506 1747.87,-640.092 1834.91,-565.848 2054.65,-378.398 2318.86,-148.134 2391.55,-84.6957"/>
</g>
<!-- Бэтман Аполло&#45;&#45;Михаил Ботвинник -->
<g id="edge99" class="edge"><title>Бэтман Аполло&#45;&#45;Михаил Ботвинник</title>
<path fill="none" stroke="#eeeeee" stroke-width="0.6" d="M1585.6,-764.711C1605.85,-722.085 1658.61,-612.494 1707.51,-523.448 1801.95,-351.454 1927.83,-150.003 1965.73,-89.8875"/>
</g>
<!-- Бэтман Аполло&#45;&#45;Михаил Непойман -->
<g id="edge100" class="edge"><title>Бэтман Аполло&#45;&#45;Михаил Непойман</title>
<path fill="none" stroke="#eeeeee" stroke-width="0.6" d="M1571.58,-801.005C1558.39,-844.954 1524.85,-956.766 1511.64,-1000.78"/>
</g>
<!-- Бэтман Аполло&#45;&#45;Рама -->
<g id="edge101" class="edge"><title>Бэтман Аполло&#45;&#45;Рама</title>
<path fill="none" stroke="#eeeeee" stroke-width="0.6" d="M1620.15,-767.878C1726.34,-730.96 1997.79,-636.588 2080.02,-607.998"/>
</g>
<!-- Бэтман Аполло&#45;&#45;халдеи -->
<g id="edge102" class="edge"><title>Бэтман Аполло&#45;&#45;халдеи</title>
<path fill="none" stroke="#eeeeee" stroke-width="0.6" d="M1590.76,-800.97C1616.11,-834.382 1669.93,-905.308 1694.69,-937.948"/>
</g>
<!-- Любовь к трём цукербринам -->
<g id="node33" class="node"><title>Любовь к трём цукербринам</title>
<polygon fill="#181818" stroke="#090909" stroke-width="0.8" points="1259.26,-55.9035 1109.26,-55.9035 1109.26,-19.9035 1259.26,-19.9035 1259.26,-55.9035"/>
<text text-anchor="middle" x="1184.26" y="-35.4035" font-family="Helvetica,sans-Serif" font-size="10.00" fill="#fefefe">Любовь к трём цукербринам</text>
</g>
<!-- Любовь к трём цукербринам&#45;&#45;American Dream -->
<g id="edge103" class="edge"><title>Любовь к трём цукербринам&#45;&#45;American Dream</title>
<path fill="none" stroke="#555555" stroke-width="0.6" d="M1259.63,-34.3623C1342.11,-30.4875 1472.2,-24.3753 1544.64,-20.9719"/>
</g>
<!-- Любовь к трём цукербринам&#45;&#45;Еврайх -->
<g id="edge104" class="edge"><title>Любовь к трём цукербринам&#45;&#45;Еврайх</title>
<path fill="none" stroke="#eeeeee" stroke-width="0.6" d="M1185.23,-55.981C1191.81,-178.831 1229.91,-889.903 1236.48,-1012.58"/>
</g>
<!-- Любовь к трём цукербринам&#45;&#45;суры -->
<g id="edge105" class="edge"><title>Любовь к трём цукербринам&#45;&#45;суры</title>
<path fill="none" stroke="#eeeeee" stroke-width="0.6" d="M1179.86,-56.1541C1160.38,-136.81 1082.13,-460.829 1062.73,-541.187"/>
</g>
</g>
</svg>
