<?xml version="1.0" encoding="UTF-8" standalone="no"?>
<!DOCTYPE svg PUBLIC "-//W3C//DTD SVG 1.1//EN"
 "http://www.w3.org/Graphics/SVG/1.1/DTD/svg11.dtd">
<!-- Generated by graphviz version 2.36.0 (20140111.2315)
 -->
<!-- Title: %3 Pages: 1 -->
<svg width="1514pt" height="1745pt"
 viewBox="0.00 0.00 1514.07 1745.20" xmlns="http://www.w3.org/2000/svg" xmlns:xlink="http://www.w3.org/1999/xlink">
<g id="graph0" class="graph" transform="scale(1 1) rotate(0) translate(4 1741.2)">
<title>%3</title>
<polygon fill="#1f1f1f" stroke="none" points="-4,4 -4,-1741.2 1510.07,-1741.2 1510.07,4 -4,4"/>
<!-- Оружие возмездия -->
<g id="node1" class="node"><title>Оружие возмездия</title>
<polygon fill="#181818" stroke="#090909" stroke-width="0.8" points="225.245,-47.0902 118.245,-47.0902 118.245,-11.0902 225.245,-11.0902 225.245,-47.0902"/>
<text text-anchor="middle" x="171.745" y="-26.5902" font-family="Helvetica,sans-Serif" font-size="10.00" fill="#fefefe">Оружие возмездия</text>
</g>
<!-- П. Стецюк -->
<g id="node60" class="node"><title>П. Стецюк</title>
<ellipse fill="#2f2f2f" stroke="#ececec" stroke-width="0.6" cx="597.904" cy="-18" rx="39.3809" ry="18"/>
<text text-anchor="middle" x="597.904" y="-15.5" font-family="Helvetica,sans-Serif" font-size="10.00" fill="#ececec">П. Стецюк</text>
</g>
<!-- Оружие возмездия&#45;&#45;П. Стецюк -->
<g id="edge1" class="edge"><title>Оружие возмездия&#45;&#45;П. Стецюк</title>
<path fill="none" stroke="#eeeeee" stroke-width="0.6" d="M225.287,-27.6969C312.136,-25.4367 481.723,-21.0235 558.482,-19.0259"/>
</g>
<!-- Реконструктор -->
<g id="node2" class="node"><title>Реконструктор</title>
<polygon fill="#181818" stroke="#090909" stroke-width="0.8" points="490.429,-228.531 402.429,-228.531 402.429,-192.531 490.429,-192.531 490.429,-228.531"/>
<text text-anchor="middle" x="446.429" y="-208.031" font-family="Helvetica,sans-Serif" font-size="10.00" fill="#fefefe">Реконструктор</text>
</g>
<!-- Реконструктор&#45;&#45;П. Стецюк -->
<g id="edge2" class="edge"><title>Реконструктор&#45;&#45;П. Стецюк</title>
<path fill="none" stroke="#eeeeee" stroke-width="0.6" d="M460.679,-192.418C489.844,-155.349 555.983,-71.2832 584.455,-35.0938"/>
</g>
<!-- Сероб Налбандян -->
<g id="node70" class="node"><title>Сероб Налбандян</title>
<ellipse fill="#2f2f2f" stroke="#ececec" stroke-width="0.6" cx="808.966" cy="-214.156" rx="58.0561" ry="18"/>
<text text-anchor="middle" x="808.966" y="-211.656" font-family="Helvetica,sans-Serif" font-size="10.00" fill="#ececec">Сероб Налбандян</text>
</g>
<!-- Реконструктор&#45;&#45;Сероб Налбандян -->
<g id="edge3" class="edge"><title>Реконструктор&#45;&#45;Сероб Налбандян</title>
<path fill="none" stroke="#eeeeee" stroke-width="0.6" d="M490.521,-210.972C555.718,-211.624 677.932,-212.846 750.525,-213.572"/>
</g>
<!-- День бульдозериста -->
<g id="node3" class="node"><title>День бульдозериста</title>
<polygon fill="#181818" stroke="#090909" stroke-width="0.8" points="114,-1177.85 0,-1177.85 0,-1141.85 114,-1141.85 114,-1177.85"/>
<text text-anchor="middle" x="57" y="-1157.35" font-family="Helvetica,sans-Serif" font-size="10.00" fill="#fefefe">День бульдозериста</text>
</g>
<!-- Померанцев (Константин Победоносцев) -->
<g id="node63" class="node"><title>Померанцев (Константин Победоносцев)</title>
<ellipse fill="#2f2f2f" stroke="#ececec" stroke-width="0.6" cx="230.98" cy="-1044.15" rx="121.707" ry="18"/>
<text text-anchor="middle" x="230.98" y="-1041.65" font-family="Helvetica,sans-Serif" font-size="10.00" fill="#ececec">Померанцев (Константин Победоносцев)</text>
</g>
<!-- День бульдозериста&#45;&#45;Померанцев (Константин Победоносцев) -->
<g id="edge4" class="edge"><title>День бульдозериста&#45;&#45;Померанцев (Константин Победоносцев)</title>
<path fill="none" stroke="#eeeeee" stroke-width="0.6" d="M84.1844,-1141.78C117.061,-1119.91 172.025,-1083.36 204.556,-1061.73"/>
</g>
<!-- товарищ Бабаясин -->
<g id="node73" class="node"><title>товарищ Бабаясин</title>
<ellipse fill="#2f2f2f" stroke="#ececec" stroke-width="0.6" cx="65.7273" cy="-1410.65" rx="61.4427" ry="18"/>
<text text-anchor="middle" x="65.7273" y="-1408.15" font-family="Helvetica,sans-Serif" font-size="10.00" fill="#ececec">товарищ Бабаясин</text>
</g>
<!-- День бульдозериста&#45;&#45;товарищ Бабаясин -->
<g id="edge5" class="edge"><title>День бульдозериста&#45;&#45;товарищ Бабаясин</title>
<path fill="none" stroke="#eeeeee" stroke-width="0.6" d="M57.6276,-1177.89C59.234,-1224.05 63.4807,-1346.09 65.0937,-1392.44"/>
</g>
<!-- Миттельшпиль -->
<g id="node4" class="node"><title>Миттельшпиль</title>
<polygon fill="#181818" stroke="#090909" stroke-width="0.8" points="98.8249,-953.754 12.8249,-953.754 12.8249,-917.754 98.8249,-917.754 98.8249,-953.754"/>
<text text-anchor="middle" x="55.8249" y="-933.254" font-family="Helvetica,sans-Serif" font-size="10.00" fill="#fefefe">Миттельшпиль</text>
</g>
<!-- Нелли -->
<g id="node58" class="node"><title>Нелли</title>
<ellipse fill="#2f2f2f" stroke="#ececec" stroke-width="0.6" cx="239.866" cy="-847.15" rx="27.1572" ry="18"/>
<text text-anchor="middle" x="239.866" y="-844.65" font-family="Helvetica,sans-Serif" font-size="10.00" fill="#ececec">Нелли</text>
</g>
<!-- Миттельшпиль&#45;&#45;Нелли -->
<g id="edge6" class="edge"><title>Миттельшпиль&#45;&#45;Нелли</title>
<path fill="none" stroke="#eeeeee" stroke-width="0.6" d="M93.5125,-917.61C130.951,-899.586 187.082,-872.562 217.812,-857.768"/>
</g>
<!-- Музыка со столба -->
<g id="node5" class="node"><title>Музыка со столба</title>
<polygon fill="#181818" stroke="#090909" stroke-width="0.8" points="1432.94,-63.2606 1331.94,-63.2606 1331.94,-27.2606 1432.94,-27.2606 1432.94,-63.2606"/>
<text text-anchor="middle" x="1382.44" y="-42.7606" font-family="Helvetica,sans-Serif" font-size="10.00" fill="#fefefe">Музыка со столба</text>
</g>
<!-- Матвей (Гиммлер) -->
<g id="node52" class="node"><title>Матвей (Гиммлер)</title>
<ellipse fill="#2f2f2f" stroke="#ececec" stroke-width="0.6" cx="995.951" cy="-23.9307" rx="59.4099" ry="18"/>
<text text-anchor="middle" x="995.951" y="-21.4307" font-family="Helvetica,sans-Serif" font-size="10.00" fill="#ececec">Матвей (Гиммлер)</text>
</g>
<!-- Музыка со столба&#45;&#45;Матвей (Гиммлер) -->
<g id="edge7" class="edge"><title>Музыка со столба&#45;&#45;Матвей (Гиммлер)</title>
<path fill="none" stroke="#eeeeee" stroke-width="0.6" d="M1331.92,-42.4721C1260.5,-38.531 1130.35,-31.3478 1054.71,-27.1735"/>
</g>
<!-- Откровение Крегера -->
<g id="node6" class="node"><title>Откровение Крегера</title>
<polygon fill="#181818" stroke="#090909" stroke-width="0.8" points="1201.55,-272.342 1086.55,-272.342 1086.55,-236.342 1201.55,-236.342 1201.55,-272.342"/>
<text text-anchor="middle" x="1144.05" y="-251.842" font-family="Helvetica,sans-Serif" font-size="10.00" fill="#fefefe">Откровение Крегера</text>
</g>
<!-- Откровение Крегера&#45;&#45;Матвей (Гиммлер) -->
<g id="edge8" class="edge"><title>Откровение Крегера&#45;&#45;Матвей (Гиммлер)</title>
<path fill="none" stroke="#eeeeee" stroke-width="0.6" d="M1132.43,-236.262C1104.68,-193.084 1034.81,-84.3799 1007.31,-41.6102"/>
</g>
<!-- Откровение Крегера&#45;&#45;Сероб Налбандян -->
<g id="edge9" class="edge"><title>Откровение Крегера&#45;&#45;Сероб Налбандян</title>
<path fill="none" stroke="#eeeeee" stroke-width="0.6" d="M1086.45,-247.434C1023.86,-239.927 924.612,-228.025 863.324,-220.675"/>
</g>
<!-- Принц Госплана -->
<g id="node7" class="node"><title>Принц Госплана</title>
<polygon fill="#181818" stroke="#090909" stroke-width="0.8" points="127.723,-533.911 34.7234,-533.911 34.7234,-497.911 127.723,-497.911 127.723,-533.911"/>
<text text-anchor="middle" x="81.2234" y="-513.411" font-family="Helvetica,sans-Serif" font-size="10.00" fill="#fefefe">Принц Госплана</text>
</g>
<!-- Саша Лапин -->
<g id="node68" class="node"><title>Саша Лапин</title>
<ellipse fill="#2f2f2f" stroke="#ececec" stroke-width="0.6" cx="299.541" cy="-610.023" rx="42.9448" ry="18"/>
<text text-anchor="middle" x="299.541" y="-607.523" font-family="Helvetica,sans-Serif" font-size="10.00" fill="#ececec">Саша Лапин</text>
</g>
<!-- Принц Госплана&#45;&#45;Саша Лапин -->
<g id="edge10" class="edge"><title>Принц Госплана&#45;&#45;Саша Лапин</title>
<path fill="none" stroke="#eeeeee" stroke-width="0.6" d="M123.059,-533.945C165.898,-552.412 231.434,-580.663 269.426,-597.041"/>
</g>
<!-- Проблема верволка в средней полосе -->
<g id="node8" class="node"><title>Проблема верволка в средней полосе</title>
<polygon fill="#181818" stroke="#090909" stroke-width="0.8" points="193.372,-287.96 0.372057,-287.96 0.372057,-251.96 193.372,-251.96 193.372,-287.96"/>
<text text-anchor="middle" x="96.8721" y="-267.46" font-family="Helvetica,sans-Serif" font-size="10.00" fill="#fefefe">Проблема верволка в средней полосе</text>
</g>
<!-- Проблема верволка в средней полосе&#45;&#45;Саша Лапин -->
<g id="edge11" class="edge"><title>Проблема верволка в средней полосе&#45;&#45;Саша Лапин</title>
<path fill="none" stroke="#eeeeee" stroke-width="0.6" d="M107.768,-288.243C143.123,-347.565 254.358,-534.208 289.081,-592.471"/>
</g>
<!-- Омон Ра -->
<g id="node9" class="node"><title>Омон Ра</title>
<polygon fill="#181818" stroke="#090909" stroke-width="0.8" points="701.827,-404.63 645.827,-404.63 645.827,-368.63 701.827,-368.63 701.827,-404.63"/>
<text text-anchor="middle" x="673.827" y="-384.13" font-family="Helvetica,sans-Serif" font-size="10.00" fill="#fefefe">Омон Ра</text>
</g>
<!-- Бункер под Лубянкой -->
<g id="node38" class="node"><title>Бункер под Лубянкой</title>
<polygon fill="none" stroke="#e8e8e8" stroke-width="0.6" points="529.329,-484.944 533.813,-485.042 538.251,-485.19 542.625,-485.386 546.916,-485.63 551.108,-485.921 555.183,-486.259 559.127,-486.642 562.925,-487.07 566.561,-487.542 570.023,-488.055 573.299,-488.609 576.379,-489.202 579.251,-489.833 581.908,-490.5 584.343,-491.2 586.549,-491.933 588.522,-492.695 590.258,-493.486 591.756,-494.302 593.013,-495.142 594.03,-496.004 594.81,-496.884 595.353,-497.78 595.665,-498.691 595.748,-499.613 595.61,-500.544 595.256,-501.482 594.693,-502.423 593.93,-503.366 592.974,-504.307 591.834,-505.245 590.52,-506.176 589.041,-507.098 587.407,-508.008 585.628,-508.905 583.714,-509.785 581.675,-510.646 579.52,-511.486 577.259,-512.302 574.902,-513.093 572.457,-513.856 569.933,-514.588 567.339,-515.289 564.681,-515.956 561.968,-516.586 559.207,-517.18 556.402,-517.734 553.561,-518.247 550.689,-518.718 547.789,-519.146 544.867,-519.53 541.926,-519.868 538.97,-520.159 536.001,-520.403 533.023,-520.599 530.037,-520.746 527.047,-520.845 524.053,-520.894 521.059,-520.894 518.065,-520.845 515.075,-520.746 512.089,-520.599 509.111,-520.403 506.142,-520.159 503.186,-519.868 500.245,-519.53 497.323,-519.146 494.424,-518.718 491.551,-518.247 488.71,-517.734 485.905,-517.18 483.144,-516.586 480.431,-515.956 477.774,-515.289 475.179,-514.588 472.655,-513.856 470.211,-513.093 467.853,-512.302 465.593,-511.486 463.438,-510.646 461.398,-509.785 459.484,-508.905 457.705,-508.008 456.071,-507.098 454.592,-506.176 453.278,-505.245 452.138,-504.307 451.182,-503.366 450.419,-502.423 449.856,-501.482 449.502,-500.544 449.364,-499.613 449.448,-498.691 449.759,-497.78 450.302,-496.884 451.082,-496.004 452.099,-495.142 453.357,-494.302 454.854,-493.486 456.59,-492.695 458.563,-491.933 460.769,-491.2 463.204,-490.5 465.861,-489.833 468.734,-489.202 471.813,-488.609 475.089,-488.055 478.551,-487.542 482.188,-487.07 485.985,-486.642 489.929,-486.259 494.005,-485.921 498.196,-485.63 502.488,-485.386 506.861,-485.19 511.299,-485.042 515.783,-484.944 520.295,-484.894 524.817,-484.894 529.329,-484.944"/>
<text text-anchor="middle" x="522.556" y="-500.394" font-family="Helvetica,sans-Serif" font-size="10.00" fill="#e8e8e8">Бункер под Лубянкой</text>
</g>
<!-- Омон Ра&#45;&#45;Бункер под Лубянкой -->
<g id="edge12" class="edge"><title>Омон Ра&#45;&#45;Бункер под Лубянкой</title>
<path fill="none" stroke="#eeeeee" stroke-width="0.6" d="M650.191,-404.797C621.606,-426.766 573.816,-463.497 545.531,-485.236"/>
</g>
<!-- Омон Ра&#45;&#45;Сероб Налбандян -->
<g id="edge13" class="edge"><title>Омон Ра&#45;&#45;Сероб Налбандян</title>
<path fill="none" stroke="#eeeeee" stroke-width="0.6" d="M688.034,-368.499C714.124,-335.201 769.356,-264.709 795.152,-231.788"/>
</g>
<!-- Чапаев и Пустота -->
<g id="node10" class="node"><title>Чапаев и Пустота</title>
<polygon fill="#181818" stroke="#090909" stroke-width="0.8" points="471.262,-1327.1 370.262,-1327.1 370.262,-1291.1 471.262,-1291.1 471.262,-1327.1"/>
<text text-anchor="middle" x="420.762" y="-1306.6" font-family="Helvetica,sans-Serif" font-size="10.00" fill="#fefefe">Чапаев и Пустота</text>
</g>
<!-- Вовчик Малой -->
<g id="node40" class="node"><title>Вовчик Малой</title>
<ellipse fill="#2f2f2f" stroke="#ececec" stroke-width="0.6" cx="557.453" cy="-1054.45" rx="48.7185" ry="18"/>
<text text-anchor="middle" x="557.453" y="-1051.95" font-family="Helvetica,sans-Serif" font-size="10.00" fill="#ececec">Вовчик Малой</text>
</g>
<!-- Чапаев и Пустота&#45;&#45;Вовчик Малой -->
<g id="edge14" class="edge"><title>Чапаев и Пустота&#45;&#45;Вовчик Малой</title>
<path fill="none" stroke="#eeeeee" stroke-width="0.6" d="M424.379,-1290.83C430.034,-1264.64 442.429,-1215.37 462.343,-1177.32 483.983,-1135.97 519.81,-1094.4 540.767,-1071.78"/>
</g>
<!-- граф Т. -->
<g id="node43" class="node"><title>граф Т.</title>
<ellipse fill="#2f2f2f" stroke="#ececec" stroke-width="0.6" cx="484.581" cy="-1508.53" rx="31.3996" ry="18"/>
<text text-anchor="middle" x="484.581" y="-1506.03" font-family="Helvetica,sans-Serif" font-size="10.00" fill="#ececec">граф Т.</text>
</g>
<!-- Чапаев и Пустота&#45;&#45;граф Т. -->
<g id="edge15" class="edge"><title>Чапаев и Пустота&#45;&#45;граф Т.</title>
<path fill="none" stroke="#eeeeee" stroke-width="0.6" d="M426.538,-1327.15C438.688,-1365.12 466.765,-1452.86 478.864,-1490.67"/>
</g>
<!-- лама Джамбон Тулку -->
<g id="node47" class="node"><title>лама Джамбон Тулку</title>
<ellipse fill="#2f2f2f" stroke="#ececec" stroke-width="0.6" cx="531.638" cy="-1177.43" rx="67.893" ry="18"/>
<text text-anchor="middle" x="531.638" y="-1174.93" font-family="Helvetica,sans-Serif" font-size="10.00" fill="#ececec">лама Джамбон Тулку</text>
</g>
<!-- Чапаев и Пустота&#45;&#45;лама Джамбон Тулку -->
<g id="edge16" class="edge"><title>Чапаев и Пустота&#45;&#45;лама Джамбон Тулку</title>
<path fill="none" stroke="#eeeeee" stroke-width="0.6" d="M435.946,-1291.07C457.179,-1265.85 495.503,-1220.34 516.637,-1195.24"/>
</g>
<!-- Петр Пустота -->
<g id="node62" class="node"><title>Петр Пустота</title>
<ellipse fill="#2f2f2f" stroke="#ececec" stroke-width="0.6" cx="276.57" cy="-1481.5" rx="48.7185" ry="18"/>
<text text-anchor="middle" x="276.57" y="-1479" font-family="Helvetica,sans-Serif" font-size="10.00" fill="#ececec">Петр Пустота</text>
</g>
<!-- Чапаев и Пустота&#45;&#45;Петр Пустота -->
<g id="edge17" class="edge"><title>Чапаев и Пустота&#45;&#45;Петр Пустота</title>
<path fill="none" stroke="#eeeeee" stroke-width="0.6" d="M405.603,-1327.23C377.693,-1360.6 318.527,-1431.33 291.097,-1464.13"/>
</g>
<!-- Чапаев и Пустота&#45;&#45;товарищ Бабаясин -->
<g id="edge18" class="edge"><title>Чапаев и Пустота&#45;&#45;товарищ Бабаясин</title>
<path fill="none" stroke="#eeeeee" stroke-width="0.6" d="M369.894,-1323.65C300.101,-1343.61 175.809,-1379.16 109.785,-1398.05"/>
</g>
<!-- Чапаев -->
<g id="node76" class="node"><title>Чапаев</title>
<ellipse fill="#2f2f2f" stroke="#ececec" stroke-width="0.6" cx="243.905" cy="-1249.59" rx="29.3664" ry="18"/>
<text text-anchor="middle" x="243.905" y="-1247.09" font-family="Helvetica,sans-Serif" font-size="10.00" fill="#ececec">Чапаев</text>
</g>
<!-- Чапаев и Пустота&#45;&#45;Чапаев -->
<g id="edge19" class="edge"><title>Чапаев и Пустота&#45;&#45;Чапаев</title>
<path fill="none" stroke="#eeeeee" stroke-width="0.6" d="M370.082,-1292.05C337.419,-1281.06 296.297,-1267.22 270.049,-1258.39"/>
</g>
<!-- Имена олигархов на карте Родины -->
<g id="node11" class="node"><title>Имена олигархов на карте Родины</title>
<polygon fill="#181818" stroke="#090909" stroke-width="0.8" points="724.571,-803.569 545.571,-803.569 545.571,-767.569 724.571,-767.569 724.571,-803.569"/>
<text text-anchor="middle" x="635.071" y="-783.069" font-family="Helvetica,sans-Serif" font-size="10.00" fill="#fefefe">Имена олигархов на карте Родины</text>
</g>
<!-- Вавилен Татарский -->
<g id="node39" class="node"><title>Вавилен Татарский</title>
<ellipse fill="#2f2f2f" stroke="#ececec" stroke-width="0.6" cx="736.722" cy="-909.981" rx="64.3289" ry="18"/>
<text text-anchor="middle" x="736.722" y="-907.481" font-family="Helvetica,sans-Serif" font-size="10.00" fill="#ececec">Вавилен Татарский</text>
</g>
<!-- Имена олигархов на карте Родины&#45;&#45;Вавилен Татарский -->
<g id="edge20" class="edge"><title>Имена олигархов на карте Родины&#45;&#45;Вавилен Татарский</title>
<path fill="none" stroke="#eeeeee" stroke-width="0.6" d="M649.852,-803.66C669.235,-827.382 703.026,-868.739 722.253,-892.271"/>
</g>
<!-- Generation «П» -->
<g id="node12" class="node"><title>Generation «П»</title>
<polygon fill="#181818" stroke="#090909" stroke-width="0.8" points="730.082,-1051.99 645.082,-1051.99 645.082,-1015.99 730.082,-1015.99 730.082,-1051.99"/>
<text text-anchor="middle" x="687.582" y="-1031.49" font-family="Helvetica,sans-Serif" font-size="10.00" fill="#fefefe">Generation «П»</text>
</g>
<!-- Generation «П»&#45;&#45;Вавилен Татарский -->
<g id="edge21" class="edge"><title>Generation «П»&#45;&#45;Вавилен Татарский</title>
<path fill="none" stroke="#eeeeee" stroke-width="0.6" d="M694.727,-1015.96C704.044,-992.448 720.247,-951.557 729.568,-928.035"/>
</g>
<!-- Generation «П»&#45;&#45;Вовчик Малой -->
<g id="edge22" class="edge"><title>Generation «П»&#45;&#45;Вовчик Малой</title>
<path fill="none" stroke="#eeeeee" stroke-width="0.6" d="M644.973,-1040.69C631.334,-1042.84 616.195,-1045.22 602.395,-1047.39"/>
</g>
<!-- Generation «П»&#45;&#45;лама Джамбон Тулку -->
<g id="edge23" class="edge"><title>Generation «П»&#45;&#45;лама Джамбон Тулку</title>
<path fill="none" stroke="#eeeeee" stroke-width="0.6" d="M667.832,-1052.16C637.671,-1079.9 580.508,-1132.48 550.74,-1159.86"/>
</g>
<!-- Малюта -->
<g id="node51" class="node"><title>Малюта</title>
<ellipse fill="#2f2f2f" stroke="#ececec" stroke-width="0.6" cx="869.745" cy="-887.355" rx="31.3996" ry="18"/>
<text text-anchor="middle" x="869.745" y="-884.855" font-family="Helvetica,sans-Serif" font-size="10.00" fill="#ececec">Малюта</text>
</g>
<!-- Generation «П»&#45;&#45;Малюта -->
<g id="edge24" class="edge"><title>Generation «П»&#45;&#45;Малюта</title>
<path fill="none" stroke="#eeeeee" stroke-width="0.6" d="M710.285,-1015.72C746.813,-986.312 817.921,-929.072 851.434,-902.095"/>
</g>
<!-- Михаил Непойман -->
<g id="node54" class="node"><title>Михаил Непойман</title>
<ellipse fill="#2f2f2f" stroke="#ececec" stroke-width="0.6" cx="732.818" cy="-1297.22" rx="59.4099" ry="18"/>
<text text-anchor="middle" x="732.818" y="-1294.72" font-family="Helvetica,sans-Serif" font-size="10.00" fill="#ececec">Михаил Непойман</text>
</g>
<!-- Generation «П»&#45;&#45;Михаил Непойман -->
<g id="edge25" class="edge"><title>Generation «П»&#45;&#45;Михаил Непойман</title>
<path fill="none" stroke="#eeeeee" stroke-width="0.6" d="M692.674,-1052.31C699.314,-1076.81 710.877,-1121.7 717.641,-1160.67 724.942,-1202.74 729.453,-1252.74 731.506,-1279.01"/>
</g>
<!-- пёс Пиздец -->
<g id="node61" class="node"><title>пёс Пиздец</title>
<polygon fill="none" stroke="#e8e8e8" stroke-width="0.6" points="624.526,-901.146 627.254,-901.245 629.953,-901.392 632.613,-901.588 635.223,-901.832 637.773,-902.124 640.252,-902.462 642.651,-902.845 644.96,-903.273 647.172,-903.744 649.278,-904.258 651.271,-904.812 653.144,-905.405 654.891,-906.036 656.507,-906.702 657.988,-907.403 659.33,-908.136 660.53,-908.898 661.586,-909.689 662.497,-910.505 663.261,-911.345 663.88,-912.206 664.354,-913.086 664.685,-913.983 664.874,-914.894 664.925,-915.816 664.841,-916.747 664.626,-917.684 664.283,-918.626 663.819,-919.568 663.237,-920.51 662.544,-921.447 661.745,-922.378 660.845,-923.3 659.852,-924.211 658.77,-925.108 657.605,-925.988 656.365,-926.849 655.054,-927.689 653.679,-928.505 652.245,-929.296 650.758,-930.059 649.223,-930.791 647.645,-931.492 646.029,-932.158 644.379,-932.789 642.699,-933.382 640.993,-933.936 639.265,-934.45 637.518,-934.921 635.754,-935.349 633.977,-935.733 632.188,-936.07 630.39,-936.362 628.585,-936.606 626.773,-936.802 624.957,-936.949 623.138,-937.048 621.318,-937.097 619.496,-937.097 617.676,-937.048 615.857,-936.949 614.041,-936.802 612.229,-936.606 610.424,-936.362 608.625,-936.07 606.837,-935.733 605.059,-935.349 603.296,-934.921 601.548,-934.45 599.82,-933.936 598.115,-933.382 596.435,-932.789 594.785,-932.158 593.168,-931.492 591.59,-930.791 590.055,-930.059 588.568,-929.296 587.135,-928.505 585.76,-927.689 584.449,-926.849 583.208,-925.988 582.044,-925.108 580.962,-924.211 579.968,-923.3 579.069,-922.378 578.27,-921.447 577.576,-920.51 576.995,-919.568 576.53,-918.626 576.188,-917.684 575.973,-916.747 575.889,-915.816 575.94,-914.894 576.129,-913.983 576.46,-913.086 576.934,-912.206 577.553,-911.345 578.317,-910.505 579.228,-909.689 580.284,-908.898 581.484,-908.136 582.826,-907.403 584.307,-906.702 585.923,-906.036 587.67,-905.405 589.543,-904.812 591.536,-904.258 593.642,-903.744 595.853,-903.273 598.163,-902.845 600.562,-902.462 603.041,-902.124 605.59,-901.832 608.2,-901.588 610.861,-901.392 613.56,-901.245 616.287,-901.146 619.032,-901.097 621.782,-901.097 624.526,-901.146"/>
<text text-anchor="middle" x="620.407" y="-916.597" font-family="Helvetica,sans-Serif" font-size="10.00" fill="#e8e8e8">пёс Пиздец</text>
</g>
<!-- Generation «П»&#45;&#45;пёс Пиздец -->
<g id="edge26" class="edge"><title>Generation «П»&#45;&#45;пёс Пиздец</title>
<path fill="none" stroke="#eeeeee" stroke-width="0.6" d="M676.938,-1015.79C664.212,-994.02 643.067,-957.855 630.561,-936.465"/>
</g>
<!-- Семён Левитан -->
<g id="node69" class="node"><title>Семён Левитан</title>
<ellipse fill="#2f2f2f" stroke="#ececec" stroke-width="0.6" cx="925.938" cy="-1159.16" rx="51.6054" ry="18"/>
<text text-anchor="middle" x="925.938" y="-1156.66" font-family="Helvetica,sans-Serif" font-size="10.00" fill="#ececec">Семён Левитан</text>
</g>
<!-- Generation «П»&#45;&#45;Семён Левитан -->
<g id="edge27" class="edge"><title>Generation «П»&#45;&#45;Семён Левитан</title>
<path fill="none" stroke="#eeeeee" stroke-width="0.6" d="M721.986,-1052.06C769.172,-1076.84 853.116,-1120.92 897.154,-1144.05"/>
</g>
<!-- халдеи -->
<g id="node75" class="node"><title>халдеи</title>
<polygon fill="none" stroke="#e8e8e8" stroke-width="0.6" points="797.43,-1129.71 799.341,-1129.81 801.232,-1129.95 803.096,-1130.15 804.924,-1130.39 806.711,-1130.68 808.447,-1131.02 810.128,-1131.41 811.746,-1131.83 813.296,-1132.3 814.771,-1132.82 816.167,-1133.37 817.479,-1133.97 818.704,-1134.6 819.836,-1135.26 820.873,-1135.96 821.814,-1136.7 822.654,-1137.46 823.394,-1138.25 824.032,-1139.07 824.568,-1139.91 825.002,-1140.77 825.334,-1141.65 825.565,-1142.54 825.698,-1143.45 825.734,-1144.38 825.675,-1145.31 825.524,-1146.24 825.284,-1147.19 824.959,-1148.13 824.551,-1149.07 824.066,-1150.01 823.506,-1150.94 822.875,-1151.86 822.179,-1152.77 821.421,-1153.67 820.605,-1154.55 819.736,-1155.41 818.818,-1156.25 817.855,-1157.07 816.85,-1157.86 815.808,-1158.62 814.733,-1159.35 813.627,-1160.05 812.495,-1160.72 811.339,-1161.35 810.162,-1161.94 808.967,-1162.5 807.756,-1163.01 806.532,-1163.48 805.297,-1163.91 804.051,-1164.29 802.798,-1164.63 801.538,-1164.92 800.273,-1165.17 799.004,-1165.36 797.732,-1165.51 796.458,-1165.61 795.182,-1165.66 793.906,-1165.66 792.63,-1165.61 791.356,-1165.51 790.084,-1165.36 788.815,-1165.17 787.55,-1164.92 786.29,-1164.63 785.037,-1164.29 783.791,-1163.91 782.556,-1163.48 781.332,-1163.01 780.121,-1162.5 778.926,-1161.94 777.749,-1161.35 776.593,-1160.72 775.461,-1160.05 774.355,-1159.35 773.28,-1158.62 772.238,-1157.86 771.233,-1157.07 770.27,-1156.25 769.352,-1155.41 768.483,-1154.55 767.667,-1153.67 766.909,-1152.77 766.213,-1151.86 765.582,-1150.94 765.022,-1150.01 764.537,-1149.07 764.129,-1148.13 763.804,-1147.19 763.564,-1146.24 763.413,-1145.31 763.354,-1144.38 763.39,-1143.45 763.523,-1142.54 763.754,-1141.65 764.086,-1140.77 764.52,-1139.91 765.056,-1139.07 765.694,-1138.25 766.434,-1137.46 767.274,-1136.7 768.214,-1135.96 769.252,-1135.26 770.384,-1134.6 771.608,-1133.97 772.921,-1133.37 774.317,-1132.82 775.792,-1132.3 777.342,-1131.83 778.96,-1131.41 780.64,-1131.02 782.377,-1130.68 784.163,-1130.39 785.992,-1130.15 787.856,-1129.95 789.747,-1129.81 791.658,-1129.71 793.581,-1129.66 795.507,-1129.66 797.43,-1129.71"/>
<text text-anchor="middle" x="794.544" y="-1145.16" font-family="Helvetica,sans-Serif" font-size="10.00" fill="#e8e8e8">халдеи</text>
</g>
<!-- Generation «П»&#45;&#45;халдеи -->
<g id="edge28" class="edge"><title>Generation «П»&#45;&#45;халдеи</title>
<path fill="none" stroke="#eeeeee" stroke-width="0.6" d="M704.53,-1052C725.03,-1073.79 759.247,-1110.15 779.064,-1131.21"/>
</g>
<!-- Акико -->
<g id="node13" class="node"><title>Акико</title>
<polygon fill="#181818" stroke="#090909" stroke-width="0.8" points="1458.27,-345.768 1404.27,-345.768 1404.27,-309.768 1458.27,-309.768 1458.27,-345.768"/>
<text text-anchor="middle" x="1431.27" y="-325.268" font-family="Helvetica,sans-Serif" font-size="10.00" fill="#fefefe">Акико</text>
</g>
<!-- Лебёдкин -->
<g id="node48" class="node"><title>Лебёдкин</title>
<ellipse fill="#2f2f2f" stroke="#ececec" stroke-width="0.6" cx="1215.5" cy="-516.461" rx="36.4942" ry="18"/>
<text text-anchor="middle" x="1215.5" y="-513.961" font-family="Helvetica,sans-Serif" font-size="10.00" fill="#ececec">Лебёдкин</text>
</g>
<!-- Акико&#45;&#45;Лебёдкин -->
<g id="edge29" class="edge"><title>Акико&#45;&#45;Лебёдкин</title>
<path fill="none" stroke="#eeeeee" stroke-width="0.6" d="M1410.58,-345.861C1368.49,-382.666 1273.53,-465.713 1233.67,-500.578"/>
</g>
<!-- Пятое главное управление -->
<g id="node64" class="node"><title>Пятое главное управление</title>
<polygon fill="none" stroke="#e8e8e8" stroke-width="0.6" points="1029.29,-609.616 1034.7,-609.715 1040.05,-609.862 1045.33,-610.058 1050.5,-610.302 1055.56,-610.594 1060.48,-610.931 1065.23,-611.315 1069.81,-611.743 1074.2,-612.214 1078.38,-612.728 1082.33,-613.282 1086.04,-613.875 1089.51,-614.506 1092.71,-615.172 1095.65,-615.873 1098.31,-616.605 1100.69,-617.368 1102.78,-618.159 1104.59,-618.975 1106.11,-619.815 1107.33,-620.676 1108.27,-621.556 1108.93,-622.453 1109.3,-623.363 1109.41,-624.286 1109.24,-625.217 1108.81,-626.154 1108.13,-627.096 1107.21,-628.038 1106.06,-628.98 1104.68,-629.917 1103.1,-630.848 1101.31,-631.77 1099.34,-632.681 1097.2,-633.577 1094.89,-634.458 1092.43,-635.319 1089.83,-636.159 1087.1,-636.975 1084.26,-637.766 1081.31,-638.528 1078.27,-639.261 1075.14,-639.962 1071.93,-640.628 1068.66,-641.259 1065.33,-641.852 1061.95,-642.406 1058.52,-642.92 1055.06,-643.391 1051.56,-643.819 1048.03,-644.202 1044.49,-644.54 1040.92,-644.832 1037.34,-645.076 1033.75,-645.272 1030.15,-645.419 1026.54,-645.518 1022.93,-645.567 1019.32,-645.567 1015.71,-645.518 1012.1,-645.419 1008.5,-645.272 1004.91,-645.076 1001.32,-644.832 997.759,-644.54 994.212,-644.202 990.687,-643.819 987.19,-643.391 983.725,-642.92 980.298,-642.406 976.915,-641.852 973.584,-641.259 970.312,-640.628 967.107,-639.962 963.977,-639.261 960.933,-638.528 957.984,-637.766 955.141,-636.975 952.414,-636.159 949.815,-635.319 947.355,-634.458 945.046,-633.577 942.901,-632.681 940.93,-631.77 939.146,-630.848 937.561,-629.917 936.186,-628.98 935.033,-628.038 934.112,-627.096 933.433,-626.154 933.006,-625.217 932.84,-624.286 932.941,-623.363 933.316,-622.453 933.972,-621.556 934.912,-620.676 936.139,-619.815 937.656,-618.975 939.461,-618.159 941.556,-617.368 943.935,-616.605 946.596,-615.873 949.533,-615.172 952.738,-614.506 956.203,-613.875 959.917,-613.282 963.869,-612.728 968.045,-612.214 972.431,-611.743 977.011,-611.315 981.768,-610.931 986.684,-610.594 991.74,-610.302 996.916,-610.058 1002.19,-609.862 1007.54,-609.715 1012.95,-609.616 1018.4,-609.567 1023.85,-609.567 1029.29,-609.616"/>
<text text-anchor="middle" x="1021.12" y="-625.067" font-family="Helvetica,sans-Serif" font-size="10.00" fill="#e8e8e8">Пятое главное управление</text>
</g>
<!-- Акико&#45;&#45;Пятое главное управление -->
<g id="edge30" class="edge"><title>Акико&#45;&#45;Пятое главное управление</title>
<path fill="none" stroke="#eeeeee" stroke-width="0.6" d="M1405.67,-345.999C1361.31,-377.635 1267.35,-444.85 1188.64,-502.562 1136.99,-540.435 1076.93,-585.505 1044.61,-609.846"/>
</g>
<!-- Македонская критика французской мысли -->
<g id="node14" class="node"><title>Македонская критика французской мысли</title>
<polygon fill="#181818" stroke="#090909" stroke-width="0.8" points="1076.71,-439.067 857.709,-439.067 857.709,-403.067 1076.71,-403.067 1076.71,-439.067"/>
<text text-anchor="middle" x="967.209" y="-418.567" font-family="Helvetica,sans-Serif" font-size="10.00" fill="#fefefe">Македонская критика французской мысли</text>
</g>
<!-- Мунбанк -->
<g id="node55" class="node"><title>Мунбанк</title>
<polygon fill="none" stroke="#e8e8e8" stroke-width="0.6" points="872.099,-694.403 874.256,-694.502 876.391,-694.649 878.495,-694.845 880.559,-695.089 882.576,-695.38 884.537,-695.718 886.434,-696.102 888.261,-696.53 890.01,-697.001 891.676,-697.514 893.252,-698.068 894.733,-698.662 896.115,-699.293 897.394,-699.959 898.565,-700.66 899.626,-701.392 900.576,-702.155 901.411,-702.946 902.131,-703.762 902.736,-704.602 903.226,-705.463 903.6,-706.343 903.862,-707.24 904.012,-708.15 904.052,-709.072 903.986,-710.003 903.815,-710.941 903.544,-711.882 903.177,-712.825 902.717,-713.766 902.169,-714.704 901.537,-715.635 900.825,-716.557 900.039,-717.468 899.183,-718.364 898.262,-719.244 897.281,-720.106 896.245,-720.946 895.157,-721.762 894.023,-722.553 892.847,-723.315 891.633,-724.048 890.384,-724.748 889.106,-725.415 887.801,-726.046 886.472,-726.639 885.123,-727.193 883.756,-727.707 882.374,-728.178 880.979,-728.606 879.574,-728.989 878.159,-729.327 876.737,-729.618 875.308,-729.862 873.876,-730.058 872.439,-730.206 871.001,-730.304 869.56,-730.354 868.12,-730.354 866.68,-730.304 865.241,-730.206 863.805,-730.058 862.372,-729.862 860.944,-729.618 859.522,-729.327 858.107,-728.989 856.701,-728.606 855.306,-728.178 853.924,-727.707 852.557,-727.193 851.208,-726.639 849.879,-726.046 848.574,-725.415 847.296,-724.748 846.048,-724.048 844.834,-723.315 843.657,-722.553 842.523,-721.762 841.436,-720.946 840.399,-720.106 839.418,-719.244 838.497,-718.364 837.641,-717.468 836.855,-716.557 836.144,-715.635 835.511,-714.704 834.963,-713.766 834.503,-712.825 834.136,-711.882 833.865,-710.941 833.695,-710.003 833.628,-709.072 833.669,-708.15 833.818,-707.24 834.08,-706.343 834.455,-705.463 834.944,-704.602 835.549,-703.762 836.269,-702.946 837.105,-702.155 838.054,-701.392 839.115,-700.66 840.287,-699.959 841.565,-699.293 842.947,-698.662 844.428,-698.068 846.004,-697.514 847.67,-697.001 849.419,-696.53 851.246,-696.102 853.144,-695.718 855.104,-695.38 857.121,-695.089 859.185,-694.845 861.289,-694.649 863.424,-694.502 865.582,-694.403 867.753,-694.354 869.928,-694.354 872.099,-694.403"/>
<text text-anchor="middle" x="868.84" y="-709.854" font-family="Helvetica,sans-Serif" font-size="10.00" fill="#e8e8e8">Мунбанк</text>
</g>
<!-- Македонская критика французской мысли&#45;&#45;Мунбанк -->
<g id="edge31" class="edge"><title>Македонская критика французской мысли&#45;&#45;Мунбанк</title>
<path fill="none" stroke="#eeeeee" stroke-width="0.6" d="M961.055,-439.288C943.348,-491.724 892.412,-642.553 874.866,-694.511"/>
</g>
<!-- Насых Нафиков (Кика) -->
<g id="node57" class="node"><title>Насых Нафиков (Кика)</title>
<ellipse fill="#2f2f2f" stroke="#ececec" stroke-width="0.6" cx="689.234" cy="-630.437" rx="73.6658" ry="18"/>
<text text-anchor="middle" x="689.234" y="-627.937" font-family="Helvetica,sans-Serif" font-size="10.00" fill="#ececec">Насых Нафиков (Кика)</text>
</g>
<!-- Македонская критика французской мысли&#45;&#45;Насых Нафиков (Кика) -->
<g id="edge32" class="edge"><title>Македонская критика французской мысли&#45;&#45;Насых Нафиков (Кика)</title>
<path fill="none" stroke="#eeeeee" stroke-width="0.6" d="M930.251,-439.146C892.419,-458.779 833.215,-492.714 790.09,-532.495 760.309,-559.967 726.743,-592.993 706.823,-612.819"/>
</g>
<!-- Санбанк -->
<g id="node67" class="node"><title>Санбанк</title>
<polygon fill="none" stroke="#e8e8e8" stroke-width="0.6" points="828.034,-525.725 830.191,-525.824 832.326,-525.971 834.43,-526.167 836.495,-526.411 838.511,-526.702 840.472,-527.04 842.369,-527.424 844.196,-527.852 845.946,-528.323 847.611,-528.836 849.187,-529.391 850.669,-529.984 852.051,-530.615 853.329,-531.281 854.5,-531.982 855.562,-532.714 856.511,-533.477 857.346,-534.268 858.066,-535.084 858.671,-535.924 859.161,-536.785 859.536,-537.665 859.797,-538.562 859.947,-539.472 859.987,-540.394 859.921,-541.325 859.75,-542.263 859.48,-543.204 859.112,-544.147 858.652,-545.089 858.104,-546.026 857.472,-546.957 856.761,-547.879 855.975,-548.79 855.119,-549.686 854.198,-550.566 853.217,-551.428 852.18,-552.268 851.092,-553.084 849.958,-553.875 848.782,-554.637 847.568,-555.37 846.32,-556.07 845.041,-556.737 843.736,-557.368 842.408,-557.961 841.059,-558.515 839.692,-559.029 838.31,-559.5 836.915,-559.928 835.509,-560.311 834.094,-560.649 832.672,-560.94 831.244,-561.184 829.811,-561.38 828.375,-561.528 826.936,-561.626 825.496,-561.676 824.055,-561.676 822.615,-561.626 821.176,-561.528 819.74,-561.38 818.307,-561.184 816.879,-560.94 815.457,-560.649 814.042,-560.311 812.636,-559.928 811.241,-559.5 809.859,-559.029 808.492,-558.515 807.143,-557.961 805.815,-557.368 804.51,-556.737 803.231,-556.07 801.983,-555.37 800.769,-554.637 799.593,-553.875 798.459,-553.084 797.371,-552.268 796.334,-551.428 795.353,-550.566 794.432,-549.686 793.576,-548.79 792.79,-547.879 792.079,-546.957 791.447,-546.026 790.898,-545.089 790.439,-544.147 790.071,-543.204 789.801,-542.263 789.63,-541.325 789.564,-540.394 789.604,-539.472 789.754,-538.562 790.015,-537.665 790.39,-536.785 790.88,-535.924 791.485,-535.084 792.205,-534.268 793.04,-533.477 793.989,-532.714 795.051,-531.982 796.222,-531.281 797.5,-530.615 798.882,-529.984 800.364,-529.391 801.94,-528.836 803.605,-528.323 805.355,-527.852 807.182,-527.424 809.079,-527.04 811.04,-526.702 813.056,-526.411 815.121,-526.167 817.225,-525.971 819.36,-525.824 821.517,-525.725 823.688,-525.676 825.863,-525.676 828.034,-525.725"/>
<text text-anchor="middle" x="824.775" y="-541.176" font-family="Helvetica,sans-Serif" font-size="10.00" fill="#e8e8e8">Санбанк</text>
</g>
<!-- Македонская критика французской мысли&#45;&#45;Санбанк -->
<g id="edge33" class="edge"><title>Македонская критика французской мысли&#45;&#45;Санбанк</title>
<path fill="none" stroke="#eeeeee" stroke-width="0.6" d="M946.192,-439.158C918.489,-463.006 870.166,-504.603 843.602,-527.469"/>
</g>
<!-- Один вог -->
<g id="node15" class="node"><title>Один вог</title>
<polygon fill="#181818" stroke="#090909" stroke-width="0.8" points="1492.64,-616.369 1433.64,-616.369 1433.64,-580.369 1492.64,-580.369 1492.64,-616.369"/>
<text text-anchor="middle" x="1463.14" y="-595.869" font-family="Helvetica,sans-Serif" font-size="10.00" fill="#fefefe">Один вог</text>
</g>
<!-- Мюс -->
<g id="node56" class="node"><title>Мюс</title>
<ellipse fill="#2f2f2f" stroke="#ececec" stroke-width="0.6" cx="1144.57" cy="-761.417" rx="27" ry="18"/>
<text text-anchor="middle" x="1144.57" y="-758.917" font-family="Helvetica,sans-Serif" font-size="10.00" fill="#ececec">Мюс</text>
</g>
<!-- Один вог&#45;&#45;Мюс -->
<g id="edge34" class="edge"><title>Один вог&#45;&#45;Мюс</title>
<path fill="none" stroke="#eeeeee" stroke-width="0.6" d="M1433.45,-613.562C1369.82,-646.133 1221.53,-722.025 1166.04,-750.427"/>
</g>
<!-- Фокус&#45;группа -->
<g id="node16" class="node"><title>Фокус&#45;группа</title>
<polygon fill="#181818" stroke="#090909" stroke-width="0.8" points="364.967,-421.176 283.967,-421.176 283.967,-385.176 364.967,-385.176 364.967,-421.176"/>
<text text-anchor="middle" x="324.467" y="-400.676" font-family="Helvetica,sans-Serif" font-size="10.00" fill="#fefefe">Фокус&#45;группа</text>
</g>
<!-- Сракандаев -->
<g id="node71" class="node"><title>Сракандаев</title>
<ellipse fill="#2f2f2f" stroke="#ececec" stroke-width="0.6" cx="518.949" cy="-674.006" rx="42.9448" ry="18"/>
<text text-anchor="middle" x="518.949" y="-671.506" font-family="Helvetica,sans-Serif" font-size="10.00" fill="#ececec">Сракандаев</text>
</g>
<!-- Фокус&#45;группа&#45;&#45;Сракандаев -->
<g id="edge35" class="edge"><title>Фокус&#45;группа&#45;&#45;Сракандаев</title>
<path fill="none" stroke="#eeeeee" stroke-width="0.6" d="M337.53,-421.367C373.129,-470.942 471.521,-607.959 506.449,-656.599"/>
</g>
<!-- Числа -->
<g id="node17" class="node"><title>Числа</title>
<polygon fill="#181818" stroke="#090909" stroke-width="0.8" points="791.008,-804.345 737.008,-804.345 737.008,-768.345 791.008,-768.345 791.008,-804.345"/>
<text text-anchor="middle" x="764.008" y="-783.845" font-family="Helvetica,sans-Serif" font-size="10.00" fill="#fefefe">Числа</text>
</g>
<!-- Числа&#45;&#45;Бункер под Лубянкой -->
<g id="edge36" class="edge"><title>Числа&#45;&#45;Бункер под Лубянкой</title>
<path fill="none" stroke="#eeeeee" stroke-width="0.6" d="M744.626,-767.952C715.13,-739.58 657.788,-682.909 614.051,-630.361 583.033,-593.093 550.915,-546.026 534.223,-520.804"/>
</g>
<!-- Числа&#45;&#45;Вавилен Татарский -->
<g id="edge37" class="edge"><title>Числа&#45;&#45;Вавилен Татарский</title>
<path fill="none" stroke="#eeeeee" stroke-width="0.6" d="M759.982,-804.588C754.823,-827.963 745.932,-868.252 740.765,-891.663"/>
</g>
<!-- Числа&#45;&#45;Лебёдкин -->
<g id="edge38" class="edge"><title>Числа&#45;&#45;Лебёдкин</title>
<path fill="none" stroke="#eeeeee" stroke-width="0.6" d="M791.281,-780.339C854.647,-765.145 1013.77,-719.706 1110.52,-628.056 1144.31,-596.042 1180.96,-555.649 1200.77,-533.293"/>
</g>
<!-- Числа&#45;&#45;Малюта -->
<g id="edge39" class="edge"><title>Числа&#45;&#45;Малюта</title>
<path fill="none" stroke="#eeeeee" stroke-width="0.6" d="M782.912,-804.404C802.989,-823.584 834.401,-853.591 853.431,-871.772"/>
</g>
<!-- Числа&#45;&#45;Мунбанк -->
<g id="edge40" class="edge"><title>Числа&#45;&#45;Мунбанк</title>
<path fill="none" stroke="#eeeeee" stroke-width="0.6" d="M789.653,-768.245C808.08,-755.239 832.542,-737.974 849.375,-726.092"/>
</g>
<!-- Числа&#45;&#45;Мюс -->
<g id="edge41" class="edge"><title>Числа&#45;&#45;Мюс</title>
<path fill="none" stroke="#eeeeee" stroke-width="0.6" d="M791.072,-784.572C861.118,-779.984 1047.75,-767.759 1117.64,-763.181"/>
</g>
<!-- Числа&#45;&#45;Насых Нафиков (Кика) -->
<g id="edge42" class="edge"><title>Числа&#45;&#45;Насых Нафиков (Кика)</title>
<path fill="none" stroke="#eeeeee" stroke-width="0.6" d="M755.284,-768.155C740.876,-738.113 712.274,-678.477 697.902,-648.511"/>
</g>
<!-- Числа&#45;&#45;Пятое главное управление -->
<g id="edge43" class="edge"><title>Числа&#45;&#45;Пятое главное управление</title>
<path fill="none" stroke="#eeeeee" stroke-width="0.6" d="M791.011,-773.97C816.041,-762.478 854.299,-744.854 887.436,-729.352 933.675,-707.72 979.169,-668.099 1003.33,-645.192"/>
</g>
<!-- Числа&#45;&#45;Санбанк -->
<g id="edge44" class="edge"><title>Числа&#45;&#45;Санбанк</title>
<path fill="none" stroke="#eeeeee" stroke-width="0.6" d="M768.575,-768.105C779.892,-722.913 809.123,-606.183 820.32,-561.468"/>
</g>
<!-- Числа&#45;&#45;Сракандаев -->
<g id="edge45" class="edge"><title>Числа&#45;&#45;Сракандаев</title>
<path fill="none" stroke="#eeeeee" stroke-width="0.6" d="M736.931,-769.378C733.875,-767.627 730.778,-765.923 727.771,-764.369 666.702,-732.826 592.178,-702.416 550.702,-686.171"/>
</g>
<!-- Священная книга оборотня -->
<g id="node18" class="node"><title>Священная книга оборотня</title>
<polygon fill="#181818" stroke="#090909" stroke-width="0.8" points="567.117,-847.602 424.117,-847.602 424.117,-811.602 567.117,-811.602 567.117,-847.602"/>
<text text-anchor="middle" x="495.617" y="-827.102" font-family="Helvetica,sans-Serif" font-size="10.00" fill="#fefefe">Священная книга оборотня</text>
</g>
<!-- А Хули -->
<g id="node34" class="node"><title>А Хули</title>
<ellipse fill="#2f2f2f" stroke="#ececec" stroke-width="0.6" cx="381.991" cy="-953.093" rx="29.3664" ry="18"/>
<text text-anchor="middle" x="381.991" y="-950.593" font-family="Helvetica,sans-Serif" font-size="10.00" fill="#ececec">А Хули</text>
</g>
<!-- Священная книга оборотня&#45;&#45;А Хули -->
<g id="edge46" class="edge"><title>Священная книга оборотня&#45;&#45;А Хули</title>
<path fill="none" stroke="#eeeeee" stroke-width="0.6" d="M478.851,-847.823C456.627,-871.976 417.77,-914.208 396.657,-937.154"/>
</g>
<!-- Священная книга оборотня&#45;&#45;Вавилен Татарский -->
<g id="edge47" class="edge"><title>Священная книга оборотня&#45;&#45;Вавилен Татарский</title>
<path fill="none" stroke="#eeeeee" stroke-width="0.6" d="M549.725,-847.64C593.738,-862.313 654.933,-882.714 695.162,-896.125"/>
</g>
<!-- Лев Толстой -->
<g id="node49" class="node"><title>Лев Толстой</title>
<ellipse fill="#2f2f2f" stroke="#ececec" stroke-width="0.6" cx="508.266" cy="-956.778" rx="44.3" ry="18"/>
<text text-anchor="middle" x="508.266" y="-954.278" font-family="Helvetica,sans-Serif" font-size="10.00" fill="#ececec">Лев Толстой</text>
</g>
<!-- Священная книга оборотня&#45;&#45;Лев Толстой -->
<g id="edge48" class="edge"><title>Священная книга оборотня&#45;&#45;Лев Толстой</title>
<path fill="none" stroke="#eeeeee" stroke-width="0.6" d="M497.429,-847.823C499.834,-871.999 504.054,-914.431 506.457,-938.59"/>
</g>
<!-- Священная книга оборотня&#45;&#45;Нелли -->
<g id="edge49" class="edge"><title>Священная книга оборотня&#45;&#45;Нелли</title>
<path fill="none" stroke="#eeeeee" stroke-width="0.6" d="M424.036,-834.513C371.872,-838.092 304.093,-842.743 267.026,-845.286"/>
</g>
<!-- Священная книга оборотня&#45;&#45;пёс Пиздец -->
<g id="edge50" class="edge"><title>Священная книга оборотня&#45;&#45;пёс Пиздец</title>
<path fill="none" stroke="#eeeeee" stroke-width="0.6" d="M520.87,-847.712C543.375,-863.852 576.016,-887.261 597.709,-902.819"/>
</g>
<!-- рецензент Майя Марачкарская -->
<g id="node66" class="node"><title>рецензент Майя Марачкарская</title>
<ellipse fill="#2f2f2f" stroke="#ececec" stroke-width="0.6" cx="372.337" cy="-757.648" rx="96.5815" ry="18"/>
<text text-anchor="middle" x="372.337" y="-755.148" font-family="Helvetica,sans-Serif" font-size="10.00" fill="#ececec">рецензент Майя Марачкарская</text>
</g>
<!-- Священная книга оборотня&#45;&#45;рецензент Майя Марачкарская -->
<g id="edge51" class="edge"><title>Священная книга оборотня&#45;&#45;рецензент Майя Марачкарская</title>
<path fill="none" stroke="#eeeeee" stroke-width="0.6" d="M464.508,-811.445C445.249,-800.204 420.67,-785.859 401.738,-774.809"/>
</g>
<!-- Священная книга оборотня&#45;&#45;Саша Лапин -->
<g id="edge52" class="edge"><title>Священная книга оборотня&#45;&#45;Саша Лапин</title>
<path fill="none" stroke="#eeeeee" stroke-width="0.6" d="M492.059,-811.594C488.424,-796.306 481.693,-774.287 470.475,-757.797 430.207,-698.604 360.482,-648.707 323.763,-624.934"/>
</g>
<!-- Психическая атака (сонет) -->
<g id="node19" class="node"><title>Психическая атака (сонет)</title>
<polygon fill="#181818" stroke="#090909" stroke-width="0.8" points="166.407,-1704.83 23.4069,-1704.83 23.4069,-1668.83 166.407,-1668.83 166.407,-1704.83"/>
<text text-anchor="middle" x="94.9069" y="-1684.33" font-family="Helvetica,sans-Serif" font-size="10.00" fill="#fefefe">Психическая атака (сонет)</text>
</g>
<!-- Психическая атака (сонет)&#45;&#45;Петр Пустота -->
<g id="edge53" class="edge"><title>Психическая атака (сонет)&#45;&#45;Петр Пустота</title>
<path fill="none" stroke="#eeeeee" stroke-width="0.6" d="M111.028,-1668.61C145.763,-1629.35 227.263,-1537.23 261.258,-1498.8"/>
</g>
<!-- Empire V -->
<g id="node20" class="node"><title>Empire V</title>
<polygon fill="#181818" stroke="#090909" stroke-width="0.8" points="837.225,-1034.24 780.225,-1034.24 780.225,-998.241 837.225,-998.241 837.225,-1034.24"/>
<text text-anchor="middle" x="808.725" y="-1013.74" font-family="Helvetica,sans-Serif" font-size="10.00" fill="#fefefe">Empire V</text>
</g>
<!-- Empire V&#45;&#45;Вавилен Татарский -->
<g id="edge54" class="edge"><title>Empire V&#45;&#45;Вавилен Татарский</title>
<path fill="none" stroke="#eeeeee" stroke-width="0.6" d="M796.511,-998.215C783.19,-978.557 762.005,-947.293 748.756,-927.74"/>
</g>
<!-- Рама -->
<g id="node65" class="node"><title>Рама</title>
<ellipse fill="#2f2f2f" stroke="#ececec" stroke-width="0.6" cx="874.23" cy="-1315.53" rx="27" ry="18"/>
<text text-anchor="middle" x="874.23" y="-1313.03" font-family="Helvetica,sans-Serif" font-size="10.00" fill="#ececec">Рама</text>
</g>
<!-- Empire V&#45;&#45;Рама -->
<g id="edge55" class="edge"><title>Empire V&#45;&#45;Рама</title>
<path fill="none" stroke="#eeeeee" stroke-width="0.6" d="M812.724,-1034.51C824.447,-1088.07 858.628,-1244.24 870.283,-1297.49"/>
</g>
<!-- Empire V&#45;&#45;халдеи -->
<g id="edge56" class="edge"><title>Empire V&#45;&#45;халдеи</title>
<path fill="none" stroke="#eeeeee" stroke-width="0.6" d="M806.754,-1034.51C804.044,-1059.62 799.2,-1104.51 796.499,-1129.54"/>
</g>
<!-- Ассасин -->
<g id="node21" class="node"><title>Ассасин</title>
<polygon fill="#181818" stroke="#090909" stroke-width="0.8" points="105.201,-745.319 49.2015,-745.319 49.2015,-709.319 105.201,-709.319 105.201,-745.319"/>
<text text-anchor="middle" x="77.2015" y="-724.819" font-family="Helvetica,sans-Serif" font-size="10.00" fill="#fefefe">Ассасин</text>
</g>
<!-- Ассасин&#45;&#45;рецензент Майя Марачкарская -->
<g id="edge57" class="edge"><title>Ассасин&#45;&#45;рецензент Майя Марачкарская</title>
<path fill="none" stroke="#eeeeee" stroke-width="0.6" d="M105.233,-730.2C146.673,-734.459 226.006,-742.611 287.491,-748.929"/>
</g>
<!-- Зал поющих кариатид -->
<g id="node22" class="node"><title>Зал поющих кариатид</title>
<polygon fill="#181818" stroke="#090909" stroke-width="0.8" points="711.306,-1493.38 590.306,-1493.38 590.306,-1457.38 711.306,-1457.38 711.306,-1493.38"/>
<text text-anchor="middle" x="650.806" y="-1472.88" font-family="Helvetica,sans-Serif" font-size="10.00" fill="#fefefe">Зал поющих кариатид</text>
</g>
<!-- генерал Шмыга -->
<g id="node41" class="node"><title>генерал Шмыга</title>
<ellipse fill="#2f2f2f" stroke="#ececec" stroke-width="0.6" cx="664.827" cy="-1160.63" rx="51.4282" ry="18"/>
<text text-anchor="middle" x="664.827" y="-1158.13" font-family="Helvetica,sans-Serif" font-size="10.00" fill="#ececec">генерал Шмыга</text>
</g>
<!-- Зал поющих кариатид&#45;&#45;генерал Шмыга -->
<g id="edge58" class="edge"><title>Зал поющих кариатид&#45;&#45;генерал Шмыга</title>
<path fill="none" stroke="#eeeeee" stroke-width="0.6" d="M651.62,-1457.1C654.098,-1401.47 661.529,-1234.66 664.011,-1178.96"/>
</g>
<!-- клуб «Haute SOS» -->
<g id="node46" class="node"><title>клуб «Haute SOS»</title>
<polygon fill="none" stroke="#e8e8e8" stroke-width="0.6" points="371.028,-1694.49 374.896,-1694.59 378.724,-1694.74 382.496,-1694.93 386.198,-1695.18 389.813,-1695.47 393.329,-1695.81 396.731,-1696.19 400.006,-1696.62 403.142,-1697.09 406.129,-1697.6 408.955,-1698.16 411.611,-1698.75 414.088,-1699.38 416.38,-1700.05 418.48,-1700.75 420.383,-1701.48 422.085,-1702.24 423.583,-1703.03 424.874,-1703.85 425.959,-1704.69 426.836,-1705.55 427.508,-1706.43 427.977,-1707.33 428.246,-1708.24 428.318,-1709.16 428.199,-1710.09 427.893,-1711.03 427.408,-1711.97 426.749,-1712.91 425.925,-1713.85 424.942,-1714.79 423.808,-1715.72 422.533,-1716.64 421.123,-1717.55 419.589,-1718.45 417.938,-1719.33 416.179,-1720.19 414.32,-1721.03 412.37,-1721.85 410.337,-1722.64 408.228,-1723.4 406.051,-1724.13 403.813,-1724.84 401.521,-1725.5 399.181,-1726.13 396.799,-1726.73 394.38,-1727.28 391.93,-1727.79 389.452,-1728.27 386.951,-1728.69 384.43,-1729.08 381.894,-1729.41 379.344,-1729.71 376.783,-1729.95 374.214,-1730.15 371.639,-1730.29 369.059,-1730.39 366.477,-1730.44 363.895,-1730.44 361.313,-1730.39 358.733,-1730.29 356.158,-1730.15 353.589,-1729.95 351.028,-1729.71 348.479,-1729.41 345.942,-1729.08 343.421,-1728.69 340.92,-1728.27 338.442,-1727.79 335.992,-1727.28 333.573,-1726.73 331.191,-1726.13 328.851,-1725.5 326.559,-1724.84 324.321,-1724.13 322.144,-1723.4 320.035,-1722.64 318.002,-1721.85 316.052,-1721.03 314.193,-1720.19 312.434,-1719.33 310.783,-1718.45 309.249,-1717.55 307.839,-1716.64 306.564,-1715.72 305.43,-1714.79 304.447,-1713.85 303.623,-1712.91 302.964,-1711.97 302.479,-1711.03 302.173,-1710.09 302.054,-1709.16 302.126,-1708.24 302.395,-1707.33 302.864,-1706.43 303.536,-1705.55 304.414,-1704.69 305.498,-1703.85 306.789,-1703.03 308.287,-1702.24 309.989,-1701.48 311.892,-1700.75 313.992,-1700.05 316.284,-1699.38 318.761,-1698.75 321.417,-1698.16 324.243,-1697.6 327.23,-1697.09 330.366,-1696.62 333.641,-1696.19 337.043,-1695.81 340.559,-1695.47 344.175,-1695.18 347.876,-1694.93 351.648,-1694.74 355.476,-1694.59 359.344,-1694.49 363.236,-1694.44 367.136,-1694.44 371.028,-1694.49"/>
<text text-anchor="middle" x="365.186" y="-1709.94" font-family="Helvetica,sans-Serif" font-size="10.00" fill="#e8e8e8">клуб «Haute SOS»</text>
</g>
<!-- Зал поющих кариатид&#45;&#45;клуб «Haute SOS» -->
<g id="edge59" class="edge"><title>Зал поющих кариатид&#45;&#45;клуб «Haute SOS»</title>
<path fill="none" stroke="#eeeeee" stroke-width="0.6" d="M628.868,-1493.59C575.31,-1538.04 438.442,-1651.64 386.035,-1695.14"/>
</g>
<!-- Михаил Ботвинник -->
<g id="node53" class="node"><title>Михаил Ботвинник</title>
<ellipse fill="#2f2f2f" stroke="#ececec" stroke-width="0.6" cx="621.943" cy="-1708.04" rx="62.2967" ry="18"/>
<text text-anchor="middle" x="621.943" y="-1705.54" font-family="Helvetica,sans-Serif" font-size="10.00" fill="#ececec">Михаил Ботвинник</text>
</g>
<!-- Зал поющих кариатид&#45;&#45;Михаил Ботвинник -->
<g id="edge60" class="edge"><title>Зал поющих кариатид&#45;&#45;Михаил Ботвинник</title>
<path fill="none" stroke="#eeeeee" stroke-width="0.6" d="M648.541,-1493.64C643.145,-1537.13 629.582,-1646.46 624.197,-1689.86"/>
</g>
<!-- Некромент -->
<g id="node23" class="node"><title>Некромент</title>
<polygon fill="#181818" stroke="#090909" stroke-width="0.8" points="1282.73,-1134.5 1214.73,-1134.5 1214.73,-1098.5 1282.73,-1098.5 1282.73,-1134.5"/>
<text text-anchor="middle" x="1248.73" y="-1114" font-family="Helvetica,sans-Serif" font-size="10.00" fill="#fefefe">Некромент</text>
</g>
<!-- Дупин -->
<g id="node44" class="node"><title>Дупин</title>
<ellipse fill="#2f2f2f" stroke="#ececec" stroke-width="0.6" cx="1075.35" cy="-1060.31" rx="27.8353" ry="18"/>
<text text-anchor="middle" x="1075.35" y="-1057.81" font-family="Helvetica,sans-Serif" font-size="10.00" fill="#ececec">Дупин</text>
</g>
<!-- Некромент&#45;&#45;Дупин -->
<g id="edge61" class="edge"><title>Некромент&#45;&#45;Дупин</title>
<path fill="none" stroke="#eeeeee" stroke-width="0.6" d="M1214.48,-1105.4C1180.82,-1094.5 1130.28,-1078.12 1100.28,-1068.39"/>
</g>
<!-- Макар Гетман -->
<g id="node50" class="node"><title>Макар Гетман</title>
<ellipse fill="#2f2f2f" stroke="#ececec" stroke-width="0.6" cx="1457.21" cy="-1405.57" rx="48.7185" ry="18"/>
<text text-anchor="middle" x="1457.21" y="-1403.07" font-family="Helvetica,sans-Serif" font-size="10.00" fill="#ececec">Макар Гетман</text>
</g>
<!-- Некромент&#45;&#45;Макар Гетман -->
<g id="edge62" class="edge"><title>Некромент&#45;&#45;Макар Гетман</title>
<path fill="none" stroke="#eeeeee" stroke-width="0.6" d="M1261.77,-1134.59C1299.3,-1186.62 1407.25,-1336.3 1444.44,-1387.86"/>
</g>
<!-- Пространство Фридмана -->
<g id="node24" class="node"><title>Пространство Фридмана</title>
<polygon fill="#181818" stroke="#090909" stroke-width="0.8" points="653.417,-1332.38 518.417,-1332.38 518.417,-1296.38 653.417,-1296.38 653.417,-1332.38"/>
<text text-anchor="middle" x="585.917" y="-1311.88" font-family="Helvetica,sans-Serif" font-size="10.00" fill="#fefefe">Пространство Фридмана</text>
</g>
<!-- Пространство Фридмана&#45;&#45;генерал Шмыга -->
<g id="edge63" class="edge"><title>Пространство Фридмана&#45;&#45;генерал Шмыга</title>
<path fill="none" stroke="#eeeeee" stroke-width="0.6" d="M595.279,-1296.14C610.548,-1266.39 640.62,-1207.79 655.721,-1178.37"/>
</g>
<!-- t -->
<g id="node25" class="node"><title>t</title>
<polygon fill="#181818" stroke="#090909" stroke-width="0.8" points="423.99,-1137.21 369.99,-1137.21 369.99,-1101.21 423.99,-1101.21 423.99,-1137.21"/>
<text text-anchor="middle" x="396.99" y="-1116.71" font-family="Helvetica,sans-Serif" font-size="10.00" fill="#fefefe">t</text>
</g>
<!-- t&#45;&#45;А Хули -->
<g id="edge64" class="edge"><title>t&#45;&#45;А Хули</title>
<path fill="none" stroke="#eeeeee" stroke-width="0.6" d="M395.356,-1101.12C392.471,-1069.17 386.507,-1003.1 383.623,-971.165"/>
</g>
<!-- t&#45;&#45;генерал Шмыга -->
<g id="edge65" class="edge"><title>t&#45;&#45;генерал Шмыга</title>
<path fill="none" stroke="#eeeeee" stroke-width="0.6" d="M424.146,-1123.41C469.629,-1130.45 561.737,-1144.69 617.889,-1153.37"/>
</g>
<!-- t&#45;&#45;граф Т. -->
<g id="edge66" class="edge"><title>t&#45;&#45;граф Т.</title>
<path fill="none" stroke="#eeeeee" stroke-width="0.6" d="M408.316,-1137.57C426.201,-1167.67 460.395,-1229.97 474.462,-1287.9 492.284,-1361.31 488.669,-1452.39 486.056,-1490.47"/>
</g>
<!-- t&#45;&#45;лама Джамбон Тулку -->
<g id="edge67" class="edge"><title>t&#45;&#45;лама Джамбон Тулку</title>
<path fill="none" stroke="#eeeeee" stroke-width="0.6" d="M424.238,-1130.99C444.909,-1139.93 473.506,-1152.29 495.994,-1162.02"/>
</g>
<!-- t&#45;&#45;Лев Толстой -->
<g id="edge68" class="edge"><title>t&#45;&#45;Лев Толстой</title>
<path fill="none" stroke="#eeeeee" stroke-width="0.6" d="M409.324,-1101.21C430.826,-1069.82 474.912,-1005.47 496.215,-974.369"/>
</g>
<!-- t&#45;&#45;Померанцев (Константин Победоносцев) -->
<g id="edge69" class="edge"><title>t&#45;&#45;Померанцев (Константин Победоносцев)</title>
<path fill="none" stroke="#eeeeee" stroke-width="0.6" d="M369.948,-1106.99C342.477,-1094.57 299.698,-1075.22 268.859,-1061.28"/>
</g>
<!-- t&#45;&#45;Чапаев -->
<g id="edge70" class="edge"><title>t&#45;&#45;Чапаев</title>
<path fill="none" stroke="#eeeeee" stroke-width="0.6" d="M375.704,-1137.34C345.142,-1163.37 289.415,-1210.83 261.224,-1234.84"/>
</g>
<!-- Зенитные кодексы Аль&#45;Эфесби -->
<g id="node26" class="node"><title>Зенитные кодексы Аль&#45;Эфесби</title>
<polygon fill="#181818" stroke="#090909" stroke-width="0.8" points="1158.25,-1220.82 992.254,-1220.82 992.254,-1184.82 1158.25,-1184.82 1158.25,-1220.82"/>
<text text-anchor="middle" x="1075.25" y="-1200.32" font-family="Helvetica,sans-Serif" font-size="10.00" fill="#fefefe">Зенитные кодексы Аль&#45;Эфесби</text>
</g>
<!-- БПЛА -->
<g id="node37" class="node"><title>БПЛА</title>
<polygon fill="none" stroke="#e8e8e8" stroke-width="0.6" points="1256.72,-1279.68 1258.49,-1279.78 1260.25,-1279.92 1261.98,-1280.12 1263.68,-1280.36 1265.34,-1280.66 1266.96,-1280.99 1268.52,-1281.38 1270.02,-1281.8 1271.46,-1282.28 1272.83,-1282.79 1274.13,-1283.34 1275.35,-1283.94 1276.49,-1284.57 1277.54,-1285.23 1278.51,-1285.93 1279.38,-1286.67 1280.16,-1287.43 1280.85,-1288.22 1281.44,-1289.04 1281.94,-1289.88 1282.34,-1290.74 1282.65,-1291.62 1282.87,-1292.51 1282.99,-1293.43 1283.02,-1294.35 1282.97,-1295.28 1282.83,-1296.22 1282.61,-1297.16 1282.3,-1298.1 1281.92,-1299.04 1281.47,-1299.98 1280.95,-1300.91 1280.37,-1301.83 1279.72,-1302.74 1279.02,-1303.64 1278.26,-1304.52 1277.45,-1305.38 1276.6,-1306.22 1275.7,-1307.04 1274.77,-1307.83 1273.8,-1308.59 1272.8,-1309.32 1271.77,-1310.02 1270.72,-1310.69 1269.64,-1311.32 1268.55,-1311.91 1267.44,-1312.47 1266.31,-1312.98 1265.18,-1313.45 1264.03,-1313.88 1262.87,-1314.26 1261.71,-1314.6 1260.54,-1314.89 1259.36,-1315.14 1258.18,-1315.33 1257,-1315.48 1255.81,-1315.58 1254.63,-1315.63 1253.44,-1315.63 1252.26,-1315.58 1251.07,-1315.48 1249.89,-1315.33 1248.71,-1315.14 1247.53,-1314.89 1246.36,-1314.6 1245.2,-1314.26 1244.04,-1313.88 1242.89,-1313.45 1241.75,-1312.98 1240.63,-1312.47 1239.52,-1311.91 1238.42,-1311.32 1237.35,-1310.69 1236.3,-1310.02 1235.27,-1309.32 1234.27,-1308.59 1233.3,-1307.83 1232.37,-1307.04 1231.47,-1306.22 1230.62,-1305.38 1229.81,-1304.52 1229.05,-1303.64 1228.35,-1302.74 1227.7,-1301.83 1227.12,-1300.91 1226.6,-1299.98 1226.14,-1299.04 1225.77,-1298.1 1225.46,-1297.16 1225.24,-1296.22 1225.1,-1295.28 1225.05,-1294.35 1225.08,-1293.43 1225.2,-1292.51 1225.42,-1291.62 1225.73,-1290.74 1226.13,-1289.88 1226.63,-1289.04 1227.22,-1288.22 1227.91,-1287.43 1228.69,-1286.67 1229.56,-1285.93 1230.53,-1285.23 1231.58,-1284.57 1232.72,-1283.94 1233.94,-1283.34 1235.23,-1282.79 1236.61,-1282.28 1238.05,-1281.8 1239.55,-1281.38 1241.11,-1280.99 1242.73,-1280.66 1244.39,-1280.36 1246.09,-1280.12 1247.82,-1279.92 1249.58,-1279.78 1251.35,-1279.68 1253.14,-1279.63 1254.93,-1279.63 1256.72,-1279.68"/>
<text text-anchor="middle" x="1254.03" y="-1295.13" font-family="Helvetica,sans-Serif" font-size="10.00" fill="#e8e8e8">БПЛА</text>
</g>
<!-- Зенитные кодексы Аль&#45;Эфесби&#45;&#45;БПЛА -->
<g id="edge71" class="edge"><title>Зенитные кодексы Аль&#45;Эфесби&#45;&#45;БПЛА</title>
<path fill="none" stroke="#eeeeee" stroke-width="0.6" d="M1109.3,-1220.87C1144.76,-1239.68 1199.37,-1268.64 1230.38,-1285.09"/>
</g>
<!-- Зенитные кодексы Аль&#45;Эфесби&#45;&#45;Макар Гетман -->
<g id="edge72" class="edge"><title>Зенитные кодексы Аль&#45;Эфесби&#45;&#45;Макар Гетман</title>
<path fill="none" stroke="#eeeeee" stroke-width="0.6" d="M1101.12,-1220.91C1132.6,-1242.85 1187.43,-1280.85 1234.98,-1312.67 1293.89,-1352.09 1372.21,-1380.04 1418.42,-1394.42"/>
</g>
<!-- Зенитные кодексы Аль&#45;Эфесби&#45;&#45;Семён Левитан -->
<g id="edge73" class="edge"><title>Зенитные кодексы Аль&#45;Эфесби&#45;&#45;Семён Левитан</title>
<path fill="none" stroke="#eeeeee" stroke-width="0.6" d="M1013.66,-1184.81C997.432,-1180.07 980.355,-1175.07 965.624,-1170.77"/>
</g>
<!-- Операция «Burning Bush» -->
<g id="node27" class="node"><title>Операция «Burning Bush»</title>
<polygon fill="#181818" stroke="#090909" stroke-width="0.8" points="1001.65,-1026.77 866.653,-1026.77 866.653,-990.774 1001.65,-990.774 1001.65,-1026.77"/>
<text text-anchor="middle" x="934.153" y="-1006.27" font-family="Helvetica,sans-Serif" font-size="10.00" fill="#fefefe">Операция «Burning Bush»</text>
</g>
<!-- Операция «Burning Bush»&#45;&#45;Вавилен Татарский -->
<g id="edge74" class="edge"><title>Операция «Burning Bush»&#45;&#45;Вавилен Татарский</title>
<path fill="none" stroke="#eeeeee" stroke-width="0.6" d="M897.941,-990.654C860.76,-972.049 803.481,-943.387 768.149,-925.706"/>
</g>
<!-- Операция «Burning Bush»&#45;&#45;генерал Шмыга -->
<g id="edge75" class="edge"><title>Операция «Burning Bush»&#45;&#45;генерал Шмыга</title>
<path fill="none" stroke="#eeeeee" stroke-width="0.6" d="M902.2,-1026.79C848.833,-1056.88 742.481,-1116.84 692.277,-1145.15"/>
</g>
<!-- Операция «Burning Bush»&#45;&#45;Дупин -->
<g id="edge76" class="edge"><title>Операция «Burning Bush»&#45;&#45;Дупин</title>
<path fill="none" stroke="#eeeeee" stroke-width="0.6" d="M983.536,-1026.8C1006.44,-1035.16 1032.63,-1044.72 1051.16,-1051.48"/>
</g>
<!-- Олег -->
<g id="node59" class="node"><title>Олег</title>
<ellipse fill="#2f2f2f" stroke="#ececec" stroke-width="0.6" cx="1077.63" cy="-925.115" rx="27" ry="18"/>
<text text-anchor="middle" x="1077.63" y="-922.615" font-family="Helvetica,sans-Serif" font-size="10.00" fill="#ececec">Олег</text>
</g>
<!-- Операция «Burning Bush»&#45;&#45;Олег -->
<g id="edge77" class="edge"><title>Операция «Burning Bush»&#45;&#45;Олег</title>
<path fill="none" stroke="#eeeeee" stroke-width="0.6" d="M965.286,-990.622C993.143,-974.379 1033.18,-951.033 1057.18,-937.042"/>
</g>
<!-- Операция «Burning Bush»&#45;&#45;Семён Левитан -->
<g id="edge78" class="edge"><title>Операция «Burning Bush»&#45;&#45;Семён Левитан</title>
<path fill="none" stroke="#eeeeee" stroke-width="0.6" d="M933.162,-1026.92C931.583,-1055.82 928.513,-1112.01 926.932,-1140.96"/>
</g>
<!-- треугольное существо -->
<g id="node74" class="node"><title>треугольное существо</title>
<polygon fill="none" stroke="#e8e8e8" stroke-width="0.6" points="990.583,-795.291 995.222,-795.39 999.812,-795.537 1004.34,-795.733 1008.77,-795.977 1013.11,-796.268 1017.33,-796.606 1021.41,-796.99 1025.33,-797.418 1029.09,-797.889 1032.68,-798.402 1036.06,-798.956 1039.25,-799.55 1042.22,-800.18 1044.97,-800.847 1047.49,-801.548 1049.77,-802.28 1051.81,-803.043 1053.61,-803.833 1055.15,-804.65 1056.46,-805.49 1057.51,-806.351 1058.31,-807.231 1058.88,-808.128 1059.2,-809.038 1059.28,-809.96 1059.14,-810.891 1058.78,-811.829 1058.19,-812.77 1057.4,-813.713 1056.41,-814.654 1055.24,-815.592 1053.88,-816.523 1052.35,-817.445 1050.66,-818.356 1048.82,-819.252 1046.84,-820.132 1044.73,-820.994 1042.5,-821.833 1040.16,-822.65 1037.72,-823.44 1035.19,-824.203 1032.58,-824.936 1029.9,-825.636 1027.15,-826.303 1024.34,-826.934 1021.49,-827.527 1018.59,-828.081 1015.65,-828.594 1012.68,-829.066 1009.68,-829.494 1006.66,-829.877 1003.61,-830.215 1000.56,-830.506 997.485,-830.75 994.404,-830.946 991.316,-831.094 988.223,-831.192 985.126,-831.242 982.029,-831.242 978.933,-831.192 975.839,-831.094 972.751,-830.946 969.671,-830.75 966.6,-830.506 963.542,-830.215 960.5,-829.877 957.478,-829.494 954.478,-829.066 951.507,-828.594 948.568,-828.081 945.668,-827.527 942.811,-826.934 940.005,-826.303 937.256,-825.636 934.573,-824.936 931.962,-824.203 929.433,-823.44 926.995,-822.65 924.657,-821.833 922.428,-820.994 920.318,-820.132 918.338,-819.252 916.498,-818.356 914.808,-817.445 913.278,-816.523 911.919,-815.592 910.74,-814.654 909.751,-813.713 908.962,-812.77 908.38,-811.829 908.013,-810.891 907.87,-809.96 907.957,-809.038 908.279,-808.128 908.841,-807.231 909.647,-806.351 910.7,-805.49 912,-804.65 913.549,-803.833 915.345,-803.043 917.385,-802.28 919.667,-801.548 922.186,-800.847 924.934,-800.18 927.906,-799.55 931.091,-798.956 934.48,-798.402 938.061,-797.889 941.822,-797.418 945.75,-796.99 949.829,-796.606 954.045,-796.268 958.381,-795.977 962.819,-795.733 967.343,-795.537 971.934,-795.39 976.572,-795.291 981.239,-795.242 985.916,-795.242 990.583,-795.291"/>
<text text-anchor="middle" x="983.578" y="-810.742" font-family="Helvetica,sans-Serif" font-size="10.00" fill="#e8e8e8">треугольное существо</text>
</g>
<!-- Операция «Burning Bush»&#45;&#45;треугольное существо -->
<g id="edge79" class="edge"><title>Операция «Burning Bush»&#45;&#45;треугольное существо</title>
<path fill="none" stroke="#eeeeee" stroke-width="0.6" d="M938.714,-990.73C948.13,-953.48 969.621,-868.455 979.027,-831.243"/>
</g>
<!-- Отель хороших воплощений -->
<g id="node28" class="node"><title>Отель хороших воплощений</title>
<polygon fill="#181818" stroke="#090909" stroke-width="0.8" points="1388.07,-760.047 1242.07,-760.047 1242.07,-724.047 1388.07,-724.047 1388.07,-760.047"/>
<text text-anchor="middle" x="1315.07" y="-739.547" font-family="Helvetica,sans-Serif" font-size="10.00" fill="#fefefe">Отель хороших воплощений</text>
</g>
<!-- Отель хороших воплощений&#45;&#45;треугольное существо -->
<g id="edge80" class="edge"><title>Отель хороших воплощений&#45;&#45;треугольное существо</title>
<path fill="none" stroke="#eeeeee" stroke-width="0.6" d="M1241.69,-759.265C1211.61,-766.206 1176.42,-774.174 1144.48,-781.017 1112.17,-787.943 1076.1,-795.209 1046.32,-801.084"/>
</g>
<!-- Созерцатель тени -->
<g id="node29" class="node"><title>Созерцатель тени</title>
<polygon fill="#181818" stroke="#090909" stroke-width="0.8" points="1319.32,-963.831 1216.32,-963.831 1216.32,-927.831 1319.32,-927.831 1319.32,-963.831"/>
<text text-anchor="middle" x="1267.82" y="-943.331" font-family="Helvetica,sans-Serif" font-size="10.00" fill="#fefefe">Созерцатель тени</text>
</g>
<!-- Борис -->
<g id="node36" class="node"><title>Борис</title>
<ellipse fill="#2f2f2f" stroke="#ececec" stroke-width="0.6" cx="1459.04" cy="-1137.8" rx="27.1572" ry="18"/>
<text text-anchor="middle" x="1459.04" y="-1135.3" font-family="Helvetica,sans-Serif" font-size="10.00" fill="#ececec">Борис</text>
</g>
<!-- Созерцатель тени&#45;&#45;Борис -->
<g id="edge81" class="edge"><title>Созерцатель тени&#45;&#45;Борис</title>
<path fill="none" stroke="#eeeeee" stroke-width="0.6" d="M1285.81,-963.891C1323.28,-1001.51 1409.08,-1087.65 1443.92,-1122.63"/>
</g>
<!-- Созерцатель тени&#45;&#45;Олег -->
<g id="edge82" class="edge"><title>Созерцатель тени&#45;&#45;Олег</title>
<path fill="none" stroke="#eeeeee" stroke-width="0.6" d="M1216.1,-940.197C1180.02,-936.268 1133.34,-931.183 1104.45,-928.036"/>
</g>
<!-- Созерцатель тени&#45;&#45;треугольное существо -->
<g id="edge83" class="edge"><title>Созерцатель тени&#45;&#45;треугольное существо</title>
<path fill="none" stroke="#eeeeee" stroke-width="0.6" d="M1229.19,-927.811C1172.88,-901.542 1069.21,-853.187 1016.39,-828.546"/>
</g>
<!-- Тхаги -->
<g id="node30" class="node"><title>Тхаги</title>
<polygon fill="#181818" stroke="#090909" stroke-width="0.8" points="1500.68,-902.967 1446.68,-902.967 1446.68,-866.967 1500.68,-866.967 1500.68,-902.967"/>
<text text-anchor="middle" x="1473.68" y="-882.467" font-family="Helvetica,sans-Serif" font-size="10.00" fill="#fefefe">Тхаги</text>
</g>
<!-- Тхаги&#45;&#45;Борис -->
<g id="edge84" class="edge"><title>Тхаги&#45;&#45;Борис</title>
<path fill="none" stroke="#eeeeee" stroke-width="0.6" d="M1472.63,-903.151C1469.93,-949.801 1462.77,-1073.32 1460.08,-1119.79"/>
</g>
<!-- S.N.U.F.F. -->
<g id="node31" class="node"><title>S.N.U.F.F.</title>
<polygon fill="#181818" stroke="#090909" stroke-width="0.8" points="1073.55,-1372.04 1008.55,-1372.04 1008.55,-1336.04 1073.55,-1336.04 1073.55,-1372.04"/>
<text text-anchor="middle" x="1041.05" y="-1351.54" font-family="Helvetica,sans-Serif" font-size="10.00" fill="#fefefe">S.N.U.F.F.</text>
</g>
<!-- Ацтланский календарь -->
<g id="node35" class="node"><title>Ацтланский календарь</title>
<polygon fill="none" stroke="#e8e8e8" stroke-width="0.6" points="990.567,-1510.71 995.36,-1510.81 1000.1,-1510.95 1004.78,-1511.15 1009.36,-1511.39 1013.84,-1511.68 1018.2,-1512.02 1022.41,-1512.41 1026.47,-1512.83 1030.36,-1513.3 1034.06,-1513.82 1037.56,-1514.37 1040.85,-1514.97 1043.92,-1515.6 1046.76,-1516.26 1049.36,-1516.96 1051.72,-1517.7 1053.83,-1518.46 1055.68,-1519.25 1057.28,-1520.07 1058.63,-1520.91 1059.72,-1521.77 1060.55,-1522.65 1061.13,-1523.54 1061.46,-1524.45 1061.55,-1525.38 1061.4,-1526.31 1061.03,-1527.24 1060.42,-1528.19 1059.61,-1529.13 1058.59,-1530.07 1057.37,-1531.01 1055.96,-1531.94 1054.38,-1532.86 1052.64,-1533.77 1050.74,-1534.67 1048.69,-1535.55 1046.51,-1536.41 1044.21,-1537.25 1041.79,-1538.07 1039.27,-1538.86 1036.66,-1539.62 1033.96,-1540.35 1031.19,-1541.05 1028.35,-1541.72 1025.45,-1542.35 1022.5,-1542.94 1019.5,-1543.5 1016.46,-1544.01 1013.39,-1544.48 1010.3,-1544.91 1007.17,-1545.29 1004.03,-1545.63 1000.87,-1545.92 997.698,-1546.17 994.515,-1546.36 991.324,-1546.51 988.128,-1546.61 984.929,-1546.66 981.729,-1546.66 978.53,-1546.61 975.334,-1546.51 972.143,-1546.36 968.96,-1546.17 965.787,-1545.92 962.628,-1545.63 959.485,-1545.29 956.362,-1544.91 953.263,-1544.48 950.193,-1544.01 947.156,-1543.5 944.159,-1542.94 941.208,-1542.35 938.309,-1541.72 935.469,-1541.05 932.696,-1540.35 929.999,-1539.62 927.386,-1538.86 924.867,-1538.07 922.45,-1537.25 920.147,-1536.41 917.968,-1535.55 915.922,-1534.67 914.021,-1533.77 912.275,-1532.86 910.694,-1531.94 909.29,-1531.01 908.072,-1530.07 907.05,-1529.13 906.234,-1528.19 905.633,-1527.24 905.254,-1526.31 905.106,-1525.38 905.196,-1524.45 905.529,-1523.54 906.11,-1522.65 906.942,-1521.77 908.03,-1520.91 909.374,-1520.07 910.974,-1519.25 912.829,-1518.46 914.938,-1517.7 917.296,-1516.96 919.898,-1516.26 922.738,-1515.6 925.807,-1514.97 929.098,-1514.37 932.6,-1513.82 936.3,-1513.3 940.186,-1512.83 944.244,-1512.41 948.459,-1512.02 952.815,-1511.68 957.295,-1511.39 961.881,-1511.15 966.555,-1510.95 971.298,-1510.81 976.09,-1510.71 980.913,-1510.66 985.745,-1510.66 990.567,-1510.71"/>
<text text-anchor="middle" x="983.329" y="-1526.16" font-family="Helvetica,sans-Serif" font-size="10.00" fill="#e8e8e8">Ацтланский календарь</text>
</g>
<!-- S.N.U.F.F.&#45;&#45;Ацтланский календарь -->
<g id="edge85" class="edge"><title>S.N.U.F.F.&#45;&#45;Ацтланский календарь</title>
<path fill="none" stroke="#eeeeee" stroke-width="0.6" d="M1035.09,-1372.07C1024.03,-1405.53 1000.44,-1476.88 989.343,-1510.46"/>
</g>
<!-- S.N.U.F.F.&#45;&#45;БПЛА -->
<g id="edge86" class="edge"><title>S.N.U.F.F.&#45;&#45;БПЛА</title>
<path fill="none" stroke="#eeeeee" stroke-width="0.6" d="M1073.86,-1345.35C1116.69,-1334.01 1190.69,-1314.41 1229.17,-1304.21"/>
</g>
<!-- гигантская летучая мышь -->
<g id="node42" class="node"><title>гигантская летучая мышь</title>
<polygon fill="none" stroke="#e8e8e8" stroke-width="0.6" points="870.439,-1700.03 875.647,-1700.13 880.802,-1700.28 885.882,-1700.47 890.866,-1700.72 895.735,-1701.01 900.469,-1701.34 905.05,-1701.73 909.46,-1702.16 913.684,-1702.63 917.706,-1703.14 921.511,-1703.69 925.088,-1704.29 928.424,-1704.92 931.511,-1705.59 934.339,-1706.29 936.901,-1707.02 939.193,-1707.78 941.209,-1708.57 942.948,-1709.39 944.409,-1710.23 945.591,-1711.09 946.496,-1711.97 947.127,-1712.87 947.489,-1713.78 947.586,-1714.7 947.425,-1715.63 947.014,-1716.57 946.361,-1717.51 945.474,-1718.45 944.363,-1719.39 943.039,-1720.33 941.513,-1721.26 939.795,-1722.18 937.898,-1723.09 935.831,-1723.99 933.608,-1724.87 931.239,-1725.73 928.736,-1726.57 926.11,-1727.39 923.372,-1728.18 920.532,-1728.94 917.601,-1729.67 914.588,-1730.37 911.501,-1731.04 908.35,-1731.67 905.142,-1732.27 901.885,-1732.82 898.585,-1733.33 895.248,-1733.8 891.88,-1734.23 888.486,-1734.62 885.07,-1734.95 881.636,-1735.24 878.188,-1735.49 874.729,-1735.68 871.261,-1735.83 867.788,-1735.93 864.311,-1735.98 860.833,-1735.98 857.356,-1735.93 853.882,-1735.83 850.414,-1735.68 846.955,-1735.49 843.507,-1735.24 840.073,-1734.95 836.657,-1734.62 833.263,-1734.23 829.895,-1733.8 826.558,-1733.33 823.258,-1732.82 820.001,-1732.27 816.793,-1731.67 813.642,-1731.04 810.556,-1730.37 807.542,-1729.67 804.611,-1728.94 801.771,-1728.18 799.033,-1727.39 796.407,-1726.57 793.904,-1725.73 791.535,-1724.87 789.312,-1723.99 787.246,-1723.09 785.348,-1722.18 783.63,-1721.26 782.104,-1720.33 780.78,-1719.39 779.67,-1718.45 778.783,-1717.51 778.129,-1716.57 777.718,-1715.63 777.557,-1714.7 777.654,-1713.78 778.016,-1712.87 778.647,-1711.97 779.553,-1711.09 780.735,-1710.23 782.195,-1709.39 783.934,-1708.57 785.951,-1707.78 788.242,-1707.02 790.805,-1706.29 793.633,-1705.59 796.719,-1704.92 800.056,-1704.29 803.632,-1703.69 807.438,-1703.14 811.459,-1702.63 815.683,-1702.16 820.093,-1701.73 824.674,-1701.34 829.408,-1701.01 834.277,-1700.72 839.262,-1700.47 844.341,-1700.28 849.496,-1700.13 854.705,-1700.03 859.946,-1699.98 865.198,-1699.98 870.439,-1700.03"/>
<text text-anchor="middle" x="862.572" y="-1715.48" font-family="Helvetica,sans-Serif" font-size="10.00" fill="#e8e8e8">гигантская летучая мышь</text>
</g>
<!-- S.N.U.F.F.&#45;&#45;гигантская летучая мышь -->
<g id="edge87" class="edge"><title>S.N.U.F.F.&#45;&#45;гигантская летучая мышь</title>
<path fill="none" stroke="#eeeeee" stroke-width="0.6" d="M1020.99,-1372.2C990.389,-1401.09 932.423,-1460.68 902.198,-1523.33 873.129,-1583.59 865.361,-1664.3 863.303,-1699.86"/>
</g>
<!-- Еврайх -->
<g id="node45" class="node"><title>Еврайх</title>
<polygon fill="none" stroke="#e8e8e8" stroke-width="0.6" points="1223.9,-1489.61 1225.86,-1489.71 1227.79,-1489.86 1229.7,-1490.05 1231.58,-1490.3 1233.41,-1490.59 1235.18,-1490.93 1236.91,-1491.31 1238.56,-1491.74 1240.15,-1492.21 1241.66,-1492.72 1243.09,-1493.28 1244.43,-1493.87 1245.69,-1494.5 1246.85,-1495.17 1247.91,-1495.87 1248.87,-1496.6 1249.73,-1497.36 1250.49,-1498.15 1251.15,-1498.97 1251.69,-1499.81 1252.14,-1500.67 1252.48,-1501.55 1252.72,-1502.45 1252.85,-1503.36 1252.89,-1504.28 1252.83,-1505.21 1252.67,-1506.15 1252.43,-1507.09 1252.09,-1508.03 1251.68,-1508.98 1251.18,-1509.91 1250.61,-1510.84 1249.96,-1511.77 1249.25,-1512.68 1248.47,-1513.57 1247.64,-1514.45 1246.75,-1515.31 1245.81,-1516.15 1244.82,-1516.97 1243.79,-1517.76 1242.72,-1518.52 1241.62,-1519.26 1240.49,-1519.96 1239.33,-1520.62 1238.15,-1521.26 1236.94,-1521.85 1235.72,-1522.4 1234.48,-1522.92 1233.22,-1523.39 1231.96,-1523.82 1230.68,-1524.2 1229.4,-1524.54 1228.11,-1524.83 1226.81,-1525.07 1225.51,-1525.27 1224.21,-1525.42 1222.9,-1525.51 1221.6,-1525.56 1220.29,-1525.56 1218.99,-1525.51 1217.68,-1525.42 1216.38,-1525.27 1215.08,-1525.07 1213.78,-1524.83 1212.49,-1524.54 1211.21,-1524.2 1209.93,-1523.82 1208.67,-1523.39 1207.41,-1522.92 1206.17,-1522.4 1204.95,-1521.85 1203.74,-1521.26 1202.56,-1520.62 1201.4,-1519.96 1200.27,-1519.26 1199.17,-1518.52 1198.1,-1517.76 1197.07,-1516.97 1196.09,-1516.15 1195.14,-1515.31 1194.25,-1514.45 1193.42,-1513.57 1192.64,-1512.68 1191.93,-1511.77 1191.28,-1510.84 1190.71,-1509.91 1190.21,-1508.98 1189.8,-1508.03 1189.46,-1507.09 1189.22,-1506.15 1189.06,-1505.21 1189,-1504.28 1189.04,-1503.36 1189.17,-1502.45 1189.41,-1501.55 1189.75,-1500.67 1190.2,-1499.81 1190.75,-1498.97 1191.4,-1498.15 1192.16,-1497.36 1193.02,-1496.6 1193.98,-1495.87 1195.04,-1495.17 1196.2,-1494.5 1197.46,-1493.87 1198.8,-1493.28 1200.23,-1492.72 1201.74,-1492.21 1203.33,-1491.74 1204.98,-1491.31 1206.71,-1490.93 1208.48,-1490.59 1210.31,-1490.3 1212.19,-1490.05 1214.1,-1489.86 1216.03,-1489.71 1217.99,-1489.61 1219.96,-1489.56 1221.93,-1489.56 1223.9,-1489.61"/>
<text text-anchor="middle" x="1220.95" y="-1505.06" font-family="Helvetica,sans-Serif" font-size="10.00" fill="#e8e8e8">Еврайх</text>
</g>
<!-- S.N.U.F.F.&#45;&#45;Еврайх -->
<g id="edge88" class="edge"><title>S.N.U.F.F.&#45;&#45;Еврайх</title>
<path fill="none" stroke="#eeeeee" stroke-width="0.6" d="M1062.39,-1372.25C1098.04,-1402.67 1169.08,-1463.3 1202.61,-1491.92"/>
</g>
<!-- S.N.U.F.F.&#45;&#45;Семён Левитан -->
<g id="edge89" class="edge"><title>S.N.U.F.F.&#45;&#45;Семён Левитан</title>
<path fill="none" stroke="#eeeeee" stroke-width="0.6" d="M1030.22,-1335.71C1008.17,-1298.37 958.302,-1213.95 936.488,-1177.03"/>
</g>
<!-- суры -->
<g id="node72" class="node"><title>суры</title>
<polygon fill="none" stroke="#e8e8e8" stroke-width="0.6" points="1135.66,-1701.25 1137.43,-1701.35 1139.19,-1701.5 1140.92,-1701.7 1142.62,-1701.94 1144.28,-1702.23 1145.9,-1702.57 1147.46,-1702.95 1148.96,-1703.38 1150.4,-1703.85 1151.77,-1704.36 1153.07,-1704.92 1154.29,-1705.51 1155.43,-1706.14 1156.48,-1706.81 1157.45,-1707.51 1158.32,-1708.24 1159.1,-1709.01 1159.79,-1709.8 1160.38,-1710.61 1160.88,-1711.45 1161.28,-1712.31 1161.59,-1713.19 1161.81,-1714.09 1161.93,-1715 1161.96,-1715.92 1161.91,-1716.85 1161.77,-1717.79 1161.54,-1718.73 1161.24,-1719.68 1160.86,-1720.62 1160.41,-1721.55 1159.89,-1722.49 1159.31,-1723.41 1158.66,-1724.32 1157.95,-1725.21 1157.2,-1726.09 1156.39,-1726.96 1155.54,-1727.8 1154.64,-1728.61 1153.71,-1729.4 1152.74,-1730.17 1151.74,-1730.9 1150.71,-1731.6 1149.66,-1732.27 1148.58,-1732.9 1147.49,-1733.49 1146.38,-1734.04 1145.25,-1734.56 1144.12,-1735.03 1142.97,-1735.46 1141.81,-1735.84 1140.65,-1736.18 1139.47,-1736.47 1138.3,-1736.71 1137.12,-1736.91 1135.94,-1737.06 1134.75,-1737.15 1133.57,-1737.2 1132.38,-1737.2 1131.2,-1737.15 1130.01,-1737.06 1128.83,-1736.91 1127.65,-1736.71 1126.47,-1736.47 1125.3,-1736.18 1124.14,-1735.84 1122.98,-1735.46 1121.83,-1735.03 1120.69,-1734.56 1119.57,-1734.04 1118.46,-1733.49 1117.36,-1732.9 1116.29,-1732.27 1115.24,-1731.6 1114.21,-1730.9 1113.21,-1730.17 1112.24,-1729.4 1111.31,-1728.61 1110.41,-1727.8 1109.56,-1726.96 1108.75,-1726.09 1107.99,-1725.21 1107.29,-1724.32 1106.64,-1723.41 1106.06,-1722.49 1105.54,-1721.55 1105.08,-1720.62 1104.71,-1719.68 1104.4,-1718.73 1104.18,-1717.79 1104.04,-1716.85 1103.98,-1715.92 1104.02,-1715 1104.14,-1714.09 1104.36,-1713.19 1104.67,-1712.31 1105.07,-1711.45 1105.57,-1710.61 1106.16,-1709.8 1106.85,-1709.01 1107.63,-1708.24 1108.5,-1707.51 1109.47,-1706.81 1110.52,-1706.14 1111.66,-1705.51 1112.88,-1704.92 1114.17,-1704.36 1115.54,-1703.85 1116.99,-1703.38 1118.49,-1702.95 1120.05,-1702.57 1121.67,-1702.23 1123.33,-1701.94 1125.03,-1701.7 1126.76,-1701.5 1128.52,-1701.35 1130.29,-1701.25 1132.08,-1701.2 1133.87,-1701.2 1135.66,-1701.25"/>
<text text-anchor="middle" x="1132.97" y="-1716.7" font-family="Helvetica,sans-Serif" font-size="10.00" fill="#e8e8e8">суры</text>
</g>
<!-- S.N.U.F.F.&#45;&#45;суры -->
<g id="edge90" class="edge"><title>S.N.U.F.F.&#45;&#45;суры</title>
<path fill="none" stroke="#eeeeee" stroke-width="0.6" d="M1045.61,-1372.15C1061.26,-1434.32 1112.7,-1638.65 1128.39,-1700.99"/>
</g>
<!-- Бэтман Аполло -->
<g id="node32" class="node"><title>Бэтман Аполло</title>
<polygon fill="#181818" stroke="#090909" stroke-width="0.8" points="842.133,-1518.61 756.133,-1518.61 756.133,-1482.61 842.133,-1482.61 842.133,-1518.61"/>
<text text-anchor="middle" x="799.133" y="-1498.11" font-family="Helvetica,sans-Serif" font-size="10.00" fill="#fefefe">Бэтман Аполло</text>
</g>
<!-- Бэтман Аполло&#45;&#45;Ацтланский календарь -->
<g id="edge91" class="edge"><title>Бэтман Аполло&#45;&#45;Ацтланский календарь</title>
<path fill="none" stroke="#eeeeee" stroke-width="0.6" d="M842.318,-1507.19C863.585,-1510.43 889.754,-1514.41 913.75,-1518.06"/>
</g>
<!-- Бэтман Аполло&#45;&#45;гигантская летучая мышь -->
<g id="edge92" class="edge"><title>Бэтман Аполло&#45;&#45;гигантская летучая мышь</title>
<path fill="none" stroke="#eeeeee" stroke-width="0.6" d="M804.432,-1518.77C816.374,-1559.69 845.273,-1658.71 857.242,-1699.72"/>
</g>
<!-- Бэтман Аполло&#45;&#45;клуб «Haute SOS» -->
<g id="edge93" class="edge"><title>Бэтман Аполло&#45;&#45;клуб «Haute SOS»</title>
<path fill="none" stroke="#eeeeee" stroke-width="0.6" d="M762.134,-1518.67C678.818,-1559.34 477.583,-1657.57 398.189,-1696.33"/>
</g>
<!-- Бэтман Аполло&#45;&#45;Михаил Ботвинник -->
<g id="edge94" class="edge"><title>Бэтман Аполло&#45;&#45;Михаил Ботвинник</title>
<path fill="none" stroke="#eeeeee" stroke-width="0.6" d="M783.718,-1518.66C750.039,-1558.08 670.244,-1651.49 636.945,-1690.47"/>
</g>
<!-- Бэтман Аполло&#45;&#45;Михаил Непойман -->
<g id="edge95" class="edge"><title>Бэтман Аполло&#45;&#45;Михаил Непойман</title>
<path fill="none" stroke="#eeeeee" stroke-width="0.6" d="M793.248,-1482.56C780.663,-1443.96 751.262,-1353.79 738.69,-1315.23"/>
</g>
<!-- Бэтман Аполло&#45;&#45;Рама -->
<g id="edge96" class="edge"><title>Бэтман Аполло&#45;&#45;Рама</title>
<path fill="none" stroke="#eeeeee" stroke-width="0.6" d="M806.47,-1482.53C820.901,-1446.96 852.808,-1368.32 867.083,-1333.14"/>
</g>
<!-- Бэтман Аполло&#45;&#45;халдеи -->
<g id="edge97" class="edge"><title>Бэтман Аполло&#45;&#45;халдеи</title>
<path fill="none" stroke="#eeeeee" stroke-width="0.6" d="M798.892,-1482.13C798.099,-1421.14 795.571,-1226.68 794.782,-1165.95"/>
</g>
<!-- Любовь к трём цукербринам -->
<g id="node33" class="node"><title>Любовь к трём цукербринам</title>
<polygon fill="#181818" stroke="#090909" stroke-width="0.8" points="1501.48,-1705.08 1351.48,-1705.08 1351.48,-1669.08 1501.48,-1669.08 1501.48,-1705.08"/>
<text text-anchor="middle" x="1426.48" y="-1684.58" font-family="Helvetica,sans-Serif" font-size="10.00" fill="#fefefe">Любовь к трём цукербринам</text>
</g>
<!-- Любовь к трём цукербринам&#45;&#45;Еврайх -->
<g id="edge98" class="edge"><title>Любовь к трём цукербринам&#45;&#45;Еврайх</title>
<path fill="none" stroke="#eeeeee" stroke-width="0.6" d="M1405.64,-1668.88C1364.61,-1633.05 1274.15,-1554.04 1237.18,-1521.74"/>
</g>
<!-- Любовь к трём цукербринам&#45;&#45;суры -->
<g id="edge99" class="edge"><title>Любовь к трём цукербринам&#45;&#45;суры</title>
<path fill="none" stroke="#eeeeee" stroke-width="0.6" d="M1351.27,-1695.31C1289.62,-1702.06 1205.66,-1711.25 1162.01,-1716.03"/>
</g>
</g>
</svg>
