<?xml version="1.0" encoding="UTF-8" standalone="no"?>
<!DOCTYPE svg PUBLIC "-//W3C//DTD SVG 1.1//EN"
 "http://www.w3.org/Graphics/SVG/1.1/DTD/svg11.dtd">
<!-- Generated by graphviz version 2.36.0 (20140111.2315)
 -->
<!-- Title: %3 Pages: 1 -->
<svg width="1506pt" height="1733pt"
 viewBox="0.00 0.00 1506.16 1732.92" xmlns="http://www.w3.org/2000/svg" xmlns:xlink="http://www.w3.org/1999/xlink">
<g id="graph0" class="graph" transform="scale(1 1) rotate(0) translate(4 1728.92)">
<title>%3</title>
<polygon fill="#1f1f1f" stroke="none" points="-4,4 -4,-1728.92 1502.16,-1728.92 1502.16,4 -4,4"/>
<!-- Оружие возмездия -->
<g id="node1" class="node"><title>Оружие возмездия</title>
<polygon fill="#181818" stroke="#090909" stroke-width="0.8" points="225.204,-47.9947 118.204,-47.9947 118.204,-11.9947 225.204,-11.9947 225.204,-47.9947"/>
<text text-anchor="middle" x="171.704" y="-27.4947" font-family="Helvetica,sans-Serif" font-size="10.00" fill="#fefefe">Оружие возмездия</text>
</g>
<!-- П. Стецюк -->
<g id="node60" class="node"><title>П. Стецюк</title>
<ellipse fill="#2f2f2f" stroke="#ececec" stroke-width="0.6" cx="594.98" cy="-18" rx="39.3809" ry="18"/>
<text text-anchor="middle" x="594.98" y="-15.5" font-family="Helvetica,sans-Serif" font-size="10.00" fill="#ececec">П. Стецюк</text>
</g>
<!-- Оружие возмездия&#45;&#45;П. Стецюк -->
<g id="edge1" class="edge"><title>Оружие возмездия&#45;&#45;П. Стецюк</title>
<path fill="none" stroke="#eeeeee" stroke-width="0.6" d="M225.313,-28.4755C311.514,-26.0328 478.98,-21.2872 555.327,-19.1237"/>
</g>
<!-- Реконструктор -->
<g id="node2" class="node"><title>Реконструктор</title>
<polygon fill="#181818" stroke="#090909" stroke-width="0.8" points="495.641,-239.529 407.641,-239.529 407.641,-203.529 495.641,-203.529 495.641,-239.529"/>
<text text-anchor="middle" x="451.641" y="-219.029" font-family="Helvetica,sans-Serif" font-size="10.00" fill="#fefefe">Реконструктор</text>
</g>
<!-- Реконструктор&#45;&#45;П. Стецюк -->
<g id="edge2" class="edge"><title>Реконструктор&#45;&#45;П. Стецюк</title>
<path fill="none" stroke="#eeeeee" stroke-width="0.6" d="M464.362,-203.467C491.768,-164.552 556.075,-73.2417 582.898,-35.1555"/>
</g>
<!-- Сероб Налбандян -->
<g id="node70" class="node"><title>Сероб Налбандян</title>
<ellipse fill="#2f2f2f" stroke="#ececec" stroke-width="0.6" cx="801.952" cy="-224.193" rx="58.0561" ry="18"/>
<text text-anchor="middle" x="801.952" y="-221.693" font-family="Helvetica,sans-Serif" font-size="10.00" fill="#ececec">Сероб Налбандян</text>
</g>
<!-- Реконструктор&#45;&#45;Сероб Налбандян -->
<g id="edge3" class="edge"><title>Реконструктор&#45;&#45;Сероб Налбандян</title>
<path fill="none" stroke="#eeeeee" stroke-width="0.6" d="M495.654,-221.864C558.409,-222.341 673.715,-223.218 743.552,-223.749"/>
</g>
<!-- День бульдозериста -->
<g id="node3" class="node"><title>День бульдозериста</title>
<polygon fill="#181818" stroke="#090909" stroke-width="0.8" points="114.894,-1165.93 0.893913,-1165.93 0.893913,-1129.93 114.894,-1129.93 114.894,-1165.93"/>
<text text-anchor="middle" x="57.8939" y="-1145.43" font-family="Helvetica,sans-Serif" font-size="10.00" fill="#fefefe">День бульдозериста</text>
</g>
<!-- Померанцев (Константин Победоносцев) -->
<g id="node63" class="node"><title>Померанцев (Константин Победоносцев)</title>
<ellipse fill="#2f2f2f" stroke="#ececec" stroke-width="0.6" cx="238.528" cy="-1037.95" rx="121.707" ry="18"/>
<text text-anchor="middle" x="238.528" y="-1035.45" font-family="Helvetica,sans-Serif" font-size="10.00" fill="#ececec">Померанцев (Константин Победоносцев)</text>
</g>
<!-- День бульдозериста&#45;&#45;Померанцев (Константин Победоносцев) -->
<g id="edge4" class="edge"><title>День бульдозериста&#45;&#45;Померанцев (Константин Победоносцев)</title>
<path fill="none" stroke="#eeeeee" stroke-width="0.6" d="M87.722,-1129.77C121.491,-1109.21 176.14,-1075.94 209.553,-1055.6"/>
</g>
<!-- товарищ Бабаясин -->
<g id="node73" class="node"><title>товарищ Бабаясин</title>
<ellipse fill="#2f2f2f" stroke="#ececec" stroke-width="0.6" cx="66.1132" cy="-1395.42" rx="61.4427" ry="18"/>
<text text-anchor="middle" x="66.1132" y="-1392.92" font-family="Helvetica,sans-Serif" font-size="10.00" fill="#ececec">товарищ Бабаясин</text>
</g>
<!-- День бульдозериста&#45;&#45;товарищ Бабаясин -->
<g id="edge5" class="edge"><title>День бульдозериста&#45;&#45;товарищ Бабаясин</title>
<path fill="none" stroke="#eeeeee" stroke-width="0.6" d="M58.4983,-1166.13C60.0183,-1211.89 63.987,-1331.4 65.5079,-1377.2"/>
</g>
<!-- Миттельшпиль -->
<g id="node4" class="node"><title>Миттельшпиль</title>
<polygon fill="#181818" stroke="#090909" stroke-width="0.8" points="98.7962,-947.657 12.7962,-947.657 12.7962,-911.657 98.7962,-911.657 98.7962,-947.657"/>
<text text-anchor="middle" x="55.7962" y="-927.157" font-family="Helvetica,sans-Serif" font-size="10.00" fill="#fefefe">Миттельшпиль</text>
</g>
<!-- Нелли -->
<g id="node58" class="node"><title>Нелли</title>
<ellipse fill="#2f2f2f" stroke="#ececec" stroke-width="0.6" cx="244.224" cy="-845.934" rx="27.1572" ry="18"/>
<text text-anchor="middle" x="244.224" y="-843.434" font-family="Helvetica,sans-Serif" font-size="10.00" fill="#ececec">Нелли</text>
</g>
<!-- Миттельшпиль&#45;&#45;Нелли -->
<g id="edge6" class="edge"><title>Миттельшпиль&#45;&#45;Нелли</title>
<path fill="none" stroke="#eeeeee" stroke-width="0.6" d="M96.6824,-911.49C134.999,-894.465 190.862,-869.644 221.692,-855.946"/>
</g>
<!-- Музыка со столба -->
<g id="node5" class="node"><title>Музыка со столба</title>
<polygon fill="#181818" stroke="#090909" stroke-width="0.8" points="1426.06,-66.1164 1325.06,-66.1164 1325.06,-30.1164 1426.06,-30.1164 1426.06,-66.1164"/>
<text text-anchor="middle" x="1375.56" y="-45.6164" font-family="Helvetica,sans-Serif" font-size="10.00" fill="#fefefe">Музыка со столба</text>
</g>
<!-- Матвей (Гиммлер) -->
<g id="node52" class="node"><title>Матвей (Гиммлер)</title>
<ellipse fill="#2f2f2f" stroke="#ececec" stroke-width="0.6" cx="987.777" cy="-24.1775" rx="59.4099" ry="18"/>
<text text-anchor="middle" x="987.777" y="-21.6775" font-family="Helvetica,sans-Serif" font-size="10.00" fill="#ececec">Матвей (Гиммлер)</text>
</g>
<!-- Музыка со столба&#45;&#45;Матвей (Гиммлер) -->
<g id="edge7" class="edge"><title>Музыка со столба&#45;&#45;Матвей (Гиммлер)</title>
<path fill="none" stroke="#eeeeee" stroke-width="0.6" d="M1324.87,-44.9868C1253.01,-40.551 1121.87,-32.4556 1046.08,-27.7768"/>
</g>
<!-- Откровение Крегера -->
<g id="node6" class="node"><title>Откровение Крегера</title>
<polygon fill="#181818" stroke="#090909" stroke-width="0.8" points="1188.35,-279.282 1073.35,-279.282 1073.35,-243.282 1188.35,-243.282 1188.35,-279.282"/>
<text text-anchor="middle" x="1130.85" y="-258.782" font-family="Helvetica,sans-Serif" font-size="10.00" fill="#fefefe">Откровение Крегера</text>
</g>
<!-- Откровение Крегера&#45;&#45;Матвей (Гиммлер) -->
<g id="edge8" class="edge"><title>Откровение Крегера&#45;&#45;Матвей (Гиммлер)</title>
<path fill="none" stroke="#eeeeee" stroke-width="0.6" d="M1119.86,-243.07C1093.16,-198.827 1025.14,-86.0974 998.608,-42.1265"/>
</g>
<!-- Откровение Крегера&#45;&#45;Сероб Налбандян -->
<g id="edge9" class="edge"><title>Откровение Крегера&#45;&#45;Сероб Налбандян</title>
<path fill="none" stroke="#eeeeee" stroke-width="0.6" d="M1073.19,-254.779C1012.2,-247.902 916.71,-237.134 856.814,-230.38"/>
</g>
<!-- Принц Госплана -->
<g id="node7" class="node"><title>Принц Госплана</title>
<polygon fill="#181818" stroke="#090909" stroke-width="0.8" points="128.917,-539.541 35.9166,-539.541 35.9166,-503.541 128.917,-503.541 128.917,-539.541"/>
<text text-anchor="middle" x="82.4166" y="-519.041" font-family="Helvetica,sans-Serif" font-size="10.00" fill="#fefefe">Принц Госплана</text>
</g>
<!-- Саша Лапин -->
<g id="node68" class="node"><title>Саша Лапин</title>
<ellipse fill="#2f2f2f" stroke="#ececec" stroke-width="0.6" cx="307.933" cy="-610.571" rx="42.9448" ry="18"/>
<text text-anchor="middle" x="307.933" y="-608.071" font-family="Helvetica,sans-Serif" font-size="10.00" fill="#ececec">Саша Лапин</text>
</g>
<!-- Принц Госплана&#45;&#45;Саша Лапин -->
<g id="edge10" class="edge"><title>Принц Госплана&#45;&#45;Саша Лапин</title>
<path fill="none" stroke="#eeeeee" stroke-width="0.6" d="M128.053,-539.557C172.199,-556.985 237.925,-582.933 276.505,-598.164"/>
</g>
<!-- Проблема верволка в средней полосе -->
<g id="node8" class="node"><title>Проблема верволка в средней полосе</title>
<polygon fill="#181818" stroke="#090909" stroke-width="0.8" points="193,-295.333 0,-295.333 0,-259.333 193,-259.333 193,-295.333"/>
<text text-anchor="middle" x="96.5" y="-274.833" font-family="Helvetica,sans-Serif" font-size="10.00" fill="#fefefe">Проблема верволка в средней полосе</text>
</g>
<!-- Проблема верволка в средней полосе&#45;&#45;Саша Лапин -->
<g id="edge11" class="edge"><title>Проблема верволка в средней полосе&#45;&#45;Саша Лапин</title>
<path fill="none" stroke="#eeeeee" stroke-width="0.6" d="M108.169,-295.724C145.308,-354.258 260.456,-535.744 296.814,-593.047"/>
</g>
<!-- Омон Ра -->
<g id="node9" class="node"><title>Омон Ра</title>
<polygon fill="#181818" stroke="#090909" stroke-width="0.8" points="704.504,-416.842 648.504,-416.842 648.504,-380.842 704.504,-380.842 704.504,-416.842"/>
<text text-anchor="middle" x="676.504" y="-396.342" font-family="Helvetica,sans-Serif" font-size="10.00" fill="#fefefe">Омон Ра</text>
</g>
<!-- Бункер под Лубянкой -->
<g id="node38" class="node"><title>Бункер под Лубянкой</title>
<polygon fill="none" stroke="#e8e8e8" stroke-width="0.6" points="535.756,-489.443 540.24,-489.542 544.678,-489.689 549.052,-489.885 553.343,-490.129 557.535,-490.421 561.61,-490.758 565.554,-491.142 569.352,-491.57 572.988,-492.041 576.45,-492.555 579.726,-493.109 582.806,-493.702 585.678,-494.333 588.335,-494.999 590.77,-495.7 592.976,-496.432 594.949,-497.195 596.685,-497.986 598.183,-498.802 599.44,-499.642 600.457,-500.503 601.237,-501.383 601.78,-502.28 602.092,-503.191 602.175,-504.113 602.037,-505.044 601.683,-505.981 601.12,-506.923 600.357,-507.865 599.401,-508.807 598.261,-509.744 596.947,-510.675 595.468,-511.597 593.834,-512.508 592.055,-513.405 590.141,-514.285 588.102,-515.146 585.947,-515.986 583.686,-516.802 581.329,-517.593 578.884,-518.355 576.36,-519.088 573.766,-519.789 571.108,-520.455 568.395,-521.086 565.634,-521.679 562.829,-522.233 559.988,-522.747 557.116,-523.218 554.216,-523.646 551.294,-524.029 548.353,-524.367 545.397,-524.659 542.428,-524.903 539.45,-525.099 536.464,-525.246 533.474,-525.345 530.48,-525.394 527.486,-525.394 524.492,-525.345 521.502,-525.246 518.516,-525.099 515.538,-524.903 512.569,-524.659 509.613,-524.367 506.672,-524.029 503.75,-523.646 500.851,-523.218 497.978,-522.747 495.137,-522.233 492.332,-521.679 489.571,-521.086 486.858,-520.455 484.201,-519.789 481.606,-519.088 479.082,-518.355 476.638,-517.593 474.28,-516.802 472.02,-515.986 469.865,-515.146 467.825,-514.285 465.911,-513.405 464.132,-512.508 462.498,-511.597 461.019,-510.675 459.705,-509.744 458.565,-508.807 457.609,-507.865 456.846,-506.923 456.283,-505.981 455.929,-505.044 455.791,-504.113 455.875,-503.191 456.186,-502.28 456.729,-501.383 457.509,-500.503 458.526,-499.642 459.784,-498.802 461.281,-497.986 463.017,-497.195 464.99,-496.432 467.196,-495.7 469.631,-494.999 472.288,-494.333 475.161,-493.702 478.24,-493.109 481.516,-492.555 484.978,-492.041 488.615,-491.57 492.412,-491.142 496.356,-490.758 500.432,-490.421 504.623,-490.129 508.915,-489.885 513.288,-489.689 517.726,-489.542 522.21,-489.443 526.722,-489.394 531.244,-489.394 535.756,-489.443"/>
<text text-anchor="middle" x="528.983" y="-504.894" font-family="Helvetica,sans-Serif" font-size="10.00" fill="#e8e8e8">Бункер под Лубянкой</text>
</g>
<!-- Омон Ра&#45;&#45;Бункер под Лубянкой -->
<g id="edge12" class="edge"><title>Омон Ра&#45;&#45;Бункер под Лубянкой</title>
<path fill="none" stroke="#eeeeee" stroke-width="0.6" d="M651.812,-417.011C624.252,-437.29 579.967,-469.878 552.777,-489.885"/>
</g>
<!-- Омон Ра&#45;&#45;Сероб Налбандян -->
<g id="edge13" class="edge"><title>Омон Ра&#45;&#45;Сероб Налбандян</title>
<path fill="none" stroke="#eeeeee" stroke-width="0.6" d="M689.456,-380.809C713.62,-347.168 765.289,-275.235 789.257,-241.867"/>
</g>
<!-- Чапаев и Пустота -->
<g id="node10" class="node"><title>Чапаев и Пустота</title>
<polygon fill="#181818" stroke="#090909" stroke-width="0.8" points="475.198,-1311.04 374.198,-1311.04 374.198,-1275.04 475.198,-1275.04 475.198,-1311.04"/>
<text text-anchor="middle" x="424.698" y="-1290.54" font-family="Helvetica,sans-Serif" font-size="10.00" fill="#fefefe">Чапаев и Пустота</text>
</g>
<!-- Вовчик Малой -->
<g id="node40" class="node"><title>Вовчик Малой</title>
<ellipse fill="#2f2f2f" stroke="#ececec" stroke-width="0.6" cx="563.401" cy="-1052.92" rx="48.7185" ry="18"/>
<text text-anchor="middle" x="563.401" y="-1050.42" font-family="Helvetica,sans-Serif" font-size="10.00" fill="#ececec">Вовчик Малой</text>
</g>
<!-- Чапаев и Пустота&#45;&#45;Вовчик Малой -->
<g id="edge14" class="edge"><title>Чапаев и Пустота&#45;&#45;Вовчик Малой</title>
<path fill="none" stroke="#eeeeee" stroke-width="0.6" d="M427.457,-1274.93C431.807,-1249.99 441.793,-1204.24 460.844,-1169.61 483.074,-1129.2 521.366,-1090.71 544.343,-1069.61"/>
</g>
<!-- граф Т. -->
<g id="node43" class="node"><title>граф Т.</title>
<ellipse fill="#2f2f2f" stroke="#ececec" stroke-width="0.6" cx="489.263" cy="-1490.11" rx="31.3996" ry="18"/>
<text text-anchor="middle" x="489.263" y="-1487.61" font-family="Helvetica,sans-Serif" font-size="10.00" fill="#ececec">граф Т.</text>
</g>
<!-- Чапаев и Пустота&#45;&#45;граф Т. -->
<g id="edge15" class="edge"><title>Чапаев и Пустота&#45;&#45;граф Т.</title>
<path fill="none" stroke="#eeeeee" stroke-width="0.6" d="M430.656,-1311.23C442.987,-1348.87 471.174,-1434.9 483.412,-1472.25"/>
</g>
<!-- лама Джамбон Тулку -->
<g id="node47" class="node"><title>лама Джамбон Тулку</title>
<ellipse fill="#2f2f2f" stroke="#ececec" stroke-width="0.6" cx="530.14" cy="-1169.66" rx="67.893" ry="18"/>
<text text-anchor="middle" x="530.14" y="-1167.16" font-family="Helvetica,sans-Serif" font-size="10.00" fill="#ececec">лама Джамбон Тулку</text>
</g>
<!-- Чапаев и Пустота&#45;&#45;лама Джамбон Тулку -->
<g id="edge16" class="edge"><title>Чапаев и Пустота&#45;&#45;лама Джамбон Тулку</title>
<path fill="none" stroke="#eeeeee" stroke-width="0.6" d="M440.256,-1274.84C460.306,-1251.38 494.947,-1210.84 514.861,-1187.54"/>
</g>
<!-- Петр Пустота -->
<g id="node62" class="node"><title>Петр Пустота</title>
<ellipse fill="#2f2f2f" stroke="#ececec" stroke-width="0.6" cx="283.257" cy="-1464.86" rx="48.7185" ry="18"/>
<text text-anchor="middle" x="283.257" y="-1462.36" font-family="Helvetica,sans-Serif" font-size="10.00" fill="#ececec">Петр Пустота</text>
</g>
<!-- Чапаев и Пустота&#45;&#45;Петр Пустота -->
<g id="edge17" class="edge"><title>Чапаев и Пустота&#45;&#45;Петр Пустота</title>
<path fill="none" stroke="#eeeeee" stroke-width="0.6" d="M409.829,-1311.11C382.451,-1344.36 324.414,-1414.86 297.506,-1447.55"/>
</g>
<!-- Чапаев и Пустота&#45;&#45;товарищ Бабаясин -->
<g id="edge18" class="edge"><title>Чапаев и Пустота&#45;&#45;товарищ Бабаясин</title>
<path fill="none" stroke="#eeeeee" stroke-width="0.6" d="M374.082,-1307.5C303.617,-1327.61 177.106,-1363.73 110.269,-1382.82"/>
</g>
<!-- Чапаев -->
<g id="node76" class="node"><title>Чапаев</title>
<ellipse fill="#2f2f2f" stroke="#ececec" stroke-width="0.6" cx="251.612" cy="-1235.75" rx="29.3664" ry="18"/>
<text text-anchor="middle" x="251.612" y="-1233.25" font-family="Helvetica,sans-Serif" font-size="10.00" fill="#ececec">Чапаев</text>
</g>
<!-- Чапаев и Пустота&#45;&#45;Чапаев -->
<g id="edge19" class="edge"><title>Чапаев и Пустота&#45;&#45;Чапаев</title>
<path fill="none" stroke="#eeeeee" stroke-width="0.6" d="M374.169,-1276.32C342.638,-1265.88 303.344,-1252.87 277.88,-1244.44"/>
</g>
<!-- Имена олигархов на карте Родины -->
<g id="node11" class="node"><title>Имена олигархов на карте Родины</title>
<polygon fill="#181818" stroke="#090909" stroke-width="0.8" points="721.329,-801.984 542.329,-801.984 542.329,-765.984 721.329,-765.984 721.329,-801.984"/>
<text text-anchor="middle" x="631.829" y="-781.484" font-family="Helvetica,sans-Serif" font-size="10.00" fill="#fefefe">Имена олигархов на карте Родины</text>
</g>
<!-- Вавилен Татарский -->
<g id="node39" class="node"><title>Вавилен Татарский</title>
<ellipse fill="#2f2f2f" stroke="#ececec" stroke-width="0.6" cx="725.962" cy="-906.644" rx="64.3289" ry="18"/>
<text text-anchor="middle" x="725.962" y="-904.144" font-family="Helvetica,sans-Serif" font-size="10.00" fill="#ececec">Вавилен Татарский</text>
</g>
<!-- Имена олигархов на карте Родины&#45;&#45;Вавилен Татарский -->
<g id="edge20" class="edge"><title>Имена олигархов на карте Родины&#45;&#45;Вавилен Татарский</title>
<path fill="none" stroke="#eeeeee" stroke-width="0.6" d="M645.718,-802.083C663.618,-825.407 694.543,-865.705 712.321,-888.87"/>
</g>
<!-- Generation «П» -->
<g id="node12" class="node"><title>Generation «П»</title>
<polygon fill="#181818" stroke="#090909" stroke-width="0.8" points="727.189,-1047.78 642.189,-1047.78 642.189,-1011.78 727.189,-1011.78 727.189,-1047.78"/>
<text text-anchor="middle" x="684.689" y="-1027.28" font-family="Helvetica,sans-Serif" font-size="10.00" fill="#fefefe">Generation «П»</text>
</g>
<!-- Generation «П»&#45;&#45;Вавилен Татарский -->
<g id="edge21" class="edge"><title>Generation «П»&#45;&#45;Вавилен Татарский</title>
<path fill="none" stroke="#eeeeee" stroke-width="0.6" d="M690.779,-1011.61C698.582,-988.332 712.031,-948.206 719.847,-924.888"/>
</g>
<!-- Generation «П»&#45;&#45;Вовчик Малой -->
<g id="edge22" class="edge"><title>Generation «П»&#45;&#45;Вовчик Малой</title>
<path fill="none" stroke="#eeeeee" stroke-width="0.6" d="M641.927,-1037.94C630.606,-1040.1 618.371,-1042.43 607.005,-1044.6"/>
</g>
<!-- Generation «П»&#45;&#45;лама Джамбон Тулку -->
<g id="edge23" class="edge"><title>Generation «П»&#45;&#45;лама Джамбон Тулку</title>
<path fill="none" stroke="#eeeeee" stroke-width="0.6" d="M664.8,-1047.78C634.962,-1074.79 578.972,-1125.47 549.466,-1152.17"/>
</g>
<!-- Малюта -->
<g id="node51" class="node"><title>Малюта</title>
<ellipse fill="#2f2f2f" stroke="#ececec" stroke-width="0.6" cx="845.905" cy="-885.724" rx="31.3996" ry="18"/>
<text text-anchor="middle" x="845.905" y="-883.224" font-family="Helvetica,sans-Serif" font-size="10.00" fill="#ececec">Малюта</text>
</g>
<!-- Generation «П»&#45;&#45;Малюта -->
<g id="edge24" class="edge"><title>Generation «П»&#45;&#45;Малюта</title>
<path fill="none" stroke="#eeeeee" stroke-width="0.6" d="M705.107,-1011.54C737.134,-982.919 798.614,-927.981 828.601,-901.185"/>
</g>
<!-- Михаил Непойман -->
<g id="node54" class="node"><title>Михаил Непойман</title>
<ellipse fill="#2f2f2f" stroke="#ececec" stroke-width="0.6" cx="727.398" cy="-1285.49" rx="59.4099" ry="18"/>
<text text-anchor="middle" x="727.398" y="-1282.99" font-family="Helvetica,sans-Serif" font-size="10.00" fill="#ececec">Михаил Непойман</text>
</g>
<!-- Generation «П»&#45;&#45;Михаил Непойман -->
<g id="edge25" class="edge"><title>Generation «П»&#45;&#45;Михаил Непойман</title>
<path fill="none" stroke="#eeeeee" stroke-width="0.6" d="M689.595,-1047.85C695.991,-1072.01 707.117,-1116.28 713.564,-1154.7 720.253,-1194.55 724.306,-1241.82 726.17,-1267.2"/>
</g>
<!-- пёс Пиздец -->
<g id="node61" class="node"><title>пёс Пиздец</title>
<polygon fill="none" stroke="#e8e8e8" stroke-width="0.6" points="617.792,-898.894 620.519,-898.992 623.219,-899.14 625.879,-899.336 628.489,-899.58 631.038,-899.871 633.517,-900.209 635.916,-900.592 638.226,-901.02 640.437,-901.492 642.543,-902.005 644.536,-902.559 646.409,-903.152 648.156,-903.783 649.772,-904.45 651.253,-905.15 652.595,-905.883 653.795,-906.646 654.851,-907.436 655.762,-908.253 656.527,-909.093 657.145,-909.954 657.619,-910.834 657.95,-911.73 658.139,-912.641 658.19,-913.563 658.106,-914.494 657.891,-915.432 657.549,-916.373 657.084,-917.316 656.503,-918.257 655.81,-919.195 655.01,-920.126 654.111,-921.048 653.117,-921.958 652.035,-922.855 650.871,-923.735 649.63,-924.596 648.319,-925.436 646.944,-926.253 645.511,-927.043 644.024,-927.806 642.489,-928.538 640.911,-929.239 639.294,-929.906 637.644,-930.536 635.964,-931.13 634.259,-931.684 632.531,-932.197 630.783,-932.669 629.02,-933.096 627.242,-933.48 625.454,-933.818 623.656,-934.109 621.85,-934.353 620.038,-934.549 618.222,-934.697 616.404,-934.795 614.583,-934.844 612.762,-934.844 610.941,-934.795 609.122,-934.697 607.306,-934.549 605.494,-934.353 603.689,-934.109 601.891,-933.818 600.102,-933.48 598.325,-933.096 596.561,-932.669 594.814,-932.197 593.086,-931.684 591.38,-931.13 589.7,-930.536 588.05,-929.906 586.434,-929.239 584.856,-928.538 583.321,-927.806 581.834,-927.043 580.4,-926.253 579.025,-925.436 577.714,-924.596 576.474,-923.735 575.309,-922.855 574.227,-921.958 573.234,-921.048 572.334,-920.126 571.535,-919.195 570.842,-918.257 570.26,-917.316 569.796,-916.373 569.453,-915.432 569.238,-914.494 569.154,-913.563 569.205,-912.641 569.394,-911.73 569.725,-910.834 570.199,-909.954 570.818,-909.093 571.583,-908.253 572.493,-907.436 573.549,-906.646 574.749,-905.883 576.091,-905.15 577.572,-904.45 579.188,-903.783 580.935,-903.152 582.808,-902.559 584.801,-902.005 586.907,-901.492 589.119,-901.02 591.428,-900.592 593.827,-900.209 596.306,-899.871 598.856,-899.58 601.466,-899.336 604.126,-899.14 606.825,-898.992 609.553,-898.894 612.297,-898.844 615.047,-898.844 617.792,-898.894"/>
<text text-anchor="middle" x="613.672" y="-914.344" font-family="Helvetica,sans-Serif" font-size="10.00" fill="#e8e8e8">пёс Пиздец</text>
</g>
<!-- Generation «П»&#45;&#45;пёс Пиздец -->
<g id="edge26" class="edge"><title>Generation «П»&#45;&#45;пёс Пиздец</title>
<path fill="none" stroke="#eeeeee" stroke-width="0.6" d="M673.279,-1011.64C659.869,-990.312 637.779,-955.181 624.587,-934.203"/>
</g>
<!-- Семён Левитан -->
<g id="node69" class="node"><title>Семён Левитан</title>
<ellipse fill="#2f2f2f" stroke="#ececec" stroke-width="0.6" cx="914.014" cy="-1152.67" rx="51.6054" ry="18"/>
<text text-anchor="middle" x="914.014" y="-1150.17" font-family="Helvetica,sans-Serif" font-size="10.00" fill="#ececec">Семён Левитан</text>
</g>
<!-- Generation «П»&#45;&#45;Семён Левитан -->
<g id="edge27" class="edge"><title>Generation «П»&#45;&#45;Семён Левитан</title>
<path fill="none" stroke="#eeeeee" stroke-width="0.6" d="M718.526,-1047.92C763.878,-1072.22 843.551,-1114.91 885.823,-1137.56"/>
</g>
<!-- халдеи -->
<g id="node75" class="node"><title>халдеи</title>
<polygon fill="none" stroke="#e8e8e8" stroke-width="0.6" points="789.928,-1123.61 791.838,-1123.71 793.73,-1123.85 795.593,-1124.05 797.422,-1124.29 799.208,-1124.59 800.945,-1124.92 802.626,-1125.31 804.244,-1125.73 805.793,-1126.21 807.269,-1126.72 808.665,-1127.27 809.977,-1127.87 811.201,-1128.5 812.333,-1129.16 813.371,-1129.86 814.311,-1130.6 815.152,-1131.36 815.891,-1132.15 816.53,-1132.97 817.065,-1133.81 817.499,-1134.67 817.831,-1135.55 818.063,-1136.44 818.195,-1137.36 818.231,-1138.28 818.172,-1139.21 818.021,-1140.15 817.781,-1141.09 817.456,-1142.03 817.049,-1142.97 816.563,-1143.91 816.003,-1144.84 815.373,-1145.76 814.676,-1146.67 813.918,-1147.57 813.103,-1148.45 812.234,-1149.31 811.315,-1150.15 810.352,-1150.97 809.347,-1151.76 808.306,-1152.52 807.23,-1153.25 806.125,-1153.95 804.992,-1154.62 803.836,-1155.25 802.659,-1155.84 801.464,-1156.4 800.254,-1156.91 799.03,-1157.38 797.794,-1157.81 796.549,-1158.19 795.295,-1158.53 794.036,-1158.82 792.771,-1159.07 791.501,-1159.26 790.229,-1159.41 788.955,-1159.51 787.679,-1159.56 786.403,-1159.56 785.128,-1159.51 783.853,-1159.41 782.581,-1159.26 781.312,-1159.07 780.047,-1158.82 778.787,-1158.53 777.534,-1158.19 776.289,-1157.81 775.053,-1157.38 773.829,-1156.91 772.618,-1156.4 771.423,-1155.84 770.246,-1155.25 769.09,-1154.62 767.958,-1153.95 766.852,-1153.25 765.777,-1152.52 764.735,-1151.76 763.731,-1150.97 762.767,-1150.15 761.849,-1149.31 760.98,-1148.45 760.164,-1147.57 759.406,-1146.67 758.71,-1145.76 758.08,-1144.84 757.52,-1143.91 757.034,-1142.97 756.627,-1142.03 756.301,-1141.09 756.061,-1140.15 755.911,-1139.21 755.852,-1138.28 755.887,-1137.36 756.02,-1136.44 756.252,-1135.55 756.584,-1134.67 757.017,-1133.81 757.553,-1132.97 758.191,-1132.15 758.931,-1131.36 759.772,-1130.6 760.712,-1129.86 761.749,-1129.16 762.882,-1128.5 764.106,-1127.87 765.418,-1127.27 766.814,-1126.72 768.289,-1126.21 769.839,-1125.73 771.457,-1125.31 773.138,-1124.92 774.875,-1124.59 776.661,-1124.29 778.489,-1124.05 780.353,-1123.85 782.244,-1123.71 784.155,-1123.61 786.078,-1123.56 788.005,-1123.56 789.928,-1123.61"/>
<text text-anchor="middle" x="787.041" y="-1139.06" font-family="Helvetica,sans-Serif" font-size="10.00" fill="#e8e8e8">халдеи</text>
</g>
<!-- Generation «П»&#45;&#45;халдеи -->
<g id="edge28" class="edge"><title>Generation «П»&#45;&#45;халдеи</title>
<path fill="none" stroke="#eeeeee" stroke-width="0.6" d="M701.59,-1048.24C721.122,-1069.57 752.982,-1104.36 771.787,-1124.9"/>
</g>
<!-- Акико -->
<g id="node13" class="node"><title>Акико</title>
<polygon fill="#181818" stroke="#090909" stroke-width="0.8" points="1451.04,-357.736 1397.04,-357.736 1397.04,-321.736 1451.04,-321.736 1451.04,-357.736"/>
<text text-anchor="middle" x="1424.04" y="-337.236" font-family="Helvetica,sans-Serif" font-size="10.00" fill="#fefefe">Акико</text>
</g>
<!-- Лебёдкин -->
<g id="node48" class="node"><title>Лебёдкин</title>
<ellipse fill="#2f2f2f" stroke="#ececec" stroke-width="0.6" cx="1194.97" cy="-511.922" rx="36.4942" ry="18"/>
<text text-anchor="middle" x="1194.97" y="-509.422" font-family="Helvetica,sans-Serif" font-size="10.00" fill="#ececec">Лебёдкин</text>
</g>
<!-- Акико&#45;&#45;Лебёдкин -->
<g id="edge29" class="edge"><title>Акико&#45;&#45;Лебёдкин</title>
<path fill="none" stroke="#eeeeee" stroke-width="0.6" d="M1399.96,-357.838C1354.59,-391.943 1257.22,-465.134 1215.09,-496.804"/>
</g>
<!-- Пятое главное управление -->
<g id="node64" class="node"><title>Пятое главное управление</title>
<polygon fill="none" stroke="#e8e8e8" stroke-width="0.6" points="1026.19,-618.353 1031.59,-618.452 1036.95,-618.599 1042.22,-618.795 1047.4,-619.039 1052.45,-619.331 1057.37,-619.669 1062.13,-620.052 1066.71,-620.48 1071.09,-620.951 1075.27,-621.465 1079.22,-622.019 1082.94,-622.612 1086.4,-623.243 1089.61,-623.909 1092.54,-624.61 1095.2,-625.343 1097.58,-626.105 1099.68,-626.896 1101.48,-627.712 1103,-628.552 1104.23,-629.413 1105.17,-630.293 1105.82,-631.19 1106.2,-632.101 1106.3,-633.023 1106.13,-633.954 1105.7,-634.891 1105.03,-635.833 1104.11,-636.775 1102.95,-637.717 1101.58,-638.654 1099.99,-639.585 1098.21,-640.507 1096.24,-641.418 1094.09,-642.315 1091.78,-643.195 1089.32,-644.056 1086.72,-644.896 1084,-645.712 1081.15,-646.503 1078.2,-647.265 1075.16,-647.998 1072.03,-648.699 1068.83,-649.365 1065.55,-649.996 1062.22,-650.589 1058.84,-651.143 1055.41,-651.657 1051.95,-652.128 1048.45,-652.556 1044.93,-652.94 1041.38,-653.277 1037.81,-653.569 1034.23,-653.813 1030.64,-654.009 1027.04,-654.156 1023.43,-654.255 1019.82,-654.304 1016.21,-654.304 1012.6,-654.255 1008.99,-654.156 1005.39,-654.009 1001.8,-653.813 998.218,-653.569 994.652,-653.277 991.105,-652.94 987.581,-652.556 984.083,-652.128 980.618,-651.657 977.191,-651.143 973.809,-650.589 970.478,-649.996 967.205,-649.365 964,-648.699 960.871,-647.998 957.827,-647.265 954.878,-646.503 952.035,-645.712 949.308,-644.896 946.709,-644.056 944.249,-643.195 941.94,-642.315 939.794,-641.418 937.823,-640.507 936.04,-639.585 934.455,-638.654 933.08,-637.717 931.927,-636.775 931.006,-635.833 930.327,-634.891 929.9,-633.954 929.733,-633.023 929.834,-632.101 930.21,-631.19 930.865,-630.293 931.805,-629.413 933.033,-628.552 934.549,-627.712 936.355,-626.896 938.449,-626.105 940.829,-625.343 943.49,-624.61 946.427,-623.909 949.632,-623.243 953.097,-622.612 956.811,-622.019 960.762,-621.465 964.939,-620.951 969.325,-620.48 973.905,-620.052 978.662,-619.669 983.578,-619.331 988.634,-619.039 993.81,-618.795 999.085,-618.599 1004.44,-618.452 1009.85,-618.353 1015.29,-618.304 1020.74,-618.304 1026.19,-618.353"/>
<text text-anchor="middle" x="1018.02" y="-633.804" font-family="Helvetica,sans-Serif" font-size="10.00" fill="#e8e8e8">Пятое главное управление</text>
</g>
<!-- Акико&#45;&#45;Пятое главное управление -->
<g id="edge30" class="edge"><title>Акико&#45;&#45;Пятое главное управление</title>
<path fill="none" stroke="#eeeeee" stroke-width="0.6" d="M1396.8,-354.318C1348.81,-380.494 1246.84,-438.308 1168.21,-497.973 1116.53,-537.188 1061.99,-591.025 1035.08,-618.54"/>
</g>
<!-- Македонская критика французской мысли -->
<g id="node14" class="node"><title>Македонская критика французской мысли</title>
<polygon fill="#181818" stroke="#090909" stroke-width="0.8" points="1060.43,-447.403 841.427,-447.403 841.427,-411.403 1060.43,-411.403 1060.43,-447.403"/>
<text text-anchor="middle" x="950.927" y="-426.903" font-family="Helvetica,sans-Serif" font-size="10.00" fill="#fefefe">Македонская критика французской мысли</text>
</g>
<!-- Мунбанк -->
<g id="node55" class="node"><title>Мунбанк</title>
<polygon fill="none" stroke="#e8e8e8" stroke-width="0.6" points="873.046,-699.307 875.204,-699.405 877.339,-699.553 879.443,-699.749 881.507,-699.993 883.524,-700.284 885.484,-700.622 887.382,-701.005 889.209,-701.433 890.958,-701.905 892.624,-702.418 894.2,-702.972 895.681,-703.566 897.063,-704.196 898.341,-704.863 899.513,-705.564 900.574,-706.296 901.523,-707.059 902.359,-707.849 903.079,-708.666 903.684,-709.506 904.173,-710.367 904.548,-711.247 904.81,-712.144 904.959,-713.054 905,-713.976 904.933,-714.907 904.763,-715.845 904.492,-716.786 904.125,-717.729 903.665,-718.67 903.117,-719.608 902.484,-720.539 901.773,-721.461 900.987,-722.372 900.131,-723.268 899.21,-724.148 898.229,-725.009 897.192,-725.849 896.105,-726.666 894.971,-727.456 893.794,-728.219 892.58,-728.952 891.332,-729.652 890.054,-730.319 888.749,-730.95 887.42,-731.543 886.071,-732.097 884.704,-732.61 883.322,-733.082 881.927,-733.51 880.521,-733.893 879.106,-734.231 877.684,-734.522 876.256,-734.766 874.823,-734.962 873.387,-735.11 871.948,-735.208 870.508,-735.258 869.068,-735.258 867.628,-735.208 866.189,-735.11 864.753,-734.962 863.32,-734.766 861.892,-734.522 860.469,-734.231 859.054,-733.893 857.649,-733.51 856.254,-733.082 854.872,-732.61 853.505,-732.097 852.156,-731.543 850.827,-730.95 849.522,-730.319 848.244,-729.652 846.995,-728.952 845.781,-728.219 844.605,-727.456 843.471,-726.666 842.383,-725.849 841.347,-725.009 840.366,-724.148 839.445,-723.268 838.589,-722.372 837.803,-721.461 837.091,-720.539 836.459,-719.608 835.911,-718.67 835.451,-717.729 835.084,-716.786 834.813,-715.845 834.643,-714.907 834.576,-713.976 834.616,-713.054 834.766,-712.144 835.028,-711.247 835.403,-710.367 835.892,-709.506 836.497,-708.666 837.217,-707.849 838.052,-707.059 839.002,-706.296 840.063,-705.564 841.234,-704.863 842.513,-704.196 843.895,-703.566 845.376,-702.972 846.952,-702.418 848.618,-701.905 850.367,-701.433 852.194,-701.005 854.091,-700.622 856.052,-700.284 858.069,-699.993 860.133,-699.749 862.237,-699.553 864.372,-699.405 866.53,-699.307 868.7,-699.258 870.876,-699.258 873.046,-699.307"/>
<text text-anchor="middle" x="869.788" y="-714.758" font-family="Helvetica,sans-Serif" font-size="10.00" fill="#e8e8e8">Мунбанк</text>
</g>
<!-- Македонская критика французской мысли&#45;&#45;Мунбанк -->
<g id="edge31" class="edge"><title>Македонская критика французской мысли&#45;&#45;Мунбанк</title>
<path fill="none" stroke="#eeeeee" stroke-width="0.6" d="M945.851,-447.409C931.28,-499.104 889.431,-647.571 874.862,-699.258"/>
</g>
<!-- Насых Нафиков (Кика) -->
<g id="node57" class="node"><title>Насых Нафиков (Кика)</title>
<ellipse fill="#2f2f2f" stroke="#ececec" stroke-width="0.6" cx="687.628" cy="-631.867" rx="73.6658" ry="18"/>
<text text-anchor="middle" x="687.628" y="-629.367" font-family="Helvetica,sans-Serif" font-size="10.00" fill="#ececec">Насых Нафиков (Кика)</text>
</g>
<!-- Македонская критика французской мысли&#45;&#45;Насых Нафиков (Кика) -->
<g id="edge32" class="edge"><title>Македонская критика французской мысли&#45;&#45;Насых Нафиков (Кика)</title>
<path fill="none" stroke="#eeeeee" stroke-width="0.6" d="M923.581,-447.427C890.817,-469.355 834.648,-508.006 789.158,-544.729 760.059,-568.221 727.404,-596.629 707.175,-614.479"/>
</g>
<!-- Санбанк -->
<g id="node67" class="node"><title>Санбанк</title>
<polygon fill="none" stroke="#e8e8e8" stroke-width="0.6" points="826.124,-538.817 828.281,-538.915 830.416,-539.063 832.52,-539.259 834.585,-539.503 836.601,-539.794 838.562,-540.132 840.459,-540.515 842.286,-540.943 844.036,-541.414 845.701,-541.928 847.277,-542.482 848.759,-543.075 850.141,-543.706 851.419,-544.373 852.59,-545.073 853.652,-545.806 854.601,-546.568 855.436,-547.359 856.156,-548.175 856.761,-549.015 857.251,-549.877 857.626,-550.757 857.887,-551.653 858.037,-552.564 858.077,-553.486 858.011,-554.417 857.84,-555.354 857.57,-556.296 857.202,-557.239 856.742,-558.18 856.194,-559.117 855.562,-560.049 854.851,-560.971 854.065,-561.881 853.209,-562.778 852.288,-563.658 851.307,-564.519 850.27,-565.359 849.182,-566.175 848.048,-566.966 846.872,-567.729 845.658,-568.461 844.41,-569.162 843.131,-569.828 841.826,-570.459 840.498,-571.052 839.149,-571.607 837.782,-572.12 836.4,-572.591 835.005,-573.019 833.599,-573.403 832.184,-573.741 830.762,-574.032 829.334,-574.276 827.901,-574.472 826.465,-574.619 825.026,-574.718 823.586,-574.767 822.145,-574.767 820.705,-574.718 819.266,-574.619 817.83,-574.472 816.397,-574.276 814.969,-574.032 813.547,-573.741 812.132,-573.403 810.726,-573.019 809.331,-572.591 807.949,-572.12 806.582,-571.607 805.233,-571.052 803.905,-570.459 802.6,-569.828 801.321,-569.162 800.073,-568.461 798.859,-567.729 797.683,-566.966 796.549,-566.175 795.461,-565.359 794.424,-564.519 793.443,-563.658 792.522,-562.778 791.666,-561.881 790.88,-560.971 790.169,-560.049 789.537,-559.117 788.988,-558.18 788.529,-557.239 788.161,-556.296 787.891,-555.354 787.72,-554.417 787.654,-553.486 787.694,-552.564 787.844,-551.653 788.105,-550.757 788.48,-549.877 788.97,-549.015 789.575,-548.175 790.295,-547.359 791.13,-546.568 792.079,-545.806 793.141,-545.073 794.312,-544.373 795.59,-543.706 796.972,-543.075 798.454,-542.482 800.03,-541.928 801.695,-541.414 803.445,-540.943 805.272,-540.515 807.169,-540.132 809.13,-539.794 811.146,-539.503 813.211,-539.259 815.315,-539.063 817.45,-538.915 819.607,-538.817 821.778,-538.767 823.953,-538.767 826.124,-538.817"/>
<text text-anchor="middle" x="822.865" y="-554.267" font-family="Helvetica,sans-Serif" font-size="10.00" fill="#e8e8e8">Санбанк</text>
</g>
<!-- Македонская критика французской мысли&#45;&#45;Санбанк -->
<g id="edge33" class="edge"><title>Македонская критика французской мысли&#45;&#45;Санбанк</title>
<path fill="none" stroke="#eeeeee" stroke-width="0.6" d="M932.579,-447.651C907.681,-472.413 863.555,-516.299 839.55,-540.174"/>
</g>
<!-- Один вог -->
<g id="node15" class="node"><title>Один вог</title>
<polygon fill="#181818" stroke="#090909" stroke-width="0.8" points="1476.47,-625.389 1417.47,-625.389 1417.47,-589.389 1476.47,-589.389 1476.47,-625.389"/>
<text text-anchor="middle" x="1446.97" y="-604.889" font-family="Helvetica,sans-Serif" font-size="10.00" fill="#fefefe">Один вог</text>
</g>
<!-- Мюс -->
<g id="node56" class="node"><title>Мюс</title>
<ellipse fill="#2f2f2f" stroke="#ececec" stroke-width="0.6" cx="1099.52" cy="-791.864" rx="27" ry="18"/>
<text text-anchor="middle" x="1099.52" y="-789.364" font-family="Helvetica,sans-Serif" font-size="10.00" fill="#ececec">Мюс</text>
</g>
<!-- Один вог&#45;&#45;Мюс -->
<g id="edge34" class="edge"><title>Один вог&#45;&#45;Мюс</title>
<path fill="none" stroke="#eeeeee" stroke-width="0.6" d="M1417.32,-613.45C1365.85,-624.972 1258.04,-653.583 1180.7,-704.86 1151.6,-724.152 1125.54,-755.89 1111.19,-775.233"/>
</g>
<!-- Фокус&#45;группа -->
<g id="node16" class="node"><title>Фокус&#45;группа</title>
<polygon fill="#181818" stroke="#090909" stroke-width="0.8" points="371.04,-428.268 290.04,-428.268 290.04,-392.268 371.04,-392.268 371.04,-428.268"/>
<text text-anchor="middle" x="330.54" y="-407.768" font-family="Helvetica,sans-Serif" font-size="10.00" fill="#fefefe">Фокус&#45;группа</text>
</g>
<!-- Сракандаев -->
<g id="node71" class="node"><title>Сракандаев</title>
<ellipse fill="#2f2f2f" stroke="#ececec" stroke-width="0.6" cx="519.77" cy="-675.392" rx="42.9448" ry="18"/>
<text text-anchor="middle" x="519.77" y="-672.892" font-family="Helvetica,sans-Serif" font-size="10.00" fill="#ececec">Сракандаев</text>
</g>
<!-- Фокус&#45;группа&#45;&#45;Сракандаев -->
<g id="edge35" class="edge"><title>Фокус&#45;группа&#45;&#45;Сракандаев</title>
<path fill="none" stroke="#eeeeee" stroke-width="0.6" d="M343.546,-428.491C378.366,-477.276 473.363,-610.373 507.417,-658.084"/>
</g>
<!-- Числа -->
<g id="node17" class="node"><title>Числа</title>
<polygon fill="#181818" stroke="#090909" stroke-width="0.8" points="784.683,-797.684 730.683,-797.684 730.683,-761.684 784.683,-761.684 784.683,-797.684"/>
<text text-anchor="middle" x="757.683" y="-777.184" font-family="Helvetica,sans-Serif" font-size="10.00" fill="#fefefe">Числа</text>
</g>
<!-- Числа&#45;&#45;Бункер под Лубянкой -->
<g id="edge36" class="edge"><title>Числа&#45;&#45;Бункер под Лубянкой</title>
<path fill="none" stroke="#eeeeee" stroke-width="0.6" d="M737.703,-761.584C708.55,-734.692 653.374,-681.943 612.448,-631.71 583.384,-596.038 554.611,-550.266 539.619,-525.412"/>
</g>
<!-- Числа&#45;&#45;Вавилен Татарский -->
<g id="edge37" class="edge"><title>Числа&#45;&#45;Вавилен Татарский</title>
<path fill="none" stroke="#eeeeee" stroke-width="0.6" d="M753.138,-797.874C747.108,-822.01 736.524,-864.37 730.498,-888.488"/>
</g>
<!-- Числа&#45;&#45;Лебёдкин -->
<g id="edge38" class="edge"><title>Числа&#45;&#45;Лебёдкин</title>
<path fill="none" stroke="#eeeeee" stroke-width="0.6" d="M775.526,-761.639C791.081,-746.178 814.474,-723.567 836.081,-705.22 876.633,-670.785 886.446,-661.732 928.509,-629.159 1002.84,-571.602 1109.82,-535.794 1162.77,-520.515"/>
</g>
<!-- Числа&#45;&#45;Малюта -->
<g id="edge39" class="edge"><title>Числа&#45;&#45;Малюта</title>
<path fill="none" stroke="#eeeeee" stroke-width="0.6" d="M773.05,-798.155C789.736,-818.211 816.142,-849.95 832.162,-869.206"/>
</g>
<!-- Числа&#45;&#45;Мунбанк -->
<g id="edge40" class="edge"><title>Числа&#45;&#45;Мунбанк</title>
<path fill="none" stroke="#eeeeee" stroke-width="0.6" d="M784.821,-764.572C804.131,-753.819 829.746,-739.555 847.786,-729.51"/>
</g>
<!-- Числа&#45;&#45;Мюс -->
<g id="edge41" class="edge"><title>Числа&#45;&#45;Мюс</title>
<path fill="none" stroke="#eeeeee" stroke-width="0.6" d="M784.793,-780.65C848.748,-782.929 1008.45,-788.619 1072.41,-790.898"/>
</g>
<!-- Числа&#45;&#45;Насых Нафиков (Кика) -->
<g id="edge42" class="edge"><title>Числа&#45;&#45;Насых Нафиков (Кика)</title>
<path fill="none" stroke="#eeeeee" stroke-width="0.6" d="M749.093,-761.559C735.648,-733.189 709.777,-678.601 696.288,-650.14"/>
</g>
<!-- Числа&#45;&#45;Пятое главное управление -->
<g id="edge43" class="edge"><title>Числа&#45;&#45;Пятое главное управление</title>
<path fill="none" stroke="#eeeeee" stroke-width="0.6" d="M784.779,-770.423C810.341,-761.661 849.718,-748.098 883.802,-736.076 932.266,-718.983 977.873,-677.831 1001.41,-654.06"/>
</g>
<!-- Числа&#45;&#45;Санбанк -->
<g id="edge44" class="edge"><title>Числа&#45;&#45;Санбанк</title>
<path fill="none" stroke="#eeeeee" stroke-width="0.6" d="M763.017,-761.442C775.301,-719.433 805.462,-616.285 817.64,-574.638"/>
</g>
<!-- Числа&#45;&#45;Сракандаев -->
<g id="edge45" class="edge"><title>Числа&#45;&#45;Сракандаев</title>
<path fill="none" stroke="#eeeeee" stroke-width="0.6" d="M730.617,-765.699C728.565,-764.696 726.518,-763.715 724.529,-762.784 663.783,-734.379 591.325,-704.335 550.933,-687.92"/>
</g>
<!-- Священная книга оборотня -->
<g id="node18" class="node"><title>Священная книга оборотня</title>
<polygon fill="#181818" stroke="#090909" stroke-width="0.8" points="567.942,-847.7 424.942,-847.7 424.942,-811.7 567.942,-811.7 567.942,-847.7"/>
<text text-anchor="middle" x="496.442" y="-827.2" font-family="Helvetica,sans-Serif" font-size="10.00" fill="#fefefe">Священная книга оборотня</text>
</g>
<!-- А Хули -->
<g id="node34" class="node"><title>А Хули</title>
<ellipse fill="#2f2f2f" stroke="#ececec" stroke-width="0.6" cx="384.799" cy="-944.268" rx="29.3664" ry="18"/>
<text text-anchor="middle" x="384.799" y="-941.768" font-family="Helvetica,sans-Serif" font-size="10.00" fill="#ececec">А Хули</text>
</g>
<!-- Священная книга оборотня&#45;&#45;А Хули -->
<g id="edge46" class="edge"><title>Священная книга оборотня&#45;&#45;А Хули</title>
<path fill="none" stroke="#eeeeee" stroke-width="0.6" d="M478.752,-847.853C456.986,-870.189 420.405,-907.729 399.9,-928.771"/>
</g>
<!-- Священная книга оборотня&#45;&#45;Вавилен Татарский -->
<g id="edge47" class="edge"><title>Священная книга оборотня&#45;&#45;Вавилен Татарский</title>
<path fill="none" stroke="#eeeeee" stroke-width="0.6" d="M550.254,-847.74C591.329,-861.51 647.078,-880.199 684.674,-892.803"/>
</g>
<!-- Лев Толстой -->
<g id="node49" class="node"><title>Лев Толстой</title>
<ellipse fill="#2f2f2f" stroke="#ececec" stroke-width="0.6" cx="505.243" cy="-963.378" rx="44.3" ry="18"/>
<text text-anchor="middle" x="505.243" y="-960.878" font-family="Helvetica,sans-Serif" font-size="10.00" fill="#ececec">Лев Толстой</text>
</g>
<!-- Священная книга оборотня&#45;&#45;Лев Толстой -->
<g id="edge48" class="edge"><title>Священная книга оборотня&#45;&#45;Лев Толстой</title>
<path fill="none" stroke="#eeeeee" stroke-width="0.6" d="M497.629,-847.728C499.308,-873.241 502.362,-919.618 504.046,-945.208"/>
</g>
<!-- Священная книга оборотня&#45;&#45;Нелли -->
<g id="edge49" class="edge"><title>Священная книга оборотня&#45;&#45;Нелли</title>
<path fill="none" stroke="#eeeeee" stroke-width="0.6" d="M424.841,-834.308C373.722,-837.599 307.807,-841.841 271.407,-844.184"/>
</g>
<!-- Священная книга оборотня&#45;&#45;пёс Пиздец -->
<g id="edge50" class="edge"><title>Священная книга оборотня&#45;&#45;пёс Пиздец</title>
<path fill="none" stroke="#eeeeee" stroke-width="0.6" d="M520.732,-847.756C541.522,-863.211 571.208,-885.278 591.396,-900.285"/>
</g>
<!-- рецензент Майя Марачкарская -->
<g id="node66" class="node"><title>рецензент Майя Марачкарская</title>
<ellipse fill="#2f2f2f" stroke="#ececec" stroke-width="0.6" cx="372.6" cy="-756.082" rx="96.5815" ry="18"/>
<text text-anchor="middle" x="372.6" y="-753.582" font-family="Helvetica,sans-Serif" font-size="10.00" fill="#ececec">рецензент Майя Марачкарская</text>
</g>
<!-- Священная книга оборотня&#45;&#45;рецензент Майя Марачкарская -->
<g id="edge51" class="edge"><title>Священная книга оборотня&#45;&#45;рецензент Майя Марачкарская</title>
<path fill="none" stroke="#eeeeee" stroke-width="0.6" d="M466.147,-811.691C446.526,-800.027 421.115,-784.922 401.729,-773.398"/>
</g>
<!-- Священная книга оборотня&#45;&#45;Саша Лапин -->
<g id="edge52" class="edge"><title>Священная книга оборотня&#45;&#45;Саша Лапин</title>
<path fill="none" stroke="#eeeeee" stroke-width="0.6" d="M492.815,-811.614C489.076,-795.974 482.156,-773.252 470.74,-756.154 432.525,-698.919 366.661,-649.663 331.563,-625.842"/>
</g>
<!-- Психическая атака (сонет) -->
<g id="node19" class="node"><title>Психическая атака (сонет)</title>
<polygon fill="#181818" stroke="#090909" stroke-width="0.8" points="167.619,-1694.59 24.6185,-1694.59 24.6185,-1658.59 167.619,-1658.59 167.619,-1694.59"/>
<text text-anchor="middle" x="96.1185" y="-1674.09" font-family="Helvetica,sans-Serif" font-size="10.00" fill="#fefefe">Психическая атака (сонет)</text>
</g>
<!-- Психическая атака (сонет)&#45;&#45;Петр Пустота -->
<g id="edge53" class="edge"><title>Психическая атака (сонет)&#45;&#45;Петр Пустота</title>
<path fill="none" stroke="#eeeeee" stroke-width="0.6" d="M112.074,-1658.54C147.695,-1618.24 233.296,-1521.38 268.128,-1481.97"/>
</g>
<!-- Empire V -->
<g id="node20" class="node"><title>Empire V</title>
<polygon fill="#181818" stroke="#090909" stroke-width="0.8" points="830.542,-1032.83 773.542,-1032.83 773.542,-996.829 830.542,-996.829 830.542,-1032.83"/>
<text text-anchor="middle" x="802.042" y="-1012.33" font-family="Helvetica,sans-Serif" font-size="10.00" fill="#fefefe">Empire V</text>
</g>
<!-- Empire V&#45;&#45;Вавилен Татарский -->
<g id="edge54" class="edge"><title>Empire V&#45;&#45;Вавилен Татарский</title>
<path fill="none" stroke="#eeeeee" stroke-width="0.6" d="M789.136,-996.477C774.977,-976.342 752.407,-944.248 738.425,-924.367"/>
</g>
<!-- Рама -->
<g id="node65" class="node"><title>Рама</title>
<ellipse fill="#2f2f2f" stroke="#ececec" stroke-width="0.6" cx="864.234" cy="-1302.3" rx="27" ry="18"/>
<text text-anchor="middle" x="864.234" y="-1299.8" font-family="Helvetica,sans-Serif" font-size="10.00" fill="#ececec">Рама</text>
</g>
<!-- Empire V&#45;&#45;Рама -->
<g id="edge55" class="edge"><title>Empire V&#45;&#45;Рама</title>
<path fill="none" stroke="#eeeeee" stroke-width="0.6" d="M806.027,-1033.25C817.287,-1085.3 849.242,-1233 860.362,-1284.41"/>
</g>
<!-- Empire V&#45;&#45;халдеи -->
<g id="edge56" class="edge"><title>Empire V&#45;&#45;халдеи</title>
<path fill="none" stroke="#eeeeee" stroke-width="0.6" d="M799.893,-1032.99C797.041,-1057.08 792.036,-1099.36 789.187,-1123.44"/>
</g>
<!-- Ассасин -->
<g id="node21" class="node"><title>Ассасин</title>
<polygon fill="#181818" stroke="#090909" stroke-width="0.8" points="106.652,-744.743 50.652,-744.743 50.652,-708.743 106.652,-708.743 106.652,-744.743"/>
<text text-anchor="middle" x="78.652" y="-724.243" font-family="Helvetica,sans-Serif" font-size="10.00" fill="#fefefe">Ассасин</text>
</g>
<!-- Ассасин&#45;&#45;рецензент Майя Марачкарская -->
<g id="edge57" class="edge"><title>Ассасин&#45;&#45;рецензент Майя Марачкарская</title>
<path fill="none" stroke="#eeeeee" stroke-width="0.6" d="M106.837,-729.556C148.006,-733.666 226.317,-741.482 287.311,-747.569"/>
</g>
<!-- Зал поющих кариатид -->
<g id="node22" class="node"><title>Зал поющих кариатид</title>
<polygon fill="#181818" stroke="#090909" stroke-width="0.8" points="711.484,-1478.2 590.484,-1478.2 590.484,-1442.2 711.484,-1442.2 711.484,-1478.2"/>
<text text-anchor="middle" x="650.984" y="-1457.7" font-family="Helvetica,sans-Serif" font-size="10.00" fill="#fefefe">Зал поющих кариатид</text>
</g>
<!-- генерал Шмыга -->
<g id="node41" class="node"><title>генерал Шмыга</title>
<ellipse fill="#2f2f2f" stroke="#ececec" stroke-width="0.6" cx="660.751" cy="-1154.65" rx="51.4282" ry="18"/>
<text text-anchor="middle" x="660.751" y="-1152.15" font-family="Helvetica,sans-Serif" font-size="10.00" fill="#ececec">генерал Шмыга</text>
</g>
<!-- Зал поющих кариатид&#45;&#45;генерал Шмыга -->
<g id="edge58" class="edge"><title>Зал поющих кариатид&#45;&#45;генерал Шмыга</title>
<path fill="none" stroke="#eeeeee" stroke-width="0.6" d="M651.586,-1441.95C652.453,-1415.59 654.101,-1365.35 655.471,-1322.58 657.216,-1268.06 659.229,-1203.59 660.187,-1172.79"/>
</g>
<!-- клуб «Haute SOS» -->
<g id="node46" class="node"><title>клуб «Haute SOS»</title>
<ellipse fill="#2f2f2f" stroke="#ececec" stroke-width="0.6" cx="372.206" cy="-1702.12" rx="59.4099" ry="18"/>
<text text-anchor="middle" x="372.206" y="-1699.62" font-family="Helvetica,sans-Serif" font-size="10.00" fill="#ececec">клуб «Haute SOS»</text>
</g>
<!-- Зал поющих кариатид&#45;&#45;клуб «Haute SOS» -->
<g id="edge59" class="edge"><title>Зал поющих кариатид&#45;&#45;клуб «Haute SOS»</title>
<path fill="none" stroke="#eeeeee" stroke-width="0.6" d="M630.03,-1478.38C577.86,-1523.66 442.705,-1640.94 391.9,-1685.03"/>
</g>
<!-- Михаил Ботвинник -->
<g id="node53" class="node"><title>Михаил Ботвинник</title>
<ellipse fill="#2f2f2f" stroke="#ececec" stroke-width="0.6" cx="625.012" cy="-1697.22" rx="62.2967" ry="18"/>
<text text-anchor="middle" x="625.012" y="-1694.72" font-family="Helvetica,sans-Serif" font-size="10.00" fill="#ececec">Михаил Ботвинник</text>
</g>
<!-- Зал поющих кариатид&#45;&#45;Михаил Ботвинник -->
<g id="edge60" class="edge"><title>Зал поющих кариатид&#45;&#45;Михаил Ботвинник</title>
<path fill="none" stroke="#eeeeee" stroke-width="0.6" d="M648.989,-1478.4C644.155,-1522.52 631.855,-1634.77 627.013,-1678.95"/>
</g>
<!-- Некромент -->
<g id="node23" class="node"><title>Некромент</title>
<polygon fill="#181818" stroke="#090909" stroke-width="0.8" points="1261.94,-1117.36 1193.94,-1117.36 1193.94,-1081.36 1261.94,-1081.36 1261.94,-1117.36"/>
<text text-anchor="middle" x="1227.94" y="-1096.86" font-family="Helvetica,sans-Serif" font-size="10.00" fill="#fefefe">Некромент</text>
</g>
<!-- Дупин -->
<g id="node44" class="node"><title>Дупин</title>
<ellipse fill="#2f2f2f" stroke="#ececec" stroke-width="0.6" cx="1043.62" cy="-1066.19" rx="27.8353" ry="18"/>
<text text-anchor="middle" x="1043.62" y="-1063.69" font-family="Helvetica,sans-Serif" font-size="10.00" fill="#ececec">Дупин</text>
</g>
<!-- Некромент&#45;&#45;Дупин -->
<g id="edge61" class="edge"><title>Некромент&#45;&#45;Дупин</title>
<path fill="none" stroke="#eeeeee" stroke-width="0.6" d="M1193.7,-1093.2C1158.1,-1086.79 1103.1,-1076.89 1070.5,-1071.02"/>
</g>
<!-- Макар Гетман -->
<g id="node50" class="node"><title>Макар Гетман</title>
<ellipse fill="#2f2f2f" stroke="#ececec" stroke-width="0.6" cx="1449.3" cy="-1377.34" rx="48.7185" ry="18"/>
<text text-anchor="middle" x="1449.3" y="-1374.84" font-family="Helvetica,sans-Serif" font-size="10.00" fill="#ececec">Макар Гетман</text>
</g>
<!-- Некромент&#45;&#45;Макар Гетман -->
<g id="edge62" class="edge"><title>Некромент&#45;&#45;Макар Гетман</title>
<path fill="none" stroke="#eeeeee" stroke-width="0.6" d="M1242.46,-1117.6C1282.77,-1168.21 1395.63,-1309.94 1435.3,-1359.75"/>
</g>
<!-- Пространство Фридмана -->
<g id="node24" class="node"><title>Пространство Фридмана</title>
<polygon fill="#181818" stroke="#090909" stroke-width="0.8" points="652.271,-1319.38 517.271,-1319.38 517.271,-1283.38 652.271,-1283.38 652.271,-1319.38"/>
<text text-anchor="middle" x="584.771" y="-1298.88" font-family="Helvetica,sans-Serif" font-size="10.00" fill="#fefefe">Пространство Фридмана</text>
</g>
<!-- Пространство Фридмана&#45;&#45;генерал Шмыга -->
<g id="edge63" class="edge"><title>Пространство Фридмана&#45;&#45;генерал Шмыга</title>
<path fill="none" stroke="#eeeeee" stroke-width="0.6" d="M594.24,-1283.09C608.879,-1254.82 636.834,-1200.84 651.401,-1172.71"/>
</g>
<!-- t -->
<g id="node25" class="node"><title>t</title>
<polygon fill="#181818" stroke="#090909" stroke-width="0.8" points="430.501,-1125.25 376.501,-1125.25 376.501,-1089.25 430.501,-1089.25 430.501,-1125.25"/>
<text text-anchor="middle" x="403.501" y="-1104.75" font-family="Helvetica,sans-Serif" font-size="10.00" fill="#fefefe">t</text>
</g>
<!-- t&#45;&#45;А Хули -->
<g id="edge64" class="edge"><title>t&#45;&#45;А Хули</title>
<path fill="none" stroke="#eeeeee" stroke-width="0.6" d="M401.428,-1089.18C397.833,-1057.86 390.482,-993.798 386.881,-962.413"/>
</g>
<!-- t&#45;&#45;генерал Шмыга -->
<g id="edge65" class="edge"><title>t&#45;&#45;генерал Шмыга</title>
<path fill="none" stroke="#eeeeee" stroke-width="0.6" d="M430.545,-1112.23C474.405,-1120.31 561.529,-1136.37 615.116,-1146.24"/>
</g>
<!-- t&#45;&#45;граф Т. -->
<g id="edge66" class="edge"><title>t&#45;&#45;граф Т.</title>
<path fill="none" stroke="#eeeeee" stroke-width="0.6" d="M414.705,-1125.66C432.033,-1155.24 464.757,-1215.71 478.398,-1271.84 496.002,-1344.29 492.982,-1434.12 490.628,-1471.96"/>
</g>
<!-- t&#45;&#45;лама Джамбон Тулку -->
<g id="edge67" class="edge"><title>t&#45;&#45;лама Джамбон Тулку</title>
<path fill="none" stroke="#eeeeee" stroke-width="0.6" d="M430.669,-1120.64C450.291,-1130.31 476.88,-1143.41 497.632,-1153.64"/>
</g>
<!-- t&#45;&#45;Лев Толстой -->
<g id="edge68" class="edge"><title>t&#45;&#45;Лев Толстой</title>
<path fill="none" stroke="#eeeeee" stroke-width="0.6" d="M416.387,-1089.03C436.064,-1061.2 473.358,-1008.46 492.78,-981.001"/>
</g>
<!-- t&#45;&#45;Померанцев (Константин Победоносцев) -->
<g id="edge69" class="edge"><title>t&#45;&#45;Померанцев (Константин Победоносцев)</title>
<path fill="none" stroke="#eeeeee" stroke-width="0.6" d="M376.259,-1095.81C349.811,-1084.7 309.338,-1067.7 279.1,-1055"/>
</g>
<!-- t&#45;&#45;Чапаев -->
<g id="edge70" class="edge"><title>t&#45;&#45;Чапаев</title>
<path fill="none" stroke="#eeeeee" stroke-width="0.6" d="M382.062,-1125.39C351.805,-1150.98 297.154,-1197.22 269.167,-1220.9"/>
</g>
<!-- Зенитные кодексы Аль&#45;Эфесби -->
<g id="node26" class="node"><title>Зенитные кодексы Аль&#45;Эфесби</title>
<polygon fill="#181818" stroke="#090909" stroke-width="0.8" points="1148.24,-1210.61 982.244,-1210.61 982.244,-1174.61 1148.24,-1174.61 1148.24,-1210.61"/>
<text text-anchor="middle" x="1065.24" y="-1190.11" font-family="Helvetica,sans-Serif" font-size="10.00" fill="#fefefe">Зенитные кодексы Аль&#45;Эфесби</text>
</g>
<!-- БПЛА -->
<g id="node37" class="node"><title>БПЛА</title>
<polygon fill="none" stroke="#e8e8e8" stroke-width="0.6" points="1243.73,-1256.86 1245.51,-1256.96 1247.27,-1257.11 1249,-1257.3 1250.7,-1257.55 1252.36,-1257.84 1253.97,-1258.18 1255.53,-1258.56 1257.04,-1258.99 1258.48,-1259.46 1259.85,-1259.97 1261.15,-1260.53 1262.37,-1261.12 1263.5,-1261.75 1264.56,-1262.42 1265.52,-1263.12 1266.4,-1263.85 1267.18,-1264.61 1267.86,-1265.4 1268.46,-1266.22 1268.96,-1267.06 1269.36,-1267.92 1269.67,-1268.8 1269.88,-1269.7 1270.01,-1270.61 1270.04,-1271.53 1269.98,-1272.46 1269.84,-1273.4 1269.62,-1274.34 1269.32,-1275.28 1268.94,-1276.22 1268.49,-1277.16 1267.97,-1278.09 1267.38,-1279.01 1266.74,-1279.92 1266.03,-1280.82 1265.27,-1281.7 1264.46,-1282.56 1263.61,-1283.4 1262.72,-1284.22 1261.78,-1285.01 1260.81,-1285.77 1259.81,-1286.5 1258.79,-1287.21 1257.73,-1287.87 1256.66,-1288.5 1255.57,-1289.1 1254.46,-1289.65 1253.33,-1290.16 1252.19,-1290.63 1251.04,-1291.06 1249.89,-1291.45 1248.72,-1291.78 1247.55,-1292.08 1246.37,-1292.32 1245.2,-1292.52 1244.01,-1292.66 1242.83,-1292.76 1241.64,-1292.81 1240.46,-1292.81 1239.27,-1292.76 1238.09,-1292.66 1236.9,-1292.52 1235.72,-1292.32 1234.55,-1292.08 1233.38,-1291.78 1232.21,-1291.45 1231.06,-1291.06 1229.91,-1290.63 1228.77,-1290.16 1227.64,-1289.65 1226.53,-1289.1 1225.44,-1288.5 1224.37,-1287.87 1223.31,-1287.21 1222.29,-1286.5 1221.29,-1285.77 1220.32,-1285.01 1219.38,-1284.22 1218.49,-1283.4 1217.64,-1282.56 1216.83,-1281.7 1216.07,-1280.82 1215.36,-1279.92 1214.72,-1279.01 1214.13,-1278.09 1213.61,-1277.16 1213.16,-1276.22 1212.78,-1275.28 1212.48,-1274.34 1212.26,-1273.4 1212.12,-1272.46 1212.06,-1271.53 1212.09,-1270.61 1212.22,-1269.7 1212.43,-1268.8 1212.74,-1267.92 1213.14,-1267.06 1213.64,-1266.22 1214.24,-1265.4 1214.92,-1264.61 1215.7,-1263.85 1216.58,-1263.12 1217.54,-1262.42 1218.59,-1261.75 1219.73,-1261.12 1220.95,-1260.53 1222.25,-1259.97 1223.62,-1259.46 1225.06,-1258.99 1226.57,-1258.56 1228.13,-1258.18 1229.74,-1257.84 1231.4,-1257.55 1233.1,-1257.3 1234.83,-1257.11 1236.59,-1256.96 1238.37,-1256.86 1240.15,-1256.81 1241.95,-1256.81 1243.73,-1256.86"/>
<text text-anchor="middle" x="1241.05" y="-1272.31" font-family="Helvetica,sans-Serif" font-size="10.00" fill="#e8e8e8">БПЛА</text>
</g>
<!-- Зенитные кодексы Аль&#45;Эфесби&#45;&#45;БПЛА -->
<g id="edge71" class="edge"><title>Зенитные кодексы Аль&#45;Эфесби&#45;&#45;БПЛА</title>
<path fill="none" stroke="#eeeeee" stroke-width="0.6" d="M1103.83,-1210.65C1138.09,-1226.67 1187.14,-1249.6 1216.37,-1263.27"/>
</g>
<!-- Зенитные кодексы Аль&#45;Эфесби&#45;&#45;Макар Гетман -->
<g id="edge72" class="edge"><title>Зенитные кодексы Аль&#45;Эфесби&#45;&#45;Макар Гетман</title>
<path fill="none" stroke="#eeeeee" stroke-width="0.6" d="M1093.99,-1210.62C1125.58,-1230.38 1177.87,-1262.96 1223.18,-1290.62 1283.64,-1327.55 1362.47,-1353.43 1409.3,-1366.81"/>
</g>
<!-- Зенитные кодексы Аль&#45;Эфесби&#45;&#45;Семён Левитан -->
<g id="edge73" class="edge"><title>Зенитные кодексы Аль&#45;Эфесби&#45;&#45;Семён Левитан</title>
<path fill="none" stroke="#eeeeee" stroke-width="0.6" d="M996.709,-1174.51C982.642,-1170.79 968.245,-1166.99 955.489,-1163.62"/>
</g>
<!-- Операция «Burning Bush» -->
<g id="node27" class="node"><title>Операция «Burning Bush»</title>
<polygon fill="#181818" stroke="#090909" stroke-width="0.8" points="989.516,-1017.23 854.516,-1017.23 854.516,-981.233 989.516,-981.233 989.516,-1017.23"/>
<text text-anchor="middle" x="922.016" y="-996.733" font-family="Helvetica,sans-Serif" font-size="10.00" fill="#fefefe">Операция «Burning Bush»</text>
</g>
<!-- Операция «Burning Bush»&#45;&#45;Вавилен Татарский -->
<g id="edge74" class="edge"><title>Операция «Burning Bush»&#45;&#45;Вавилен Татарский</title>
<path fill="none" stroke="#eeeeee" stroke-width="0.6" d="M883.749,-981.161C847.421,-964.005 793.386,-938.486 758.92,-922.209"/>
</g>
<!-- Операция «Burning Bush»&#45;&#45;генерал Шмыга -->
<g id="edge75" class="edge"><title>Операция «Burning Bush»&#45;&#45;генерал Шмыга</title>
<path fill="none" stroke="#eeeeee" stroke-width="0.6" d="M891.534,-1017.37C839.845,-1048.11 735.874,-1109.96 687.119,-1138.97"/>
</g>
<!-- Операция «Burning Bush»&#45;&#45;Дупин -->
<g id="edge76" class="edge"><title>Операция «Burning Bush»&#45;&#45;Дупин</title>
<path fill="none" stroke="#eeeeee" stroke-width="0.6" d="M954.925,-1017.35C976.309,-1029.12 1003.57,-1044.13 1022.19,-1054.39"/>
</g>
<!-- Олег -->
<g id="node59" class="node"><title>Олег</title>
<ellipse fill="#2f2f2f" stroke="#ececec" stroke-width="0.6" cx="1075.69" cy="-945.166" rx="27" ry="18"/>
<text text-anchor="middle" x="1075.69" y="-942.666" font-family="Helvetica,sans-Serif" font-size="10.00" fill="#ececec">Олег</text>
</g>
<!-- Операция «Burning Bush»&#45;&#45;Олег -->
<g id="edge77" class="edge"><title>Операция «Burning Bush»&#45;&#45;Олег</title>
<path fill="none" stroke="#eeeeee" stroke-width="0.6" d="M973.188,-981.229C999.556,-971.952 1030.48,-961.072 1051.41,-953.708"/>
</g>
<!-- Операция «Burning Bush»&#45;&#45;Семён Левитан -->
<g id="edge78" class="edge"><title>Операция «Burning Bush»&#45;&#45;Семён Левитан</title>
<path fill="none" stroke="#eeeeee" stroke-width="0.6" d="M921.067,-1017.44C919.527,-1046.97 916.502,-1104.97 914.962,-1134.49"/>
</g>
<!-- треугольное существо -->
<g id="node74" class="node"><title>треугольное существо</title>
<polygon fill="none" stroke="#e8e8e8" stroke-width="0.6" points="966.941,-818.519 971.579,-818.617 976.169,-818.765 980.693,-818.961 985.132,-819.205 989.467,-819.496 993.683,-819.834 997.763,-820.217 1001.69,-820.645 1005.45,-821.117 1009.03,-821.63 1012.42,-822.184 1015.61,-822.777 1018.58,-823.408 1021.33,-824.075 1023.85,-824.775 1026.13,-825.508 1028.17,-826.27 1029.96,-827.061 1031.51,-827.878 1032.81,-828.717 1033.87,-829.579 1034.67,-830.459 1035.23,-831.355 1035.56,-832.266 1035.64,-833.188 1035.5,-834.119 1035.13,-835.057 1034.55,-835.998 1033.76,-836.941 1032.77,-837.882 1031.59,-838.82 1030.23,-839.751 1028.7,-840.673 1027.01,-841.583 1025.17,-842.48 1023.19,-843.36 1021.08,-844.221 1018.86,-845.061 1016.52,-845.878 1014.08,-846.668 1011.55,-847.431 1008.94,-848.163 1006.26,-848.864 1003.51,-849.531 1000.7,-850.161 997.845,-850.755 994.944,-851.309 992.006,-851.822 989.034,-852.293 986.035,-852.721 983.012,-853.105 979.97,-853.443 976.912,-853.734 973.842,-853.978 970.761,-854.174 967.673,-854.321 964.58,-854.42 961.484,-854.469 958.386,-854.469 955.29,-854.42 952.197,-854.321 949.109,-854.174 946.028,-853.978 942.957,-853.734 939.899,-853.443 936.857,-853.105 933.835,-852.721 930.836,-852.293 927.864,-851.822 924.925,-851.309 922.025,-850.755 919.168,-850.161 916.362,-849.531 913.613,-848.864 910.93,-848.163 908.319,-847.431 905.791,-846.668 903.352,-845.878 901.014,-845.061 898.785,-844.221 896.675,-843.36 894.695,-842.48 892.855,-841.583 891.165,-840.673 889.636,-839.751 888.276,-838.82 887.098,-837.882 886.109,-836.941 885.319,-835.998 884.737,-835.057 884.371,-834.119 884.227,-833.188 884.314,-832.266 884.636,-831.355 885.198,-830.459 886.004,-829.579 887.057,-828.717 888.357,-827.878 889.906,-827.061 891.702,-826.27 893.743,-825.508 896.025,-824.775 898.543,-824.075 901.292,-823.408 904.263,-822.777 907.448,-822.184 910.837,-821.63 914.418,-821.117 918.179,-820.645 922.107,-820.217 926.186,-819.834 930.402,-819.496 934.738,-819.205 939.177,-818.961 943.7,-818.765 948.291,-818.617 952.929,-818.519 957.596,-818.469 962.273,-818.469 966.941,-818.519"/>
<text text-anchor="middle" x="959.935" y="-833.969" font-family="Helvetica,sans-Serif" font-size="10.00" fill="#e8e8e8">треугольное существо</text>
</g>
<!-- Операция «Burning Bush»&#45;&#45;треугольное существо -->
<g id="edge79" class="edge"><title>Операция «Burning Bush»&#45;&#45;треугольное существо</title>
<path fill="none" stroke="#eeeeee" stroke-width="0.6" d="M926.219,-981.192C933.508,-949.906 948.411,-885.933 955.713,-854.591"/>
</g>
<!-- Отель хороших воплощений -->
<g id="node28" class="node"><title>Отель хороших воплощений</title>
<polygon fill="#181818" stroke="#090909" stroke-width="0.8" points="1329.9,-744.06 1183.9,-744.06 1183.9,-708.06 1329.9,-708.06 1329.9,-744.06"/>
<text text-anchor="middle" x="1256.9" y="-723.56" font-family="Helvetica,sans-Serif" font-size="10.00" fill="#fefefe">Отель хороших воплощений</text>
</g>
<!-- Отель хороших воплощений&#45;&#45;треугольное существо -->
<g id="edge80" class="edge"><title>Отель хороших воплощений&#45;&#45;треугольное существо</title>
<path fill="none" stroke="#eeeeee" stroke-width="0.6" d="M1184.71,-744.146C1152.1,-753.08 1113.36,-764.773 1079.38,-777.951 1048.38,-789.974 1014.46,-806.987 990.715,-819.572"/>
</g>
<!-- Созерцатель тени -->
<g id="node29" class="node"><title>Созерцатель тени</title>
<polygon fill="#181818" stroke="#090909" stroke-width="0.8" points="1310.91,-950.379 1207.91,-950.379 1207.91,-914.379 1310.91,-914.379 1310.91,-950.379"/>
<text text-anchor="middle" x="1259.41" y="-929.879" font-family="Helvetica,sans-Serif" font-size="10.00" fill="#fefefe">Созерцатель тени</text>
</g>
<!-- Борис -->
<g id="node36" class="node"><title>Борис</title>
<ellipse fill="#2f2f2f" stroke="#ececec" stroke-width="0.6" cx="1450.02" cy="-1108.89" rx="27.1572" ry="18"/>
<text text-anchor="middle" x="1450.02" y="-1106.39" font-family="Helvetica,sans-Serif" font-size="10.00" fill="#ececec">Борис</text>
</g>
<!-- Созерцатель тени&#45;&#45;Борис -->
<g id="edge81" class="edge"><title>Созерцатель тени&#45;&#45;Борис</title>
<path fill="none" stroke="#eeeeee" stroke-width="0.6" d="M1279.09,-950.604C1316.95,-985.66 1399.24,-1061.86 1434,-1094.05"/>
</g>
<!-- Созерцатель тени&#45;&#45;Олег -->
<g id="edge82" class="edge"><title>Созерцатель тени&#45;&#45;Олег</title>
<path fill="none" stroke="#eeeeee" stroke-width="0.6" d="M1207.75,-935.975C1173.57,-938.354 1130.15,-941.375 1102.63,-943.291"/>
</g>
<!-- Созерцатель тени&#45;&#45;треугольное существо -->
<g id="edge83" class="edge"><title>Созерцатель тени&#45;&#45;треугольное существо</title>
<path fill="none" stroke="#eeeeee" stroke-width="0.6" d="M1207.59,-915.783C1149.33,-897.125 1055.86,-867.189 1001.95,-849.926"/>
</g>
<!-- Тхаги -->
<g id="node30" class="node"><title>Тхаги</title>
<polygon fill="#181818" stroke="#090909" stroke-width="0.8" points="1484.89,-878.789 1430.89,-878.789 1430.89,-842.789 1484.89,-842.789 1484.89,-878.789"/>
<text text-anchor="middle" x="1457.89" y="-858.289" font-family="Helvetica,sans-Serif" font-size="10.00" fill="#fefefe">Тхаги</text>
</g>
<!-- Тхаги&#45;&#45;Борис -->
<g id="edge84" class="edge"><title>Тхаги&#45;&#45;Борис</title>
<path fill="none" stroke="#eeeeee" stroke-width="0.6" d="M1457.31,-879.032C1455.86,-924.913 1452.06,-1044.71 1450.6,-1090.62"/>
</g>
<!-- S.N.U.F.F. -->
<g id="node31" class="node"><title>S.N.U.F.F.</title>
<polygon fill="#181818" stroke="#090909" stroke-width="0.8" points="1059.59,-1351.21 994.594,-1351.21 994.594,-1315.21 1059.59,-1315.21 1059.59,-1351.21"/>
<text text-anchor="middle" x="1027.09" y="-1330.71" font-family="Helvetica,sans-Serif" font-size="10.00" fill="#fefefe">S.N.U.F.F.</text>
</g>
<!-- Ацтланский календарь -->
<g id="node35" class="node"><title>Ацтланский календарь</title>
<polygon fill="none" stroke="#e8e8e8" stroke-width="0.6" points="982.757,-1489.32 987.549,-1489.42 992.292,-1489.56 996.966,-1489.76 1001.55,-1490 1006.03,-1490.29 1010.39,-1490.63 1014.6,-1491.02 1018.66,-1491.44 1022.55,-1491.92 1026.25,-1492.43 1029.75,-1492.98 1033.04,-1493.58 1036.11,-1494.21 1038.95,-1494.87 1041.55,-1495.57 1043.91,-1496.31 1046.02,-1497.07 1047.87,-1497.86 1049.47,-1498.68 1050.82,-1499.52 1051.9,-1500.38 1052.74,-1501.26 1053.32,-1502.15 1053.65,-1503.06 1053.74,-1503.99 1053.59,-1504.92 1053.21,-1505.86 1052.61,-1506.8 1051.8,-1507.74 1050.78,-1508.68 1049.56,-1509.62 1048.15,-1510.55 1046.57,-1511.47 1044.83,-1512.38 1042.92,-1513.28 1040.88,-1514.16 1038.7,-1515.02 1036.4,-1515.86 1033.98,-1516.68 1031.46,-1517.47 1028.85,-1518.23 1026.15,-1518.96 1023.38,-1519.66 1020.54,-1520.33 1017.64,-1520.96 1014.69,-1521.55 1011.69,-1522.11 1008.65,-1522.62 1005.58,-1523.09 1002.49,-1523.52 999.362,-1523.9 996.219,-1524.24 993.06,-1524.53 989.887,-1524.78 986.704,-1524.97 983.513,-1525.12 980.317,-1525.22 977.118,-1525.27 973.918,-1525.27 970.719,-1525.22 967.523,-1525.12 964.332,-1524.97 961.149,-1524.78 957.977,-1524.53 954.817,-1524.24 951.674,-1523.9 948.551,-1523.52 945.452,-1523.09 942.382,-1522.62 939.346,-1522.11 936.349,-1521.55 933.397,-1520.96 930.498,-1520.33 927.658,-1519.66 924.885,-1518.96 922.188,-1518.23 919.575,-1517.47 917.056,-1516.68 914.64,-1515.86 912.337,-1515.02 910.157,-1514.16 908.111,-1513.28 906.21,-1512.38 904.464,-1511.47 902.883,-1510.55 901.479,-1509.62 900.261,-1508.68 899.239,-1507.74 898.423,-1506.8 897.822,-1505.86 897.443,-1504.92 897.296,-1503.99 897.385,-1503.06 897.718,-1502.15 898.299,-1501.26 899.132,-1500.38 900.219,-1499.52 901.563,-1498.68 903.163,-1497.86 905.018,-1497.07 907.127,-1496.31 909.485,-1495.57 912.087,-1494.87 914.927,-1494.21 917.997,-1493.58 921.288,-1492.98 924.789,-1492.43 928.489,-1491.92 932.375,-1491.44 936.434,-1491.02 940.649,-1490.63 945.004,-1490.29 949.484,-1490 954.07,-1489.76 958.744,-1489.56 963.487,-1489.42 968.28,-1489.32 973.102,-1489.27 977.934,-1489.27 982.757,-1489.32"/>
<text text-anchor="middle" x="975.518" y="-1504.77" font-family="Helvetica,sans-Serif" font-size="10.00" fill="#e8e8e8">Ацтланский календарь</text>
</g>
<!-- S.N.U.F.F.&#45;&#45;Ацтланский календарь -->
<g id="edge85" class="edge"><title>S.N.U.F.F.&#45;&#45;Ацтланский календарь</title>
<path fill="none" stroke="#eeeeee" stroke-width="0.6" d="M1021.67,-1351.51C1011.74,-1385.02 990.745,-1455.88 980.867,-1489.21"/>
</g>
<!-- S.N.U.F.F.&#45;&#45;БПЛА -->
<g id="edge86" class="edge"><title>S.N.U.F.F.&#45;&#45;БПЛА</title>
<path fill="none" stroke="#eeeeee" stroke-width="0.6" d="M1060.06,-1324.21C1103.19,-1312.44 1177.82,-1292.07 1216.39,-1281.54"/>
</g>
<!-- гигантская летучая мышь -->
<g id="node42" class="node"><title>гигантская летучая мышь</title>
<polygon fill="none" stroke="#e8e8e8" stroke-width="0.6" points="868.011,-1688.96 873.22,-1689.06 878.374,-1689.21 883.454,-1689.4 888.439,-1689.65 893.307,-1689.94 898.041,-1690.28 902.623,-1690.66 907.033,-1691.09 911.257,-1691.56 915.278,-1692.07 919.084,-1692.63 922.66,-1693.22 925.997,-1693.85 929.083,-1694.52 931.911,-1695.22 934.474,-1695.95 936.765,-1696.71 938.782,-1697.5 940.521,-1698.32 941.981,-1699.16 943.163,-1700.02 944.068,-1700.9 944.7,-1701.8 945.061,-1702.71 945.159,-1703.63 944.998,-1704.56 944.587,-1705.5 943.933,-1706.44 943.046,-1707.38 941.936,-1708.33 940.612,-1709.26 939.086,-1710.19 937.368,-1711.12 935.47,-1712.03 933.404,-1712.92 931.18,-1713.8 928.812,-1714.67 926.309,-1715.5 923.683,-1716.32 920.945,-1717.11 918.105,-1717.87 915.174,-1718.61 912.16,-1719.31 909.074,-1719.97 905.923,-1720.61 902.715,-1721.2 899.457,-1721.75 896.157,-1722.27 892.821,-1722.74 889.453,-1723.17 886.059,-1723.55 882.643,-1723.89 879.209,-1724.18 875.761,-1724.42 872.301,-1724.62 868.834,-1724.77 865.36,-1724.86 861.883,-1724.91 858.405,-1724.91 854.928,-1724.86 851.455,-1724.77 847.987,-1724.62 844.528,-1724.42 841.079,-1724.18 837.646,-1723.89 834.23,-1723.55 830.836,-1723.17 827.468,-1722.74 824.131,-1722.27 820.831,-1721.75 817.574,-1721.2 814.366,-1720.61 811.215,-1719.97 808.128,-1719.31 805.115,-1718.61 802.183,-1717.87 799.344,-1717.11 796.606,-1716.32 793.98,-1715.5 791.477,-1714.67 789.108,-1713.8 786.885,-1712.92 784.818,-1712.03 782.92,-1711.12 781.203,-1710.19 779.676,-1709.26 778.353,-1708.33 777.242,-1707.38 776.355,-1706.44 775.702,-1705.5 775.29,-1704.56 775.13,-1703.63 775.227,-1702.71 775.589,-1701.8 776.22,-1700.9 777.125,-1700.02 778.307,-1699.16 779.767,-1698.32 781.507,-1697.5 783.523,-1696.71 785.815,-1695.95 788.377,-1695.22 791.205,-1694.52 794.292,-1693.85 797.628,-1693.22 801.205,-1692.63 805.01,-1692.07 809.032,-1691.56 813.255,-1691.09 817.666,-1690.66 822.247,-1690.28 826.981,-1689.94 831.85,-1689.65 836.834,-1689.4 841.914,-1689.21 847.069,-1689.06 852.277,-1688.96 857.518,-1688.91 862.77,-1688.91 868.011,-1688.96"/>
<text text-anchor="middle" x="860.144" y="-1704.41" font-family="Helvetica,sans-Serif" font-size="10.00" fill="#e8e8e8">гигантская летучая мышь</text>
</g>
<!-- S.N.U.F.F.&#45;&#45;гигантская летучая мышь -->
<g id="edge87" class="edge"><title>S.N.U.F.F.&#45;&#45;гигантская летучая мышь</title>
<path fill="none" stroke="#eeeeee" stroke-width="0.6" d="M1008.1,-1351.56C979.101,-1380.69 924.02,-1440.52 894.387,-1501.94 863.662,-1565.63 859.912,-1651.95 859.842,-1688.91"/>
</g>
<!-- Еврайх -->
<g id="node45" class="node"><title>Еврайх</title>
<polygon fill="none" stroke="#e8e8e8" stroke-width="0.6" points="1212.31,-1465.36 1214.27,-1465.46 1216.2,-1465.61 1218.11,-1465.8 1219.99,-1466.05 1221.82,-1466.34 1223.59,-1466.67 1225.32,-1467.06 1226.97,-1467.49 1228.56,-1467.96 1230.07,-1468.47 1231.5,-1469.02 1232.84,-1469.62 1234.1,-1470.25 1235.26,-1470.92 1236.32,-1471.62 1237.28,-1472.35 1238.14,-1473.11 1238.9,-1473.9 1239.56,-1474.72 1240.1,-1475.56 1240.55,-1476.42 1240.89,-1477.3 1241.13,-1478.2 1241.26,-1479.11 1241.3,-1480.03 1241.24,-1480.96 1241.08,-1481.9 1240.84,-1482.84 1240.5,-1483.78 1240.09,-1484.72 1239.59,-1485.66 1239.02,-1486.59 1238.37,-1487.51 1237.66,-1488.42 1236.88,-1489.32 1236.05,-1490.2 1235.16,-1491.06 1234.22,-1491.9 1233.23,-1492.72 1232.2,-1493.51 1231.13,-1494.27 1230.03,-1495 1228.9,-1495.7 1227.74,-1496.37 1226.56,-1497 1225.35,-1497.6 1224.13,-1498.15 1222.89,-1498.66 1221.63,-1499.13 1220.37,-1499.56 1219.09,-1499.95 1217.81,-1500.28 1216.52,-1500.57 1215.22,-1500.82 1213.92,-1501.01 1212.62,-1501.16 1211.31,-1501.26 1210.01,-1501.31 1208.7,-1501.31 1207.4,-1501.26 1206.09,-1501.16 1204.79,-1501.01 1203.49,-1500.82 1202.19,-1500.57 1200.9,-1500.28 1199.62,-1499.95 1198.34,-1499.56 1197.08,-1499.13 1195.82,-1498.66 1194.58,-1498.15 1193.36,-1497.6 1192.15,-1497 1190.97,-1496.37 1189.81,-1495.7 1188.68,-1495 1187.58,-1494.27 1186.51,-1493.51 1185.48,-1492.72 1184.49,-1491.9 1183.55,-1491.06 1182.66,-1490.2 1181.83,-1489.32 1181.05,-1488.42 1180.34,-1487.51 1179.69,-1486.59 1179.12,-1485.66 1178.62,-1484.72 1178.21,-1483.78 1177.87,-1482.84 1177.63,-1481.9 1177.47,-1480.96 1177.41,-1480.03 1177.45,-1479.11 1177.58,-1478.2 1177.82,-1477.3 1178.16,-1476.42 1178.61,-1475.56 1179.15,-1474.72 1179.81,-1473.9 1180.57,-1473.11 1181.43,-1472.35 1182.39,-1471.62 1183.45,-1470.92 1184.61,-1470.25 1185.87,-1469.62 1187.21,-1469.02 1188.64,-1468.47 1190.15,-1467.96 1191.74,-1467.49 1193.39,-1467.06 1195.12,-1466.67 1196.89,-1466.34 1198.72,-1466.05 1200.6,-1465.8 1202.51,-1465.61 1204.44,-1465.46 1206.4,-1465.36 1208.37,-1465.31 1210.34,-1465.31 1212.31,-1465.36"/>
<text text-anchor="middle" x="1209.35" y="-1480.81" font-family="Helvetica,sans-Serif" font-size="10.00" fill="#e8e8e8">Еврайх</text>
</g>
<!-- S.N.U.F.F.&#45;&#45;Еврайх -->
<g id="edge88" class="edge"><title>S.N.U.F.F.&#45;&#45;Еврайх</title>
<path fill="none" stroke="#eeeeee" stroke-width="0.6" d="M1049.08,-1351.31C1085.15,-1381.02 1156.29,-1439.61 1190.33,-1467.64"/>
</g>
<!-- S.N.U.F.F.&#45;&#45;Семён Левитан -->
<g id="edge89" class="edge"><title>S.N.U.F.F.&#45;&#45;Семён Левитан</title>
<path fill="none" stroke="#eeeeee" stroke-width="0.6" d="M1015.63,-1314.9C993.843,-1280.12 946.721,-1204.89 925.174,-1170.49"/>
</g>
<!-- суры -->
<g id="node72" class="node"><title>суры</title>
<polygon fill="none" stroke="#e8e8e8" stroke-width="0.6" points="1128.27,-1688.97 1130.04,-1689.06 1131.8,-1689.21 1133.53,-1689.41 1135.23,-1689.65 1136.89,-1689.94 1138.51,-1690.28 1140.07,-1690.66 1141.57,-1691.09 1143.01,-1691.56 1144.38,-1692.08 1145.68,-1692.63 1146.9,-1693.22 1148.04,-1693.86 1149.09,-1694.52 1150.05,-1695.22 1150.93,-1695.96 1151.71,-1696.72 1152.4,-1697.51 1152.99,-1698.33 1153.49,-1699.17 1153.89,-1700.03 1154.2,-1700.91 1154.42,-1701.8 1154.54,-1702.71 1154.57,-1703.64 1154.52,-1704.57 1154.38,-1705.5 1154.15,-1706.45 1153.85,-1707.39 1153.47,-1708.33 1153.02,-1709.27 1152.5,-1710.2 1151.92,-1711.12 1151.27,-1712.03 1150.56,-1712.93 1149.81,-1713.81 1149,-1714.67 1148.14,-1715.51 1147.25,-1716.33 1146.32,-1717.12 1145.35,-1717.88 1144.35,-1718.61 1143.32,-1719.31 1142.27,-1719.98 1141.19,-1720.61 1140.1,-1721.2 1138.99,-1721.76 1137.86,-1722.27 1136.73,-1722.74 1135.58,-1723.17 1134.42,-1723.55 1133.25,-1723.89 1132.08,-1724.18 1130.91,-1724.43 1129.73,-1724.62 1128.55,-1724.77 1127.36,-1724.87 1126.18,-1724.92 1124.99,-1724.92 1123.8,-1724.87 1122.62,-1724.77 1121.44,-1724.62 1120.26,-1724.43 1119.08,-1724.18 1117.91,-1723.89 1116.75,-1723.55 1115.59,-1723.17 1114.44,-1722.74 1113.3,-1722.27 1112.18,-1721.76 1111.07,-1721.2 1109.97,-1720.61 1108.9,-1719.98 1107.85,-1719.31 1106.82,-1718.61 1105.82,-1717.88 1104.85,-1717.12 1103.92,-1716.33 1103.02,-1715.51 1102.17,-1714.67 1101.36,-1713.81 1100.6,-1712.93 1099.9,-1712.03 1099.25,-1711.12 1098.66,-1710.2 1098.14,-1709.27 1097.69,-1708.33 1097.31,-1707.39 1097.01,-1706.45 1096.79,-1705.5 1096.65,-1704.57 1096.59,-1703.64 1096.63,-1702.71 1096.75,-1701.8 1096.97,-1700.91 1097.27,-1700.03 1097.68,-1699.17 1098.18,-1698.33 1098.77,-1697.51 1099.46,-1696.72 1100.24,-1695.96 1101.11,-1695.22 1102.08,-1694.52 1103.13,-1693.86 1104.27,-1693.22 1105.49,-1692.63 1106.78,-1692.08 1108.15,-1691.56 1109.59,-1691.09 1111.1,-1690.66 1112.66,-1690.28 1114.27,-1689.94 1115.93,-1689.65 1117.63,-1689.41 1119.37,-1689.21 1121.12,-1689.06 1122.9,-1688.97 1124.69,-1688.92 1126.48,-1688.92 1128.27,-1688.97"/>
<text text-anchor="middle" x="1125.58" y="-1704.42" font-family="Helvetica,sans-Serif" font-size="10.00" fill="#e8e8e8">суры</text>
</g>
<!-- S.N.U.F.F.&#45;&#45;суры -->
<g id="edge90" class="edge"><title>S.N.U.F.F.&#45;&#45;суры</title>
<path fill="none" stroke="#eeeeee" stroke-width="0.6" d="M1031.84,-1351.23C1048.52,-1414.51 1104.28,-1626.08 1120.88,-1689.07"/>
</g>
<!-- Бэтман Аполло -->
<g id="node32" class="node"><title>Бэтман Аполло</title>
<polygon fill="#181818" stroke="#090909" stroke-width="0.8" points="838.058,-1502.52 752.058,-1502.52 752.058,-1466.52 838.058,-1466.52 838.058,-1502.52"/>
<text text-anchor="middle" x="795.058" y="-1482.02" font-family="Helvetica,sans-Serif" font-size="10.00" fill="#fefefe">Бэтман Аполло</text>
</g>
<!-- Бэтман Аполло&#45;&#45;Ацтланский календарь -->
<g id="edge91" class="edge"><title>Бэтман Аполло&#45;&#45;Ацтланский календарь</title>
<path fill="none" stroke="#eeeeee" stroke-width="0.6" d="M838.283,-1489.97C857.573,-1492.4 880.841,-1495.33 902.692,-1498.09"/>
</g>
<!-- Бэтман Аполло&#45;&#45;гигантская летучая мышь -->
<g id="edge92" class="edge"><title>Бэтман Аполло&#45;&#45;гигантская летучая мышь</title>
<path fill="none" stroke="#eeeeee" stroke-width="0.6" d="M800.385,-1502.72C812.62,-1544.53 842.618,-1647.03 854.836,-1688.77"/>
</g>
<!-- Бэтман Аполло&#45;&#45;клуб «Haute SOS» -->
<g id="edge93" class="edge"><title>Бэтман Аполло&#45;&#45;клуб «Haute SOS»</title>
<path fill="none" stroke="#eeeeee" stroke-width="0.6" d="M759.734,-1502.7C678.352,-1544.58 478.806,-1647.27 402.529,-1686.52"/>
</g>
<!-- Бэтман Аполло&#45;&#45;Михаил Ботвинник -->
<g id="edge94" class="edge"><title>Бэтман Аполло&#45;&#45;Михаил Ботвинник</title>
<path fill="none" stroke="#eeeeee" stroke-width="0.6" d="M780.56,-1502.66C748.353,-1542.94 671.181,-1639.47 639.233,-1679.43"/>
</g>
<!-- Бэтман Аполло&#45;&#45;Михаил Непойман -->
<g id="edge95" class="edge"><title>Бэтман Аполло&#45;&#45;Михаил Непойман</title>
<path fill="none" stroke="#eeeeee" stroke-width="0.6" d="M788.935,-1466.51C776.085,-1428.71 746.436,-1341.49 733.556,-1303.61"/>
</g>
<!-- Бэтман Аполло&#45;&#45;Рама -->
<g id="edge96" class="edge"><title>Бэтман Аполло&#45;&#45;Рама</title>
<path fill="none" stroke="#eeeeee" stroke-width="0.6" d="M801.944,-1466.38C815.272,-1431.28 844.437,-1354.45 857.579,-1319.83"/>
</g>
<!-- Бэтман Аполло&#45;&#45;халдеи -->
<g id="edge97" class="edge"><title>Бэтман Аполло&#45;&#45;халдеи</title>
<path fill="none" stroke="#eeeeee" stroke-width="0.6" d="M794.627,-1466.08C793.232,-1406.39 788.849,-1218.9 787.465,-1159.67"/>
</g>
<!-- Любовь к трём цукербринам -->
<g id="node33" class="node"><title>Любовь к трём цукербринам</title>
<polygon fill="#181818" stroke="#090909" stroke-width="0.8" points="1494.35,-1690.14 1344.35,-1690.14 1344.35,-1654.14 1494.35,-1654.14 1494.35,-1690.14"/>
<text text-anchor="middle" x="1419.35" y="-1669.64" font-family="Helvetica,sans-Serif" font-size="10.00" fill="#fefefe">Любовь к трём цукербринам</text>
</g>
<!-- Любовь к трём цукербринам&#45;&#45;Еврайх -->
<g id="edge98" class="edge"><title>Любовь к трём цукербринам&#45;&#45;Еврайх</title>
<path fill="none" stroke="#eeeeee" stroke-width="0.6" d="M1399.22,-1654.03C1357.64,-1616.65 1263.04,-1531.58 1225.32,-1497.66"/>
</g>
<!-- Любовь к трём цукербринам&#45;&#45;суры -->
<g id="edge99" class="edge"><title>Любовь к трём цукербринам&#45;&#45;суры</title>
<path fill="none" stroke="#eeeeee" stroke-width="0.6" d="M1344.08,-1681.05C1282.37,-1688.35 1198.33,-1698.3 1154.65,-1703.48"/>
</g>
</g>
</svg>
