<?xml version="1.0" encoding="UTF-8" standalone="no"?>
<!DOCTYPE svg PUBLIC "-//W3C//DTD SVG 1.1//EN"
 "http://www.w3.org/Graphics/SVG/1.1/DTD/svg11.dtd">
<!-- Generated by graphviz version 2.36.0 (20140111.2315)
 -->
<!-- Title: %3 Pages: 1 -->
<svg width="2581pt" height="1656pt"
 viewBox="0.00 0.00 2581.12 1656.14" xmlns="http://www.w3.org/2000/svg" xmlns:xlink="http://www.w3.org/1999/xlink">
<g id="graph0" class="graph" transform="scale(1 1) rotate(0) translate(4 1652.14)">
<title>%3</title>
<polygon fill="#1f1f1f" stroke="none" points="-4,4 -4,-1652.14 2577.12,-1652.14 2577.12,4 -4,4"/>
<!-- Оружие возмездия -->
<g id="node1" class="node"><title>Оружие возмездия</title>
<polygon fill="#181818" stroke="#090909" stroke-width="0.8" points="135.665,-121.775 28.6647,-121.775 28.6647,-85.7752 135.665,-85.7752 135.665,-121.775"/>
<text text-anchor="middle" x="82.1647" y="-101.275" font-family="Helvetica,sans-Serif" font-size="10.00" fill="#fefefe">Оружие возмездия</text>
</g>
<!-- П. Стецюк -->
<g id="node62" class="node"><title>П. Стецюк</title>
<ellipse fill="#2f2f2f" stroke="#ececec" stroke-width="0.6" cx="39.4404" cy="-817.259" rx="39.3809" ry="18"/>
<text text-anchor="middle" x="39.4404" y="-814.759" font-family="Helvetica,sans-Serif" font-size="10.00" fill="#ececec">П. Стецюк</text>
</g>
<!-- Оружие возмездия&#45;&#45;П. Стецюк -->
<g id="edge1" class="edge"><title>Оружие возмездия&#45;&#45;П. Стецюк</title>
<path fill="none" stroke="#eeeeee" stroke-width="0.6" d="M81.0656,-122.129C75.0836,-222.027 46.4959,-699.435 40.5322,-799.027"/>
</g>
<!-- Реконструктор -->
<g id="node2" class="node"><title>Реконструктор</title>
<polygon fill="#181818" stroke="#090909" stroke-width="0.8" points="163.75,-523.28 75.7504,-523.28 75.7504,-487.28 163.75,-487.28 163.75,-523.28"/>
<text text-anchor="middle" x="119.75" y="-502.78" font-family="Helvetica,sans-Serif" font-size="10.00" fill="#fefefe">Реконструктор</text>
</g>
<!-- Реконструктор&#45;&#45;П. Стецюк -->
<g id="edge2" class="edge"><title>Реконструктор&#45;&#45;П. Стецюк</title>
<path fill="none" stroke="#eeeeee" stroke-width="0.6" d="M115.085,-523.402C100.891,-578.542 58.3295,-743.881 44.1182,-799.088"/>
</g>
<!-- Сероб Налбандян -->
<g id="node72" class="node"><title>Сероб Налбандян</title>
<ellipse fill="#2f2f2f" stroke="#ececec" stroke-width="0.6" cx="504.589" cy="-847.337" rx="58.0561" ry="18"/>
<text text-anchor="middle" x="504.589" y="-844.837" font-family="Helvetica,sans-Serif" font-size="10.00" fill="#ececec">Сероб Налбандян</text>
</g>
<!-- Реконструктор&#45;&#45;Сероб Налбандян -->
<g id="edge3" class="edge"><title>Реконструктор&#45;&#45;Сероб Налбандян</title>
<path fill="none" stroke="#eeeeee" stroke-width="0.6" d="M140.169,-523.429C207.143,-582.957 419.596,-771.793 485.141,-830.051"/>
</g>
<!-- День бульдозериста -->
<g id="node3" class="node"><title>День бульдозериста</title>
<polygon fill="#181818" stroke="#090909" stroke-width="0.8" points="2567.28,-1200.31 2453.28,-1200.31 2453.28,-1164.31 2567.28,-1164.31 2567.28,-1200.31"/>
<text text-anchor="middle" x="2510.28" y="-1179.81" font-family="Helvetica,sans-Serif" font-size="10.00" fill="#fefefe">День бульдозериста</text>
</g>
<!-- Померанцев (Константин Победоносцев) -->
<g id="node65" class="node"><title>Померанцев (Константин Победоносцев)</title>
<ellipse fill="#2f2f2f" stroke="#ececec" stroke-width="0.6" cx="2104.45" cy="-1027.26" rx="121.707" ry="18"/>
<text text-anchor="middle" x="2104.45" y="-1024.76" font-family="Helvetica,sans-Serif" font-size="10.00" fill="#ececec">Померанцев (Константин Победоносцев)</text>
</g>
<!-- День бульдозериста&#45;&#45;Померанцев (Константин Победоносцев) -->
<g id="edge4" class="edge"><title>День бульдозериста&#45;&#45;Померанцев (Константин Победоносцев)</title>
<path fill="none" stroke="#eeeeee" stroke-width="0.6" d="M2462.93,-1164.22C2383.69,-1133.94 2225.34,-1073.44 2148.41,-1044.05"/>
</g>
<!-- товарищ Бабаясин -->
<g id="node75" class="node"><title>товарищ Бабаясин</title>
<ellipse fill="#2f2f2f" stroke="#ececec" stroke-width="0.6" cx="2072.8" cy="-1279.51" rx="61.4427" ry="18"/>
<text text-anchor="middle" x="2072.8" y="-1277.01" font-family="Helvetica,sans-Serif" font-size="10.00" fill="#ececec">товарищ Бабаясин</text>
</g>
<!-- День бульдозериста&#45;&#45;товарищ Бабаясин -->
<g id="edge5" class="edge"><title>День бульдозериста&#45;&#45;товарищ Бабаясин</title>
<path fill="none" stroke="#eeeeee" stroke-width="0.6" d="M2453.09,-1195.01C2366.47,-1214.26 2203.48,-1250.47 2121.91,-1268.6"/>
</g>
<!-- Миттельшпиль -->
<g id="node4" class="node"><title>Миттельшпиль</title>
<polygon fill="#181818" stroke="#090909" stroke-width="0.8" points="1241.73,-1625.76 1155.73,-1625.76 1155.73,-1589.76 1241.73,-1589.76 1241.73,-1625.76"/>
<text text-anchor="middle" x="1198.73" y="-1605.26" font-family="Helvetica,sans-Serif" font-size="10.00" fill="#fefefe">Миттельшпиль</text>
</g>
<!-- Нелли -->
<g id="node60" class="node"><title>Нелли</title>
<ellipse fill="#2f2f2f" stroke="#ececec" stroke-width="0.6" cx="1246.97" cy="-1280.94" rx="27.1572" ry="18"/>
<text text-anchor="middle" x="1246.97" y="-1278.44" font-family="Helvetica,sans-Serif" font-size="10.00" fill="#ececec">Нелли</text>
</g>
<!-- Миттельшпиль&#45;&#45;Нелли -->
<g id="edge6" class="edge"><title>Миттельшпиль&#45;&#45;Нелли</title>
<path fill="none" stroke="#eeeeee" stroke-width="0.6" d="M1201.39,-1589.72C1209.82,-1532.58 1235.89,-1355.98 1244.31,-1298.92"/>
</g>
<!-- Музыка со столба -->
<g id="node5" class="node"><title>Музыка со столба</title>
<polygon fill="#181818" stroke="#090909" stroke-width="0.8" points="152.377,-1576.47 51.377,-1576.47 51.377,-1540.47 152.377,-1540.47 152.377,-1576.47"/>
<text text-anchor="middle" x="101.877" y="-1555.97" font-family="Helvetica,sans-Serif" font-size="10.00" fill="#fefefe">Музыка со столба</text>
</g>
<!-- Матвей (Гиммлер) -->
<g id="node54" class="node"><title>Матвей (Гиммлер)</title>
<ellipse fill="#2f2f2f" stroke="#ececec" stroke-width="0.6" cx="91.8438" cy="-1149.73" rx="59.4099" ry="18"/>
<text text-anchor="middle" x="91.8438" y="-1147.23" font-family="Helvetica,sans-Serif" font-size="10.00" fill="#ececec">Матвей (Гиммлер)</text>
</g>
<!-- Музыка со столба&#45;&#45;Матвей (Гиммлер) -->
<g id="edge7" class="edge"><title>Музыка со столба&#45;&#45;Матвей (Гиммлер)</title>
<path fill="none" stroke="#eeeeee" stroke-width="0.6" d="M101.433,-1540.38C99.7757,-1472.86 93.9618,-1236.01 92.2941,-1168.07"/>
</g>
<!-- Откровение Крегера -->
<g id="node6" class="node"><title>Откровение Крегера</title>
<polygon fill="#181818" stroke="#090909" stroke-width="0.8" points="603.136,-1200.49 488.136,-1200.49 488.136,-1164.49 603.136,-1164.49 603.136,-1200.49"/>
<text text-anchor="middle" x="545.636" y="-1179.99" font-family="Helvetica,sans-Serif" font-size="10.00" fill="#fefefe">Откровение Крегера</text>
</g>
<!-- Откровение Крегера&#45;&#45;Матвей (Гиммлер) -->
<g id="edge8" class="edge"><title>Откровение Крегера&#45;&#45;Матвей (Гиммлер)</title>
<path fill="none" stroke="#eeeeee" stroke-width="0.6" d="M487.702,-1178.3C400.608,-1172.02 236.892,-1160.2 149.791,-1153.91"/>
</g>
<!-- Откровение Крегера&#45;&#45;Сероб Налбандян -->
<g id="edge9" class="edge"><title>Откровение Крегера&#45;&#45;Сероб Налбандян</title>
<path fill="none" stroke="#eeeeee" stroke-width="0.6" d="M543.429,-1164.47C536.302,-1106.28 513.949,-923.765 506.807,-865.445"/>
</g>
<!-- Принц Госплана -->
<g id="node7" class="node"><title>Принц Госплана</title>
<polygon fill="#181818" stroke="#090909" stroke-width="0.8" points="974.16,-1620.63 881.16,-1620.63 881.16,-1584.63 974.16,-1584.63 974.16,-1620.63"/>
<text text-anchor="middle" x="927.66" y="-1600.13" font-family="Helvetica,sans-Serif" font-size="10.00" fill="#fefefe">Принц Госплана</text>
</g>
<!-- Саша Лапин -->
<g id="node70" class="node"><title>Саша Лапин</title>
<ellipse fill="#2f2f2f" stroke="#ececec" stroke-width="0.6" cx="1067.47" cy="-1308.45" rx="42.9448" ry="18"/>
<text text-anchor="middle" x="1067.47" y="-1305.95" font-family="Helvetica,sans-Serif" font-size="10.00" fill="#ececec">Саша Лапин</text>
</g>
<!-- Принц Госплана&#45;&#45;Саша Лапин -->
<g id="edge10" class="edge"><title>Принц Госплана&#45;&#45;Саша Лапин</title>
<path fill="none" stroke="#eeeeee" stroke-width="0.6" d="M936.405,-1584.23C961.574,-1531.27 1033.97,-1378.94 1058.91,-1326.47"/>
</g>
<!-- Проблема верволка в средней полосе -->
<g id="node8" class="node"><title>Проблема верволка в средней полосе</title>
<polygon fill="#181818" stroke="#090909" stroke-width="0.8" points="698.155,-1591.74 505.155,-1591.74 505.155,-1555.74 698.155,-1555.74 698.155,-1591.74"/>
<text text-anchor="middle" x="601.655" y="-1571.24" font-family="Helvetica,sans-Serif" font-size="10.00" fill="#fefefe">Проблема верволка в средней полосе</text>
</g>
<!-- Проблема верволка в средней полосе&#45;&#45;Саша Лапин -->
<g id="edge11" class="edge"><title>Проблема верволка в средней полосе&#45;&#45;Саша Лапин</title>
<path fill="none" stroke="#eeeeee" stroke-width="0.6" d="M633.306,-1555.71C720.436,-1506.09 962.604,-1368.17 1041.94,-1322.99"/>
</g>
<!-- Омон Ра -->
<g id="node9" class="node"><title>Омон Ра</title>
<polygon fill="#181818" stroke="#090909" stroke-width="0.8" points="800.347,-991.446 744.347,-991.446 744.347,-955.446 800.347,-955.446 800.347,-991.446"/>
<text text-anchor="middle" x="772.347" y="-970.946" font-family="Helvetica,sans-Serif" font-size="10.00" fill="#fefefe">Омон Ра</text>
</g>
<!-- Бункер под Лубянкой -->
<g id="node39" class="node"><title>Бункер под Лубянкой</title>
<polygon fill="none" stroke="#e8e8e8" stroke-width="0.6" points="967.143,-940.437 971.627,-940.535 976.065,-940.683 980.438,-940.879 984.73,-941.123 988.921,-941.414 992.997,-941.752 996.941,-942.135 1000.74,-942.563 1004.37,-943.035 1007.84,-943.548 1011.11,-944.102 1014.19,-944.695 1017.06,-945.326 1019.72,-945.993 1022.16,-946.693 1024.36,-947.426 1026.34,-948.189 1028.07,-948.979 1029.57,-949.796 1030.83,-950.636 1031.84,-951.497 1032.62,-952.377 1033.17,-953.273 1033.48,-954.184 1033.56,-955.106 1033.42,-956.037 1033.07,-956.975 1032.51,-957.916 1031.74,-958.859 1030.79,-959.8 1029.65,-960.738 1028.33,-961.669 1026.85,-962.591 1025.22,-963.501 1023.44,-964.398 1021.53,-965.278 1019.49,-966.139 1017.33,-966.979 1015.07,-967.796 1012.72,-968.586 1010.27,-969.349 1007.75,-970.081 1005.15,-970.782 1002.5,-971.449 999.782,-972.079 997.021,-972.673 994.216,-973.227 991.375,-973.74 988.502,-974.212 985.603,-974.639 982.681,-975.023 979.74,-975.361 976.783,-975.652 973.815,-975.896 970.836,-976.092 967.851,-976.24 964.86,-976.338 961.867,-976.387 958.873,-976.387 955.879,-976.338 952.889,-976.24 949.903,-976.092 946.925,-975.896 943.956,-975.652 941,-975.361 938.059,-975.023 935.137,-974.639 932.237,-974.212 929.365,-973.74 926.524,-973.227 923.719,-972.673 920.957,-972.079 918.245,-971.449 915.587,-970.782 912.993,-970.081 910.469,-969.349 908.024,-968.586 905.667,-967.796 903.406,-966.979 901.251,-966.139 899.212,-965.278 897.298,-964.398 895.519,-963.501 893.885,-962.591 892.406,-961.669 891.092,-960.738 889.952,-959.8 888.996,-958.859 888.233,-957.916 887.67,-956.975 887.316,-956.037 887.178,-955.106 887.261,-954.184 887.573,-953.273 888.116,-952.377 888.896,-951.497 889.913,-950.636 891.17,-949.796 892.668,-948.979 894.404,-948.189 896.377,-947.426 898.583,-946.693 901.018,-945.993 903.675,-945.326 906.547,-944.695 909.627,-944.102 912.903,-943.548 916.365,-943.035 920.001,-942.563 923.799,-942.135 927.743,-941.752 931.818,-941.414 936.01,-941.123 940.301,-940.879 944.675,-940.683 949.113,-940.535 953.597,-940.437 958.109,-940.387 962.631,-940.387 967.143,-940.437"/>
<text text-anchor="middle" x="960.37" y="-955.887" font-family="Helvetica,sans-Serif" font-size="10.00" fill="#e8e8e8">Бункер под Лубянкой</text>
</g>
<!-- Омон Ра&#45;&#45;Бункер под Лубянкой -->
<g id="edge12" class="edge"><title>Омон Ра&#45;&#45;Бункер под Лубянкой</title>
<path fill="none" stroke="#eeeeee" stroke-width="0.6" d="M800.496,-971.192C825.493,-969.19 862.974,-966.188 895.363,-963.594"/>
</g>
<!-- Омон Ра&#45;&#45;Сероб Налбандян -->
<g id="edge13" class="edge"><title>Омон Ра&#45;&#45;Сероб Налбандян</title>
<path fill="none" stroke="#eeeeee" stroke-width="0.6" d="M744.199,-960.189C694.116,-936.601 589.836,-887.487 536.907,-862.558"/>
</g>
<!-- Чапаев и Пустота -->
<g id="node10" class="node"><title>Чапаев и Пустота</title>
<polygon fill="#181818" stroke="#090909" stroke-width="0.8" points="1706.68,-1145.78 1605.68,-1145.78 1605.68,-1109.78 1706.68,-1109.78 1706.68,-1145.78"/>
<text text-anchor="middle" x="1656.18" y="-1125.28" font-family="Helvetica,sans-Serif" font-size="10.00" fill="#fefefe">Чапаев и Пустота</text>
</g>
<!-- Анна -->
<g id="node35" class="node"><title>Анна</title>
<ellipse fill="none" stroke="#ececec" stroke-width="0.6" stroke-dasharray="1,5" cx="1788.98" cy="-1305.54" rx="27" ry="18"/>
<text text-anchor="middle" x="1788.98" y="-1303.04" font-family="Helvetica,sans-Serif" font-size="10.00" fill="#ececec">Анна</text>
</g>
<!-- Чапаев и Пустота&#45;&#45;Анна -->
<g id="edge14" class="edge"><title>Чапаев и Пустота&#45;&#45;Анна</title>
<path fill="none" stroke="#555555" stroke-width="0.6" d="M1669.64,-1145.8C1695.56,-1180.49 1752,-1256.04 1776.84,-1289.29"/>
</g>
<!-- Вовчик Малой -->
<g id="node41" class="node"><title>Вовчик Малой</title>
<ellipse fill="#2f2f2f" stroke="#ececec" stroke-width="0.6" cx="1527.47" cy="-1045.21" rx="48.7185" ry="18"/>
<text text-anchor="middle" x="1527.47" y="-1042.71" font-family="Helvetica,sans-Serif" font-size="10.00" fill="#ececec">Вовчик Малой</text>
</g>
<!-- Чапаев и Пустота&#45;&#45;Вовчик Малой -->
<g id="edge15" class="edge"><title>Чапаев и Пустота&#45;&#45;Вовчик Малой</title>
<path fill="none" stroke="#eeeeee" stroke-width="0.6" d="M1627.93,-1109.66C1605.29,-1095.13 1573.83,-1074.95 1552.17,-1061.06"/>
</g>
<!-- граф Т. -->
<g id="node44" class="node"><title>граф Т.</title>
<ellipse fill="#2f2f2f" stroke="#ececec" stroke-width="0.6" cx="1855.59" cy="-1095.52" rx="31.3996" ry="18"/>
<text text-anchor="middle" x="1855.59" y="-1093.02" font-family="Helvetica,sans-Serif" font-size="10.00" fill="#ececec">граф Т.</text>
</g>
<!-- Чапаев и Пустота&#45;&#45;граф Т. -->
<g id="edge16" class="edge"><title>Чапаев и Пустота&#45;&#45;граф Т.</title>
<path fill="none" stroke="#eeeeee" stroke-width="0.6" d="M1706.76,-1119.59C1744.26,-1113.53 1794.12,-1105.46 1825.54,-1100.38"/>
</g>
<!-- лама Джамбон Тулку -->
<g id="node49" class="node"><title>лама Джамбон Тулку</title>
<ellipse fill="#2f2f2f" stroke="#ececec" stroke-width="0.6" cx="1582.78" cy="-905.308" rx="67.893" ry="18"/>
<text text-anchor="middle" x="1582.78" y="-902.808" font-family="Helvetica,sans-Serif" font-size="10.00" fill="#ececec">лама Джамбон Тулку</text>
</g>
<!-- Чапаев и Пустота&#45;&#45;лама Джамбон Тулку -->
<g id="edge17" class="edge"><title>Чапаев и Пустота&#45;&#45;лама Джамбон Тулку</title>
<path fill="none" stroke="#eeeeee" stroke-width="0.6" d="M1650.17,-1109.57C1636.37,-1067.75 1602.54,-965.215 1588.76,-923.453"/>
</g>
<!-- Петр Пустота -->
<g id="node64" class="node"><title>Петр Пустота</title>
<ellipse fill="#2f2f2f" stroke="#ececec" stroke-width="0.6" cx="1990.81" cy="-1609.9" rx="48.7185" ry="18"/>
<text text-anchor="middle" x="1990.81" y="-1607.4" font-family="Helvetica,sans-Serif" font-size="10.00" fill="#ececec">Петр Пустота</text>
</g>
<!-- Чапаев и Пустота&#45;&#45;Петр Пустота -->
<g id="edge18" class="edge"><title>Чапаев и Пустота&#45;&#45;Петр Пустота</title>
<path fill="none" stroke="#eeeeee" stroke-width="0.6" d="M1666.78,-1145.97C1685.55,-1178.18 1725.93,-1247.32 1760.38,-1305.47 1764.05,-1311.66 1764.65,-1313.4 1768.69,-1319.35 1841.57,-1426.81 1939.76,-1547.99 1976.31,-1592.4"/>
</g>
<!-- Чапаев и Пустота&#45;&#45;товарищ Бабаясин -->
<g id="edge19" class="edge"><title>Чапаев и Пустота&#45;&#45;товарищ Бабаясин</title>
<path fill="none" stroke="#eeeeee" stroke-width="0.6" d="M1705.61,-1145.78C1789.56,-1176.35 1958.29,-1237.8 2034.22,-1265.46"/>
</g>
<!-- Чапаев -->
<g id="node78" class="node"><title>Чапаев</title>
<ellipse fill="#2f2f2f" stroke="#ececec" stroke-width="0.6" cx="1691.26" cy="-1600.66" rx="29.3664" ry="18"/>
<text text-anchor="middle" x="1691.26" y="-1598.16" font-family="Helvetica,sans-Serif" font-size="10.00" fill="#ececec">Чапаев</text>
</g>
<!-- Чапаев и Пустота&#45;&#45;Чапаев -->
<g id="edge20" class="edge"><title>Чапаев и Пустота&#45;&#45;Чапаев</title>
<path fill="none" stroke="#eeeeee" stroke-width="0.6" d="M1657.53,-1146.02C1663.12,-1221.3 1684.33,-1507.29 1689.91,-1582.46"/>
</g>
<!-- Имена олигархов на карте Родины -->
<g id="node11" class="node"><title>Имена олигархов на карте Родины</title>
<polygon fill="#181818" stroke="#090909" stroke-width="0.8" points="1306.78,-990.646 1127.78,-990.646 1127.78,-954.646 1306.78,-954.646 1306.78,-990.646"/>
<text text-anchor="middle" x="1217.28" y="-970.146" font-family="Helvetica,sans-Serif" font-size="10.00" fill="#fefefe">Имена олигархов на карте Родины</text>
</g>
<!-- Вавилен Татарский -->
<g id="node40" class="node"><title>Вавилен Татарский</title>
<ellipse fill="#2f2f2f" stroke="#ececec" stroke-width="0.6" cx="1337.98" cy="-899.668" rx="64.3289" ry="18"/>
<text text-anchor="middle" x="1337.98" y="-897.168" font-family="Helvetica,sans-Serif" font-size="10.00" fill="#ececec">Вавилен Татарский</text>
</g>
<!-- Имена олигархов на карте Родины&#45;&#45;Вавилен Татарский -->
<g id="edge21" class="edge"><title>Имена олигархов на карте Родины&#45;&#45;Вавилен Татарский</title>
<path fill="none" stroke="#eeeeee" stroke-width="0.6" d="M1247.11,-954.606C1266.66,-942.788 1292,-927.465 1310.95,-916.006"/>
</g>
<!-- Generation «П» -->
<g id="node12" class="node"><title>Generation «П»</title>
<polygon fill="#181818" stroke="#090909" stroke-width="0.8" points="1505.22,-928.33 1420.22,-928.33 1420.22,-892.33 1505.22,-892.33 1505.22,-928.33"/>
<text text-anchor="middle" x="1462.72" y="-907.83" font-family="Helvetica,sans-Serif" font-size="10.00" fill="#fefefe">Generation «П»</text>
</g>
<!-- Generation «П»&#45;&#45;Вавилен Татарский -->
<g id="edge22" class="edge"><title>Generation «П»&#45;&#45;Вавилен Татарский</title>
<path fill="none" stroke="#eeeeee" stroke-width="0.6" d="M1420.14,-906.69C1413.5,-906.123 1406.53,-905.528 1399.58,-904.933"/>
</g>
<!-- Generation «П»&#45;&#45;Вовчик Малой -->
<g id="edge23" class="edge"><title>Generation «П»&#45;&#45;Вовчик Малой</title>
<path fill="none" stroke="#eeeeee" stroke-width="0.6" d="M1471.45,-928.52C1483.88,-954.406 1506.52,-1001.58 1518.87,-1027.3"/>
</g>
<!-- Generation «П»&#45;&#45;лама Джамбон Тулку -->
<g id="edge24" class="edge"><title>Generation «П»&#45;&#45;лама Джамбон Тулку</title>
<path fill="none" stroke="#eeeeee" stroke-width="0.6" d="M1505.38,-908.545C1508.75,-908.404 1512.2,-908.26 1515.69,-908.114"/>
</g>
<!-- Малюта -->
<g id="node53" class="node"><title>Малюта</title>
<ellipse fill="#2f2f2f" stroke="#ececec" stroke-width="0.6" cx="1246.97" cy="-818.472" rx="31.3996" ry="18"/>
<text text-anchor="middle" x="1246.97" y="-815.972" font-family="Helvetica,sans-Serif" font-size="10.00" fill="#ececec">Малюта</text>
</g>
<!-- Generation «П»&#45;&#45;Малюта -->
<g id="edge25" class="edge"><title>Generation «П»&#45;&#45;Малюта</title>
<path fill="none" stroke="#eeeeee" stroke-width="0.6" d="M1420.35,-892.291C1376.3,-873.534 1308.78,-844.788 1272.37,-829.283"/>
</g>
<!-- Михаил Непойман -->
<g id="node56" class="node"><title>Михаил Непойман</title>
<ellipse fill="#2f2f2f" stroke="#ececec" stroke-width="0.6" cx="1689.65" cy="-814.947" rx="59.4099" ry="18"/>
<text text-anchor="middle" x="1689.65" y="-812.447" font-family="Helvetica,sans-Serif" font-size="10.00" fill="#ececec">Михаил Непойман</text>
</g>
<!-- Generation «П»&#45;&#45;Михаил Непойман -->
<g id="edge26" class="edge"><title>Generation «П»&#45;&#45;Михаил Непойман</title>
<path fill="none" stroke="#eeeeee" stroke-width="0.6" d="M1505.4,-892.389C1548.54,-874.257 1614.41,-846.572 1654.6,-829.681"/>
</g>
<!-- пёс Пиздец -->
<g id="node63" class="node"><title>пёс Пиздец</title>
<polygon fill="none" stroke="#e8e8e8" stroke-width="0.6" points="1377.41,-999.393 1380.14,-999.492 1382.84,-999.639 1385.5,-999.835 1388.11,-1000.08 1390.66,-1000.37 1393.14,-1000.71 1395.54,-1001.09 1397.85,-1001.52 1400.06,-1001.99 1402.17,-1002.5 1404.16,-1003.06 1406.03,-1003.65 1407.78,-1004.28 1409.39,-1004.95 1410.88,-1005.65 1412.22,-1006.38 1413.42,-1007.15 1414.47,-1007.94 1415.38,-1008.75 1416.15,-1009.59 1416.77,-1010.45 1417.24,-1011.33 1417.57,-1012.23 1417.76,-1013.14 1417.81,-1014.06 1417.73,-1014.99 1417.51,-1015.93 1417.17,-1016.87 1416.71,-1017.82 1416.13,-1018.76 1415.43,-1019.69 1414.63,-1020.63 1413.73,-1021.55 1412.74,-1022.46 1411.66,-1023.35 1410.49,-1024.23 1409.25,-1025.1 1407.94,-1025.94 1406.57,-1026.75 1405.13,-1027.54 1403.65,-1028.31 1402.11,-1029.04 1400.53,-1029.74 1398.92,-1030.41 1397.27,-1031.04 1395.59,-1031.63 1393.88,-1032.18 1392.15,-1032.7 1390.41,-1033.17 1388.64,-1033.6 1386.86,-1033.98 1385.08,-1034.32 1383.28,-1034.61 1381.47,-1034.85 1379.66,-1035.05 1377.85,-1035.2 1376.03,-1035.29 1374.21,-1035.34 1372.38,-1035.34 1370.56,-1035.29 1368.74,-1035.2 1366.93,-1035.05 1365.12,-1034.85 1363.31,-1034.61 1361.51,-1034.32 1359.72,-1033.98 1357.95,-1033.6 1356.18,-1033.17 1354.44,-1032.7 1352.71,-1032.18 1351,-1031.63 1349.32,-1031.04 1347.67,-1030.41 1346.06,-1029.74 1344.48,-1029.04 1342.94,-1028.31 1341.46,-1027.54 1340.02,-1026.75 1338.65,-1025.94 1337.34,-1025.1 1336.1,-1024.23 1334.93,-1023.35 1333.85,-1022.46 1332.86,-1021.55 1331.96,-1020.63 1331.16,-1019.69 1330.46,-1018.76 1329.88,-1017.82 1329.42,-1016.87 1329.08,-1015.93 1328.86,-1014.99 1328.78,-1014.06 1328.83,-1013.14 1329.02,-1012.23 1329.35,-1011.33 1329.82,-1010.45 1330.44,-1009.59 1331.21,-1008.75 1332.12,-1007.94 1333.17,-1007.15 1334.37,-1006.38 1335.71,-1005.65 1337.19,-1004.95 1338.81,-1004.28 1340.56,-1003.65 1342.43,-1003.06 1344.42,-1002.5 1346.53,-1001.99 1348.74,-1001.52 1351.05,-1001.09 1353.45,-1000.71 1355.93,-1000.37 1358.48,-1000.08 1361.09,-999.835 1363.75,-999.639 1366.45,-999.492 1369.18,-999.393 1371.92,-999.344 1374.67,-999.344 1377.41,-999.393"/>
<text text-anchor="middle" x="1373.29" y="-1014.84" font-family="Helvetica,sans-Serif" font-size="10.00" fill="#e8e8e8">пёс Пиздец</text>
</g>
<!-- Generation «П»&#45;&#45;пёс Пиздец -->
<g id="edge27" class="edge"><title>Generation «П»&#45;&#45;пёс Пиздец</title>
<path fill="none" stroke="#eeeeee" stroke-width="0.6" d="M1447.55,-928.483C1430.9,-948.4 1404.38,-980.147 1387.94,-999.813"/>
</g>
<!-- Семён Левитан -->
<g id="node71" class="node"><title>Семён Левитан</title>
<ellipse fill="#2f2f2f" stroke="#ececec" stroke-width="0.6" cx="1422.8" cy="-677.925" rx="51.6054" ry="18"/>
<text text-anchor="middle" x="1422.8" y="-675.425" font-family="Helvetica,sans-Serif" font-size="10.00" fill="#ececec">Семён Левитан</text>
</g>
<!-- Generation «П»&#45;&#45;Семён Левитан -->
<g id="edge28" class="edge"><title>Generation «П»&#45;&#45;Семён Левитан</title>
<path fill="none" stroke="#eeeeee" stroke-width="0.6" d="M1459.58,-892.093C1452.12,-848.649 1433.36,-739.436 1425.91,-696.077"/>
</g>
<!-- халдеи -->
<g id="node77" class="node"><title>халдеи</title>
<polygon fill="none" stroke="#e8e8e8" stroke-width="0.6" points="1392.75,-774.791 1394.66,-774.889 1396.55,-775.037 1398.42,-775.233 1400.25,-775.477 1402.03,-775.768 1403.77,-776.106 1405.45,-776.489 1407.07,-776.917 1408.62,-777.389 1410.09,-777.902 1411.49,-778.456 1412.8,-779.049 1414.02,-779.68 1415.16,-780.347 1416.19,-781.047 1417.13,-781.78 1417.98,-782.543 1418.72,-783.333 1419.35,-784.15 1419.89,-784.99 1420.32,-785.851 1420.65,-786.731 1420.89,-787.627 1421.02,-788.538 1421.05,-789.46 1421,-790.391 1420.84,-791.329 1420.61,-792.27 1420.28,-793.213 1419.87,-794.154 1419.39,-795.092 1418.83,-796.023 1418.2,-796.945 1417.5,-797.855 1416.74,-798.752 1415.93,-799.632 1415.06,-800.493 1414.14,-801.333 1413.18,-802.15 1412.17,-802.94 1411.13,-803.703 1410.05,-804.435 1408.95,-805.136 1407.82,-805.803 1406.66,-806.433 1405.48,-807.027 1404.29,-807.581 1403.08,-808.094 1401.85,-808.565 1400.62,-808.993 1399.37,-809.377 1398.12,-809.715 1396.86,-810.006 1395.59,-810.25 1394.33,-810.446 1393.05,-810.593 1391.78,-810.692 1390.5,-810.741 1389.23,-810.741 1387.95,-810.692 1386.68,-810.593 1385.4,-810.446 1384.14,-810.25 1382.87,-810.006 1381.61,-809.715 1380.36,-809.377 1379.11,-808.993 1377.88,-808.565 1376.65,-808.094 1375.44,-807.581 1374.25,-807.027 1373.07,-806.433 1371.91,-805.803 1370.78,-805.136 1369.68,-804.435 1368.6,-803.703 1367.56,-802.94 1366.55,-802.15 1365.59,-801.333 1364.67,-800.493 1363.8,-799.632 1362.99,-798.752 1362.23,-797.855 1361.53,-796.945 1360.9,-796.023 1360.34,-795.092 1359.86,-794.154 1359.45,-793.213 1359.13,-792.27 1358.89,-791.329 1358.73,-790.391 1358.68,-789.46 1358.71,-788.538 1358.84,-787.627 1359.08,-786.731 1359.41,-785.851 1359.84,-784.99 1360.38,-784.15 1361.01,-783.333 1361.75,-782.543 1362.6,-781.78 1363.54,-781.047 1364.57,-780.347 1365.71,-779.68 1366.93,-779.049 1368.24,-778.456 1369.64,-777.902 1371.11,-777.389 1372.66,-776.917 1374.28,-776.489 1375.96,-776.106 1377.7,-775.768 1379.48,-775.477 1381.31,-775.233 1383.18,-775.037 1385.07,-774.889 1386.98,-774.791 1388.9,-774.741 1390.83,-774.741 1392.75,-774.791"/>
<text text-anchor="middle" x="1389.87" y="-790.241" font-family="Helvetica,sans-Serif" font-size="10.00" fill="#e8e8e8">халдеи</text>
</g>
<!-- Generation «П»&#45;&#45;халдеи -->
<g id="edge29" class="edge"><title>Generation «П»&#45;&#45;халдеи</title>
<path fill="none" stroke="#eeeeee" stroke-width="0.6" d="M1451.49,-892.214C1437.52,-869.666 1413.85,-831.462 1400.27,-809.543"/>
</g>
<!-- Акико -->
<g id="node13" class="node"><title>Акико</title>
<polygon fill="#181818" stroke="#090909" stroke-width="0.8" points="1048.25,-363.607 994.253,-363.607 994.253,-327.607 1048.25,-327.607 1048.25,-363.607"/>
<text text-anchor="middle" x="1021.25" y="-343.107" font-family="Helvetica,sans-Serif" font-size="10.00" fill="#fefefe">Акико</text>
</g>
<!-- Кая -->
<g id="node47" class="node"><title>Кая</title>
<ellipse fill="none" stroke="#ececec" stroke-width="0.6" stroke-dasharray="1,5" cx="1182.84" cy="-422.498" rx="27" ry="18"/>
<text text-anchor="middle" x="1182.84" y="-419.998" font-family="Helvetica,sans-Serif" font-size="10.00" fill="#ececec">Кая</text>
</g>
<!-- Акико&#45;&#45;Кая -->
<g id="edge30" class="edge"><title>Акико&#45;&#45;Кая</title>
<path fill="none" stroke="#555555" stroke-width="0.6" d="M1048.3,-358.477C1079.84,-373.483 1131.36,-398.002 1160.65,-411.939"/>
</g>
<!-- Лебёдкин -->
<g id="node50" class="node"><title>Лебёдкин</title>
<ellipse fill="#2f2f2f" stroke="#ececec" stroke-width="0.6" cx="1184.4" cy="-585.045" rx="36.4942" ry="18"/>
<text text-anchor="middle" x="1184.4" y="-582.545" font-family="Helvetica,sans-Serif" font-size="10.00" fill="#ececec">Лебёдкин</text>
</g>
<!-- Акико&#45;&#45;Лебёдкин -->
<g id="edge31" class="edge"><title>Акико&#45;&#45;Лебёдкин</title>
<path fill="none" stroke="#eeeeee" stroke-width="0.6" d="M1033.78,-363.998C1064.45,-409.005 1142.93,-524.193 1172.71,-567.888"/>
</g>
<!-- Пятое главное управление -->
<g id="node66" class="node"><title>Пятое главное управление</title>
<polygon fill="none" stroke="#e8e8e8" stroke-width="0.6" points="1004.79,-563.084 1010.2,-563.183 1015.55,-563.33 1020.82,-563.526 1026,-563.77 1031.06,-564.061 1035.97,-564.399 1040.73,-564.783 1045.31,-565.211 1049.69,-565.682 1053.87,-566.195 1057.82,-566.749 1061.54,-567.343 1065,-567.974 1068.21,-568.64 1071.14,-569.341 1073.8,-570.073 1076.18,-570.836 1078.28,-571.627 1080.08,-572.443 1081.6,-573.283 1082.83,-574.144 1083.77,-575.024 1084.42,-575.921 1084.8,-576.831 1084.9,-577.753 1084.73,-578.684 1084.31,-579.622 1083.63,-580.563 1082.71,-581.506 1081.55,-582.447 1080.18,-583.385 1078.59,-584.316 1076.81,-585.238 1074.84,-586.149 1072.69,-587.045 1070.38,-587.925 1067.92,-588.787 1065.33,-589.627 1062.6,-590.443 1059.76,-591.234 1056.81,-591.996 1053.76,-592.729 1050.63,-593.429 1047.43,-594.096 1044.16,-594.727 1040.82,-595.32 1037.44,-595.874 1034.02,-596.388 1030.55,-596.859 1027.05,-597.287 1023.53,-597.67 1019.98,-598.008 1016.42,-598.299 1012.83,-598.543 1009.24,-598.739 1005.64,-598.887 1002.03,-598.985 998.423,-599.035 994.812,-599.035 991.201,-598.985 987.594,-598.887 983.993,-598.739 980.401,-598.543 976.82,-598.299 973.254,-598.008 969.707,-597.67 966.182,-597.287 962.685,-596.859 959.22,-596.388 955.793,-595.874 952.41,-595.32 949.079,-594.727 945.807,-594.096 942.602,-593.429 939.473,-592.729 936.429,-591.996 933.48,-591.234 930.636,-590.443 927.909,-589.627 925.31,-588.787 922.85,-587.925 920.542,-587.045 918.396,-586.149 916.425,-585.238 914.641,-584.316 913.056,-583.385 911.682,-582.447 910.528,-581.506 909.607,-580.563 908.929,-579.622 908.502,-578.684 908.335,-577.753 908.436,-576.831 908.811,-575.921 909.467,-575.024 910.407,-574.144 911.634,-573.283 913.151,-572.443 914.957,-571.627 917.051,-570.836 919.43,-570.073 922.092,-569.341 925.028,-568.64 928.233,-567.974 931.698,-567.343 935.412,-566.749 939.364,-566.195 943.54,-565.682 947.926,-565.211 952.506,-564.783 957.263,-564.399 962.179,-564.061 967.235,-563.77 972.411,-563.526 977.686,-563.33 983.039,-563.183 988.448,-563.084 993.891,-563.035 999.344,-563.035 1004.79,-563.084"/>
<text text-anchor="middle" x="996.618" y="-578.535" font-family="Helvetica,sans-Serif" font-size="10.00" fill="#e8e8e8">Пятое главное управление</text>
</g>
<!-- Акико&#45;&#45;Пятое главное управление -->
<g id="edge32" class="edge"><title>Акико&#45;&#45;Пятое главное управление</title>
<path fill="none" stroke="#eeeeee" stroke-width="0.6" d="M1019.36,-363.69C1014.77,-407.513 1003.11,-519.004 998.516,-562.89"/>
</g>
<!-- Македонская критика французской мысли -->
<g id="node14" class="node"><title>Македонская критика французской мысли</title>
<polygon fill="#181818" stroke="#090909" stroke-width="0.8" points="658.511,-538.118 439.511,-538.118 439.511,-502.118 658.511,-502.118 658.511,-538.118"/>
<text text-anchor="middle" x="549.011" y="-517.618" font-family="Helvetica,sans-Serif" font-size="10.00" fill="#fefefe">Македонская критика французской мысли</text>
</g>
<!-- Мунбанк -->
<g id="node57" class="node"><title>Мунбанк</title>
<polygon fill="none" stroke="#e8e8e8" stroke-width="0.6" points="785.168,-695.427 787.325,-695.526 789.46,-695.673 791.564,-695.869 793.629,-696.113 795.645,-696.404 797.606,-696.742 799.503,-697.126 801.33,-697.554 803.08,-698.025 804.745,-698.538 806.321,-699.092 807.803,-699.686 809.185,-700.316 810.463,-700.983 811.634,-701.684 812.696,-702.416 813.645,-703.179 814.48,-703.97 815.2,-704.786 815.805,-705.626 816.295,-706.487 816.67,-707.367 816.931,-708.264 817.081,-709.174 817.121,-710.096 817.055,-711.027 816.884,-711.965 816.614,-712.906 816.246,-713.849 815.786,-714.79 815.238,-715.728 814.606,-716.659 813.894,-717.581 813.108,-718.492 812.253,-719.388 811.332,-720.268 810.351,-721.13 809.314,-721.97 808.226,-722.786 807.092,-723.577 805.916,-724.339 804.702,-725.072 803.454,-725.772 802.175,-726.439 800.87,-727.07 799.542,-727.663 798.192,-728.217 796.826,-728.73 795.444,-729.202 794.049,-729.63 792.643,-730.013 791.228,-730.351 789.806,-730.642 788.378,-730.886 786.945,-731.082 785.509,-731.23 784.07,-731.328 782.63,-731.378 781.189,-731.378 779.749,-731.328 778.31,-731.23 776.874,-731.082 775.441,-730.886 774.013,-730.642 772.591,-730.351 771.176,-730.013 769.77,-729.63 768.375,-729.202 766.993,-728.73 765.626,-728.217 764.277,-727.663 762.949,-727.07 761.644,-726.439 760.365,-725.772 759.117,-725.072 757.903,-724.339 756.727,-723.577 755.593,-722.786 754.505,-721.97 753.468,-721.13 752.487,-720.268 751.566,-719.388 750.71,-718.492 749.924,-717.581 749.213,-716.659 748.581,-715.728 748.032,-714.79 747.572,-713.849 747.205,-712.906 746.934,-711.965 746.764,-711.027 746.698,-710.096 746.738,-709.174 746.888,-708.264 747.149,-707.367 747.524,-706.487 748.014,-705.626 748.618,-704.786 749.339,-703.97 750.174,-703.179 751.123,-702.416 752.185,-701.684 753.356,-700.983 754.634,-700.316 756.016,-699.686 757.498,-699.092 759.074,-698.538 760.739,-698.025 762.489,-697.554 764.315,-697.126 766.213,-696.742 768.174,-696.404 770.19,-696.113 772.255,-695.869 774.359,-695.673 776.494,-695.526 778.651,-695.427 780.822,-695.378 782.997,-695.378 785.168,-695.427"/>
<text text-anchor="middle" x="781.909" y="-710.878" font-family="Helvetica,sans-Serif" font-size="10.00" fill="#e8e8e8">Мунбанк</text>
</g>
<!-- Македонская критика французской мысли&#45;&#45;Мунбанк -->
<g id="edge33" class="edge"><title>Македонская критика французской мысли&#45;&#45;Мунбанк</title>
<path fill="none" stroke="#eeeeee" stroke-width="0.6" d="M570.921,-538.299C616.216,-575.885 719.515,-661.602 762.54,-697.305"/>
</g>
<!-- Насых Нафиков (Кика) -->
<g id="node59" class="node"><title>Насых Нафиков (Кика)</title>
<ellipse fill="#2f2f2f" stroke="#ececec" stroke-width="0.6" cx="1111.89" cy="-886.304" rx="73.6658" ry="18"/>
<text text-anchor="middle" x="1111.89" y="-883.804" font-family="Helvetica,sans-Serif" font-size="10.00" fill="#ececec">Насых Нафиков (Кика)</text>
</g>
<!-- Македонская критика французской мысли&#45;&#45;Насых Нафиков (Кика) -->
<g id="edge34" class="edge"><title>Македонская критика французской мысли&#45;&#45;Насых Нафиков (Кика)</title>
<path fill="none" stroke="#eeeeee" stroke-width="0.6" d="M575.572,-538.297C652.348,-590.785 873.826,-741.761 948.493,-787.905 995.676,-817.064 1051.07,-850.191 1083.73,-869.61"/>
</g>
<!-- Санбанк -->
<g id="node69" class="node"><title>Санбанк</title>
<polygon fill="none" stroke="#e8e8e8" stroke-width="0.6" points="976.002,-755.96 978.16,-756.058 980.295,-756.206 982.399,-756.402 984.463,-756.646 986.48,-756.937 988.44,-757.275 990.338,-757.658 992.165,-758.086 993.914,-758.558 995.58,-759.071 997.156,-759.625 998.637,-760.219 1000.02,-760.849 1001.3,-761.516 1002.47,-762.217 1003.53,-762.949 1004.48,-763.712 1005.31,-764.502 1006.03,-765.319 1006.64,-766.159 1007.13,-767.02 1007.5,-767.9 1007.77,-768.797 1007.92,-769.707 1007.96,-770.629 1007.89,-771.56 1007.72,-772.498 1007.45,-773.439 1007.08,-774.382 1006.62,-775.323 1006.07,-776.261 1005.44,-777.192 1004.73,-778.114 1003.94,-779.025 1003.09,-779.921 1002.17,-780.801 1001.18,-781.662 1000.15,-782.502 999.061,-783.319 997.927,-784.109 996.75,-784.872 995.536,-785.605 994.288,-786.305 993.01,-786.972 991.705,-787.603 990.376,-788.196 989.027,-788.75 987.66,-789.263 986.278,-789.735 984.883,-790.163 983.477,-790.546 982.062,-790.884 980.64,-791.175 979.212,-791.419 977.779,-791.615 976.343,-791.763 974.904,-791.861 973.464,-791.911 972.024,-791.911 970.583,-791.861 969.145,-791.763 967.709,-791.615 966.276,-791.419 964.848,-791.175 963.425,-790.884 962.01,-790.546 960.605,-790.163 959.21,-789.735 957.828,-789.263 956.461,-788.75 955.112,-788.196 953.783,-787.603 952.478,-786.972 951.2,-786.305 949.951,-785.605 948.737,-784.872 947.561,-784.109 946.427,-783.319 945.339,-782.502 944.303,-781.662 943.322,-780.801 942.401,-779.921 941.545,-779.025 940.759,-778.114 940.047,-777.192 939.415,-776.261 938.867,-775.323 938.407,-774.382 938.04,-773.439 937.769,-772.498 937.599,-771.56 937.532,-770.629 937.572,-769.707 937.722,-768.797 937.984,-767.9 938.358,-767.02 938.848,-766.159 939.453,-765.319 940.173,-764.502 941.008,-763.712 941.958,-762.949 943.019,-762.217 944.19,-761.516 945.469,-760.849 946.851,-760.219 948.332,-759.625 949.908,-759.071 951.574,-758.558 953.323,-758.086 955.15,-757.658 957.047,-757.275 959.008,-756.937 961.025,-756.646 963.089,-756.402 965.193,-756.206 967.328,-756.058 969.485,-755.96 971.656,-755.911 973.831,-755.911 976.002,-755.96"/>
<text text-anchor="middle" x="972.744" y="-771.411" font-family="Helvetica,sans-Serif" font-size="10.00" fill="#e8e8e8">Санбанк</text>
</g>
<!-- Македонская критика французской мысли&#45;&#45;Санбанк -->
<g id="edge35" class="edge"><title>Македонская критика французской мысли&#45;&#45;Санбанк</title>
<path fill="none" stroke="#eeeeee" stroke-width="0.6" d="M579.145,-538.166C659.123,-586.069 875.605,-715.73 948.449,-759.359"/>
</g>
<!-- Один вог -->
<g id="node15" class="node"><title>Один вог</title>
<polygon fill="#181818" stroke="#090909" stroke-width="0.8" points="873.479,-1257.27 814.479,-1257.27 814.479,-1221.27 873.479,-1221.27 873.479,-1257.27"/>
<text text-anchor="middle" x="843.979" y="-1236.77" font-family="Helvetica,sans-Serif" font-size="10.00" fill="#fefefe">Один вог</text>
</g>
<!-- Мюс -->
<g id="node58" class="node"><title>Мюс</title>
<ellipse fill="#2f2f2f" stroke="#ececec" stroke-width="0.6" cx="1060.49" cy="-1093.94" rx="27" ry="18"/>
<text text-anchor="middle" x="1060.49" y="-1091.44" font-family="Helvetica,sans-Serif" font-size="10.00" fill="#ececec">Мюс</text>
</g>
<!-- Один вог&#45;&#45;Мюс -->
<g id="edge36" class="edge"><title>Один вог&#45;&#45;Мюс</title>
<path fill="none" stroke="#eeeeee" stroke-width="0.6" d="M870.962,-1221.16C915.398,-1191.33 1002.89,-1132.6 1041.46,-1106.71"/>
</g>
<!-- Фокус&#45;группа -->
<g id="node16" class="node"><title>Фокус&#45;группа</title>
<polygon fill="#181818" stroke="#090909" stroke-width="0.8" points="598.706,-121.052 517.706,-121.052 517.706,-85.0519 598.706,-85.0519 598.706,-121.052"/>
<text text-anchor="middle" x="558.206" y="-100.552" font-family="Helvetica,sans-Serif" font-size="10.00" fill="#fefefe">Фокус&#45;группа</text>
</g>
<!-- Сракандаев -->
<g id="node73" class="node"><title>Сракандаев</title>
<ellipse fill="#2f2f2f" stroke="#ececec" stroke-width="0.6" cx="806.277" cy="-425.27" rx="42.9448" ry="18"/>
<text text-anchor="middle" x="806.277" y="-422.77" font-family="Helvetica,sans-Serif" font-size="10.00" fill="#ececec">Сракандаев</text>
</g>
<!-- Фокус&#45;группа&#45;&#45;Сракандаев -->
<g id="edge37" class="edge"><title>Фокус&#45;группа&#45;&#45;Сракандаев</title>
<path fill="none" stroke="#eeeeee" stroke-width="0.6" d="M572.254,-121.299C616.122,-178.279 750.181,-352.408 792.989,-408.01"/>
</g>
<!-- Числа -->
<g id="node17" class="node"><title>Числа</title>
<polygon fill="#181818" stroke="#090909" stroke-width="0.8" points="1162.06,-742.234 1108.06,-742.234 1108.06,-706.234 1162.06,-706.234 1162.06,-742.234"/>
<text text-anchor="middle" x="1135.06" y="-721.734" font-family="Helvetica,sans-Serif" font-size="10.00" fill="#fefefe">Числа</text>
</g>
<!-- Числа&#45;&#45;Бункер под Лубянкой -->
<g id="edge38" class="edge"><title>Числа&#45;&#45;Бункер под Лубянкой</title>
<path fill="none" stroke="#eeeeee" stroke-width="0.6" d="M1121.35,-742.607C1088.61,-786.487 1006.2,-896.956 973.774,-940.421"/>
</g>
<!-- Числа&#45;&#45;Вавилен Татарский -->
<g id="edge39" class="edge"><title>Числа&#45;&#45;Вавилен Татарский</title>
<path fill="none" stroke="#eeeeee" stroke-width="0.6" d="M1146.9,-742.321C1162.51,-765.21 1191.75,-804.931 1223.6,-832.22 1248.46,-853.518 1280.93,-871.941 1304.92,-884.125"/>
</g>
<!-- Числа&#45;&#45;Лебёдкин -->
<g id="edge40" class="edge"><title>Числа&#45;&#45;Лебёдкин</title>
<path fill="none" stroke="#eeeeee" stroke-width="0.6" d="M1141.51,-706.037C1151.01,-679.214 1168.68,-629.377 1178.1,-602.806"/>
</g>
<!-- Числа&#45;&#45;Малюта -->
<g id="edge41" class="edge"><title>Числа&#45;&#45;Малюта</title>
<path fill="none" stroke="#eeeeee" stroke-width="0.6" d="M1156.63,-742.404C1177.72,-760.161 1209.45,-786.873 1229.15,-803.461"/>
</g>
<!-- Числа&#45;&#45;Мунбанк -->
<g id="edge42" class="edge"><title>Числа&#45;&#45;Мунбанк</title>
<path fill="none" stroke="#eeeeee" stroke-width="0.6" d="M1107.93,-723.4C1044.38,-721.446 885.939,-716.576 816.004,-714.426"/>
</g>
<!-- Числа&#45;&#45;Мюс -->
<g id="edge43" class="edge"><title>Числа&#45;&#45;Мюс</title>
<path fill="none" stroke="#eeeeee" stroke-width="0.6" d="M1118.37,-742.356C1093.83,-770.543 1049.53,-827.752 1036.71,-886.249 1028.8,-922.32 1048.49,-1032.28 1056.9,-1075.87"/>
</g>
<!-- Числа&#45;&#45;Насых Нафиков (Кика) -->
<g id="edge44" class="edge"><title>Числа&#45;&#45;Насых Нафиков (Кика)</title>
<path fill="none" stroke="#eeeeee" stroke-width="0.6" d="M1132.44,-742.51C1127.99,-773.637 1119,-836.595 1114.53,-867.846"/>
</g>
<!-- Числа&#45;&#45;Пятое главное управление -->
<g id="edge45" class="edge"><title>Числа&#45;&#45;Пятое главное управление</title>
<path fill="none" stroke="#eeeeee" stroke-width="0.6" d="M1117.52,-706.097C1090.75,-678.402 1040,-625.911 1013.58,-598.576"/>
</g>
<!-- Числа&#45;&#45;Санбанк -->
<g id="edge46" class="edge"><title>Числа&#45;&#45;Санбанк</title>
<path fill="none" stroke="#eeeeee" stroke-width="0.6" d="M1107.89,-732.548C1079.55,-741.221 1035.14,-754.813 1005.03,-764.029"/>
</g>
<!-- Числа&#45;&#45;Сракандаев -->
<g id="edge47" class="edge"><title>Числа&#45;&#45;Сракандаев</title>
<path fill="none" stroke="#eeeeee" stroke-width="0.6" d="M1107.73,-713.997C1060.24,-694.877 962.188,-649.346 906.3,-580.546 868.492,-534.003 832.548,-472.603 815.919,-442.886"/>
</g>
<!-- Священная книга оборотня -->
<g id="node18" class="node"><title>Священная книга оборотня</title>
<polygon fill="#181818" stroke="#090909" stroke-width="0.8" points="1312.41,-1128.87 1169.41,-1128.87 1169.41,-1092.87 1312.41,-1092.87 1312.41,-1128.87"/>
<text text-anchor="middle" x="1240.91" y="-1108.37" font-family="Helvetica,sans-Serif" font-size="10.00" fill="#fefefe">Священная книга оборотня</text>
</g>
<!-- А Хули -->
<g id="node34" class="node"><title>А Хули</title>
<ellipse fill="#2f2f2f" stroke="#ececec" stroke-width="0.6" cx="1573.39" cy="-1296.48" rx="29.3664" ry="18"/>
<text text-anchor="middle" x="1573.39" y="-1293.98" font-family="Helvetica,sans-Serif" font-size="10.00" fill="#ececec">А Хули</text>
</g>
<!-- Священная книга оборотня&#45;&#45;А Хули -->
<g id="edge48" class="edge"><title>Священная книга оборотня&#45;&#45;А Хули</title>
<path fill="none" stroke="#eeeeee" stroke-width="0.6" d="M1273.4,-1129C1340.88,-1166.68 1494.69,-1252.55 1551.65,-1284.35"/>
</g>
<!-- Священная книга оборотня&#45;&#45;Вавилен Татарский -->
<g id="edge49" class="edge"><title>Священная книга оборотня&#45;&#45;Вавилен Татарский</title>
<path fill="none" stroke="#eeeeee" stroke-width="0.6" d="M1253.63,-1092.57C1268.75,-1070.15 1293.95,-1030.61 1309.98,-993.846 1321.09,-968.358 1329.4,-937.147 1333.97,-917.833"/>
</g>
<!-- Лев Толстой -->
<g id="node51" class="node"><title>Лев Толстой</title>
<ellipse fill="#2f2f2f" stroke="#ececec" stroke-width="0.6" cx="1418.7" cy="-1157.85" rx="44.3" ry="18"/>
<text text-anchor="middle" x="1418.7" y="-1155.35" font-family="Helvetica,sans-Serif" font-size="10.00" fill="#ececec">Лев Толстой</text>
</g>
<!-- Священная книга оборотня&#45;&#45;Лев Толстой -->
<g id="edge50" class="edge"><title>Священная книга оборотня&#45;&#45;Лев Толстой</title>
<path fill="none" stroke="#eeeeee" stroke-width="0.6" d="M1309.14,-1128.9C1333.72,-1135.39 1360.53,-1142.48 1381.48,-1148.01"/>
</g>
<!-- Священная книга оборотня&#45;&#45;Нелли -->
<g id="edge51" class="edge"><title>Священная книга оборотня&#45;&#45;Нелли</title>
<path fill="none" stroke="#eeeeee" stroke-width="0.6" d="M1241.56,-1129.07C1242.73,-1161.8 1245.16,-1230.23 1246.33,-1262.87"/>
</g>
<!-- Священная книга оборотня&#45;&#45;пёс Пиздец -->
<g id="edge52" class="edge"><title>Священная книга оборотня&#45;&#45;пёс Пиздец</title>
<path fill="none" stroke="#eeeeee" stroke-width="0.6" d="M1266.44,-1092.84C1291.38,-1075.21 1328.91,-1048.7 1352.21,-1032.24"/>
</g>
<!-- рецензент Майя Марачкарская -->
<g id="node68" class="node"><title>рецензент Майя Марачкарская</title>
<ellipse fill="#2f2f2f" stroke="#ececec" stroke-width="0.6" cx="1398.61" cy="-1354.51" rx="96.5815" ry="18"/>
<text text-anchor="middle" x="1398.61" y="-1352.01" font-family="Helvetica,sans-Serif" font-size="10.00" fill="#ececec">рецензент Майя Марачкарская</text>
</g>
<!-- Священная книга оборотня&#45;&#45;рецензент Майя Марачкарская -->
<g id="edge53" class="edge"><title>Священная книга оборотня&#45;&#45;рецензент Майя Марачкарская</title>
<path fill="none" stroke="#eeeeee" stroke-width="0.6" d="M1252.77,-1129.18C1282.06,-1174.44 1357.62,-1291.18 1386.84,-1336.31"/>
</g>
<!-- Священная книга оборотня&#45;&#45;Саша Лапин -->
<g id="edge54" class="edge"><title>Священная книга оборотня&#45;&#45;Саша Лапин</title>
<path fill="none" stroke="#eeeeee" stroke-width="0.6" d="M1224.91,-1129.1C1191.53,-1167.12 1114.91,-1254.41 1082.45,-1291.39"/>
</g>
<!-- Психическая атака (сонет) -->
<g id="node19" class="node"><title>Психическая атака (сонет)</title>
<polygon fill="#181818" stroke="#090909" stroke-width="0.8" points="2539.39,-1594.47 2396.39,-1594.47 2396.39,-1558.47 2539.39,-1558.47 2539.39,-1594.47"/>
<text text-anchor="middle" x="2467.89" y="-1573.97" font-family="Helvetica,sans-Serif" font-size="10.00" fill="#fefefe">Психическая атака (сонет)</text>
</g>
<!-- Психическая атака (сонет)&#45;&#45;Петр Пустота -->
<g id="edge55" class="edge"><title>Психическая атака (сонет)&#45;&#45;Петр Пустота</title>
<path fill="none" stroke="#eeeeee" stroke-width="0.6" d="M2396.21,-1581.49C2297.75,-1588.39 2123.31,-1600.61 2039.04,-1606.52"/>
</g>
<!-- Empire V -->
<g id="node20" class="node"><title>Empire V</title>
<polygon fill="#181818" stroke="#090909" stroke-width="0.8" points="1321.47,-705.93 1264.47,-705.93 1264.47,-669.93 1321.47,-669.93 1321.47,-705.93"/>
<text text-anchor="middle" x="1292.97" y="-685.43" font-family="Helvetica,sans-Serif" font-size="10.00" fill="#fefefe">Empire V</text>
</g>
<!-- Empire V&#45;&#45;Вавилен Татарский -->
<g id="edge56" class="edge"><title>Empire V&#45;&#45;Вавилен Татарский</title>
<path fill="none" stroke="#eeeeee" stroke-width="0.6" d="M1296.81,-705.983C1305.31,-745.986 1325.65,-841.7 1334.15,-881.661"/>
</g>
<!-- Рама -->
<g id="node67" class="node"><title>Рама</title>
<ellipse fill="#2f2f2f" stroke="#ececec" stroke-width="0.6" cx="1340.64" cy="-530.06" rx="27" ry="18"/>
<text text-anchor="middle" x="1340.64" y="-527.56" font-family="Helvetica,sans-Serif" font-size="10.00" fill="#ececec">Рама</text>
</g>
<!-- Empire V&#45;&#45;Рама -->
<g id="edge57" class="edge"><title>Empire V&#45;&#45;Рама</title>
<path fill="none" stroke="#eeeeee" stroke-width="0.6" d="M1298.44,-669.82C1307.63,-639.368 1326.08,-578.269 1335.24,-547.959"/>
</g>
<!-- Empire V&#45;&#45;халдеи -->
<g id="edge58" class="edge"><title>Empire V&#45;&#45;халдеи</title>
<path fill="none" stroke="#eeeeee" stroke-width="0.6" d="M1309.85,-706.187C1328.07,-725.893 1356.83,-757.011 1374.46,-776.076"/>
</g>
<!-- Ассасин -->
<g id="node21" class="node"><title>Ассасин</title>
<polygon fill="#181818" stroke="#090909" stroke-width="0.8" points="1477.31,-1648.14 1421.31,-1648.14 1421.31,-1612.14 1477.31,-1612.14 1477.31,-1648.14"/>
<text text-anchor="middle" x="1449.31" y="-1627.64" font-family="Helvetica,sans-Serif" font-size="10.00" fill="#fefefe">Ассасин</text>
</g>
<!-- Ассасин&#45;&#45;рецензент Майя Марачкарская -->
<g id="edge59" class="edge"><title>Ассасин&#45;&#45;рецензент Майя Марачкарская</title>
<path fill="none" stroke="#eeeeee" stroke-width="0.6" d="M1445.98,-1612.06C1436.8,-1562.11 1411.15,-1422.68 1401.95,-1372.66"/>
</g>
<!-- Зал поющих кариатид -->
<g id="node22" class="node"><title>Зал поющих кариатид</title>
<polygon fill="#181818" stroke="#090909" stroke-width="0.8" points="2171.72,-823.715 2050.72,-823.715 2050.72,-787.715 2171.72,-787.715 2171.72,-823.715"/>
<text text-anchor="middle" x="2111.22" y="-803.215" font-family="Helvetica,sans-Serif" font-size="10.00" fill="#fefefe">Зал поющих кариатид</text>
</g>
<!-- генерал Шмыга -->
<g id="node42" class="node"><title>генерал Шмыга</title>
<ellipse fill="#2f2f2f" stroke="#ececec" stroke-width="0.6" cx="1868.27" cy="-908.521" rx="51.4282" ry="18"/>
<text text-anchor="middle" x="1868.27" y="-906.021" font-family="Helvetica,sans-Serif" font-size="10.00" fill="#ececec">генерал Шмыга</text>
</g>
<!-- Зал поющих кариатид&#45;&#45;генерал Шмыга -->
<g id="edge60" class="edge"><title>Зал поющих кариатид&#45;&#45;генерал Шмыга</title>
<path fill="none" stroke="#eeeeee" stroke-width="0.6" d="M2068.62,-823.74C2020.86,-843.953 1944.42,-876.297 1901.07,-894.64"/>
</g>
<!-- клуб «Haute SOS» -->
<g id="node48" class="node"><title>клуб «Haute SOS»</title>
<polygon fill="none" stroke="#e8e8e8" stroke-width="0.6" points="1832.76,-547.232 1836.63,-547.331 1840.46,-547.478 1844.23,-547.674 1847.93,-547.918 1851.55,-548.21 1855.06,-548.548 1858.47,-548.931 1861.74,-549.359 1864.88,-549.83 1867.86,-550.344 1870.69,-550.898 1873.35,-551.491 1875.82,-552.122 1878.11,-552.788 1880.21,-553.489 1882.12,-554.222 1883.82,-554.984 1885.32,-555.775 1886.61,-556.591 1887.69,-557.431 1888.57,-558.292 1889.24,-559.173 1889.71,-560.069 1889.98,-560.98 1890.05,-561.902 1889.93,-562.833 1889.63,-563.77 1889.14,-564.712 1888.48,-565.654 1887.66,-566.596 1886.68,-567.533 1885.54,-568.464 1884.27,-569.387 1882.86,-570.297 1881.32,-571.194 1879.67,-572.074 1877.91,-572.935 1876.05,-573.775 1874.1,-574.591 1872.07,-575.382 1869.96,-576.145 1867.79,-576.877 1865.55,-577.578 1863.26,-578.244 1860.92,-578.875 1858.53,-579.468 1856.11,-580.022 1853.66,-580.536 1851.19,-581.007 1848.69,-581.435 1846.16,-581.819 1843.63,-582.156 1841.08,-582.448 1838.52,-582.692 1835.95,-582.888 1833.37,-583.035 1830.79,-583.134 1828.21,-583.183 1825.63,-583.183 1823.05,-583.134 1820.47,-583.035 1817.89,-582.888 1815.32,-582.692 1812.76,-582.448 1810.21,-582.156 1807.68,-581.819 1805.16,-581.435 1802.65,-581.007 1800.18,-580.536 1797.73,-580.022 1795.31,-579.468 1792.93,-578.875 1790.59,-578.244 1788.29,-577.578 1786.06,-576.877 1783.88,-576.145 1781.77,-575.382 1779.74,-574.591 1777.79,-573.775 1775.93,-572.935 1774.17,-572.074 1772.52,-571.194 1770.98,-570.297 1769.57,-569.387 1768.3,-568.464 1767.16,-567.533 1766.18,-566.596 1765.36,-565.654 1764.7,-564.712 1764.21,-563.77 1763.91,-562.833 1763.79,-561.902 1763.86,-560.98 1764.13,-560.069 1764.6,-559.173 1765.27,-558.292 1766.15,-557.431 1767.23,-556.591 1768.52,-555.775 1770.02,-554.984 1771.72,-554.222 1773.63,-553.489 1775.73,-552.788 1778.02,-552.122 1780.5,-551.491 1783.15,-550.898 1785.98,-550.344 1788.96,-549.83 1792.1,-549.359 1795.38,-548.931 1798.78,-548.548 1802.29,-548.21 1805.91,-547.918 1809.61,-547.674 1813.38,-547.478 1817.21,-547.331 1821.08,-547.232 1824.97,-547.183 1828.87,-547.183 1832.76,-547.232"/>
<text text-anchor="middle" x="1826.92" y="-562.683" font-family="Helvetica,sans-Serif" font-size="10.00" fill="#e8e8e8">клуб «Haute SOS»</text>
</g>
<!-- Зал поющих кариатид&#45;&#45;клуб «Haute SOS» -->
<g id="edge61" class="edge"><title>Зал поющих кариатид&#45;&#45;клуб «Haute SOS»</title>
<path fill="none" stroke="#eeeeee" stroke-width="0.6" d="M2089.85,-787.636C2036.52,-742.513 1898.15,-625.443 1846.63,-581.857"/>
</g>
<!-- Михаил Ботвинник -->
<g id="node55" class="node"><title>Михаил Ботвинник</title>
<ellipse fill="#2f2f2f" stroke="#ececec" stroke-width="0.6" cx="2060.36" cy="-617.392" rx="62.2967" ry="18"/>
<text text-anchor="middle" x="2060.36" y="-614.892" font-family="Helvetica,sans-Serif" font-size="10.00" fill="#ececec">Михаил Ботвинник</text>
</g>
<!-- Зал поющих кариатид&#45;&#45;Михаил Ботвинник -->
<g id="edge62" class="edge"><title>Зал поющих кариатид&#45;&#45;Михаил Ботвинник</title>
<path fill="none" stroke="#eeeeee" stroke-width="0.6" d="M2106.34,-787.657C2096.62,-751.661 2074.93,-671.346 2065.22,-635.395"/>
</g>
<!-- Некромент -->
<g id="node23" class="node"><title>Некромент</title>
<polygon fill="#181818" stroke="#090909" stroke-width="0.8" points="2550.03,-552.585 2482.03,-552.585 2482.03,-516.585 2550.03,-516.585 2550.03,-552.585"/>
<text text-anchor="middle" x="2516.03" y="-532.085" font-family="Helvetica,sans-Serif" font-size="10.00" fill="#fefefe">Некромент</text>
</g>
<!-- Дупин -->
<g id="node45" class="node"><title>Дупин</title>
<ellipse fill="#2f2f2f" stroke="#ececec" stroke-width="0.6" cx="1859.63" cy="-743.436" rx="27.8353" ry="18"/>
<text text-anchor="middle" x="1859.63" y="-740.936" font-family="Helvetica,sans-Serif" font-size="10.00" fill="#ececec">Дупин</text>
</g>
<!-- Некромент&#45;&#45;Дупин -->
<g id="edge63" class="edge"><title>Некромент&#45;&#45;Дупин</title>
<path fill="none" stroke="#eeeeee" stroke-width="0.6" d="M2481.67,-545.52C2365.07,-582.617 1986.21,-703.161 1884.79,-735.429"/>
</g>
<!-- Макар Гетман -->
<g id="node52" class="node"><title>Макар Гетман</title>
<ellipse fill="#2f2f2f" stroke="#ececec" stroke-width="0.6" cx="2133.59" cy="-389.477" rx="48.7185" ry="18"/>
<text text-anchor="middle" x="2133.59" y="-386.977" font-family="Helvetica,sans-Serif" font-size="10.00" fill="#ececec">Макар Гетман</text>
</g>
<!-- Некромент&#45;&#45;Макар Гетман -->
<g id="edge64" class="edge"><title>Некромент&#45;&#45;Макар Гетман</title>
<path fill="none" stroke="#eeeeee" stroke-width="0.6" d="M2481.76,-521.58C2409.06,-493.998 2240.16,-429.911 2167.65,-402.401"/>
</g>
<!-- Пространство Фридмана -->
<g id="node24" class="node"><title>Пространство Фридмана</title>
<polygon fill="#181818" stroke="#090909" stroke-width="0.8" points="2573.12,-880.356 2438.12,-880.356 2438.12,-844.356 2573.12,-844.356 2573.12,-880.356"/>
<text text-anchor="middle" x="2505.62" y="-859.856" font-family="Helvetica,sans-Serif" font-size="10.00" fill="#fefefe">Пространство Фридмана</text>
</g>
<!-- Пространство Фридмана&#45;&#45;генерал Шмыга -->
<g id="edge65" class="edge"><title>Пространство Фридмана&#45;&#45;генерал Шмыга</title>
<path fill="none" stroke="#eeeeee" stroke-width="0.6" d="M2438.01,-867.253C2309.38,-876.57 2032.13,-896.652 1918.45,-904.886"/>
</g>
<!-- t -->
<g id="node25" class="node"><title>t</title>
<polygon fill="#181818" stroke="#090909" stroke-width="0.8" points="1727.52,-991.833 1673.52,-991.833 1673.52,-955.833 1727.52,-955.833 1727.52,-991.833"/>
<text text-anchor="middle" x="1700.52" y="-971.333" font-family="Helvetica,sans-Serif" font-size="10.00" fill="#fefefe">t</text>
</g>
<!-- t&#45;&#45;А Хули -->
<g id="edge66" class="edge"><title>t&#45;&#45;А Хули</title>
<path fill="none" stroke="#eeeeee" stroke-width="0.6" d="M1682.28,-992.213C1659.59,-1016.28 1621.51,-1060.81 1602.48,-1106.58 1577.76,-1166.02 1573.78,-1243.77 1573.32,-1278.44"/>
</g>
<!-- t&#45;&#45;Анна -->
<g id="edge67" class="edge"><title>t&#45;&#45;Анна</title>
<path fill="none" stroke="#555555" stroke-width="0.6" d="M1705.4,-992.139C1720.9,-1050.27 1768.89,-1230.22 1784.22,-1287.7"/>
</g>
<!-- t&#45;&#45;генерал Шмыга -->
<g id="edge68" class="edge"><title>t&#45;&#45;генерал Шмыга</title>
<path fill="none" stroke="#eeeeee" stroke-width="0.6" d="M1727.84,-963.194C1756.72,-951.952 1802.32,-934.195 1833.68,-921.986"/>
</g>
<!-- t&#45;&#45;граф Т. -->
<g id="edge69" class="edge"><title>t&#45;&#45;граф Т.</title>
<path fill="none" stroke="#eeeeee" stroke-width="0.6" d="M1723.73,-992.05C1754.66,-1016.32 1808.75,-1058.76 1837.09,-1080.99"/>
</g>
<!-- t&#45;&#45;лама Джамбон Тулку -->
<g id="edge70" class="edge"><title>t&#45;&#45;лама Джамбон Тулку</title>
<path fill="none" stroke="#eeeeee" stroke-width="0.6" d="M1673.51,-958.112C1654.9,-947.285 1630.23,-932.924 1611.31,-921.912"/>
</g>
<!-- t&#45;&#45;Лев Толстой -->
<g id="edge71" class="edge"><title>t&#45;&#45;Лев Толстой</title>
<path fill="none" stroke="#eeeeee" stroke-width="0.6" d="M1673.5,-991.476C1618.53,-1027.37 1494.49,-1108.36 1442.42,-1142.36"/>
</g>
<!-- t&#45;&#45;Померанцев (Константин Победоносцев) -->
<g id="edge72" class="edge"><title>t&#45;&#45;Померанцев (Константин Победоносцев)</title>
<path fill="none" stroke="#eeeeee" stroke-width="0.6" d="M1727.65,-977.421C1785.14,-985.024 1921.47,-1003.05 2013.38,-1015.21"/>
</g>
<!-- t&#45;&#45;Чапаев -->
<g id="edge73" class="edge"><title>t&#45;&#45;Чапаев</title>
<path fill="none" stroke="#eeeeee" stroke-width="0.6" d="M1702.19,-991.847C1704.47,-1017.36 1708.43,-1065.48 1709.88,-1106.58 1716.42,-1292.3 1698.58,-1517.26 1692.92,-1582.26"/>
</g>
<!-- Зенитные кодексы Аль&#45;Эфесби -->
<g id="node26" class="node"><title>Зенитные кодексы Аль&#45;Эфесби</title>
<polygon fill="#181818" stroke="#090909" stroke-width="0.8" points="1728.92,-538.93 1562.92,-538.93 1562.92,-502.93 1728.92,-502.93 1728.92,-538.93"/>
<text text-anchor="middle" x="1645.92" y="-518.43" font-family="Helvetica,sans-Serif" font-size="10.00" fill="#fefefe">Зенитные кодексы Аль&#45;Эфесби</text>
</g>
<!-- БПЛА -->
<g id="node38" class="node"><title>БПЛА</title>
<polygon fill="none" stroke="#e8e8e8" stroke-width="0.6" points="1687.88,-12.258 1689.66,-12.3566 1691.42,-12.504 1693.15,-12.7 1694.85,-12.944 1696.51,-13.2353 1698.12,-13.5732 1699.69,-13.9566 1701.19,-14.3846 1702.63,-14.8559 1704,-15.3693 1705.3,-15.9234 1706.52,-16.5167 1707.66,-17.1475 1708.71,-17.8141 1709.67,-18.5146 1710.55,-19.2472 1711.33,-20.0099 1712.02,-20.8005 1712.61,-21.6169 1713.11,-22.4568 1713.51,-23.318 1713.82,-24.1981 1714.03,-25.0947 1714.16,-26.0052 1714.19,-26.9273 1714.14,-27.8584 1714,-28.796 1713.77,-29.7374 1713.47,-30.68 1713.09,-31.6214 1712.64,-32.559 1712.12,-33.4901 1711.53,-34.4122 1710.89,-35.3227 1710.18,-36.2193 1709.42,-37.0994 1708.62,-37.9606 1707.76,-38.8005 1706.87,-39.6169 1705.93,-40.4075 1704.97,-41.1702 1703.97,-41.9028 1702.94,-42.6033 1701.89,-43.2699 1700.81,-43.9007 1699.72,-44.494 1698.61,-45.0481 1697.48,-45.5615 1696.34,-46.0328 1695.2,-46.4608 1694.04,-46.8442 1692.87,-47.1821 1691.7,-47.4734 1690.53,-47.7174 1689.35,-47.9134 1688.16,-48.0608 1686.98,-48.1594 1685.79,-48.2087 1684.61,-48.2087 1683.42,-48.1594 1682.24,-48.0608 1681.06,-47.9134 1679.88,-47.7174 1678.7,-47.4734 1677.53,-47.1821 1676.37,-46.8442 1675.21,-46.4608 1674.06,-46.0328 1672.92,-45.5615 1671.8,-45.0481 1670.69,-44.494 1669.59,-43.9007 1668.52,-43.2699 1667.46,-42.6033 1666.44,-41.9028 1665.44,-41.1702 1664.47,-40.4075 1663.54,-39.6169 1662.64,-38.8005 1661.79,-37.9606 1660.98,-37.0994 1660.22,-36.2193 1659.52,-35.3227 1658.87,-34.4122 1658.28,-33.4901 1657.76,-32.559 1657.31,-31.6214 1656.93,-30.68 1656.63,-29.7374 1656.41,-28.796 1656.27,-27.8584 1656.21,-26.9273 1656.25,-26.0052 1656.37,-25.0947 1656.58,-24.1981 1656.89,-23.318 1657.3,-22.4568 1657.79,-21.6169 1658.39,-20.8005 1659.07,-20.0099 1659.86,-19.2472 1660.73,-18.5146 1661.69,-17.8141 1662.75,-17.1475 1663.88,-16.5167 1665.1,-15.9234 1666.4,-15.3693 1667.77,-14.8559 1669.21,-14.3846 1670.72,-13.9566 1672.28,-13.5732 1673.89,-13.2353 1675.55,-12.944 1677.25,-12.7 1678.99,-12.504 1680.74,-12.3566 1682.52,-12.258 1684.31,-12.2087 1686.1,-12.2087 1687.88,-12.258"/>
<text text-anchor="middle" x="1685.2" y="-27.7087" font-family="Helvetica,sans-Serif" font-size="10.00" fill="#e8e8e8">БПЛА</text>
</g>
<!-- Зенитные кодексы Аль&#45;Эфесби&#45;&#45;БПЛА -->
<g id="edge74" class="edge"><title>Зенитные кодексы Аль&#45;Эфесби&#45;&#45;БПЛА</title>
<path fill="none" stroke="#eeeeee" stroke-width="0.6" d="M1641.05,-502.845C1632.44,-469.382 1615.25,-395.411 1613.5,-331.808 1610.43,-220.98 1658.73,-93.2235 1677.71,-47.5465"/>
</g>
<!-- Зенитные кодексы Аль&#45;Эфесби&#45;&#45;Макар Гетман -->
<g id="edge75" class="edge"><title>Зенитные кодексы Аль&#45;Эфесби&#45;&#45;Макар Гетман</title>
<path fill="none" stroke="#eeeeee" stroke-width="0.6" d="M1712.71,-502.928C1815.75,-475.153 2010.31,-422.709 2093.84,-400.191"/>
</g>
<!-- Зенитные кодексы Аль&#45;Эфесби&#45;&#45;Семён Левитан -->
<g id="edge76" class="edge"><title>Зенитные кодексы Аль&#45;Эфесби&#45;&#45;Семён Левитан</title>
<path fill="none" stroke="#eeeeee" stroke-width="0.6" d="M1624.37,-539.127C1609.13,-551.836 1588.11,-569.06 1569.11,-583.585 1529.24,-614.05 1479.56,-644.673 1449.55,-662.439"/>
</g>
<!-- Операция «Burning Bush» -->
<g id="node27" class="node"><title>Операция «Burning Bush»</title>
<polygon fill="#181818" stroke="#090909" stroke-width="0.8" points="1590.46,-807.995 1455.46,-807.995 1455.46,-771.995 1590.46,-771.995 1590.46,-807.995"/>
<text text-anchor="middle" x="1522.96" y="-787.495" font-family="Helvetica,sans-Serif" font-size="10.00" fill="#fefefe">Операция «Burning Bush»</text>
</g>
<!-- Операция «Burning Bush»&#45;&#45;Вавилен Татарский -->
<g id="edge77" class="edge"><title>Операция «Burning Bush»&#45;&#45;Вавилен Татарский</title>
<path fill="none" stroke="#eeeeee" stroke-width="0.6" d="M1492.42,-808.105C1457.12,-829.034 1399.53,-863.173 1365.55,-883.323"/>
</g>
<!-- Операция «Burning Bush»&#45;&#45;генерал Шмыга -->
<g id="edge78" class="edge"><title>Операция «Burning Bush»&#45;&#45;генерал Шмыга</title>
<path fill="none" stroke="#eeeeee" stroke-width="0.6" d="M1575.41,-807.997C1645.97,-832.217 1769.71,-874.691 1831.29,-895.828"/>
</g>
<!-- Операция «Burning Bush»&#45;&#45;Дупин -->
<g id="edge79" class="edge"><title>Операция «Burning Bush»&#45;&#45;Дупин</title>
<path fill="none" stroke="#eeeeee" stroke-width="0.6" d="M1590.69,-780.629C1664.81,-770.379 1780.03,-754.444 1832.25,-747.222"/>
</g>
<!-- Олег -->
<g id="node61" class="node"><title>Олег</title>
<ellipse fill="#2f2f2f" stroke="#ececec" stroke-width="0.6" cx="1572.63" cy="-683.679" rx="27" ry="18"/>
<text text-anchor="middle" x="1572.63" y="-681.179" font-family="Helvetica,sans-Serif" font-size="10.00" fill="#ececec">Олег</text>
</g>
<!-- Операция «Burning Bush»&#45;&#45;Олег -->
<g id="edge80" class="edge"><title>Операция «Burning Bush»&#45;&#45;Олег</title>
<path fill="none" stroke="#eeeeee" stroke-width="0.6" d="M1531.39,-771.96C1540.63,-752.173 1555.36,-720.633 1564.49,-701.095"/>
</g>
<!-- Операция «Burning Bush»&#45;&#45;Семён Левитан -->
<g id="edge81" class="edge"><title>Операция «Burning Bush»&#45;&#45;Семён Левитан</title>
<path fill="none" stroke="#eeeeee" stroke-width="0.6" d="M1506.87,-771.989C1487.96,-750.828 1456.8,-715.967 1438.19,-695.15"/>
</g>
<!-- треугольное существо -->
<g id="node76" class="node"><title>треугольное существо</title>
<polygon fill="none" stroke="#e8e8e8" stroke-width="0.6" points="1501.12,-563.18 1505.76,-563.278 1510.35,-563.426 1514.87,-563.622 1519.31,-563.866 1523.64,-564.157 1527.86,-564.495 1531.94,-564.878 1535.87,-565.306 1539.63,-565.777 1543.21,-566.291 1546.6,-566.845 1549.78,-567.438 1552.75,-568.069 1555.5,-568.736 1558.02,-569.436 1560.3,-570.169 1562.34,-570.931 1564.14,-571.722 1565.69,-572.538 1566.99,-573.378 1568.04,-574.24 1568.85,-575.12 1569.41,-576.016 1569.73,-576.927 1569.82,-577.849 1569.68,-578.78 1569.31,-579.717 1568.73,-580.659 1567.94,-581.602 1566.95,-582.543 1565.77,-583.481 1564.41,-584.412 1562.88,-585.334 1561.19,-586.244 1559.35,-587.141 1557.37,-588.021 1555.26,-588.882 1553.03,-589.722 1550.69,-590.538 1548.26,-591.329 1545.73,-592.092 1543.12,-592.824 1540.43,-593.525 1537.68,-594.191 1534.88,-594.822 1532.02,-595.415 1529.12,-595.97 1526.18,-596.483 1523.21,-596.954 1520.21,-597.382 1517.19,-597.766 1514.15,-598.104 1511.09,-598.395 1508.02,-598.639 1504.94,-598.835 1501.85,-598.982 1498.76,-599.081 1495.66,-599.13 1492.56,-599.13 1489.47,-599.081 1486.37,-598.982 1483.29,-598.835 1480.2,-598.639 1477.13,-598.395 1474.08,-598.104 1471.03,-597.766 1468.01,-597.382 1465.01,-596.954 1462.04,-596.483 1459.1,-595.97 1456.2,-595.415 1453.34,-594.822 1450.54,-594.191 1447.79,-593.525 1445.11,-592.824 1442.5,-592.092 1439.97,-591.329 1437.53,-590.538 1435.19,-589.722 1432.96,-588.882 1430.85,-588.021 1428.87,-587.141 1427.03,-586.244 1425.34,-585.334 1423.81,-584.412 1422.45,-583.481 1421.27,-582.543 1420.29,-581.602 1419.5,-580.659 1418.91,-579.717 1418.55,-578.78 1418.4,-577.849 1418.49,-576.927 1418.81,-576.016 1419.38,-575.12 1420.18,-574.24 1421.23,-573.378 1422.53,-572.538 1424.08,-571.722 1425.88,-570.931 1427.92,-570.169 1430.2,-569.436 1432.72,-568.736 1435.47,-568.069 1438.44,-567.438 1441.62,-566.845 1445.01,-566.291 1448.59,-565.777 1452.36,-565.306 1456.28,-564.878 1460.36,-564.495 1464.58,-564.157 1468.91,-563.866 1473.35,-563.622 1477.88,-563.426 1482.47,-563.278 1487.11,-563.18 1491.77,-563.13 1496.45,-563.13 1501.12,-563.18"/>
<text text-anchor="middle" x="1494.11" y="-578.63" font-family="Helvetica,sans-Serif" font-size="10.00" fill="#e8e8e8">треугольное существо</text>
</g>
<!-- Операция «Burning Bush»&#45;&#45;треугольное существо -->
<g id="edge82" class="edge"><title>Операция «Burning Bush»&#45;&#45;треугольное существо</title>
<path fill="none" stroke="#eeeeee" stroke-width="0.6" d="M1520.45,-771.825C1515,-732.324 1502.11,-639.005 1496.64,-599.407"/>
</g>
<!-- Отель хороших воплощений -->
<g id="node28" class="node"><title>Отель хороших воплощений</title>
<polygon fill="#181818" stroke="#090909" stroke-width="0.8" points="1584.47,-287.93 1438.47,-287.93 1438.47,-251.93 1584.47,-251.93 1584.47,-287.93"/>
<text text-anchor="middle" x="1511.47" y="-267.43" font-family="Helvetica,sans-Serif" font-size="10.00" fill="#fefefe">Отель хороших воплощений</text>
</g>
<!-- Отель хороших воплощений&#45;&#45;треугольное существо -->
<g id="edge83" class="edge"><title>Отель хороших воплощений&#45;&#45;треугольное существо</title>
<path fill="none" stroke="#eeeeee" stroke-width="0.6" d="M1523.68,-288.091C1542.84,-318.476 1577.63,-382.108 1575.83,-441.146 1574.32,-490.651 1536.26,-538.251 1512.62,-563.167"/>
</g>
<!-- Созерцатель тени -->
<g id="node29" class="node"><title>Созерцатель тени</title>
<polygon fill="#181818" stroke="#090909" stroke-width="0.8" points="1930.87,-387.03 1827.87,-387.03 1827.87,-351.03 1930.87,-351.03 1930.87,-387.03"/>
<text text-anchor="middle" x="1879.37" y="-366.53" font-family="Helvetica,sans-Serif" font-size="10.00" fill="#fefefe">Созерцатель тени</text>
</g>
<!-- Борис -->
<g id="node37" class="node"><title>Борис</title>
<ellipse fill="#2f2f2f" stroke="#ececec" stroke-width="0.6" cx="2009.56" cy="-47.3717" rx="27.1572" ry="18"/>
<text text-anchor="middle" x="2009.56" y="-44.8717" font-family="Helvetica,sans-Serif" font-size="10.00" fill="#ececec">Борис</text>
</g>
<!-- Созерцатель тени&#45;&#45;Борис -->
<g id="edge84" class="edge"><title>Созерцатель тени&#45;&#45;Борис</title>
<path fill="none" stroke="#eeeeee" stroke-width="0.6" d="M1886.74,-350.814C1909.71,-294.066 1979.8,-120.919 2002.43,-64.9924"/>
</g>
<!-- Созерцатель тени&#45;&#45;Олег -->
<g id="edge85" class="edge"><title>Созерцатель тени&#45;&#45;Олег</title>
<path fill="none" stroke="#eeeeee" stroke-width="0.6" d="M1865.32,-387.189C1839.98,-419.527 1784.43,-488.711 1732.12,-542.13 1683.43,-591.86 1620.23,-644.887 1590.1,-669.549"/>
</g>
<!-- Созерцатель тени&#45;&#45;треугольное существо -->
<g id="edge86" class="edge"><title>Созерцатель тени&#45;&#45;треугольное существо</title>
<path fill="none" stroke="#eeeeee" stroke-width="0.6" d="M1827.74,-381.486C1760.99,-399.425 1643.38,-437.409 1559.72,-499.73 1536.29,-517.188 1516.38,-544.883 1504.83,-563.033"/>
</g>
<!-- Тхаги -->
<g id="node30" class="node"><title>Тхаги</title>
<polygon fill="#181818" stroke="#090909" stroke-width="0.8" points="2512.42,-115.605 2458.42,-115.605 2458.42,-79.6047 2512.42,-79.6047 2512.42,-115.605"/>
<text text-anchor="middle" x="2485.42" y="-95.1047" font-family="Helvetica,sans-Serif" font-size="10.00" fill="#fefefe">Тхаги</text>
</g>
<!-- Тхаги&#45;&#45;Борис -->
<g id="edge87" class="edge"><title>Тхаги&#45;&#45;Борис</title>
<path fill="none" stroke="#eeeeee" stroke-width="0.6" d="M2458.13,-94.7235C2374.1,-85.853 2119.93,-59.0226 2036.45,-50.2101"/>
</g>
<!-- S.N.U.F.F. -->
<g id="node31" class="node"><title>S.N.U.F.F.</title>
<polygon fill="#181818" stroke="#090909" stroke-width="0.8" points="1345.94,-334.085 1280.94,-334.085 1280.94,-298.085 1345.94,-298.085 1345.94,-334.085"/>
<text text-anchor="middle" x="1313.44" y="-313.585" font-family="Helvetica,sans-Serif" font-size="10.00" fill="#fefefe">S.N.U.F.F.</text>
</g>
<!-- Ацтланский календарь -->
<g id="node36" class="node"><title>Ацтланский календарь</title>
<polygon fill="none" stroke="#e8e8e8" stroke-width="0.6" points="1702.29,-317.272 1707.08,-317.371 1711.83,-317.518 1716.5,-317.714 1721.09,-317.958 1725.57,-318.249 1729.92,-318.587 1734.14,-318.971 1738.2,-319.399 1742.08,-319.87 1745.78,-320.383 1749.28,-320.938 1752.58,-321.531 1755.65,-322.162 1758.49,-322.828 1761.09,-323.529 1763.45,-324.261 1765.55,-325.024 1767.41,-325.815 1769.01,-326.631 1770.35,-327.471 1771.44,-328.332 1772.27,-329.212 1772.85,-330.109 1773.19,-331.019 1773.28,-331.941 1773.13,-332.872 1772.75,-333.81 1772.15,-334.751 1771.33,-335.694 1770.31,-336.636 1769.09,-337.573 1767.69,-338.504 1766.11,-339.426 1764.36,-340.337 1762.46,-341.233 1760.41,-342.113 1758.24,-342.975 1755.93,-343.815 1753.52,-344.631 1751,-345.422 1748.38,-346.184 1745.69,-346.917 1742.91,-347.617 1740.07,-348.284 1737.17,-348.915 1734.22,-349.508 1731.23,-350.062 1728.19,-350.576 1725.12,-351.047 1722.02,-351.475 1718.9,-351.858 1715.76,-352.196 1712.6,-352.487 1709.42,-352.731 1706.24,-352.927 1703.05,-353.075 1699.85,-353.173 1696.65,-353.223 1693.45,-353.223 1690.25,-353.173 1687.06,-353.075 1683.87,-352.927 1680.68,-352.731 1677.51,-352.487 1674.35,-352.196 1671.21,-351.858 1668.09,-351.475 1664.99,-351.047 1661.92,-350.576 1658.88,-350.062 1655.88,-349.508 1652.93,-348.915 1650.03,-348.284 1647.19,-347.617 1644.42,-346.917 1641.72,-346.184 1639.11,-345.422 1636.59,-344.631 1634.18,-343.815 1631.87,-342.975 1629.69,-342.113 1627.65,-341.233 1625.75,-340.337 1624,-339.426 1622.42,-338.504 1621.01,-337.573 1619.8,-336.636 1618.78,-335.694 1617.96,-334.751 1617.36,-333.81 1616.98,-332.872 1616.83,-331.941 1616.92,-331.019 1617.25,-330.109 1617.83,-329.212 1618.67,-328.332 1619.76,-327.471 1621.1,-326.631 1622.7,-325.815 1624.55,-325.024 1626.66,-324.261 1629.02,-323.529 1631.62,-322.828 1634.46,-322.162 1637.53,-321.531 1640.82,-320.938 1644.32,-320.383 1648.02,-319.87 1651.91,-319.399 1655.97,-318.971 1660.18,-318.587 1664.54,-318.249 1669.02,-317.958 1673.61,-317.714 1678.28,-317.518 1683.02,-317.371 1687.82,-317.272 1692.64,-317.223 1697.47,-317.223 1702.29,-317.272"/>
<text text-anchor="middle" x="1695.05" y="-332.723" font-family="Helvetica,sans-Serif" font-size="10.00" fill="#e8e8e8">Ацтланский календарь</text>
</g>
<!-- S.N.U.F.F.&#45;&#45;Ацтланский календарь -->
<g id="edge88" class="edge"><title>S.N.U.F.F.&#45;&#45;Ацтланский календарь</title>
<path fill="none" stroke="#eeeeee" stroke-width="0.6" d="M1345.98,-317.717C1405.46,-320.7 1533.28,-327.11 1616.63,-331.29"/>
</g>
<!-- S.N.U.F.F.&#45;&#45;БПЛА -->
<g id="edge89" class="edge"><title>S.N.U.F.F.&#45;&#45;БПЛА</title>
<path fill="none" stroke="#eeeeee" stroke-width="0.6" d="M1336.98,-297.985C1406.25,-244.717 1608.29,-89.3521 1668.24,-43.2505"/>
</g>
<!-- гигантская летучая мышь -->
<g id="node43" class="node"><title>гигантская летучая мышь</title>
<polygon fill="none" stroke="#e8e8e8" stroke-width="0.6" points="1495.24,-426.6 1500.45,-426.699 1505.6,-426.846 1510.68,-427.042 1515.67,-427.286 1520.54,-427.577 1525.27,-427.915 1529.85,-428.299 1534.26,-428.727 1538.49,-429.198 1542.51,-429.711 1546.31,-430.265 1549.89,-430.859 1553.23,-431.489 1556.31,-432.156 1559.14,-432.857 1561.7,-433.589 1564,-434.352 1566.01,-435.143 1567.75,-435.959 1569.21,-436.799 1570.39,-437.66 1571.3,-438.54 1571.93,-439.437 1572.29,-440.347 1572.39,-441.269 1572.23,-442.2 1571.82,-443.138 1571.16,-444.079 1570.28,-445.022 1569.17,-445.963 1567.84,-446.901 1566.32,-447.832 1564.6,-448.754 1562.7,-449.665 1560.63,-450.561 1558.41,-451.441 1556.04,-452.303 1553.54,-453.143 1550.91,-453.959 1548.18,-454.75 1545.34,-455.512 1542.4,-456.245 1539.39,-456.945 1536.3,-457.612 1533.15,-458.243 1529.95,-458.836 1526.69,-459.39 1523.39,-459.903 1520.05,-460.375 1516.68,-460.803 1513.29,-461.186 1509.87,-461.524 1506.44,-461.815 1502.99,-462.059 1499.53,-462.255 1496.06,-462.403 1492.59,-462.501 1489.11,-462.551 1485.64,-462.551 1482.16,-462.501 1478.69,-462.403 1475.22,-462.255 1471.76,-462.059 1468.31,-461.815 1464.88,-461.524 1461.46,-461.186 1458.07,-460.803 1454.7,-460.375 1451.36,-459.903 1448.06,-459.39 1444.8,-458.836 1441.6,-458.243 1438.45,-457.612 1435.36,-456.945 1432.35,-456.245 1429.41,-455.512 1426.57,-454.75 1423.84,-453.959 1421.21,-453.143 1418.71,-452.303 1416.34,-451.441 1414.12,-450.561 1412.05,-449.665 1410.15,-448.754 1408.43,-447.832 1406.91,-446.901 1405.58,-445.963 1404.47,-445.022 1403.59,-444.079 1402.93,-443.138 1402.52,-442.2 1402.36,-441.269 1402.46,-440.347 1402.82,-439.437 1403.45,-438.54 1404.36,-437.66 1405.54,-436.799 1407,-435.959 1408.74,-435.143 1410.75,-434.352 1413.05,-433.589 1415.61,-432.857 1418.44,-432.156 1421.52,-431.489 1424.86,-430.859 1428.44,-430.265 1432.24,-429.711 1436.26,-429.198 1440.49,-428.727 1444.9,-428.299 1449.48,-427.915 1454.21,-427.577 1459.08,-427.286 1464.06,-427.042 1469.14,-426.846 1474.3,-426.699 1479.51,-426.6 1484.75,-426.551 1490,-426.551 1495.24,-426.6"/>
<text text-anchor="middle" x="1487.37" y="-442.051" font-family="Helvetica,sans-Serif" font-size="10.00" fill="#e8e8e8">гигантская летучая мышь</text>
</g>
<!-- S.N.U.F.F.&#45;&#45;гигантская летучая мышь -->
<g id="edge90" class="edge"><title>S.N.U.F.F.&#45;&#45;гигантская летучая мышь</title>
<path fill="none" stroke="#eeeeee" stroke-width="0.6" d="M1337.99,-334.219C1371.33,-358.841 1430.53,-402.564 1463.51,-426.922"/>
</g>
<!-- Еврайх -->
<g id="node46" class="node"><title>Еврайх</title>
<polygon fill="none" stroke="#e8e8e8" stroke-width="0.6" points="1143.22,-35.2346 1145.18,-35.3331 1147.11,-35.4806 1149.02,-35.6766 1150.89,-35.9206 1152.72,-36.2119 1154.5,-36.5497 1156.22,-36.9331 1157.88,-37.3611 1159.47,-37.8325 1160.98,-38.3459 1162.41,-38.9 1163.75,-39.4932 1165.01,-40.124 1166.17,-40.7906 1167.23,-41.4912 1168.19,-42.2238 1169.05,-42.9864 1169.81,-43.777 1170.46,-44.5934 1171.01,-45.4334 1171.46,-46.2946 1171.8,-47.1747 1172.03,-48.0712 1172.17,-48.9818 1172.21,-49.9039 1172.15,-50.835 1171.99,-51.7725 1171.75,-52.7139 1171.41,-53.6566 1171,-54.598 1170.5,-55.5355 1169.92,-56.4666 1169.28,-57.3887 1168.57,-58.2993 1167.79,-59.1958 1166.95,-60.0759 1166.06,-60.9371 1165.12,-61.777 1164.14,-62.5934 1163.11,-63.3841 1162.04,-64.1467 1160.94,-64.8793 1159.81,-65.5799 1158.65,-66.2465 1157.46,-66.8772 1156.26,-67.4705 1155.03,-68.0246 1153.79,-68.538 1152.54,-69.0094 1151.28,-69.4373 1150,-69.8208 1148.72,-70.1586 1147.43,-70.4499 1146.13,-70.6939 1144.83,-70.8899 1143.53,-71.0374 1142.22,-71.1359 1140.92,-71.1852 1139.61,-71.1852 1138.3,-71.1359 1137,-71.0374 1135.7,-70.8899 1134.4,-70.6939 1133.1,-70.4499 1131.81,-70.1586 1130.53,-69.8208 1129.25,-69.4373 1127.99,-69.0094 1126.73,-68.538 1125.49,-68.0246 1124.27,-67.4705 1123.06,-66.8772 1121.88,-66.2465 1120.72,-65.5799 1119.59,-64.8793 1118.49,-64.1467 1117.42,-63.3841 1116.39,-62.5934 1115.4,-61.777 1114.46,-60.9371 1113.57,-60.0759 1112.74,-59.1958 1111.96,-58.2993 1111.25,-57.3887 1110.6,-56.4666 1110.03,-55.5355 1109.53,-54.598 1109.11,-53.6566 1108.78,-52.7139 1108.54,-51.7725 1108.38,-50.835 1108.32,-49.9039 1108.36,-48.9818 1108.49,-48.0712 1108.73,-47.1747 1109.07,-46.2946 1109.51,-45.4334 1110.06,-44.5934 1110.72,-43.777 1111.47,-42.9864 1112.34,-42.2238 1113.3,-41.4912 1114.36,-40.7906 1115.52,-40.124 1116.77,-39.4932 1118.12,-38.9 1119.55,-38.3459 1121.06,-37.8325 1122.65,-37.3611 1124.3,-36.9331 1126.02,-36.5497 1127.8,-36.2119 1129.63,-35.9206 1131.51,-35.6766 1133.41,-35.4806 1135.35,-35.3331 1137.31,-35.2346 1139.28,-35.1852 1141.25,-35.1852 1143.22,-35.2346"/>
<text text-anchor="middle" x="1140.26" y="-50.6852" font-family="Helvetica,sans-Serif" font-size="10.00" fill="#e8e8e8">Еврайх</text>
</g>
<!-- S.N.U.F.F.&#45;&#45;Еврайх -->
<g id="edge91" class="edge"><title>S.N.U.F.F.&#45;&#45;Еврайх</title>
<path fill="none" stroke="#eeeeee" stroke-width="0.6" d="M1301.54,-298.015C1269.52,-249.407 1181.9,-116.391 1151.12,-69.6728"/>
</g>
<!-- S.N.U.F.F.&#45;&#45;Кая -->
<g id="edge92" class="edge"><title>S.N.U.F.F.&#45;&#45;Кая</title>
<path fill="none" stroke="#555555" stroke-width="0.6" d="M1291.29,-334.137C1265.53,-355.128 1223.55,-389.333 1200.09,-408.444"/>
</g>
<!-- S.N.U.F.F.&#45;&#45;Семён Левитан -->
<g id="edge93" class="edge"><title>S.N.U.F.F.&#45;&#45;Семён Левитан</title>
<path fill="none" stroke="#eeeeee" stroke-width="0.6" d="M1319.02,-334.526C1337.82,-396.741 1398.78,-598.439 1417.36,-659.951"/>
</g>
<!-- суры -->
<g id="node74" class="node"><title>суры</title>
<polygon fill="none" stroke="#e8e8e8" stroke-width="0.6" points="1396.93,-0.0493367 1398.71,-0.147875 1400.46,-0.295345 1402.2,-0.491342 1403.9,-0.735329 1405.56,-1.02664 1407.17,-1.36447 1408.73,-1.7479 1410.24,-2.17587 1411.68,-2.64722 1413.05,-3.16064 1414.35,-3.71474 1415.56,-4.308 1416.7,-4.93879 1417.76,-5.60537 1418.72,-6.30593 1419.59,-7.03854 1420.37,-7.80119 1421.06,-8.5918 1421.66,-9.4082 1422.15,-10.2481 1422.56,-11.1093 1422.86,-11.9894 1423.08,-12.886 1423.2,-13.7965 1423.24,-14.7186 1423.18,-15.6497 1423.04,-16.5873 1422.82,-17.5287 1422.52,-18.4713 1422.14,-19.4127 1421.69,-20.3503 1421.17,-21.2814 1420.58,-22.2035 1419.93,-23.114 1419.23,-24.0106 1418.47,-24.8907 1417.66,-25.7519 1416.81,-26.5918 1415.91,-27.4082 1414.98,-28.1988 1414.01,-28.9615 1413.01,-29.6941 1411.98,-30.3946 1410.93,-31.0612 1409.86,-31.692 1408.76,-32.2853 1407.65,-32.8394 1406.53,-33.3528 1405.39,-33.8241 1404.24,-34.2521 1403.08,-34.6355 1401.92,-34.9734 1400.75,-35.2647 1399.57,-35.5087 1398.39,-35.7047 1397.21,-35.8521 1396.03,-35.9507 1394.84,-36 1393.65,-36 1392.47,-35.9507 1391.28,-35.8521 1390.1,-35.7047 1388.92,-35.5087 1387.75,-35.2647 1386.58,-34.9734 1385.41,-34.6355 1384.25,-34.2521 1383.11,-33.8241 1381.97,-33.3528 1380.84,-32.8394 1379.73,-32.2853 1378.64,-31.692 1377.56,-31.0612 1376.51,-30.3946 1375.48,-29.6941 1374.48,-28.9615 1373.52,-28.1988 1372.58,-27.4082 1371.69,-26.5918 1370.83,-25.7519 1370.03,-24.8907 1369.27,-24.0106 1368.56,-23.114 1367.92,-22.2035 1367.33,-21.2814 1366.81,-20.3503 1366.36,-19.4127 1365.98,-18.4713 1365.68,-17.5287 1365.45,-16.5873 1365.31,-15.6497 1365.26,-14.7186 1365.29,-13.7965 1365.42,-12.886 1365.63,-11.9894 1365.94,-11.1093 1366.34,-10.2481 1366.84,-9.4082 1367.43,-8.5918 1368.12,-7.80119 1368.9,-7.03854 1369.78,-6.30593 1370.74,-5.60537 1371.79,-4.93879 1372.93,-4.308 1374.15,-3.71474 1375.45,-3.16064 1376.82,-2.64722 1378.26,-2.17587 1379.76,-1.7479 1381.33,-1.36447 1382.94,-1.02664 1384.6,-0.735329 1386.3,-0.491342 1388.03,-0.295345 1389.79,-0.147875 1391.57,-0.0493367 1393.35,-1.81188e-13 1395.14,-1.84741e-13 1396.93,-0.0493367"/>
<text text-anchor="middle" x="1394.25" y="-15.5" font-family="Helvetica,sans-Serif" font-size="10.00" fill="#e8e8e8">суры</text>
</g>
<!-- S.N.U.F.F.&#45;&#45;суры -->
<g id="edge94" class="edge"><title>S.N.U.F.F.&#45;&#45;суры</title>
<path fill="none" stroke="#eeeeee" stroke-width="0.6" d="M1318.38,-297.887C1332.84,-244.545 1375,-88.9964 1389.38,-35.9597"/>
</g>
<!-- Бэтман Аполло -->
<g id="node32" class="node"><title>Бэтман Аполло</title>
<polygon fill="#181818" stroke="#090909" stroke-width="0.8" points="1743.52,-690.401 1657.52,-690.401 1657.52,-654.401 1743.52,-654.401 1743.52,-690.401"/>
<text text-anchor="middle" x="1700.52" y="-669.901" font-family="Helvetica,sans-Serif" font-size="10.00" fill="#fefefe">Бэтман Аполло</text>
</g>
<!-- Бэтман Аполло&#45;&#45;Ацтланский календарь -->
<g id="edge95" class="edge"><title>Бэтман Аполло&#45;&#45;Ацтланский календарь</title>
<path fill="none" stroke="#eeeeee" stroke-width="0.6" d="M1706.42,-654.102C1714.15,-629.122 1727.26,-582.8 1732.12,-542.13 1740.53,-471.834 1714.91,-389.257 1702,-353.383"/>
</g>
<!-- Бэтман Аполло&#45;&#45;гигантская летучая мышь -->
<g id="edge96" class="edge"><title>Бэтман Аполло&#45;&#45;гигантская летучая мышь</title>
<path fill="none" stroke="#eeeeee" stroke-width="0.6" d="M1678.34,-654.143C1649.55,-629.946 1598.41,-585.266 1559.72,-542.13 1536.35,-516.068 1512.87,-482.776 1499.25,-462.589"/>
</g>
<!-- Бэтман Аполло&#45;&#45;клуб «Haute SOS» -->
<g id="edge97" class="edge"><title>Бэтман Аполло&#45;&#45;клуб «Haute SOS»</title>
<path fill="none" stroke="#eeeeee" stroke-width="0.6" d="M1721.96,-654.213C1745.77,-634.019 1783.88,-601.687 1807.04,-582.045"/>
</g>
<!-- Бэтман Аполло&#45;&#45;Михаил Ботвинник -->
<g id="edge98" class="edge"><title>Бэтман Аполло&#45;&#45;Михаил Ботвинник</title>
<path fill="none" stroke="#eeeeee" stroke-width="0.6" d="M1743.57,-665.82C1808.95,-655.825 1933.27,-636.819 2005.2,-625.824"/>
</g>
<!-- Бэтман Аполло&#45;&#45;Михаил Непойман -->
<g id="edge99" class="edge"><title>Бэтман Аполло&#45;&#45;Михаил Непойман</title>
<path fill="none" stroke="#eeeeee" stroke-width="0.6" d="M1699.14,-690.454C1697.06,-717.724 1693.14,-769.142 1691.05,-796.59"/>
</g>
<!-- Бэтман Аполло&#45;&#45;Рама -->
<g id="edge100" class="edge"><title>Бэтман Аполло&#45;&#45;Рама</title>
<path fill="none" stroke="#eeeeee" stroke-width="0.6" d="M1657.04,-666.361C1599.11,-656.701 1495.24,-633.626 1420.48,-584.561 1399.43,-570.748 1375.64,-554.411 1359.55,-543.25"/>
</g>
<!-- Бэтман Аполло&#45;&#45;халдеи -->
<g id="edge101" class="edge"><title>Бэтман Аполло&#45;&#45;халдеи</title>
<path fill="none" stroke="#eeeeee" stroke-width="0.6" d="M1657.32,-689.134C1592.47,-714.256 1471.78,-761.011 1417.53,-782.026"/>
</g>
<!-- Любовь к трём цукербринам -->
<g id="node33" class="node"><title>Любовь к трём цукербринам</title>
<polygon fill="#181818" stroke="#090909" stroke-width="0.8" points="945.369,-67.3811 795.369,-67.3811 795.369,-31.3811 945.369,-31.3811 945.369,-67.3811"/>
<text text-anchor="middle" x="870.369" y="-46.8811" font-family="Helvetica,sans-Serif" font-size="10.00" fill="#fefefe">Любовь к трём цукербринам</text>
</g>
<!-- Любовь к трём цукербринам&#45;&#45;Еврайх -->
<g id="edge102" class="edge"><title>Любовь к трём цукербринам&#45;&#45;Еврайх</title>
<path fill="none" stroke="#eeeeee" stroke-width="0.6" d="M945.55,-50.4408C999.205,-51.197 1068.66,-52.176 1108.46,-52.737"/>
</g>
<!-- Любовь к трём цукербринам&#45;&#45;Кая -->
<g id="edge103" class="edge"><title>Любовь к трём цукербринам&#45;&#45;Кая</title>
<path fill="none" stroke="#555555" stroke-width="0.6" d="M885.652,-67.6299C939.32,-131.713 1118.66,-345.856 1169.38,-406.418"/>
</g>
<!-- Любовь к трём цукербринам&#45;&#45;суры -->
<g id="edge104" class="edge"><title>Любовь к трём цукербринам&#45;&#45;суры</title>
<path fill="none" stroke="#eeeeee" stroke-width="0.6" d="M945.574,-44.2904C998.931,-40.729 1072.24,-35.9376 1136.78,-32.0772 1220.12,-27.0925 1318.68,-21.8994 1366.05,-19.4471"/>
</g>
</g>
</svg>
